<svg id="Слой_1" data-name="Слой 1" xmlns="http://www.w3.org/2000/svg" xmlns:xlink="http://www.w3.org/1999/xlink" viewBox="0 0 2097.27 1655.72"><defs><style>.cls-1,.cls-29,.cls-3,.cls-7{opacity:0.95;}.cls-1{fill:url(#linear-gradient);}.cls-2{fill:#96bfe6;}.cls-3{fill:url(#linear-gradient-2);}.cls-4{fill:#4598e6;}.cls-5{fill:#36a342;}.cls-6{fill:url(#linear-gradient-3);}.cls-7{fill:url(#linear-gradient-4);}.cls-8{fill:#385369;}.cls-9{fill:#eea886;}.cls-10{fill:#434343;}.cls-11{fill:#a77860;}.cls-12{fill:#0e2d3d;}.cls-13{fill:#163342;}.cls-14{fill:#1d3b54;}.cls-15{fill:#285173;}.cls-16{fill:#f5a15d;}.cls-17{fill:#183c59;}.cls-18{fill:#616161;}.cls-19{fill:#e0cec7;}.cls-20{fill:#eea987;}.cls-21{fill:url(#linear-gradient-5);}.cls-22{fill:url(#linear-gradient-6);}.cls-23{fill:url(#linear-gradient-7);}.cls-24{fill:url(#linear-gradient-8);}.cls-25{fill:url(#linear-gradient-9);}.cls-26{fill:#fff;}.cls-27{fill:url(#linear-gradient-10);}.cls-28{fill:url(#linear-gradient-11);}.cls-29{fill:url(#linear-gradient-12);}.cls-30{fill:#344052;}.cls-31{fill:#ed6b4d;}.cls-32{fill:#393d63;}.cls-33{fill:#decbc4;}.cls-34{fill:#e8734d;}.cls-35{fill:#3c4145;}.cls-36{fill:#51565c;}.cls-37{fill:#f5e2d9;}.cls-38{fill:#2d3133;}.cls-39{fill:#292c47;}.cls-40{fill:#424773;}.cls-41{fill:#3a3f47;}.cls-42{fill:#e2d2ca;}.cls-43{fill:#323657;}.cls-44{fill:#ab9546;}</style><linearGradient id="linear-gradient" x1="1062.55" y1="1179.14" x2="1021.36" y2="432.58" gradientUnits="userSpaceOnUse"><stop offset="0" stop-color="#d1d7e0"/><stop offset="1" stop-color="#ebebff"/></linearGradient><linearGradient id="linear-gradient-2" x1="1736.33" y1="1387.28" x2="1736.33" y2="618.68" xlink:href="#linear-gradient"/><linearGradient id="linear-gradient-3" y1="1609.35" x2="1981.46" y2="1609.35" gradientUnits="userSpaceOnUse"><stop offset="0.01" stop-color="#1a2257"/><stop offset="1" stop-color="#5e60f2"/></linearGradient><linearGradient id="linear-gradient-4" x1="1024.87" y1="912.65" x2="1024.87" y2="350.65" xlink:href="#linear-gradient"/><linearGradient id="linear-gradient-5" x1="-4092.39" y1="1234.48" x2="-3965" y2="1234.48" gradientTransform="matrix(-1, 0, 0, 1, -3643.22, 0)" gradientUnits="userSpaceOnUse"><stop offset="0" stop-color="#3076a1"/><stop offset="1" stop-color="#48c9b6"/></linearGradient><linearGradient id="linear-gradient-6" x1="-3993.42" y1="1339.64" x2="-3761.83" y2="1339.64" xlink:href="#linear-gradient-5"/><linearGradient id="linear-gradient-7" x1="-3973.62" y1="1373.31" x2="-3799.8" y2="1373.31" xlink:href="#linear-gradient-5"/><linearGradient id="linear-gradient-8" x1="-4183.73" y1="1196.74" x2="-3922.71" y2="1196.74" xlink:href="#linear-gradient-5"/><linearGradient id="linear-gradient-9" x1="385.1" y1="1481.67" x2="233.12" y2="1025.74" gradientTransform="matrix(1, 0, 0, 1, 0, 0)" xlink:href="#linear-gradient-5"/><linearGradient id="linear-gradient-10" x1="267.51" y1="1779.43" x2="343.5" y2="1451.85" gradientUnits="userSpaceOnUse"><stop offset="0" stop-color="#c9c4c1"/><stop offset="1" stop-color="#fff6de"/></linearGradient><linearGradient id="linear-gradient-11" x1="233.29" y1="1523.8" x2="420.09" y2="1523.8" gradientTransform="translate(19.53)" xlink:href="#linear-gradient-10"/><linearGradient id="linear-gradient-12" x1="1534.18" y1="437.52" x2="1534.18" y2="120.94" xlink:href="#linear-gradient"/></defs><title>new page soluction banner for zyclyx</title><rect class="cls-1" x="761.14" y="232.59" width="527.46" height="527.46" rx="58.67"/><rect class="cls-2" x="902.77" y="639.97" width="244.21" height="12.06"/><rect class="cls-2" x="937.36" y="677.98" width="175.03" height="12.06"/><rect class="cls-3" x="1375.38" y="415.53" width="721.89" height="847.34" rx="69.12"/><rect class="cls-4" x="1702.69" y="915.41" width="57.26" height="10.6"/><rect class="cls-2" x="1485.32" y="1012.57" width="333.16" height="20.53"/><rect class="cls-2" x="1485.32" y="1111.14" width="269.41" height="20.53"/><rect class="cls-2" x="1485.32" y="1061.86" width="157.94" height="20.53"/><path class="cls-4" d="M1905.64,500V510.4h61.06v57.3h10.36V500ZM1491.06,567.7h10.36V510.4h61.06V500h-71.42ZM1966.7,863.35v57.32h-61.06V931h71.42V863.35Zm-465.28,0h-10.36V931h71.42V920.67h-61.06Z"/><path class="cls-5" d="M1944.74,1133.18a61.06,61.06,0,1,1,61.06-61.06A61.13,61.13,0,0,1,1944.74,1133.18Zm0-110.3a49.24,49.24,0,1,0,49.24,49.24A49.3,49.3,0,0,0,1944.74,1022.88Z"/><polygon class="cls-5" points="1940.85 1096.15 1913.11 1068.41 1921.46 1060.06 1940.85 1079.44 1968.02 1052.27 1976.37 1060.63 1940.85 1096.15"/><path class="cls-6" d="M1981.46,1609.35c0,25.61-443.57,46.37-990.73,46.37S0,1635,0,1609.35,443.56,1563,990.73,1563,1981.46,1583.74,1981.46,1609.35Z"/><rect class="cls-7" x="847.11" y="252.31" width="355.53" height="305.04"/><path class="cls-8" d="M1160.67,438c-11.71-31-39.84-45.19-53.12-49.63-4.72-1.57-13.17-4.32-22.07-7.2l-33.56-10.82H996.59s-19.16,6.42-39.53,13.56c0,0,0,0,0,0-18.76,6.57-38.52,13.75-45.18,17.1-13.91,6.94-37.31,56.59-42,62.28-2.44,2.93-13.3,22.26-24,43.87h59.61c6.3-10.82,11.15-19.22,11.15-19.22s3.77,8.27,8.35,19.22h191c3-12.71,4.9-28.71,4.9-28.71s10.23,13.91,21.4,28.71h55C1183.88,484.73,1167.27,455.5,1160.67,438Z"/><path class="cls-9" d="M1030.85,218.3s43.27,6.82,36.68,74.51-44.78,62.15-47.33,62.08-38.33,1.24-41.12-81.41C979.08,273.48,977.86,212.36,1030.85,218.3Z"/><path class="cls-9" d="M1068.2,273.69s4.73-5.06,6.47.07-6.46,28-6.75,29c0,0-.87,2-2,.89S1068.2,273.69,1068.2,273.69Z"/><path class="cls-9" d="M980.24,272.84s-4.64-5.15-6.47-.07,5.85,28.09,6.19,29.17c0,0,.83,2,2,.93S980.24,272.84,980.24,272.84Z"/><path class="cls-10" d="M1068.18,284.08l-6.2,8.28s.18-18.16-.82-21-2.51-11.55-3.34-13.6-37.16-12.23-69.24,3c0,0,1.41,13.06-1.67,14.22s-1.56,21.26-1.56,21.26l-5.1-5.74s-7.79-52.09-5.87-57.51,8.06-38.07,73.89-18.69c0,0,20.52-4.35,24.64,9.82S1068.18,284.08,1068.18,284.08Z"/><path class="cls-9" d="M1057.29,369.14c0-.06-5.55-2.73-5.55-2.73-2.7-6-.69-31.46-.69-31.46s-55.11-14-53.54-3.3-4.74,35.64-4.74,35.64l-28.27,14s30.12,80.87,64.73,70.44,47.69-73.36,47.69-73.36Z"/><path class="cls-11" d="M998.31,343.57S1007.18,355,1022.6,355c10.13,0,17.41-2.84,27.51-12.69,0,0-4.38,18.7-27.45,20.44C1022.66,362.78,1005.94,364.9,998.31,343.57Z"/><path class="cls-12" d="M839.22,615.12S871,630.68,863.16,673s-11.34,48-2.55,64.55,19.17,87.05,11.25,100.41-98-58.74-110.44-119.23,7.92-87.41,15.13-97.43S811.15,600.88,839.22,615.12Z"/><path class="cls-13" d="M827.23,1597h7.2v-34s14.14,9.42,23,22.45,21.07,11.91,39.63,11.08,17.74-8.31,16.08-18.84-20.51-13.86-26.61-15.52-19.93-25.51-24.38-31.32a79.77,79.77,0,0,1-9.29-15.52s-3.46-14.13-20.65,0S820,1556.63,822,1559.13,827.23,1597,827.23,1597Z"/><path class="cls-9" d="M863.53,1562.18c6.38,4.15,23,0,23,0-4.71-6.1-33.67-46.84-33.67-46.84-17.6-10.25-24.55,3.86-24.55,3.86C835.49,1521.39,857.16,1558,863.53,1562.18Z"/><path class="cls-9" d="M1048.83,935.26s11.54,2.21,15.48-3.21c3.35-4.61,11-8.15,13.37-9.25,3.15-1.46,11.16-9.55,13-5.6s-12.55,14-15.16,16.69,14.16,3.9,17,6.53-.67,30.29-12.08,28.13-22.17-12-24.25-12a70.8,70.8,0,0,1-8.37-1.24Z"/><path class="cls-9" d="M1090.06,939.29s34.49,8.91,36.3,11.43,1.2,4.36-2.06,3.66-33.57-7.64-33.57-7.64,39,17.4,41,19.14c1.12,1,.19,4.65-1.59,4.44s-41.47-15.25-41.47-15.25,36.43,16.31,37.61,18.25a2.75,2.75,0,0,1-3.45,3.79c-2.79-1-37.46-14.26-37.46-14.26s25.77,13.54,25.8,15.77c0,1.36-.64,4.54-7.18.83s-22.89-10.82-22.89-10.82Z"/><path class="cls-13" d="M733.86,1599.31h4.43v-24.94a54.18,54.18,0,0,1,11.49,20c3.61,11.92,16.5,15.45,36.18,14.9s19.95-8.33,18.29-20S786,1571.6,786,1571.6c-7.48-6.65-26.05-34.23-26.05-34.23s-11.92-3.18-21.27,4.37-6.44,24.59-6.17,29S733.86,1599.31,733.86,1599.31Z"/><path class="cls-14" d="M747.44,1005.14s-23.45,30.48-29.81,66.65,3.76,157.55,3.48,175.42-16.9,62.36-13.58,96S724,1544.5,724,1544.5l35.93-7.13s-2.08-170.85,0-185,6.25-65.66,7.08-71.48,52.78-158.64,52.78-184.71S804,962.6,747.44,1005.14Z"/><path class="cls-14" d="M865.22,1017.05s38.52,147,43.1,167.39,11.19,37.17,11.19,45.82c0,20.07-7.45,52.29-7.45,52.29l-48.92,234H816.55s26-140.36,26.66-167.8,21.87-66.57,17.72-78.21S794,1124.58,794,1124.58,746.47,974.37,865.22,1017.05Z"/><path class="cls-9" d="M786,1571.6l-26.05-34.23-21.27,4.37s5.73,15.32,16.06,26.84C767,1582.23,786,1571.6,786,1571.6Z"/><path class="cls-15" d="M849.31,767.21a48.07,48.07,0,0,1,27.88,14.36c12,12.85,23.27,33.36,26.41,40.21s47.2,70.41,49.49,71.84,24.43,8.83,39.1,13.77c22.65,7.62,68,24.12,68,24.12l-9,28.54s-85.35-27.93-106.73-33.2c-26.14-6.44-86.31-83.64-86.31-83.64S813.31,790.64,849.31,767.21Z"/><path class="cls-16" d="M821.6,756.07s20.57,9.71,27.71,11.14,34.86,37.43,39.72,50.57,0,32.86-10,56-.57,30.86-5.15,54-3.1,109.72-2.24,122.58-133.74,32.35-160.31,8.92c0,0,18-78,39.29-100.3,4.6-4.82,4.12-36.92,1-44.92S713,846.36,713,846.36s-2.6-60.57,12.86-72.58c13.43-10.43,50-14.14,56.6-16.43S808.17,754.07,821.6,756.07Z"/><path class="cls-9" d="M831.42,732.33s-.61,5.66-1.32,13.32c-.28,3-.58,6.37-.85,9.8-.82,10.26-1.47,21.27-1.08,26.91,0,0-21.38,21.42-45.69-25,0,0,10.22-19.15,2.53-45.22S831.42,732.33,831.42,732.33Z"/><path class="cls-17" d="M891.25,882.32s5.15-34.22-.32-55c0,0,0,17.9-9.82,43.32Z"/><path class="cls-9" d="M766.05,760.65s14.71,43.43,55.08,40.23,19.14-36.67,19.14-36.67-10.06-5.77-12.89-6.31-44.64-1.08-44.64-1.08Z"/><path class="cls-15" d="M840.27,764.21s21.15,58.49,21.15,118.11,1.7,156.73,9.09,187.4,28.39,125.51,28.39,125.51l16.47-8.52s-39.6-151.36-42.59-162.28,2.27-126.22,5.11-135.88,14.92-52.63,13-64.55c-2.37-15-16.43-37.27-39.15-56.39Z"/><path class="cls-15" d="M774,758.82a607.67,607.67,0,0,1,19.81,96c6.66,53.9-20.45,304.08-38.62,360.88l-70.42-11.36s15.15-176.84,35.73-209,27.13-60.65,4.91-127.82S735.18,767,735.18,767,767.86,759.52,774,758.82Z"/><polygon class="cls-18" points="850.01 937.28 764.62 1085.18 669.7 1030.38 751.38 880.34 850.01 937.28"/><polygon class="cls-19" points="839.72 942.37 763.88 1073.72 679.58 1025.05 752.12 891.8 839.72 942.37"/><polygon class="cls-18" points="811.74 930.57 817.06 921.35 782.98 901.68 776.32 910.13 811.74 930.57"/><path class="cls-9" d="M807.67,1035.51s-3.88,0-5.58-.81c0,0-3-1.73-5.18-2.83a17.55,17.55,0,0,0-1.73-.78c-1.74-.6-5.74-1.4-9.52-4s-17.14-18.1-17.14-18.1l6.31-9.6,4.63-9.84s28.08,1.82,31.87,3.85a9.77,9.77,0,0,1,1,.64c3,2,4.47,4.83,6,6.07.54.47,5.6,5.42,5.42,7.53a6.91,6.91,0,0,1-3.36,5.82s-.73,5.72-3.54,8.38c0,0-.5,5.29-5,7.61C811.9,1029.43,810.79,1034.74,807.67,1035.51Z"/><path class="cls-15" d="M749.81,767.21s-25.93-7.43-40.79,21.15-14.78,40.76-16.77,54.71c-1.87,13.18-10.34,49.14-11.2,52.86s-20,48-11.23,63.49,98.58,61.36,98,64.79,15.54-34.63,15.54-34.63-36.31-20.24-42.26-26.47c-9.66-10.12-30-21-25.85-33.59,4.92-14.75,19.69-64.52,23.12-71.81S771.67,776.5,749.81,767.21Z"/><path class="cls-20" d="M834.61,619.82s46.17,14.5,21.11,94.17-88.11-9.23-81.52-57.77S834.61,619.82,834.61,619.82Z"/><path class="cls-12" d="M860.43,666.3s-22.93,22.51-61.32,25.32c0,0-14.75,17.3-15.89,24.09,0,0-34.25-58.38,7.85-93.37S875.91,651.88,860.43,666.3Z"/><path class="cls-20" d="M799.57,693.21c-.3-5.8-3.87-19-12.49-15.3s.53,30.56,6.25,28.91C793.33,706.82,800.27,706.93,799.57,693.21Z"/><path class="cls-11" d="M830.1,745.65c-.28,3-.58,6.37-.85,9.8,0,0-20.37-1.22-34-31.53C796.14,725.25,811.07,747.18,830.1,745.65Z"/><path class="cls-21" d="M324.6,1474.18c29.6-20.82,64.24-165.89,66.31-252.3,1.06-44.26,14.14-62.7,25.68-79,11-15.55,20.57-29,15-59.82-10.61-58.93,17.28-84.37,17.56-84.62l-3.23-3.68c-1.24,1.09-30.29,27.33-19.15,89.17,5.18,28.82-3.37,40.87-14.19,56.12-11.36,16-25.49,35.93-26.59,81.69-2.21,92.73-37.63,229.7-64.23,248.4Z"/><path class="cls-22" d="M262.55,1431.86c-2.79-6.33-5.68-12.88-9-19.79-16.91-35.69-31.89-41.57-56.71-51.31-6.06-2.38-12.94-5.08-20.48-8.47-35.55-16-28.67-39.52-22.59-60.29.85-2.9,1.69-5.8,2.43-8.67,3.12-12.21-2.88-18.34-12-27.62-6.76-6.9-15.17-15.48-21.66-29-7.09-14.83-3.47-22.79.81-26.85,9-8.55,29.81-7,49.44,3.75,6.1,3.33,11.12,8.59,16.44,14.15,12.51,13.11,28.09,29.42,67.48,29.6,22.47.11,34.77,3.21,41.14,10.37,7.23,8.12,5.87,20.29,4,37.13-.65,5.82-1.39,12.42-1.84,19.55-2.68,42.55,22.44,73.24,22.69,73.54,15,17.87,33.49,54.94,25.51,77.76-3.34,9.57-10.82,15.59-22.23,17.89a63.26,63.26,0,0,1-12.52,1.36C286,1484.93,275.89,1462.08,262.55,1431.86Zm-92-224c-17.53-9.57-36.33-11.5-43.73-4.48-5.63,5.32-3,14.46.24,21.18,6.13,12.82,13.89,20.73,20.73,27.71,9.52,9.71,17,17.38,13.22,32.27-.75,2.92-1.61,5.87-2.47,8.82-6.05,20.69-11.76,40.23,19.9,54.46,7.43,3.34,14.25,6,20.26,8.37,25,9.83,41.6,16.33,59.34,53.77,3.3,7,6.21,13.55,9,19.92,15.32,34.7,24.56,55.65,58,48.88,9.59-1.94,15.85-6.88,18.58-14.7,7-20.11-9.79-55.32-24.65-73-1.08-1.31-26.62-32.44-23.81-77,.45-7.25,1.2-13.91,1.86-19.79,1.74-15.58,3-26.83-2.77-33.33-5.29-5.93-16.86-8.63-37.51-8.72-41.47-.2-57.85-17.34-71-31.12-5.27-5.51-9.81-10.27-15.24-13.24Z"/><path class="cls-23" d="M325.51,1513.19l4.89-.26c-.24-4.59-6.41-112.85-49.88-144.54-47.69-34.76-62.72-72.11-69.88-97.19-8.44-29.54-51.39-37.44-53.21-37.76l-.85,4.82c.41.07,41.75,7.69,49.35,34.29,7.36,25.77,22.8,64.15,71.71,99.8C319.24,1402.68,325.45,1512.09,325.51,1513.19Z"/><path class="cls-24" d="M317.24,1537.54c-10.23-5.09-9.86-25.58-9.3-56.58.71-39.17,1.68-92.82-18.83-142.16-21.78-52.42-2.35-67.74,16.44-82.56,21-16.59,40.92-32.27,2.77-103-17.52-32.5-23.08-54.47-17.51-69.17,5.52-14.52,21-20.18,37.36-26.18,28.26-10.34,60.3-22.06,56.16-81.88-1.27-18.34.88-29.62,6.78-35.49,6.41-6.39,15.85-5.69,26.78-4.89,16.52,1.2,35.23,2.57,51.53-18.69,1.69-5.32,17.28-52.75,35.92-60.87a13.2,13.2,0,0,1,11.4.07h0c12.87,6.15,20.33,13.45,22.83,22.31,4.34,15.42-7,32.8-20,52.93C499,963,475.71,998.86,499.86,1041.53c31.94,56.41,15.07,76.15-8.27,103.48-13.38,15.65-28.53,33.4-38.67,62.34-8.15,23.27,5.75,45.47,19.2,66.93,16.86,26.92,34.3,54.76-2.41,78.91C409,1393.13,349.05,1523.5,348.45,1524.82l-.25.54-.47.37c-11.18,8.76-19.32,13-25.45,13A11.15,11.15,0,0,1,317.24,1537.54ZM467,1349.1c32.72-21.52,18-45,1-72.22-13.4-21.4-28.6-45.65-19.67-71.15,10.44-29.81,25.91-47.92,39.56-63.9,22.88-26.77,38-44.46,7.74-97.89-25.61-45.25-.41-84.06,19.84-115.24,12.42-19.13,23.15-35.65,19.42-48.93-2.09-7.43-8.71-13.72-20.23-19.23h0a8.4,8.4,0,0,0-7.34,0C490,868.08,474.12,918.3,474,918.8l-.13.41-.25.34c-18,23.74-39.08,22.19-56,21-10.14-.74-18.15-1.33-23,3.47s-6.51,15.1-5.36,31.69c4.39,63.49-31,76.43-59.36,86.82-16,5.84-29.74,10.89-34.46,23.32-5,13.27.44,34,17.24,65.1,40.1,74.37,17.65,92.07-4.05,109.19-18.16,14.31-35.31,27.84-14.95,76.83,20.9,50.29,19.92,104.53,19.2,144.13-.49,27-.87,48.39,6.59,52.11,4.36,2.17,12.71-1.5,24.83-10.92C349.1,1511.69,406.52,1388.9,467,1349.1Z"/><path class="cls-25" d="M221.41,969.3c30.9-10.59,24.48,49,37.54,93s145.23,19.22,89.75,129.55,70.17,36.9,32.63,133.18-3.26,199.25-44.05,173.06-22.92-147.44-65.35-161.84-49.35-31.21-7.35-70.37S154.51,1187.84,192,1108.76,185.72,981.54,221.41,969.3Z"/><path class="cls-26" d="M323.05,1491.77c3.89-16.48,37.07-161.53,6.11-179.06-27.29-15.45-26.62-75.56-22.36-132.31,3.77-50.24-60.75-73.73-63.5-74.7l-1.64,4.61c.64.23,63.75,23.22,60.26,69.72-4.37,58.29-4.84,120.14,24.83,136.94,23.51,13.31,1.86,129.88-8.46,173.68Z"/><polygon class="cls-27" points="439.62 1440.12 395.51 1607.48 296.93 1607.48 252.82 1440.12 439.62 1440.12"/><path class="cls-28" d="M439.62,1440.12s-97.11,18.24-97.11,167.36H296.93l-44.11-167.36Z"/><rect class="cls-29" x="1340.42" y="37.26" width="387.53" height="349.02" rx="48.23"/><rect class="cls-4" x="1517.34" y="320.27" width="30.74" height="5.69"/><path class="cls-30" d="M1560.5,6.7s24.77,13.59,16.91,47-10.85,37.85-4.47,51.36,12,70.13,5.19,80.49-75.88-50.52-83.56-99.23,9.6-69.39,15.73-77.11S1538.66-5.72,1560.5,6.7Z"/><path class="cls-9" d="M1607,283.05h-26.51c-1.28-13.07-2.47-22.18-2.22-23.52.39-2.23-26.39-72.45-28.89-78.26s-12.33-21.37-13.61-36,17.83-20.59,17.83-20.59c25.82,4.62,34.56,40.34,34.56,40.34s10.84,72.41,16.33,92.79C1605.9,263,1606.66,272.23,1607,283.05Z"/><path class="cls-31" d="M1593.66,182.42l-39.49,16.64s-36.29-90-5.87-80S1592.27,147.93,1593.66,182.42Z"/><path class="cls-31" d="M1584.87,224.82c-1.15,8.94-5.87,40.61-4.82,49.16.18,1.41.76,4.66,1.64,9.07h-95.2c2.53-9,4.84-17,6.23-21.69,4.63-15.33.2-19.44-2.14-31.71-.91-4.8-4.1-13.92-7.59-24.22-1.17-3.44-2.37-7-3.52-10.63-4.19-13-6.14-26.25-7.34-34-5.74-36.62,22.43-40.14,22.43-40.14,10.46-1.93,28.75-7.58,28.75-7.58l28.64,6a31.08,31.08,0,0,1,6.7,4,0,0,0,0,1,0,0,51.48,51.48,0,0,1,6.45,5.65c3.13,3.21,9.36,12.41,15.57,22.52,1.9,3.1,3.82,6.28,5.62,9.41,5.82,10.08,10,18.21,9.83,27.38C1596,197,1586,215.88,1584.87,224.82Z"/><path class="cls-9" d="M1552,119.07s17.94,30.66,11.27,33-41.84-5.45-55.58-34.42C1507.64,117.6,1530.73,107.11,1552,119.07Z"/><path class="cls-9" d="M1549.38,133.07s-15.94,6.74-30.37-15.46c0,0,3.88-25.21-4.32-39.79s35.83,17.48,35.83,17.48-.71,3-1.45,7.44c-.37,2.28-.76,4.92-1.06,7.72-.25,2.34-.44,4.79-.52,7.24C1547.3,123.37,1547.71,129,1549.38,133.07Z"/><path class="cls-32" d="M1509.8,167.42c-3.28,16.87-26.82,38-26.82,38-1.16-3.45-2.36-7-3.51-10.62C1495.71,184.45,1509.8,167.42,1509.8,167.42Z"/><path class="cls-9" d="M1503.9,180.85c-1.49,6.15-8.35,68.44-7.61,70.56.44,1.22,3.77,15.63,7.09,31.64h-30.73c-3.15-10.32-5-18.88-4.56-23.74,2-21-5.16-88-5.16-88s-6.38-40.52,27.24-45.58c0,0,19.87,2.62,21.07,17.28S1505.39,174.71,1503.9,180.85Z"/><path class="cls-31" d="M1460.45,189.45l41.72,9.75s33.1-64.27,3.29-76C1474,110.83,1452.92,154.4,1460.45,189.45Z"/><path class="cls-20" d="M1556.65,10.26s36.26,13.31,13.28,75.88S1500,75.46,1507.11,37,1556.65,10.26,1556.65,10.26Z"/><path class="cls-30" d="M1575.49,48.3s-19.14,17.08-49.85,17.88c0,0-7.18,17.5-8.34,22.87,0,0-30.35-52.1,4.54-78.42S1588.37,37.38,1575.49,48.3Z"/><path class="cls-20" d="M1529.78,69.93c0-4.63-2.37-15.29-9.37-12.67s-.74,24.39,3.88,23.29C1524.29,80.55,1529.83,80.9,1529.78,69.93Z"/><path class="cls-11" d="M1547.53,116.63c-17-4.72-23.63-21-23.83-21.5,13.86,17.9,24.31,15.33,24.31,15.33C1547.76,112.8,1547.74,114.26,1547.53,116.63Z"/><path class="cls-4" d="M1626.29,100.42V106h32.78v30.76h5.56V100.42Zm-222.56,36.33h5.57V106h32.77v-5.57h-38.34Zm255.34,158.71v30.77h-32.78v5.57h38.34V295.46Zm-249.77,0h-5.57V331.8h38.34v-5.57H1409.3Z"/><rect class="cls-4" x="1004.35" y="581.03" width="41.05" height="7.6"/><path class="cls-4" d="M1147.91,287.38v7.44h43.77V335.9h7.44V287.38ZM850.63,335.9h7.44V294.82h43.77v-7.44H850.63Zm341.05,212V589h-43.77v7.43h51.21V547.9Zm-333.61,0h-7.44v48.53h51.21V589H858.07Z"/><path class="cls-33" d="M1941.92,858.6H1907.2c-.64-1.39-1.15-2.59-1.57-3.56-10.31-24.33-63.41-80.12-63.41-80.12V775a.1.1,0,0,0,0,.06v.06c0,.09-.06.15-.09.24s-.06.28-.12.46a1.07,1.07,0,0,0-.06.3c0,.09-.06.15-.09.24-2.18,8.13-12.88,48.63-18.23,82.2h-235c-.55-3.11-1.18-6.07-1.91-8.82a191.46,191.46,0,0,1-4.53-24.3c0-.39-.09-.75-.12-1.15-.18-1.42-.33-2.84-.46-4.23a223.16,223.16,0,0,1-.39-38.89c-.66,1.42-5.41,18.82-11.63,40.31-3.42,11.79-7.29,24.81-11.13,37.08H1503l69.63-200.88c1.54-1.21,19.61-9.94,32.79-16.23,13.45-6.41,29.68-15.81,44.34-23.85,7.49-4.11,14.56-7.82,20.7-10.64l.94-.42v0c10.12-4.62,16.86-7.68,16.86-7.68h0l4.38-.42c14.14-1.36,58-5.47,72.72-6.31,1.21-.1,2.23-.12,3-.16a11.78,11.78,0,0,1,1.48,0c1.84.13,10.91,3.27,22.79,7.8.45.15.9.33,1.36.52l1.69.63c1,.39,2.08.79,3.14,1.21,2.12.85,4.32,1.69,6.53,2.57l2.33.91c23.78,9.42,51,21.12,57.51,25.77,4.29,3.06,17.62,28.17,33.06,59.24C1914.91,743.88,1935.24,820.71,1941.92,858.6Z"/><path class="cls-9" d="M1769.49,585.16c-.63,31.58-61.79,48.86-61.79,48.86s-25.58-32.07-19.47-35.14c2.4-1.21,3.38-6,3.68-11.36a112.21,112.21,0,0,0-.35-14.33c-.18-2.23-.36-3.67-.36-3.67s8.74-9.22,19.86-20.2c19.43-19.21,46.13-43.82,46.17-34a9.27,9.27,0,0,1-.22,1.86C1752.31,539.18,1769.49,585.16,1769.49,585.16Z"/><path class="cls-11" d="M1745.93,538.87h0c-.12.18-2.71,4.07-7.14,9.63-9.39,11.81-27,31.21-46.88,39a112.21,112.21,0,0,0-.35-14.33,32.05,32.05,0,0,1-6.07-.73A189,189,0,0,1,1698.78,553l12.28-3.67Z"/><path class="cls-9" d="M1757.67,515.72c-5.29,11.51-10.31,19.85-11.74,23.15h0c-.93,2.15-3.45,5.66-7.14,9.63-10.08,10.86-28.81,25.18-47.23,24.68a32.05,32.05,0,0,1-6.07-.73c-7.44-1.63-16.22-5.08-21-14.54-38.16-74.7-10.53-135.79-10.53-135.79s104.32-29.5,120.64,1.91C1786,446.07,1770.1,488.68,1757.67,515.72Z"/><path class="cls-34" d="M1653.91,422.13s-9.69-.53-12.09-18.9c-2.37-18.15,2.42-23.18,2.42-23.18s43.07-18,58.54-20.37,53.49-4.6,62.41,5.6c0,0,21.66-5,27.56,30.92,9.36,57-31.9,112.43-31.9,112.43s.35-37.27-7.87-42.2-15.31,6.8-15.31,6.8l-16.81,3s25.53-55.13-5.1-57.17S1671.44,425.33,1653.91,422.13Z"/><path class="cls-9" d="M1738.13,458.37c1.6-16.41,31.29-22.68,29.3-5.47s-16.61,33.74-23.36,33.16S1736.91,470.89,1738.13,458.37Z"/><path class="cls-35" d="M1911.91,692.17c-9.67-31-18-55.49-21.76-58.15-6.49-4.65-58-18.82-82.44-28.4l-2.33-.91c-2.21-.88-4.41-1.72-6.53-2.57-1.06-.42-2.11-.82-3.14-1.21l-1.69-.63c-.46-.19-.91-.37-1.36-.52,0,0-.06.09-.12.12a401.83,401.83,0,0,0-27,34.52c-25.27,35.9-58.18,94.08-53.13,147.78,1.63,17.23,3.62,42,7,69.76q.36,3.3.81,6.64h114c1.39-29.07,3.87-67.36,7.62-82.2,0-.09.06-.15.09-.24a1.07,1.07,0,0,1,.06-.3c0-.16.09-.31.12-.46s.06-.15.09-.24v-.06a.1.1,0,0,1,0-.06s27.59,43.13,29,83.56H1943C1939.48,821,1928.5,745.33,1911.91,692.17Z"/><path class="cls-35" d="M1670.92,607.37s-8.61,28.65-19.73,100.18v0c-.4,2.39-.76,4.84-1.15,7.35,0,.27-.09.57-.12.87-.27,1.64-.52,3.33-.76,5,0,.21-.06.39-.09.61-.18,1.11-.36,2.26-.51,3.44-.43,2.81-.85,5.71-1.27,8.65-4.17,29.19-9.73,75.58-15.38,125.08h-45.07c-2.44-13.75-4.74-26.26-4.56-34.84a4.37,4.37,0,0,0-.21.57c-3.6,10-7.56,20.83-11.58,31.37l-1.08,2.9h-77.68l77.37-202.39c1.54-1.21,21.46-11.94,34.64-18.2,13.75-6.56,31.13-14.63,46.54-21.73,7.37-3.41,14.3-6.58,20.16-9.28Z"/><path class="cls-36" d="M1775.7,678.15,1745.93,695l12.73,13L1730.73,858.6h-10.52c-3.87-30.46-6.07-57.81-7.79-76.4-7.77-83.05,75.1-176.71,80.24-182.42,4,1.51,8.28,3.18,12.72,4.93Z"/><path class="cls-36" d="M1671.38,606.58s-11.13,36.3-24.06,126.94c-4.17,29.16-9.76,75.58-15.41,125.08h-4.39l-5.77-142.37,14.17-15.36-12.6-15.74,27-68.85c7.37-3.41,14.3-6.58,20.16-9.28Z"/><path class="cls-37" d="M1794.16,600.14l-24.67-15s-.69,13.52-61.79,48.86l17.35,48.87Z"/><path class="cls-37" d="M1691.45,592s1,14.6,16.25,42l-33.86,44.14-2.46-71.59Z"/><path class="cls-31" d="M1707.8,634s6.56,26.25,4.2,33.6c0,0-14.43,5.25-24.8-1.31C1687.2,666.31,1694.54,647.93,1707.8,634Z"/><path class="cls-31" d="M1699.84,723.27c-6.92,47.15-6.92,94.84-4.35,135.33h-28.92c-.39-5.71-.76-11.66-1.12-17.89-5.38-93.35,27.62-176.77,27.62-176.77l14.72-3.68S1703.05,701.51,1699.84,723.27Z"/><path class="cls-38" d="M1583.21,781.44c-1.1,22.4-.94,42.3-.94,42.3h0c0,.11,0,.72-.07,1.72,0-.38-.1-.76-.14-1.13-3.59,10-7.56,20.81-11.56,31.36a336.84,336.84,0,0,1-.9-34.17c1.6-62.81,21.36-95.75,21.36-95.75C1586.43,736.73,1584.25,760.22,1583.21,781.44Z"/><polygon class="cls-39" points="1312.88 858.87 1220.47 909.67 1127.66 763.63 1239.91 724.64 1312.88 858.87"/><polygon class="cls-26" points="1307.02 854.49 1220.6 901.99 1133.81 765.42 1238.78 728.96 1307.02 854.49"/><path class="cls-9" d="M1338.66,829s-16.08-7.7-23.14-11.72-25.22-9.54-26.69-10.85-53.83-4.54-57-7.28-6.26,6.42,7.31,9.39,32.46,10.25,33.49,15.55-13.94,6.56-15.45,10.93.42,3.39,2.57,4.33,17.81-7.74,24.7-5.28,17.41-.94,22.69.86,30.95,10.45,30.95,10.45Z"/><path class="cls-9" d="M1216,891.35s-13.51-12.17-20-17.25-18.81-20.06-20.62-20.93-25.24-49-29.06-50.89,3.62-8.4,11.7,3.23,22.29,26.6,27.7,25.51.75-15.69,4.28-18.82,3.36-.92,5.08.74-.36,19.79,4.64,25.33,5.89,16.78,9.65,21.05,21.89,25.1,21.89,25.1Z"/><path class="cls-40" d="M1507,1541.37s2.92,20.29,3.28,23.33,32.52-1.79,32.52-1.79l2.6-24.15S1511,1538.51,1507,1541.37Z"/><path class="cls-39" d="M1509.91,1562.13s-10.18,12.22-20,17.55-25.33,7.44-31.16,13c-4.2,4-15.31,21.13,25.6,20.78s60.65,2.42,65-4.15-6.34-48.51-6.34-48.51S1533.31,1564.24,1509.91,1562.13Z"/><path class="cls-40" d="M1276.61,1541.37s2.92,20.29,3.28,23.33,32.52-1.79,32.52-1.79l2.6-24.15S1280.63,1538.51,1276.61,1541.37Z"/><path class="cls-39" d="M1279.55,1562.13s-10.18,12.22-20,17.55-46.1,9.7-51.93,15.22c-4.2,4-11.2,20,46.38,18.51,40.9-1.06,60.64,2.42,65-4.15s-6.35-48.51-6.35-48.51S1303.51,1564.48,1279.55,1562.13Z"/><path class="cls-39" d="M1480.34,1020.05s30.21,48,28,91.38,11,90.76,15.49,136.08c5.06,50.52,25.76,170.14,26.51,197.16s-3.21,113.33-3.21,113.33l-41.44,1s-34.81-209.11-43.83-230.45S1408.1,1155.05,1406.6,1138,1480.34,1020.05,1480.34,1020.05Z"/><path class="cls-39" d="M1321.32,1026.56s-22.77,118.91-25.77,145.46-5,128.5-6.51,145.1-10,217.17-18,241.83h53s40.67-145.81,40.67-214.8,31.42-150,51.71-195.5,66.71-46.6,79.18-131.05C1495.55,1017.6,1338.2,999.77,1321.32,1026.56Z"/><path class="cls-9" d="M1429.93,616.53s-40.54-15.14-59.24,15.72-16.9,92.66,3.54,100.26,51.14,3.62,61.61-15.69,19.91-47.23,19.45-65.89S1440.58,621.92,1429.93,616.53Z"/><path class="cls-9" d="M1378.63,733.92s1.69,11-1.1,16.34,52.53,5.54,52.53,5.54,4.5-29.34,13-54.12S1378.63,733.92,1378.63,733.92Z"/><path class="cls-41" d="M1443.07,701.68s-3.82,6.3-19.4,3.85-34.6-23.18-41.11-25.45S1376,674,1376,674l-4.07,5.95-6.92.44s6.31-18.55-3.2-26.12,9.87-60,59.85-42.56c0,0,38.39,10.58,37,32.41S1451.66,690.8,1443.07,701.68Z"/><path class="cls-42" d="M1374.25,749.61s.17-10.3,4.84-11.29,51.56-5.49,57.29-3.24v12S1425.33,753.88,1374.25,749.61Z"/><path class="cls-9" d="M1377,666c.88-3.67,10.19-14.13,13.76-2.92s-5.39,26.27-10.39,25S1374.81,675.32,1377,666Z"/><path class="cls-43" d="M1188.19,871.36a.08.08,0,0,1,.07,0C1187.94,871.49,1187.9,871.5,1188.19,871.36Z"/><path class="cls-16" d="M1514.42,1134.39s-24.86,7.32-67.27,12-148.35-1.69-149-6.7,22.79-186.54,21.46-195.89-2-42.66-2-42.66c-.53,9.13-9.83,46.41-21,66.73-4.06,7.34-17.66,30.36-24.22,25.12-31.74-25.34-80.89-120.84-84-121.64,2.62-1.14,23.29-10.66,26.19-11.63,2.54-.84,25.44,23.4,39.31,38.43,6.19,6.7,10.58,11.57,10.58,11.57,4-9,18.6-65.8,23.14-85.46,10.22-44.32,8.65-46.16,8.65-46.16,31-9.39,78.11-28.49,78.11-28.49l62.13-2.53s57,12.55,79.48,22.7c2.13,1,2.14,50.87,8,64L1505.23,873s-10.76,77.81-13,112.42C1491.22,1001.31,1514.42,1134.39,1514.42,1134.39Z"/><path class="cls-16" d="M1526.43,898.53c-1.63,5.24-9,9.66-13.78,11.6a17.78,17.78,0,0,1-9.94,1l-2.44-.45h0l-42.58-7.89s-9.31-107.3,58.17-133C1517.65,770.36,1541.33,850.49,1526.43,898.53Z"/><path class="cls-44" d="M1512.65,910.12h0a17.78,17.78,0,0,1-9.94,1l-2.44-.45h0l4.2-54.82Z"/><path class="cls-44" d="M1264.35,909.72l-5.2,22s-5.65-22.11-5.38-33.6C1260,904.85,1264.35,909.72,1264.35,909.72Z"/><path class="cls-41" d="M1441.48,620.17s53.14-6.65.9,82.11Z"/><polygon class="cls-39" points="1170.39 755.8 1164.98 746.51 1207.53 731.84 1212.93 741.07 1170.39 755.8"/><rect class="cls-5" x="1159.26" y="14.63" width="51.72" height="15.59" rx="2.82"/><rect class="cls-5" x="1159.26" y="52.01" width="51.72" height="15.59" rx="2.82"/><rect class="cls-5" x="1159.26" y="89.38" width="51.72" height="15.59" rx="2.82"/><rect class="cls-5" x="1232.34" y="14.63" width="14.72" height="15.59" rx="2.82"/><rect class="cls-5" x="1232.34" y="52.01" width="14.72" height="15.59" rx="2.82"/><rect class="cls-5" x="1232.34" y="89.38" width="14.72" height="15.59" rx="2.82"/></svg>