<svg xmlns="http://www.w3.org/2000/svg" viewBox="0 0 415.43 351.18"><defs><style>.cls-1{isolation:isolate;}.cls-2{fill:#e5e6ed;}.cls-3{fill:#444695;}.cls-4{fill:#0b50b9;}.cls-5{fill:#fff;}.cls-6{fill:#110239;}.cls-7{fill:#fb961e;}.cls-8{fill:#c6c7d7;}.cls-9{fill:#f88667;}.cls-10{fill:#e45940;}.cls-11{fill:#abadc4;}.cls-12{fill:#002987;}.cls-13{fill:#00a1cc;opacity:0.65;mix-blend-mode:multiply;}.cls-14{fill:#e25b00;}.cls-15{fill:#fff9fd;}</style></defs><title>2</title><g class="cls-1"><g id="Layer_1" data-name="Layer 1"><path class="cls-2" d="M415.43,347.43V3.75A3.75,3.75,0,0,0,411.67,0h-94.4c-13.79,8.3-30.16,34.83-34.6,49.45-7.56,24.93-24.2,42.24-32.64,46.86-22.07,12.09-46.95,9.17-70.85,14.79-25.89,6.1-50,21.77-61.43,45-11,22.42-7.81,41.22-14.21,64.3-6.5,23.43-29.82,41.61-52,50.1-23.47,9-46.17,15.74-50.46,41.14a88.72,88.72,0,0,0,2.75,39.59H411.67A3.75,3.75,0,0,0,415.43,347.43Z"/><path class="cls-3" d="M18.44,285.33C9.66,291.27,3.2,299.22,1.11,311.59a88.72,88.72,0,0,0,2.75,39.59H411.67a3.75,3.75,0,0,0,3.76-3.75v-62.1Z"/><circle class="cls-4" cx="195.95" cy="157.71" r="68.41"/><circle class="cls-5" cx="195.95" cy="157.71" r="58.35" transform="translate(-2.11 312.75) rotate(-76.88)"/><rect class="cls-6" x="194.85" y="110.07" width="2.3" height="49.11" rx="1.14"/><path class="cls-6" d="M197,158.66v0a1.15,1.15,0,0,1-1.54.46L167.7,144.2a1.14,1.14,0,0,1-.46-1.54v0a1.14,1.14,0,0,1,1.54-.46l27.76,14.94A1.13,1.13,0,0,1,197,158.66Z"/><circle class="cls-7" cx="323.08" cy="121.09" r="38.76"/><circle class="cls-5" cx="323.08" cy="121.09" r="29.38"/><circle class="cls-7" cx="323.08" cy="121.09" r="20.98" transform="translate(104.89 388.36) rotate(-71.32)"/><circle class="cls-5" cx="323.08" cy="121.09" r="14.44" transform="translate(162.13 426.28) rotate(-82.74)"/><path class="cls-7" d="M316.42,121.09a6.67,6.67,0,1,0,6.66-6.67A6.66,6.66,0,0,0,316.42,121.09Z"/><path class="cls-8" d="M364.86,204.86c7.65-2.31,15-2.54,17.22-11.46,1.74-7.06-4.83-12.77.51-18.1,3.22-3.2,8.6-5.52,9.29-10.45.72-5.13-6-7.56-5.42-12.48.49-4.06,6-5,3.93-9.94a6.63,6.63,0,0,0-9-3.83c-4.13,1.7-4,5.65-6.57,8.69-1.68,2-4.57.51-7.38.49s-6.32.64-8.52,2.12c-7.15,4.83-.1,12.53-.7,19.51-.59,6.76-10.34,3.83-14.57,9.34-4.95,6.43.42,16,6.49,20.06C354.15,201.54,359.68,206.43,364.86,204.86Z"/><path class="cls-5" d="M357.11,204a.31.31,0,0,0,.13,0,.5.5,0,0,0,.55-.4c0-.18,3.18-17.76,14.29-30.37,6.25-7.1,7.16-13.8,7.88-19,.42-3,.77-5.65,2.1-7.19a.39.39,0,0,0-.09-.5c-.16-.15-.37-.17-.47,0-1.44,1.65-1.81,4.33-2.24,7.48-.72,5.17-1.63,11.78-7.81,18.73-11.34,12.78-14.56,30.64-14.6,30.82A.45.45,0,0,0,357.11,204Z"/><path class="cls-5" d="M371.52,172.82a.37.37,0,0,0,.5-.07.41.41,0,0,0-.11-.55c-2.79-2.19-5-6.76-3.67-9.95.15-.37.33-.78.52-1.2.9-2,2-4.41,1-6.54a5.82,5.82,0,0,0-2.76-2.64.34.34,0,0,0-.51.12.48.48,0,0,0,.26.54,4.69,4.69,0,0,1,2.29,2.15c.82,1.81-.22,4.09-1.07,6-.19.43-.38.84-.54,1.22-1.48,3.63.95,8.56,4,10.93Z"/><path class="cls-5" d="M373.63,174.17a6,6,0,0,0,4,.85c1.91-.34,3.5-1.9,4.62-4.49.11-.26.23-.55.35-.88.73-1.82,1.81-4.53,3.47-5a2.11,2.11,0,0,1,1.7.35.29.29,0,0,0,.43-.11.42.42,0,0,0-.19-.48h0a2.84,2.84,0,0,0-2.22-.45c-1.91.49-3.07,3.35-3.84,5.28-.13.32-.25.61-.36.86-1,2.4-2.48,3.83-4.17,4.13-1.48.25-3.17-.36-5-1.83a.38.38,0,0,0-.55,0,.41.41,0,0,0,.11.55A12.25,12.25,0,0,0,373.63,174.17Z"/><path class="cls-5" d="M357,195.69a4.57,4.57,0,0,0,1.67.42.46.46,0,0,0,.49-.41.44.44,0,0,0-.43-.47c-3.05-.18-5.58-4.76-6.12-7.26a11.55,11.55,0,0,1,.21-3.8c.4-2.49.8-5-1.11-6.65a.51.51,0,0,0-.68,0,.42.42,0,0,0,.05.62c1.52,1.27,1.15,3.6.78,5.87a11.77,11.77,0,0,0-.21,4.12C352.16,190.39,354.14,194.37,357,195.69Z"/><path class="cls-5" d="M360.81,197.23a5.19,5.19,0,0,0,1.71.45c3.41.35,7.43-2,9.26-3.68a14,14,0,0,0,2.51-3.93c1.23-2.44,2.49-4.92,4.43-4.85a.35.35,0,0,0,.36-.38.43.43,0,0,0-.39-.4c-2.4-.1-3.82,2.71-5.11,5.23a13.43,13.43,0,0,1-2.35,3.7c-1.66,1.48-5.5,3.77-8.61,3.44a4,4,0,0,1-2.91-1.61.48.48,0,0,0-.64-.1.43.43,0,0,0-.11.62A4.73,4.73,0,0,0,360.81,197.23Z"/><path class="cls-4" d="M117.14,285.88c-6.71-4.32-24-7.91-22.52-18,1.23-8.57,17.63-12.16,13.11-20.81-2.68-5.12-5.47-9.34-3.7-16.51,1.94-7.81,14.4-7.35,16.61-14.72,1.89-6.32-4.86-13.38,1.16-18.95,5.35-4.94,14.64-.83,17.32,4.37,3.34,6.51-2.58,11.67-1.77,17.92.51,4,4.37,4.33,7.11,6.45s5.38,5.23,6.4,8.37c3.06,9.43-7.05,13.59-10.3,21.05-3,6.9,6.46,8.15,6.91,14.61.48,7-7.89,13.21-14.53,15C128.35,285.85,121.29,288.56,117.14,285.88Z"/><path class="cls-5" d="M124.67,287.16h-.13a.35.35,0,0,1-.3-.47c.05-.17,5.44-16.82,1-34.61-2.94-11.85-.16-20.75,2.11-28,1.38-4.4,2.58-8.25,2-11.6a.54.54,0,0,1,.41-.61.47.47,0,0,1,.59.38c.63,3.59-.61,7.54-2,12.06-2.25,7.18-5,15.93-2.13,27.55,4.43,18-1,34.86-1.11,35A.53.53,0,0,1,124.67,287.16Z"/><path class="cls-5" d="M126.09,251.89a.42.42,0,0,1-.48-.34A.5.5,0,0,1,126,251c4-.87,8.65-4.67,9.17-9,.06-.51.11-1.08.16-1.68.24-2.86.54-6.44,2.75-8.32a5.82,5.82,0,0,1,4.25-1.23.43.43,0,0,1,.41.51.57.57,0,0,1-.56.45,4.7,4.7,0,0,0-3.49,1c-1.88,1.59-2.16,4.95-2.39,7.62,0,.61-.11,1.19-.17,1.71-.59,4.88-5.64,8.89-10,9.83Z"/><path class="cls-5" d="M123.16,252.24a7.27,7.27,0,0,1-4.83-1.24c-2-1.48-3-4.25-3-8.06,0-.38,0-.82,0-1.3.12-2.74.3-6.92-1.54-8.7a3.1,3.1,0,0,0-2.39-.83.48.48,0,0,1-.5-.48.54.54,0,0,1,.52-.5h0a4.18,4.18,0,0,1,3.12,1.11c2.12,2.06,1.91,6.49,1.78,9.38,0,.47,0,.9,0,1.28-.06,3.51.84,6,2.61,7.36,1.51,1.12,3.67,1.36,6.42.75a.43.43,0,0,1,.55.33.51.51,0,0,1-.4.56A15.48,15.48,0,0,1,123.16,252.24Z"/><path class="cls-5" d="M128.54,280.08a5,5,0,0,1-1.68-.13.37.37,0,0,1-.24-.52.51.51,0,0,1,.6-.28c2.77.76,7.06-2.45,8.7-4.46a12.74,12.74,0,0,0,1.66-3.45c.9-2.39,1.83-4.89,4.21-5.63a.41.41,0,0,1,.55.27.5.5,0,0,1-.36.55c-1.87.58-2.71,2.83-3.53,5a13.43,13.43,0,0,1-1.81,3.7C135.17,276.94,131.64,279.79,128.54,280.08Z"/><path class="cls-5" d="M124.42,280.3a6.16,6.16,0,0,1-1.8-.12c-3.42-.75-6.33-4.31-7.45-6.55a13.45,13.45,0,0,1-.79-4.88c-.16-3-.32-6.2-2.55-7a.4.4,0,0,1-.23-.58.56.56,0,0,1,.65-.25c2.75,1,2.93,4.63,3.09,7.76a12.74,12.74,0,0,0,.7,4.58c1,2,3.78,5.46,6.89,6.14a4.62,4.62,0,0,0,3.43-.53.47.47,0,0,1,.63.11.42.42,0,0,1-.19.58A5.86,5.86,0,0,1,124.42,280.3Z"/><path class="cls-6" d="M354.2,256.14c-2.88-4.28-12.18-10.83-8.75-16.44,2.92-4.77,13.57-2.7,13.1-9-.28-3.72-.85-6.94,2-10.74,3.15-4.13,10.42-.67,13.62-4.48,2.74-3.26.54-9.18,5.54-10.94,4.44-1.56,8.9,3.26,9.15,7,.32,4.71-4.51,6.25-5.63,10.17-.71,2.49,1.48,3.69,2.57,5.65a12.45,12.45,0,0,1,1.65,6.6c-.6,6.37-7.66,6.26-11.5,9.85-3.56,3.32,1.75,6.49.36,10.43-1.5,4.27-8.06,5.82-12.45,5.16C360.85,259,356,258.79,354.2,256.14Z"/><path class="cls-5" d="M358.34,258.82l-.07,0a.22.22,0,0,1-.06-.36,45.17,45.17,0,0,0,9.47-20.26c1.29-7.78,5.21-12.35,8.43-16.09,1.94-2.26,3.64-4.24,4.15-6.38a.34.34,0,0,1,.4-.25.29.29,0,0,1,.25.37c-.54,2.29-2.29,4.32-4.29,6.64-3.17,3.68-7,8.17-8.31,15.79a45.81,45.81,0,0,1-9.62,20.5A.34.34,0,0,1,358.34,258.82Z"/><path class="cls-5" d="M368.21,238.27a.28.28,0,0,1-.2-.33.32.32,0,0,1,.39-.22c2.6.51,6.32-.55,7.73-3,.17-.29.34-.62.52-1,.88-1.63,2-3.68,3.77-4.23a3.75,3.75,0,0,1,2.83.36.27.27,0,0,1,.11.4.35.35,0,0,1-.44.13,3,3,0,0,0-2.32-.33c-1.52.47-2.55,2.39-3.37,3.91-.18.35-.36.68-.53,1-1.6,2.74-5.62,3.82-8.45,3.27Z"/><path class="cls-5" d="M366.38,237.72a4.74,4.74,0,0,1-2.55-2c-.8-1.39-.7-3.3.31-5.54l.36-.76c.77-1.59,1.95-4,1.32-5.55a2.05,2.05,0,0,0-1.21-1.11.31.31,0,0,1-.17-.41.34.34,0,0,1,.43-.16h0a2.65,2.65,0,0,1,1.56,1.46c.73,1.76-.52,4.33-1.34,6-.14.27-.26.52-.36.74-.94,2.07-1.05,3.81-.34,5a5,5,0,0,0,3.62,2.08.28.28,0,0,1,.24.34.33.33,0,0,1-.38.23A9.57,9.57,0,0,1,366.38,237.72Z"/><path class="cls-5" d="M362.45,255.61a2.93,2.93,0,0,1-1-.5.24.24,0,0,1,0-.37.33.33,0,0,1,.43,0c1.45,1.16,4.82.36,6.31-.42a8.27,8.27,0,0,0,1.86-1.61c1.15-1.19,2.34-2.44,3.94-2.27a.28.28,0,0,1,.26.3.33.33,0,0,1-.35.24c-1.26-.14-2.34,1-3.38,2.06a8.55,8.55,0,0,1-2,1.73C367.18,255.45,364.36,256.23,362.45,255.61Z"/><path class="cls-5" d="M360,254.69a4.09,4.09,0,0,1-1-.53c-1.84-1.32-2.65-4.18-2.74-5.79a8.58,8.58,0,0,1,.78-3.1c.68-1.84,1.4-3.76.28-4.83a.26.26,0,0,1,0-.4.34.34,0,0,1,.45,0c1.37,1.31.55,3.49-.16,5.39a8.22,8.22,0,0,0-.75,2.9c.08,1.46.84,4.2,2.51,5.4a3,3,0,0,0,2.18.57.3.3,0,0,1,.34.22.28.28,0,0,1-.26.3A3.9,3.9,0,0,1,360,254.69Z"/><path class="cls-8" d="M228.71,229c7.2-.71,12.94-1.46,14.16-8.8.63-3.8-.69-6.68-4.4-9.38-3-2.18-4.59-3-4.85-6.49-.41-5.58,3-10.52.33-16.23-2.95-6.38-11.89-5-15.08-10.82C216,172,215,165.57,207.46,164.57c-6.31-.85-9.84,5.37-7.81,10.33,1.15,2.79,3.54,5,4.22,7.9s-.79,4.76-2.15,7c-3,5-4.35,10.36,1.23,14.74,3.33,2.62,5.86,4.87,4,8.6-2,3.93-2.93,6.19,1.63,10,3.4,2.86,6.84,3.17,11.12,4,4,.76,9.23,2.64,13.29,1.45Z"/><path class="cls-5" d="M227,224.82a5.21,5.21,0,0,0,1.48-1.9c1.29-3-1.2-6.49-3.45-9.68a21.45,21.45,0,0,1-2.66-4.39c-1.18-3.37-1.27-6.24-.28-10.58,1.17-5.14.08-7.47-3.66-11.53-3.16-3.42-6.23-7.13-6.77-10.45a.58.58,0,0,0-.66-.4.52.52,0,0,0-.51.54c.58,3.52,3.76,7.35,7,10.86,3.63,3.91,4.63,6,3.52,10.91-.83,3.7-1.09,7,.33,11a21.14,21.14,0,0,0,2.75,4.53c2.18,3.07,4.59,6.46,3.44,9.11a5.69,5.69,0,0,1-2.89,2.64c-.25.12-.36.36-.24.53a.55.55,0,0,0,.67.08A9.84,9.84,0,0,0,227,224.82Z"/><path class="cls-5" d="M221.18,203.16a.42.42,0,0,0,.16-.25c0-.23-.16-.42-.45-.43-2.55-.09-4.13-2.32-5.82-4.73-1.5-2.13-3.08-4.36-5.55-5.27a.67.67,0,0,0-.78.22.38.38,0,0,0,.24.58c2.17.8,3.67,2.91,5.1,4.93,1.76,2.48,3.54,5,6.65,5.1A.65.65,0,0,0,221.18,203.16Z"/><path class="cls-5" d="M222.25,209.86a.49.49,0,0,0,.12-.13,9.15,9.15,0,0,0,.69-1.61,4.81,4.81,0,0,1,1.39-2.31,14.74,14.74,0,0,1,1.43-1.13,7.29,7.29,0,0,0,2.66-2.83,15.36,15.36,0,0,0,1-7.51,13.92,13.92,0,0,0-.3-1.69c-.2-.93-.57-2.68-.31-3a.39.39,0,0,0-.13-.59.62.62,0,0,0-.72.13c-.51.57-.29,1.78.12,3.7a16.13,16.13,0,0,1,.3,1.6,15.37,15.37,0,0,1-.9,7.18,6.15,6.15,0,0,1-2.34,2.46,14.72,14.72,0,0,0-1.55,1.22,5.75,5.75,0,0,0-1.63,2.68,8.54,8.54,0,0,1-.63,1.47.34.34,0,0,0,.25.51A.7.7,0,0,0,222.25,209.86Z"/><path class="cls-4" d="M355.59,295.34c-6.83-4-12.09-7.32-10.47-15.83.81-4.31,3.11-6.82,7.59-8.18,3.63-1.11,5.43-1.36,6.88-4.89,2.29-5.58.78-11.81,5.14-16.52,4.81-5.19,12.85-.68,17.68-5.32,4.3-4.13,7.16-9.92,14.7-8.39a8.1,8.1,0,0,1,4.95,12.87c-1.93,2.4-5,3.76-6.48,6.48s-.56,5.22.18,8.11c1.66,6.51,1.49,12.94-5.67,15.45-4.27,1.49-7.6,2.9-6.85,7.91.8,5.36,1.08,8.42-5,10.8-4.54,1.77-8.22.54-12.89-.49-4.34-.95-10.27-1.14-13.85-4.31Z"/><path class="cls-5" d="M358.79,291.38a7.17,7.17,0,0,1-.78-2.78c-.2-3.85,3.5-6.67,6.83-9.21a21.51,21.51,0,0,0,4.12-3.66c2.3-3.14,3.33-6.16,3.78-11.1.51-5.75,2.31-7.72,7.22-10.45,4.12-2.29,8.24-4.9,9.73-8a.64.64,0,0,1,1.11.54c-1.59,3.31-5.86,6-10.12,8.36-4.76,2.62-6.39,4.4-6.88,9.88-.38,4.21-1.2,7.8-3.93,11.52a22.32,22.32,0,0,1-4.27,3.79c-3.23,2.44-6.8,5.15-6.62,8.61a7.41,7.41,0,0,0,1.94,4.24c.2.26.22.58,0,.71s-.49.05-.7-.2A12.69,12.69,0,0,1,358.79,291.38Z"/><path class="cls-5" d="M372.05,270.13a.56.56,0,0,1-.08-.33c0-.26.29-.39.58-.28,2.56.92,4.85-.83,7.3-2.7,2.16-1.65,4.43-3.38,7.19-3.37a.79.79,0,0,1,.72.53.4.4,0,0,1-.42.52c-2.42,0-4.59,1.63-6.65,3.2-2.54,1.93-5.13,3.9-8.25,2.77A.73.73,0,0,1,372.05,270.13Z"/><path class="cls-5" d="M368.75,276.87a1.07,1.07,0,0,1-.07-.19,11.39,11.39,0,0,1-.14-2,6.14,6.14,0,0,0-.59-3,16.56,16.56,0,0,0-1-1.76,8.71,8.71,0,0,1-1.63-4,17.84,17.84,0,0,1,1.57-8.08,15.15,15.15,0,0,1,.84-1.59c.49-.86,1.41-2.48,1.27-2.91a.39.39,0,0,1,.31-.54.6.6,0,0,1,.64.38c.31.75-.29,1.89-1.31,3.67-.33.59-.64,1.14-.8,1.51a17.64,17.64,0,0,0-1.51,7.73,7.3,7.3,0,0,0,1.45,3.49,18.85,18.85,0,0,1,1.1,1.91,7.23,7.23,0,0,1,.72,3.53,10.29,10.29,0,0,0,.13,1.85.35.35,0,0,1-.42.44A.73.73,0,0,1,368.75,276.87Z"/><path class="cls-6" d="M233.44,216.33c-7.82-1.24-13.92-2.42-15.5-10.94-.81-4.31.42-7.48,4.1-10.38,3-2.35,4.57-3.24,4.64-7.06.11-6-3.57-11.28-1.22-17.25,2.6-6.59,11.73-5.3,14.55-11.39,2.51-5.4,3.06-11.84,10.65-13.15a8.11,8.11,0,0,1,9.28,10.2c-.92,2.94-3.26,5.3-3.68,8.39s1.37,5.07,3.11,7.5c3.91,5.46,6.09,11.51.33,16.44-3.44,2.94-6,5.47-3.52,9.86,2.7,4.71,4.07,7.46-.73,11.88-3.58,3.3-7.46,3.49-12.18,4.23-4.39.68-10,2.65-14.47,1Z"/><path class="cls-5" d="M235,211.49a7.18,7.18,0,0,1-1.74-2.32c-1.58-3.51.84-7.48,3-11.06a21.72,21.72,0,0,0,2.51-4.9c1-3.77.87-7-.51-11.72-1.61-5.54-.65-8,2.93-12.35,3-3.64,5.9-7.56,6.16-11a.55.55,0,0,1,.65-.43c.34,0,.61.27.58.53-.28,3.66-3.27,7.72-6.39,11.46-3.48,4.17-4.36,6.43-2.82,11.71,1.17,4.06,1.71,7.7.52,12.15a22.2,22.2,0,0,1-2.61,5.09c-2.11,3.45-4.46,7.27-3,10.42a7.45,7.45,0,0,0,3.34,3.26c.28.16.42.45.3.64s-.44.22-.73.06A12.17,12.17,0,0,1,235,211.49Z"/><path class="cls-5" d="M239.62,186.87a.59.59,0,0,1-.19-.28c-.06-.25.13-.47.44-.47,2.72-.08,4.21-2.53,5.82-5.17,1.42-2.32,2.9-4.76,5.47-5.75a.79.79,0,0,1,.86.23.39.39,0,0,1-.19.64c-2.27.87-3.68,3.19-5,5.4-1.67,2.72-3.37,5.49-6.68,5.57A.72.72,0,0,1,239.62,186.87Z"/><path class="cls-5" d="M239,194.35a.65.65,0,0,1-.13-.16,11.35,11.35,0,0,1-.87-1.82,6.12,6.12,0,0,0-1.65-2.61,16.82,16.82,0,0,0-1.59-1.28,8.5,8.5,0,0,1-3-3.14,17.74,17.74,0,0,1-1.48-8.09,14.8,14.8,0,0,1,.21-1.79c.14-1,.41-2.83.13-3.18a.4.4,0,0,1,.09-.62.63.63,0,0,1,.74.13c.55.59.41,1.87.11,3.9a16.19,16.19,0,0,0-.2,1.69,17.61,17.61,0,0,0,1.39,7.75,7.41,7.41,0,0,0,2.63,2.73,18.23,18.23,0,0,1,1.72,1.38,7.31,7.31,0,0,1,2,3,10,10,0,0,0,.79,1.68.36.36,0,0,1-.23.57A.78.78,0,0,1,239,194.35Z"/><path class="cls-8" d="M96.94,298.48c-9.77-.34-18.58,1.7-24-8.15-4.26-7.8,1.71-16.61-6.27-21.23-4.81-2.78-11.9-3.83-14.25-9.44C50,253.81,57.21,248.83,55,243.2c-1.86-4.64-8.59-4-7.77-10.51a8.12,8.12,0,0,1,9.48-7.37c5.41.73,6.54,5.42,10.48,8.22,2.63,1.87,5.56-.83,8.89-1.73s7.66-1.23,10.73-.16c10,3.46,4,14.77,6.94,22.84,2.81,7.8,13.41,1.28,20.15,6.46,7.86,6.05,4.5,19-1.39,25.75C108.55,291.19,103.54,298.7,96.94,298.48Z"/><path class="cls-5" d="M105.82,295a.53.53,0,0,1-.15.08.61.61,0,0,1-.77-.3c-.09-.21-9.32-20-26.4-31.42-9.62-6.43-12.8-14.06-15.28-20-1.45-3.48-2.69-6.44-4.74-7.84a.46.46,0,0,1,0-.61.4.4,0,0,1,.55-.21c2.21,1.5,3.49,4.55,5,8.14,2.46,5.88,5.61,13.41,15.09,19.69,17.41,11.55,26.82,31.65,26.92,31.86A.54.54,0,0,1,105.82,295Z"/><path class="cls-5" d="M79,262.7a.45.45,0,0,1-.61.06.49.49,0,0,1,0-.68c2.61-3.46,3.74-9.55,1.22-12.91-.3-.4-.64-.81-1-1.25-1.69-2.07-3.75-4.59-3.28-7.41a7.19,7.19,0,0,1,2.42-4,.43.43,0,0,1,.65,0,.57.57,0,0,1-.14.71,5.85,5.85,0,0,0-2,3.26c-.39,2.41,1.55,4.78,3.14,6.71.36.45.71.88,1,1.28,2.89,3.83,1.56,10.41-1.3,14.17Z"/><path class="cls-5" d="M77,265a7.33,7.33,0,0,1-4.44,2.25c-2.36.2-4.73-1.15-6.87-3.86-.2-.27-.44-.58-.69-.93-1.43-1.92-3.56-4.78-5.65-4.77a2.65,2.65,0,0,0-1.9.95.34.34,0,0,1-.54,0,.52.52,0,0,1,.07-.63h0a3.45,3.45,0,0,1,2.48-1.22c2.42,0,4.68,3,6.2,5,.25.33.48.64.69.9,2,2.51,4.13,3.76,6.22,3.57,1.83-.16,3.63-1.41,5.36-3.72a.47.47,0,0,1,.66-.14.51.51,0,0,1,0,.69A15.56,15.56,0,0,1,77,265Z"/><path class="cls-5" d="M103.33,285.18a5.63,5.63,0,0,1-1.84,1,.56.56,0,0,1-.72-.34.55.55,0,0,1,.37-.69c3.55-1.17,5.1-7.36,5-10.49a13.73,13.73,0,0,0-1.44-4.42c-1.25-2.83-2.53-5.72-.77-8.21a.62.62,0,0,1,.81-.21.5.5,0,0,1,.13.75c-1.4,2-.23,4.6.91,7.17a14.1,14.1,0,0,1,1.54,4.81C107.41,277.39,106.32,282.72,103.33,285.18Z"/><path class="cls-5" d="M99.33,288.19a6.63,6.63,0,0,1-1.88,1.07c-3.93,1.47-9.42-.09-12.1-1.45a17.09,17.09,0,0,1-4.2-3.86c-2.22-2.5-4.48-5-6.75-4.34a.44.44,0,0,1-.55-.34.53.53,0,0,1,.34-.6c2.8-.86,5.36,2,7.68,4.59a16.39,16.39,0,0,0,3.93,3.63c2.43,1.23,7.69,2.73,11.25,1.37a4.87,4.87,0,0,0,2.94-2.81.57.57,0,0,1,.73-.32.51.51,0,0,1,.32.69A5.77,5.77,0,0,1,99.33,288.19Z"/><polygon class="cls-7" points="366.81 161.71 260.45 161.71 260.45 189.35 217.41 189.35 217.41 216.99 174.38 216.99 174.38 244.63 131.34 244.63 131.34 272.27 88.31 272.27 88.31 307.21 366.81 307.21 366.81 161.71"/><path class="cls-9" d="M306.79,103s.87,2.09.83,2a6,6,0,0,1,1.4-.63,9.72,9.72,0,0,0,1.66-.12,2.77,2.77,0,0,0,1-.49c.16-.1.44-.42.19-.5s-.46.24-.6.3a2.92,2.92,0,0,1-.64.06s.18-.09.55-.23a6.85,6.85,0,0,0,1.22-.57c.13-.12.1-.39-.24-.33a4.59,4.59,0,0,0-.86.29l-.72.26.76-.31c.22-.1.84-.34,1.22-.51s.3-.6,0-.57a8.7,8.7,0,0,0-1.25.53c-.14,0-.73.32-.73.32s.71-.33.83-.41.91-.38,1-.61,0-.35-.28-.3a4,4,0,0,0-1,.34,9.84,9.84,0,0,1-1.55.63c-.22,0-.47,0-.47-.29l-.39-.72s-.26.13-.4.78C308.17,102.31,307.58,102.75,306.79,103Z"/><path class="cls-4" d="M283.21,111.36a3.57,3.57,0,0,1,3.09-3.45c2.83-.42,8.09-1.23,9.67-1.6,2.21-.51,11.21-3.51,11.21-3.51l1,2.37s-9.8,4.93-11.56,5.31-10.81,3.6-12.57,2.58A1.8,1.8,0,0,1,283.21,111.36Z"/><path class="cls-9" d="M283.62,100.15l.15.17a10.31,10.31,0,0,0,1.62,1.4c.36.24.91.4,1.22.65a4.56,4.56,0,0,0,.39.27,29.72,29.72,0,0,0-.56,4.69s-3.22-.23-4.39-1.53A33.4,33.4,0,0,0,283.62,100.15Z"/><path class="cls-10" d="M285.34,105.53a4.68,4.68,0,0,0-1.46-2.43,8,8,0,0,0-.77-.57,17.11,17.11,0,0,0,.51-2.38l.15.17a10.31,10.31,0,0,0,1.62,1.4c.36.24.91.4,1.22.65a4.56,4.56,0,0,0,.39.27,29.72,29.72,0,0,0-.56,4.69,12.28,12.28,0,0,1-1.28-.18A2.36,2.36,0,0,0,285.34,105.53Z"/><path class="cls-6" d="M285.4,157.65s.09,3.21.59,3.65,6.9.63,7.45,0,.22-1.58-1.15-2-2.19,0-3.11-.39-.68-1.84-.68-1.84Z"/><path class="cls-6" d="M269.55,157.54s-.49,3.13,0,3.59,7,1,7.57.4.29-1.56-1.07-2-2.16-.17-3.09-.52c-.74-.26-.24-1.75-.24-1.75Z"/><path class="cls-8" d="M274.27,139.53a96,96,0,0,1,1.34-17.87,8.23,8.23,0,0,1,3.19.62c1.95.89,3.91,1.74,5.87,2.59a127.15,127.15,0,0,0-5.49,16.3c-.52,2.79-6.37,17.07-6.37,17.07l-3.54-.45C269.33,155.49,274.29,140.3,274.27,139.53Z"/><path class="cls-11" d="M281.53,123.55c1,.5,2.1.9,3.16,1.29a132.8,132.8,0,0,0-5.05,14.54c-.5-1.5-2.9-5.12-3.82-9.09a21.13,21.13,0,0,1-.3-8.08v0A15.15,15.15,0,0,1,281.53,123.55Z"/><path class="cls-8" d="M278.89,123.06c1.38.47,3.89,1.14,5.78,1.81,1.32,3.34,5.22,11.21,5.42,14.77.23,3.93-1.13,18.8-1.13,18.8h-4s-.38-16.76-.94-17.84c-1.87-3.56-3.94-6.37-5.12-8.58a27.59,27.59,0,0,1-3-7.83c-.15-.77-.82-3.34.48-4.14C277.42,120.36,277.74,122.68,278.89,123.06Z"/><path class="cls-4" d="M286.15,125.68a16.33,16.33,0,0,1-6.75,1c-2.48-.23-3.77-.27-5.22-1.06,0,0,1.55-12.08,3.34-15.9a8,8,0,0,1,4.73-4.54,10,10,0,0,0,4.21,1.32s0,7.43-.19,10.39S286.15,125.68,286.15,125.68Z"/><path class="cls-12" d="M286.31,115.86c0-.33,0-.67,0-1v-.13q0-.52,0-1.08v-.19c0-.41,0-.83,0-1.25v0a2.27,2.27,0,0,1-.45,0,10.59,10.59,0,0,1-3.24-1.49,5.36,5.36,0,0,0-.53-.28c-.21,1.59.51,3.53.81,4.79a27.22,27.22,0,0,1,.59,11.29,18.77,18.77,0,0,0,2.58-.75s0-5.77.12-8.74c0-.26,0-.57,0-.89A1.21,1.21,0,0,0,286.31,115.86Z"/><path class="cls-9" d="M282,97.14s1.37-2.88,3.2-2.76,3,.42,3.25,1.12a20.64,20.64,0,0,0,1.13,3.38c.46.72,1.48,1.66,1.45,2s-1.06.44-1.12.57-.63,2.5-1,2.75-3.9-1.12-4.44-2.17S281.79,99,282,97.14Z"/><path class="cls-6" d="M285.68,97.41a5.36,5.36,0,0,1,.55.15c.27,0,.54.08.81.12a3.33,3.33,0,0,0,1.63,0c.8-.26.54-1.05.91-1.6.18-.26.55-.26.75-.56a1.93,1.93,0,0,0,.23-1c0-.83-.82-.91-1.47-1.07s-.79-.6-1.15-1.17c-.89-1.41-2.14.54-3.13.42-.5-.06-1-.39-1.52-.11a3.4,3.4,0,0,0-1,1c-.3.39-.59.23-1,.4a2.65,2.65,0,0,0-.89.68,2.74,2.74,0,0,0-.68,2.2c.14.65.66,1,.68,1.68a3.9,3.9,0,0,0,.26,1.69c.38.72,1.23.81,1.8,1.3a2.43,2.43,0,0,0,2,.63c.08-.5,0-1.36-.42-1.61a2.72,2.72,0,0,1-.67-.35.79.79,0,0,1,.75-1.33c.58.08.84,1.66,1.47,1.41s-.1-1-.23-1.27-.27-1.27.07-1.57A.25.25,0,0,1,285.68,97.41Z"/><path class="cls-9" d="M301,125.75a2.36,2.36,0,0,1,.47,0,2,2,0,0,0,1-.13,4.09,4.09,0,0,1,1.75-.42c.29,0,2.06.46,1.62,1.19-.06.09-.27.24-.33.22l-.69-.25a3.57,3.57,0,0,1,.47.2c.07,0,.2.1.24.17a.45.45,0,0,1-.2.53c-.15,0-.27-.1-.4-.17h0c.12.09.39.16.22.53s-.31.15-.48.11l-.19-.07a2.53,2.53,0,0,1,.36.2c.17.14-.2.63-.52.59s-.68-.31-.79-.28a2.85,2.85,0,0,1-.41,0A2.46,2.46,0,0,1,302,128c-.17-.08-.49-.21-.66-.3a6.35,6.35,0,0,1-1-.66C300.65,126.47,301.08,126.34,301,125.75Z"/><path class="cls-4" d="M300.41,128l1.43-2.82s-7.06-4.51-9.64-7.11-5.36-7.9-7.33-8.23-3.95.75-2.81,3.49,6.91,6.36,8.08,7.57S299.26,127.31,300.41,128Z"/><path class="cls-7" d="M296.79,74c.85-.23,3.57-1.19,4.92,3.91,1.3,4.85,2.47,11.35,2.47,11.35s-4.46-4.87-7.54-8.84C293.41,76.29,296,74.41,296.79,74Z"/><path class="cls-6" d="M300.61,78.32,304.75,84A35.66,35.66,0,0,1,308,89.44l15.63,32.32-19-27.48a35.4,35.4,0,0,1-4.84-10.13l-1.31-4.44A6,6,0,0,0,300.61,78.32Z"/><path class="cls-7" d="M304.94,89.79s4.55-8.64,2.33-15-7.79,4.33-7.79,4.33Z"/><path class="cls-7" d="M305,89.74s-9.67-1.38-13.49-6.89,8.08-3.77,8.08-3.77Z"/><path class="cls-9" d="M308.76,103.11c.12,0,1.57-.41,1.68-.44s-.63-1.22-.63-1.22c0-.31,1.22-.39,1.48-.53.8-.41.48-.91.12-.8s-.8.24-1,.34a3.75,3.75,0,0,1-.82.09,6,6,0,0,0-1,.71,2,2,0,0,0-.39,1.07C308.16,102.9,308.49,103.22,308.76,103.11Z"/><path class="cls-6" d="M317.25,271.43l.48,50.44c0,2.61.77,4.14,4.52,4.62,4.65.6,6.06-.22,6.75-1.5,1.3-2.41,14-50.61,16.1-53.89S317.25,271.43,317.25,271.43Z"/><path class="cls-8" d="M364.41,254.06a5.67,5.67,0,0,1,5.57,4.37,27.14,27.14,0,0,1,.64,5.87c0,2.87-.19,4.74-.9,6.31a5.54,5.54,0,0,1-4.89,3.17c-10.24.37-47.11,1.82-54.8,3.62-8.95,2.11-38.93,15.41-38.93,15.41l5.71-67.43s27.54,22.32,45,25.8C335.44,253.88,356,254.1,364.41,254.06Z"/><path class="cls-4" d="M345.66,274.58c-3.82.19-7.79.39-11.69.61,2.45-7.9,1.48-16.93.24-22.32,3.9.37,7.88.63,11.71.81A41.21,41.21,0,0,1,345.66,274.58Z"/><path class="cls-2" d="M241.84,256.85c-.19,24.38,11.42,44.23,25.93,44.35s26.44-19.56,26.63-43.94S283,213,268.47,212.92,242,232.47,241.84,256.85Z"/><path class="cls-6" d="M243.8,256.87c-.16,20.73,9.71,37.62,22.06,37.72s22.49-16.64,22.65-37.37-9.71-37.63-22.06-37.73S244,236.13,243.8,256.87Z"/><path class="cls-7" d="M270.89,260.68c-.53-7.39,4.3-13.75,10.8-14.22a10.64,10.64,0,0,1,6.18,1.53,61.46,61.46,0,0,1,.64,9.23,59.61,59.61,0,0,1-2.09,15.35,10.26,10.26,0,0,1-2.81.64C277.11,273.68,271.42,268.07,270.89,260.68Z"/><path class="cls-9" d="M309.9,233.7a3.47,3.47,0,0,0-.29-2.25c.38.06.95.12.92-.1s-.11-.74.11-.7a1.58,1.58,0,0,1,.56.29,2.6,2.6,0,0,0,1.31.32c.16.52.6,1.31.32,1.87-.15.28-.92.15-1.26.28A5.93,5.93,0,0,1,309.9,233.7Z"/><path class="cls-5" d="M320.69,209.9a17.27,17.27,0,0,1,7.64,1.89l-2.05,8.92a9.4,9.4,0,0,0-5-1.1Z"/><path class="cls-8" d="M322.83,214.58c0-1.49-.11-3-.14-4.46a12.81,12.81,0,0,0-2-.22l.6,9.71c.84-1.27,1.23-1,1.4-1.15C322.68,217.18,322.85,215.85,322.83,214.58Z"/><path class="cls-5" d="M303,210.36s11.62-4.57,19.24-3l.5,11.11s-6.76-1.49-16.11,2.61Z"/><rect class="cls-6" x="307.06" y="209.58" width="1" height="27.87" transform="translate(-56.3 113.26) rotate(-19.15)"/><path class="cls-4" d="M311.92,233.77v-3.15s9.39.07,13.33-1.05,9.21-5.77,11.31-5,3.44,2.89.84,4.94-8.8,3.82-11.48,4.23C324.06,234,313.4,233.77,311.92,233.77Z"/><path class="cls-12" d="M327.63,231.8c3.32-1.38,6.45-4.37,9.12-7.17,2,.81,3.18,2.88.65,4.86s-8.8,3.82-11.48,4.23c-.92.14-4,.15-7,.13A30.52,30.52,0,0,0,327.63,231.8Z"/><path class="cls-6" d="M327.72,270.22s1.83,3,1.56,3.67-6.65,4.4-7.5,4.11-1-1.31.11-2.33,2-1.18,2.72-2.07,0-2.79,0-2.79Z"/><path class="cls-6" d="M338.43,245.1a4,4,0,0,1-2.62.87c-1.35-.18-14.48,1.18-15.83,2.3s4.16,23.33,4.16,23.33l4.57-.76s-1.64-16.25-1.36-16.36,7.17-.09,18.93-.09c2.87,0,6.07-6,2.44-10.25Z"/><path class="cls-9" d="M336.39,220.34a5.41,5.41,0,0,0,1.23-.77c.18,1.35.68,3.84,2.06,5.14a10.26,10.26,0,0,1-5.19.66,16.94,16.94,0,0,0-.2-4.72A4.72,4.72,0,0,0,336.39,220.34Z"/><path class="cls-10" d="M337.78,224.2a3.43,3.43,0,0,0-3.27-2.28,6.18,6.18,0,0,0-.22-1.27,4.72,4.72,0,0,0,2.1-.31,5.41,5.41,0,0,0,1.23-.77c.18,1.35.68,3.84,2.06,5.14a11.93,11.93,0,0,1-1.69.52A4.29,4.29,0,0,0,337.78,224.2Z"/><path class="cls-9" d="M337.2,212.64s-3.37-1-4.43-.39a4.84,4.84,0,0,0-1.71,4c.19,1.22-1.22,2.64-1.25,3.08s1.06.61,1.1.75.09,2.36,1.57,2.74c2.08.52,4.85-1.14,5.81-2.4S340.37,213.4,337.2,212.64Z"/><path class="cls-6" d="M330.93,212.79c.18-.18.63-.47.75-.7a3.76,3.76,0,0,1,.25-.58c.37-.55.46-.95,2-1.43A4.79,4.79,0,0,1,338,211a4.12,4.12,0,0,1,1,1.14c.07.13.3.49.25.63s-.57.29-.73.38a7.25,7.25,0,0,0-.76.61c-1.53,1.25-3.93,2.59-5.63.86a8.67,8.67,0,0,1-.63-.73,4.53,4.53,0,0,0-.47,2.23,2,2,0,0,1-.68-1.08A2.28,2.28,0,0,1,330.93,212.79Z"/><path class="cls-6" d="M338.05,212.68a2.73,2.73,0,0,1,1.6-.05,1.91,1.91,0,0,1,1.51,1.69,7.7,7.7,0,0,1,.16,1.58,6.12,6.12,0,0,1-.39,2.4,5.81,5.81,0,0,1-1.41,2.23c-.6.54-1.77,1.16-2.35.93a4.54,4.54,0,0,1-.49-2.14c.06-.41.26-.41.58-.59.53-.31,1.13-.91.74-1.56-.56-.93-1.6-.5-2,.78,0,0-.41.72-.64.61S334.12,214.8,338.05,212.68Z"/><path class="cls-10" d="M337.62,217.3a.88.88,0,0,0-1,.26c-.41.47-.22,1.23.18.95s.24-.53.31-.77A.74.74,0,0,1,337.62,217.3Z"/><path class="cls-4" d="M350.34,243.86s-4.76,3.69-14.62,2a21.35,21.35,0,0,0-.8-5.6,52.53,52.53,0,0,1-2.1-11,6,6,0,0,1,1.72-4.66s1.85,1.73,4.61-.53a12.11,12.11,0,0,1,7.68,7.19A64.66,64.66,0,0,1,350.34,243.86Z"/><path class="cls-12" d="M338.46,228.74c2.55,2.75.09,9.52-3.13,13.3a16,16,0,0,0-.41-1.73c-.44-1.46-1-3.65-1.41-5.81a5.1,5.1,0,0,0,2.06-2.45C336.56,229.65,337.2,228,338.46,228.74Z"/><path class="cls-9" d="M317.83,247.66a2.49,2.49,0,0,1-1.19.62,1.61,1.61,0,0,0-.62.15,2.89,2.89,0,0,1-.68.25,1.32,1.32,0,0,0-.64.31c-.2.23.18.3.43.31s1-.47,1.24-.27-.71.73-.9.83c-.44.24-.77,0-1.22.06-.27,0-.39.09-.2.33s.4.19.61.21a2.67,2.67,0,0,0,1.31-.22,3.11,3.11,0,0,1-1.2.33c-.24,0-1.26-.08-1.26.29,0,.76,2.26.28,2.59,0a3.72,3.72,0,0,1-1.19.4c-.24.06-.82.16-.5.48s1.59-.31,2.15-.56a4.18,4.18,0,0,1-1,.61c-.47.25-.12.51.4.34a5.81,5.81,0,0,0,.73-.34,4.12,4.12,0,0,0,1.79-1.9c.18-.32.85-.73.78-1C319.1,248.26,318.27,248,317.83,247.66Z"/><path class="cls-4" d="M317.14,247.2l1.91,2.59s12.22-5.29,13.32-6.69a70,70,0,0,0,5.25-7.88c1.31-3.17,2.92-6.94,0-7.6-1.59-.36-2.62,0-3.61,2.38a64.14,64.14,0,0,1-5.37,9.78C328.19,240.38,317.14,247.2,317.14,247.2Z"/><path class="cls-9" d="M308.53,231.5c-.17.27.31,1.45.76,1.95a.85.85,0,0,0,1.13.08c.38-.23.84-.31.9-.54.08-.88-.74-.21-1.1-.09,0,0,1-.48,1-.91,0-.79-1.25.13-1.59.28a2.12,2.12,0,0,0,.94-.62.32.32,0,0,0,0-.47c-.27-.24-1.3.5-1.3.5.19-.13.94-.41.64-.75s-.5,0-.69,0A1.12,1.12,0,0,0,308.53,231.5Z"/><path class="cls-9" d="M310.85,231.47c-.11-.05-.22-.07-.33-.11h0c0-.3-1.19-.38-1.45-.51-.76-.4-.45-.89-.11-.78s.78.24,1,.33a3.55,3.55,0,0,0,.79.09,6.24,6.24,0,0,1,1,.68C312.13,231.42,311.27,231.64,310.85,231.47Z"/><path class="cls-5" d="M225.4,240.47c-.26.69,2,2.16,5.09,3.29s5.76,1.48,6,.79-2-2.16-5.09-3.29S225.65,239.78,225.4,240.47Z"/><path class="cls-5" d="M231,226.66c-.3.68,1.9,2.28,4.89,3.58s5.67,1.8,6,1.13-1.9-2.27-4.9-3.57S231.27,226,231,226.66Z"/><path class="cls-5" d="M226.85,277.32c.21.7,2.92.49,6-.48s5.47-2.32,5.26-3-2.93-.49-6.05.48S226.63,276.62,226.85,277.32Z"/><path class="cls-5" d="M232.52,292.26c.27.68,2.95.24,6-1s5.27-2.76,5-3.44-3-.24-6,1S232.25,291.58,232.52,292.26Z"/><path class="cls-5" d="M223.7,259.07c0,.73,2.71,1.19,6,1s5.87-.9,5.83-1.64-2.71-1.19-6-1S223.66,258.33,223.7,259.07Z"/><polygon class="cls-6" points="359.31 276.68 358.76 275.3 335.71 275.22 336.24 276.62 359.31 276.68"/><polygon class="cls-6" points="362.25 284.09 361.69 282.68 338.5 282.71 339.03 284.14 362.25 284.09"/><polygon class="cls-6" points="355.67 269.31 355.12 267.93 332.08 267.75 332.6 269.14 355.67 269.31"/><polygon class="cls-6" points="365.24 291.62 364.67 290.19 341.33 290.33 341.87 291.79 365.24 291.62"/><polygon class="cls-6" points="368.27 299.28 367.7 297.82 344.2 298.08 344.75 299.56 368.27 299.28"/><polygon class="cls-6" points="371.37 307.07 370.78 305.58 347.13 305.96 347.69 307.47 371.37 307.07"/><polygon class="cls-6" points="374.51 314.99 373.91 313.48 350.11 313.99 350.68 315.51 374.51 314.99"/><path class="cls-6" d="M354,327.22h.12a1,1,0,0,0,1-1.36l-22.35-60a1.1,1.1,0,0,0-1-.68h0a1,1,0,0,0-1,1.24l22.24,60.15A1.09,1.09,0,0,0,354,327.22Z"/><path class="cls-6" d="M377.37,327.22h.12a1,1,0,0,0,1-1.36l-22.35-60a1.08,1.08,0,0,0-1-.68h0a1,1,0,0,0-1,1.24l22.24,60.15A1.07,1.07,0,0,0,377.37,327.22Z"/><path class="cls-4" d="M187.62,191.87s-2.43,8.76-3.63,10.19-5.1,3.55-5.1,3.55l1,1.83s7.09-3.61,8.32-6.57a22.18,22.18,0,0,0,1.44-4.54c.19-1.09,1-3.78.59-4.86A1.53,1.53,0,0,0,187.62,191.87Z"/><path class="cls-13" d="M187.62,191.87s-2.43,8.76-3.63,10.19-5.1,3.55-5.1,3.55l1,1.83s7.09-3.61,8.32-6.57a22.18,22.18,0,0,0,1.44-4.54c.19-1.09,1-3.78.59-4.86A1.53,1.53,0,0,0,187.62,191.87Z"/><path class="cls-6" d="M163.28,233.69,161.49,232s-7.16-.53-7.58.1,6.79,4,7.71,4S163.15,234.38,163.28,233.69Z"/><path class="cls-9" d="M176.4,209.47s-6.77-1.72-7.33-.61S161.49,232,161.49,232l1.79,1.67s7.53-18.6,9.72-20.55S177.41,210.24,176.4,209.47Z"/><path class="cls-10" d="M176.4,209.47s-6.77-1.72-7.33-.61S161.49,232,161.49,232l1.79,1.67s7.53-18.6,9.72-20.55S177.41,210.24,176.4,209.47Z"/><path class="cls-9" d="M179.89,205.41a6.13,6.13,0,0,1-1.41-.57,1.86,1.86,0,0,0-1.19-.33c-.32,0-2.93,1.12-2.23,1.61.22.16.78-.12,1-.2a9.88,9.88,0,0,0,.94-.41c-.27,0-1.68.59-1.53.91.26.58,1.68-.19,2-.38-.25,0-1.13.37-1.13.7,0,.5,1,.08,1.27,0a1.92,1.92,0,0,1,.48-.23,2,2,0,0,1,.64.11,3.44,3.44,0,0,0,1.11,0c.21,0,.72,0,.83-.16a.79.79,0,0,0-.14-.78A1.51,1.51,0,0,0,179.89,205.41Z"/><path class="cls-10" d="M179.89,205.41a6.13,6.13,0,0,1-1.41-.57,1.86,1.86,0,0,0-1.19-.33c-.32,0-2.93,1.12-2.23,1.61.22.16.78-.12,1-.2a9.88,9.88,0,0,0,.94-.41c-.27,0-1.68.59-1.53.91.26.58,1.68-.19,2-.38-.25,0-1.13.37-1.13.7,0,.5,1,.08,1.27,0a1.92,1.92,0,0,1,.48-.23,2,2,0,0,1,.64.11,3.44,3.44,0,0,0,1.11,0c.21,0,.72,0,.83-.16a.79.79,0,0,0-.14-.78A1.51,1.51,0,0,0,179.89,205.41Z"/><polygon class="cls-6" points="168.16 193.71 166.57 194.36 172.04 207.56 173.65 206.69 168.16 193.71"/><rect class="cls-6" x="173.07" y="206.46" width="10.41" height="1.62"/><path class="cls-6" d="M201.9,198.94c-1.39-.8-1.63-1.68-.85-4.59a6.13,6.13,0,0,0-3.19-6.74c-1.43-.59-2.68-.85-3.55-2.37s.77-4.76-2-7.16c-2-1.75-4.88-.36-4.88-.36-.62-.34-.87,3.27-.92,6C190,189,189,196,187.76,201.94a3.19,3.19,0,0,1-.12.4c.27,4.62.49,8.44.49,8.44s8.36,4.74,14.05.68S204.69,200.53,201.9,198.94Z"/><path class="cls-6" d="M177.3,232.6l-2.12,1.22s-2.6,6.69-2.13,7.27,5.85-5.31,6.06-6.21S177.93,232.91,177.3,232.6Z"/><path class="cls-9" d="M180,209.07s-13.65,1-14.92,2.18,10.31,22.44,10.31,22.44l1.9-1.09s-2.87-10.09-3.61-12.43-2.18-5.15-1.91-5.52,14,1.7,13.91-2.18S180,209.07,180,209.07Z"/><path class="cls-9" d="M186.74,186.05s1.43,3.91.56,6.81l4.78-1.15s-2-6.53-2.79-7.65S186.74,186.05,186.74,186.05Z"/><path class="cls-10" d="M188.73,189.56a2.37,2.37,0,0,1,2.45,2.37l.9-.22s-2-6.53-2.79-7.65-2.55,2-2.55,2a16.19,16.19,0,0,1,.8,3.79A2.61,2.61,0,0,1,188.73,189.56Z"/><path class="cls-9" d="M186.25,181a7.15,7.15,0,0,0-2.3,1.63c-.45.75-.06,1.79-.1,2.47a11.56,11.56,0,0,0-.12,1.87c.1.16.79,0,.9.14s1,.7,1.27,1.33.65.69,1.3.37,3.12-3.58,3.15-5.12S188.08,180.34,186.25,181Z"/><path class="cls-6" d="M187.82,178.89a12.76,12.76,0,0,0-1,2.42,5.7,5.7,0,0,0,1,3c.39.27.06-2.27,1-1.49s-.06,2.24,0,2.54a1.82,1.82,0,0,0,1.53,1.34c1,.09,2.69-5,1.58-6.21A5.69,5.69,0,0,0,187.82,178.89Z"/><path class="cls-6" d="M188,177.87a2.76,2.76,0,0,0-3.34.15c-1.7,1.37-1.64,3.44-3.05,3.26,0,0,.93,2.39,3,1.82S188.69,179.3,188,177.87Z"/><path class="cls-6" d="M193.55,204.88l-6.33-.48s-3.29,3.68-6.55,3.68H169.55a21.18,21.18,0,0,0,3.28,8.75s10.57.33,15.72-.09S198.59,210.63,193.55,204.88Z"/><path class="cls-14" d="M172.49,208.82c1.61-.16,3.18-.54,4.76-.74h-7C171,208.43,171.3,208.94,172.49,208.82Z"/><path class="cls-4" d="M191.47,189.5a26.39,26.39,0,0,1-3.89,1.25s-2.05,4.52-2.84,5.74,2,5.89,2.17,7.91c0,0,1.7,1.62,6.82.62C193.73,205,195.07,192.34,191.47,189.5Z"/><path class="cls-13" d="M192.25,192.2a2.45,2.45,0,0,0-2.87.9c-.54,1.1,0,3.06,0,4.26a23,23,0,0,1-.47,4.14,8.53,8.53,0,0,1-1.67,3.1c.66.4,2.57,1.19,6.54.42,0,0,.82-7.73-.54-12.47A8.42,8.42,0,0,1,192.25,192.2Z"/><path class="cls-9" d="M180.89,205.41a6,6,0,0,1-1.41-.57,1.89,1.89,0,0,0-1.2-.33c-.32,0-2.92,1.12-2.23,1.61.23.16.79-.12,1-.2s.64-.27.95-.41c-.28,0-1.69.59-1.54.91.26.58,1.69-.19,2-.38-.26,0-1.14.37-1.14.7,0,.5,1.05.08,1.28,0a1.77,1.77,0,0,1,.48-.23,1.9,1.9,0,0,1,.63.11,3.45,3.45,0,0,0,1.11,0c.22,0,.73,0,.83-.16a.77.77,0,0,0-.14-.78A1.47,1.47,0,0,0,180.89,205.41Z"/><path class="cls-4" d="M180.45,205.34l.56,2.1s13.7-1.59,14-4-.55-13.74-3.86-12.57,0,9.38-.56,10S180.45,205.34,180.45,205.34Z"/><path class="cls-4" d="M344.69,129.73a22.82,22.82,0,0,0-7,3.24c-3,2.24-6.16,9.18-6.77,14s-1.85,8.67,0,11.16,7.83,3,13,3.5,12.24-.73,13.67-2.52,1.32-15.34-1.37-20.45S348.61,129.62,344.69,129.73Z"/><path class="cls-12" d="M351.55,158.88a9.16,9.16,0,0,1-2.95-1.42,6.82,6.82,0,0,0-5.23-1.94c-2.08,0-4.1,0-5.89-1.17a5.39,5.39,0,0,1-2.1-5.26,8.3,8.3,0,0,1,1.51-3.53,4.82,4.82,0,0,0,1-4.62,12.6,12.6,0,0,1,.11-6.62,6.1,6.1,0,0,1,2.12-2.84,16.88,16.88,0,0,0-2.45,1.49c-3,2.24-6.16,9.18-6.77,14s-1.85,8.67,0,11.16,7.83,3,13,3.5,12.24-.73,13.67-2.52a5.23,5.23,0,0,0,.65-2.23C356.39,158.69,354.08,159.72,351.55,158.88Z"/><path class="cls-4" d="M344.14,130.73s-4.33-1-4.91-4.32,1.13-4.4,2.45-3.65,1.53.35,2.46-.22,2.26.35,2.93,1.31.8-.16,2.39-.29,2.14,1.34,1.3,3.27S349.13,130.82,344.14,130.73Z"/><path class="cls-12" d="M348.82,128.89c-1.12.29-.46-1.15-.64-1.66-.29,0-.4.5-.5.71a1.3,1.3,0,0,1-1.19.76c-.7,0-.79-.77-1.09-1.24-.13-.2-.19-.19-.26.05s0,.56-.25.76c-.45.38-1.19-.05-1.54-.35s-.53-.87-.94-1.19a.58.58,0,0,0-.12.29c-.1.47-.07,1.36-.84,1.2s-1.09-1.2-1.3-1.75a5.94,5.94,0,0,1-.46-2,6,6,0,0,1,.06-.86,2.28,2.28,0,0,1,.16-.66h0c-.62.55-1,1.7-.67,3.5.5,2.79,3.7,4,4.64,4.25a1.81,1.81,0,0,0,.51.08c3.94,0,5.16-1.36,5.93-2.91h0A7.17,7.17,0,0,1,348.82,128.89Z"/><path class="cls-5" d="M346,140.45c2.12.21,4,1.17,4,3.29l-3.54-.07c0-.8-.82-1-1.34-1-.32,0-1.37,0-1.38.62,0,1.45,6.51.06,6.44,4.17,0,2.46-2,3.35-4.36,3.48l.11,2.62-2.16,0,.18-2.63c-2.2-.27-4.23-1.34-4.19-3.56l3.54.06v.08c0,1,1.09,1.19,1.64,1.2s1.59,0,1.6-.72c0-1.51-6.51-.25-6.44-4.23,0-2.29,1.83-3.14,4-3.29L344,137.8l2.16,0Z"/><path class="cls-6" d="M341,129.18l-.39,2.06s1.1,1.06,4.11,1.06a9,9,0,0,0,4.63-1.06l-.2-1.86A17,17,0,0,1,341,129.18Z"/><polygon class="cls-15" points="379.29 76.94 376.5 76.94 376.5 74.14 374.92 74.14 374.92 76.94 372.12 76.94 372.12 78.51 374.92 78.51 374.92 81.31 376.5 81.31 376.5 78.51 379.29 78.51 379.29 76.94"/><polygon class="cls-15" points="269.74 105.09 266.94 105.09 266.94 102.29 265.37 102.29 265.37 105.09 262.57 105.09 262.57 106.66 265.37 106.66 265.37 109.46 266.94 109.46 266.94 106.66 269.74 106.66 269.74 105.09"/><polygon class="cls-15" points="399.1 125.76 396.31 125.76 396.31 122.96 394.73 122.96 394.73 125.76 391.93 125.76 391.93 127.34 394.73 127.34 394.73 130.13 396.31 130.13 396.31 127.34 399.1 127.34 399.1 125.76"/><polygon class="cls-15" points="407.3 201.4 404.5 201.4 404.5 198.6 402.93 198.6 402.93 201.4 400.13 201.4 400.13 202.97 402.93 202.97 402.93 205.77 404.5 205.77 404.5 202.97 407.3 202.97 407.3 201.4"/><polygon class="cls-15" points="306.1 58.76 303.3 58.76 303.3 55.96 301.73 55.96 301.73 58.76 298.93 58.76 298.93 60.33 301.73 60.33 301.73 63.13 303.3 63.13 303.3 60.33 306.1 60.33 306.1 58.76"/><polygon class="cls-15" points="122.88 179.49 120.09 179.49 120.09 176.69 118.51 176.69 118.51 179.49 115.72 179.49 115.72 181.06 118.51 181.06 118.51 183.86 120.09 183.86 120.09 181.06 122.88 181.06 122.88 179.49"/><path class="cls-5" d="M162,268.06c11.74,5.61,9,4.69,10.86,5.2S186,274.48,186,274.48l1.24,4.82s-13.69-.75-15.56-1.18-9.72-3.41-9.72-3.41Z"/><path class="cls-2" d="M180.88,274.78a2,2,0,0,1-1.84,1,45.77,45.77,0,0,1-5.55-.37,15.09,15.09,0,0,1-3.15-.6,39.86,39.86,0,0,1-5.41-2,26.4,26.4,0,0,0-3-1l0,2.87s7.86,3,9.72,3.41,15.56,1.18,15.56,1.18L186,274.52C184.32,274.68,182.6,274.77,180.88,274.78Z"/><path class="cls-6" d="M160.36,324.89a9.79,9.79,0,0,0-.5,2.58c0,1.12.07,2.32.42,2.6.69.56,9.4.64,10.11-.17s.23-2.11-1.61-2.56a26.94,26.94,0,0,1-3.5-.75,1.62,1.62,0,0,1-.94-1.87Z"/><path class="cls-6" d="M141.25,323.26a10.13,10.13,0,0,0-1.39,2.22c-.4,1-.75,2.2-.53,2.58.44.78,8.55,3.95,9.5,3.45s1-1.89-.59-3a30.72,30.72,0,0,1-3-1.95,1.64,1.64,0,0,1-.22-2.09Z"/><path class="cls-6" d="M160.3,287.86l-11.74,1.31s10.5,16.78,11.3,19.48-.3,17.35-.3,17.35h5.32s1.14-17.31.88-18.61S160.3,287.86,160.3,287.86Z"/><path class="cls-6" d="M159.86,288.73h-13.4s-1.57,4.11-.85,7.24a70.38,70.38,0,0,1,1.13,11c-.07,1.17-6.61,16.83-6.61,16.83l4.88,1.81s6.73-14.92,7.38-16.62S159.86,288.73,159.86,288.73Z"/><path class="cls-9" d="M159.29,261a12,12,0,0,1-3.24-.26,4.67,4.67,0,0,1-1.1-.39c-.11,1.35-.49,4.49-1.6,5.68,0,0,.15,1.58,2.93,2s3.36-1.67,3.36-1.67A27.59,27.59,0,0,1,159.29,261Z"/><path class="cls-10" d="M153.36,266.09a.65.65,0,0,0,0,.11v0s0,.11.07.17h0a1.57,1.57,0,0,0,.12.21l0,0a2.47,2.47,0,0,0,.45.5l0,0a3.53,3.53,0,0,0,.35.24l.06,0a3.43,3.43,0,0,0,.47.23A3.94,3.94,0,0,1,156,265.8a4.94,4.94,0,0,1,3.37-1.43,19.18,19.18,0,0,1-.1-3.36,12,12,0,0,1-3.24-.26,4.67,4.67,0,0,1-1.1-.39c-.11,1.35-.49,4.49-1.6,5.68v0Z"/><path class="cls-9" d="M154.77,253s4.66-1.15,5.35,0,.46,2.94.73,3.74,1.37,1.7,1.48,2-.81.89-.94,1.13-.72,2.83-1.54,3.36-5-1.18-6-3.25S153.51,253.61,154.77,253Z"/><path class="cls-5" d="M159.64,265.87s-3.27,1.63-5.93-.33c0,0-5.06.89-5.68,1.14s.84,7.41.25,11-2.93,12.39-2.93,12.39,6.19,4.76,16.82,1.76c0,0,.35-12.3.24-15.71-.17-5-.2-8-.2-8A31.21,31.21,0,0,0,159.64,265.87Z"/><path class="cls-2" d="M151.9,285.78a14,14,0,0,1-.46-5.73c.37-2.13-1.16-4.93-1.45-7.1s-.54-3.89-2.06-5.17c.1,2.18.81,7.13.35,9.93-.59,3.62-2.93,12.39-2.93,12.39s3.93,3,10.89,2.73C153.5,291.17,152.67,288.93,151.9,285.78Z"/><path class="cls-6" d="M156.78,253.65a4.66,4.66,0,0,1-.6,2.36c-.3.54,1,2.06.6,2.71-.28.43-.65.3-.94-.59a1.39,1.39,0,0,0-.72-.67c-1.1-.54-1.44,1.17-.46,1.72.69.39.19,2.16.19,2.16-.78.55-3.26-.27-2.9-2.09.23-1.15.33-1.59-.07-1.9a2,2,0,0,1-.34-3.17c1.75-1.59.25-2.19,2.21-2.58S157.26,252.46,156.78,253.65Z"/><path class="cls-6" d="M153.39,252.52c.13-.42.92-.93,1.31-1.19a5.5,5.5,0,0,1,2-.81,5.19,5.19,0,0,1,2.22,0c.62.15,1.14.45,1.78.55a2,2,0,0,0,1.61-.24,4,4,0,0,1,0,1.46,4.7,4.7,0,0,1-.9,1.57,4.77,4.77,0,0,1-5.33,1.18,3.71,3.71,0,0,1-2-1.51A4.35,4.35,0,0,0,153.39,252.52Z"/><path class="cls-5" d="M141.55,318.11a5.1,5.1,0,0,1-1.2.2,4.41,4.41,0,0,0-.52,0,5.11,5.11,0,0,1-2.15-.19,3.62,3.62,0,0,1-2.44-3.11,5.53,5.53,0,0,1,1.1-4.42,5.92,5.92,0,0,1,1.53-1.36l.17-.12a4.92,4.92,0,0,0,1.46-2.29l.05-.15c.15-.36.27-.71.39-1.08s.17-.51.26-.77c1.27-3.47,5-4.91,7.81-5.5l.12.56c-2.72.57-6.22,1.92-7.39,5.14-.09.25-.18.5-.26.75s-.24.74-.4,1.12l-.05.14a5.37,5.37,0,0,1-1.66,2.54l-.18.13A5.44,5.44,0,0,0,136.8,311a5,5,0,0,0-1,4,3.05,3.05,0,0,0,2.08,2.68,4.36,4.36,0,0,0,1.91.15l.53,0a6.52,6.52,0,0,0,3.13-1.17,13.66,13.66,0,0,1,1.83-.94,5.63,5.63,0,0,0,3.2-3.22l.06-.12a15.82,15.82,0,0,1,3.46-5.48l.26-.24c1.28-1.23,2.12-2,2.28-3.83a4.94,4.94,0,0,0-1.49-4.25,2.45,2.45,0,0,0-2.5-.18l-.22-.53a3,3,0,0,1,3.06.25c1.38,1,1.86,3.18,1.72,4.76-.18,2-1.18,3-2.46,4.19l-.25.25a15.38,15.38,0,0,0-3.34,5.3l-.05.12a6.24,6.24,0,0,1-3.52,3.52,11.05,11.05,0,0,0-1.75.89A9,9,0,0,1,141.55,318.11Z"/><path class="cls-4" d="M194.22,272.08l-41.18,12a6.07,6.07,0,0,0-3.06,2.05l-5.14,6.46a6.1,6.1,0,0,0-1.09,5.49l.75,2.55a6.07,6.07,0,0,0,3.85,4l7.81,2.69a6.08,6.08,0,0,0,3.68.09l41.19-12a6.07,6.07,0,0,0,4.13-7.53l-3.4-11.7A6.08,6.08,0,0,0,194.22,272.08Zm-37.36,26.63a3.76,3.76,0,0,1-6.51-3.58,2.1,2.1,0,0,1,.44-.8,3.75,3.75,0,0,1,6.51,3.58A2.1,2.1,0,0,1,156.86,298.71Z"/><path class="cls-5" d="M164.18,298.78l-1.81-10,2.46-.72a7.25,7.25,0,0,1,1-.21,3,3,0,0,1,.85,0,1.64,1.64,0,0,1,1.27.91,2.62,2.62,0,0,1,.22.56,3.23,3.23,0,0,1,.11.47,2,2,0,0,1-1.06,2.46,1.8,1.8,0,0,1,2.07,1.52c0,.14.07.28.1.44a3.27,3.27,0,0,1-.32,2.41,3.31,3.31,0,0,1-2,1.35Zm1.7-2,.56-.17a1.47,1.47,0,0,0,1-.67,2.06,2.06,0,0,0,.07-1.27,2.59,2.59,0,0,0-.09-.4,1.38,1.38,0,0,0-.45-.77,1.26,1.26,0,0,0-1.15-.07l-.5.15Zm-.83-4.57.49-.15a1.45,1.45,0,0,0,1-.63,1.93,1.93,0,0,0,.07-1.18,1.55,1.55,0,0,0,0-.23.9.9,0,0,0-.48-.64,1.88,1.88,0,0,0-1.18.06l-.29.08Z"/><path class="cls-5" d="M171.05,296.79l-1.82-10,2.43-.71a7.14,7.14,0,0,1,1.1-.24,3.14,3.14,0,0,1,.92,0,1.93,1.93,0,0,1,.75.29,1.86,1.86,0,0,1,.54.65,2.81,2.81,0,0,1,.23.58,4.46,4.46,0,0,1,.11.46,3.74,3.74,0,0,1,0,1.64,2.27,2.27,0,0,1-.78,1.19l2.32,4.48-1.93.56-2-4.19-.71.21.82,4.54Zm.9-6.33.48-.14a1.51,1.51,0,0,0,1-.65,1.85,1.85,0,0,0,.11-1.21c0-.13,0-.25-.08-.35a1.23,1.23,0,0,0-.39-.67,1.11,1.11,0,0,0-1-.07l-.59.18Z"/><path class="cls-5" d="M177.4,294.94l.11-10.6,2.11-.62,3.73,9.49-1.81.52-.77-2.13-1.57.45,0,2.35Zm1.76-4.19,1.19-.35L179,286.55Z"/><path class="cls-5" d="M184.31,292.92l-1.82-10,1.36-.4,3.17,4.66-1-5.3,1.62-.47,1.81,10-1.29.37-3.25-5,1,5.62Z"/><path class="cls-5" d="M190.93,291l-1.81-10,2.35-.69A6,6,0,0,1,193,280a1.93,1.93,0,0,1,1.08.29,1.9,1.9,0,0,1,.69.81,4.29,4.29,0,0,1,.24.64,6,6,0,0,1,.17.75l.66,3.62a5.15,5.15,0,0,1,0,1.94,2.32,2.32,0,0,1-.78,1.33,4.52,4.52,0,0,1-1.8.91Zm1.7-2,.42-.12a2,2,0,0,0,.42-.17,2.45,2.45,0,0,0,.29-.18.58.58,0,0,0,.17-.25A2.13,2.13,0,0,0,194,288a1.27,1.27,0,0,0,0-.35c0-.15,0-.28,0-.39s0-.26-.08-.46l-.71-4c0-.23-.09-.42-.13-.58L193,282a.61.61,0,0,0-.41-.4,1.64,1.64,0,0,0-.81.08l-.42.12Z"/><path class="cls-5" d="M154.12,298.8a2.76,2.76,0,0,1-.37.46,5.64,5.64,0,0,1,.79,3.48,5.52,5.52,0,0,1-.91,2.33,9,9,0,0,1-1,1.11l.53.25a10,10,0,0,0,.87-1,6.38,6.38,0,0,0,1-2.63A6.25,6.25,0,0,0,154.12,298.8Z"/><path class="cls-9" d="M189.37,273.89a2.62,2.62,0,0,0-3-.46c-.71.3-.75,1.07-.85,2.19a3.15,3.15,0,0,0,.1,1.71c.9.66.93-1.88,1.08-2.52,0,0-.35,2.68.12,2.91.89.41.85-2.07.95-2.69a4.17,4.17,0,0,0-.06,1.84c0,.48.37.38.46.33.45-.27.45-2.3.45-2.3,0,.36-.28,1.68.3,1.41.38-.17.4-.75.48-1.05A2,2,0,0,0,189.37,273.89Z"/><path class="cls-9" d="M150.79,285.67c.92,0,2,.14,3,.14.43,0,.88-.06,1.31-.09.27,0,.82-.11,1,.2s-.37.45-.58.49-1,0-1,.44c-.09.61,1,.77,1.48,1s1.49.56.78,1c-.48.27-1.48-.35-1.89-.51a6,6,0,0,1,1.48.62c.28.15.82.37.82.68s-1,.19-1.26.08a4.8,4.8,0,0,1-1.12-.62c.42.22,2,.88,1.47,1.42-.31.33-1.53-.59-2-.79.26.24,1.06.37,1,.89,0,.26-.49.06-.7-.06s-.58-.41-.89-.56a3.78,3.78,0,0,1-.66-.44,7.63,7.63,0,0,1-1.52-1,17,17,0,0,0-1.33-1.35C151,286.81,150.11,286.15,150.79,285.67Z"/><path class="cls-5" d="M152.14,285.43l-1.3,3s-13.47-4.37-12.84-7.9c.55-3.11,8.39-13.51,10.1-13.88,2.29-.5,3.21,5,1.89,6.29-2.78,2.8-6.74,6.73-6.42,7.36S152.14,285.43,152.14,285.43Z"/><path class="cls-7" d="M99.44,210.47a9.88,9.88,0,0,0,0-2.94l-2.27-.36a8.35,8.35,0,0,0-.28-1l1.8-1.46a10.9,10.9,0,0,0-1.48-2.54l-2.15.83a10.33,10.33,0,0,0-.74-.74l.83-2.15a11.21,11.21,0,0,0-2.55-1.49l-1.45,1.8a8.48,8.48,0,0,0-1-.27l-.35-2.27a10.17,10.17,0,0,0-1.47-.11,10.42,10.42,0,0,0-1.48.11l-.35,2.27a8.48,8.48,0,0,0-1,.27L84,198.61a11.21,11.21,0,0,0-2.55,1.49l.83,2.15a8.5,8.5,0,0,0-.73.74l-2.16-.83a10.9,10.9,0,0,0-1.48,2.54l1.8,1.46a8.35,8.35,0,0,0-.28,1l-2.27.36a9.88,9.88,0,0,0,0,2.94l2.27.36a9.06,9.06,0,0,0,.28,1l-1.8,1.45a10.9,10.9,0,0,0,1.48,2.54l2.16-.83a8.5,8.5,0,0,0,.73.74l-.83,2.16A11.55,11.55,0,0,0,84,219.39l1.45-1.8a8.48,8.48,0,0,0,1,.27l.35,2.28a12.13,12.13,0,0,0,1.48.1,11.83,11.83,0,0,0,1.47-.1l.35-2.28a8.48,8.48,0,0,0,1-.27l1.45,1.8a11.55,11.55,0,0,0,2.55-1.48l-.83-2.16a10.33,10.33,0,0,0,.74-.74l2.15.83a10.9,10.9,0,0,0,1.48-2.54l-1.8-1.45a9.06,9.06,0,0,0,.28-1Zm-11.13,4.42A5.89,5.89,0,1,1,94.19,209,5.89,5.89,0,0,1,88.31,214.89Z"/><path class="cls-6" d="M88.31,202.38A6.62,6.62,0,1,0,94.92,209,6.62,6.62,0,0,0,88.31,202.38Zm0,10.74A4.12,4.12,0,1,1,92.42,209,4.12,4.12,0,0,1,88.31,213.12Z"/><path class="cls-7" d="M391.12,106.51a10.85,10.85,0,0,0,0-2.94l-2.27-.36a8.35,8.35,0,0,0-.28-1l1.8-1.46a10.9,10.9,0,0,0-1.48-2.54l-2.16.83a8.61,8.61,0,0,0-.74-.74l.84-2.16a11.55,11.55,0,0,0-2.55-1.48l-1.45,1.8a8.48,8.48,0,0,0-1-.27l-.35-2.27A10.42,10.42,0,0,0,380,93.8a10.17,10.17,0,0,0-1.47.11l-.36,2.27a8.85,8.85,0,0,0-1,.27l-1.46-1.8a11.71,11.71,0,0,0-2.54,1.48l.83,2.16a8.61,8.61,0,0,0-.74.74l-2.15-.83a10.9,10.9,0,0,0-1.48,2.54l1.8,1.46a8.35,8.35,0,0,0-.28,1l-2.27.36a9.88,9.88,0,0,0,0,2.94l2.27.36a8.35,8.35,0,0,0,.28,1l-1.8,1.46a10.9,10.9,0,0,0,1.48,2.54l2.15-.83a8.61,8.61,0,0,0,.74.74l-.83,2.16a11.71,11.71,0,0,0,2.54,1.48l1.46-1.8a8.85,8.85,0,0,0,1,.27l.36,2.27a10.17,10.17,0,0,0,1.47.11,10.42,10.42,0,0,0,1.48-.11l.35-2.27a8.48,8.48,0,0,0,1-.27l1.45,1.8a11.55,11.55,0,0,0,2.55-1.48l-.84-2.16a8.61,8.61,0,0,0,.74-.74l2.16.83a10.9,10.9,0,0,0,1.48-2.54l-1.8-1.46a8.35,8.35,0,0,0,.28-1ZM380,110.92a5.88,5.88,0,1,1,5.89-5.88A5.88,5.88,0,0,1,380,110.92Z"/><path class="cls-6" d="M380,98.42A6.62,6.62,0,1,0,386.6,105,6.63,6.63,0,0,0,380,98.42Zm0,10.73A4.11,4.11,0,1,1,384.1,105,4.11,4.11,0,0,1,380,109.15Z"/><path class="cls-4" d="M265.17,89.88a14.89,14.89,0,0,0,.65-1.47,12.8,12.8,0,0,0,.43-1.55l-2.2-1.2a8.75,8.75,0,0,0,.09-1.14l2.38-.83a11.94,11.94,0,0,0-.59-3.15l-2.51.06a8.08,8.08,0,0,0-.49-1l1.65-1.9a12.12,12.12,0,0,0-2.07-2.45l-2.15,1.31a8.81,8.81,0,0,0-.94-.66l.47-2.46a13.07,13.07,0,0,0-1.47-.65,14.27,14.27,0,0,0-1.55-.43l-1.19,2.2a11.35,11.35,0,0,0-1.15-.09l-.83-2.38a12.52,12.52,0,0,0-3.15.59l.07,2.51a8.86,8.86,0,0,0-1,.49L247.68,74a12.29,12.29,0,0,0-2.45,2.06l1.31,2.15a10.44,10.44,0,0,0-.65.94l-2.46-.47a12.13,12.13,0,0,0-.65,1.47,12.31,12.31,0,0,0-.43,1.55l2.2,1.2a8.75,8.75,0,0,0-.09,1.14l-2.38.83a12.42,12.42,0,0,0,.58,3.15l2.52-.06a9.48,9.48,0,0,0,.48,1L244,90.9a12.34,12.34,0,0,0,2.07,2.45L248.24,92a9,9,0,0,0,.93.65l-.46,2.46a11.48,11.48,0,0,0,1.47.65,11.07,11.07,0,0,0,1.54.43l1.2-2.19a10.92,10.92,0,0,0,1.14.08l.83,2.38a12.34,12.34,0,0,0,3.15-.58L258,93.4a9.64,9.64,0,0,0,1-.48l1.9,1.64a12.4,12.4,0,0,0,2.46-2.06l-1.32-2.15a8.81,8.81,0,0,0,.66-.94Zm-13,.43a6.41,6.41,0,1,1,8.19-3.87A6.41,6.41,0,0,1,252.14,90.31Z"/><path class="cls-6" d="M256.73,77.5a7.2,7.2,0,1,0,4.35,9.21A7.2,7.2,0,0,0,256.73,77.5Zm-3.94,11a4.48,4.48,0,1,1,5.72-2.71A4.48,4.48,0,0,1,252.79,88.5Z"/></g></g></svg>