<svg xmlns="http://www.w3.org/2000/svg" width="650" viewBox="0 0 500 339.98"><defs><style>.cls-1{fill:#5f8dce;}.cls-2{fill:#fff;}.cls-3,.cls-4,.cls-5{fill:none;stroke:#fff;stroke-miterlimit:10;}.cls-3{stroke-width:2.25px;}.cls-4{stroke-width:2.09px;}.cls-5{stroke-width:2.27px;}</style></defs><title>IOT</title><g id="BACKGROUND"><rect class="cls-1" width="500" height="339.98"/></g><g id="OBJECTS"><circle class="cls-2" cx="147.43" cy="171.25" r="7.14"/><circle class="cls-2" cx="198.29" cy="171.25" r="7.14"/><circle class="cls-2" cx="223.73" cy="171.25" r="7.14"/><line class="cls-3" x1="223.73" y1="171.25" x2="223.73" y2="231.92"/><circle class="cls-4" cx="223.6" cy="257.02" r="25.1"/><circle class="cls-4" cx="182.67" cy="303.55" r="25.1" transform="translate(-100.69 91.23) rotate(-22.14)"/><circle class="cls-4" cx="133.85" cy="257.02" r="25.1"/><circle class="cls-4" cx="92.92" cy="303.55" r="25.1" transform="translate(-187.18 154.61) rotate(-45)"/><circle class="cls-4" cx="404.19" cy="257.02" r="25.1"/><circle class="cls-4" cx="414.64" cy="190.86" r="25.1"/><circle class="cls-4" cx="363.26" cy="303.55" r="25.1" transform="translate(-108 345.77) rotate(-45)"/><circle class="cls-4" cx="314.44" cy="257.02" r="25.1"/><circle class="cls-4" cx="272.45" cy="303.55" r="25.1" transform="translate(-109.85 162.04) rotate(-27.79)"/><polyline class="cls-4" points="147.43 171.25 147.43 216.64 137.28 232.16"/><polyline class="cls-4" points="198.85 171.25 198.85 216.64 182.92 278.45"/><circle class="cls-2" cx="349" cy="171.25" r="7.14"/><circle class="cls-2" cx="298.14" cy="171.25" r="7.14"/><circle class="cls-2" cx="272.7" cy="171.25" r="7.14"/><line class="cls-3" x1="272.7" y1="171.25" x2="272.7" y2="278.45"/><polyline class="cls-4" points="349 171.25 349 216.64 381.76 245.75"/><circle class="cls-2" cx="373.44" cy="153.97" r="7.14"/><polyline class="cls-4" points="297.57 171.25 297.57 216.64 305.27 234.08"/><path class="cls-2" d="M315.47,56.43a71.32,71.32,0,0,0-137,16.43c-1.28-.12-2.58-.19-3.89-.19a40.65,40.65,0,0,0,0,81.3H311.76a48.84,48.84,0,0,0,3.71-97.54Z" transform="translate(0.25)"/><line class="cls-4" x1="118.27" y1="303.55" x2="157.82" y2="303.55"/><line class="cls-4" x1="110.03" y1="284.95" x2="118.27" y2="276.7"/><line class="cls-4" x1="152.97" y1="273.27" x2="165.36" y2="285.66"/><line class="cls-4" x1="297.8" y1="303.55" x2="338.49" y2="303.55"/><line class="cls-4" x1="290.7" y1="284.95" x2="298.94" y2="276.7"/><line class="cls-4" x1="333.64" y1="273.27" x2="346.03" y2="285.66"/><line class="cls-4" x1="373.44" y1="153.97" x2="395.82" y2="174.25"/><circle class="cls-4" cx="82.47" cy="190.86" r="25.1"/><circle class="cls-2" cx="123.67" cy="153.97" r="7.14"/><line class="cls-4" x1="123.67" y1="153.97" x2="101.29" y2="174.25"/><path class="cls-2" d="M63.78,179.79v21.93h36.3V179.79ZM97,198.71H67V182.8H97Z" transform="translate(0.25)"/><path class="cls-2" d="M89.65,207.43c0,1.26-3.46,2.29-7.72,2.29s-7.72-1-7.72-2.29,3.46-2.3,7.72-2.3S89.65,206.16,89.65,207.43Z" transform="translate(0.25)"/><rect class="cls-2" x="80.67" y="200.46" width="2.97" height="6.96"/><path class="cls-2" d="M133.61,238.77a18.33,18.33,0,1,0,18.33,18.33A18.32,18.32,0,0,0,133.61,238.77Zm15.83,18.33a15.68,15.68,0,0,1-.87,5.15,33.88,33.88,0,0,0-2.62-5.53,28.65,28.65,0,0,0,1.74-6.84A15.81,15.81,0,0,1,149.44,257.1Zm-3.51-9.94a28.83,28.83,0,0,1-1.32,7.46,28.65,28.65,0,0,0-9.74-8.9,29.26,29.26,0,0,1,6.24-2.57A16,16,0,0,1,145.93,247.16Zm-5.55,18.36,3.67,3.46a15.35,15.35,0,0,1-2.46,1.77,28.82,28.82,0,0,1-5.36-1.53A30.93,30.93,0,0,0,140.38,265.52Zm-6.19,2.82a26,26,0,0,1-11-10.29,25.37,25.37,0,0,1,3.39-5.49L139,264.21A29,29,0,0,1,134.19,268.34Zm-7.68-18.59-4.09-3.85a15.86,15.86,0,0,1,1.77-1.51,28.64,28.64,0,0,1,6.62,1.63A29.7,29.7,0,0,0,126.51,249.75Zm-1.33,1.49a27.31,27.31,0,0,0-3.12,4.69,29.37,29.37,0,0,1-2.3-6.49,15.49,15.49,0,0,1,1.34-2Zm2.73-.18a27.65,27.65,0,0,1,5-4.15,26.42,26.42,0,0,1,10.88,9.92,25.55,25.55,0,0,1-3.5,5.86ZM138.34,242a34.15,34.15,0,0,0-5.54,2.72,28.92,28.92,0,0,0-6-1.9,15.64,15.64,0,0,1,6.77-1.54A16,16,0,0,1,138.34,242Zm-19.82,10.33a32.92,32.92,0,0,0,2.5,5.78,29.46,29.46,0,0,0-1.72,5.74,15.63,15.63,0,0,1-1.52-6.73A15.79,15.79,0,0,1,118.52,252.31Zm2.38,14.2a29.07,29.07,0,0,1,1.42-6.26,28.09,28.09,0,0,0,10,9.3,28.51,28.51,0,0,1-4.65,2.2A15.84,15.84,0,0,1,120.9,266.51Zm9.7,6.12a35.23,35.23,0,0,0,3.69-2.06,29.1,29.1,0,0,0,4.31,1.54,15.46,15.46,0,0,1-8,.52Zm14.87-5.07L141.69,264a27.77,27.77,0,0,0,3.29-5.1,27.43,27.43,0,0,1,2.35,6.06A15.88,15.88,0,0,1,145.47,267.56Z" transform="translate(0.25)"/><path class="cls-2" d="M212.29,239.35v35.49h22.5V239.35Zm11.25,34.71a1.09,1.09,0,0,1,0-2.17,1.09,1.09,0,1,1,0,2.17ZM233,271H214.09V241.19H233Z" transform="translate(0.25)"/><path class="cls-2" d="M325.63,250.12a11.44,11.44,0,1,0-17.92,9.43,4.28,4.28,0,0,1,1.87,3.54v3.56c0,2.21,1.12,2.39,4.61,2.39,2.94,0,4.64.07,4.64-2.2v-3.7a4.5,4.5,0,0,1,2-3.68A11.44,11.44,0,0,0,325.63,250.12Z" transform="translate(0.25)"/><path class="cls-2" d="M317.84,272.27h-7.22a.89.89,0,0,1-.89-.89h0a.89.89,0,0,1,.89-.89h7.22a.89.89,0,0,1,.89.89h0A.89.89,0,0,1,317.84,272.27Z" transform="translate(0.25)"/><path class="cls-2" d="M316,275.51h-3a.9.9,0,0,1-.9-.89h0a.9.9,0,0,1,.9-.89h3a.89.89,0,0,1,.89.89h0A.89.89,0,0,1,316,275.51Z" transform="translate(0.25)"/><path class="cls-2" d="M417.09,247.63H412.6v-2.28a1.58,1.58,0,0,0-1.58-1.58H396.86a1.58,1.58,0,0,0-1.58,1.58v2.28h-4.49a3,3,0,0,0-3,3v16.57a3.05,3.05,0,0,0,3,3h26.3a3.05,3.05,0,0,0,3-3V250.66A3,3,0,0,0,417.09,247.63Zm-13.15,20.24a8.93,8.93,0,1,1,8.92-8.92A8.92,8.92,0,0,1,403.94,267.87Z" transform="translate(0.25)"/><path class="cls-2" d="M403.94,252.77a6.18,6.18,0,1,0,6.17,6.18A6.18,6.18,0,0,0,403.94,252.77Z" transform="translate(0.25)"/><path class="cls-2" d="M429.86,179.67H399.91a1.46,1.46,0,0,0-1.46,1.46v17.34a1.46,1.46,0,0,0,1.46,1.46h1.22v6.25l6.25-6.25h22.48a1.46,1.46,0,0,0,1.46-1.46V181.13A1.46,1.46,0,0,0,429.86,179.67ZM405.7,193.22A3.27,3.27,0,1,1,409,190,3.26,3.26,0,0,1,405.7,193.22Zm9.19,0a3.27,3.27,0,1,1,3.26-3.27A3.26,3.26,0,0,1,414.89,193.22Zm9.19,0a3.27,3.27,0,1,1,3.26-3.27A3.26,3.26,0,0,1,424.08,193.22Z" transform="translate(0.25)"/><path class="cls-2" d="M366.26,296.56a7.59,7.59,0,1,0,4.51,9.75A7.59,7.59,0,0,0,366.26,296.56Zm2.66,9.07a5.62,5.62,0,1,1-3.34-7.21A5.62,5.62,0,0,1,368.92,305.63Z" transform="translate(0.25)"/><path class="cls-2" d="M379.88,307.38l-.15-.5a1.82,1.82,0,0,0-1.12-1.19l-3.42-1.25a11.33,11.33,0,0,0-.15-2.73l3.34-1.54a1.85,1.85,0,0,0,1-1.28l.11-.51a1.85,1.85,0,0,0-.13-1.16l-.86-1.87a1.9,1.9,0,0,0-.81-.85l-.46-.24a1.83,1.83,0,0,0-1.63-.05l-3.35,1.55-.14.08a11.79,11.79,0,0,0-2-1.69,1.51,1.51,0,0,0,.11-.22l1.27-3.46a1.84,1.84,0,0,0-.18-1.63l-.28-.44a1.87,1.87,0,0,0-.91-.73l-1.93-.71a1.81,1.81,0,0,0-1.17,0l-.5.15a1.83,1.83,0,0,0-1.19,1.13l-1.27,3.46a1.8,1.8,0,0,0-.1.46,11.24,11.24,0,0,0-2.46.19,1.66,1.66,0,0,0-.14-.54l-1.55-3.35a1.86,1.86,0,0,0-1.28-1l-.51-.11a1.78,1.78,0,0,0-1.16.12l-1.87.87a1.83,1.83,0,0,0-.85.8l-.24.46a1.85,1.85,0,0,0-.05,1.64l1.55,3.34a1.77,1.77,0,0,0,.42.58,10.79,10.79,0,0,0-1.62,1.81,1.88,1.88,0,0,0-.63-.4l-3.46-1.27a1.84,1.84,0,0,0-1.63.18l-.44.28a1.84,1.84,0,0,0-.73.92l-.71,1.92a1.83,1.83,0,0,0,0,1.18l.15.49a1.84,1.84,0,0,0,1.12,1.19l3.47,1.27a1.69,1.69,0,0,0,.73.11,12.31,12.31,0,0,0,.06,2.43,1.67,1.67,0,0,0-.68.17l-3.35,1.55a1.86,1.86,0,0,0-1,1.27l-.11.51a1.89,1.89,0,0,0,.13,1.17l.86,1.86a1.9,1.9,0,0,0,.81.85l.46.25a1.85,1.85,0,0,0,1.64,0l3.34-1.55a1.69,1.69,0,0,0,.46-.31,11.53,11.53,0,0,0,1.76,1.73,1.88,1.88,0,0,0-.23.42L355,316.64a1.85,1.85,0,0,0,.18,1.63l.28.43a1.88,1.88,0,0,0,.91.74l1.93.7a1.9,1.9,0,0,0,1.18,0l.49-.15a1.86,1.86,0,0,0,1.19-1.13l1.27-3.46a1.05,1.05,0,0,0,.06-.24,11.79,11.79,0,0,0,2.59,0,.94.94,0,0,0,.06.15l1.55,3.34a1.81,1.81,0,0,0,1.27,1l.51.11a1.85,1.85,0,0,0,1.16-.13l1.87-.86a1.85,1.85,0,0,0,.85-.81l.24-.45a1.85,1.85,0,0,0,.05-1.64l-1.55-3.34a11.39,11.39,0,0,0,1.88-2l3.42,1.25a1.85,1.85,0,0,0,1.63-.18l.43-.28a1.73,1.73,0,0,0,.73-.91l.71-1.93A1.81,1.81,0,0,0,379.88,307.38Zm-19.45,5.06a9.32,9.32,0,1,1,12.33-6.86l-.94,2.57A9.33,9.33,0,0,1,360.43,312.44Z" transform="translate(0.25)"/><circle class="cls-2" cx="272.7" cy="293.59" r="6.77"/><path class="cls-2" d="M272.45,303.38c-12.18,0-11.4,15.83-11.4,15.83h22.8S284.64,303.38,272.45,303.38Z" transform="translate(0.25)"/><path class="cls-2" d="M191.38,289.41l-11.51,11.51a9,9,0,1,0,5.49,4.59l3.68.41-.41-3.59,3.6.4-.41-3.59,3.6.4L195,296l3.6.4-.42-3.69.05-.05-3.2-3.2A2.57,2.57,0,0,0,191.38,289.41ZM180,307.77a3.13,3.13,0,1,1-5.21,0A3.15,3.15,0,0,1,180,307.77Z" transform="translate(0.25)"/><ellipse class="cls-5" cx="425.69" cy="123.44" rx="27.27" ry="27.2" transform="translate(37.74 337.33) rotate(-45.02)"/><circle class="cls-2" cx="381.68" cy="123.44" r="7.75"/><line class="cls-5" x1="381.68" y1="123.44" x2="398.7" y2="123.44"/><circle class="cls-5" cx="71.67" cy="123.44" r="27.24"/><circle class="cls-2" cx="115.92" cy="123.44" r="7.75"/><circle class="cls-2" cx="119.64" cy="92.29" r="7.75"/><circle class="cls-2" cx="376.89" cy="92.29" r="7.75"/><line class="cls-5" x1="115.92" y1="123.44" x2="98.91" y2="123.44"/><path class="cls-2" d="M52.7,125.9v7.67a2.53,2.53,0,0,0,2.53,2.53H87.48A2.53,2.53,0,0,0,90,133.57V125.9a2.54,2.54,0,0,0-2.53-2.54H55.23A2.54,2.54,0,0,0,52.7,125.9Zm31.86,3.83a1.77,1.77,0,1,1,1.77,1.77A1.76,1.76,0,0,1,84.56,129.73Zm-6,0a1.77,1.77,0,1,1,1.77,1.77A1.76,1.76,0,0,1,78.57,129.73Zm-6,0a1.77,1.77,0,1,1,1.77,1.77A1.76,1.76,0,0,1,72.58,129.73Zm-6,0a1.77,1.77,0,1,1,1.76,1.77A1.76,1.76,0,0,1,66.6,129.73Zm-6,0a1.77,1.77,0,1,1,1.76,1.77A1.76,1.76,0,0,1,60.61,129.73Zm-6,0a1.77,1.77,0,1,1,1.76,1.77A1.76,1.76,0,0,1,54.62,129.73Z" transform="translate(0.25)"/><path class="cls-2" d="M56.79,126h0a1.09,1.09,0,0,0,1.09-1.09v-13a1.09,1.09,0,0,0-1.09-1.09h0a1.09,1.09,0,0,0-1.1,1.09v13A1.09,1.09,0,0,0,56.79,126Z" transform="translate(0.25)"/><path class="cls-2" d="M86,126h0a1.09,1.09,0,0,0,1.09-1.09v-13A1.09,1.09,0,0,0,86,110.77h0a1.09,1.09,0,0,0-1.1,1.09v13A1.09,1.09,0,0,0,86,126Z" transform="translate(0.25)"/><polygon class="cls-2" points="411.5 114.64 411.5 129.48 420.04 120.58 411.5 114.64"/><polygon class="cls-2" points="439.01 113.9 413.13 113.9 426.07 122.87 439.01 113.9"/><polygon class="cls-2" points="432.1 120.58 440.64 129.48 440.64 114.64 432.1 120.58"/><polygon class="cls-2" points="426.07 124.48 421.57 121.47 411.5 131.9 411.5 132.97 440.64 132.97 440.64 131.9 430.57 121.47 426.07 124.48"/><circle class="cls-5" cx="412.79" cy="48.47" r="27.24"/><path class="cls-2" d="M412.54,34.33a11,11,0,0,0-11,11c0,6.1,11,21.07,11,21.07s11-15,11-21.07A11,11,0,0,0,412.54,34.33Zm0,14.84a3.8,3.8,0,1,1,3.81-3.8A3.8,3.8,0,0,1,412.54,49.17Z" transform="translate(0.25)"/><circle class="cls-5" cx="84.66" cy="48.47" r="27.24"/><path class="cls-2" d="M94.67,43.87a4.53,4.53,0,0,0-3.14,1.26l-7.77-5.45a4.43,4.43,0,0,0,.38-1.82,4.64,4.64,0,1,0-1.46,3.35l7.77,5.44a4.55,4.55,0,0,0,0,3.64l-7.77,5.45a4.53,4.53,0,0,0-3.14-1.26,4.61,4.61,0,1,0,4.6,4.6,4.46,4.46,0,0,0-.38-1.82l7.77-5.44a4.6,4.6,0,1,0,3.14-8Z" transform="translate(0.25)"/><line class="cls-5" x1="119.64" y1="92.29" x2="102.36" y2="69.17"/><line class="cls-5" x1="376.91" y1="92.29" x2="394.2" y2="69.17"/><path class="cls-2" d="M80.46,317.55h0a4.25,4.25,0,0,1-4.23-4.24V304a4.25,4.25,0,0,1,4.23-4.24h0A4.26,4.26,0,0,1,84.7,304v9.28A4.26,4.26,0,0,1,80.46,317.55Z" transform="translate(0.25)"/><path class="cls-2" d="M76.26,312.83h0a2,2,0,0,1-2-2v-4.35a2,2,0,0,1,2-2h0a2,2,0,0,1,2,2v4.35A2,2,0,0,1,76.26,312.83Z" transform="translate(0.25)"/><path class="cls-2" d="M105.37,299.79h0a4.26,4.26,0,0,1,4.24,4.24v9.28a4.26,4.26,0,0,1-4.24,4.24h0a4.25,4.25,0,0,1-4.23-4.24V304A4.25,4.25,0,0,1,105.37,299.79Z" transform="translate(0.25)"/><path class="cls-2" d="M109.58,304.51h0a2,2,0,0,1,2,2v4.35a2,2,0,0,1-2,2h0a2,2,0,0,1-2-2v-4.35A2,2,0,0,1,109.58,304.51Z" transform="translate(0.25)"/><path class="cls-2" d="M106.2,301.73l-1.66-.13c0-.06.46-6.18-3.14-10.08-2-2.19-5-3.29-8.72-3.29s-6.78,1.11-8.78,3.3c-3.51,3.84-3,9.73-3,9.78l-1.66.15c0-.27-.55-6.68,3.45-11,2.33-2.56,5.7-3.85,10-3.85s7.61,1.29,10,3.84C106.73,294.84,106.23,301.46,106.2,301.73Z" transform="translate(0.25)"/><path class="cls-1" d="M240.38,122.32a6.9,6.9,0,1,1,6.9,6.9A6.9,6.9,0,0,1,240.38,122.32Z" transform="translate(0.25)"/><path class="cls-1" d="M211,86.07a51.21,51.21,0,0,1,72.5,0l5.55-5.56a59.06,59.06,0,0,0-83.61,0Z" transform="translate(0.25)"/><path class="cls-1" d="M247.28,79.83a42.36,42.36,0,0,0-30,12.46l5.54,5.54a34.6,34.6,0,0,1,49,0l5.54-5.54A42.37,42.37,0,0,0,247.28,79.83Z" transform="translate(0.25)"/><path class="cls-1" d="M247.28,97.3a25,25,0,0,0-17.69,7.33l5.54,5.54a17.17,17.17,0,0,1,24.3,0l5.54-5.54A25,25,0,0,0,247.28,97.3Z" transform="translate(0.25)"/></g></svg>