<svg xmlns="http://www.w3.org/2000/svg" xmlns:xlink="http://www.w3.org/1999/xlink" viewBox="0 0 322.15 251.92"><defs><style>.cls-1{isolation:isolate;}.cls-17,.cls-2,.cls-20,.cls-21,.cls-22,.cls-8{fill:#42e8e0;}.cls-3{opacity:0.1;}.cls-4{fill:#2fd3c7;}.cls-5{fill:#fff;}.cls-6{fill:#18b2a3;opacity:0.7;}.cls-22,.cls-7{opacity:0.2;}.cls-8{mix-blend-mode:lighten;}.cls-9{fill:url(#Áåçûìÿííûé_ãðàäèåíò_18);}.cls-10{fill:#bcbeff;}.cls-11{fill:url(#Áåçûìÿííûé_ãðàäèåíò_18-2);}.cls-12{fill:#0f054c;}.cls-13,.cls-14,.cls-15,.cls-16,.cls-17,.cls-18,.cls-19{opacity:0.5;}.cls-13{fill:url(#Áåçûìÿííûé_ãðàäèåíò_15);}.cls-14{fill:url(#Áåçûìÿííûé_ãðàäèåíò_15-2);}.cls-15{fill:url(#Áåçûìÿííûé_ãðàäèåíò_15-3);}.cls-16{fill:url(#Áåçûìÿííûé_ãðàäèåíò_15-4);}.cls-18{fill:url(#Áåçûìÿííûé_ãðàäèåíò_15-5);}.cls-19{fill:url(#Áåçûìÿííûé_ãðàäèåíò_15-6);}.cls-20{opacity:0.8;}.cls-21{opacity:0.4;}</style><linearGradient id="Áåçûìÿííûé_ãðàäèåíò_18" x1="27.1" y1="154.35" x2="234.09" y2="154.35" gradientUnits="userSpaceOnUse"><stop offset="0" stop-color="#5761d7"/><stop offset="0.16" stop-color="#5e67da"/><stop offset="0.41" stop-color="#727ae2"/><stop offset="0.69" stop-color="#9297ee"/><stop offset="1" stop-color="#bcbeff"/></linearGradient><linearGradient id="Áåçûìÿííûé_ãðàäèåíò_18-2" x1="27.1" y1="134.63" x2="234.09" y2="134.63" xlink:href="#Áåçûìÿííûé_ãðàäèåíò_18"/><linearGradient id="Áåçûìÿííûé_ãðàäèåíò_15" x1="85.68" y1="106.66" x2="209.92" y2="106.66" gradientUnits="userSpaceOnUse"><stop offset="0" stop-color="#42e8e0"/><stop offset="0.15" stop-color="#43e3e0"/><stop offset="0.33" stop-color="#45d5df"/><stop offset="0.52" stop-color="#49bddd"/><stop offset="0.72" stop-color="#4e9cdb"/><stop offset="0.93" stop-color="#5472d8"/><stop offset="1" stop-color="#5761d7"/></linearGradient><linearGradient id="Áåçûìÿííûé_ãðàäèåíò_15-2" x1="147.8" y1="84.2" x2="209.92" y2="84.2" xlink:href="#Áåçûìÿííûé_ãðàäèåíò_15"/><linearGradient id="Áåçûìÿííûé_ãðàäèåíò_15-3" x1="85.68" y1="84.2" x2="147.8" y2="84.2" xlink:href="#Áåçûìÿííûé_ãðàäèåíò_15"/><linearGradient id="Áåçûìÿííûé_ãðàäèåíò_15-4" x1="85.68" y1="97.62" x2="209.92" y2="97.62" xlink:href="#Áåçûìÿííûé_ãðàäèåíò_15"/><linearGradient id="Áåçûìÿííûé_ãðàäèåíò_15-5" x1="147.8" y1="120.07" x2="209.92" y2="120.07" xlink:href="#Áåçûìÿííûé_ãðàäèåíò_15"/><linearGradient id="Áåçûìÿííûé_ãðàäèåíò_15-6" x1="85.68" y1="120.07" x2="147.8" y2="120.07" xlink:href="#Áåçûìÿííûé_ãðàäèåíò_15"/></defs><title>block chain</title><g class="cls-1"><g id="Ñëîé_1" data-name="Ñëîé 1"><polygon class="cls-2" points="183.79 69.9 183.64 69.63 218.48 49.36 218.56 49.4 254.57 69.16 254.41 69.43 218.49 49.72 183.79 69.9"/><g class="cls-3"><polygon class="cls-2" points="147.8 166.26 132.73 157.56 132.73 174.96 147.8 183.66 162.87 174.96 162.87 157.56 147.8 166.26"/><polygon class="cls-2" points="147.8 183.66 132.73 174.96 132.73 157.56 147.8 166.26 147.8 183.66"/><polygon class="cls-4" points="162.87 174.96 147.8 183.66 147.8 166.26 162.87 157.56 162.87 174.96"/><polygon class="cls-2" points="147.8 166.26 132.73 157.56 147.8 148.86 162.87 157.56 147.8 166.26"/><polygon class="cls-5" points="147.8 166.26 133.39 157.94 132.73 158.32 147.8 167.01 162.87 158.32 162.22 157.94 147.8 166.26"/><polygon class="cls-2" points="167.37 177.43 152.31 168.73 152.31 186.13 167.37 194.82 182.44 186.13 182.44 168.73 167.37 177.43"/><polygon class="cls-2" points="167.37 194.83 152.31 186.13 152.31 168.73 167.37 177.43 167.37 194.83"/><polygon class="cls-4" points="182.44 186.13 167.37 194.83 167.37 177.43 182.44 168.73 182.44 186.13"/><polygon class="cls-2" points="167.37 177.43 152.31 168.73 167.37 160.03 182.44 168.73 167.37 177.43"/><polygon class="cls-5" points="167.37 177.43 152.96 169.1 152.31 169.48 167.37 178.18 182.44 169.48 181.79 169.11 167.37 177.43"/><polygon class="cls-2" points="186.94 188.59 171.88 179.9 171.88 197.29 186.94 205.99 202.01 197.29 202.01 179.9 186.94 188.59"/><polygon class="cls-2" points="186.94 205.99 171.88 197.29 171.88 179.9 186.94 188.59 186.94 205.99"/><polygon class="cls-4" points="202.01 197.29 186.94 205.99 186.94 188.59 202.01 179.9 202.01 197.29"/><polygon class="cls-2" points="186.94 188.59 171.88 179.9 186.94 171.2 202.01 179.9 186.94 188.59"/><polygon class="cls-5" points="186.94 188.59 172.53 180.27 171.88 180.65 186.94 189.35 202.01 180.65 202.01 179.9 186.94 188.59"/><polygon class="cls-2" points="128.23 178.18 113.16 169.48 113.16 186.88 128.23 195.58 143.3 186.88 143.3 169.48 128.23 178.18"/><polygon class="cls-2" points="128.23 195.58 113.16 186.88 113.16 169.48 128.23 178.18 128.23 195.58"/><polygon class="cls-4" points="143.3 186.88 128.23 195.58 128.23 178.18 143.3 169.48 143.3 186.88"/><polygon class="cls-2" points="128.23 178.18 113.16 169.48 128.23 160.78 143.3 169.48 128.23 178.18"/><polygon class="cls-5" points="128.23 178.18 113.81 169.86 113.16 170.24 128.23 178.94 143.3 170.24 142.64 169.86 128.23 178.18"/><polygon class="cls-2" points="147.8 189.35 132.73 180.65 132.73 198.05 147.8 206.75 162.87 198.05 162.87 180.65 147.8 189.35"/><polygon class="cls-2" points="147.8 206.75 132.73 198.05 132.73 180.65 147.8 189.35 147.8 206.75"/><polygon class="cls-4" points="162.87 198.05 147.8 206.75 147.8 189.35 162.87 180.65 162.87 198.05"/><polygon class="cls-2" points="147.8 189.35 132.73 180.65 147.8 171.95 162.87 180.65 147.8 189.35"/><polygon class="cls-5" points="147.8 189.35 133.39 181.03 132.73 181.41 147.8 190.1 162.87 181.41 162.22 181.03 147.8 189.35"/><polygon class="cls-2" points="167.37 200.52 152.31 191.82 152.31 209.22 167.37 217.91 182.44 209.22 182.44 191.82 167.37 200.52"/><polygon class="cls-2" points="167.37 217.91 152.31 209.22 152.31 191.82 167.37 200.52 167.37 217.91"/><polygon class="cls-4" points="182.44 209.22 167.37 217.91 167.37 200.52 182.44 191.82 182.44 209.22"/><polygon class="cls-2" points="167.37 200.52 152.31 191.82 167.37 183.12 182.44 191.82 167.37 200.52"/><polygon class="cls-5" points="167.37 200.52 152.96 192.19 152.31 192.57 167.37 201.27 182.44 192.57 182.44 191.82 167.37 200.52"/><polygon class="cls-2" points="108.66 190.1 93.59 181.41 93.59 198.8 108.66 207.5 123.72 198.8 123.72 181.41 108.66 190.1"/><polygon class="cls-2" points="108.66 207.5 93.59 198.8 93.59 181.41 108.66 190.1 108.66 207.5"/><polygon class="cls-4" points="123.72 198.8 108.66 207.5 108.66 190.1 123.72 181.41 123.72 198.8"/><polygon class="cls-2" points="108.66 190.1 93.59 181.41 108.66 172.71 123.72 181.41 108.66 190.1"/><polygon class="cls-5" points="108.66 190.1 93.59 181.41 93.59 182.16 108.66 190.86 123.72 182.16 123.07 181.78 108.66 190.1"/><polygon class="cls-2" points="128.23 201.27 113.16 192.57 113.16 209.97 128.23 218.67 143.3 209.97 143.3 192.57 128.23 201.27"/><polygon class="cls-2" points="128.23 218.67 113.16 209.97 113.16 192.57 128.23 201.27 128.23 218.67"/><polygon class="cls-4" points="143.3 209.97 128.23 218.67 128.23 201.27 143.3 192.57 143.3 209.97"/><polygon class="cls-2" points="128.23 201.27 113.16 192.57 128.23 183.87 143.3 192.57 128.23 201.27"/><polygon class="cls-5" points="128.23 201.27 113.16 192.57 113.16 193.33 128.23 202.03 143.3 193.33 142.64 192.95 128.23 201.27"/><polygon class="cls-2" points="147.8 212.44 132.73 203.74 132.73 221.14 147.8 229.84 162.87 221.14 162.87 203.74 147.8 212.44"/><polygon class="cls-2" points="147.8 229.84 132.73 221.14 132.73 203.74 147.8 212.44 147.8 229.84"/><polygon class="cls-4" points="162.87 221.14 147.8 229.84 147.8 212.44 162.87 203.74 162.87 221.14"/><polygon class="cls-2" points="147.8 212.44 132.73 203.74 147.8 195.04 162.87 203.74 147.8 212.44"/><polygon class="cls-5" points="147.8 212.44 132.73 203.74 132.73 204.49 147.8 213.19 162.87 204.49 162.87 203.74 147.8 212.44"/><polygon class="cls-2" points="147.8 143.17 132.73 134.47 132.73 151.87 147.8 160.57 162.87 151.87 162.87 134.47 147.8 143.17"/><polygon class="cls-2" points="147.8 160.57 132.73 151.87 132.73 134.47 147.8 143.17 147.8 160.57"/><polygon class="cls-4" points="162.87 151.87 147.8 160.57 147.8 143.17 162.87 134.47 162.87 151.87"/><polygon class="cls-2" points="147.8 143.17 132.73 134.47 147.8 125.77 162.87 134.47 147.8 143.17"/><polygon class="cls-5" points="147.8 143.17 133.39 134.85 132.73 135.23 147.8 143.93 162.87 135.23 162.22 134.85 147.8 143.17"/><polygon class="cls-6" points="147.8 209.6 137.52 203.67 147.8 197.74 158.08 203.67 147.8 209.6"/><polygon class="cls-6" points="128.23 198.44 117.95 192.5 128.23 186.57 138.51 192.5 128.23 198.44"/><polygon class="cls-6" points="167.37 197.68 157.09 191.75 167.37 185.81 177.65 191.75 167.37 197.68"/><polygon class="cls-6" points="186.98 185.9 176.7 179.96 186.98 174.03 197.26 179.96 186.98 185.9"/><polygon class="cls-6" points="108.66 187.27 98.38 181.34 108.66 175.4 118.94 181.34 108.66 187.27"/><polygon class="cls-2" points="167.37 154.34 152.31 145.64 152.31 163.04 167.37 171.74 182.44 163.04 182.44 145.64 167.37 154.34"/><polygon class="cls-2" points="167.37 171.74 152.31 163.04 152.31 145.64 167.37 154.34 167.37 171.74"/><polygon class="cls-4" points="182.44 163.04 167.37 171.74 167.37 154.34 182.44 145.64 182.44 163.04"/><polygon class="cls-2" points="167.37 154.34 152.31 145.64 167.37 136.94 182.44 145.64 167.37 154.34"/><polygon class="cls-5" points="167.37 154.34 152.96 146.02 152.31 146.39 167.37 155.09 182.44 146.39 181.79 146.02 167.37 154.34"/><polygon class="cls-2" points="186.94 165.51 171.88 156.81 171.88 174.2 186.94 182.9 202.01 174.2 202.01 156.81 186.94 165.51"/><polygon class="cls-2" points="186.94 182.9 171.88 174.2 171.88 156.81 186.94 165.51 186.94 182.9"/><polygon class="cls-4" points="202.01 174.2 186.94 182.9 186.94 165.51 202.01 156.81 202.01 174.2"/><polygon class="cls-2" points="186.94 165.51 171.88 156.81 186.94 148.11 202.01 156.81 186.94 165.51"/><polygon class="cls-5" points="186.94 165.51 172.53 157.18 171.88 157.56 186.94 166.26 202.01 157.56 202.01 156.81 186.94 165.51"/><polygon class="cls-2" points="128.23 155.09 113.16 146.39 113.16 163.79 128.23 172.49 143.3 163.79 143.3 146.39 128.23 155.09"/><polygon class="cls-2" points="128.23 172.49 113.16 163.79 113.16 146.39 128.23 155.09 128.23 172.49"/><polygon class="cls-4" points="143.3 163.79 128.23 172.49 128.23 155.09 143.3 146.39 143.3 163.79"/><polygon class="cls-2" points="128.23 155.09 113.16 146.39 128.23 137.69 143.3 146.39 128.23 155.09"/><polygon class="cls-5" points="128.23 155.09 113.81 146.77 113.16 147.15 128.23 155.85 143.3 147.15 142.64 146.77 128.23 155.09"/><polygon class="cls-2" points="147.8 166.26 132.73 157.56 132.73 174.96 147.8 183.66 162.87 174.96 162.87 157.56 147.8 166.26"/><polygon class="cls-2" points="147.8 183.66 132.73 174.96 132.73 157.56 147.8 166.26 147.8 183.66"/><polygon class="cls-4" points="162.87 174.96 147.8 183.66 147.8 166.26 162.87 157.56 162.87 174.96"/><polygon class="cls-2" points="147.8 166.26 132.73 157.56 147.8 148.86 162.87 157.56 147.8 166.26"/><polygon class="cls-5" points="147.8 166.26 133.39 157.94 132.73 158.32 147.8 167.01 162.87 158.32 162.22 157.94 147.8 166.26"/><polygon class="cls-2" points="167.37 177.43 152.31 168.73 152.31 186.13 167.37 194.83 182.44 186.13 182.44 168.73 167.37 177.43"/><polygon class="cls-2" points="167.37 194.83 152.31 186.13 152.31 168.73 167.37 177.43 167.37 194.83"/><polygon class="cls-4" points="182.44 186.13 167.37 194.83 167.37 177.43 182.44 168.73 182.44 186.13"/><polygon class="cls-2" points="167.37 177.43 152.31 168.73 167.37 160.03 182.44 168.73 167.37 177.43"/><polygon class="cls-5" points="167.37 177.43 152.96 169.11 152.31 169.48 167.37 178.18 182.44 169.48 182.44 168.73 167.37 177.43"/><polygon class="cls-2" points="108.66 167.01 93.59 158.32 93.59 175.71 108.66 184.41 123.72 175.71 123.72 158.32 108.66 167.01"/><polygon class="cls-2" points="108.66 184.41 93.59 175.71 93.59 158.32 108.66 167.01 108.66 184.41"/><polygon class="cls-4" points="123.72 175.71 108.66 184.41 108.66 167.01 123.72 158.32 123.72 175.71"/><polygon class="cls-2" points="108.66 167.01 93.59 158.32 108.66 149.62 123.72 158.32 108.66 167.01"/><polygon class="cls-5" points="108.66 167.01 94.24 158.69 93.59 159.07 108.66 167.77 123.72 159.07 123.07 158.69 108.66 167.01"/><polygon class="cls-2" points="128.23 178.18 113.16 169.48 113.16 186.88 128.23 195.58 143.3 186.88 143.3 169.48 128.23 178.18"/><polygon class="cls-2" points="128.23 195.58 113.16 186.88 113.16 169.48 128.23 178.18 128.23 195.58"/><polygon class="cls-4" points="143.3 186.88 128.23 195.58 128.23 178.18 143.3 169.48 143.3 186.88"/><polygon class="cls-2" points="128.23 178.18 113.16 169.48 128.23 160.78 143.3 169.48 128.23 178.18"/><polygon class="cls-5" points="128.23 178.18 113.16 169.48 113.16 170.24 128.23 178.94 143.3 170.24 142.64 169.86 128.23 178.18"/><polygon class="cls-2" points="147.8 189.35 132.73 180.65 132.73 198.05 147.8 206.75 162.87 198.05 162.87 180.65 147.8 189.35"/><polygon class="cls-2" points="147.8 206.75 132.73 198.05 132.73 180.65 147.8 189.35 147.8 206.75"/><polygon class="cls-4" points="162.87 198.05 147.8 206.75 147.8 189.35 162.87 180.65 162.87 198.05"/><polygon class="cls-2" points="147.8 189.35 132.73 180.65 147.8 171.95 162.87 180.65 147.8 189.35"/><polygon class="cls-5" points="147.8 189.35 132.73 180.65 132.73 181.41 147.8 190.1 162.87 181.41 162.87 180.65 147.8 189.35"/><polygon class="cls-6" points="186.98 162.91 176.7 156.98 186.98 151.04 197.26 156.98 186.98 162.91"/><polygon class="cls-6" points="108.66 164.28 98.38 158.35 108.66 152.41 118.94 158.35 108.66 164.28"/><polygon class="cls-2" points="147.8 120.08 132.73 111.38 132.73 128.78 147.8 137.48 162.87 128.78 162.87 111.38 147.8 120.08"/><polygon class="cls-2" points="147.8 137.48 132.73 128.78 132.73 111.38 147.8 120.08 147.8 137.48"/><polygon class="cls-4" points="162.87 128.78 147.8 137.48 147.8 120.08 162.87 111.38 162.87 128.78"/><polygon class="cls-2" points="147.8 120.08 132.73 111.38 147.8 102.68 162.87 111.38 147.8 120.08"/><polygon class="cls-5" points="147.8 120.08 132.73 111.38 132.73 112.14 147.8 120.84 162.87 112.14 162.87 111.38 147.8 120.08"/><polygon class="cls-2" points="167.37 131.25 152.31 122.55 152.31 139.95 167.37 148.65 182.44 139.95 182.44 122.55 167.37 131.25"/><polygon class="cls-2" points="167.37 148.65 152.31 139.95 152.31 122.55 167.37 131.25 167.37 148.65"/><polygon class="cls-4" points="182.44 139.95 167.37 148.65 167.37 131.25 182.44 122.55 182.44 139.95"/><polygon class="cls-2" points="167.37 131.25 152.31 122.55 167.37 113.85 182.44 122.55 167.37 131.25"/><polygon class="cls-5" points="167.37 131.25 152.31 122.55 152.31 123.31 167.37 132 182.44 123.31 182.44 122.55 167.37 131.25"/><polygon class="cls-2" points="186.94 142.42 171.88 133.72 171.88 151.12 186.94 159.81 202.01 151.12 202.01 133.72 186.94 142.42"/><polygon class="cls-2" points="186.94 159.81 171.88 151.12 171.88 133.72 186.94 142.42 186.94 159.81"/><polygon class="cls-4" points="202.01 151.12 186.94 159.81 186.94 142.42 202.01 133.72 202.01 151.12"/><polygon class="cls-2" points="186.94 142.42 171.88 133.72 186.94 125.02 202.01 133.72 186.94 142.42"/><polygon class="cls-5" points="186.94 142.42 171.88 133.72 171.88 134.47 186.94 143.17 202.01 134.47 202.01 133.72 186.94 142.42"/><polygon class="cls-2" points="128.23 132 113.16 123.31 113.16 140.7 128.23 149.4 143.3 140.7 143.3 123.31 128.23 132"/><polygon class="cls-2" points="128.23 149.4 113.16 140.7 113.16 123.31 128.23 132 128.23 149.4"/><polygon class="cls-4" points="143.3 140.7 128.23 149.4 128.23 132 143.3 123.31 143.3 140.7"/><polygon class="cls-2" points="128.23 132 113.16 123.31 128.23 114.61 143.3 123.31 128.23 132"/><polygon class="cls-5" points="128.23 132 113.16 123.31 113.16 124.06 128.23 132.76 143.3 124.06 143.3 123.31 128.23 132"/><polygon class="cls-2" points="108.66 143.93 93.59 135.23 93.59 152.63 108.66 161.32 123.72 152.63 123.72 135.23 108.66 143.93"/><polygon class="cls-2" points="108.66 161.32 93.59 152.63 93.59 135.23 108.66 143.93 108.66 161.32"/><polygon class="cls-4" points="123.72 152.63 108.66 161.32 108.66 143.93 123.72 135.23 123.72 152.63"/><polygon class="cls-2" points="108.66 143.93 93.59 135.23 108.66 126.53 123.72 135.23 108.66 143.93"/><polygon class="cls-5" points="108.66 143.93 93.59 135.23 93.59 135.98 108.66 144.68 123.72 135.98 123.72 135.23 108.66 143.93"/></g><g class="cls-7"><path class="cls-8" d="M191.58,260,181.07,254a7.24,7.24,0,0,1-3.28-5.67v-2.53a6.88,6.88,0,0,0-3.11-5.4l-2.19-1.27.15-.27,2.2,1.27a7.24,7.24,0,0,1,3.27,5.67v2.53a6.9,6.9,0,0,0,3.11,5.39l10.52,6.07Z" transform="translate(-23.58 -71.72)"/><path class="cls-8" d="M195.67,257.68l-10.52-6.07a7.24,7.24,0,0,1-3.27-5.67v-2.53a6.88,6.88,0,0,0-3.11-5.39l-2.2-1.27.16-.28,2.2,1.27a7.26,7.26,0,0,1,3.27,5.67v2.53a6.91,6.91,0,0,0,3.11,5.4l10.51,6.07Z" transform="translate(-23.58 -71.72)"/><path class="cls-8" d="M199.75,255.32l-10.51-6.06a7.27,7.27,0,0,1-3.27-5.67v-2.54a6.9,6.9,0,0,0-3.11-5.39l-2.2-1.27.16-.27,2.19,1.27a7.22,7.22,0,0,1,3.28,5.66v2.54A6.88,6.88,0,0,0,189.4,249l10.51,6.07Z" transform="translate(-23.58 -71.72)"/><path class="cls-8" d="M203.84,253l-10.51-6.07a7.24,7.24,0,0,1-3.27-5.67V238.7a6.92,6.92,0,0,0-3.12-5.4L184.75,232l.16-.28L187.1,233a7.24,7.24,0,0,1,3.28,5.67v2.53a6.89,6.89,0,0,0,3.11,5.4L204,252.69Z" transform="translate(-23.58 -71.72)"/><path class="cls-8" d="M207.93,250.61l-10.51-6.07a7.21,7.21,0,0,1-3.27-5.66v-2.54A6.89,6.89,0,0,0,191,231l-2.19-1.27.16-.27,2.19,1.26a7.25,7.25,0,0,1,3.27,5.67v2.54a6.89,6.89,0,0,0,3.12,5.39l10.51,6.07Z" transform="translate(-23.58 -71.72)"/><path class="cls-8" d="M212,248.26l-10.51-6.07a7.23,7.23,0,0,1-3.27-5.67V234a6.89,6.89,0,0,0-3.12-5.4l-2.19-1.26.15-.28,2.2,1.27a7.24,7.24,0,0,1,3.27,5.67v2.53a6.89,6.89,0,0,0,3.12,5.39L212.18,248Z" transform="translate(-23.58 -71.72)"/><path class="cls-8" d="M216.11,245.9l-10.51-6.07a7.23,7.23,0,0,1-3.28-5.67v-2.53a6.88,6.88,0,0,0-3.11-5.39L197,225l.16-.27,2.2,1.26a7.26,7.26,0,0,1,3.27,5.67v2.53a6.91,6.91,0,0,0,3.11,5.4l10.51,6.07Z" transform="translate(-23.58 -71.72)"/><path class="cls-8" d="M220.19,243.54l-10.51-6.06a7.26,7.26,0,0,1-3.27-5.67v-2.54a6.9,6.9,0,0,0-3.11-5.39l-2.2-1.27.16-.27,2.2,1.27a7.24,7.24,0,0,1,3.27,5.66v2.54a6.88,6.88,0,0,0,3.11,5.39l10.51,6.07Z" transform="translate(-23.58 -71.72)"/><path class="cls-8" d="M224.28,241.19l-10.51-6.07a7.24,7.24,0,0,1-3.27-5.67v-2.53a6.9,6.9,0,0,0-3.11-5.39l-2.2-1.27.16-.28,2.19,1.27a7.23,7.23,0,0,1,3.28,5.67v2.53a6.88,6.88,0,0,0,3.11,5.4l10.51,6.07Z" transform="translate(-23.58 -71.72)"/><path class="cls-8" d="M228.37,238.83l-10.51-6.07a7.24,7.24,0,0,1-3.27-5.66v-2.54a6.89,6.89,0,0,0-3.12-5.39l-2.19-1.27.16-.27,2.19,1.27a7.21,7.21,0,0,1,3.27,5.66v2.54a6.89,6.89,0,0,0,3.12,5.39l10.51,6.07Z" transform="translate(-23.58 -71.72)"/><path class="cls-8" d="M232.46,236.48,222,230.41a7.22,7.22,0,0,1-3.27-5.67v-2.53a6.9,6.9,0,0,0-3.12-5.4l-2.19-1.26.15-.28,2.2,1.27a7.24,7.24,0,0,1,3.27,5.67v2.53a6.92,6.92,0,0,0,3.12,5.4l10.51,6.06Z" transform="translate(-23.58 -71.72)"/><path class="cls-8" d="M236.55,234.12,226,228.05a7.22,7.22,0,0,1-3.28-5.66v-2.54a6.88,6.88,0,0,0-3.11-5.39l-2.2-1.27.16-.27,2.2,1.26a7.27,7.27,0,0,1,3.27,5.67v2.54a6.9,6.9,0,0,0,3.11,5.39l10.51,6.07Z" transform="translate(-23.58 -71.72)"/><path class="cls-8" d="M240.63,231.77l-10.51-6.07a7.26,7.26,0,0,1-3.27-5.67V217.5a6.91,6.91,0,0,0-3.11-5.4l-2.2-1.27.16-.27,2.2,1.27a7.24,7.24,0,0,1,3.27,5.67V220a6.9,6.9,0,0,0,3.11,5.39l10.51,6.07Z" transform="translate(-23.58 -71.72)"/><path class="cls-8" d="M244.72,229.41l-10.51-6.07a7.24,7.24,0,0,1-3.27-5.67v-2.53a6.9,6.9,0,0,0-3.11-5.39l-2.2-1.27.16-.28,2.19,1.27a7.24,7.24,0,0,1,3.28,5.67v2.53a6.88,6.88,0,0,0,3.11,5.4l10.51,6.07Z" transform="translate(-23.58 -71.72)"/><path class="cls-8" d="M248.81,227.05,238.3,221a7.27,7.27,0,0,1-3.27-5.67v-2.54a6.89,6.89,0,0,0-3.12-5.39l-2.19-1.27.16-.27,2.19,1.27a7.21,7.21,0,0,1,3.27,5.66v2.54a6.89,6.89,0,0,0,3.12,5.39L249,226.78Z" transform="translate(-23.58 -71.72)"/><path class="cls-8" d="M252.9,224.7l-10.51-6.07a7.22,7.22,0,0,1-3.27-5.67v-2.53A6.92,6.92,0,0,0,236,205l-2.19-1.26.16-.28,2.19,1.27a7.22,7.22,0,0,1,3.27,5.67V213a6.89,6.89,0,0,0,3.12,5.4l10.51,6.06Z" transform="translate(-23.58 -71.72)"/><path class="cls-8" d="M257,222.34l-10.51-6.07a7.22,7.22,0,0,1-3.28-5.66v-2.54a6.88,6.88,0,0,0-3.11-5.39l-2.19-1.27.15-.27,2.2,1.27a7.24,7.24,0,0,1,3.27,5.66v2.54a6.9,6.9,0,0,0,3.11,5.39l10.52,6.07Z" transform="translate(-23.58 -71.72)"/><path class="cls-8" d="M261.08,220l-10.52-6.07a7.26,7.26,0,0,1-3.27-5.67v-2.53a6.88,6.88,0,0,0-3.11-5.4l-2.2-1.26.16-.28,2.2,1.27a7.24,7.24,0,0,1,3.27,5.67v2.53a6.94,6.94,0,0,0,3.11,5.4l10.51,6.06Z" transform="translate(-23.58 -71.72)"/><path class="cls-8" d="M265.16,217.63l-10.51-6.07a7.24,7.24,0,0,1-3.27-5.66v-2.54a6.9,6.9,0,0,0-3.11-5.39l-2.2-1.27.16-.27,2.19,1.26a7.26,7.26,0,0,1,3.28,5.67v2.54a6.88,6.88,0,0,0,3.11,5.39l10.51,6.07Z" transform="translate(-23.58 -71.72)"/><path class="cls-8" d="M269.25,215.28l-10.51-6.07a7.27,7.27,0,0,1-3.27-5.67V201a6.89,6.89,0,0,0-3.12-5.39l-2.19-1.27.16-.27,2.19,1.27a7.22,7.22,0,0,1,3.28,5.66v2.54a6.88,6.88,0,0,0,3.11,5.39L269.41,215Z" transform="translate(-23.58 -71.72)"/><path class="cls-8" d="M150.89,260l-.16-.28,10.51-6.07a6.89,6.89,0,0,0,3.12-5.39v-2.53a7.22,7.22,0,0,1,3.27-5.67l2.19-1.27.16.27-2.19,1.27a6.89,6.89,0,0,0-3.12,5.4v2.53A7.23,7.23,0,0,1,161.4,254Z" transform="translate(-23.58 -71.72)"/><path class="cls-8" d="M146.8,257.68l-.16-.27,10.51-6.07a6.89,6.89,0,0,0,3.12-5.4v-2.53a7.26,7.26,0,0,1,3.27-5.67l2.2-1.27.15.28L163.7,238a6.88,6.88,0,0,0-3.11,5.39v2.53a7.23,7.23,0,0,1-3.28,5.67Z" transform="translate(-23.58 -71.72)"/><path class="cls-8" d="M142.71,255.32l-.15-.27L153.07,249a6.9,6.9,0,0,0,3.11-5.39v-2.54a7.24,7.24,0,0,1,3.27-5.66l2.2-1.27.16.27-2.2,1.27a6.88,6.88,0,0,0-3.11,5.39v2.54a7.26,7.26,0,0,1-3.28,5.67Z" transform="translate(-23.58 -71.72)"/><path class="cls-8" d="M138.63,253l-.16-.28L149,246.63a6.89,6.89,0,0,0,3.11-5.4V238.7a7.26,7.26,0,0,1,3.27-5.67l2.2-1.27.16.28-2.2,1.26a6.94,6.94,0,0,0-3.11,5.4v2.53a7.24,7.24,0,0,1-3.27,5.67Z" transform="translate(-23.58 -71.72)"/><path class="cls-8" d="M134.54,250.61l-.16-.27,10.51-6.07a6.88,6.88,0,0,0,3.11-5.39v-2.54a7.26,7.26,0,0,1,3.28-5.67l2.19-1.26.16.27-2.2,1.27a6.9,6.9,0,0,0-3.11,5.39v2.54a7.24,7.24,0,0,1-3.27,5.66Z" transform="translate(-23.58 -71.72)"/><path class="cls-8" d="M130.45,248.26l-.16-.28,10.51-6.07a6.89,6.89,0,0,0,3.12-5.39V234a7.22,7.22,0,0,1,3.27-5.67l2.19-1.27.16.28-2.19,1.26a6.89,6.89,0,0,0-3.12,5.4v2.53a7.26,7.26,0,0,1-3.27,5.67Z" transform="translate(-23.58 -71.72)"/><path class="cls-8" d="M126.36,245.9l-.16-.27,10.51-6.07a6.89,6.89,0,0,0,3.12-5.4v-2.53A7.26,7.26,0,0,1,143.1,226l2.2-1.26.15.27-2.19,1.27a6.89,6.89,0,0,0-3.12,5.39v2.53a7.22,7.22,0,0,1-3.27,5.67Z" transform="translate(-23.58 -71.72)"/><path class="cls-8" d="M122.27,243.54l-.15-.27,10.51-6.07a6.9,6.9,0,0,0,3.11-5.39v-2.54a7.24,7.24,0,0,1,3.27-5.66l2.2-1.27.16.27-2.2,1.27a6.88,6.88,0,0,0-3.11,5.39v2.54a7.24,7.24,0,0,1-3.28,5.67Z" transform="translate(-23.58 -71.72)"/><path class="cls-8" d="M118.19,241.19l-.16-.27,10.51-6.07a6.88,6.88,0,0,0,3.11-5.4v-2.53a7.24,7.24,0,0,1,3.27-5.67l2.2-1.27.16.28-2.2,1.27a6.9,6.9,0,0,0-3.11,5.39v2.53a7.24,7.24,0,0,1-3.27,5.67Z" transform="translate(-23.58 -71.72)"/><path class="cls-8" d="M114.1,238.83l-.16-.27,10.51-6.07a6.88,6.88,0,0,0,3.11-5.39v-2.54a7.22,7.22,0,0,1,3.28-5.66l2.19-1.27.16.27-2.2,1.27a6.9,6.9,0,0,0-3.11,5.39v2.54a7.24,7.24,0,0,1-3.27,5.66Z" transform="translate(-23.58 -71.72)"/><path class="cls-8" d="M110,236.48l-.16-.28,10.51-6.06a6.92,6.92,0,0,0,3.12-5.4v-2.53a7.22,7.22,0,0,1,3.27-5.67l2.19-1.27.16.28-2.19,1.26a6.9,6.9,0,0,0-3.12,5.4v2.53a7.24,7.24,0,0,1-3.27,5.67Z" transform="translate(-23.58 -71.72)"/><path class="cls-8" d="M105.92,234.12l-.16-.27,10.51-6.07a6.89,6.89,0,0,0,3.12-5.39v-2.54a7.27,7.27,0,0,1,3.27-5.67l2.2-1.26.15.27-2.19,1.27a6.89,6.89,0,0,0-3.12,5.39v2.54a7.21,7.21,0,0,1-3.27,5.66Z" transform="translate(-23.58 -71.72)"/><path class="cls-8" d="M101.83,231.77l-.16-.28,10.52-6.07A6.9,6.9,0,0,0,115.3,220V217.5a7.24,7.24,0,0,1,3.27-5.67l2.2-1.27.15.27-2.19,1.27a6.88,6.88,0,0,0-3.11,5.4V220a7.24,7.24,0,0,1-3.28,5.67Z" transform="translate(-23.58 -71.72)"/><path class="cls-8" d="M97.74,229.41l-.15-.27,10.51-6.07a6.91,6.91,0,0,0,3.11-5.4v-2.53a7.26,7.26,0,0,1,3.27-5.67l2.2-1.27.16.28-2.2,1.27a6.88,6.88,0,0,0-3.11,5.39v2.53a7.24,7.24,0,0,1-3.27,5.67Z" transform="translate(-23.58 -71.72)"/><path class="cls-8" d="M93.66,227.05l-.16-.27L104,220.71a6.88,6.88,0,0,0,3.11-5.39v-2.54a7.22,7.22,0,0,1,3.28-5.66l2.19-1.27.16.27-2.2,1.27a6.9,6.9,0,0,0-3.11,5.39v2.54a7.27,7.27,0,0,1-3.27,5.67Z" transform="translate(-23.58 -71.72)"/><path class="cls-8" d="M89.57,224.7l-.16-.28,10.51-6.06A6.88,6.88,0,0,0,103,213v-2.53a7.23,7.23,0,0,1,3.28-5.67l2.19-1.27.16.28L106.47,205a6.92,6.92,0,0,0-3.12,5.4V213a7.24,7.24,0,0,1-3.27,5.67Z" transform="translate(-23.58 -71.72)"/><path class="cls-8" d="M85.48,222.34l-.16-.27L95.83,216A6.89,6.89,0,0,0,99,210.61v-2.54a7.21,7.21,0,0,1,3.27-5.66l2.19-1.27.16.27-2.19,1.27a6.89,6.89,0,0,0-3.12,5.39v2.54A7.21,7.21,0,0,1,96,216.27Z" transform="translate(-23.58 -71.72)"/><path class="cls-8" d="M81.39,220l-.16-.28,10.51-6.06a6.92,6.92,0,0,0,3.12-5.4v-2.53a7.24,7.24,0,0,1,3.27-5.67l2.2-1.27.15.28-2.19,1.26a6.89,6.89,0,0,0-3.12,5.4v2.53a7.23,7.23,0,0,1-3.27,5.67Z" transform="translate(-23.58 -71.72)"/><path class="cls-8" d="M77.3,217.63l-.15-.27,10.51-6.07a6.9,6.9,0,0,0,3.11-5.39v-2.54A7.27,7.27,0,0,1,94,197.69l2.2-1.26.16.27L94.2,198a6.88,6.88,0,0,0-3.11,5.39v2.54a7.22,7.22,0,0,1-3.28,5.66Z" transform="translate(-23.58 -71.72)"/><path class="cls-8" d="M73.22,215.28l-.16-.28,10.51-6.07a6.88,6.88,0,0,0,3.11-5.39V201A7.24,7.24,0,0,1,90,195.34l2.2-1.27.16.27-2.2,1.27A6.9,6.9,0,0,0,87,201v2.54a7.27,7.27,0,0,1-3.27,5.67Z" transform="translate(-23.58 -71.72)"/><polygon class="cls-9" points="228.57 126.37 228.57 135.7 147.8 182.34 67.03 135.7 67.03 126.37 228.57 126.37"/><polygon class="cls-10" points="147.8 173 67.03 126.37 147.8 79.74 228.57 126.37 147.8 173"/><polygon class="cls-5" points="147.8 171.91 67.98 125.83 67.03 126.37 147.8 173 228.57 126.37 227.62 125.83 147.8 171.91"/></g><path class="cls-8" d="M163,138.14a3.12,3.12,0,0,1-1.51-.46L151,131.61l.16-.27,10.51,6.06a2.08,2.08,0,0,0,2.1.23,2.11,2.11,0,0,0,.86-1.93v-2.54a2.1,2.1,0,0,1,3.43-2l2.19,1.27-.16.27-2.19-1.26a2.08,2.08,0,0,0-2.1-.23,2.11,2.11,0,0,0-.86,1.93v2.54a2.4,2.4,0,0,1-1,2.2A1.77,1.77,0,0,1,163,138.14Z" transform="translate(-23.58 -71.72)"/><path class="cls-8" d="M158.88,140.49a3.12,3.12,0,0,1-1.51-.46L146.86,134l.16-.27,10.51,6.07a1.8,1.8,0,0,0,3-1.71v-2.54a2.1,2.1,0,0,1,3.43-2l2.19,1.27-.15.28-2.2-1.27a1.79,1.79,0,0,0-3,1.7v2.54a2.39,2.39,0,0,1-1,2.2A1.77,1.77,0,0,1,158.88,140.49Z" transform="translate(-23.58 -71.72)"/><path class="cls-8" d="M154.79,142.84a3,3,0,0,1-1.5-.46l-10.51-6.07.15-.27,10.51,6.07a2.1,2.1,0,0,0,2.1.22,2.08,2.08,0,0,0,.86-1.93v-2.53a2.4,2.4,0,0,1,1-2.21,2.38,2.38,0,0,1,2.42.23l2.2,1.26-.16.28-2.2-1.27a1.79,1.79,0,0,0-2.95,1.71v2.53a2.39,2.39,0,0,1-1,2.21A1.86,1.86,0,0,1,154.79,142.84Z" transform="translate(-23.58 -71.72)"/><path class="cls-8" d="M150.7,145.19a3,3,0,0,1-1.5-.46l-10.51-6.07.15-.27,10.52,6.07a1.79,1.79,0,0,0,2.95-1.71v-2.53a2.39,2.39,0,0,1,1-2.21,2.36,2.36,0,0,1,2.41.23l2.2,1.26-.16.28-2.2-1.27a1.79,1.79,0,0,0-3,1.71v2.53a2.39,2.39,0,0,1-1,2.21A1.86,1.86,0,0,1,150.7,145.19Z" transform="translate(-23.58 -71.72)"/><path class="cls-8" d="M146.61,147.54a3,3,0,0,1-1.5-.46L134.6,141l.16-.28,10.51,6.07a1.79,1.79,0,0,0,2.95-1.71v-2.53a2.1,2.1,0,0,1,3.43-2l2.2,1.27-.16.27-2.19-1.27a2.1,2.1,0,0,0-2.1-.22,2.08,2.08,0,0,0-.86,1.93v2.53a2.4,2.4,0,0,1-1,2.21A1.8,1.8,0,0,1,146.61,147.54Z" transform="translate(-23.58 -71.72)"/><path class="cls-8" d="M142.53,149.9a3.12,3.12,0,0,1-1.51-.46l-10.51-6.07.16-.28,10.51,6.07a2.08,2.08,0,0,0,2.1.23,2.11,2.11,0,0,0,.85-1.93v-2.54a2.11,2.11,0,0,1,3.44-2l2.19,1.27-.16.27-2.19-1.27a1.8,1.8,0,0,0-3,1.71v2.54a2.4,2.4,0,0,1-1,2.2A1.77,1.77,0,0,1,142.53,149.9Z" transform="translate(-23.58 -71.72)"/><path class="cls-8" d="M138.44,152.25a3.12,3.12,0,0,1-1.51-.46l-10.51-6.07.16-.27,10.51,6.06a2.08,2.08,0,0,0,2.1.23,2.11,2.11,0,0,0,.86-1.93v-2.54a2.1,2.1,0,0,1,3.43-2l2.19,1.27-.16.27-2.19-1.26a2.08,2.08,0,0,0-2.1-.23,2.11,2.11,0,0,0-.86,1.93v2.54a2.4,2.4,0,0,1-1,2.2A1.77,1.77,0,0,1,138.44,152.25Z" transform="translate(-23.58 -71.72)"/><path class="cls-8" d="M134.35,154.6a3.12,3.12,0,0,1-1.51-.46l-10.51-6.07.16-.27L133,153.87a1.8,1.8,0,0,0,3-1.71v-2.54a2.1,2.1,0,0,1,3.43-2l2.19,1.27-.15.28-2.2-1.27a2.08,2.08,0,0,0-2.1-.23,2.11,2.11,0,0,0-.85,1.93v2.54a2.39,2.39,0,0,1-1,2.2A1.77,1.77,0,0,1,134.35,154.6Z" transform="translate(-23.58 -71.72)"/><path class="cls-8" d="M130.26,157a3,3,0,0,1-1.5-.46l-10.51-6.07.15-.27,10.51,6.07a2.1,2.1,0,0,0,2.1.22,2.08,2.08,0,0,0,.86-1.93V152a2.1,2.1,0,0,1,3.43-2l2.2,1.26-.16.28-2.2-1.27a1.79,1.79,0,0,0-2.95,1.71v2.53a2.4,2.4,0,0,1-1,2.21A1.86,1.86,0,0,1,130.26,157Z" transform="translate(-23.58 -71.72)"/><path class="cls-8" d="M126.17,159.3a3,3,0,0,1-1.5-.46l-10.51-6.07.16-.27,10.51,6.07a1.79,1.79,0,0,0,3-1.71v-2.53a2.1,2.1,0,0,1,3.43-2l2.2,1.27-.16.27-2.2-1.27a1.79,1.79,0,0,0-3,1.71v2.53a2.39,2.39,0,0,1-1,2.21A1.84,1.84,0,0,1,126.17,159.3Z" transform="translate(-23.58 -71.72)"/><path class="cls-8" d="M122.09,161.65a3,3,0,0,1-1.51-.46l-10.51-6.06.16-.28,10.51,6.07a1.79,1.79,0,0,0,3-1.71v-2.53a2.1,2.1,0,0,1,3.43-2l2.2,1.27-.16.27L127,155a1.8,1.8,0,0,0-3,1.71v2.53a2.4,2.4,0,0,1-1,2.21A1.79,1.79,0,0,1,122.09,161.65Z" transform="translate(-23.58 -71.72)"/><path class="cls-8" d="M118,164a3.1,3.1,0,0,1-1.51-.45L106,157.48l.16-.28,10.51,6.07a1.79,1.79,0,0,0,3-1.7V159a2.1,2.1,0,0,1,3.43-2l2.19,1.27-.16.27-2.19-1.27a1.8,1.8,0,0,0-3,1.71v2.54a2.4,2.4,0,0,1-1,2.2A1.76,1.76,0,0,1,118,164Z" transform="translate(-23.58 -71.72)"/><path class="cls-8" d="M113.91,166.36a3.12,3.12,0,0,1-1.51-.46l-10.51-6.07.16-.27,10.51,6.06a2.08,2.08,0,0,0,2.1.23,2.11,2.11,0,0,0,.86-1.93v-2.54a2.1,2.1,0,0,1,3.43-2l2.19,1.27-.15.27-2.2-1.26a2.08,2.08,0,0,0-2.1-.23,2.11,2.11,0,0,0-.86,1.93v2.54a2.4,2.4,0,0,1-1,2.2A1.77,1.77,0,0,1,113.91,166.36Z" transform="translate(-23.58 -71.72)"/><path class="cls-8" d="M109.82,168.71a3.08,3.08,0,0,1-1.5-.46l-10.51-6.07.15-.27L108.47,168a2.1,2.1,0,0,0,2.1.22,2.08,2.08,0,0,0,.86-1.93v-2.54a2.1,2.1,0,0,1,3.43-2l2.2,1.27-.16.28L114.7,162a1.79,1.79,0,0,0-3,1.7v2.54a2.37,2.37,0,0,1-1,2.2A1.77,1.77,0,0,1,109.82,168.71Z" transform="translate(-23.58 -71.72)"/><path class="cls-8" d="M105.73,171.06a3,3,0,0,1-1.5-.46l-10.51-6.07.16-.27,10.51,6.07a1.79,1.79,0,0,0,3-1.71v-2.53a2.39,2.39,0,0,1,1-2.21,2.36,2.36,0,0,1,2.41.23l2.2,1.26-.16.28-2.2-1.27a1.79,1.79,0,0,0-3,1.71v2.53a2.4,2.4,0,0,1-1,2.21A1.86,1.86,0,0,1,105.73,171.06Z" transform="translate(-23.58 -71.72)"/><path class="cls-8" d="M101.65,173.41a3,3,0,0,1-1.51-.46l-10.51-6.07.16-.27,10.51,6.07a1.79,1.79,0,0,0,3-1.71v-2.53a2.39,2.39,0,0,1,1-2.21,2.36,2.36,0,0,1,2.41.23l2.2,1.27-.16.27-2.19-1.27a2.1,2.1,0,0,0-2.1-.22,2.08,2.08,0,0,0-.86,1.93V171a2.4,2.4,0,0,1-1,2.21A1.89,1.89,0,0,1,101.65,173.41Z" transform="translate(-23.58 -71.72)"/><path class="cls-8" d="M97.56,175.76a3,3,0,0,1-1.51-.46l-10.51-6.06.16-.28L96.21,175a1.8,1.8,0,0,0,3-1.71v-2.53a2.1,2.1,0,0,1,3.43-2l2.19,1.27-.16.27-2.19-1.27a1.8,1.8,0,0,0-3,1.71v2.53a2.4,2.4,0,0,1-1,2.21A1.76,1.76,0,0,1,97.56,175.76Z" transform="translate(-23.58 -71.72)"/><path class="cls-8" d="M93.47,178.12a3.12,3.12,0,0,1-1.51-.46l-10.51-6.07.16-.28,10.51,6.07a2.08,2.08,0,0,0,2.1.23,2.11,2.11,0,0,0,.86-1.93v-2.54a2.1,2.1,0,0,1,3.43-2l2.19,1.27-.15.27-2.2-1.27a1.8,1.8,0,0,0-3,1.71v2.54a2.4,2.4,0,0,1-1,2.2A1.77,1.77,0,0,1,93.47,178.12Z" transform="translate(-23.58 -71.72)"/><path class="cls-8" d="M89.38,180.47a3.08,3.08,0,0,1-1.5-.46l-10.52-6.07.16-.27L88,179.73a1.79,1.79,0,0,0,3-1.7v-2.54a2.1,2.1,0,0,1,3.43-2l2.19,1.27-.15.27-2.2-1.26a2.13,2.13,0,0,0-2.1-.23,2.11,2.11,0,0,0-.85,1.93V178a2.38,2.38,0,0,1-1,2.2A1.77,1.77,0,0,1,89.38,180.47Z" transform="translate(-23.58 -71.72)"/><path class="cls-8" d="M85.29,182.82a3.11,3.11,0,0,1-1.5-.46l-10.51-6.07.15-.27L84,182.09a1.79,1.79,0,0,0,3-1.71v-2.54a2.1,2.1,0,0,1,3.43-2l2.2,1.27-.16.28-2.2-1.27a2.13,2.13,0,0,0-2.1-.23,2.11,2.11,0,0,0-.85,1.93v2.54a2.37,2.37,0,0,1-1,2.2A1.77,1.77,0,0,1,85.29,182.82Z" transform="translate(-23.58 -71.72)"/><path class="cls-8" d="M179.72,138.33a1.77,1.77,0,0,1-.91-.24,2.37,2.37,0,0,1-1-2.2v-2.54a2.11,2.11,0,0,0-.85-1.93,2.13,2.13,0,0,0-2.1.23l-2.2,1.26-.15-.27,2.19-1.27a2.1,2.1,0,0,1,3.43,2v2.54a2.08,2.08,0,0,0,.86,1.93,2.1,2.1,0,0,0,2.1-.22l10.51-6.07.16.27-10.52,6.07A3.08,3.08,0,0,1,179.72,138.33Z" transform="translate(-23.58 -71.72)"/><path class="cls-8" d="M183.81,140.68a1.86,1.86,0,0,1-.91-.23,2.39,2.39,0,0,1-1-2.21v-2.53a1.79,1.79,0,0,0-2.95-1.71l-2.2,1.27-.16-.28,2.2-1.26a2.36,2.36,0,0,1,2.41-.23,2.39,2.39,0,0,1,1,2.21v2.53a1.79,1.79,0,0,0,3,1.71l10.52-6.07.15.27-10.51,6.07A3,3,0,0,1,183.81,140.68Z" transform="translate(-23.58 -71.72)"/><path class="cls-8" d="M187.9,143a1.9,1.9,0,0,1-.92-.23,2.4,2.4,0,0,1-1-2.21v-2.53a2.08,2.08,0,0,0-.86-1.93,2.1,2.1,0,0,0-2.1.22l-2.19,1.27-.16-.27,2.2-1.27a2.1,2.1,0,0,1,3.43,2v2.53a1.79,1.79,0,0,0,3,1.71l10.51-6.07.16.27-10.51,6.07A3,3,0,0,1,187.9,143Z" transform="translate(-23.58 -71.72)"/><path class="cls-8" d="M192,145.38a1.79,1.79,0,0,1-.91-.23,2.4,2.4,0,0,1-1-2.21v-2.53a1.8,1.8,0,0,0-3-1.71L184.91,140l-.16-.27,2.19-1.27a2.1,2.1,0,0,1,3.44,2v2.53a1.79,1.79,0,0,0,3,1.71l10.51-6.07.16.28-10.51,6.06A3,3,0,0,1,192,145.38Z" transform="translate(-23.58 -71.72)"/><path class="cls-8" d="M196.07,147.74a1.77,1.77,0,0,1-.91-.24,2.4,2.4,0,0,1-1-2.2v-2.54a1.8,1.8,0,0,0-3-1.71L189,142.32l-.16-.27,2.19-1.27a2.1,2.1,0,0,1,3.43,2v2.54a1.79,1.79,0,0,0,3,1.7l10.51-6.07.16.28-10.51,6.07A3.12,3.12,0,0,1,196.07,147.74Z" transform="translate(-23.58 -71.72)"/><path class="cls-8" d="M200.16,150.09a1.77,1.77,0,0,1-.91-.24,2.38,2.38,0,0,1-1-2.2v-2.54a1.79,1.79,0,0,0-3-1.7l-2.2,1.26-.15-.27,2.19-1.27a2.1,2.1,0,0,1,3.43,2v2.54a2.11,2.11,0,0,0,.86,1.93,2.08,2.08,0,0,0,2.1-.23L212,143.29l.16.27-10.51,6.07A3.15,3.15,0,0,1,200.16,150.09Z" transform="translate(-23.58 -71.72)"/><path class="cls-8" d="M204.25,152.44a1.77,1.77,0,0,1-.91-.24,2.37,2.37,0,0,1-1-2.2v-2.54a2.08,2.08,0,0,0-.85-1.92,2.1,2.1,0,0,0-2.1.22l-2.2,1.27-.16-.28,2.2-1.27a2.1,2.1,0,0,1,3.43,2V150a2.08,2.08,0,0,0,.86,1.93,2.1,2.1,0,0,0,2.1-.22l10.51-6.07.15.27L205.75,152A3,3,0,0,1,204.25,152.44Z" transform="translate(-23.58 -71.72)"/><path class="cls-8" d="M208.34,154.79a1.84,1.84,0,0,1-.91-.23,2.39,2.39,0,0,1-1-2.21v-2.53a1.79,1.79,0,0,0-2.95-1.71l-2.2,1.27-.16-.28,2.2-1.26a2.36,2.36,0,0,1,2.41-.23,2.39,2.39,0,0,1,1,2.21v2.53a1.79,1.79,0,0,0,3,1.71L220.19,148l.16.27-10.51,6.07A3,3,0,0,1,208.34,154.79Z" transform="translate(-23.58 -71.72)"/><path class="cls-8" d="M212.42,157.14a1.89,1.89,0,0,1-.91-.23,2.4,2.4,0,0,1-1-2.21v-2.53a1.8,1.8,0,0,0-3-1.71l-2.19,1.27-.16-.27,2.2-1.27a2.1,2.1,0,0,1,3.43,2v2.53a1.79,1.79,0,0,0,3,1.71l10.51-6.07.16.28-10.51,6.06A3,3,0,0,1,212.42,157.14Z" transform="translate(-23.58 -71.72)"/><path class="cls-8" d="M216.51,159.49a1.76,1.76,0,0,1-.91-.23,2.4,2.4,0,0,1-1-2.21v-2.53a1.8,1.8,0,0,0-3-1.71l-2.19,1.27-.16-.27,2.19-1.27a2.1,2.1,0,0,1,3.43,2v2.53a1.8,1.8,0,0,0,3,1.71l10.51-6.07.16.28L218,159A3.1,3.1,0,0,1,216.51,159.49Z" transform="translate(-23.58 -71.72)"/><path class="cls-8" d="M220.6,161.85a1.77,1.77,0,0,1-.91-.24,2.4,2.4,0,0,1-1-2.2v-2.54a1.8,1.8,0,0,0-3-1.71l-2.2,1.27-.15-.27,2.19-1.27a2.1,2.1,0,0,1,3.43,2v2.54a2.11,2.11,0,0,0,.86,1.93,2.08,2.08,0,0,0,2.1-.23L232.46,155l.16.28-10.51,6.07A3.12,3.12,0,0,1,220.6,161.85Z" transform="translate(-23.58 -71.72)"/><path class="cls-8" d="M224.69,164.2a1.77,1.77,0,0,1-.91-.24,2.38,2.38,0,0,1-1-2.2v-2.54a1.79,1.79,0,0,0-2.95-1.7l-2.2,1.26-.16-.27,2.2-1.27a2.1,2.1,0,0,1,3.43,2v2.54a1.79,1.79,0,0,0,3,1.7l10.51-6.06.15.27-10.51,6.07A3.08,3.08,0,0,1,224.69,164.2Z" transform="translate(-23.58 -71.72)"/><path class="cls-8" d="M228.78,166.55a1.77,1.77,0,0,1-.91-.24,2.37,2.37,0,0,1-1-2.2v-2.53a1.79,1.79,0,0,0-2.95-1.71l-2.2,1.27-.16-.28,2.2-1.27a2.1,2.1,0,0,1,3.43,2v2.53a1.79,1.79,0,0,0,3,1.71l10.51-6.07.16.27-10.51,6.07A3,3,0,0,1,228.78,166.55Z" transform="translate(-23.58 -71.72)"/><path class="cls-8" d="M232.86,168.9a1.89,1.89,0,0,1-.91-.23,2.4,2.4,0,0,1-1-2.21v-2.53a2.08,2.08,0,0,0-.86-1.93,2.1,2.1,0,0,0-2.1.22l-2.19,1.27-.16-.28,2.2-1.26a2.1,2.1,0,0,1,3.43,2v2.53a1.79,1.79,0,0,0,3,1.71l10.51-6.07.16.27-10.51,6.07A3,3,0,0,1,232.86,168.9Z" transform="translate(-23.58 -71.72)"/><path class="cls-8" d="M237,171.25A1.86,1.86,0,0,1,236,171a2.4,2.4,0,0,1-1-2.21v-2.53a1.8,1.8,0,0,0-3-1.71l-2.19,1.27-.16-.27,2.19-1.27a2.1,2.1,0,0,1,3.43,2v2.53a1.8,1.8,0,0,0,3,1.71l10.51-6.07.16.27-10.51,6.07A3,3,0,0,1,237,171.25Z" transform="translate(-23.58 -71.72)"/><path class="cls-8" d="M241,173.6a1.76,1.76,0,0,1-.91-.23,2.4,2.4,0,0,1-1-2.21v-2.53a1.8,1.8,0,0,0-3-1.71L234,168.19l-.16-.27,2.19-1.27a2.1,2.1,0,0,1,3.43,2v2.53a1.8,1.8,0,0,0,3,1.71l10.51-6.07.16.28-10.51,6.07A3.1,3.1,0,0,1,241,173.6Z" transform="translate(-23.58 -71.72)"/><path class="cls-8" d="M245.13,176a1.77,1.77,0,0,1-.91-.24,2.38,2.38,0,0,1-1-2.2V171a2.11,2.11,0,0,0-.85-1.93,2.08,2.08,0,0,0-2.1.23l-2.2,1.26-.15-.27,2.19-1.27a2.1,2.1,0,0,1,3.43,2v2.54a1.79,1.79,0,0,0,3,1.7L257,169.16l.16.27-10.52,6.07A3.08,3.08,0,0,1,245.13,176Z" transform="translate(-23.58 -71.72)"/><path class="cls-8" d="M249.22,178.31a1.77,1.77,0,0,1-.91-.24,2.38,2.38,0,0,1-1-2.2v-2.54a2.11,2.11,0,0,0-.85-1.93,2.08,2.08,0,0,0-2.1.23l-2.2,1.26-.16-.27,2.2-1.27a2.1,2.1,0,0,1,3.43,2v2.54a1.79,1.79,0,0,0,2.95,1.71l10.52-6.07.15.27-10.51,6.07A3.11,3.11,0,0,1,249.22,178.31Z" transform="translate(-23.58 -71.72)"/><path class="cls-8" d="M253.31,180.66a1.74,1.74,0,0,1-.91-.24,2.37,2.37,0,0,1-1-2.2v-2.53a1.79,1.79,0,0,0-3-1.71l-2.19,1.27-.16-.28,2.2-1.27a2.1,2.1,0,0,1,3.43,2v2.53a1.79,1.79,0,0,0,3,1.71l10.51-6.07.16.27-10.51,6.07A3,3,0,0,1,253.31,180.66Z" transform="translate(-23.58 -71.72)"/><path class="cls-8" d="M257.39,183a1.89,1.89,0,0,1-.91-.23,2.4,2.4,0,0,1-1-2.21V178a1.8,1.8,0,0,0-3-1.71l-2.19,1.27-.16-.28,2.19-1.26a2.1,2.1,0,0,1,3.44,2v2.53a1.79,1.79,0,0,0,3,1.71l10.51-6.07.16.27-10.51,6.07A3,3,0,0,1,257.39,183Z" transform="translate(-23.58 -71.72)"/><polygon class="cls-11" points="228.57 106.65 228.57 115.98 147.8 162.61 67.03 115.98 67.03 106.65 228.57 106.65"/><polygon class="cls-10" points="147.8 153.28 67.03 106.65 147.8 60.02 228.57 106.65 147.8 153.28"/><polygon class="cls-5" points="147.8 152.19 67.98 106.1 67.03 106.65 147.8 153.28 228.57 106.65 227.62 106.1 147.8 152.19"/><polygon class="cls-12" points="147.8 142.52 85.68 106.66 147.8 70.79 209.92 106.66 147.8 142.52"/><polygon class="cls-13" points="147.8 142.53 85.68 106.66 147.8 70.79 209.92 106.66 147.8 142.53"/><polygon class="cls-14" points="147.8 61.75 209.92 97.62 209.92 106.66 147.8 70.79 147.8 61.75"/><polygon class="cls-15" points="147.8 70.79 85.68 106.66 85.68 97.61 147.8 61.75 147.8 70.79"/><polygon class="cls-16" points="147.8 133.48 85.68 97.61 147.8 61.75 209.92 97.62 147.8 133.48"/><polygon class="cls-17" points="147.8 111.95 122.98 97.61 147.8 83.28 172.62 97.61 147.8 111.95"/><polygon class="cls-17" points="147.8 84.6 171.48 98.28 172.62 97.61 147.8 83.28 122.98 97.61 124.12 98.27 147.8 84.6"/><polygon class="cls-18" points="147.8 133.48 147.8 142.53 209.92 106.66 209.92 97.62 147.8 133.48"/><polygon class="cls-19" points="85.68 97.61 85.68 106.66 147.8 142.53 147.8 133.48 85.68 97.61"/><polygon class="cls-20" points="147.8 132.5 86.53 97.12 85.68 97.61 147.8 133.48 209.92 97.62 209.07 97.12 147.8 132.5"/><path class="cls-8" d="M191.58,245.3l-10.51-6.07a7.23,7.23,0,0,1-3.28-5.67V231a6.88,6.88,0,0,0-3.11-5.39l-2.19-1.27.15-.28,2.2,1.27a7.26,7.26,0,0,1,3.27,5.67v2.53a6.91,6.91,0,0,0,3.11,5.4L191.74,245Z" transform="translate(-23.58 -71.72)"/><path class="cls-8" d="M195.67,242.94l-10.52-6.06a7.27,7.27,0,0,1-3.27-5.67v-2.54a6.88,6.88,0,0,0-3.11-5.39l-2.2-1.27.16-.27,2.2,1.27a7.24,7.24,0,0,1,3.27,5.66v2.54a6.9,6.9,0,0,0,3.11,5.39l10.51,6.07Z" transform="translate(-23.58 -71.72)"/><path class="cls-8" d="M199.75,240.59l-10.51-6.07a7.24,7.24,0,0,1-3.27-5.67v-2.53a6.94,6.94,0,0,0-3.11-5.4l-2.2-1.26.16-.28,2.19,1.27a7.24,7.24,0,0,1,3.28,5.67v2.53a6.91,6.91,0,0,0,3.11,5.4l10.51,6.07Z" transform="translate(-23.58 -71.72)"/><path class="cls-8" d="M203.84,238.23l-10.51-6.07a7.24,7.24,0,0,1-3.27-5.66V224a6.89,6.89,0,0,0-3.12-5.39l-2.19-1.27.16-.27,2.19,1.26a7.26,7.26,0,0,1,3.28,5.67v2.54a6.88,6.88,0,0,0,3.11,5.39L204,238Z" transform="translate(-23.58 -71.72)"/><path class="cls-8" d="M207.93,235.88l-10.51-6.07a7.23,7.23,0,0,1-3.27-5.67v-2.53a6.89,6.89,0,0,0-3.12-5.4L188.84,215l.16-.28,2.19,1.27a7.22,7.22,0,0,1,3.27,5.67v2.53a6.92,6.92,0,0,0,3.12,5.4l10.51,6.06Z" transform="translate(-23.58 -71.72)"/><path class="cls-8" d="M212,233.52l-10.51-6.07a7.21,7.21,0,0,1-3.27-5.66v-2.54a6.89,6.89,0,0,0-3.12-5.39l-2.19-1.27.15-.27,2.2,1.26a7.26,7.26,0,0,1,3.27,5.67v2.54a6.89,6.89,0,0,0,3.12,5.39l10.51,6.07Z" transform="translate(-23.58 -71.72)"/><path class="cls-8" d="M216.11,231.16,205.6,225.1a7.24,7.24,0,0,1-3.28-5.67v-2.54a6.88,6.88,0,0,0-3.11-5.39l-2.2-1.27.16-.27,2.2,1.27a7.24,7.24,0,0,1,3.27,5.66v2.54a6.9,6.9,0,0,0,3.11,5.39l10.51,6.07Z" transform="translate(-23.58 -71.72)"/><path class="cls-8" d="M220.19,228.81l-10.51-6.07a7.24,7.24,0,0,1-3.27-5.67v-2.53a6.9,6.9,0,0,0-3.11-5.39l-2.2-1.27.16-.28,2.2,1.27a7.24,7.24,0,0,1,3.27,5.67v2.53a6.88,6.88,0,0,0,3.11,5.4l10.51,6.07Z" transform="translate(-23.58 -71.72)"/><path class="cls-8" d="M224.28,226.45l-10.51-6.06a7.27,7.27,0,0,1-3.27-5.67v-2.54a6.9,6.9,0,0,0-3.11-5.39l-2.2-1.27.16-.27,2.19,1.27a7.22,7.22,0,0,1,3.28,5.66v2.54a6.88,6.88,0,0,0,3.11,5.39l10.51,6.07Z" transform="translate(-23.58 -71.72)"/><path class="cls-8" d="M228.37,224.1,217.86,218a7.24,7.24,0,0,1-3.27-5.67v-2.53a6.9,6.9,0,0,0-3.12-5.4l-2.19-1.26.16-.28,2.19,1.27a7.22,7.22,0,0,1,3.27,5.67v2.53a6.9,6.9,0,0,0,3.12,5.4l10.51,6.06Z" transform="translate(-23.58 -71.72)"/><path class="cls-8" d="M232.46,221.74,222,215.67a7.21,7.21,0,0,1-3.27-5.66v-2.54a6.89,6.89,0,0,0-3.12-5.39l-2.19-1.27.15-.27,2.2,1.26a7.27,7.27,0,0,1,3.27,5.67V210a6.89,6.89,0,0,0,3.12,5.39l10.51,6.07Z" transform="translate(-23.58 -71.72)"/><path class="cls-8" d="M236.55,219.39,226,213.32a7.24,7.24,0,0,1-3.28-5.67v-2.53a6.88,6.88,0,0,0-3.11-5.4l-2.2-1.27.16-.27,2.2,1.27a7.24,7.24,0,0,1,3.27,5.67v2.53a6.9,6.9,0,0,0,3.11,5.39l10.51,6.07Z" transform="translate(-23.58 -71.72)"/><path class="cls-8" d="M240.63,217,230.12,211a7.24,7.24,0,0,1-3.27-5.67v-2.53a6.9,6.9,0,0,0-3.11-5.39l-2.2-1.27.16-.27,2.2,1.26a7.26,7.26,0,0,1,3.27,5.67v2.53a6.91,6.91,0,0,0,3.11,5.4l10.51,6.07Z" transform="translate(-23.58 -71.72)"/><path class="cls-8" d="M244.72,214.67l-10.51-6.06a7.27,7.27,0,0,1-3.27-5.67V200.4a6.9,6.9,0,0,0-3.11-5.39l-2.2-1.27.16-.27,2.19,1.27a7.22,7.22,0,0,1,3.28,5.66v2.54a6.88,6.88,0,0,0,3.11,5.39l10.51,6.07Z" transform="translate(-23.58 -71.72)"/><path class="cls-8" d="M248.81,212.32l-10.51-6.07a7.24,7.24,0,0,1-3.27-5.67v-2.53a6.92,6.92,0,0,0-3.12-5.4l-2.19-1.26.16-.28,2.19,1.27a7.23,7.23,0,0,1,3.27,5.67v2.53a6.89,6.89,0,0,0,3.12,5.4L249,212Z" transform="translate(-23.58 -71.72)"/><path class="cls-8" d="M252.9,210l-10.51-6.07a7.21,7.21,0,0,1-3.27-5.66v-2.54A6.89,6.89,0,0,0,236,190.3L233.81,189l.16-.27,2.19,1.27a7.21,7.21,0,0,1,3.27,5.66v2.54a6.89,6.89,0,0,0,3.12,5.39l10.51,6.07Z" transform="translate(-23.58 -71.72)"/><path class="cls-8" d="M257,207.61l-10.51-6.07a7.24,7.24,0,0,1-3.28-5.67v-2.53a6.88,6.88,0,0,0-3.11-5.4l-2.19-1.26.15-.28,2.2,1.27a7.24,7.24,0,0,1,3.27,5.67v2.53a6.94,6.94,0,0,0,3.11,5.4l10.52,6.06Z" transform="translate(-23.58 -71.72)"/><path class="cls-8" d="M261.08,205.25l-10.52-6.07a7.24,7.24,0,0,1-3.27-5.66V191a6.88,6.88,0,0,0-3.11-5.39l-2.2-1.27.16-.27,2.2,1.26a7.27,7.27,0,0,1,3.27,5.67v2.54a6.9,6.9,0,0,0,3.11,5.39L261.23,205Z" transform="translate(-23.58 -71.72)"/><path class="cls-8" d="M265.16,202.9l-10.51-6.07a7.26,7.26,0,0,1-3.27-5.67v-2.54a6.9,6.9,0,0,0-3.11-5.39l-2.2-1.27.16-.27,2.19,1.27a7.22,7.22,0,0,1,3.28,5.66v2.54a6.88,6.88,0,0,0,3.11,5.39l10.51,6.07Z" transform="translate(-23.58 -71.72)"/><path class="cls-8" d="M269.25,200.54l-10.51-6.07a7.24,7.24,0,0,1-3.27-5.67v-2.53a6.89,6.89,0,0,0-3.12-5.39l-2.19-1.27.16-.28,2.19,1.27a7.24,7.24,0,0,1,3.28,5.67v2.53a6.88,6.88,0,0,0,3.11,5.4l10.51,6.07Z" transform="translate(-23.58 -71.72)"/><path class="cls-8" d="M150.89,245.3l-.16-.27L161.24,239a6.89,6.89,0,0,0,3.12-5.4V231a7.23,7.23,0,0,1,3.27-5.67l2.19-1.27.16.28-2.19,1.27a6.89,6.89,0,0,0-3.12,5.39v2.53a7.22,7.22,0,0,1-3.27,5.67Z" transform="translate(-23.58 -71.72)"/><path class="cls-8" d="M146.8,242.94l-.16-.27,10.51-6.07a6.89,6.89,0,0,0,3.12-5.39v-2.54a7.24,7.24,0,0,1,3.27-5.66l2.2-1.27.15.27-2.19,1.27a6.88,6.88,0,0,0-3.11,5.39v2.54a7.26,7.26,0,0,1-3.28,5.67Z" transform="translate(-23.58 -71.72)"/><path class="cls-8" d="M142.71,240.59l-.15-.27,10.51-6.07a6.94,6.94,0,0,0,3.11-5.4v-2.53a7.24,7.24,0,0,1,3.27-5.67l2.2-1.27.16.28-2.2,1.26a6.91,6.91,0,0,0-3.11,5.4v2.53a7.23,7.23,0,0,1-3.28,5.67Z" transform="translate(-23.58 -71.72)"/><path class="cls-8" d="M138.63,238.23l-.16-.27L149,231.89a6.88,6.88,0,0,0,3.11-5.39V224a7.27,7.27,0,0,1,3.27-5.67l2.2-1.26.16.27-2.2,1.27a6.9,6.9,0,0,0-3.11,5.39v2.54a7.24,7.24,0,0,1-3.27,5.66Z" transform="translate(-23.58 -71.72)"/><path class="cls-8" d="M134.54,235.88l-.16-.28,10.51-6.06a6.91,6.91,0,0,0,3.11-5.4v-2.53a7.23,7.23,0,0,1,3.28-5.67l2.19-1.27.16.28-2.2,1.26a6.91,6.91,0,0,0-3.11,5.4v2.53a7.26,7.26,0,0,1-3.27,5.67Z" transform="translate(-23.58 -71.72)"/><path class="cls-8" d="M130.45,233.52l-.16-.27,10.51-6.07a6.89,6.89,0,0,0,3.12-5.39v-2.54a7.23,7.23,0,0,1,3.27-5.67l2.19-1.26.16.27-2.19,1.27a6.89,6.89,0,0,0-3.12,5.39v2.54a7.24,7.24,0,0,1-3.27,5.66Z" transform="translate(-23.58 -71.72)"/><path class="cls-8" d="M126.36,231.16l-.16-.27,10.51-6.07a6.89,6.89,0,0,0,3.12-5.39v-2.54a7.24,7.24,0,0,1,3.27-5.66l2.2-1.27.15.27-2.19,1.27a6.89,6.89,0,0,0-3.12,5.39v2.54a7.23,7.23,0,0,1-3.27,5.67Z" transform="translate(-23.58 -71.72)"/><path class="cls-8" d="M122.27,228.81l-.15-.27,10.51-6.07a6.91,6.91,0,0,0,3.11-5.4v-2.53a7.24,7.24,0,0,1,3.27-5.67l2.2-1.27.16.28-2.2,1.27a6.88,6.88,0,0,0-3.11,5.39v2.53a7.23,7.23,0,0,1-3.28,5.67Z" transform="translate(-23.58 -71.72)"/><path class="cls-8" d="M101.22,236l-.07,0L56.44,210.3l.16-.27,44.63,25.62,16.8-9.47,10.51-6.07a6.88,6.88,0,0,0,3.11-5.39v-2.54a7.24,7.24,0,0,1,3.27-5.66l2.2-1.27.16.27-2.2,1.27a6.9,6.9,0,0,0-3.11,5.39v2.54a7.27,7.27,0,0,1-3.27,5.67l-10.51,6.06Z" transform="translate(-23.58 -71.72)"/><path class="cls-8" d="M114.1,224.1l-.16-.28,10.51-6.06a6.89,6.89,0,0,0,3.11-5.4v-2.53a7.23,7.23,0,0,1,3.28-5.67l2.19-1.27.16.28-2.2,1.26a6.92,6.92,0,0,0-3.11,5.4v2.53a7.24,7.24,0,0,1-3.27,5.67Z" transform="translate(-23.58 -71.72)"/><path class="cls-8" d="M110,221.74l-.16-.27,10.51-6.07a6.89,6.89,0,0,0,3.12-5.39v-2.54a7.25,7.25,0,0,1,3.27-5.67l2.19-1.26.16.27-2.19,1.27a6.89,6.89,0,0,0-3.12,5.39V210a7.24,7.24,0,0,1-3.27,5.66Z" transform="translate(-23.58 -71.72)"/><path class="cls-8" d="M105.92,219.39l-.16-.28L116.27,213a6.89,6.89,0,0,0,3.12-5.39v-2.53a7.24,7.24,0,0,1,3.27-5.67l2.2-1.27.15.27-2.19,1.27a6.89,6.89,0,0,0-3.12,5.4v2.53a7.23,7.23,0,0,1-3.27,5.67Z" transform="translate(-23.58 -71.72)"/><path class="cls-8" d="M101.83,217l-.16-.27,10.52-6.07a6.91,6.91,0,0,0,3.11-5.4v-2.53a7.26,7.26,0,0,1,3.27-5.67l2.2-1.26.15.27-2.19,1.27a6.88,6.88,0,0,0-3.11,5.39v2.53a7.23,7.23,0,0,1-3.28,5.67Z" transform="translate(-23.58 -71.72)"/><path class="cls-8" d="M97.74,214.67l-.15-.27,10.51-6.07a6.9,6.9,0,0,0,3.11-5.39V200.4a7.24,7.24,0,0,1,3.27-5.66l2.2-1.27.16.27-2.2,1.27a6.88,6.88,0,0,0-3.11,5.39v2.54a7.27,7.27,0,0,1-3.27,5.67Z" transform="translate(-23.58 -71.72)"/><path class="cls-8" d="M93.66,212.32,93.5,212,104,206a6.88,6.88,0,0,0,3.11-5.4v-2.53a7.24,7.24,0,0,1,3.28-5.67l2.19-1.27.16.28-2.2,1.26a6.94,6.94,0,0,0-3.11,5.4v2.53a7.24,7.24,0,0,1-3.27,5.67Z" transform="translate(-23.58 -71.72)"/><path class="cls-8" d="M89.57,210l-.16-.27,10.51-6.07a6.88,6.88,0,0,0,3.11-5.39v-2.54a7.22,7.22,0,0,1,3.28-5.66l2.19-1.27.16.27-2.19,1.27a6.89,6.89,0,0,0-3.12,5.39v2.54a7.24,7.24,0,0,1-3.27,5.66Z" transform="translate(-23.58 -71.72)"/><path class="cls-8" d="M85.48,207.61l-.16-.28,10.51-6.06a6.92,6.92,0,0,0,3.12-5.4v-2.53a7.22,7.22,0,0,1,3.27-5.67l2.19-1.27.16.28-2.19,1.26a6.89,6.89,0,0,0-3.12,5.4v2.53A7.23,7.23,0,0,1,96,201.54Z" transform="translate(-23.58 -71.72)"/><path class="cls-8" d="M81.39,205.25l-.16-.27,10.51-6.07a6.89,6.89,0,0,0,3.12-5.39V191a7.27,7.27,0,0,1,3.27-5.67l2.2-1.26.15.27-2.19,1.27A6.89,6.89,0,0,0,95.17,191v2.54a7.21,7.21,0,0,1-3.27,5.66Z" transform="translate(-23.58 -71.72)"/><path class="cls-8" d="M77.3,202.9l-.15-.28,10.51-6.07a6.9,6.9,0,0,0,3.11-5.39v-2.54A7.24,7.24,0,0,1,94,183l2.2-1.27.16.27-2.2,1.27a6.88,6.88,0,0,0-3.11,5.39v2.54a7.24,7.24,0,0,1-3.28,5.67Z" transform="translate(-23.58 -71.72)"/><path class="cls-8" d="M73.22,200.54l-.16-.27,10.51-6.07a6.88,6.88,0,0,0,3.11-5.4v-2.53A7.26,7.26,0,0,1,90,180.6l2.2-1.27.16.28-2.2,1.27A6.9,6.9,0,0,0,87,186.27v2.53a7.24,7.24,0,0,1-3.27,5.67Z" transform="translate(-23.58 -71.72)"/><g class="cls-3"><polygon class="cls-2" points="67.03 84.62 51.97 75.92 51.97 93.32 67.03 102.02 82.1 93.32 82.1 75.92 67.03 84.62"/><polygon class="cls-2" points="67.03 102.02 51.97 93.32 51.97 75.92 67.03 84.62 67.03 102.02"/><polygon class="cls-4" points="82.1 93.32 67.03 102.02 67.03 84.62 82.1 75.92 82.1 93.32"/><polygon class="cls-2" points="67.03 84.62 51.97 75.92 67.03 67.22 82.1 75.92 67.03 84.62"/><polygon class="cls-5" points="67.03 84.62 51.97 75.92 51.97 76.67 67.03 85.37 82.1 76.67 82.1 75.92 67.03 84.62"/></g><polygon class="cls-2" points="67.03 43.5 51.97 34.8 51.97 52.19 67.03 60.89 82.1 52.19 82.1 34.8 67.03 43.5"/><polygon class="cls-2" points="67.03 60.89 51.97 52.2 51.97 34.8 67.03 43.5 67.03 60.89"/><polygon class="cls-4" points="82.1 52.2 67.03 60.89 67.03 43.5 82.1 34.8 82.1 52.2"/><polygon class="cls-2" points="67.03 43.5 51.97 34.8 67.03 26.1 82.1 34.8 67.03 43.5"/><polygon class="cls-4" points="67.03 41.36 55.67 34.8 67.03 28.24 78.4 34.8 67.03 41.36"/><polygon class="cls-5" points="67.03 43.5 51.97 34.8 51.97 35.55 67.03 44.25 82.1 35.55 82.1 34.8 67.03 43.5"/><polygon class="cls-2" points="67.03 17.4 51.97 8.7 51.97 26.1 67.03 34.8 82.1 26.1 82.1 8.7 67.03 17.4"/><polygon class="cls-2" points="67.03 34.8 51.97 26.1 51.97 8.7 67.03 17.4 67.03 34.8"/><polygon class="cls-4" points="82.1 26.1 67.03 34.8 67.03 17.4 82.1 8.7 82.1 26.1"/><polygon class="cls-2" points="67.03 17.4 51.97 8.7 67.03 0 82.1 8.7 67.03 17.4"/><polygon class="cls-5" points="67.03 17.4 51.97 8.7 51.97 9.45 67.03 18.15 82.1 9.45 82.1 8.7 67.03 17.4"/><g class="cls-3"><polygon class="cls-2" points="265.36 94.63 250.29 85.93 250.29 103.33 265.36 112.03 280.43 103.33 280.43 85.93 265.36 94.63"/><polygon class="cls-2" points="265.36 112.03 250.29 103.33 250.29 85.93 265.36 94.63 265.36 112.03"/><polygon class="cls-4" points="280.43 103.33 265.36 112.03 265.36 94.63 280.43 85.93 280.43 103.33"/><polygon class="cls-2" points="265.36 94.63 250.29 85.93 265.36 77.23 280.43 85.93 265.36 94.63"/><polygon class="cls-5" points="265.36 94.63 250.29 85.93 250.29 86.69 265.36 95.39 280.43 86.69 280.43 85.93 265.36 94.63"/></g><path class="cls-8" d="M289.33,159.89l-.08,0L267.2,147.11l.23-.14,21.9-12.64.08,0,22.06,12.74-.24.14Zm-21.5-12.78,21.5,12.41,21.51-12.41-21.51-12.42Z" transform="translate(-23.58 -71.72)"/><polygon class="cls-2" points="265.36 53.51 250.29 44.81 250.29 62.21 265.36 70.91 280.43 62.21 280.43 44.81 265.36 53.51"/><polygon class="cls-2" points="265.36 70.91 250.29 62.21 250.29 44.81 265.36 53.51 265.36 70.91"/><polygon class="cls-4" points="280.43 62.21 265.36 70.91 265.36 53.51 280.43 44.81 280.43 62.21"/><polygon class="cls-2" points="265.36 53.51 250.29 44.81 265.36 36.11 280.43 44.81 265.36 53.51"/><polygon class="cls-5" points="265.36 53.51 250.29 44.81 250.29 45.57 265.36 54.27 280.43 45.57 280.43 44.81 265.36 53.51"/><path class="cls-8" d="M45.71,216.58l-.08,0L23.58,203.8l.23-.14L45.71,191l.08,0L67.85,203.8l-.24.14ZM24.21,203.8l21.5,12.42L67.22,203.8,45.71,191.39Z" transform="translate(-23.58 -71.72)"/><g class="cls-3"><polygon class="cls-2" points="22.14 151.6 7.07 142.9 7.07 160.3 22.14 169 37.2 160.3 37.2 142.9 22.14 151.6"/><polygon class="cls-2" points="22.14 169 7.07 160.3 7.07 142.9 22.14 151.6 22.14 169"/><polygon class="cls-4" points="37.2 160.3 22.14 169 22.14 151.6 37.2 142.9 37.2 160.3"/><polygon class="cls-2" points="22.14 151.6 7.07 142.9 22.14 134.2 37.2 142.9 22.14 151.6"/><polygon class="cls-5" points="22.14 151.6 7.07 142.9 7.07 143.65 22.14 152.35 37.2 143.65 37.2 142.9 22.14 151.6"/></g><polygon class="cls-2" points="22.14 110.48 7.07 101.78 7.07 119.17 22.14 127.87 37.2 119.17 37.2 101.78 22.14 110.48"/><polygon class="cls-2" points="22.14 127.87 7.07 119.17 7.07 101.78 22.14 110.48 22.14 127.87"/><polygon class="cls-4" points="37.2 119.17 22.14 127.87 22.14 110.48 37.2 101.78 37.2 119.17"/><polygon class="cls-2" points="22.14 110.48 7.07 101.78 22.14 93.08 37.2 101.78 22.14 110.48"/><polygon class="cls-5" points="22.14 110.48 7.07 101.78 7.07 102.53 22.14 111.23 37.2 102.53 37.2 101.78 22.14 110.48"/><g class="cls-3"><polygon class="cls-2" points="146.33 234.52 131.26 225.82 131.26 243.22 146.33 251.92 161.4 243.22 161.4 225.82 146.33 234.52"/><polygon class="cls-2" points="146.33 251.92 131.26 243.22 131.26 225.82 146.33 234.52 146.33 251.92"/><polygon class="cls-4" points="161.4 243.22 146.33 251.92 146.33 234.52 161.4 225.82 161.4 243.22"/><polygon class="cls-2" points="146.33 234.52 131.26 225.82 146.33 217.12 161.39 225.82 146.33 234.52"/><polygon class="cls-5" points="146.33 234.52 131.26 225.82 131.26 226.57 146.33 235.27 161.39 226.57 161.4 225.82 146.33 234.52"/></g><polygon class="cls-2" points="146.33 193.4 131.26 184.7 131.26 202.09 146.33 210.79 161.4 202.09 161.4 184.7 146.33 193.4"/><polygon class="cls-2" points="146.33 210.79 131.26 202.09 131.26 184.7 146.33 193.4 146.33 210.79"/><polygon class="cls-4" points="161.4 202.09 146.33 210.79 146.33 193.4 161.4 184.7 161.4 202.09"/><polygon class="cls-2" points="146.33 193.4 131.26 184.7 146.33 176 161.39 184.7 146.33 193.4"/><polygon class="cls-5" points="146.33 193.4 131.26 184.7 131.26 185.45 146.33 194.15 161.39 185.45 161.4 184.7 146.33 193.4"/><g class="cls-3"><polygon class="cls-2" points="270.23 193.78 283.26 205.3 286.72 188.25 273.69 176.73 257.19 182.25 253.73 199.31 270.23 193.78"/><polygon class="cls-2" points="273.69 176.73 286.72 188.25 283.26 205.3 270.23 193.78 273.69 176.73"/><polygon class="cls-4" points="257.19 182.25 273.69 176.73 270.23 193.78 253.73 199.31 257.19 182.25"/><polygon class="cls-2" points="270.23 193.78 283.26 205.3 266.76 210.83 253.73 199.31 270.23 193.78"/><polygon class="cls-5" points="270.23 193.78 283.26 205.3 283.41 204.56 270.38 193.04 253.88 198.57 253.73 199.31 270.23 193.78"/></g><path class="cls-21" d="M296.47,274c-9.93,0-19.86-2.18-27.42-6.55-7.36-4.24-11.41-9.9-11.41-15.92s4.05-11.68,11.41-15.93c15.12-8.72,39.72-8.73,54.84,0,7.36,4.25,11.41,9.91,11.41,15.93s-4.05,11.68-11.41,15.92C316.33,271.8,306.4,274,296.47,274Zm0-44.63c-9.88,0-19.75,2.17-27.26,6.51C262,240,258,245.6,258,251.51s4,11.46,11.25,15.65c15,8.68,39.49,8.68,54.53,0C331,263,335,257.41,335,251.51s-4-11.46-11.25-15.65C316.22,231.52,306.34,229.35,296.47,229.35Z" transform="translate(-23.58 -71.72)"/><path class="cls-22" d="M296.47,280c-12.6,0-25.2-2.77-34.8-8.31-9.32-5.38-14.46-12.55-14.46-20.18s5.14-14.8,14.46-20.18c19.19-11.08,50.41-11.08,69.6,0,9.32,5.38,14.46,12.55,14.46,20.18s-5.14,14.8-14.46,20.18l-.08-.14.08.14C321.67,277.23,309.07,280,296.47,280Zm0-56.67c-12.55,0-25.09,2.76-34.64,8.27-9.22,5.32-14.3,12.39-14.3,19.91s5.08,14.58,14.3,19.91c19.1,11,50.18,11,69.28,0h0c9.22-5.33,14.3-12.4,14.3-19.91s-5.08-14.58-14.3-19.91C321.56,226.09,309,223.33,296.47,223.33Z" transform="translate(-23.58 -71.72)"/><path class="cls-2" d="M296.47,269.24c-7.83,0-15.65-1.72-21.61-5.16s-9-7.82-9-12.57,3.19-9.22,9-12.57c11.91-6.88,31.3-6.88,43.22,0,5.81,3.35,9,7.81,9,12.57s-3.19,9.22-9,12.57S304.3,269.24,296.47,269.24Zm0-35.15c-7.77,0-15.54,1.71-21.46,5.12-5.7,3.29-8.84,7.66-8.84,12.3s3.14,9,8.85,12.29c11.83,6.83,31.08,6.83,42.91,0l.07.14-.07-.14c5.7-3.29,8.84-7.65,8.84-12.29s-3.14-9-8.85-12.3C312,235.8,304.24,234.09,296.47,234.09Z" transform="translate(-23.58 -71.72)"/><polygon class="cls-2" points="271.16 163.15 269.43 145.83 255.3 155.98 257.03 173.3 272.88 180.46 287.01 170.31 271.16 163.15"/><polygon class="cls-2" points="257.03 173.3 255.3 155.98 269.43 145.83 271.16 163.15 257.03 173.3"/><polygon class="cls-4" points="272.88 180.46 257.03 173.3 271.16 163.15 287.01 170.31 272.88 180.46"/><polygon class="cls-2" points="271.16 163.15 269.43 145.83 285.29 153 287.01 170.31 271.16 163.15"/><polygon class="cls-5" points="271.16 163.15 269.43 145.83 268.82 146.27 270.55 163.59 286.4 170.75 287.01 170.31 271.16 163.15"/><polygon class="cls-2" points="147.8 66.07 132.73 57.37 132.73 74.77 147.8 83.47 162.87 74.77 162.87 57.37 147.8 66.07"/><polygon class="cls-2" points="147.8 83.47 132.73 74.77 132.73 57.37 147.8 66.07 147.8 83.47"/><polygon class="cls-4" points="162.87 74.77 147.8 83.47 147.8 66.07 162.87 57.37 162.87 74.77"/><polygon class="cls-2" points="147.8 66.07 132.73 57.37 147.8 48.67 162.87 57.37 147.8 66.07"/><polygon class="cls-5" points="147.8 66.07 133.39 57.75 132.73 58.13 147.8 66.83 162.87 58.13 162.22 57.75 147.8 66.07"/><polygon class="cls-2" points="167.37 77.24 152.31 68.54 152.31 85.94 167.37 94.64 182.44 85.94 182.44 68.54 167.37 77.24"/><polygon class="cls-2" points="167.37 94.64 152.31 85.94 152.31 68.54 167.37 77.24 167.37 94.64"/><polygon class="cls-4" points="182.44 85.94 167.37 94.64 167.37 77.24 182.44 68.54 182.44 85.94"/><polygon class="cls-2" points="167.37 77.24 152.31 68.54 167.37 59.84 182.44 68.54 167.37 77.24"/><polygon class="cls-5" points="167.37 77.24 152.96 68.92 152.31 69.29 167.37 77.99 182.44 69.3 181.79 68.92 167.37 77.24"/><polygon class="cls-2" points="186.94 88.41 171.88 79.71 171.88 97.11 186.94 105.8 202.01 97.11 202.01 79.71 186.94 88.41"/><polygon class="cls-2" points="186.94 105.8 171.88 97.11 171.88 79.71 186.94 88.41 186.94 105.8"/><polygon class="cls-4" points="202.01 97.11 186.94 105.8 186.94 88.41 202.01 79.71 202.01 97.11"/><polygon class="cls-2" points="186.94 88.41 171.88 79.71 186.94 71.01 202.01 79.71 186.94 88.41"/><polygon class="cls-5" points="186.94 88.41 172.53 80.08 171.88 80.46 186.94 89.16 202.01 80.46 202.01 79.71 186.94 88.41"/><polygon class="cls-2" points="128.23 77.99 113.16 69.29 113.16 86.69 128.23 95.39 143.3 86.69 143.3 69.29 128.23 77.99"/><polygon class="cls-2" points="128.23 95.39 113.16 86.69 113.16 69.29 128.23 77.99 128.23 95.39"/><polygon class="cls-4" points="143.3 86.69 128.23 95.39 128.23 77.99 143.3 69.29 143.3 86.69"/><polygon class="cls-2" points="128.23 77.99 113.16 69.29 128.23 60.59 143.3 69.3 128.23 77.99"/><polygon class="cls-5" points="128.23 77.99 113.81 69.67 113.16 70.05 128.23 78.75 143.3 70.05 142.64 69.67 128.23 77.99"/><polygon class="cls-2" points="147.8 89.16 132.73 80.46 132.73 97.86 147.8 106.56 162.87 97.86 162.87 80.46 147.8 89.16"/><polygon class="cls-2" points="147.8 106.56 132.73 97.86 132.73 80.46 147.8 89.16 147.8 106.56"/><polygon class="cls-4" points="162.87 97.86 147.8 106.56 147.8 89.16 162.87 80.46 162.87 97.86"/><polygon class="cls-2" points="147.8 89.16 132.73 80.46 147.8 71.76 162.87 80.46 147.8 89.16"/><polygon class="cls-5" points="147.8 89.16 133.39 80.84 132.73 81.22 147.8 89.92 162.87 81.22 162.22 80.84 147.8 89.16"/><polygon class="cls-2" points="167.37 100.33 152.31 91.63 152.31 109.03 167.37 117.73 182.44 109.03 182.44 91.63 167.37 100.33"/><polygon class="cls-2" points="167.37 117.73 152.31 109.03 152.31 91.63 167.37 100.33 167.37 117.73"/><polygon class="cls-4" points="182.44 109.03 167.37 117.73 167.37 100.33 182.44 91.63 182.44 109.03"/><polygon class="cls-2" points="167.37 100.33 152.31 91.63 167.37 82.93 182.44 91.63 167.37 100.33"/><polygon class="cls-5" points="167.37 100.33 152.96 92.01 152.31 92.38 167.37 101.08 182.44 92.38 182.44 91.63 167.37 100.33"/><polygon class="cls-2" points="108.66 89.92 93.59 81.22 93.59 98.61 108.66 107.31 123.72 98.61 123.72 81.22 108.66 89.92"/><polygon class="cls-2" points="108.66 107.31 93.59 98.61 93.59 81.22 108.66 89.92 108.66 107.31"/><polygon class="cls-4" points="123.72 98.61 108.66 107.31 108.66 89.92 123.72 81.22 123.72 98.61"/><polygon class="cls-2" points="108.66 89.92 93.59 81.22 108.66 72.52 123.72 81.22 108.66 89.92"/><polygon class="cls-5" points="108.66 89.92 93.59 81.22 93.59 81.97 108.66 90.67 123.72 81.97 123.07 81.59 108.66 89.92"/><polygon class="cls-2" points="128.23 101.08 113.16 92.38 113.16 109.78 128.23 118.48 143.3 109.78 143.3 92.38 128.23 101.08"/><polygon class="cls-2" points="128.23 118.48 113.16 109.78 113.16 92.38 128.23 101.08 128.23 118.48"/><polygon class="cls-4" points="143.3 109.78 128.23 118.48 128.23 101.08 143.3 92.38 143.3 109.78"/><polygon class="cls-2" points="128.23 101.08 113.16 92.38 128.23 83.69 143.3 92.38 128.23 101.08"/><polygon class="cls-5" points="128.23 101.08 113.16 92.38 113.16 93.14 128.23 101.84 143.3 93.14 142.64 92.76 128.23 101.08"/><polygon class="cls-2" points="147.8 112.25 132.73 103.55 132.73 120.95 147.8 129.65 162.87 120.95 162.87 103.55 147.8 112.25"/><polygon class="cls-2" points="147.8 129.65 132.73 120.95 132.73 103.55 147.8 112.25 147.8 129.65"/><polygon class="cls-4" points="162.87 120.95 147.8 129.65 147.8 112.25 162.87 103.55 162.87 120.95"/><polygon class="cls-2" points="147.8 112.25 132.73 103.55 147.8 94.85 162.87 103.55 147.8 112.25"/><polygon class="cls-5" points="147.8 112.25 132.73 103.55 132.73 104.31 147.8 113 162.87 104.31 162.87 103.55 147.8 112.25"/><polygon class="cls-2" points="147.8 42.98 132.73 34.28 132.73 51.68 147.8 60.38 162.87 51.68 162.87 34.28 147.8 42.98"/><polygon class="cls-2" points="147.8 60.38 132.73 51.68 132.73 34.28 147.8 42.98 147.8 60.38"/><polygon class="cls-4" points="162.87 51.68 147.8 60.38 147.8 42.98 162.87 34.28 162.87 51.68"/><polygon class="cls-2" points="147.8 42.98 132.73 34.28 147.8 25.58 162.87 34.28 147.8 42.98"/><polygon class="cls-5" points="147.8 42.98 133.39 34.66 132.73 35.04 147.8 43.74 162.87 35.04 162.22 34.66 147.8 42.98"/><polygon class="cls-6" points="147.8 109.42 137.52 103.48 147.8 97.55 158.08 103.48 147.8 109.42"/><polygon class="cls-6" points="128.23 98.25 117.95 92.31 128.23 86.38 138.51 92.31 128.23 98.25"/><polygon class="cls-6" points="167.37 97.5 157.09 91.56 167.37 85.63 177.65 91.56 167.37 97.5"/><polygon class="cls-6" points="186.98 85.71 176.7 79.78 186.98 73.84 197.26 79.78 186.98 85.71"/><polygon class="cls-6" points="108.66 87.08 98.38 81.15 108.66 75.21 118.94 81.15 108.66 87.08"/><polygon class="cls-2" points="167.37 54.15 152.31 45.45 152.31 62.85 167.37 71.55 182.44 62.85 182.44 45.45 167.37 54.15"/><polygon class="cls-2" points="167.37 71.55 152.31 62.85 152.31 45.45 167.37 54.15 167.37 71.55"/><polygon class="cls-4" points="182.44 62.85 167.37 71.55 167.37 54.15 182.44 45.45 182.44 62.85"/><polygon class="cls-2" points="167.37 54.15 152.31 45.45 167.37 36.75 182.44 45.45 167.37 54.15"/><polygon class="cls-5" points="167.37 54.15 152.96 45.83 152.31 46.2 167.37 54.91 182.44 46.21 181.79 45.83 167.37 54.15"/><polygon class="cls-2" points="186.94 65.32 171.88 56.62 171.88 74.02 186.94 82.72 202.01 74.02 202.01 56.62 186.94 65.32"/><polygon class="cls-2" points="186.94 82.72 171.88 74.02 171.88 56.62 186.94 65.32 186.94 82.72"/><polygon class="cls-4" points="202.01 74.02 186.94 82.72 186.94 65.32 202.01 56.62 202.01 74.02"/><polygon class="cls-2" points="186.94 65.32 171.88 56.62 186.94 47.92 202.01 56.62 186.94 65.32"/><polygon class="cls-5" points="186.94 65.32 172.53 56.99 171.88 57.37 186.94 66.07 202.01 57.37 202.01 56.62 186.94 65.32"/><polygon class="cls-2" points="128.23 54.91 113.16 46.21 113.16 63.6 128.23 72.3 143.3 63.6 143.3 46.21 128.23 54.91"/><polygon class="cls-2" points="128.23 72.3 113.16 63.6 113.16 46.21 128.23 54.91 128.23 72.3"/><polygon class="cls-4" points="143.3 63.6 128.23 72.3 128.23 54.91 143.3 46.21 143.3 63.6"/><polygon class="cls-2" points="128.23 54.91 113.16 46.21 128.23 37.51 143.3 46.21 128.23 54.91"/><polygon class="cls-5" points="128.23 54.91 113.81 46.58 113.16 46.96 128.23 55.66 143.3 46.96 142.64 46.58 128.23 54.91"/><polygon class="cls-2" points="147.8 66.07 132.73 57.37 132.73 74.77 147.8 83.47 162.87 74.77 162.87 57.37 147.8 66.07"/><polygon class="cls-2" points="147.8 83.47 132.73 74.77 132.73 57.37 147.8 66.07 147.8 83.47"/><polygon class="cls-4" points="162.87 74.77 147.8 83.47 147.8 66.07 162.87 57.37 162.87 74.77"/><polygon class="cls-2" points="147.8 66.07 132.73 57.37 147.8 48.67 162.87 57.37 147.8 66.07"/><polygon class="cls-5" points="147.8 66.07 133.39 57.75 132.73 58.13 147.8 66.83 162.87 58.13 162.22 57.75 147.8 66.07"/><polygon class="cls-2" points="167.37 77.24 152.31 68.54 152.31 85.94 167.37 94.64 182.44 85.94 182.44 68.54 167.37 77.24"/><polygon class="cls-2" points="167.37 94.64 152.31 85.94 152.31 68.54 167.37 77.24 167.37 94.64"/><polygon class="cls-4" points="182.44 85.94 167.37 94.64 167.37 77.24 182.44 68.54 182.44 85.94"/><polygon class="cls-2" points="167.37 77.24 152.31 68.54 167.37 59.84 182.44 68.54 167.37 77.24"/><polygon class="cls-5" points="167.37 77.24 152.96 68.92 152.31 69.29 167.37 77.99 182.44 69.3 182.44 68.54 167.37 77.24"/><polygon class="cls-2" points="108.66 66.83 93.59 58.13 93.59 75.53 108.66 84.22 123.72 75.53 123.72 58.13 108.66 66.83"/><polygon class="cls-2" points="108.66 84.22 93.59 75.53 93.59 58.13 108.66 66.83 108.66 84.22"/><polygon class="cls-4" points="123.72 75.53 108.66 84.22 108.66 66.83 123.72 58.13 123.72 75.53"/><polygon class="cls-2" points="108.66 66.83 93.59 58.13 108.66 49.43 123.72 58.13 108.66 66.83"/><polygon class="cls-5" points="108.66 66.83 94.24 58.51 93.59 58.88 108.66 67.58 123.72 58.88 123.07 58.51 108.66 66.83"/><polygon class="cls-2" points="128.23 77.99 113.16 69.3 113.16 86.69 128.23 95.39 143.3 86.69 143.3 69.3 128.23 77.99"/><polygon class="cls-2" points="128.23 95.39 113.16 86.69 113.16 69.3 128.23 77.99 128.23 95.39"/><polygon class="cls-4" points="143.3 86.69 128.23 95.39 128.23 77.99 143.3 69.3 143.3 86.69"/><polygon class="cls-2" points="128.23 77.99 113.16 69.3 128.23 60.6 143.3 69.3 128.23 77.99"/><polygon class="cls-5" points="128.23 77.99 113.16 69.29 113.16 70.05 128.23 78.75 143.3 70.05 142.64 69.67 128.23 77.99"/><polygon class="cls-2" points="147.8 89.16 132.73 80.46 132.73 97.86 147.8 106.56 162.87 97.86 162.87 80.46 147.8 89.16"/><polygon class="cls-2" points="147.8 106.56 132.73 97.86 132.73 80.46 147.8 89.16 147.8 106.56"/><polygon class="cls-4" points="162.87 97.86 147.8 106.56 147.8 89.16 162.87 80.46 162.87 97.86"/><polygon class="cls-2" points="147.8 89.16 132.73 80.46 147.8 71.76 162.87 80.46 147.8 89.16"/><polygon class="cls-5" points="147.8 89.16 132.73 80.46 132.73 81.22 147.8 89.92 162.87 81.22 162.87 80.46 147.8 89.16"/><polygon class="cls-6" points="186.98 62.72 176.7 56.79 186.98 50.85 197.26 56.79 186.98 62.72"/><polygon class="cls-6" points="108.66 64.09 98.38 58.16 108.66 52.23 118.94 58.16 108.66 64.09"/><polygon class="cls-2" points="147.8 19.89 132.73 11.19 132.73 28.59 147.8 37.29 162.87 28.59 162.87 11.19 147.8 19.89"/><polygon class="cls-2" points="147.8 37.29 132.73 28.59 132.73 11.2 147.8 19.89 147.8 37.29"/><polygon class="cls-4" points="162.87 28.59 147.8 37.29 147.8 19.89 162.87 11.2 162.87 28.59"/><polygon class="cls-2" points="147.8 19.89 132.73 11.2 147.8 2.5 162.87 11.2 147.8 19.89"/><polygon class="cls-5" points="147.8 19.89 132.73 11.19 132.73 11.95 147.8 20.65 162.87 11.95 162.87 11.19 147.8 19.89"/><polygon class="cls-2" points="167.37 31.06 152.31 22.36 152.31 39.76 167.37 48.46 182.44 39.76 182.44 22.36 167.37 31.06"/><polygon class="cls-2" points="167.37 48.46 152.31 39.76 152.31 22.36 167.37 31.06 167.37 48.46"/><polygon class="cls-4" points="182.44 39.76 167.37 48.46 167.37 31.06 182.44 22.36 182.44 39.76"/><polygon class="cls-2" points="167.37 31.06 152.31 22.36 167.37 13.66 182.44 22.36 167.37 31.06"/><polygon class="cls-5" points="167.37 31.06 152.31 22.36 152.31 23.12 167.37 31.82 182.44 23.12 182.44 22.36 167.37 31.06"/><polygon class="cls-2" points="186.94 42.23 171.88 33.53 171.88 50.93 186.94 59.63 202.01 50.93 202.01 33.53 186.94 42.23"/><polygon class="cls-2" points="186.94 59.63 171.88 50.93 171.88 33.53 186.94 42.23 186.94 59.63"/><polygon class="cls-4" points="202.01 50.93 186.94 59.63 186.94 42.23 202.01 33.53 202.01 50.93"/><polygon class="cls-2" points="186.94 42.23 171.88 33.53 186.94 24.83 202.01 33.53 186.94 42.23"/><polygon class="cls-5" points="186.94 42.23 171.88 33.53 171.88 34.28 186.94 42.98 202.01 34.28 202.01 33.53 186.94 42.23"/><polygon class="cls-2" points="128.23 31.82 113.16 23.12 113.16 40.52 128.23 49.21 143.3 40.52 143.3 23.12 128.23 31.82"/><polygon class="cls-2" points="128.23 49.21 113.16 40.52 113.16 23.12 128.23 31.82 128.23 49.21"/><polygon class="cls-4" points="143.3 40.52 128.23 49.21 128.23 31.82 143.3 23.12 143.3 40.52"/><polygon class="cls-2" points="128.23 31.82 113.16 23.12 128.23 14.42 143.3 23.12 128.23 31.82"/><polygon class="cls-5" points="128.23 31.82 113.16 23.12 113.16 23.87 128.23 32.57 143.3 23.87 143.3 23.12 128.23 31.82"/><polygon class="cls-2" points="108.66 43.74 93.59 35.04 93.59 52.44 108.66 61.14 123.72 52.44 123.72 35.04 108.66 43.74"/><polygon class="cls-2" points="108.66 61.14 93.59 52.44 93.59 35.04 108.66 43.74 108.66 61.14"/><polygon class="cls-4" points="123.72 52.44 108.66 61.14 108.66 43.74 123.72 35.04 123.72 52.44"/><polygon class="cls-2" points="108.66 43.74 93.59 35.04 108.66 26.34 123.72 35.04 108.66 43.74"/><polygon class="cls-5" points="108.66 43.74 93.59 35.04 93.59 35.79 108.66 44.49 123.72 35.79 123.72 35.04 108.66 43.74"/><path class="cls-21" d="M81.72,225.7a2,2,0,1,0,2-2A2,2,0,0,0,81.72,225.7Z" transform="translate(-23.58 -71.72)"/><circle class="cls-8" cx="60.18" cy="153.98" r="0.88"/><path class="cls-21" d="M261.59,133a2,2,0,1,0,2-2A2,2,0,0,0,261.59,133Z" transform="translate(-23.58 -71.72)"/><path class="cls-8" d="M262.74,133a.89.89,0,1,0,.89-.89A.89.89,0,0,0,262.74,133Z" transform="translate(-23.58 -71.72)"/><path class="cls-21" d="M320.83,260.32a2,2,0,1,0,2-2A2,2,0,0,0,320.83,260.32Z" transform="translate(-23.58 -71.72)"/><circle class="cls-8" cx="299.28" cy="188.59" r="0.88"/><circle class="cls-21" cx="260.53" cy="195.81" r="3.17"/><path class="cls-8" d="M282.73,267.53a1.38,1.38,0,1,0,1.38-1.37A1.38,1.38,0,0,0,282.73,267.53Z" transform="translate(-23.58 -71.72)"/><path class="cls-21" d="M271.4,239.85a2.15,2.15,0,1,0,2.15-2.16A2.15,2.15,0,0,0,271.4,239.85Z" transform="translate(-23.58 -71.72)"/><path class="cls-8" d="M272.61,239.85a.94.94,0,1,0,.94-.94A.94.94,0,0,0,272.61,239.85Z" transform="translate(-23.58 -71.72)"/><path class="cls-21" d="M239.94,121.26a2,2,0,1,0,2-2A2,2,0,0,0,239.94,121.26Z" transform="translate(-23.58 -71.72)"/><path class="cls-8" d="M241.09,121.26a.88.88,0,1,0,.88-.88A.87.87,0,0,0,241.09,121.26Z" transform="translate(-23.58 -71.72)"/><path class="cls-21" d="M58.75,212.77a2,2,0,1,0,2-2A2,2,0,0,0,58.75,212.77Z" transform="translate(-23.58 -71.72)"/><path class="cls-8" d="M59.9,212.77a.88.88,0,1,0,.88-.88A.88.88,0,0,0,59.9,212.77Z" transform="translate(-23.58 -71.72)"/></g></g></svg>