<svg xmlns="http://www.w3.org/2000/svg" xmlns:xlink="http://www.w3.org/1999/xlink" width="650" viewBox="0 0 360.87 350"><defs><style>.cls-1{isolation:isolate;}.cls-2{fill:url(#Áåçûìÿííûé_ãðàäèåíò_160);}.cls-18,.cls-21,.cls-23,.cls-24,.cls-3,.cls-9{fill:#42e8e0;}.cls-4{opacity:0.1;}.cls-5{fill:#2fd3c7;}.cls-6{fill:#fff;}.cls-7{fill:#18b2a3;opacity:0.7;}.cls-24,.cls-8{opacity:0.2;}.cls-25,.cls-9{mix-blend-mode:lighten;}.cls-10{fill:url(#Áåçûìÿííûé_ãðàäèåíò_18);}.cls-11{fill:#bcbeff;}.cls-12{fill:url(#Áåçûìÿííûé_ãðàäèåíò_18-2);}.cls-13{fill:#0f054c;}.cls-14,.cls-15,.cls-16,.cls-17,.cls-18,.cls-19,.cls-20{opacity:0.5;}.cls-14{fill:url(#Áåçûìÿííûé_ãðàäèåíò_15);}.cls-15{fill:url(#Áåçûìÿííûé_ãðàäèåíò_15-2);}.cls-16{fill:url(#Áåçûìÿííûé_ãðàäèåíò_15-3);}.cls-17{fill:url(#Áåçûìÿííûé_ãðàäèåíò_15-4);}.cls-19{fill:url(#Áåçûìÿííûé_ãðàäèåíò_15-5);}.cls-20{fill:url(#Áåçûìÿííûé_ãðàäèåíò_15-6);}.cls-21{opacity:0.8;}.cls-22{fill:#03002d;}.cls-22,.cls-23{opacity:0.4;}.cls-25{fill:url(#Áåçûìÿííûé_ãðàäèåíò_128);}</style><radialGradient id="Áåçûìÿííûé_ãðàäèåíò_160" cx="165.55" cy="-1828.4" r="532.65" gradientTransform="translate(13.51 1603.75) scale(0.6 1)" gradientUnits="userSpaceOnUse"><stop offset="0" stop-color="#2b237c"/><stop offset="0.31" stop-color="#251c72"/><stop offset="1" stop-color="#0f054c"/></radialGradient><linearGradient id="Áåçûìÿííûé_ãðàäèåíò_18" x1="50.67" y1="226.07" x2="257.67" y2="226.07" gradientUnits="userSpaceOnUse"><stop offset="0" stop-color="#5761d7"/><stop offset="0.16" stop-color="#5e67da"/><stop offset="0.41" stop-color="#727ae2"/><stop offset="0.69" stop-color="#9297ee"/><stop offset="1" stop-color="#bcbeff"/></linearGradient><linearGradient id="Áåçûìÿííûé_ãðàäèåíò_18-2" x1="50.67" y1="206.35" x2="257.67" y2="206.35" xlink:href="#Áåçûìÿííûé_ãðàäèåíò_18"/><linearGradient id="Áåçûìÿííûé_ãðàäèåíò_15" x1="109.25" y1="178.38" x2="233.5" y2="178.38" gradientUnits="userSpaceOnUse"><stop offset="0" stop-color="#42e8e0"/><stop offset="0.15" stop-color="#43e3e0"/><stop offset="0.33" stop-color="#45d5df"/><stop offset="0.52" stop-color="#49bddd"/><stop offset="0.72" stop-color="#4e9cdb"/><stop offset="0.93" stop-color="#5472d8"/><stop offset="1" stop-color="#5761d7"/></linearGradient><linearGradient id="Áåçûìÿííûé_ãðàäèåíò_15-2" x1="171.38" y1="155.93" x2="233.5" y2="155.93" xlink:href="#Áåçûìÿííûé_ãðàäèåíò_15"/><linearGradient id="Áåçûìÿííûé_ãðàäèåíò_15-3" x1="109.25" y1="155.93" x2="171.38" y2="155.93" xlink:href="#Áåçûìÿííûé_ãðàäèåíò_15"/><linearGradient id="Áåçûìÿííûé_ãðàäèåíò_15-4" x1="109.25" y1="169.34" x2="233.5" y2="169.34" xlink:href="#Áåçûìÿííûé_ãðàäèåíò_15"/><linearGradient id="Áåçûìÿííûé_ãðàäèåíò_15-5" x1="171.38" y1="191.79" x2="233.5" y2="191.79" xlink:href="#Áåçûìÿííûé_ãðàäèåíò_15"/><linearGradient id="Áåçûìÿííûé_ãðàäèåíò_15-6" x1="109.25" y1="191.79" x2="171.38" y2="191.79" xlink:href="#Áåçûìÿííûé_ãðàäèåíò_15"/><linearGradient id="Áåçûìÿííûé_ãðàäèåíò_128" x1="171.33" y1="205.2" x2="171.33" y2="56.66" gradientUnits="userSpaceOnUse"><stop offset="0" stop-color="#42e8e0"/><stop offset="0.11" stop-color="#37b6bf"/><stop offset="0.22" stop-color="#2c87a1"/><stop offset="0.34" stop-color="#235f87"/><stop offset="0.46" stop-color="#1c3f72"/><stop offset="0.58" stop-color="#162561"/><stop offset="0.71" stop-color="#121355"/><stop offset="0.85" stop-color="#10084e"/><stop offset="1" stop-color="#0f054c"/></linearGradient></defs><title>Big data 1</title><g class="cls-1"><g id="Ñëîé_1" data-name="Ñëîé 1"><rect class="cls-2" width="360.87" height="350"/><polygon class="cls-3" points="207.37 141.62 207.21 141.35 242.06 121.08 242.14 121.12 278.14 140.88 277.99 141.16 242.06 121.44 207.37 141.62"/><g class="cls-4"><polygon class="cls-3" points="171.38 237.98 156.31 229.28 156.31 246.68 171.38 255.38 186.44 246.68 186.44 229.28 171.38 237.98"/><polygon class="cls-3" points="171.38 255.38 156.31 246.68 156.31 229.28 171.38 237.98 171.38 255.38"/><polygon class="cls-5" points="186.44 246.68 171.38 255.38 171.38 237.98 186.44 229.28 186.44 246.68"/><polygon class="cls-3" points="171.38 237.98 156.31 229.28 171.38 220.58 186.44 229.28 171.38 237.98"/><polygon class="cls-6" points="171.38 237.98 156.96 229.66 156.31 230.04 171.38 238.74 186.44 230.04 185.79 229.66 171.38 237.98"/><polygon class="cls-3" points="190.95 249.15 175.88 240.45 175.88 257.85 190.95 266.55 206.02 257.85 206.02 240.45 190.95 249.15"/><polygon class="cls-3" points="190.95 266.55 175.88 257.85 175.88 240.45 190.95 249.15 190.95 266.55"/><polygon class="cls-5" points="206.02 257.85 190.95 266.55 190.95 249.15 206.02 240.45 206.02 257.85"/><polygon class="cls-3" points="190.95 249.15 175.88 240.45 190.95 231.75 206.02 240.45 190.95 249.15"/><polygon class="cls-6" points="190.95 249.15 176.53 240.83 175.88 241.21 190.95 249.9 206.02 241.21 205.36 240.83 190.95 249.15"/><polygon class="cls-3" points="210.52 260.32 195.45 251.62 195.45 269.01 210.52 277.71 225.59 269.01 225.59 251.62 210.52 260.32"/><polygon class="cls-3" points="210.52 277.71 195.45 269.01 195.45 251.62 210.52 260.32 210.52 277.71"/><polygon class="cls-5" points="225.59 269.01 210.52 277.71 210.52 260.32 225.59 251.62 225.59 269.01"/><polygon class="cls-3" points="210.52 260.32 195.45 251.62 210.52 242.92 225.59 251.62 210.52 260.32"/><polygon class="cls-6" points="210.52 260.32 196.11 251.99 195.45 252.37 210.52 261.07 225.59 252.37 225.59 251.62 210.52 260.32"/><polygon class="cls-3" points="151.81 249.9 136.74 241.21 136.74 258.6 151.81 267.3 166.87 258.6 166.87 241.21 151.81 249.9"/><polygon class="cls-3" points="151.81 267.3 136.74 258.6 136.74 241.21 151.81 249.9 151.81 267.3"/><polygon class="cls-5" points="166.87 258.6 151.81 267.3 151.81 249.9 166.87 241.21 166.87 258.6"/><polygon class="cls-3" points="151.81 249.9 136.74 241.21 151.81 232.51 166.87 241.21 151.81 249.9"/><polygon class="cls-6" points="151.81 249.9 137.39 241.58 136.74 241.96 151.81 250.66 166.87 241.96 166.22 241.58 151.81 249.9"/><polygon class="cls-3" points="171.38 261.07 156.31 252.37 156.31 269.77 171.38 278.47 186.44 269.77 186.44 252.37 171.38 261.07"/><polygon class="cls-3" points="171.38 278.47 156.31 269.77 156.31 252.37 171.38 261.07 171.38 278.47"/><polygon class="cls-5" points="186.44 269.77 171.38 278.47 171.38 261.07 186.44 252.37 186.44 269.77"/><polygon class="cls-3" points="171.38 261.07 156.31 252.37 171.38 243.67 186.44 252.37 171.38 261.07"/><polygon class="cls-6" points="171.38 261.07 156.96 252.75 156.31 253.13 171.38 261.83 186.44 253.13 185.79 252.75 171.38 261.07"/><polygon class="cls-3" points="190.95 272.24 175.88 263.54 175.88 280.94 190.95 289.64 206.02 280.94 206.02 263.54 190.95 272.24"/><polygon class="cls-3" points="190.95 289.64 175.88 280.94 175.88 263.54 190.95 272.24 190.95 289.64"/><polygon class="cls-5" points="206.02 280.94 190.95 289.64 190.95 272.24 206.02 263.54 206.02 280.94"/><polygon class="cls-3" points="190.95 272.24 175.88 263.54 190.95 254.84 206.02 263.54 190.95 272.24"/><polygon class="cls-6" points="190.95 272.24 176.53 263.92 175.88 264.29 190.95 272.99 206.02 264.29 206.02 263.54 190.95 272.24"/><polygon class="cls-3" points="132.23 261.83 117.17 253.13 117.17 270.52 132.23 279.22 147.3 270.52 147.3 253.13 132.23 261.83"/><polygon class="cls-3" points="132.23 279.22 117.17 270.52 117.17 253.13 132.23 261.83 132.23 279.22"/><polygon class="cls-5" points="147.3 270.52 132.23 279.22 132.23 261.83 147.3 253.13 147.3 270.52"/><polygon class="cls-3" points="132.23 261.83 117.17 253.13 132.23 244.43 147.3 253.13 132.23 261.83"/><polygon class="cls-6" points="132.23 261.83 117.17 253.13 117.17 253.88 132.23 262.58 147.3 253.88 146.65 253.5 132.23 261.83"/><polygon class="cls-3" points="151.81 272.99 136.74 264.29 136.74 281.69 151.81 290.39 166.87 281.69 166.87 264.29 151.81 272.99"/><polygon class="cls-3" points="151.81 290.39 136.74 281.69 136.74 264.29 151.81 272.99 151.81 290.39"/><polygon class="cls-5" points="166.87 281.69 151.81 290.39 151.81 272.99 166.87 264.29 166.87 281.69"/><polygon class="cls-3" points="151.81 272.99 136.74 264.29 151.81 255.59 166.87 264.29 151.81 272.99"/><polygon class="cls-6" points="151.81 272.99 136.74 264.29 136.74 265.05 151.81 273.75 166.87 265.05 166.22 264.67 151.81 272.99"/><polygon class="cls-3" points="171.38 284.16 156.31 275.46 156.31 292.86 171.38 301.56 186.44 292.86 186.44 275.46 171.38 284.16"/><polygon class="cls-3" points="171.38 301.56 156.31 292.86 156.31 275.46 171.38 284.16 171.38 301.56"/><polygon class="cls-5" points="186.44 292.86 171.38 301.56 171.38 284.16 186.44 275.46 186.44 292.86"/><polygon class="cls-3" points="171.38 284.16 156.31 275.46 171.38 266.76 186.44 275.46 171.38 284.16"/><polygon class="cls-6" points="171.38 284.16 156.31 275.46 156.31 276.22 171.38 284.92 186.44 276.22 186.44 275.46 171.38 284.16"/><polygon class="cls-3" points="171.38 214.89 156.31 206.19 156.31 223.59 171.38 232.29 186.44 223.59 186.44 206.19 171.38 214.89"/><polygon class="cls-3" points="171.38 232.29 156.31 223.59 156.31 206.19 171.38 214.89 171.38 232.29"/><polygon class="cls-5" points="186.44 223.59 171.38 232.29 171.38 214.89 186.44 206.19 186.44 223.59"/><polygon class="cls-3" points="171.38 214.89 156.31 206.19 171.38 197.5 186.44 206.19 171.38 214.89"/><polygon class="cls-6" points="171.38 214.89 156.96 206.57 156.31 206.95 171.38 215.65 186.44 206.95 185.79 206.57 171.38 214.89"/><polygon class="cls-7" points="171.38 281.33 161.1 275.39 171.38 269.46 181.66 275.39 171.38 281.33"/><polygon class="cls-7" points="151.81 270.16 141.53 264.23 151.81 258.29 162.08 264.23 151.81 270.16"/><polygon class="cls-7" points="190.95 269.4 180.67 263.47 190.95 257.54 201.23 263.47 190.95 269.4"/><polygon class="cls-7" points="210.56 257.62 200.28 251.69 210.56 245.75 220.84 251.69 210.56 257.62"/><polygon class="cls-7" points="132.23 258.99 121.95 253.06 132.23 247.12 142.51 253.06 132.23 258.99"/><polygon class="cls-3" points="190.95 226.06 175.88 217.36 175.88 234.76 190.95 243.46 206.02 234.76 206.02 217.36 190.95 226.06"/><polygon class="cls-3" points="190.95 243.46 175.88 234.76 175.88 217.36 190.95 226.06 190.95 243.46"/><polygon class="cls-5" points="206.02 234.76 190.95 243.46 190.95 226.06 206.02 217.36 206.02 234.76"/><polygon class="cls-3" points="190.95 226.06 175.88 217.36 190.95 208.66 206.02 217.36 190.95 226.06"/><polygon class="cls-6" points="190.95 226.06 176.53 217.74 175.88 218.12 190.95 226.81 206.02 218.12 205.36 217.74 190.95 226.06"/><polygon class="cls-3" points="210.52 237.23 195.45 228.53 195.45 245.93 210.52 254.63 225.59 245.93 225.59 228.53 210.52 237.23"/><polygon class="cls-3" points="210.52 254.63 195.45 245.93 195.45 228.53 210.52 237.23 210.52 254.63"/><polygon class="cls-5" points="225.59 245.93 210.52 254.63 210.52 237.23 225.59 228.53 225.59 245.93"/><polygon class="cls-3" points="210.52 237.23 195.45 228.53 210.52 219.83 225.59 228.53 210.52 237.23"/><polygon class="cls-6" points="210.52 237.23 196.11 228.91 195.45 229.28 210.52 237.98 225.59 229.28 225.59 228.53 210.52 237.23"/><polygon class="cls-3" points="151.81 226.81 136.74 218.12 136.74 235.51 151.81 244.21 166.87 235.51 166.87 218.12 151.81 226.81"/><polygon class="cls-3" points="151.81 244.21 136.74 235.51 136.74 218.12 151.81 226.81 151.81 244.21"/><polygon class="cls-5" points="166.87 235.51 151.81 244.21 151.81 226.81 166.87 218.12 166.87 235.51"/><polygon class="cls-3" points="151.81 226.81 136.74 218.12 151.81 209.42 166.87 218.12 151.81 226.81"/><polygon class="cls-6" points="151.81 226.81 137.39 218.49 136.74 218.87 151.81 227.57 166.87 218.87 166.22 218.49 151.81 226.81"/><polygon class="cls-3" points="171.38 237.98 156.31 229.28 156.31 246.68 171.38 255.38 186.44 246.68 186.44 229.28 171.38 237.98"/><polygon class="cls-3" points="171.38 255.38 156.31 246.68 156.31 229.28 171.38 237.98 171.38 255.38"/><polygon class="cls-5" points="186.44 246.68 171.38 255.38 171.38 237.98 186.44 229.28 186.44 246.68"/><polygon class="cls-3" points="171.38 237.98 156.31 229.28 171.38 220.58 186.44 229.28 171.38 237.98"/><polygon class="cls-6" points="171.38 237.98 156.96 229.66 156.31 230.04 171.38 238.74 186.44 230.04 185.79 229.66 171.38 237.98"/><polygon class="cls-3" points="190.95 249.15 175.88 240.45 175.88 257.85 190.95 266.55 206.02 257.85 206.02 240.45 190.95 249.15"/><polygon class="cls-3" points="190.95 266.55 175.88 257.85 175.88 240.45 190.95 249.15 190.95 266.55"/><polygon class="cls-5" points="206.02 257.85 190.95 266.55 190.95 249.15 206.02 240.45 206.02 257.85"/><polygon class="cls-3" points="190.95 249.15 175.88 240.45 190.95 231.75 206.02 240.45 190.95 249.15"/><polygon class="cls-6" points="190.95 249.15 176.53 240.83 175.88 241.21 190.95 249.9 206.02 241.21 206.02 240.45 190.95 249.15"/><polygon class="cls-3" points="132.23 238.74 117.17 230.04 117.17 247.44 132.23 256.13 147.3 247.44 147.3 230.04 132.23 238.74"/><polygon class="cls-3" points="132.23 256.13 117.17 247.44 117.17 230.04 132.23 238.74 132.23 256.13"/><polygon class="cls-5" points="147.3 247.44 132.23 256.13 132.23 238.74 147.3 230.04 147.3 247.44"/><polygon class="cls-3" points="132.23 238.74 117.17 230.04 132.23 221.34 147.3 230.04 132.23 238.74"/><polygon class="cls-6" points="132.23 238.74 117.82 230.41 117.17 230.79 132.23 239.49 147.3 230.79 146.65 230.41 132.23 238.74"/><polygon class="cls-3" points="151.81 249.9 136.74 241.21 136.74 258.6 151.81 267.3 166.87 258.6 166.87 241.21 151.81 249.9"/><polygon class="cls-3" points="151.81 267.3 136.74 258.6 136.74 241.21 151.81 249.9 151.81 267.3"/><polygon class="cls-5" points="166.87 258.6 151.81 267.3 151.81 249.9 166.87 241.21 166.87 258.6"/><polygon class="cls-3" points="151.81 249.9 136.74 241.21 151.81 232.51 166.87 241.21 151.81 249.9"/><polygon class="cls-6" points="151.81 249.9 136.74 241.21 136.74 241.96 151.81 250.66 166.87 241.96 166.22 241.58 151.81 249.9"/><polygon class="cls-3" points="171.38 261.07 156.31 252.37 156.31 269.77 171.38 278.47 186.44 269.77 186.44 252.37 171.38 261.07"/><polygon class="cls-3" points="171.38 278.47 156.31 269.77 156.31 252.37 171.38 261.07 171.38 278.47"/><polygon class="cls-5" points="186.44 269.77 171.38 278.47 171.38 261.07 186.44 252.37 186.44 269.77"/><polygon class="cls-3" points="171.38 261.07 156.31 252.37 171.38 243.67 186.44 252.37 171.38 261.07"/><polygon class="cls-6" points="171.38 261.07 156.31 252.37 156.31 253.13 171.38 261.83 186.44 253.13 186.44 252.37 171.38 261.07"/><polygon class="cls-7" points="210.56 234.63 200.28 228.7 210.56 222.76 220.84 228.7 210.56 234.63"/><polygon class="cls-7" points="132.23 236.01 121.95 230.07 132.23 224.14 142.51 230.07 132.23 236.01"/><polygon class="cls-3" points="171.38 191.8 156.31 183.1 156.31 200.5 171.38 209.2 186.44 200.5 186.44 183.1 171.38 191.8"/><polygon class="cls-3" points="171.38 209.2 156.31 200.5 156.31 183.1 171.38 191.8 171.38 209.2"/><polygon class="cls-5" points="186.44 200.5 171.38 209.2 171.38 191.8 186.44 183.1 186.44 200.5"/><polygon class="cls-3" points="171.38 191.8 156.31 183.1 171.38 174.41 186.44 183.1 171.38 191.8"/><polygon class="cls-6" points="171.38 191.8 156.31 183.1 156.31 183.86 171.38 192.56 186.44 183.86 186.44 183.1 171.38 191.8"/><polygon class="cls-3" points="190.95 202.97 175.88 194.27 175.88 211.67 190.95 220.37 206.02 211.67 206.02 194.27 190.95 202.97"/><polygon class="cls-3" points="190.95 220.37 175.88 211.67 175.88 194.27 190.95 202.97 190.95 220.37"/><polygon class="cls-5" points="206.02 211.67 190.95 220.37 190.95 202.97 206.02 194.27 206.02 211.67"/><polygon class="cls-3" points="190.95 202.97 175.88 194.27 190.95 185.57 206.02 194.27 190.95 202.97"/><polygon class="cls-6" points="190.95 202.97 175.88 194.27 175.88 195.03 190.95 203.73 206.02 195.03 206.02 194.27 190.95 202.97"/><polygon class="cls-3" points="210.52 214.14 195.45 205.44 195.45 222.84 210.52 231.54 225.59 222.84 225.59 205.44 210.52 214.14"/><polygon class="cls-3" points="210.52 231.54 195.45 222.84 195.45 205.44 210.52 214.14 210.52 231.54"/><polygon class="cls-5" points="225.59 222.84 210.52 231.54 210.52 214.14 225.59 205.44 225.59 222.84"/><polygon class="cls-3" points="210.52 214.14 195.45 205.44 210.52 196.74 225.59 205.44 210.52 214.14"/><polygon class="cls-6" points="210.52 214.14 195.45 205.44 195.45 206.19 210.52 214.89 225.59 206.19 225.59 205.44 210.52 214.14"/><polygon class="cls-3" points="151.81 203.73 136.74 195.03 136.74 212.43 151.81 221.12 166.87 212.43 166.87 195.03 151.81 203.73"/><polygon class="cls-3" points="151.81 221.12 136.74 212.43 136.74 195.03 151.81 203.73 151.81 221.12"/><polygon class="cls-5" points="166.87 212.43 151.81 221.12 151.81 203.73 166.87 195.03 166.87 212.43"/><polygon class="cls-3" points="151.81 203.73 136.74 195.03 151.81 186.33 166.87 195.03 151.81 203.73"/><polygon class="cls-6" points="151.81 203.73 136.74 195.03 136.74 195.78 151.81 204.48 166.87 195.78 166.87 195.03 151.81 203.73"/><polygon class="cls-3" points="132.23 215.65 117.17 206.95 117.17 224.35 132.23 233.05 147.3 224.35 147.3 206.95 132.23 215.65"/><polygon class="cls-3" points="132.23 233.05 117.17 224.35 117.17 206.95 132.23 215.65 132.23 233.05"/><polygon class="cls-5" points="147.3 224.35 132.23 233.05 132.23 215.65 147.3 206.95 147.3 224.35"/><polygon class="cls-3" points="132.23 215.65 117.17 206.95 132.23 198.25 147.3 206.95 132.23 215.65"/><polygon class="cls-6" points="132.23 215.65 117.17 206.95 117.17 207.7 132.23 216.4 147.3 207.7 147.3 206.95 132.23 215.65"/></g><g class="cls-8"><path class="cls-9" d="M191.58,260,181.07,254a7.24,7.24,0,0,1-3.28-5.67v-2.53a6.88,6.88,0,0,0-3.11-5.4l-2.19-1.27.15-.27,2.2,1.27a7.24,7.24,0,0,1,3.27,5.67v2.53a6.9,6.9,0,0,0,3.11,5.39l10.52,6.07Z" transform="translate(0 0)"/><path class="cls-9" d="M195.67,257.68l-10.52-6.07a7.24,7.24,0,0,1-3.27-5.67v-2.53a6.88,6.88,0,0,0-3.11-5.39l-2.2-1.27.16-.28,2.2,1.27a7.26,7.26,0,0,1,3.27,5.67v2.53a6.91,6.91,0,0,0,3.11,5.4l10.51,6.07Z" transform="translate(0 0)"/><path class="cls-9" d="M199.75,255.32l-10.51-6.06a7.27,7.27,0,0,1-3.27-5.67v-2.54a6.9,6.9,0,0,0-3.11-5.39l-2.2-1.27.16-.27,2.19,1.27a7.22,7.22,0,0,1,3.28,5.66v2.54A6.88,6.88,0,0,0,189.4,249l10.51,6.07Z" transform="translate(0 0)"/><path class="cls-9" d="M203.84,253l-10.51-6.07a7.24,7.24,0,0,1-3.27-5.67V238.7a6.92,6.92,0,0,0-3.12-5.4L184.75,232l.16-.28L187.1,233a7.24,7.24,0,0,1,3.28,5.67v2.53a6.89,6.89,0,0,0,3.11,5.4L204,252.69Z" transform="translate(0 0)"/><path class="cls-9" d="M207.93,250.61l-10.51-6.07a7.21,7.21,0,0,1-3.27-5.66v-2.54A6.89,6.89,0,0,0,191,231l-2.19-1.27.16-.27,2.19,1.26a7.25,7.25,0,0,1,3.27,5.67v2.54a6.89,6.89,0,0,0,3.12,5.39l10.51,6.07Z" transform="translate(0 0)"/><path class="cls-9" d="M212,248.26l-10.51-6.07a7.23,7.23,0,0,1-3.27-5.67V234a6.89,6.89,0,0,0-3.12-5.4l-2.19-1.26.15-.28,2.2,1.27a7.24,7.24,0,0,1,3.27,5.67v2.53a6.89,6.89,0,0,0,3.12,5.39L212.18,248Z" transform="translate(0 0)"/><path class="cls-9" d="M216.11,245.9l-10.51-6.07a7.23,7.23,0,0,1-3.28-5.67v-2.53a6.88,6.88,0,0,0-3.11-5.39L197,225l.16-.27,2.2,1.26a7.26,7.26,0,0,1,3.27,5.67v2.53a6.91,6.91,0,0,0,3.11,5.4l10.51,6.07Z" transform="translate(0 0)"/><path class="cls-9" d="M220.19,243.54l-10.51-6.06a7.26,7.26,0,0,1-3.27-5.67v-2.54a6.9,6.9,0,0,0-3.11-5.39l-2.2-1.27.16-.27,2.2,1.27a7.24,7.24,0,0,1,3.27,5.66v2.54a6.88,6.88,0,0,0,3.11,5.39l10.51,6.07Z" transform="translate(0 0)"/><path class="cls-9" d="M224.28,241.19l-10.51-6.07a7.24,7.24,0,0,1-3.27-5.67v-2.53a6.9,6.9,0,0,0-3.11-5.39l-2.2-1.27.16-.28,2.19,1.27a7.23,7.23,0,0,1,3.28,5.67v2.53a6.88,6.88,0,0,0,3.11,5.4l10.51,6.07Z" transform="translate(0 0)"/><path class="cls-9" d="M228.37,238.83l-10.51-6.07a7.24,7.24,0,0,1-3.27-5.66v-2.54a6.89,6.89,0,0,0-3.12-5.39l-2.19-1.27.16-.27,2.19,1.27a7.21,7.21,0,0,1,3.27,5.66v2.54a6.89,6.89,0,0,0,3.12,5.39l10.51,6.07Z" transform="translate(0 0)"/><path class="cls-9" d="M232.46,236.48,222,230.41a7.22,7.22,0,0,1-3.27-5.67v-2.53a6.9,6.9,0,0,0-3.12-5.4l-2.19-1.26.15-.28,2.2,1.27a7.24,7.24,0,0,1,3.27,5.67v2.53a6.92,6.92,0,0,0,3.12,5.4l10.51,6.06Z" transform="translate(0 0)"/><path class="cls-9" d="M236.55,234.12,226,228.05a7.22,7.22,0,0,1-3.28-5.66v-2.54a6.88,6.88,0,0,0-3.11-5.39l-2.2-1.27.16-.27,2.2,1.26a7.27,7.27,0,0,1,3.27,5.67v2.54a6.9,6.9,0,0,0,3.11,5.39l10.51,6.07Z" transform="translate(0 0)"/><path class="cls-9" d="M240.63,231.77l-10.51-6.07a7.26,7.26,0,0,1-3.27-5.67V217.5a6.91,6.91,0,0,0-3.11-5.4l-2.2-1.27.16-.27,2.2,1.27a7.24,7.24,0,0,1,3.27,5.67V220a6.9,6.9,0,0,0,3.11,5.39l10.51,6.07Z" transform="translate(0 0)"/><path class="cls-9" d="M244.72,229.41l-10.51-6.07a7.24,7.24,0,0,1-3.27-5.67v-2.53a6.9,6.9,0,0,0-3.11-5.39l-2.2-1.27.16-.28,2.19,1.27a7.24,7.24,0,0,1,3.28,5.67v2.53a6.88,6.88,0,0,0,3.11,5.4l10.51,6.07Z" transform="translate(0 0)"/><path class="cls-9" d="M248.81,227.05,238.3,221a7.27,7.27,0,0,1-3.27-5.67v-2.54a6.89,6.89,0,0,0-3.12-5.39l-2.19-1.27.16-.27,2.19,1.27a7.21,7.21,0,0,1,3.27,5.66v2.54a6.89,6.89,0,0,0,3.12,5.39L249,226.78Z" transform="translate(0 0)"/><path class="cls-9" d="M252.9,224.7l-10.51-6.07a7.22,7.22,0,0,1-3.27-5.67v-2.53A6.92,6.92,0,0,0,236,205l-2.19-1.26.16-.28,2.19,1.27a7.22,7.22,0,0,1,3.27,5.67V213a6.89,6.89,0,0,0,3.12,5.4l10.51,6.06Z" transform="translate(0 0)"/><path class="cls-9" d="M257,222.34l-10.51-6.07a7.22,7.22,0,0,1-3.28-5.66v-2.54a6.88,6.88,0,0,0-3.11-5.39l-2.19-1.27.15-.27,2.2,1.27a7.24,7.24,0,0,1,3.27,5.66v2.54a6.9,6.9,0,0,0,3.11,5.39l10.52,6.07Z" transform="translate(0 0)"/><path class="cls-9" d="M261.08,220l-10.52-6.07a7.26,7.26,0,0,1-3.27-5.67v-2.53a6.88,6.88,0,0,0-3.11-5.4l-2.2-1.26.16-.28,2.2,1.27a7.24,7.24,0,0,1,3.27,5.67v2.53a6.94,6.94,0,0,0,3.11,5.4l10.51,6.06Z" transform="translate(0 0)"/><path class="cls-9" d="M265.16,217.63l-10.51-6.07a7.24,7.24,0,0,1-3.27-5.66v-2.54a6.9,6.9,0,0,0-3.11-5.39l-2.2-1.27.16-.27,2.19,1.26a7.26,7.26,0,0,1,3.28,5.67v2.54a6.88,6.88,0,0,0,3.11,5.39l10.51,6.07Z" transform="translate(0 0)"/><path class="cls-9" d="M269.25,215.28l-10.51-6.07a7.27,7.27,0,0,1-3.27-5.67V201a6.89,6.89,0,0,0-3.12-5.39l-2.19-1.27.16-.27,2.19,1.27a7.22,7.22,0,0,1,3.28,5.66v2.54a6.88,6.88,0,0,0,3.11,5.39L269.41,215Z" transform="translate(0 0)"/><path class="cls-9" d="M150.89,260l-.16-.28,10.51-6.07a6.89,6.89,0,0,0,3.12-5.39v-2.53a7.22,7.22,0,0,1,3.27-5.67l2.19-1.27.16.27-2.19,1.27a6.89,6.89,0,0,0-3.12,5.4v2.53A7.23,7.23,0,0,1,161.4,254Z" transform="translate(0 0)"/><path class="cls-9" d="M146.8,257.68l-.16-.27,10.51-6.07a6.89,6.89,0,0,0,3.12-5.4v-2.53a7.26,7.26,0,0,1,3.27-5.67l2.2-1.27.15.28L163.7,238a6.88,6.88,0,0,0-3.11,5.39v2.53a7.23,7.23,0,0,1-3.28,5.67Z" transform="translate(0 0)"/><path class="cls-9" d="M142.71,255.32l-.15-.27L153.07,249a6.9,6.9,0,0,0,3.11-5.39v-2.54a7.24,7.24,0,0,1,3.27-5.66l2.2-1.27.16.27-2.2,1.27a6.88,6.88,0,0,0-3.11,5.39v2.54a7.26,7.26,0,0,1-3.28,5.67Z" transform="translate(0 0)"/><path class="cls-9" d="M138.63,253l-.16-.28L149,246.63a6.89,6.89,0,0,0,3.11-5.4V238.7a7.26,7.26,0,0,1,3.27-5.67l2.2-1.27.16.28-2.2,1.26a6.94,6.94,0,0,0-3.11,5.4v2.53a7.24,7.24,0,0,1-3.27,5.67Z" transform="translate(0 0)"/><path class="cls-9" d="M134.54,250.61l-.16-.27,10.51-6.07a6.88,6.88,0,0,0,3.11-5.39v-2.54a7.26,7.26,0,0,1,3.28-5.67l2.19-1.26.16.27-2.2,1.27a6.9,6.9,0,0,0-3.11,5.39v2.54a7.24,7.24,0,0,1-3.27,5.66Z" transform="translate(0 0)"/><path class="cls-9" d="M130.45,248.26l-.16-.28,10.51-6.07a6.89,6.89,0,0,0,3.12-5.39V234a7.22,7.22,0,0,1,3.27-5.67l2.19-1.27.16.28-2.19,1.26a6.89,6.89,0,0,0-3.12,5.4v2.53a7.26,7.26,0,0,1-3.27,5.67Z" transform="translate(0 0)"/><path class="cls-9" d="M126.36,245.9l-.16-.27,10.51-6.07a6.89,6.89,0,0,0,3.12-5.4v-2.53A7.26,7.26,0,0,1,143.1,226l2.2-1.26.15.27-2.19,1.27a6.89,6.89,0,0,0-3.12,5.39v2.53a7.22,7.22,0,0,1-3.27,5.67Z" transform="translate(0 0)"/><path class="cls-9" d="M122.27,243.54l-.15-.27,10.51-6.07a6.9,6.9,0,0,0,3.11-5.39v-2.54a7.24,7.24,0,0,1,3.27-5.66l2.2-1.27.16.27-2.2,1.27a6.88,6.88,0,0,0-3.11,5.39v2.54a7.24,7.24,0,0,1-3.28,5.67Z" transform="translate(0 0)"/><path class="cls-9" d="M118.19,241.19l-.16-.27,10.51-6.07a6.88,6.88,0,0,0,3.11-5.4v-2.53a7.24,7.24,0,0,1,3.27-5.67l2.2-1.27.16.28-2.2,1.27a6.9,6.9,0,0,0-3.11,5.39v2.53a7.24,7.24,0,0,1-3.27,5.67Z" transform="translate(0 0)"/><path class="cls-9" d="M114.1,238.83l-.16-.27,10.51-6.07a6.88,6.88,0,0,0,3.11-5.39v-2.54a7.22,7.22,0,0,1,3.28-5.66l2.19-1.27.16.27-2.2,1.27a6.9,6.9,0,0,0-3.11,5.39v2.54a7.24,7.24,0,0,1-3.27,5.66Z" transform="translate(0 0)"/><path class="cls-9" d="M110,236.48l-.16-.28,10.51-6.06a6.92,6.92,0,0,0,3.12-5.4v-2.53a7.22,7.22,0,0,1,3.27-5.67l2.19-1.27.16.28-2.19,1.26a6.9,6.9,0,0,0-3.12,5.4v2.53a7.24,7.24,0,0,1-3.27,5.67Z" transform="translate(0 0)"/><path class="cls-9" d="M105.92,234.12l-.16-.27,10.51-6.07a6.89,6.89,0,0,0,3.12-5.39v-2.54a7.27,7.27,0,0,1,3.27-5.67l2.2-1.26.15.27-2.19,1.27a6.89,6.89,0,0,0-3.12,5.39v2.54a7.21,7.21,0,0,1-3.27,5.66Z" transform="translate(0 0)"/><path class="cls-9" d="M101.83,231.77l-.16-.28,10.52-6.07A6.9,6.9,0,0,0,115.3,220V217.5a7.24,7.24,0,0,1,3.27-5.67l2.2-1.27.15.27-2.19,1.27a6.88,6.88,0,0,0-3.11,5.4V220a7.24,7.24,0,0,1-3.28,5.67Z" transform="translate(0 0)"/><path class="cls-9" d="M97.74,229.41l-.15-.27,10.51-6.07a6.91,6.91,0,0,0,3.11-5.4v-2.53a7.26,7.26,0,0,1,3.27-5.67l2.2-1.27.16.28-2.2,1.27a6.88,6.88,0,0,0-3.11,5.39v2.53a7.24,7.24,0,0,1-3.27,5.67Z" transform="translate(0 0)"/><path class="cls-9" d="M93.66,227.05l-.16-.27L104,220.71a6.88,6.88,0,0,0,3.11-5.39v-2.54a7.22,7.22,0,0,1,3.28-5.66l2.19-1.27.16.27-2.2,1.27a6.9,6.9,0,0,0-3.11,5.39v2.54a7.27,7.27,0,0,1-3.27,5.67Z" transform="translate(0 0)"/><path class="cls-9" d="M89.57,224.7l-.16-.28,10.51-6.06A6.88,6.88,0,0,0,103,213v-2.53a7.23,7.23,0,0,1,3.28-5.67l2.19-1.27.16.28L106.47,205a6.92,6.92,0,0,0-3.12,5.4V213a7.24,7.24,0,0,1-3.27,5.67Z" transform="translate(0 0)"/><path class="cls-9" d="M85.48,222.34l-.16-.27L95.83,216A6.89,6.89,0,0,0,99,210.61v-2.54a7.21,7.21,0,0,1,3.27-5.66l2.19-1.27.16.27-2.19,1.27a6.89,6.89,0,0,0-3.12,5.39v2.54A7.21,7.21,0,0,1,96,216.27Z" transform="translate(0 0)"/><path class="cls-9" d="M81.39,220l-.16-.28,10.51-6.06a6.92,6.92,0,0,0,3.12-5.4v-2.53a7.24,7.24,0,0,1,3.27-5.67l2.2-1.27.15.28-2.19,1.26a6.89,6.89,0,0,0-3.12,5.4v2.53a7.23,7.23,0,0,1-3.27,5.67Z" transform="translate(0 0)"/><path class="cls-9" d="M77.3,217.63l-.15-.27,10.51-6.07a6.9,6.9,0,0,0,3.11-5.39v-2.54A7.27,7.27,0,0,1,94,197.69l2.2-1.26.16.27L94.2,198a6.88,6.88,0,0,0-3.11,5.39v2.54a7.22,7.22,0,0,1-3.28,5.66Z" transform="translate(0 0)"/><path class="cls-9" d="M73.22,215.28l-.16-.28,10.51-6.07a6.88,6.88,0,0,0,3.11-5.39V201A7.24,7.24,0,0,1,90,195.34l2.2-1.27.16.27-2.2,1.27A6.9,6.9,0,0,0,87,201v2.54a7.27,7.27,0,0,1-3.27,5.67Z" transform="translate(0 0)"/><polygon class="cls-10" points="252.14 198.09 252.14 207.43 171.38 254.06 90.61 207.43 90.61 198.09 252.14 198.09"/><polygon class="cls-11" points="171.38 244.72 90.61 198.09 171.38 151.46 252.14 198.09 171.38 244.72"/><polygon class="cls-6" points="171.38 243.63 91.55 197.55 90.61 198.09 171.38 244.72 252.14 198.09 251.2 197.55 171.38 243.63"/></g><path class="cls-9" d="M163,138.14a3.12,3.12,0,0,1-1.51-.46L151,131.61l.16-.27,10.51,6.06a2.08,2.08,0,0,0,2.1.23,2.11,2.11,0,0,0,.86-1.93v-2.54a2.1,2.1,0,0,1,3.43-2l2.19,1.27-.16.27-2.19-1.26a2.08,2.08,0,0,0-2.1-.23,2.11,2.11,0,0,0-.86,1.93v2.54a2.4,2.4,0,0,1-1,2.2A1.77,1.77,0,0,1,163,138.14Z" transform="translate(0 0)"/><path class="cls-9" d="M158.88,140.49a3.12,3.12,0,0,1-1.51-.46L146.86,134l.16-.27,10.51,6.07a1.8,1.8,0,0,0,3-1.71v-2.54a2.1,2.1,0,0,1,3.43-2l2.19,1.27-.15.28-2.2-1.27a1.79,1.79,0,0,0-3,1.7v2.54a2.39,2.39,0,0,1-1,2.2A1.77,1.77,0,0,1,158.88,140.49Z" transform="translate(0 0)"/><path class="cls-9" d="M154.79,142.84a3,3,0,0,1-1.5-.46l-10.51-6.07.15-.27,10.51,6.07a2.1,2.1,0,0,0,2.1.22,2.08,2.08,0,0,0,.86-1.93v-2.53a2.4,2.4,0,0,1,1-2.21,2.38,2.38,0,0,1,2.42.23l2.2,1.26-.16.28-2.2-1.27a1.79,1.79,0,0,0-2.95,1.71v2.53a2.39,2.39,0,0,1-1,2.21A1.86,1.86,0,0,1,154.79,142.84Z" transform="translate(0 0)"/><path class="cls-9" d="M150.7,145.19a3,3,0,0,1-1.5-.46l-10.51-6.07.15-.27,10.52,6.07a1.79,1.79,0,0,0,2.95-1.71v-2.53a2.39,2.39,0,0,1,1-2.21,2.36,2.36,0,0,1,2.41.23l2.2,1.26-.16.28-2.2-1.27a1.79,1.79,0,0,0-3,1.71v2.53a2.39,2.39,0,0,1-1,2.21A1.86,1.86,0,0,1,150.7,145.19Z" transform="translate(0 0)"/><path class="cls-9" d="M146.61,147.54a3,3,0,0,1-1.5-.46L134.6,141l.16-.28,10.51,6.07a1.79,1.79,0,0,0,2.95-1.71v-2.53a2.1,2.1,0,0,1,3.43-2l2.2,1.27-.16.27-2.19-1.27a2.1,2.1,0,0,0-2.1-.22,2.08,2.08,0,0,0-.86,1.93v2.53a2.4,2.4,0,0,1-1,2.21A1.8,1.8,0,0,1,146.61,147.54Z" transform="translate(0 0)"/><path class="cls-9" d="M142.53,149.9a3.12,3.12,0,0,1-1.51-.46l-10.51-6.07.16-.28,10.51,6.07a2.08,2.08,0,0,0,2.1.23,2.11,2.11,0,0,0,.85-1.93v-2.54a2.11,2.11,0,0,1,3.44-2l2.19,1.27-.16.27-2.19-1.27a1.8,1.8,0,0,0-3,1.71v2.54a2.4,2.4,0,0,1-1,2.2A1.77,1.77,0,0,1,142.53,149.9Z" transform="translate(0 0)"/><path class="cls-9" d="M138.44,152.25a3.12,3.12,0,0,1-1.51-.46l-10.51-6.07.16-.27,10.51,6.06a2.08,2.08,0,0,0,2.1.23,2.11,2.11,0,0,0,.86-1.93v-2.54a2.1,2.1,0,0,1,3.43-2l2.19,1.27-.16.27-2.19-1.26a2.08,2.08,0,0,0-2.1-.23,2.11,2.11,0,0,0-.86,1.93v2.54a2.4,2.4,0,0,1-1,2.2A1.77,1.77,0,0,1,138.44,152.25Z" transform="translate(0 0)"/><path class="cls-9" d="M134.35,154.6a3.12,3.12,0,0,1-1.51-.46l-10.51-6.07.16-.27L133,153.87a1.8,1.8,0,0,0,3-1.71v-2.54a2.1,2.1,0,0,1,3.43-2l2.19,1.27-.15.28-2.2-1.27a2.08,2.08,0,0,0-2.1-.23,2.11,2.11,0,0,0-.85,1.93v2.54a2.39,2.39,0,0,1-1,2.2A1.77,1.77,0,0,1,134.35,154.6Z" transform="translate(0 0)"/><path class="cls-9" d="M130.26,157a3,3,0,0,1-1.5-.46l-10.51-6.07.15-.27,10.51,6.07a2.1,2.1,0,0,0,2.1.22,2.08,2.08,0,0,0,.86-1.93V152a2.1,2.1,0,0,1,3.43-2l2.2,1.26-.16.28-2.2-1.27a1.79,1.79,0,0,0-2.95,1.71v2.53a2.4,2.4,0,0,1-1,2.21A1.86,1.86,0,0,1,130.26,157Z" transform="translate(0 0)"/><path class="cls-9" d="M126.17,159.3a3,3,0,0,1-1.5-.46l-10.51-6.07.16-.27,10.51,6.07a1.79,1.79,0,0,0,3-1.71v-2.53a2.1,2.1,0,0,1,3.43-2l2.2,1.27-.16.27-2.2-1.27a1.79,1.79,0,0,0-3,1.71v2.53a2.39,2.39,0,0,1-1,2.21A1.84,1.84,0,0,1,126.17,159.3Z" transform="translate(0 0)"/><path class="cls-9" d="M122.09,161.65a3,3,0,0,1-1.51-.46l-10.51-6.06.16-.28,10.51,6.07a1.79,1.79,0,0,0,3-1.71v-2.53a2.1,2.1,0,0,1,3.43-2l2.2,1.27-.16.27L127,155a1.8,1.8,0,0,0-3,1.71v2.53a2.4,2.4,0,0,1-1,2.21A1.79,1.79,0,0,1,122.09,161.65Z" transform="translate(0 0)"/><path class="cls-9" d="M118,164a3.1,3.1,0,0,1-1.51-.45L106,157.48l.16-.28,10.51,6.07a1.79,1.79,0,0,0,3-1.7V159a2.1,2.1,0,0,1,3.43-2l2.19,1.27-.16.27-2.19-1.27a1.8,1.8,0,0,0-3,1.71v2.54a2.4,2.4,0,0,1-1,2.2A1.76,1.76,0,0,1,118,164Z" transform="translate(0 0)"/><path class="cls-9" d="M113.91,166.36a3.12,3.12,0,0,1-1.51-.46l-10.51-6.07.16-.27,10.51,6.06a2.08,2.08,0,0,0,2.1.23,2.11,2.11,0,0,0,.86-1.93v-2.54a2.1,2.1,0,0,1,3.43-2l2.19,1.27-.15.27-2.2-1.26a2.08,2.08,0,0,0-2.1-.23,2.11,2.11,0,0,0-.86,1.93v2.54a2.4,2.4,0,0,1-1,2.2A1.77,1.77,0,0,1,113.91,166.36Z" transform="translate(0 0)"/><path class="cls-9" d="M109.82,168.71a3.08,3.08,0,0,1-1.5-.46l-10.51-6.07.15-.27L108.47,168a2.1,2.1,0,0,0,2.1.22,2.08,2.08,0,0,0,.86-1.93v-2.54a2.1,2.1,0,0,1,3.43-2l2.2,1.27-.16.28L114.7,162a1.79,1.79,0,0,0-3,1.7v2.54a2.37,2.37,0,0,1-1,2.2A1.77,1.77,0,0,1,109.82,168.71Z" transform="translate(0 0)"/><path class="cls-9" d="M105.73,171.06a3,3,0,0,1-1.5-.46l-10.51-6.07.16-.27,10.51,6.07a1.79,1.79,0,0,0,3-1.71v-2.53a2.39,2.39,0,0,1,1-2.21,2.36,2.36,0,0,1,2.41.23l2.2,1.26-.16.28-2.2-1.27a1.79,1.79,0,0,0-3,1.71v2.53a2.4,2.4,0,0,1-1,2.21A1.86,1.86,0,0,1,105.73,171.06Z" transform="translate(0 0)"/><path class="cls-9" d="M101.65,173.41a3,3,0,0,1-1.51-.46l-10.51-6.07.16-.27,10.51,6.07a1.79,1.79,0,0,0,3-1.71v-2.53a2.39,2.39,0,0,1,1-2.21,2.36,2.36,0,0,1,2.41.23l2.2,1.27-.16.27-2.19-1.27a2.1,2.1,0,0,0-2.1-.22,2.08,2.08,0,0,0-.86,1.93V171a2.4,2.4,0,0,1-1,2.21A1.89,1.89,0,0,1,101.65,173.41Z" transform="translate(0 0)"/><path class="cls-9" d="M97.56,175.76a3,3,0,0,1-1.51-.46l-10.51-6.06.16-.28L96.21,175a1.8,1.8,0,0,0,3-1.71v-2.53a2.1,2.1,0,0,1,3.43-2l2.19,1.27-.16.27-2.19-1.27a1.8,1.8,0,0,0-3,1.71v2.53a2.4,2.4,0,0,1-1,2.21A1.76,1.76,0,0,1,97.56,175.76Z" transform="translate(0 0)"/><path class="cls-9" d="M93.47,178.12a3.12,3.12,0,0,1-1.51-.46l-10.51-6.07.16-.28,10.51,6.07a2.08,2.08,0,0,0,2.1.23,2.11,2.11,0,0,0,.86-1.93v-2.54a2.1,2.1,0,0,1,3.43-2l2.19,1.27-.15.27-2.2-1.27a1.8,1.8,0,0,0-3,1.71v2.54a2.4,2.4,0,0,1-1,2.2A1.77,1.77,0,0,1,93.47,178.12Z" transform="translate(0 0)"/><path class="cls-9" d="M89.38,180.47a3.08,3.08,0,0,1-1.5-.46l-10.52-6.07.16-.27L88,179.73a1.79,1.79,0,0,0,3-1.7v-2.54a2.1,2.1,0,0,1,3.43-2l2.19,1.27-.15.27-2.2-1.26a2.13,2.13,0,0,0-2.1-.23,2.11,2.11,0,0,0-.85,1.93V178a2.38,2.38,0,0,1-1,2.2A1.77,1.77,0,0,1,89.38,180.47Z" transform="translate(0 0)"/><path class="cls-9" d="M85.29,182.82a3.11,3.11,0,0,1-1.5-.46l-10.51-6.07.15-.27L84,182.09a1.79,1.79,0,0,0,3-1.71v-2.54a2.1,2.1,0,0,1,3.43-2l2.2,1.27-.16.28-2.2-1.27a2.13,2.13,0,0,0-2.1-.23,2.11,2.11,0,0,0-.85,1.93v2.54a2.37,2.37,0,0,1-1,2.2A1.77,1.77,0,0,1,85.29,182.82Z" transform="translate(0 0)"/><path class="cls-9" d="M179.72,138.33a1.77,1.77,0,0,1-.91-.24,2.37,2.37,0,0,1-1-2.2v-2.54a2.11,2.11,0,0,0-.85-1.93,2.13,2.13,0,0,0-2.1.23l-2.2,1.26-.15-.27,2.19-1.27a2.1,2.1,0,0,1,3.43,2v2.54a2.08,2.08,0,0,0,.86,1.93,2.1,2.1,0,0,0,2.1-.22l10.51-6.07.16.27-10.52,6.07A3.08,3.08,0,0,1,179.72,138.33Z" transform="translate(0 0)"/><path class="cls-9" d="M183.81,140.68a1.86,1.86,0,0,1-.91-.23,2.39,2.39,0,0,1-1-2.21v-2.53a1.79,1.79,0,0,0-2.95-1.71l-2.2,1.27-.16-.28,2.2-1.26a2.36,2.36,0,0,1,2.41-.23,2.39,2.39,0,0,1,1,2.21v2.53a1.79,1.79,0,0,0,3,1.71l10.52-6.07.15.27-10.51,6.07A3,3,0,0,1,183.81,140.68Z" transform="translate(0 0)"/><path class="cls-9" d="M187.9,143a1.9,1.9,0,0,1-.92-.23,2.4,2.4,0,0,1-1-2.21v-2.53a2.08,2.08,0,0,0-.86-1.93,2.1,2.1,0,0,0-2.1.22l-2.19,1.27-.16-.27,2.2-1.27a2.1,2.1,0,0,1,3.43,2v2.53a1.79,1.79,0,0,0,3,1.71l10.51-6.07.16.27-10.51,6.07A3,3,0,0,1,187.9,143Z" transform="translate(0 0)"/><path class="cls-9" d="M192,145.38a1.79,1.79,0,0,1-.91-.23,2.4,2.4,0,0,1-1-2.21v-2.53a1.8,1.8,0,0,0-3-1.71L184.91,140l-.16-.27,2.19-1.27a2.1,2.1,0,0,1,3.44,2v2.53a1.79,1.79,0,0,0,3,1.71l10.51-6.07.16.28-10.51,6.06A3,3,0,0,1,192,145.38Z" transform="translate(0 0)"/><path class="cls-9" d="M196.07,147.74a1.77,1.77,0,0,1-.91-.24,2.4,2.4,0,0,1-1-2.2v-2.54a1.8,1.8,0,0,0-3-1.71L189,142.32l-.16-.27,2.19-1.27a2.1,2.1,0,0,1,3.43,2v2.54a1.79,1.79,0,0,0,3,1.7l10.51-6.07.16.28-10.51,6.07A3.12,3.12,0,0,1,196.07,147.74Z" transform="translate(0 0)"/><path class="cls-9" d="M200.16,150.09a1.77,1.77,0,0,1-.91-.24,2.38,2.38,0,0,1-1-2.2v-2.54a1.79,1.79,0,0,0-3-1.7l-2.2,1.26-.15-.27,2.19-1.27a2.1,2.1,0,0,1,3.43,2v2.54a2.11,2.11,0,0,0,.86,1.93,2.08,2.08,0,0,0,2.1-.23L212,143.29l.16.27-10.51,6.07A3.15,3.15,0,0,1,200.16,150.09Z" transform="translate(0 0)"/><path class="cls-9" d="M204.25,152.44a1.77,1.77,0,0,1-.91-.24,2.37,2.37,0,0,1-1-2.2v-2.54a2.08,2.08,0,0,0-.85-1.92,2.1,2.1,0,0,0-2.1.22l-2.2,1.27-.16-.28,2.2-1.27a2.1,2.1,0,0,1,3.43,2V150a2.08,2.08,0,0,0,.86,1.93,2.1,2.1,0,0,0,2.1-.22l10.51-6.07.15.27L205.75,152A3,3,0,0,1,204.25,152.44Z" transform="translate(0 0)"/><path class="cls-9" d="M208.34,154.79a1.84,1.84,0,0,1-.91-.23,2.39,2.39,0,0,1-1-2.21v-2.53a1.79,1.79,0,0,0-2.95-1.71l-2.2,1.27-.16-.28,2.2-1.26a2.36,2.36,0,0,1,2.41-.23,2.39,2.39,0,0,1,1,2.21v2.53a1.79,1.79,0,0,0,3,1.71L220.19,148l.16.27-10.51,6.07A3,3,0,0,1,208.34,154.79Z" transform="translate(0 0)"/><path class="cls-9" d="M212.42,157.14a1.89,1.89,0,0,1-.91-.23,2.4,2.4,0,0,1-1-2.21v-2.53a1.8,1.8,0,0,0-3-1.71l-2.19,1.27-.16-.27,2.2-1.27a2.1,2.1,0,0,1,3.43,2v2.53a1.79,1.79,0,0,0,3,1.71l10.51-6.07.16.28-10.51,6.06A3,3,0,0,1,212.42,157.14Z" transform="translate(0 0)"/><path class="cls-9" d="M216.51,159.49a1.76,1.76,0,0,1-.91-.23,2.4,2.4,0,0,1-1-2.21v-2.53a1.8,1.8,0,0,0-3-1.71l-2.19,1.27-.16-.27,2.19-1.27a2.1,2.1,0,0,1,3.43,2v2.53a1.8,1.8,0,0,0,3,1.71l10.51-6.07.16.28L218,159A3.1,3.1,0,0,1,216.51,159.49Z" transform="translate(0 0)"/><path class="cls-9" d="M220.6,161.85a1.77,1.77,0,0,1-.91-.24,2.4,2.4,0,0,1-1-2.2v-2.54a1.8,1.8,0,0,0-3-1.71l-2.2,1.27-.15-.27,2.19-1.27a2.1,2.1,0,0,1,3.43,2v2.54a2.11,2.11,0,0,0,.86,1.93,2.08,2.08,0,0,0,2.1-.23L232.46,155l.16.28-10.51,6.07A3.12,3.12,0,0,1,220.6,161.85Z" transform="translate(0 0)"/><path class="cls-9" d="M224.69,164.2a1.77,1.77,0,0,1-.91-.24,2.38,2.38,0,0,1-1-2.2v-2.54a1.79,1.79,0,0,0-2.95-1.7l-2.2,1.26-.16-.27,2.2-1.27a2.1,2.1,0,0,1,3.43,2v2.54a1.79,1.79,0,0,0,3,1.7l10.51-6.06.15.27-10.51,6.07A3.08,3.08,0,0,1,224.69,164.2Z" transform="translate(0 0)"/><path class="cls-9" d="M228.78,166.55a1.77,1.77,0,0,1-.91-.24,2.37,2.37,0,0,1-1-2.2v-2.53a1.79,1.79,0,0,0-2.95-1.71l-2.2,1.27-.16-.28,2.2-1.27a2.1,2.1,0,0,1,3.43,2v2.53a1.79,1.79,0,0,0,3,1.71l10.51-6.07.16.27-10.51,6.07A3,3,0,0,1,228.78,166.55Z" transform="translate(0 0)"/><path class="cls-9" d="M232.86,168.9a1.89,1.89,0,0,1-.91-.23,2.4,2.4,0,0,1-1-2.21v-2.53a2.08,2.08,0,0,0-.86-1.93,2.1,2.1,0,0,0-2.1.22l-2.19,1.27-.16-.28,2.2-1.26a2.1,2.1,0,0,1,3.43,2v2.53a1.79,1.79,0,0,0,3,1.71l10.51-6.07.16.27-10.51,6.07A3,3,0,0,1,232.86,168.9Z" transform="translate(0 0)"/><path class="cls-9" d="M237,171.25A1.86,1.86,0,0,1,236,171a2.4,2.4,0,0,1-1-2.21v-2.53a1.8,1.8,0,0,0-3-1.71l-2.19,1.27-.16-.27,2.19-1.27a2.1,2.1,0,0,1,3.43,2v2.53a1.8,1.8,0,0,0,3,1.71l10.51-6.07.16.27-10.51,6.07A3,3,0,0,1,237,171.25Z" transform="translate(0 0)"/><path class="cls-9" d="M241,173.6a1.76,1.76,0,0,1-.91-.23,2.4,2.4,0,0,1-1-2.21v-2.53a1.8,1.8,0,0,0-3-1.71L234,168.19l-.16-.27,2.19-1.27a2.1,2.1,0,0,1,3.43,2v2.53a1.8,1.8,0,0,0,3,1.71l10.51-6.07.16.28-10.51,6.07A3.1,3.1,0,0,1,241,173.6Z" transform="translate(0 0)"/><path class="cls-9" d="M245.13,176a1.77,1.77,0,0,1-.91-.24,2.38,2.38,0,0,1-1-2.2V171a2.11,2.11,0,0,0-.85-1.93,2.08,2.08,0,0,0-2.1.23l-2.2,1.26-.15-.27,2.19-1.27a2.1,2.1,0,0,1,3.43,2v2.54a1.79,1.79,0,0,0,3,1.7L257,169.16l.16.27-10.52,6.07A3.08,3.08,0,0,1,245.13,176Z" transform="translate(0 0)"/><path class="cls-9" d="M249.22,178.31a1.77,1.77,0,0,1-.91-.24,2.38,2.38,0,0,1-1-2.2v-2.54a2.11,2.11,0,0,0-.85-1.93,2.08,2.08,0,0,0-2.1.23l-2.2,1.26-.16-.27,2.2-1.27a2.1,2.1,0,0,1,3.43,2v2.54a1.79,1.79,0,0,0,2.95,1.71l10.52-6.07.15.27-10.51,6.07A3.11,3.11,0,0,1,249.22,178.31Z" transform="translate(0 0)"/><path class="cls-9" d="M253.31,180.66a1.74,1.74,0,0,1-.91-.24,2.37,2.37,0,0,1-1-2.2v-2.53a1.79,1.79,0,0,0-3-1.71l-2.19,1.27-.16-.28,2.2-1.27a2.1,2.1,0,0,1,3.43,2v2.53a1.79,1.79,0,0,0,3,1.71l10.51-6.07.16.27-10.51,6.07A3,3,0,0,1,253.31,180.66Z" transform="translate(0 0)"/><path class="cls-9" d="M257.39,183a1.89,1.89,0,0,1-.91-.23,2.4,2.4,0,0,1-1-2.21V178a1.8,1.8,0,0,0-3-1.71l-2.19,1.27-.16-.28,2.19-1.26a2.1,2.1,0,0,1,3.44,2v2.53a1.79,1.79,0,0,0,3,1.71l10.51-6.07.16.27-10.51,6.07A3,3,0,0,1,257.39,183Z" transform="translate(0 0)"/><polygon class="cls-12" points="252.14 178.37 252.14 187.71 171.38 234.34 90.61 187.7 90.61 178.37 252.14 178.37"/><polygon class="cls-11" points="171.38 225 90.61 178.37 171.38 131.74 252.14 178.37 171.38 225"/><polygon class="cls-6" points="171.38 223.91 91.55 177.82 90.61 178.37 171.38 225 252.14 178.37 251.2 177.83 171.38 223.91"/><polygon class="cls-13" points="171.38 214.25 109.26 178.38 171.38 142.51 233.5 178.38 171.38 214.25"/><polygon class="cls-14" points="171.38 214.25 109.25 178.38 171.38 142.51 233.5 178.38 171.38 214.25"/><polygon class="cls-15" points="171.38 133.47 233.5 169.34 233.5 178.38 171.38 142.51 171.38 133.47"/><polygon class="cls-16" points="171.38 142.51 109.25 178.38 109.25 169.34 171.38 133.47 171.38 142.51"/><polygon class="cls-17" points="171.38 205.2 109.25 169.34 171.38 133.47 233.5 169.34 171.38 205.2"/><polygon class="cls-18" points="171.38 183.67 146.55 169.34 171.38 155.01 196.2 169.34 171.38 183.67"/><polygon class="cls-18" points="171.38 156.32 195.06 170 196.2 169.34 171.38 155.01 146.55 169.34 147.7 170 171.38 156.32"/><polygon class="cls-19" points="171.38 205.2 171.38 214.25 233.5 178.38 233.5 169.34 171.38 205.2"/><polygon class="cls-20" points="109.25 169.34 109.25 178.38 171.38 214.25 171.38 205.2 109.25 169.34"/><polygon class="cls-21" points="171.38 204.22 110.11 168.84 109.25 169.34 171.38 205.2 233.5 169.34 232.64 168.84 171.38 204.22"/><path class="cls-9" d="M191.58,245.3l-10.51-6.07a7.23,7.23,0,0,1-3.28-5.67V231a6.88,6.88,0,0,0-3.11-5.39l-2.19-1.27.15-.28,2.2,1.27a7.26,7.26,0,0,1,3.27,5.67v2.53a6.91,6.91,0,0,0,3.11,5.4L191.74,245Z" transform="translate(0 0)"/><path class="cls-9" d="M195.67,242.94l-10.52-6.06a7.27,7.27,0,0,1-3.27-5.67v-2.54a6.88,6.88,0,0,0-3.11-5.39l-2.2-1.27.16-.27,2.2,1.27a7.24,7.24,0,0,1,3.27,5.66v2.54a6.9,6.9,0,0,0,3.11,5.39l10.51,6.07Z" transform="translate(0 0)"/><path class="cls-9" d="M199.75,240.59l-10.51-6.07a7.24,7.24,0,0,1-3.27-5.67v-2.53a6.94,6.94,0,0,0-3.11-5.4l-2.2-1.26.16-.28,2.19,1.27a7.24,7.24,0,0,1,3.28,5.67v2.53a6.91,6.91,0,0,0,3.11,5.4l10.51,6.07Z" transform="translate(0 0)"/><path class="cls-9" d="M203.84,238.23l-10.51-6.07a7.24,7.24,0,0,1-3.27-5.66V224a6.89,6.89,0,0,0-3.12-5.39l-2.19-1.27.16-.27,2.19,1.26a7.26,7.26,0,0,1,3.28,5.67v2.54a6.88,6.88,0,0,0,3.11,5.39L204,238Z" transform="translate(0 0)"/><path class="cls-9" d="M207.93,235.88l-10.51-6.07a7.23,7.23,0,0,1-3.27-5.67v-2.53a6.89,6.89,0,0,0-3.12-5.4L188.84,215l.16-.28,2.19,1.27a7.22,7.22,0,0,1,3.27,5.67v2.53a6.92,6.92,0,0,0,3.12,5.4l10.51,6.06Z" transform="translate(0 0)"/><path class="cls-9" d="M212,233.52l-10.51-6.07a7.21,7.21,0,0,1-3.27-5.66v-2.54a6.89,6.89,0,0,0-3.12-5.39l-2.19-1.27.15-.27,2.2,1.26a7.26,7.26,0,0,1,3.27,5.67v2.54a6.89,6.89,0,0,0,3.12,5.39l10.51,6.07Z" transform="translate(0 0)"/><path class="cls-9" d="M216.11,231.16,205.6,225.1a7.24,7.24,0,0,1-3.28-5.67v-2.54a6.88,6.88,0,0,0-3.11-5.39l-2.2-1.27.16-.27,2.2,1.27a7.24,7.24,0,0,1,3.27,5.66v2.54a6.9,6.9,0,0,0,3.11,5.39l10.51,6.07Z" transform="translate(0 0)"/><path class="cls-9" d="M220.19,228.81l-10.51-6.07a7.24,7.24,0,0,1-3.27-5.67v-2.53a6.9,6.9,0,0,0-3.11-5.39l-2.2-1.27.16-.28,2.2,1.27a7.24,7.24,0,0,1,3.27,5.67v2.53a6.88,6.88,0,0,0,3.11,5.4l10.51,6.07Z" transform="translate(0 0)"/><path class="cls-9" d="M224.28,226.45l-10.51-6.06a7.27,7.27,0,0,1-3.27-5.67v-2.54a6.9,6.9,0,0,0-3.11-5.39l-2.2-1.27.16-.27,2.19,1.27a7.22,7.22,0,0,1,3.28,5.66v2.54a6.88,6.88,0,0,0,3.11,5.39l10.51,6.07Z" transform="translate(0 0)"/><path class="cls-9" d="M228.37,224.1,217.86,218a7.24,7.24,0,0,1-3.27-5.67v-2.53a6.9,6.9,0,0,0-3.12-5.4l-2.19-1.26.16-.28,2.19,1.27a7.22,7.22,0,0,1,3.27,5.67v2.53a6.9,6.9,0,0,0,3.12,5.4l10.51,6.06Z" transform="translate(0 0)"/><path class="cls-9" d="M232.46,221.74,222,215.67a7.21,7.21,0,0,1-3.27-5.66v-2.54a6.89,6.89,0,0,0-3.12-5.39l-2.19-1.27.15-.27,2.2,1.26a7.27,7.27,0,0,1,3.27,5.67V210a6.89,6.89,0,0,0,3.12,5.39l10.51,6.07Z" transform="translate(0 0)"/><path class="cls-9" d="M236.55,219.39,226,213.32a7.24,7.24,0,0,1-3.28-5.67v-2.53a6.88,6.88,0,0,0-3.11-5.4l-2.2-1.27.16-.27,2.2,1.27a7.24,7.24,0,0,1,3.27,5.67v2.53a6.9,6.9,0,0,0,3.11,5.39l10.51,6.07Z" transform="translate(0 0)"/><path class="cls-9" d="M240.63,217,230.12,211a7.24,7.24,0,0,1-3.27-5.67v-2.53a6.9,6.9,0,0,0-3.11-5.39l-2.2-1.27.16-.27,2.2,1.26a7.26,7.26,0,0,1,3.27,5.67v2.53a6.91,6.91,0,0,0,3.11,5.4l10.51,6.07Z" transform="translate(0 0)"/><path class="cls-9" d="M244.72,214.67l-10.51-6.06a7.27,7.27,0,0,1-3.27-5.67V200.4a6.9,6.9,0,0,0-3.11-5.39l-2.2-1.27.16-.27,2.19,1.27a7.22,7.22,0,0,1,3.28,5.66v2.54a6.88,6.88,0,0,0,3.11,5.39l10.51,6.07Z" transform="translate(0 0)"/><path class="cls-9" d="M248.81,212.32l-10.51-6.07a7.24,7.24,0,0,1-3.27-5.67v-2.53a6.92,6.92,0,0,0-3.12-5.4l-2.19-1.26.16-.28,2.19,1.27a7.23,7.23,0,0,1,3.27,5.67v2.53a6.89,6.89,0,0,0,3.12,5.4L249,212Z" transform="translate(0 0)"/><path class="cls-9" d="M252.9,210l-10.51-6.07a7.21,7.21,0,0,1-3.27-5.66v-2.54A6.89,6.89,0,0,0,236,190.3L233.81,189l.16-.27,2.19,1.27a7.21,7.21,0,0,1,3.27,5.66v2.54a6.89,6.89,0,0,0,3.12,5.39l10.51,6.07Z" transform="translate(0 0)"/><path class="cls-9" d="M257,207.61l-10.51-6.07a7.24,7.24,0,0,1-3.28-5.67v-2.53a6.88,6.88,0,0,0-3.11-5.4l-2.19-1.26.15-.28,2.2,1.27a7.24,7.24,0,0,1,3.27,5.67v2.53a6.94,6.94,0,0,0,3.11,5.4l10.52,6.06Z" transform="translate(0 0)"/><path class="cls-9" d="M261.08,205.25l-10.52-6.07a7.24,7.24,0,0,1-3.27-5.66V191a6.88,6.88,0,0,0-3.11-5.39l-2.2-1.27.16-.27,2.2,1.26a7.27,7.27,0,0,1,3.27,5.67v2.54a6.9,6.9,0,0,0,3.11,5.39L261.23,205Z" transform="translate(0 0)"/><path class="cls-9" d="M265.16,202.9l-10.51-6.07a7.26,7.26,0,0,1-3.27-5.67v-2.54a6.9,6.9,0,0,0-3.11-5.39l-2.2-1.27.16-.27,2.19,1.27a7.22,7.22,0,0,1,3.28,5.66v2.54a6.88,6.88,0,0,0,3.11,5.39l10.51,6.07Z" transform="translate(0 0)"/><path class="cls-9" d="M269.25,200.54l-10.51-6.07a7.24,7.24,0,0,1-3.27-5.67v-2.53a6.89,6.89,0,0,0-3.12-5.39l-2.19-1.27.16-.28,2.19,1.27a7.24,7.24,0,0,1,3.28,5.67v2.53a6.88,6.88,0,0,0,3.11,5.4l10.51,6.07Z" transform="translate(0 0)"/><path class="cls-9" d="M150.89,245.3l-.16-.27L161.24,239a6.89,6.89,0,0,0,3.12-5.4V231a7.23,7.23,0,0,1,3.27-5.67l2.19-1.27.16.28-2.19,1.27a6.89,6.89,0,0,0-3.12,5.39v2.53a7.22,7.22,0,0,1-3.27,5.67Z" transform="translate(0 0)"/><path class="cls-9" d="M146.8,242.94l-.16-.27,10.51-6.07a6.89,6.89,0,0,0,3.12-5.39v-2.54a7.24,7.24,0,0,1,3.27-5.66l2.2-1.27.15.27-2.19,1.27a6.88,6.88,0,0,0-3.11,5.39v2.54a7.26,7.26,0,0,1-3.28,5.67Z" transform="translate(0 0)"/><path class="cls-9" d="M142.71,240.59l-.15-.27,10.51-6.07a6.94,6.94,0,0,0,3.11-5.4v-2.53a7.24,7.24,0,0,1,3.27-5.67l2.2-1.27.16.28-2.2,1.26a6.91,6.91,0,0,0-3.11,5.4v2.53a7.23,7.23,0,0,1-3.28,5.67Z" transform="translate(0 0)"/><path class="cls-9" d="M138.63,238.23l-.16-.27L149,231.89a6.88,6.88,0,0,0,3.11-5.39V224a7.27,7.27,0,0,1,3.27-5.67l2.2-1.26.16.27-2.2,1.27a6.9,6.9,0,0,0-3.11,5.39v2.54a7.24,7.24,0,0,1-3.27,5.66Z" transform="translate(0 0)"/><path class="cls-9" d="M134.54,235.88l-.16-.28,10.51-6.06a6.91,6.91,0,0,0,3.11-5.4v-2.53a7.23,7.23,0,0,1,3.28-5.67l2.19-1.27.16.28-2.2,1.26a6.91,6.91,0,0,0-3.11,5.4v2.53a7.26,7.26,0,0,1-3.27,5.67Z" transform="translate(0 0)"/><path class="cls-9" d="M130.45,233.52l-.16-.27,10.51-6.07a6.89,6.89,0,0,0,3.12-5.39v-2.54a7.23,7.23,0,0,1,3.27-5.67l2.19-1.26.16.27-2.19,1.27a6.89,6.89,0,0,0-3.12,5.39v2.54a7.24,7.24,0,0,1-3.27,5.66Z" transform="translate(0 0)"/><path class="cls-9" d="M126.36,231.16l-.16-.27,10.51-6.07a6.89,6.89,0,0,0,3.12-5.39v-2.54a7.24,7.24,0,0,1,3.27-5.66l2.2-1.27.15.27-2.19,1.27a6.89,6.89,0,0,0-3.12,5.39v2.54a7.23,7.23,0,0,1-3.27,5.67Z" transform="translate(0 0)"/><path class="cls-9" d="M122.27,228.81l-.15-.27,10.51-6.07a6.91,6.91,0,0,0,3.11-5.4v-2.53a7.24,7.24,0,0,1,3.27-5.67l2.2-1.27.16.28-2.2,1.27a6.88,6.88,0,0,0-3.11,5.39v2.53a7.23,7.23,0,0,1-3.28,5.67Z" transform="translate(0 0)"/><path class="cls-9" d="M101.22,236l-.07,0L56.44,210.3l.16-.27,44.63,25.62,16.8-9.47,10.51-6.07a6.88,6.88,0,0,0,3.11-5.39v-2.54a7.24,7.24,0,0,1,3.27-5.66l2.2-1.27.16.27-2.2,1.27a6.9,6.9,0,0,0-3.11,5.39v2.54a7.27,7.27,0,0,1-3.27,5.67l-10.51,6.06Z" transform="translate(0 0)"/><path class="cls-9" d="M114.1,224.1l-.16-.28,10.51-6.06a6.89,6.89,0,0,0,3.11-5.4v-2.53a7.23,7.23,0,0,1,3.28-5.67l2.19-1.27.16.28-2.2,1.26a6.92,6.92,0,0,0-3.11,5.4v2.53a7.24,7.24,0,0,1-3.27,5.67Z" transform="translate(0 0)"/><path class="cls-9" d="M110,221.74l-.16-.27,10.51-6.07a6.89,6.89,0,0,0,3.12-5.39v-2.54a7.25,7.25,0,0,1,3.27-5.67l2.19-1.26.16.27-2.19,1.27a6.89,6.89,0,0,0-3.12,5.39V210a7.24,7.24,0,0,1-3.27,5.66Z" transform="translate(0 0)"/><path class="cls-9" d="M105.92,219.39l-.16-.28L116.27,213a6.89,6.89,0,0,0,3.12-5.39v-2.53a7.24,7.24,0,0,1,3.27-5.67l2.2-1.27.15.27-2.19,1.27a6.89,6.89,0,0,0-3.12,5.4v2.53a7.23,7.23,0,0,1-3.27,5.67Z" transform="translate(0 0)"/><path class="cls-9" d="M101.83,217l-.16-.27,10.52-6.07a6.91,6.91,0,0,0,3.11-5.4v-2.53a7.26,7.26,0,0,1,3.27-5.67l2.2-1.26.15.27-2.19,1.27a6.88,6.88,0,0,0-3.11,5.39v2.53a7.23,7.23,0,0,1-3.28,5.67Z" transform="translate(0 0)"/><path class="cls-9" d="M97.74,214.67l-.15-.27,10.51-6.07a6.9,6.9,0,0,0,3.11-5.39V200.4a7.24,7.24,0,0,1,3.27-5.66l2.2-1.27.16.27-2.2,1.27a6.88,6.88,0,0,0-3.11,5.39v2.54a7.27,7.27,0,0,1-3.27,5.67Z" transform="translate(0 0)"/><path class="cls-9" d="M93.66,212.32,93.5,212,104,206a6.88,6.88,0,0,0,3.11-5.4v-2.53a7.24,7.24,0,0,1,3.28-5.67l2.19-1.27.16.28-2.2,1.26a6.94,6.94,0,0,0-3.11,5.4v2.53a7.24,7.24,0,0,1-3.27,5.67Z" transform="translate(0 0)"/><path class="cls-9" d="M89.57,210l-.16-.27,10.51-6.07a6.88,6.88,0,0,0,3.11-5.39v-2.54a7.22,7.22,0,0,1,3.28-5.66l2.19-1.27.16.27-2.19,1.27a6.89,6.89,0,0,0-3.12,5.39v2.54a7.24,7.24,0,0,1-3.27,5.66Z" transform="translate(0 0)"/><path class="cls-9" d="M85.48,207.61l-.16-.28,10.51-6.06a6.92,6.92,0,0,0,3.12-5.4v-2.53a7.22,7.22,0,0,1,3.27-5.67l2.19-1.27.16.28-2.19,1.26a6.89,6.89,0,0,0-3.12,5.4v2.53A7.23,7.23,0,0,1,96,201.54Z" transform="translate(0 0)"/><path class="cls-9" d="M81.39,205.25l-.16-.27,10.51-6.07a6.89,6.89,0,0,0,3.12-5.39V191a7.27,7.27,0,0,1,3.27-5.67l2.2-1.26.15.27-2.19,1.27A6.89,6.89,0,0,0,95.17,191v2.54a7.21,7.21,0,0,1-3.27,5.66Z" transform="translate(0 0)"/><path class="cls-9" d="M77.3,202.9l-.15-.28,10.51-6.07a6.9,6.9,0,0,0,3.11-5.39v-2.54A7.24,7.24,0,0,1,94,183l2.2-1.27.16.27-2.2,1.27a6.88,6.88,0,0,0-3.11,5.39v2.54a7.24,7.24,0,0,1-3.28,5.67Z" transform="translate(0 0)"/><path class="cls-9" d="M73.22,200.54l-.16-.27,10.51-6.07a6.88,6.88,0,0,0,3.11-5.4v-2.53A7.26,7.26,0,0,1,90,180.6l2.2-1.27.16.28-2.2,1.27A6.9,6.9,0,0,0,87,186.27v2.53a7.24,7.24,0,0,1-3.27,5.67Z" transform="translate(0 0)"/><g class="cls-4"><polygon class="cls-3" points="90.61 156.34 75.54 147.64 75.54 165.04 90.61 173.74 105.68 165.04 105.68 147.64 90.61 156.34"/><polygon class="cls-3" points="90.61 173.74 75.54 165.04 75.54 147.64 90.61 156.34 90.61 173.74"/><polygon class="cls-5" points="105.68 165.04 90.61 173.74 90.61 156.34 105.68 147.64 105.68 165.04"/><polygon class="cls-3" points="90.61 156.34 75.54 147.64 90.61 138.94 105.68 147.64 90.61 156.34"/><polygon class="cls-6" points="90.61 156.34 75.54 147.64 75.54 148.4 90.61 157.09 105.68 148.4 105.68 147.64 90.61 156.34"/></g><polygon class="cls-22" points="90.61 145.79 75.54 137.09 90.61 128.4 105.68 137.09 90.61 145.79"/><polygon class="cls-3" points="90.61 115.22 75.54 106.52 75.54 123.92 90.61 132.62 105.68 123.92 105.68 106.52 90.61 115.22"/><polygon class="cls-3" points="90.61 132.62 75.54 123.92 75.54 106.52 90.61 115.22 90.61 132.62"/><polygon class="cls-5" points="105.68 123.92 90.61 132.62 90.61 115.22 105.68 106.52 105.68 123.92"/><polygon class="cls-3" points="90.61 115.22 75.54 106.52 90.61 97.82 105.68 106.52 90.61 115.22"/><polygon class="cls-5" points="90.61 113.08 79.25 106.52 90.61 99.96 101.97 106.52 90.61 113.08"/><polygon class="cls-6" points="90.61 115.22 75.54 106.52 75.54 107.27 90.61 115.97 105.68 107.27 105.68 106.52 90.61 115.22"/><polygon class="cls-3" points="90.61 89.12 75.54 80.42 75.54 97.82 90.61 106.52 105.68 97.82 105.68 80.42 90.61 89.12"/><polygon class="cls-3" points="90.61 106.52 75.54 97.82 75.54 80.42 90.61 89.12 90.61 106.52"/><polygon class="cls-5" points="105.68 97.82 90.61 106.52 90.61 89.12 105.68 80.42 105.68 97.82"/><polygon class="cls-3" points="90.61 89.12 75.54 80.42 90.61 71.72 105.68 80.42 90.61 89.12"/><polygon class="cls-6" points="90.61 89.12 75.54 80.42 75.54 81.17 90.61 89.88 105.68 81.18 105.68 80.42 90.61 89.12"/><g class="cls-4"><polygon class="cls-3" points="288.94 166.35 273.87 157.66 273.87 175.05 288.94 183.75 304 175.05 304 157.66 288.94 166.35"/><polygon class="cls-3" points="288.94 183.75 273.87 175.05 273.87 157.66 288.94 166.35 288.94 183.75"/><polygon class="cls-5" points="304 175.05 288.94 183.75 288.94 166.35 304 157.66 304 175.05"/><polygon class="cls-3" points="288.94 166.35 273.87 157.66 288.94 148.96 304 157.66 288.94 166.35"/><polygon class="cls-6" points="288.94 166.35 273.87 157.66 273.87 158.41 288.94 167.11 304 158.41 304 157.66 288.94 166.35"/></g><path class="cls-9" d="M289.33,159.89l-.08,0L267.2,147.11l.23-.14,21.9-12.64.08,0,22.06,12.74-.24.14Zm-21.5-12.78,21.5,12.41,21.51-12.41-21.51-12.42Z" transform="translate(0 0)"/><polygon class="cls-22" points="288.94 155.81 273.87 147.11 288.94 138.41 304 147.11 288.94 155.81"/><polygon class="cls-3" points="288.94 125.23 273.87 116.53 273.87 133.93 288.94 142.63 304 133.93 304 116.53 288.94 125.23"/><polygon class="cls-3" points="288.94 142.63 273.87 133.93 273.87 116.53 288.94 125.23 288.94 142.63"/><polygon class="cls-5" points="304 133.93 288.94 142.63 288.94 125.23 304 116.53 304 133.93"/><polygon class="cls-3" points="288.94 125.23 273.87 116.53 288.94 107.83 304 116.53 288.94 125.23"/><polygon class="cls-6" points="288.94 125.23 273.87 116.53 273.87 117.29 288.94 125.99 304 117.29 304 116.53 288.94 125.23"/><path class="cls-9" d="M45.71,216.58l-.08,0L23.58,203.8l.23-.14L45.71,191l.08,0L67.85,203.8l-.24.14ZM24.21,203.8l21.5,12.42L67.22,203.8,45.71,191.39Z" transform="translate(0 0)"/><g class="cls-4"><polygon class="cls-3" points="45.71 223.32 30.65 214.62 30.65 232.02 45.71 240.72 60.78 232.02 60.78 214.62 45.71 223.32"/><polygon class="cls-3" points="45.71 240.72 30.65 232.02 30.65 214.62 45.71 223.32 45.71 240.72"/><polygon class="cls-5" points="60.78 232.02 45.71 240.72 45.71 223.32 60.78 214.62 60.78 232.02"/><polygon class="cls-3" points="45.71 223.32 30.65 214.62 45.71 205.92 60.78 214.62 45.71 223.32"/><polygon class="cls-6" points="45.71 223.32 30.65 214.62 30.65 215.38 45.71 224.07 60.78 215.38 60.78 214.62 45.71 223.32"/></g><polygon class="cls-22" points="45.71 212.77 30.65 204.07 45.71 195.38 60.78 204.07 45.71 212.77"/><polygon class="cls-3" points="45.71 182.2 30.65 173.5 30.65 190.9 45.71 199.6 60.78 190.9 60.78 173.5 45.71 182.2"/><polygon class="cls-3" points="45.71 199.6 30.65 190.9 30.65 173.5 45.71 182.2 45.71 199.6"/><polygon class="cls-5" points="60.78 190.9 45.71 199.6 45.71 182.2 60.78 173.5 60.78 190.9"/><polygon class="cls-3" points="45.71 182.2 30.65 173.5 45.71 164.8 60.78 173.5 45.71 182.2"/><polygon class="cls-6" points="45.71 182.2 30.65 173.5 30.65 174.25 45.71 182.95 60.78 174.25 60.78 173.5 45.71 182.2"/><g class="cls-4"><polygon class="cls-3" points="169.9 306.24 154.84 297.54 154.84 314.94 169.9 323.64 184.97 314.94 184.97 297.54 169.9 306.24"/><polygon class="cls-3" points="169.9 323.64 154.84 314.94 154.84 297.54 169.9 306.24 169.9 323.64"/><polygon class="cls-5" points="184.97 314.94 169.9 323.64 169.9 306.24 184.97 297.54 184.97 314.94"/><polygon class="cls-3" points="169.9 306.24 154.84 297.54 169.9 288.84 184.97 297.54 169.9 306.24"/><polygon class="cls-6" points="169.9 306.24 154.84 297.54 154.84 298.3 169.9 307 184.97 298.3 184.97 297.54 169.9 306.24"/></g><polygon class="cls-22" points="169.9 295.69 154.84 287 169.9 278.3 184.97 287 169.9 295.69"/><polygon class="cls-3" points="169.9 265.12 154.84 256.42 154.84 273.82 169.9 282.52 184.97 273.82 184.97 256.42 169.9 265.12"/><polygon class="cls-3" points="169.9 282.52 154.84 273.82 154.84 256.42 169.9 265.12 169.9 282.52"/><polygon class="cls-5" points="184.97 273.82 169.9 282.52 169.9 265.12 184.97 256.42 184.97 273.82"/><polygon class="cls-3" points="169.9 265.12 154.84 256.42 169.9 247.72 184.97 256.42 169.9 265.12"/><polygon class="cls-6" points="169.9 265.12 154.84 256.42 154.84 257.17 169.9 265.87 184.97 257.17 184.97 256.42 169.9 265.12"/><g class="cls-4"><polygon class="cls-3" points="293.8 265.5 306.84 277.02 310.3 259.97 297.26 248.45 280.76 253.98 277.3 271.03 293.8 265.5"/><polygon class="cls-3" points="297.26 248.45 310.3 259.97 306.84 277.02 293.8 265.5 297.26 248.45"/><polygon class="cls-5" points="280.76 253.98 297.26 248.45 293.8 265.5 277.3 271.03 280.76 253.98"/><polygon class="cls-3" points="293.8 265.5 306.84 277.02 290.34 282.55 277.31 271.03 293.8 265.5"/><polygon class="cls-6" points="293.8 265.5 306.84 277.02 306.99 276.28 293.95 264.76 277.45 270.29 277.3 271.03 293.8 265.5"/></g><polygon class="cls-22" points="296.47 258.87 281.4 250.17 296.47 241.47 311.54 250.17 296.47 258.87"/><path class="cls-23" d="M296.47,274c-9.93,0-19.86-2.18-27.42-6.55-7.36-4.24-11.41-9.9-11.41-15.92s4.05-11.68,11.41-15.93c15.12-8.72,39.72-8.73,54.84,0,7.36,4.25,11.41,9.91,11.41,15.93s-4.05,11.68-11.41,15.92C316.33,271.8,306.4,274,296.47,274Zm0-44.63c-9.88,0-19.75,2.17-27.26,6.51C262,240,258,245.6,258,251.51s4,11.46,11.25,15.65c15,8.68,39.49,8.68,54.53,0C331,263,335,257.41,335,251.51s-4-11.46-11.25-15.65C316.22,231.52,306.34,229.35,296.47,229.35Z" transform="translate(0 0)"/><path class="cls-24" d="M296.47,280c-12.6,0-25.2-2.77-34.8-8.31-9.32-5.38-14.46-12.55-14.46-20.18s5.14-14.8,14.46-20.18c19.19-11.08,50.41-11.08,69.6,0,9.32,5.38,14.46,12.55,14.46,20.18s-5.14,14.8-14.46,20.18l-.08-.14.08.14C321.67,277.23,309.07,280,296.47,280Zm0-56.67c-12.55,0-25.09,2.76-34.64,8.27-9.22,5.32-14.3,12.39-14.3,19.91s5.08,14.58,14.3,19.91c19.1,11,50.18,11,69.28,0h0c9.22-5.33,14.3-12.4,14.3-19.91s-5.08-14.58-14.3-19.91C321.56,226.09,309,223.33,296.47,223.33Z" transform="translate(0 0)"/><path class="cls-3" d="M296.47,269.24c-7.83,0-15.65-1.72-21.61-5.16s-9-7.82-9-12.57,3.19-9.22,9-12.57c11.91-6.88,31.3-6.88,43.22,0,5.81,3.35,9,7.81,9,12.57s-3.19,9.22-9,12.57S304.3,269.24,296.47,269.24Zm0-35.15c-7.77,0-15.54,1.71-21.46,5.12-5.7,3.29-8.84,7.66-8.84,12.3s3.14,9,8.85,12.29c11.83,6.83,31.08,6.83,42.91,0l.07.14-.07-.14c5.7-3.29,8.84-7.65,8.84-12.29s-3.14-9-8.85-12.3C312,235.8,304.24,234.09,296.47,234.09Z" transform="translate(0 0)"/><polygon class="cls-3" points="294.73 234.87 293.01 217.56 278.88 227.71 280.6 245.02 296.46 252.18 310.59 242.03 294.73 234.87"/><polygon class="cls-3" points="280.6 245.02 278.88 227.71 293.01 217.56 294.73 234.87 280.6 245.02"/><polygon class="cls-5" points="296.46 252.18 280.6 245.02 294.73 234.87 310.59 242.03 296.46 252.18"/><polygon class="cls-3" points="294.73 234.87 293.01 217.56 308.86 224.72 310.59 242.03 294.73 234.87"/><polygon class="cls-6" points="294.73 234.87 293.01 217.56 292.4 218 294.12 235.31 309.98 242.47 310.59 242.03 294.73 234.87"/><polygon class="cls-22" points="287.57 248.16 302.05 248.16 296.46 252.18 287.57 248.16"/><polygon class="cls-3" points="171.38 137.79 156.31 129.09 156.31 146.49 171.38 155.19 186.44 146.49 186.44 129.09 171.38 137.79"/><polygon class="cls-3" points="171.38 155.19 156.31 146.49 156.31 129.09 171.38 137.79 171.38 155.19"/><polygon class="cls-5" points="186.44 146.49 171.38 155.19 171.38 137.79 186.44 129.09 186.44 146.49"/><polygon class="cls-3" points="171.38 137.79 156.31 129.09 171.38 120.39 186.44 129.09 171.38 137.79"/><polygon class="cls-6" points="171.38 137.79 156.96 129.47 156.31 129.85 171.38 138.55 186.44 129.85 185.79 129.47 171.38 137.79"/><polygon class="cls-3" points="190.95 148.96 175.88 140.26 175.88 157.66 190.95 166.36 206.02 157.66 206.02 140.26 190.95 148.96"/><polygon class="cls-3" points="190.95 166.36 175.88 157.66 175.88 140.26 190.95 148.96 190.95 166.36"/><polygon class="cls-5" points="206.02 157.66 190.95 166.36 190.95 148.96 206.02 140.26 206.02 157.66"/><polygon class="cls-3" points="190.95 148.96 175.88 140.26 190.95 131.56 206.02 140.26 190.95 148.96"/><polygon class="cls-6" points="190.95 148.96 176.53 140.64 175.88 141.02 190.95 149.72 206.02 141.02 205.36 140.64 190.95 148.96"/><polygon class="cls-3" points="210.52 160.13 195.45 151.43 195.45 168.83 210.52 177.53 225.59 168.83 225.59 151.43 210.52 160.13"/><polygon class="cls-3" points="210.52 177.53 195.45 168.83 195.45 151.43 210.52 160.13 210.52 177.53"/><polygon class="cls-5" points="225.59 168.83 210.52 177.53 210.52 160.13 225.59 151.43 225.59 168.83"/><polygon class="cls-3" points="210.52 160.13 195.45 151.43 210.52 142.73 225.59 151.43 210.52 160.13"/><polygon class="cls-6" points="210.52 160.13 196.11 151.81 195.45 152.18 210.52 160.88 225.59 152.18 225.59 151.43 210.52 160.13"/><polygon class="cls-3" points="151.81 149.72 136.74 141.02 136.74 158.41 151.81 167.11 166.87 158.41 166.87 141.02 151.81 149.72"/><polygon class="cls-3" points="151.81 167.11 136.74 158.41 136.74 141.02 151.81 149.72 151.81 167.11"/><polygon class="cls-5" points="166.87 158.41 151.81 167.11 151.81 149.72 166.87 141.02 166.87 158.41"/><polygon class="cls-3" points="151.81 149.72 136.74 141.02 151.81 132.32 166.87 141.02 151.81 149.72"/><polygon class="cls-6" points="151.81 149.72 137.39 141.39 136.74 141.77 151.81 150.47 166.87 141.77 166.22 141.39 151.81 149.72"/><polygon class="cls-3" points="171.38 160.88 156.31 152.18 156.31 169.58 171.38 178.28 186.44 169.58 186.44 152.18 171.38 160.88"/><polygon class="cls-3" points="171.38 178.28 156.31 169.58 156.31 152.18 171.38 160.88 171.38 178.28"/><polygon class="cls-5" points="186.44 169.58 171.38 178.28 171.38 160.88 186.44 152.18 186.44 169.58"/><polygon class="cls-3" points="171.38 160.88 156.31 152.18 171.38 143.49 186.44 152.18 171.38 160.88"/><polygon class="cls-6" points="171.38 160.88 156.96 152.56 156.31 152.94 171.38 161.64 186.44 152.94 185.79 152.56 171.38 160.88"/><polygon class="cls-3" points="190.95 172.05 175.88 163.35 175.88 180.75 190.95 189.45 206.02 180.75 206.02 163.35 190.95 172.05"/><polygon class="cls-3" points="190.95 189.45 175.88 180.75 175.88 163.35 190.95 172.05 190.95 189.45"/><polygon class="cls-5" points="206.02 180.75 190.95 189.45 190.95 172.05 206.02 163.35 206.02 180.75"/><polygon class="cls-3" points="190.95 172.05 175.88 163.35 190.95 154.65 206.02 163.35 190.95 172.05"/><polygon class="cls-6" points="190.95 172.05 176.53 163.73 175.88 164.1 190.95 172.81 206.02 164.11 206.02 163.35 190.95 172.05"/><polygon class="cls-3" points="132.23 161.64 117.17 152.94 117.17 170.34 132.23 179.04 147.3 170.34 147.3 152.94 132.23 161.64"/><polygon class="cls-3" points="132.23 179.04 117.17 170.34 117.17 152.94 132.23 161.64 132.23 179.04"/><polygon class="cls-5" points="147.3 170.34 132.23 179.04 132.23 161.64 147.3 152.94 147.3 170.34"/><polygon class="cls-3" points="132.23 161.64 117.17 152.94 132.23 144.24 147.3 152.94 132.23 161.64"/><polygon class="cls-6" points="132.23 161.64 117.17 152.94 117.17 153.69 132.23 162.39 147.3 153.69 146.65 153.32 132.23 161.64"/><polygon class="cls-3" points="151.81 172.81 136.74 164.1 136.74 181.5 151.81 190.2 166.87 181.5 166.87 164.1 151.81 172.81"/><polygon class="cls-3" points="151.81 190.2 136.74 181.5 136.74 164.11 151.81 172.81 151.81 190.2"/><polygon class="cls-5" points="166.87 181.5 151.81 190.2 151.81 172.81 166.87 164.11 166.87 181.5"/><polygon class="cls-3" points="151.81 172.81 136.74 164.11 151.81 155.41 166.87 164.11 151.81 172.81"/><polygon class="cls-6" points="151.81 172.81 136.74 164.1 136.74 164.86 151.81 173.56 166.87 164.86 166.22 164.48 151.81 172.81"/><polygon class="cls-3" points="171.38 183.97 156.31 175.27 156.31 192.67 171.38 201.37 186.44 192.67 186.44 175.27 171.38 183.97"/><polygon class="cls-3" points="171.38 201.37 156.31 192.67 156.31 175.27 171.38 183.97 171.38 201.37"/><polygon class="cls-5" points="186.44 192.67 171.38 201.37 171.38 183.97 186.44 175.27 186.44 192.67"/><polygon class="cls-3" points="171.38 183.97 156.31 175.27 171.38 166.57 186.44 175.27 171.38 183.97"/><polygon class="cls-6" points="171.38 183.97 156.31 175.27 156.31 176.03 171.38 184.73 186.44 176.03 186.44 175.27 171.38 183.97"/><polygon class="cls-3" points="171.38 114.7 156.31 106 156.31 123.4 171.38 132.1 186.44 123.4 186.44 106 171.38 114.7"/><polygon class="cls-3" points="171.38 132.1 156.31 123.4 156.31 106 171.38 114.7 171.38 132.1"/><polygon class="cls-5" points="186.44 123.4 171.38 132.1 171.38 114.7 186.44 106 186.44 123.4"/><polygon class="cls-3" points="171.38 114.7 156.31 106 171.38 97.31 186.44 106.01 171.38 114.7"/><polygon class="cls-6" points="171.38 114.7 156.96 106.38 156.31 106.76 171.38 115.46 186.44 106.76 185.79 106.38 171.38 114.7"/><polygon class="cls-7" points="171.38 181.14 161.1 175.2 171.38 169.27 181.66 175.2 171.38 181.14"/><polygon class="cls-7" points="151.81 169.97 141.53 164.04 151.81 158.1 162.08 164.04 151.81 169.97"/><polygon class="cls-7" points="190.95 169.22 180.67 163.28 190.95 157.35 201.23 163.28 190.95 169.22"/><polygon class="cls-7" points="210.56 157.43 200.28 151.5 210.56 145.56 220.84 151.5 210.56 157.43"/><polygon class="cls-7" points="132.23 158.8 121.95 152.87 132.23 146.94 142.51 152.87 132.23 158.8"/><polygon class="cls-3" points="190.95 125.87 175.88 117.17 175.88 134.57 190.95 143.27 206.02 134.57 206.02 117.17 190.95 125.87"/><polygon class="cls-3" points="190.95 143.27 175.88 134.57 175.88 117.17 190.95 125.87 190.95 143.27"/><polygon class="cls-5" points="206.02 134.57 190.95 143.27 190.95 125.87 206.02 117.17 206.02 134.57"/><polygon class="cls-3" points="190.95 125.87 175.88 117.17 190.95 108.47 206.02 117.17 190.95 125.87"/><polygon class="cls-6" points="190.95 125.87 176.53 117.55 175.88 117.93 190.95 126.63 206.02 117.93 205.36 117.55 190.95 125.87"/><polygon class="cls-3" points="210.52 137.04 195.45 128.34 195.45 145.74 210.52 154.44 225.59 145.74 225.59 128.34 210.52 137.04"/><polygon class="cls-3" points="210.52 154.44 195.45 145.74 195.45 128.34 210.52 137.04 210.52 154.44"/><polygon class="cls-5" points="225.59 145.74 210.52 154.44 210.52 137.04 225.59 128.34 225.59 145.74"/><polygon class="cls-3" points="210.52 137.04 195.45 128.34 210.52 119.64 225.59 128.34 210.52 137.04"/><polygon class="cls-6" points="210.52 137.04 196.11 128.72 195.45 129.09 210.52 137.79 225.59 129.09 225.59 128.34 210.52 137.04"/><polygon class="cls-3" points="151.81 126.63 136.74 117.93 136.74 135.32 151.81 144.03 166.87 135.32 166.87 117.93 151.81 126.63"/><polygon class="cls-3" points="151.81 144.03 136.74 135.32 136.74 117.93 151.81 126.63 151.81 144.03"/><polygon class="cls-5" points="166.87 135.32 151.81 144.03 151.81 126.63 166.87 117.93 166.87 135.32"/><polygon class="cls-3" points="151.81 126.63 136.74 117.93 151.81 109.23 166.87 117.93 151.81 126.63"/><polygon class="cls-6" points="151.81 126.63 137.39 118.31 136.74 118.68 151.81 127.38 166.87 118.68 166.22 118.31 151.81 126.63"/><polygon class="cls-3" points="171.38 137.79 156.31 129.09 156.31 146.49 171.38 155.19 186.44 146.49 186.44 129.09 171.38 137.79"/><polygon class="cls-3" points="171.38 155.19 156.31 146.49 156.31 129.09 171.38 137.79 171.38 155.19"/><polygon class="cls-5" points="186.44 146.49 171.38 155.19 171.38 137.79 186.44 129.09 186.44 146.49"/><polygon class="cls-3" points="171.38 137.79 156.31 129.09 171.38 120.39 186.44 129.09 171.38 137.79"/><polygon class="cls-6" points="171.38 137.79 156.96 129.47 156.31 129.85 171.38 138.55 186.44 129.85 185.79 129.47 171.38 137.79"/><polygon class="cls-3" points="190.95 148.96 175.88 140.26 175.88 157.66 190.95 166.36 206.02 157.66 206.02 140.26 190.95 148.96"/><polygon class="cls-3" points="190.95 166.36 175.88 157.66 175.88 140.26 190.95 148.96 190.95 166.36"/><polygon class="cls-5" points="206.02 157.66 190.95 166.36 190.95 148.96 206.02 140.26 206.02 157.66"/><polygon class="cls-3" points="190.95 148.96 175.88 140.26 190.95 131.56 206.02 140.26 190.95 148.96"/><polygon class="cls-6" points="190.95 148.96 176.53 140.64 175.88 141.02 190.95 149.72 206.02 141.02 206.02 140.26 190.95 148.96"/><polygon class="cls-3" points="132.23 138.55 117.17 129.85 117.17 147.25 132.23 155.95 147.3 147.25 147.3 129.85 132.23 138.55"/><polygon class="cls-3" points="132.23 155.95 117.17 147.25 117.17 129.85 132.23 138.55 132.23 155.95"/><polygon class="cls-5" points="147.3 147.25 132.23 155.95 132.23 138.55 147.3 129.85 147.3 147.25"/><polygon class="cls-3" points="132.23 138.55 117.17 129.85 132.23 121.15 147.3 129.85 132.23 138.55"/><polygon class="cls-6" points="132.23 138.55 117.82 130.23 117.17 130.6 132.23 139.3 147.3 130.6 146.65 130.23 132.23 138.55"/><polygon class="cls-3" points="151.81 149.72 136.74 141.02 136.74 158.41 151.81 167.11 166.87 158.41 166.87 141.02 151.81 149.72"/><polygon class="cls-3" points="151.81 167.11 136.74 158.41 136.74 141.02 151.81 149.72 151.81 167.11"/><polygon class="cls-5" points="166.87 158.41 151.81 167.11 151.81 149.72 166.87 141.02 166.87 158.41"/><polygon class="cls-3" points="151.81 149.72 136.74 141.02 151.81 132.32 166.87 141.02 151.81 149.72"/><polygon class="cls-6" points="151.81 149.72 136.74 141.02 136.74 141.77 151.81 150.47 166.87 141.77 166.22 141.39 151.81 149.72"/><polygon class="cls-3" points="171.38 160.88 156.31 152.18 156.31 169.58 171.38 178.28 186.44 169.58 186.44 152.18 171.38 160.88"/><polygon class="cls-3" points="171.38 178.28 156.31 169.58 156.31 152.18 171.38 160.88 171.38 178.28"/><polygon class="cls-5" points="186.44 169.58 171.38 178.28 171.38 160.88 186.44 152.18 186.44 169.58"/><polygon class="cls-3" points="171.38 160.88 156.31 152.18 171.38 143.49 186.44 152.18 171.38 160.88"/><polygon class="cls-6" points="171.38 160.88 156.31 152.18 156.31 152.94 171.38 161.64 186.44 152.94 186.44 152.18 171.38 160.88"/><polygon class="cls-7" points="210.56 134.44 200.28 128.51 210.56 122.58 220.84 128.51 210.56 134.44"/><polygon class="cls-7" points="132.23 135.82 121.95 129.88 132.23 123.95 142.51 129.88 132.23 135.82"/><polygon class="cls-3" points="171.38 91.62 156.31 82.92 156.31 100.31 171.38 109.01 186.44 100.31 186.44 82.92 171.38 91.62"/><polygon class="cls-3" points="171.38 109.01 156.31 100.31 156.31 82.92 171.38 91.62 171.38 109.01"/><polygon class="cls-5" points="186.44 100.31 171.38 109.01 171.38 91.62 186.44 82.92 186.44 100.31"/><polygon class="cls-3" points="171.38 91.62 156.31 82.92 171.38 74.22 186.44 82.92 171.38 91.62"/><polygon class="cls-6" points="171.38 91.62 156.31 82.92 156.31 83.67 171.38 92.37 186.44 83.67 186.44 82.92 171.38 91.62"/><polygon class="cls-3" points="190.95 102.78 175.88 94.08 175.88 111.48 190.95 120.18 206.02 111.48 206.02 94.08 190.95 102.78"/><polygon class="cls-3" points="190.95 120.18 175.88 111.48 175.88 94.08 190.95 102.78 190.95 120.18"/><polygon class="cls-5" points="206.02 111.48 190.95 120.18 190.95 102.78 206.02 94.08 206.02 111.48"/><polygon class="cls-3" points="190.95 102.78 175.88 94.08 190.95 85.39 206.02 94.08 190.95 102.78"/><polygon class="cls-6" points="190.95 102.78 175.88 94.08 175.88 94.84 190.95 103.54 206.02 94.84 206.02 94.08 190.95 102.78"/><polygon class="cls-3" points="210.52 113.95 195.45 105.25 195.45 122.65 210.52 131.35 225.59 122.65 225.59 105.25 210.52 113.95"/><polygon class="cls-3" points="210.52 131.35 195.45 122.65 195.45 105.25 210.52 113.95 210.52 131.35"/><polygon class="cls-5" points="225.59 122.65 210.52 131.35 210.52 113.95 225.59 105.25 225.59 122.65"/><polygon class="cls-3" points="210.52 113.95 195.45 105.25 210.52 96.55 225.59 105.25 210.52 113.95"/><polygon class="cls-6" points="210.52 113.95 195.45 105.25 195.45 106 210.52 114.7 225.59 106.01 225.59 105.25 210.52 113.95"/><polygon class="cls-3" points="151.81 103.54 136.74 94.84 136.74 112.24 151.81 120.94 166.87 112.24 166.87 94.84 151.81 103.54"/><polygon class="cls-3" points="151.81 120.94 136.74 112.24 136.74 94.84 151.81 103.54 151.81 120.94"/><polygon class="cls-5" points="166.87 112.24 151.81 120.94 151.81 103.54 166.87 94.84 166.87 112.24"/><polygon class="cls-3" points="151.81 103.54 136.74 94.84 151.81 86.14 166.87 94.84 151.81 103.54"/><polygon class="cls-6" points="151.81 103.54 136.74 94.84 136.74 95.59 151.81 104.29 166.87 95.59 166.87 94.84 151.81 103.54"/><polygon class="cls-3" points="132.23 115.46 117.17 106.76 117.17 124.16 132.23 132.86 147.3 124.16 147.3 106.76 132.23 115.46"/><polygon class="cls-3" points="132.23 132.86 117.17 124.16 117.17 106.76 132.23 115.46 132.23 132.86"/><polygon class="cls-5" points="147.3 124.16 132.23 132.86 132.23 115.46 147.3 106.76 147.3 124.16"/><polygon class="cls-3" points="132.23 115.46 117.17 106.76 132.23 98.06 147.3 106.76 132.23 115.46"/><polygon class="cls-6" points="132.23 115.46 117.17 106.76 117.17 107.52 132.23 116.21 147.3 107.52 147.3 106.76 132.23 115.46"/><polygon class="cls-25" points="233.5 169.34 233.5 56.66 109.16 56.66 109.25 169.34 171.38 205.2 233.5 169.34"/><path class="cls-23" d="M81.72,225.7a2,2,0,1,0,2-2A2,2,0,0,0,81.72,225.7Z" transform="translate(0 0)"/><circle class="cls-9" cx="83.76" cy="225.7" r="0.88"/><path class="cls-23" d="M261.59,133a2,2,0,1,0,2-2A2,2,0,0,0,261.59,133Z" transform="translate(0 0)"/><path class="cls-9" d="M262.74,133a.89.89,0,1,0,.89-.89A.89.89,0,0,0,262.74,133Z" transform="translate(0 0)"/><path class="cls-23" d="M320.83,260.32a2,2,0,1,0,2-2A2,2,0,0,0,320.83,260.32Z" transform="translate(0 0)"/><circle class="cls-9" cx="322.86" cy="260.32" r="0.88"/><circle class="cls-23" cx="284.11" cy="267.53" r="3.17"/><path class="cls-9" d="M282.73,267.53a1.38,1.38,0,1,0,1.38-1.37A1.38,1.38,0,0,0,282.73,267.53Z" transform="translate(0 0)"/><path class="cls-23" d="M271.4,239.85a2.15,2.15,0,1,0,2.15-2.16A2.15,2.15,0,0,0,271.4,239.85Z" transform="translate(0 0)"/><path class="cls-9" d="M272.61,239.85a.94.94,0,1,0,.94-.94A.94.94,0,0,0,272.61,239.85Z" transform="translate(0 0)"/><path class="cls-23" d="M239.94,121.26a2,2,0,1,0,2-2A2,2,0,0,0,239.94,121.26Z" transform="translate(0 0)"/><path class="cls-9" d="M241.09,121.26a.88.88,0,1,0,.88-.88A.87.87,0,0,0,241.09,121.26Z" transform="translate(0 0)"/><path class="cls-23" d="M58.75,212.77a2,2,0,1,0,2-2A2,2,0,0,0,58.75,212.77Z" transform="translate(0 0)"/><path class="cls-9" d="M59.9,212.77a.88.88,0,1,0,.88-.88A.88.88,0,0,0,59.9,212.77Z" transform="translate(0 0)"/></g></g></svg>