<svg xmlns="http://www.w3.org/2000/svg" xmlns:xlink="http://www.w3.org/1999/xlink" viewBox="0 0 600.28 450"><defs><style>.cls-1{fill:none;}.cls-2{isolation:isolate;}.cls-3{fill:#111b33;}.cls-13,.cls-4{fill:#8686f2;}.cls-10,.cls-11,.cls-12,.cls-5,.cls-6,.cls-7,.cls-8,.cls-9{opacity:0.6;}.cls-10,.cls-11,.cls-12,.cls-13,.cls-5,.cls-6,.cls-63,.cls-65,.cls-67,.cls-69,.cls-7,.cls-71,.cls-73,.cls-75,.cls-77,.cls-79,.cls-8,.cls-81,.cls-83,.cls-85,.cls-9{mix-blend-mode:lighten;}.cls-5{fill:url(#Áåçûìÿííûé_ãðàäèåíò_13);}.cls-6{fill:url(#Áåçûìÿííûé_ãðàäèåíò_13-2);}.cls-7{fill:url(#Áåçûìÿííûé_ãðàäèåíò_13-3);}.cls-8{fill:url(#Áåçûìÿííûé_ãðàäèåíò_13-4);}.cls-9{fill:url(#Áåçûìÿííûé_ãðàäèåíò_13-5);}.cls-10{fill:url(#Áåçûìÿííûé_ãðàäèåíò_13-6);}.cls-11{fill:url(#Áåçûìÿííûé_ãðàäèåíò_13-7);}.cls-12{fill:url(#Áåçûìÿííûé_ãðàäèåíò_13-8);}.cls-14{fill:url(#Áåçûìÿííûé_ãðàäèåíò_18);}.cls-15{fill:#bcbeff;}.cls-16{fill:#fff;}.cls-17{fill:#0f054c;}.cls-18,.cls-19,.cls-20,.cls-21,.cls-22,.cls-23,.cls-24,.cls-27,.cls-28,.cls-29,.cls-30,.cls-31,.cls-32{opacity:0.5;}.cls-18{fill:url(#Áåçûìÿííûé_ãðàäèåíò_254);}.cls-19{fill:url(#Áåçûìÿííûé_ãðàäèåíò_254-2);}.cls-20{fill:url(#Áåçûìÿííûé_ãðàäèåíò_254-3);}.cls-21{fill:url(#Áåçûìÿííûé_ãðàäèåíò_254-4);}.cls-22,.cls-25,.cls-38,.cls-41,.cls-42{fill:#42e8e0;}.cls-23{fill:url(#Áåçûìÿííûé_ãðàäèåíò_254-5);}.cls-24{fill:url(#Áåçûìÿííûé_ãðàäèåíò_254-6);}.cls-25{opacity:0.8;}.cls-26{fill:url(#Áåçûìÿííûé_ãðàäèåíò_18-2);}.cls-27{fill:url(#Áåçûìÿííûé_ãðàäèåíò_254-7);}.cls-28{fill:url(#Áåçûìÿííûé_ãðàäèåíò_254-8);}.cls-29{fill:url(#Áåçûìÿííûé_ãðàäèåíò_254-9);}.cls-30{fill:url(#Áåçûìÿííûé_ãðàäèåíò_254-10);}.cls-31{fill:url(#Áåçûìÿííûé_ãðàäèåíò_254-11);}.cls-32{fill:url(#Áåçûìÿííûé_ãðàäèåíò_254-12);}.cls-33,.cls-37,.cls-40{fill:#453c9e;}.cls-33{opacity:0.7;}.cls-34{fill:url(#Áåçûìÿííûé_ãðàäèåíò_3);}.cls-35{fill:#24126a;}.cls-36,.cls-40{opacity:0.51;}.cls-39{fill:url(#Áåçûìÿííûé_ãðàäèåíò_3-2);}.cls-41{opacity:0.1;}.cls-42{opacity:0.4;}.cls-43{fill:url(#Áåçûìÿííûé_ãðàäèåíò_3-3);}.cls-44{fill:url(#Áåçûìÿííûé_ãðàäèåíò_24);}.cls-45{fill:url(#Áåçûìÿííûé_ãðàäèåíò_24-2);}.cls-46{fill:url(#Áåçûìÿííûé_ãðàäèåíò_3-4);}.cls-47{fill:#2842a2;}.cls-48{fill:#adb1f2;}.cls-49{fill:#9198db;}.cls-50{fill:url(#Áåçûìÿííûé_ãðàäèåíò_3-5);}.cls-51{opacity:0.11;}.cls-52{clip-path:url(#clip-path);}.cls-53{fill:url(#Áåçûìÿííûé_ãðàäèåíò_3-6);}.cls-54{fill:url(#Áåçûìÿííûé_ãðàäèåíò_3-7);}.cls-55{fill:url(#Áåçûìÿííûé_ãðàäèåíò_3-8);}.cls-56{fill:url(#Áåçûìÿííûé_ãðàäèåíò_24-3);}.cls-57{fill:url(#Áåçûìÿííûé_ãðàäèåíò_24-4);}.cls-58{fill:url(#Áåçûìÿííûé_ãðàäèåíò_3-9);}.cls-59{fill:url(#Áåçûìÿííûé_ãðàäèåíò_3-10);}.cls-60{clip-path:url(#clip-path-2);}.cls-61{fill:url(#Áåçûìÿííûé_ãðàäèåíò_3-11);}.cls-62{fill:url(#Áåçûìÿííûé_ãðàäèåíò_3-12);}.cls-63{fill:url(#Áåçûìÿííûé_ãðàäèåíò_68);}.cls-64{fill:url(#Áåçûìÿííûé_ãðàäèåíò_43);}.cls-65{fill:url(#Áåçûìÿííûé_ãðàäèåíò_68-2);}.cls-66{fill:url(#Áåçûìÿííûé_ãðàäèåíò_43-2);}.cls-67{fill:url(#Áåçûìÿííûé_ãðàäèåíò_68-3);}.cls-68{fill:url(#Áåçûìÿííûé_ãðàäèåíò_43-3);}.cls-69{fill:url(#Áåçûìÿííûé_ãðàäèåíò_68-4);}.cls-70{fill:url(#Áåçûìÿííûé_ãðàäèåíò_43-4);}.cls-71{fill:url(#Áåçûìÿííûé_ãðàäèåíò_68-5);}.cls-72{fill:url(#Áåçûìÿííûé_ãðàäèåíò_43-5);}.cls-73{fill:url(#Áåçûìÿííûé_ãðàäèåíò_68-6);}.cls-74{fill:url(#Áåçûìÿííûé_ãðàäèåíò_43-6);}.cls-75{fill:url(#Áåçûìÿííûé_ãðàäèåíò_68-7);}.cls-76{fill:url(#Áåçûìÿííûé_ãðàäèåíò_43-7);}.cls-77{fill:url(#Áåçûìÿííûé_ãðàäèåíò_68-8);}.cls-78{fill:url(#Áåçûìÿííûé_ãðàäèåíò_43-8);}.cls-79{fill:url(#Áåçûìÿííûé_ãðàäèåíò_68-9);}.cls-80{fill:url(#Áåçûìÿííûé_ãðàäèåíò_43-9);}.cls-81{fill:url(#Áåçûìÿííûé_ãðàäèåíò_68-10);}.cls-82{fill:url(#Áåçûìÿííûé_ãðàäèåíò_43-10);}.cls-83{fill:url(#Áåçûìÿííûé_ãðàäèåíò_68-11);}.cls-84{fill:url(#Áåçûìÿííûé_ãðàäèåíò_43-11);}.cls-85{fill:url(#Áåçûìÿííûé_ãðàäèåíò_68-12);}.cls-86{fill:url(#Áåçûìÿííûé_ãðàäèåíò_43-12);}</style><linearGradient id="Áåçûìÿííûé_ãðàäèåíò_13" x1="-1823.97" y1="-750.21" x2="-1823.97" y2="-790.28" gradientTransform="matrix(0.87, 0.5, -1, 0.58, 1223.99, 1585.51)" gradientUnits="userSpaceOnUse"><stop offset="0" stop-color="#42e8e0"/><stop offset="0.02" stop-color="#40deda"/><stop offset="0.11" stop-color="#37adbc"/><stop offset="0.22" stop-color="#2e82a2"/><stop offset="0.32" stop-color="#285e8c"/><stop offset="0.43" stop-color="#22417a"/><stop offset="0.55" stop-color="#1e2a6c"/><stop offset="0.67" stop-color="#1a1a63"/><stop offset="0.81" stop-color="#19105d"/><stop offset="1" stop-color="#180d5b"/></linearGradient><linearGradient id="Áåçûìÿííûé_ãðàäèåíò_13-2" x1="1018.4" y1="-69.02" x2="1018.4" y2="-115.3" gradientTransform="matrix(1, -0.58, 0.87, 0.5, -593.91, 862.89)" xlink:href="#Áåçûìÿííûé_ãðàäèåíò_13"/><linearGradient id="Áåçûìÿííûé_ãðàäèåíò_13-3" x1="606.06" y1="2726.87" x2="606.06" y2="2686.8" gradientTransform="matrix(-0.87, -0.5, 1, -0.58, -1837.31, 2135.16)" xlink:href="#Áåçûìÿííûé_ãðàäèåíò_13"/><linearGradient id="Áåçûìÿííûé_ãðàäèåíò_13-4" x1="-2458.68" y1="2361" x2="-2458.68" y2="2314.73" gradientTransform="matrix(-1, 0.58, -0.87, -0.5, -19.41, 2857.78)" xlink:href="#Áåçûìÿííûé_ãðàäèåíò_13"/><linearGradient id="Áåçûìÿííûé_ãðàäèåíò_13-5" x1="-1913.02" y1="-673.09" x2="-1913.02" y2="-713.16" xlink:href="#Áåçûìÿííûé_ãðàäèåíò_13"/><linearGradient id="Áåçûìÿííûé_ãðàäèåíò_13-6" x1="941.28" y1="-158.08" x2="941.28" y2="-204.36" gradientTransform="matrix(1, -0.58, 0.87, 0.5, -593.91, 862.89)" xlink:href="#Áåçûìÿííûé_ãðàäèåíò_13"/><linearGradient id="Áåçûìÿííûé_ãðàäèåíò_13-7" x1="695.11" y1="2649.75" x2="695.11" y2="2609.68" gradientTransform="matrix(-0.87, -0.5, 1, -0.58, -1837.31, 2135.16)" xlink:href="#Áåçûìÿííûé_ãðàäèåíò_13"/><linearGradient id="Áåçûìÿííûé_ãðàäèåíò_13-8" x1="-2381.56" y1="2450.06" x2="-2381.56" y2="2403.78" gradientTransform="matrix(-1, 0.58, -0.87, -0.5, -19.41, 2857.78)" xlink:href="#Áåçûìÿííûé_ãðàäèåíò_13"/><linearGradient id="Áåçûìÿííûé_ãðàäèåíò_18" x1="168.22" y1="257.46" x2="266.71" y2="257.46" gradientUnits="userSpaceOnUse"><stop offset="0" stop-color="#5761d7"/><stop offset="0.16" stop-color="#5e67da"/><stop offset="0.41" stop-color="#727ae2"/><stop offset="0.69" stop-color="#9297ee"/><stop offset="1" stop-color="#bcbeff"/></linearGradient><linearGradient id="Áåçûìÿííûé_ãðàäèåíò_254" x1="196.09" y1="244.15" x2="255.21" y2="244.15" gradientUnits="userSpaceOnUse"><stop offset="0" stop-color="#42e8e0"/><stop offset="0.15" stop-color="#43e3e0"/><stop offset="0.33" stop-color="#45d5df"/><stop offset="0.52" stop-color="#49bddd"/><stop offset="0.72" stop-color="#4e9cdb"/><stop offset="0.93" stop-color="#5472d8"/><stop offset="1" stop-color="#5761d7"/></linearGradient><linearGradient id="Áåçûìÿííûé_ãðàäèåíò_254-2" x1="225.65" y1="233.47" x2="255.21" y2="233.47" xlink:href="#Áåçûìÿííûé_ãðàäèåíò_254"/><linearGradient id="Áåçûìÿííûé_ãðàäèåíò_254-3" x1="196.09" y1="233.47" x2="225.65" y2="233.47" xlink:href="#Áåçûìÿííûé_ãðàäèåíò_254"/><linearGradient id="Áåçûìÿííûé_ãðàäèåíò_254-4" x1="196.09" y1="239.85" x2="255.21" y2="239.85" xlink:href="#Áåçûìÿííûé_ãðàäèåíò_254"/><linearGradient id="Áåçûìÿííûé_ãðàäèåíò_254-5" x1="225.65" y1="250.53" x2="255.21" y2="250.53" xlink:href="#Áåçûìÿííûé_ãðàäèåíò_254"/><linearGradient id="Áåçûìÿííûé_ãðàäèåíò_254-6" x1="196.09" y1="250.53" x2="225.65" y2="250.53" xlink:href="#Áåçûìÿííûé_ãðàäèåíò_254"/><linearGradient id="Áåçûìÿííûé_ãðàäèåíò_18-2" x1="322.25" y1="257.46" x2="420.74" y2="257.46" xlink:href="#Áåçûìÿííûé_ãðàäèåíò_18"/><linearGradient id="Áåçûìÿííûé_ãðàäèåíò_254-7" x1="350.12" y1="244.15" x2="409.24" y2="244.15" xlink:href="#Áåçûìÿííûé_ãðàäèåíò_254"/><linearGradient id="Áåçûìÿííûé_ãðàäèåíò_254-8" x1="379.68" y1="233.47" x2="409.24" y2="233.47" xlink:href="#Áåçûìÿííûé_ãðàäèåíò_254"/><linearGradient id="Áåçûìÿííûé_ãðàäèåíò_254-9" x1="350.12" y1="233.47" x2="379.68" y2="233.47" xlink:href="#Áåçûìÿííûé_ãðàäèåíò_254"/><linearGradient id="Áåçûìÿííûé_ãðàäèåíò_254-10" x1="350.12" y1="239.85" x2="409.24" y2="239.85" xlink:href="#Áåçûìÿííûé_ãðàäèåíò_254"/><linearGradient id="Áåçûìÿííûé_ãðàäèåíò_254-11" x1="379.68" y1="250.53" x2="409.24" y2="250.53" xlink:href="#Áåçûìÿííûé_ãðàäèåíò_254"/><linearGradient id="Áåçûìÿííûé_ãðàäèåíò_254-12" x1="350.12" y1="250.53" x2="379.68" y2="250.53" xlink:href="#Áåçûìÿííûé_ãðàäèåíò_254"/><linearGradient id="Áåçûìÿííûé_ãðàäèåíò_3" x1="336.91" y1="302.53" x2="336.91" y2="158.41" gradientUnits="userSpaceOnUse"><stop offset="0" stop-color="#c0bff6"/><stop offset="0.29" stop-color="#c5c4f7"/><stop offset="0.64" stop-color="#d3d2f9"/><stop offset="1" stop-color="#e9e9fd"/></linearGradient><linearGradient id="Áåçûìÿííûé_ãðàäèåíò_3-2" x1="336.91" y1="172.88" x2="336.91" y2="126.21" xlink:href="#Áåçûìÿííûé_ãðàäèåíò_3"/><linearGradient id="Áåçûìÿííûé_ãðàäèåíò_3-3" x1="2309.68" y1="147.3" x2="2385.99" y2="147.3" gradientTransform="translate(-2278.69)" xlink:href="#Áåçûìÿííûé_ãðàäèåíò_3"/><linearGradient id="Áåçûìÿííûé_ãðàäèåíò_24" x1="2309.69" y1="166.87" x2="2322.79" y2="166.87" gradientTransform="translate(-2278.69)" gradientUnits="userSpaceOnUse"><stop offset="0" stop-color="#5761d7"/><stop offset="0.18" stop-color="#5c66d9"/><stop offset="0.39" stop-color="#6a73df"/><stop offset="0.61" stop-color="#8289e8"/><stop offset="0.85" stop-color="#a3a7f5"/><stop offset="1" stop-color="#bcbeff"/></linearGradient><linearGradient id="Áåçûìÿííûé_ãðàäèåíò_24-2" x1="2319.91" y1="188.86" x2="2427.67" y2="188.86" xlink:href="#Áåçûìÿííûé_ãðàäèåíò_24"/><linearGradient id="Áåçûìÿííûé_ãðàäèåíò_3-4" x1="2356.12" y1="185.27" x2="2463.94" y2="185.27" gradientTransform="translate(-2278.69)" xlink:href="#Áåçûìÿííûé_ãðàäèåíò_3"/><linearGradient id="Áåçûìÿííûé_ãðàäèåíò_3-5" x1="2374.38" y1="191.39" x2="2401.98" y2="191.39" gradientTransform="translate(-2278.69)" xlink:href="#Áåçûìÿííûé_ãðàäèåíò_3"/><clipPath id="clip-path" transform="translate(24.95 85.47)"><polygon id="SVGID" class="cls-1" points="98.09 105.97 34.42 142.73 42.32 189.27 105.94 152.54 98.09 105.97"/></clipPath><linearGradient id="Áåçûìÿííûé_ãðàäèåíò_3-6" x1="2314.92" y1="161.37" x2="2422.74" y2="161.37" gradientTransform="translate(-2278.69)" xlink:href="#Áåçûìÿííûé_ãðàäèåíò_3"/><linearGradient id="Áåçûìÿííûé_ãðàäèåíò_3-7" x1="2307.83" y1="153.46" x2="2335.43" y2="153.46" gradientTransform="translate(-2278.69)" xlink:href="#Áåçûìÿííûé_ãðàäèåíò_3"/><linearGradient id="Áåçûìÿííûé_ãðàäèåíò_3-8" x1="63.24" y1="147.3" x2="139.55" y2="147.3" gradientTransform="matrix(-1, 0, 0, 1, 584.65, 0)" xlink:href="#Áåçûìÿííûé_ãðàäèåíò_3"/><linearGradient id="Áåçûìÿííûé_ãðàäèåíò_24-3" x1="63.24" y1="166.87" x2="76.35" y2="166.87" gradientTransform="matrix(-1, 0, 0, 1, 584.65, 0)" xlink:href="#Áåçûìÿííûé_ãðàäèåíò_24"/><linearGradient id="Áåçûìÿííûé_ãðàäèåíò_24-4" x1="73.47" y1="188.86" x2="181.23" y2="188.86" gradientTransform="matrix(-1, 0, 0, 1, 584.65, 0)" xlink:href="#Áåçûìÿííûé_ãðàäèåíò_24"/><linearGradient id="Áåçûìÿííûé_ãðàäèåíò_3-9" x1="109.68" y1="185.27" x2="217.5" y2="185.27" gradientTransform="matrix(-1, 0, 0, 1, 584.65, 0)" xlink:href="#Áåçûìÿííûé_ãðàäèåíò_3"/><linearGradient id="Áåçûìÿííûé_ãðàäèåíò_3-10" x1="127.94" y1="191.39" x2="155.54" y2="191.39" gradientTransform="matrix(-1, 0, 0, 1, 584.65, 0)" xlink:href="#Áåçûìÿííûé_ãðàäèåíò_3"/><clipPath id="clip-path-2" transform="translate(24.95 85.47)"><polygon id="SVGID-2" data-name="SVGID" class="cls-1" points="454.31 105.97 517.97 142.73 510.08 189.27 446.45 152.54 454.31 105.97"/></clipPath><linearGradient id="Áåçûìÿííûé_ãðàäèåíò_3-11" x1="68.48" y1="161.37" x2="176.3" y2="161.37" gradientTransform="matrix(-1, 0, 0, 1, 584.65, 0)" xlink:href="#Áåçûìÿííûé_ãðàäèåíò_3"/><linearGradient id="Áåçûìÿííûé_ãðàäèåíò_3-12" x1="61.39" y1="153.46" x2="88.98" y2="153.46" gradientTransform="matrix(-1, 0, 0, 1, 584.65, 0)" xlink:href="#Áåçûìÿííûé_ãðàäèåíò_3"/><radialGradient id="Áåçûìÿííûé_ãðàäèåíò_68" cx="457.68" cy="365.54" r="9.38" gradientTransform="matrix(0.99, -0.13, -0.13, -0.99, -254.99, 666.47)" gradientUnits="userSpaceOnUse"><stop offset="0" stop-color="#42e8e0"/><stop offset="0" stop-color="#41e5de"/><stop offset="0.06" stop-color="#39b8c3"/><stop offset="0.13" stop-color="#3190aa"/><stop offset="0.2" stop-color="#2a6c95"/><stop offset="0.27" stop-color="#254e83"/><stop offset="0.36" stop-color="#203674"/><stop offset="0.45" stop-color="#1c2469"/><stop offset="0.56" stop-color="#1a1761"/><stop offset="0.7" stop-color="#180f5c"/><stop offset="1" stop-color="#180d5b"/></radialGradient><radialGradient id="Áåçûìÿííûé_ãðàäèåíò_43" cx="457.68" cy="365.54" r="2.55" gradientTransform="matrix(0.86, -0.5, -0.5, -0.86, -57.25, 793.13)" gradientUnits="userSpaceOnUse"><stop offset="0" stop-color="#42e8e0"/><stop offset="1" stop-color="#42e8e0"/></radialGradient><radialGradient id="Áåçûìÿííûé_ãðàäèåíò_68-2" cx="511.87" cy="326.33" r="9.38" gradientTransform="matrix(0.99, -0.13, -0.13, -0.99, -247.09, 640.85)" xlink:href="#Áåçûìÿííûé_ãðàäèåíò_68"/><radialGradient id="Áåçûìÿííûé_ãðàäèåíò_43-2" cx="511.87" cy="326.33" r="2.55" xlink:href="#Áåçûìÿííûé_ãðàäèåíò_43"/><radialGradient id="Áåçûìÿííûé_ãðàäèåíò_68-3" cx="610.82" cy="269.35" r="9.38" gradientTransform="matrix(0.99, -0.13, -0.13, -0.99, -238.21, 595.94)" xlink:href="#Áåçûìÿííûé_ãðàäèåíò_68"/><radialGradient id="Áåçûìÿííûé_ãðàäèåíò_43-3" cx="610.82" cy="269.35" r="2.55" xlink:href="#Áåçûìÿííûé_ãðàäèåíò_43"/><radialGradient id="Áåçûìÿííûé_ãðàäèåíò_68-4" cx="617.79" cy="256.95" r="9.38" gradientTransform="matrix(0.86, -0.5, -0.5, -0.86, -57.25, 793.13)" xlink:href="#Áåçûìÿííûé_ãðàäèåíò_68"/><radialGradient id="Áåçûìÿííûé_ãðàäèåíò_43-4" cx="617.79" cy="256.95" r="2.55" gradientTransform="matrix(0.86, -0.5, -0.5, -0.86, -32.3, 878.6)" xlink:href="#Áåçûìÿííûé_ãðàäèåíò_43"/><radialGradient id="Áåçûìÿííûé_ãðàäèåíò_68-5" cx="685.34" cy="239.91" r="9.38" gradientTransform="matrix(1, -0.07, -0.07, -1, -252.31, 530.26)" xlink:href="#Áåçûìÿííûé_ãðàäèåíò_68"/><radialGradient id="Áåçûìÿííûé_ãðàäèåíò_43-5" cx="685.34" cy="239.91" r="2.55" xlink:href="#Áåçûìÿííûé_ãðàäèåíò_43"/><radialGradient id="Áåçûìÿííûé_ãðàäèåíò_68-6" cx="710.66" cy="251.94" r="9.38" gradientTransform="matrix(0.86, -0.5, -0.5, -0.86, -57.25, 793.13)" xlink:href="#Áåçûìÿííûé_ãðàäèåíò_68"/><radialGradient id="Áåçûìÿííûé_ãðàäèåíò_43-6" cx="710.66" cy="251.94" r="2.55" xlink:href="#Áåçûìÿííûé_ãðàäèåíò_43"/><radialGradient id="Áåçûìÿííûé_ãðàäèåíò_68-7" cx="702.49" cy="266.58" r="9.38" gradientTransform="matrix(0.86, -0.5, -0.5, -0.86, -57.25, 793.13)" xlink:href="#Áåçûìÿííûé_ãðàäèåíò_68"/><radialGradient id="Áåçûìÿííûé_ãðàäèåíò_43-7" cx="702.49" cy="266.58" r="2.55" xlink:href="#Áåçûìÿííûé_ãðàäèåíò_43"/><radialGradient id="Áåçûìÿííûé_ãðàäèåíò_68-8" cx="694.03" cy="280.71" r="9.38" gradientTransform="matrix(0.86, -0.5, -0.5, -0.86, -57.25, 793.13)" xlink:href="#Áåçûìÿííûé_ãðàäèåíò_68"/><radialGradient id="Áåçûìÿííûé_ãðàäèåíò_43-8" cx="694.03" cy="280.71" r="2.55" xlink:href="#Áåçûìÿííûé_ãðàäèåíò_43"/><radialGradient id="Áåçûìÿííûé_ãðàäèåíò_68-9" cx="451.04" cy="377.29" r="9.38" gradientTransform="matrix(0.86, -0.5, -0.5, -0.86, -57.25, 793.13)" xlink:href="#Áåçûìÿííûé_ãðàäèåíò_68"/><radialGradient id="Áåçûìÿííûé_ãðàäèåíò_43-9" cx="451.04" cy="377.29" r="2.55" gradientTransform="matrix(0.86, -0.5, -0.5, -0.86, -32.3, 878.6)" xlink:href="#Áåçûìÿííûé_ãðàäèåíò_43"/><radialGradient id="Áåçûìÿííûé_ãðàäèåíò_68-10" cx="444.4" cy="389.04" r="9.38" gradientTransform="matrix(0.71, 0.71, 0.71, -0.71, -459.28, 193.86)" xlink:href="#Áåçûìÿííûé_ãðàäèåíò_68"/><radialGradient id="Áåçûìÿííûé_ãðàäèåíò_43-10" cx="444.4" cy="389.04" r="2.55" xlink:href="#Áåçûìÿííûé_ãðàäèåíò_43"/><radialGradient id="Áåçûìÿííûé_ãðàäèåíò_68-11" cx="486.53" cy="404.95" r="9.38" gradientTransform="matrix(0.86, -0.5, -0.5, -0.86, -57.25, 793.13)" xlink:href="#Áåçûìÿííûé_ãðàäèåíò_68"/><radialGradient id="Áåçûìÿííûé_ãðàäèåíò_43-11" cx="486.53" cy="404.95" r="2.55" xlink:href="#Áåçûìÿííûé_ãðàäèåíò_43"/><radialGradient id="Áåçûìÿííûé_ãðàäèåíò_68-12" cx="500.59" cy="404.32" r="9.38" gradientTransform="matrix(0.86, -0.5, -0.5, -0.86, -57.25, 793.13)" xlink:href="#Áåçûìÿííûé_ãðàäèåíò_68"/><radialGradient id="Áåçûìÿííûé_ãðàäèåíò_43-12" cx="500.59" cy="404.32" r="2.55" xlink:href="#Áåçûìÿííûé_ãðàäèåíò_43"/></defs><title>7</title><g class="cls-2"><g id="Ñëîé_1" data-name="Ñëîé 1"><rect class="cls-3" width="600.28" height="450"/><path class="cls-4" d="M363.17,268.89a5,5,0,0,1-2.5-.67l-38.39-22.17.33-.57L361,267.65a4.32,4.32,0,0,0,4.34,0l11.21-6.52,62.78-36.24a.93.93,0,0,0,0-1.61l-65.11-37.59.33-.57,65.11,37.59a1.58,1.58,0,0,1,.79,1.37,1.56,1.56,0,0,1-.79,1.37l-62.78,36.25-11.21,6.52A5.08,5.08,0,0,1,363.17,268.89Z" transform="translate(24.95 85.47)"/><path class="cls-4" d="M117.75,175.61l-.33-.57,45.48-26.26a5.21,5.21,0,0,1,5.18,0l21.26,12.28-.32.57-21.26-12.28a4.58,4.58,0,0,0-4.53,0Z" transform="translate(24.95 85.47)"/><path class="cls-4" d="M439,175.61l-45.48-26.26a4.56,4.56,0,0,0-4.52,0l-21.26,12.28-.33-.57,21.26-12.28a5.21,5.21,0,0,1,5.18,0L439.34,175Z" transform="translate(24.95 85.47)"/><polygon class="cls-5" points="449.68 225.86 419.75 208.58 379.68 231.72 409.61 249 449.68 225.86"/><polygon class="cls-6" points="339.61 208.58 309.68 225.86 349.75 249 379.68 231.72 339.61 208.58"/><polygon class="cls-7" points="309.68 272.13 339.61 289.41 379.68 266.28 349.75 249 309.68 272.13"/><polygon class="cls-8" points="419.75 289.41 449.68 272.13 409.61 249 379.68 266.28 419.75 289.41"/><polygon class="cls-9" points="295.44 225.86 265.51 208.58 225.44 231.72 255.37 249 295.44 225.86"/><polygon class="cls-10" points="185.37 208.58 155.44 225.86 195.51 249 225.44 231.72 185.37 208.58"/><polygon class="cls-11" points="155.44 272.13 185.37 289.41 225.44 266.28 195.51 249 155.44 272.13"/><polygon class="cls-12" points="265.51 289.41 295.44 272.13 255.37 249 225.44 266.28 265.51 289.41"/><path class="cls-13" d="M200.7,196.38a3.2,3.2,0,0,1-1.61-.38l-36.18-20.89a1.27,1.27,0,0,1-.73-1.09,1.64,1.64,0,0,1,1-1.34l35.7-20.61a4,4,0,0,1,3.65-.14l36.19,20.89a1.29,1.29,0,0,1,.72,1.09,1.65,1.65,0,0,1-1,1.34l-35.7,20.61A4.14,4.14,0,0,1,200.7,196.38Zm-1.33-.86a3.51,3.51,0,0,0,3.1-.14l35.7-20.61a1.17,1.17,0,0,0,.68-.86.74.74,0,0,0-.44-.6l-36.19-20.9a3.52,3.52,0,0,0-3.09.14l-35.7,20.62c-.43.24-.69.56-.69.85a.76.76,0,0,0,.45.61Z" transform="translate(24.95 85.47)"/><polygon class="cls-14" points="264.08 244.15 264.08 248.59 225.65 270.77 187.22 248.59 187.22 244.15 264.08 244.15"/><polygon class="cls-15" points="225.65 266.33 187.22 244.15 225.65 221.96 264.08 244.15 225.65 266.33"/><polygon class="cls-16" points="225.65 265.82 187.67 243.89 187.22 244.15 225.65 266.33 264.08 244.15 263.63 243.89 225.65 265.82"/><polygon class="cls-17" points="225.65 261.22 196.09 244.15 225.65 227.09 255.21 244.15 225.65 261.22"/><polygon class="cls-18" points="225.65 261.22 196.09 244.15 225.65 227.09 255.21 244.15 225.65 261.22"/><polygon class="cls-19" points="225.65 222.79 255.21 239.85 255.21 244.15 225.65 227.09 225.65 222.79"/><polygon class="cls-20" points="225.65 227.09 196.09 244.15 196.09 239.85 225.65 222.79 225.65 227.09"/><polygon class="cls-21" points="225.65 256.92 196.09 239.85 225.65 222.79 255.21 239.85 225.65 256.92"/><polygon class="cls-22" points="225.65 246.67 213.84 239.85 225.65 233.03 237.46 239.85 225.65 246.67"/><polygon class="cls-22" points="225.65 233.66 236.92 240.16 237.46 239.85 225.65 233.03 213.84 239.85 214.38 240.16 225.65 233.66"/><polygon class="cls-23" points="225.65 256.92 225.65 261.22 255.21 244.15 255.21 239.85 225.65 256.92"/><polygon class="cls-24" points="196.09 239.85 196.09 244.15 225.65 261.22 225.65 256.92 196.09 239.85"/><polygon class="cls-25" points="225.65 256.44 196.5 239.62 196.09 239.85 225.65 256.92 255.21 239.85 254.8 239.62 225.65 256.44"/><path class="cls-13" d="M354.73,196.38a3.2,3.2,0,0,1-1.61-.38l-36.18-20.89a1.27,1.27,0,0,1-.73-1.09,1.66,1.66,0,0,1,1-1.34l35.7-20.61a4,4,0,0,1,3.65-.14l36.19,20.89a1.27,1.27,0,0,1,.72,1.09,1.65,1.65,0,0,1-1,1.34l-35.7,20.61A4.14,4.14,0,0,1,354.73,196.38Zm-1.33-.86a3.51,3.51,0,0,0,3.1-.14l35.7-20.61a1.15,1.15,0,0,0,.68-.86.74.74,0,0,0-.44-.6l-36.19-20.9a3.52,3.52,0,0,0-3.09.14l-35.7,20.62c-.43.24-.69.56-.69.85a.78.78,0,0,0,.45.61Z" transform="translate(24.95 85.47)"/><polygon class="cls-26" points="418.11 244.15 418.11 248.59 379.68 270.77 341.25 248.59 341.25 244.15 418.11 244.15"/><polygon class="cls-15" points="379.68 266.33 341.25 244.15 379.68 221.96 418.11 244.15 379.68 266.33"/><polygon class="cls-16" points="379.68 265.82 341.7 243.89 341.25 244.15 379.68 266.33 418.11 244.15 417.66 243.89 379.68 265.82"/><polygon class="cls-17" points="379.68 261.22 350.13 244.15 379.68 227.09 409.24 244.15 379.68 261.22"/><polygon class="cls-27" points="379.68 261.22 350.13 244.15 379.68 227.09 409.24 244.15 379.68 261.22"/><polygon class="cls-28" points="379.68 222.79 409.24 239.85 409.24 244.15 379.68 227.09 379.68 222.79"/><polygon class="cls-29" points="379.68 227.09 350.13 244.15 350.13 239.85 379.68 222.79 379.68 227.09"/><polygon class="cls-30" points="379.68 256.92 350.13 239.85 379.68 222.79 409.24 239.85 379.68 256.92"/><polygon class="cls-22" points="379.68 246.67 367.87 239.85 379.68 233.03 391.49 239.85 379.68 246.67"/><polygon class="cls-22" points="379.68 233.66 390.95 240.16 391.49 239.85 379.68 233.03 367.87 239.85 368.42 240.16 379.68 233.66"/><polygon class="cls-31" points="379.68 256.92 379.68 261.22 409.24 244.15 409.24 239.85 379.68 256.92"/><polygon class="cls-32" points="350.13 239.85 350.13 244.15 379.68 261.22 379.68 256.92 350.13 239.85"/><polygon class="cls-25" points="379.68 256.44 350.53 239.62 350.13 239.85 379.68 256.92 409.24 239.85 408.83 239.62 379.68 256.44"/><polygon class="cls-15" points="302.76 193.79 234.46 154.36 302.76 114.93 371.06 154.36 302.76 193.79"/><polygon class="cls-33" points="302.76 190.24 240.62 154.36 302.76 118.48 364.9 154.36 302.76 190.24"/><path class="cls-4" d="M277.81,270.91a6.1,6.1,0,0,1-3-.81l-83.65-48.3a1.79,1.79,0,0,1,0-3.11l86.69-50.05,89.39,51.61L280.86,270.1A6.11,6.11,0,0,1,277.81,270.91Zm-2.71-1.38a5.48,5.48,0,0,0,5.43,0l85.36-49.28-88.08-50.86-86.37,49.87a1.13,1.13,0,0,0-.57,1,1.14,1.14,0,0,0,.57,1Z" transform="translate(24.95 85.47)"/><polygon class="cls-16" points="302.76 345.15 234.46 305.71 302.76 266.29 371.06 305.72 302.76 345.15"/><polygon class="cls-34" points="371.06 154.36 371.06 305.72 302.76 345.15 302.76 193.79 371.06 154.36"/><polygon class="cls-35" points="234.46 154.36 234.46 305.71 302.76 345.15 302.76 193.79 234.46 154.36"/><g class="cls-36"><polygon class="cls-37" points="239.09 164.4 239.09 300.44 298.13 334.53 298.13 198.49 239.09 164.4"/></g><polygon class="cls-37" points="360.81 190.93 360.81 194.93 313 222.53 313 218.53 360.81 190.93"/><polygon class="cls-37" points="360.81 207.84 360.81 211.84 313 239.45 313 235.44 360.81 207.84"/><polygon class="cls-37" points="360.81 224.76 360.81 228.76 313 256.36 313 252.36 360.81 224.76"/><polygon class="cls-37" points="360.81 241.68 360.81 245.68 313 273.28 313 269.27 360.81 241.68"/><polygon class="cls-37" points="360.81 258.59 360.81 262.59 313 290.19 313 286.19 360.81 258.59"/><polygon class="cls-37" points="360.81 275.5 360.81 279.51 313 307.11 313 303.11 360.81 275.5"/><polygon class="cls-16" points="302.76 192.51 235.57 153.72 234.46 154.36 302.76 193.79 371.06 154.36 369.94 153.72 302.76 192.51"/><g class="cls-36"><polygon class="cls-37" points="234.46 281.8 302.76 240.56 302.76 193.79 234.46 154.36 234.46 281.8"/></g><polygon class="cls-38" points="246.16 212.58 254.66 217.49 254.66 216.01 246.16 211.11 246.16 212.58"/><polygon class="cls-38" points="256.03 218.27 260.66 220.95 260.66 219.47 256.03 216.8 256.03 218.27"/><polygon class="cls-38" points="267.86 225.1 271.21 227.04 271.21 225.56 267.86 223.63 267.86 225.1"/><polygon class="cls-38" points="265.42 223.69 266.56 224.35 266.56 222.88 265.42 222.22 265.42 223.69"/><polygon class="cls-38" points="262.04 221.74 264.12 222.94 264.12 221.47 262.04 220.26 262.04 221.74"/><polygon class="cls-38" points="254.02 223.86 257.37 225.79 257.37 224.32 254.02 222.38 254.02 223.86"/><polygon class="cls-38" points="246.15 219.32 252.72 223.11 252.72 221.64 246.16 217.84 246.15 219.32"/><polygon class="cls-38" points="258.39 243.22 264.96 247.01 264.96 245.54 258.39 241.75 258.39 243.22"/><polygon class="cls-38" points="255.02 241.27 257.1 242.47 257.1 241 255.02 239.79 255.02 241.27"/><polygon class="cls-38" points="258.36 236.47 264.93 240.26 264.93 238.79 258.36 235 258.36 236.47"/><polygon class="cls-38" points="254.98 234.52 257.06 235.72 257.06 234.25 254.98 233.05 254.98 234.52"/><polygon class="cls-38" points="258.43 272.34 246.07 265.2 246.06 266.67 258.43 273.81 258.43 272.34"/><polygon class="cls-38" points="262.79 274.86 259.73 273.09 259.73 274.56 262.79 276.33 262.79 274.86"/><polygon class="cls-38" points="282.82 276.29 270.46 269.14 270.45 270.62 282.82 277.76 282.82 276.29"/><polygon class="cls-38" points="287.18 278.8 284.12 277.04 284.12 278.51 287.18 280.28 287.18 278.8"/><polygon class="cls-38" points="249.42 263.76 246.07 261.83 246.07 263.3 249.42 265.24 249.42 263.76"/><polygon class="cls-38" points="268.67 268.13 265.32 266.19 265.32 267.67 268.67 269.61 268.67 268.13"/><polygon class="cls-38" points="257.28 268.3 250.72 264.51 250.72 265.99 257.28 269.78 257.28 268.3"/><polygon class="cls-38" points="260.66 270.25 258.58 269.05 258.58 270.53 260.66 271.73 260.66 270.25"/><polygon class="cls-38" points="268.58 274.82 262.02 271.03 262.02 272.51 268.58 276.3 268.58 274.82"/><polygon class="cls-38" points="271.96 276.77 269.88 275.57 269.88 277.05 271.96 278.25 271.96 276.77"/><polygon class="cls-38" points="268.67 271.5 265.32 269.57 265.32 271.04 268.67 272.98 268.67 271.5"/><polygon class="cls-38" points="276.53 276.04 269.97 272.25 269.97 273.73 276.53 277.52 276.53 276.04"/><polygon class="cls-38" points="279.91 277.99 277.83 276.79 277.83 278.27 279.91 279.47 279.91 277.99"/><polygon class="cls-38" points="252.93 262.42 246.07 258.46 246.07 259.94 252.93 263.89 252.93 262.42"/><polygon class="cls-38" points="259.19 266.03 254.23 263.17 254.23 264.64 259.18 267.51 259.19 266.03"/><polygon class="cls-38" points="263.83 268.72 260.48 266.78 260.48 268.26 263.83 270.19 263.83 268.72"/><polygon class="cls-38" points="286.5 239.22 293.36 243.18 293.36 241.71 286.5 237.75 286.5 239.22"/><polygon class="cls-38" points="280.25 235.61 285.2 238.47 285.2 237 280.25 234.14 280.25 235.61"/><polygon class="cls-38" points="275.6 232.93 278.95 234.86 278.95 233.39 275.6 231.45 275.6 232.93"/><polygon class="cls-38" points="283.66 234.2 290.51 238.16 290.51 236.68 283.66 232.72 283.66 234.2"/><polygon class="cls-38" points="277.4 230.59 282.36 233.45 282.36 231.97 277.4 229.11 277.4 230.59"/><polygon class="cls-38" points="272.75 227.9 276.1 229.84 276.11 228.36 272.75 226.43 272.75 227.9"/><polygon class="cls-38" points="259.38 240.44 261.69 241.77 261.69 240.3 259.38 238.96 259.38 240.44"/><polygon class="cls-38" points="255.02 237.92 258.08 239.69 258.08 238.21 255.02 236.44 255.02 237.92"/><polygon class="cls-38" points="252.97 259.07 246.12 255.11 246.12 256.58 252.97 260.54 252.97 259.07"/><polygon class="cls-38" points="259.23 262.68 254.27 259.82 254.27 261.29 259.23 264.16 259.23 262.68"/><polygon class="cls-38" points="263.88 265.37 260.53 263.43 260.53 264.91 263.88 266.84 263.88 265.37"/><polygon class="cls-38" points="248.44 253.08 246.12 251.74 246.12 253.22 248.44 254.55 248.44 253.08"/><polygon class="cls-38" points="252.8 255.6 249.74 253.83 249.74 255.3 252.8 257.07 252.8 255.6"/><polygon class="cls-38" points="259.03 259.19 254.1 256.35 254.09 257.82 259.02 260.67 259.03 259.19"/><polygon class="cls-38" points="260.83 231.15 263.14 232.48 263.14 231.01 260.83 229.67 260.83 231.15"/><polygon class="cls-38" points="256.47 228.63 259.53 230.4 259.53 228.92 256.47 227.15 256.47 228.63"/><polygon class="cls-38" points="250.24 225.03 255.17 227.88 255.17 226.4 250.24 223.56 250.24 225.03"/><polygon class="cls-38" points="264.88 236.61 269.81 239.46 269.81 237.99 264.88 235.14 264.88 236.61"/><polygon class="cls-38" points="256.86 232.22 263.5 236.06 263.5 234.58 256.86 230.75 256.86 232.22"/><polygon class="cls-38" points="253.48 230.27 255.56 231.47 255.56 230 253.48 228.8 253.48 230.27"/><polygon class="cls-38" points="250.24 228.4 252.32 229.6 252.32 228.13 250.24 226.93 250.24 228.4"/><polygon class="cls-38" points="253.56 247.44 260.12 251.23 260.12 249.75 253.56 245.96 253.56 247.44"/><polygon class="cls-38" points="250.18 245.49 252.26 246.69 252.26 245.21 250.18 244.01 250.18 245.49"/><polygon class="cls-38" points="254.57 251.4 256.89 252.74 256.89 251.26 254.58 249.92 254.57 251.4"/><polygon class="cls-38" points="261.61 248.7 263.93 250.03 263.93 248.56 261.62 247.22 261.61 248.7"/><polygon class="cls-38" points="264.92 250.6 270.47 253.81 270.47 252.33 264.92 249.13 264.92 250.6"/><polygon class="cls-38" points="271.46 254.37 274.76 256.28 274.76 254.81 271.46 252.9 271.46 254.37"/><polygon class="cls-38" points="250.22 248.88 253.28 250.65 253.28 249.17 250.22 247.41 250.22 248.88"/><polygon class="cls-38" points="250.48 252.34 252.8 253.68 252.8 252.21 250.49 250.87 250.48 252.34"/><polygon class="cls-38" points="246.13 249.83 249.19 251.59 249.19 250.12 246.13 248.35 246.13 249.83"/><polygon class="cls-38" points="258.25 246.76 260.33 247.96 260.33 246.49 258.26 245.28 258.25 246.76"/><polygon class="cls-38" points="255.01 244.89 257.09 246.09 257.09 244.61 255.01 243.41 255.01 244.89"/><polygon class="cls-38" points="266.98 227.95 274.07 232.05 274.07 230.57 266.98 226.48 266.98 227.95"/><polygon class="cls-38" points="259.04 223.37 265.68 227.2 265.68 225.73 259.04 221.89 259.04 223.37"/><polygon class="cls-38" points="255.66 221.42 257.74 222.62 257.74 221.14 255.66 219.94 255.66 221.42"/><polygon class="cls-38" points="252.42 219.54 254.5 220.75 254.5 219.27 252.42 218.07 252.42 219.54"/><polygon class="cls-38" points="250.64 218.52 246.16 215.93 246.16 214.46 250.65 217.05 250.64 218.52"/><polygon class="cls-15" points="302.76 164.33 234.46 124.9 302.76 85.47 371.06 124.9 302.76 164.33"/><polygon class="cls-37" points="302.76 153.56 253.11 124.9 302.76 96.24 352.41 124.9 302.76 153.56"/><polygon class="cls-16" points="302.76 98.18 350.73 125.87 352.41 124.9 302.76 96.24 253.11 124.9 254.79 125.87 302.76 98.18"/><polygon class="cls-39" points="371.06 124.9 371.06 147.25 302.76 186.68 302.76 164.33 371.06 124.9"/><polygon class="cls-35" points="234.46 124.9 234.46 147.25 302.76 186.68 302.76 164.33 234.46 124.9"/><g class="cls-36"><polygon class="cls-37" points="239.09 134.94 239.09 141.98 298.13 176.07 298.13 169.03 239.09 134.94"/></g><polygon class="cls-16" points="302.76 163.05 235.57 124.26 234.46 124.9 302.76 164.33 371.06 124.9 369.94 124.26 302.76 163.05"/><polygon class="cls-37" points="360.81 140.56 360.81 144.56 313 172.16 313 168.16 360.81 140.56"/><polygon class="cls-40" points="234.46 124.9 234.46 147.25 302.76 186.68 302.76 164.33 234.46 124.9"/><polygon class="cls-38" points="282.82 163.14 270.46 156 270.45 157.48 282.82 164.62 282.82 163.14"/><polygon class="cls-38" points="268.67 154.99 265.32 153.05 265.32 154.53 268.67 156.46 268.67 154.99"/><polygon class="cls-38" points="252.97 145.93 246.12 141.97 246.12 143.44 252.97 147.4 252.97 145.93"/><polygon class="cls-38" points="259.23 149.54 254.27 146.68 254.27 148.15 259.23 151.01 259.23 149.54"/><polygon class="cls-38" points="263.88 152.22 260.53 150.29 260.53 151.76 263.88 153.7 263.88 152.22"/><polygon class="cls-38" points="302.83 106.08 300.66 104.83 302.83 103.58 305 104.83 302.83 106.08"/><polygon class="cls-41" points="307.17 108.58 305 107.33 307.17 106.08 309.34 107.33 307.17 108.58"/><polygon class="cls-42" points="311.5 111.09 309.34 109.83 311.5 108.58 313.67 109.83 311.5 111.09"/><polygon class="cls-38" points="315.84 113.59 313.67 112.34 315.84 111.09 318.01 112.34 315.84 113.59"/><polygon class="cls-42" points="320.18 116.09 318.01 114.84 320.18 113.59 322.35 114.84 320.18 116.09"/><polygon class="cls-38" points="324.52 118.6 322.35 117.35 324.52 116.09 326.69 117.35 324.52 118.6"/><polygon class="cls-38" points="328.85 121.1 326.69 119.85 328.85 118.6 331.02 119.85 328.85 121.1"/><polygon class="cls-38" points="333.19 123.61 331.02 122.36 333.19 121.1 335.36 122.36 333.19 123.61"/><polygon class="cls-41" points="337.53 126.11 335.36 124.86 337.53 123.61 339.7 124.86 337.53 126.11"/><polygon class="cls-38" points="298.48 108.59 296.31 107.34 298.48 106.09 300.64 107.34 298.48 108.59"/><polygon class="cls-38" points="302.81 111.1 300.64 109.84 302.81 108.59 304.98 109.84 302.81 111.1"/><polygon class="cls-38" points="307.15 113.6 304.98 112.35 307.15 111.1 309.32 112.35 307.15 113.6"/><polygon class="cls-38" points="311.49 116.11 309.32 114.85 311.49 113.6 313.65 114.85 311.49 116.11"/><polygon class="cls-38" points="315.82 118.61 313.65 117.36 315.82 116.11 317.99 117.36 315.82 118.61"/><polygon class="cls-38" points="320.16 121.11 317.99 119.86 320.16 118.61 322.33 119.86 320.16 121.11"/><polygon class="cls-38" points="324.5 123.62 322.33 122.37 324.5 121.11 326.67 122.37 324.5 123.62"/><polygon class="cls-38" points="328.84 126.12 326.67 124.87 328.84 123.62 331 124.87 328.84 126.12"/><polygon class="cls-38" points="333.17 128.63 331 127.37 333.17 126.12 335.34 127.37 333.17 128.63"/><polygon class="cls-38" points="294.12 111.11 291.95 109.86 294.12 108.6 296.29 109.86 294.12 111.11"/><polygon class="cls-38" points="298.46 113.61 296.29 112.36 298.46 111.11 300.63 112.36 298.46 113.61"/><polygon class="cls-38" points="302.79 116.12 300.63 114.86 302.79 113.61 304.96 114.86 302.79 116.12"/><polygon class="cls-41" points="307.13 118.62 304.96 117.37 307.13 116.12 309.3 117.37 307.13 118.62"/><polygon class="cls-42" points="311.47 121.12 309.3 119.87 311.47 118.62 313.64 119.87 311.47 121.12"/><polygon class="cls-42" points="315.81 123.63 313.64 122.38 315.81 121.12 317.98 122.38 315.81 123.63"/><polygon class="cls-38" points="320.14 126.13 317.98 124.88 320.14 123.63 322.31 124.88 320.14 126.13"/><polygon class="cls-38" points="324.48 128.64 322.31 127.39 324.48 126.13 326.65 127.39 324.48 128.64"/><polygon class="cls-38" points="328.82 131.14 326.65 129.89 328.82 128.64 330.99 129.89 328.82 131.14"/><polygon class="cls-42" points="289.76 113.62 287.6 112.37 289.76 111.12 291.93 112.37 289.76 113.62"/><polygon class="cls-42" points="294.1 116.13 291.93 114.87 294.1 113.62 296.27 114.87 294.1 116.13"/><polygon class="cls-41" points="298.44 118.63 296.27 117.38 298.44 116.13 300.61 117.38 298.44 118.63"/><polygon class="cls-38" points="302.78 121.13 300.61 119.88 302.78 118.63 304.94 119.88 302.78 121.13"/><polygon class="cls-38" points="307.11 123.64 304.95 122.39 307.11 121.13 309.28 122.39 307.11 123.64"/><polygon class="cls-38" points="311.45 126.14 309.28 124.89 311.45 123.64 313.62 124.89 311.45 126.14"/><polygon class="cls-42" points="315.79 128.65 313.62 127.39 315.79 126.14 317.96 127.39 315.79 128.65"/><polygon class="cls-38" points="320.13 131.15 317.96 129.9 320.13 128.65 322.3 129.9 320.13 131.15"/><polygon class="cls-38" points="324.46 133.66 322.3 132.4 324.46 131.15 326.63 132.4 324.46 133.66"/><polygon class="cls-38" points="285.41 116.14 283.24 114.88 285.41 113.63 287.58 114.88 285.41 116.14"/><polygon class="cls-38" points="289.75 118.64 287.58 117.39 289.75 116.14 291.92 117.39 289.75 118.64"/><polygon class="cls-38" points="294.08 121.14 291.92 119.89 294.08 118.64 296.25 119.89 294.08 121.14"/><polygon class="cls-38" points="298.42 123.65 296.25 122.4 298.42 121.14 300.59 122.4 298.42 123.65"/><polygon class="cls-38" points="302.76 126.15 300.59 124.9 302.76 123.65 304.93 124.9 302.76 126.15"/><polygon class="cls-38" points="307.1 128.66 304.93 127.41 307.1 126.15 309.26 127.41 307.1 128.66"/><polygon class="cls-38" points="311.43 131.16 309.26 129.91 311.43 128.66 313.6 129.91 311.43 131.16"/><polygon class="cls-38" points="315.77 133.66 313.6 132.41 315.77 131.16 317.94 132.41 315.77 133.66"/><polygon class="cls-38" points="320.11 136.17 317.94 134.92 320.11 133.66 322.28 134.92 320.11 136.17"/><polygon class="cls-38" points="281.06 118.65 278.89 117.4 281.06 116.15 283.22 117.4 281.06 118.65"/><polygon class="cls-38" points="285.39 121.16 283.22 119.9 285.39 118.65 287.56 119.9 285.39 121.16"/><polygon class="cls-42" points="289.73 123.66 287.56 122.41 289.73 121.16 291.9 122.41 289.73 123.66"/><polygon class="cls-38" points="294.07 126.16 291.9 124.91 294.07 123.66 296.24 124.91 294.07 126.16"/><polygon class="cls-41" points="298.4 128.67 296.24 127.42 298.4 126.16 300.57 127.42 298.4 128.67"/><polygon class="cls-38" points="302.74 131.17 300.57 129.92 302.74 128.67 304.91 129.92 302.74 131.17"/><polygon class="cls-38" points="307.08 133.68 304.91 132.42 307.08 131.17 309.25 132.42 307.08 133.68"/><polygon class="cls-38" points="311.42 136.18 309.25 134.93 311.42 133.68 313.58 134.93 311.42 136.18"/><polygon class="cls-38" points="315.75 138.68 313.58 137.43 315.75 136.18 317.92 137.43 315.75 138.68"/><polygon class="cls-38" points="276.7 121.17 274.53 119.91 276.7 118.66 278.87 119.91 276.7 121.17"/><polygon class="cls-38" points="281.04 123.67 278.87 122.42 281.04 121.17 283.21 122.42 281.04 123.67"/><polygon class="cls-42" points="285.38 126.17 283.21 124.92 285.38 123.67 287.54 124.92 285.38 126.17"/><polygon class="cls-38" points="289.71 128.68 287.54 127.42 289.71 126.17 291.88 127.42 289.71 128.68"/><polygon class="cls-38" points="294.05 131.18 291.88 129.93 294.05 128.68 296.22 129.93 294.05 131.18"/><polygon class="cls-41" points="298.39 133.69 296.22 132.43 298.39 131.18 300.56 132.43 298.39 133.69"/><polygon class="cls-42" points="302.72 136.19 300.56 134.94 302.72 133.69 304.89 134.94 302.72 136.19"/><polygon class="cls-38" points="307.06 138.69 304.89 137.44 307.06 136.19 309.23 137.44 307.06 138.69"/><polygon class="cls-41" points="311.4 141.2 309.23 139.95 311.4 138.69 313.57 139.95 311.4 141.2"/><polygon class="cls-38" points="272.35 123.68 270.18 122.43 272.35 121.17 274.51 122.43 272.35 123.68"/><polygon class="cls-42" points="276.68 126.18 274.51 124.93 276.68 123.68 278.85 124.93 276.68 126.18"/><polygon class="cls-38" points="281.02 128.69 278.85 127.44 281.02 126.18 283.19 127.44 281.02 128.69"/><polygon class="cls-38" points="285.36 131.19 283.19 129.94 285.36 128.69 287.53 129.94 285.36 131.19"/><polygon class="cls-38" points="289.69 133.7 287.53 132.44 289.69 131.19 291.86 132.44 289.69 133.7"/><polygon class="cls-38" points="294.03 136.2 291.86 134.95 294.03 133.7 296.2 134.95 294.03 136.2"/><polygon class="cls-38" points="298.37 138.7 296.2 137.45 298.37 136.2 300.54 137.45 298.37 138.7"/><polygon class="cls-42" points="302.71 141.21 300.54 139.96 302.71 138.7 304.88 139.96 302.71 141.21"/><polygon class="cls-38" points="307.04 143.71 304.88 142.46 307.04 141.21 309.21 142.46 307.04 143.71"/><polygon class="cls-38" points="267.99 126.19 265.82 124.94 267.99 123.69 270.16 124.94 267.99 126.19"/><polygon class="cls-41" points="272.33 128.7 270.16 127.44 272.33 126.19 274.5 127.44 272.33 128.7"/><polygon class="cls-38" points="276.67 131.2 274.5 129.95 276.67 128.7 278.83 129.95 276.67 131.2"/><polygon class="cls-38" points="281 133.71 278.83 132.45 281 131.2 283.17 132.45 281 133.71"/><polygon class="cls-38" points="285.34 136.21 283.17 134.96 285.34 133.71 287.51 134.96 285.34 136.21"/><polygon class="cls-38" points="289.68 138.71 287.51 137.46 289.68 136.21 291.85 137.46 289.68 138.71"/><polygon class="cls-42" points="294.01 141.22 291.85 139.97 294.01 138.71 296.18 139.97 294.01 141.22"/><polygon class="cls-38" points="298.35 143.72 296.18 142.47 298.35 141.22 300.52 142.47 298.35 143.72"/><polygon class="cls-38" points="302.69 146.23 300.52 144.97 302.69 143.72 304.86 144.97 302.69 146.23"/><path class="cls-4" d="M82.22,225.36a6,6,0,0,1-3-.79L44.91,204.74a1.68,1.68,0,0,1-.85-1.48,1.71,1.71,0,0,1,.85-1.48l62.3-36,.45.26,36.86,21.28a1.71,1.71,0,0,1,0,3L85.2,224.57A6,6,0,0,1,82.22,225.36Zm25-58.78-62,35.77a1.05,1.05,0,0,0,0,1.83L79.58,224a5.36,5.36,0,0,0,5.29,0l59.32-34.25a1,1,0,0,0,0-1.82Z" transform="translate(24.95 85.47)"/><path class="cls-43" d="M107.28,152,99,103l.66-.28-1-.57h0a.73.73,0,0,0-.77.06l-66,38.13A1.85,1.85,0,0,0,31,142l8.33,49.42a.62.62,0,0,0,.35.51h0l1,.56.17-.91-.06,0,65.66-37.91A1.84,1.84,0,0,0,107.28,152Z" transform="translate(24.95 85.47)"/><path class="cls-44" d="M32.23,141.69l-1.08-.48A1.54,1.54,0,0,0,31,142l8.33,49.42a.62.62,0,0,0,.35.51h0l1,.56.17-.91-.06,0,3.33-1.92Z" transform="translate(24.95 85.47)"/><path class="cls-35" d="M107.46,154.32l-66,38.13c-.51.3-.95.13-1-.4L32,142.62A1.87,1.87,0,0,1,32.9,141L99,102.81c.51-.29,1-.12,1,.41l8.33,49.42A1.9,1.9,0,0,1,107.46,154.32Z" transform="translate(24.95 85.47)"/><g class="cls-36"><polygon class="cls-37" points="123.04 191.44 59.37 228.2 67.26 274.74 130.89 238.01 123.04 191.44"/></g><path class="cls-45" d="M149,177.72l-3.6,1.88-36.15-20.87a2.6,2.6,0,0,0-2.36.1l-62.34,36c-.59-.33-3.31-1.64-3.31-1.64l1.32,3.44h0a.8.8,0,0,0,.37.41L81,219a2.63,2.63,0,0,0,2.36-.1l63.79-36.83a1.2,1.2,0,0,0,.54-.57h0Z" transform="translate(24.95 85.47)"/><path class="cls-46" d="M148.42,178.31,83,216.05a2.64,2.64,0,0,1-2.41.1l-39-22.52c-.62-.36-.54-1,.18-1.4l65.38-37.74a2.64,2.64,0,0,1,2.41-.1l39,22.52C149.22,177.27,149.14,177.89,148.42,178.31Z" transform="translate(24.95 85.47)"/><path class="cls-16" d="M148.42,177.93,83,215.68a2.67,2.67,0,0,1-2.41.1l-39-22.53a.8.8,0,0,1-.38-.42.67.67,0,0,0,.38.8l39,22.52a2.64,2.64,0,0,0,2.41-.1l65.38-37.74c.49-.28.67-.65.56-1A1.14,1.14,0,0,1,148.42,177.93Z" transform="translate(24.95 85.47)"/><path class="cls-47" d="M63.32,207.89v-.72c0-.07,0-.1.1-.07L66,208.56a.23.23,0,0,1,.09.18v.72c0,.06,0,.1-.09.07l-2.53-1.46A.24.24,0,0,1,63.32,207.89Z" transform="translate(24.95 85.47)"/><path class="cls-47" d="M67.11,210.07v-.71c0-.07,0-.1.09-.07l2.53,1.46a.21.21,0,0,1,.09.17v.72c0,.07,0,.1-.09.07l-2.53-1.46A.23.23,0,0,1,67.11,210.07Z" transform="translate(24.95 85.47)"/><path class="cls-48" d="M51.78,191.52l54.33-31.37a1.17,1.17,0,0,1,1.17,0l19.35,11.2a.41.41,0,0,1,0,.72l-54.3,31.35a1.17,1.17,0,0,1-1.17,0L51.78,192.24A.42.42,0,0,1,51.78,191.52Z" transform="translate(24.95 85.47)"/><path class="cls-49" d="M51.78,192.24l.2.11,54.13-31.25a1.17,1.17,0,0,1,1.17,0l19.16,11.08.19-.11a.41.41,0,0,0,0-.72l-19.35-11.2a1.17,1.17,0,0,0-1.17,0L51.78,191.52A.42.42,0,0,0,51.78,192.24Z" transform="translate(24.95 85.47)"/><polygon class="cls-35" points="133.69 248.46 86.5 275.7 84.4 274.49 131.59 247.25 133.69 248.46"/><polygon class="cls-35" points="138.84 251.43 94.57 276.99 92.47 275.77 136.74 250.22 138.84 251.43"/><polygon class="cls-35" points="142.19 253.36 90.07 283.45 87.97 282.24 140.09 252.15 142.19 253.36"/><polygon class="cls-35" points="145.54 255.3 93.42 285.39 91.32 284.18 143.44 254.09 145.54 255.3"/><polygon class="cls-35" points="148.89 257.23 96.77 287.32 94.67 286.11 146.79 256.02 148.89 257.23"/><polygon class="cls-35" points="83.65 277.35 81.55 278.56 79.45 277.35 81.55 276.14 83.65 277.35"/><polygon class="cls-35" points="91.05 279.02 86.69 281.53 84.59 280.32 88.95 277.81 91.05 279.02"/><path class="cls-50" d="M108.21,199.11l14.65-8.46a.63.63,0,0,0,0-1.19l-10-5.79a2.31,2.31,0,0,0-2.08,0l-14.64,8.46a.63.63,0,0,0,0,1.2l10,5.78A2.31,2.31,0,0,0,108.21,199.11Z" transform="translate(24.95 85.47)"/><path class="cls-49" d="M96.12,192.62l14.64-8.46a2.31,2.31,0,0,1,2.08,0l10,5.79a.93.93,0,0,1,.36.35c.15-.29,0-.62-.36-.84l-10-5.79a2.31,2.31,0,0,0-2.08,0l-14.64,8.46c-.4.23-.52.55-.36.84A.81.81,0,0,1,96.12,192.62Z" transform="translate(24.95 85.47)"/><g class="cls-51"><g class="cls-52"><path class="cls-53" d="M107.23,154.41,41.85,192.16a2.73,2.73,0,0,1-2.42.1l-39-22.53c-.62-.36-.54-1,.17-1.39L66,130.59a2.7,2.7,0,0,1,2.42-.1l39,22.52C108,153.37,108,154,107.23,154.41Z" transform="translate(24.95 85.47)"/><path class="cls-54" d="M41.66,161.18l14.65-8.46a.63.63,0,0,0,0-1.2l-10-5.78a2.31,2.31,0,0,0-2.08,0L29.56,154.2a.63.63,0,0,0,0,1.19l10,5.79A2.31,2.31,0,0,0,41.66,161.18Z" transform="translate(24.95 85.47)"/><path class="cls-49" d="M29.56,154.69l14.65-8.46a2.31,2.31,0,0,1,2.08,0l10,5.78a1,1,0,0,1,.36.36c.15-.29,0-.62-.36-.85l-10-5.78a2.31,2.31,0,0,0-2.08,0L29.56,154.2c-.39.22-.51.55-.35.84A.84.84,0,0,1,29.56,154.69Z" transform="translate(24.95 85.47)"/><path class="cls-48" d="M23.13,174.39,77.46,143a1.17,1.17,0,0,1,1.17,0L98,154.22a.41.41,0,0,1,0,.72L43.67,186.3a1.17,1.17,0,0,1-1.17,0L23.13,175.12A.42.42,0,0,1,23.13,174.39Z" transform="translate(24.95 85.47)"/><path class="cls-49" d="M23.13,175.12l.19.11L77.46,144a1.19,1.19,0,0,1,1.17,0l19.15,11.09.19-.12a.41.41,0,0,0,0-.72L78.63,143a1.17,1.17,0,0,0-1.17,0L23.13,174.39A.42.42,0,0,0,23.13,175.12Z" transform="translate(24.95 85.47)"/><polygon class="cls-35" points="117.86 238.93 70.53 266.25 72.4 267.34 119.73 240.01 117.86 238.93"/><polygon class="cls-35" points="112.87 236.05 67.88 262.02 69.76 263.1 114.75 237.13 112.87 236.05"/><polygon class="cls-35" points="64.52 263.96 60.32 266.39 62.2 267.47 66.4 265.04 64.52 263.96"/><polygon class="cls-35" points="68.23 267.58 65.31 269.27 67.18 270.35 70.11 268.66 68.23 267.58"/><polygon class="cls-35" points="109.75 234.24 57.2 264.58 59.07 265.67 111.62 235.33 109.75 234.24"/><polygon class="cls-35" points="106.62 232.44 54.07 262.78 55.95 263.86 108.5 233.52 106.62 232.44"/><polygon class="cls-35" points="103.5 230.64 50.95 260.98 52.82 262.06 105.37 231.72 103.5 230.64"/></g></g><polygon class="cls-38" points="83.34 257 88.49 254.02 88.64 254.91 83.49 257.89 83.34 257"/><polygon class="cls-38" points="89.32 253.54 92.13 251.92 92.28 252.81 89.47 254.44 89.32 253.54"/><polygon class="cls-38" points="96.5 249.4 98.53 248.23 98.68 249.12 96.65 250.29 96.5 249.4"/><polygon class="cls-38" points="95.02 250.26 95.71 249.85 95.86 250.75 95.17 251.15 95.02 250.26"/><polygon class="cls-38" points="92.97 251.44 94.23 250.71 94.38 251.61 93.12 252.33 92.97 251.44"/><polygon class="cls-38" points="87.42 250.16 89.45 248.98 89.6 249.88 87.57 251.05 87.42 250.16"/><polygon class="cls-38" points="82.65 252.91 86.63 250.61 86.78 251.5 82.8 253.8 82.65 252.91"/><polygon class="cls-38" points="88.36 238.41 92.34 236.11 92.49 237.01 88.51 239.31 88.36 238.41"/><polygon class="cls-38" points="86.31 239.6 87.57 238.87 87.72 239.76 86.46 240.49 86.31 239.6"/><polygon class="cls-38" points="89.02 242.5 93 240.21 93.15 241.1 89.17 243.4 89.02 242.5"/><polygon class="cls-38" points="86.97 243.69 88.23 242.96 88.39 243.85 87.13 244.58 86.97 243.69"/><polygon class="cls-38" points="85.42 220.75 77.92 225.09 77.77 224.19 85.27 219.86 85.42 220.75"/><polygon class="cls-38" points="88.06 219.23 86.21 220.3 86.06 219.4 87.91 218.33 88.06 219.23"/><polygon class="cls-38" points="101.23 218.36 93.74 222.69 93.59 221.79 101.08 217.46 101.23 218.36"/><polygon class="cls-38" points="103.87 216.83 102.02 217.9 101.87 217.01 103.72 215.94 103.87 216.83"/><polygon class="cls-38" points="80.3 225.96 78.27 227.13 78.12 226.23 80.15 225.06 80.3 225.96"/><polygon class="cls-38" points="92.66 223.31 90.63 224.48 90.47 223.58 92.5 222.41 92.66 223.31"/><polygon class="cls-38" points="85.07 223.2 81.09 225.5 80.94 224.61 84.92 222.31 85.07 223.2"/><polygon class="cls-38" points="87.11 222.02 85.85 222.75 85.7 221.85 86.96 221.12 87.11 222.02"/><polygon class="cls-38" points="91.92 219.25 87.94 221.55 87.79 220.65 91.76 218.35 91.92 219.25"/><polygon class="cls-38" points="93.96 218.06 92.7 218.79 92.55 217.9 93.81 217.17 93.96 218.06"/><polygon class="cls-38" points="92.31 221.26 90.28 222.43 90.13 221.54 92.16 220.37 92.31 221.26"/><polygon class="cls-38" points="97.08 218.51 93.1 220.81 92.95 219.91 96.92 217.61 97.08 218.51"/><polygon class="cls-38" points="99.12 217.32 97.86 218.05 97.71 217.16 98.97 216.43 99.12 217.32"/><polygon class="cls-38" points="82.77 226.77 78.61 229.17 78.46 228.28 82.62 225.88 82.77 226.77"/><polygon class="cls-38" points="86.56 224.58 83.56 226.32 83.41 225.42 86.41 223.68 86.56 224.58"/><polygon class="cls-38" points="89.38 222.95 87.35 224.12 87.2 223.23 89.23 222.06 89.38 222.95"/><polygon class="cls-38" points="109.07 213.84 104.92 216.24 104.77 215.34 108.92 212.94 109.07 213.84"/><polygon class="cls-38" points="112.86 211.64 109.86 213.38 109.71 212.49 112.71 210.75 112.86 211.64"/><polygon class="cls-38" points="115.68 210.01 113.65 211.19 113.5 210.29 115.53 209.12 115.68 210.01"/><polygon class="cls-38" points="107.45 240.83 111.61 238.43 111.76 239.33 107.6 241.73 107.45 240.83"/><polygon class="cls-38" points="103.66 243.02 106.66 241.29 106.81 242.18 103.81 243.92 103.66 243.02"/><polygon class="cls-38" points="100.84 244.65 102.87 243.48 103.02 244.37 100.99 245.55 100.84 244.65"/><polygon class="cls-38" points="106.07 243.88 110.23 241.48 110.38 242.37 106.22 244.78 106.07 243.88"/><polygon class="cls-38" points="102.28 246.07 105.28 244.34 105.44 245.23 102.43 246.97 102.28 246.07"/><polygon class="cls-38" points="99.46 247.7 101.49 246.53 101.64 247.42 99.61 248.59 99.46 247.7"/><polygon class="cls-38" points="89.3 240.1 90.7 239.29 90.85 240.19 89.45 241 89.3 240.1"/><polygon class="cls-38" points="86.65 241.63 88.51 240.56 88.66 241.45 86.8 242.52 86.65 241.63"/><polygon class="cls-38" points="83.14 228.8 78.99 231.2 78.83 230.31 82.99 227.91 83.14 228.8"/><polygon class="cls-38" points="86.93 226.61 83.93 228.35 83.78 227.45 86.78 225.72 86.93 226.61"/><polygon class="cls-38" points="89.75 224.98 87.72 226.16 87.57 225.26 89.6 224.09 89.75 224.98"/><polygon class="cls-38" points="80.73 232.44 79.33 233.25 79.18 232.35 80.58 231.54 80.73 232.44"/><polygon class="cls-38" points="83.38 230.91 81.52 231.98 81.37 231.09 83.22 230.01 83.38 230.91"/><polygon class="cls-38" points="87.15 228.73 84.16 230.45 84.01 229.56 87 227.83 87.15 228.73"/><polygon class="cls-38" points="91.2 245.74 92.61 244.93 92.76 245.82 91.36 246.63 91.2 245.74"/><polygon class="cls-38" points="88.56 247.26 90.42 246.19 90.57 247.09 88.71 248.16 88.56 247.26"/><polygon class="cls-38" points="84.79 249.44 87.78 247.72 87.93 248.61 84.94 250.34 84.79 249.44"/><polygon class="cls-38" points="93.34 242.42 96.33 240.69 96.48 241.59 93.49 243.31 93.34 242.42"/><polygon class="cls-38" points="88.45 245.08 92.48 242.75 92.63 243.65 88.61 245.98 88.45 245.08"/><polygon class="cls-38" points="86.41 246.27 87.67 245.54 87.82 246.43 86.56 247.16 86.41 246.27"/><polygon class="cls-38" points="84.44 247.4 85.7 246.67 85.85 247.57 84.59 248.3 84.44 247.4"/><polygon class="cls-38" points="84.71 235.86 88.69 233.56 88.84 234.45 84.86 236.75 84.71 235.86"/><polygon class="cls-38" points="82.67 237.04 83.92 236.31 84.08 237.21 82.82 237.93 82.67 237.04"/><polygon class="cls-38" points="84.99 233.45 86.39 232.64 86.54 233.54 85.14 234.35 84.99 233.45"/><polygon class="cls-38" points="89.94 235.09 91.34 234.28 91.5 235.17 90.09 235.99 89.94 235.09"/><polygon class="cls-38" points="91.94 233.94 95.31 231.99 95.46 232.89 92.09 234.83 91.94 233.94"/><polygon class="cls-38" points="95.91 231.65 97.91 230.49 98.06 231.38 96.06 232.54 95.91 231.65"/><polygon class="cls-38" points="82.34 234.98 84.2 233.91 84.35 234.8 82.5 235.88 82.34 234.98"/><polygon class="cls-38" points="82.17 232.88 83.57 232.07 83.72 232.97 82.32 233.78 82.17 232.88"/><polygon class="cls-38" points="79.53 234.41 81.38 233.34 81.53 234.23 79.68 235.3 79.53 234.41"/><polygon class="cls-38" points="87.9 236.27 89.16 235.54 89.31 236.43 88.06 237.16 87.9 236.27"/><polygon class="cls-38" points="85.94 237.4 87.2 236.67 87.35 237.57 86.09 238.3 85.94 237.4"/><polygon class="cls-38" points="95.62 247.67 99.92 245.19 100.07 246.08 95.77 248.56 95.62 247.67"/><polygon class="cls-38" points="90.8 250.45 94.83 248.13 94.98 249.02 90.96 251.35 90.8 250.45"/><polygon class="cls-38" points="88.76 251.64 90.02 250.91 90.17 251.8 88.91 252.53 88.76 251.64"/><polygon class="cls-38" points="86.79 252.77 88.05 252.04 88.2 252.94 86.94 253.67 86.79 252.77"/><polygon class="cls-38" points="85.72 253.39 83 254.96 83.15 255.86 85.87 254.29 85.72 253.39"/><path class="cls-4" d="M470.17,225.36a6,6,0,0,1-3-.79l-59.32-34.25a1.7,1.7,0,0,1,0-3l37.31-21.54.16.09,62.14,35.87a1.71,1.71,0,0,1,.85,1.48,1.68,1.68,0,0,1-.85,1.48l-34.34,19.83A6,6,0,0,1,470.17,225.36ZM467.53,224a5.36,5.36,0,0,0,5.29,0l34.34-19.82a1.07,1.07,0,0,0,0-1.83l-62-35.77-.13.07L408.2,187.93a1.06,1.06,0,0,0,0,1.82Z" transform="translate(24.95 85.47)"/><path class="cls-55" d="M445.11,152l8.27-49-.67-.28,1-.57h0a.73.73,0,0,1,.77.06l66,38.13a1.9,1.9,0,0,1,.86,1.68l-8.33,49.42a.64.64,0,0,1-.35.51h0l-1,.56-.16-.91.05,0L446,153.72A1.87,1.87,0,0,1,445.11,152Z" transform="translate(24.95 85.47)"/><path class="cls-56" d="M520.16,141.69l1.09-.48a1.54,1.54,0,0,1,.14.82l-8.33,49.42a.64.64,0,0,1-.35.51h0l-1,.56-.16-.91.05,0-3.32-1.92Z" transform="translate(24.95 85.47)"/><path class="cls-35" d="M444.93,154.32,511,192.45c.51.3.94.13,1-.4l8.33-49.43a1.83,1.83,0,0,0-.86-1.67l-66.05-38.14c-.51-.29-.94-.12-1,.41l-8.33,49.42A1.87,1.87,0,0,0,444.93,154.32Z" transform="translate(24.95 85.47)"/><g class="cls-36"><polygon class="cls-37" points="479.25 191.44 542.92 228.2 535.03 274.74 471.4 238.01 479.25 191.44"/></g><path class="cls-57" d="M403.41,177.72,407,179.6l36.14-20.87a2.6,2.6,0,0,1,2.36.1l62.34,36c.6-.33,3.32-1.64,3.32-1.64l-1.32,3.44h0a.77.77,0,0,1-.36.41l-38.07,22a2.63,2.63,0,0,1-2.36-.1l-63.79-36.83a1.16,1.16,0,0,1-.54-.57h0Z" transform="translate(24.95 85.47)"/><path class="cls-58" d="M404,178.31l65.38,37.74a2.66,2.66,0,0,0,2.42.1l39-22.52c.62-.36.55-1-.17-1.4l-65.38-37.74a2.66,2.66,0,0,0-2.42-.1l-39,22.52C403.18,177.27,403.26,177.89,404,178.31Z" transform="translate(24.95 85.47)"/><path class="cls-16" d="M404,177.93l65.38,37.75a2.7,2.7,0,0,0,2.42.1l39-22.53a.73.73,0,0,0,.38-.42.66.66,0,0,1-.38.8l-39,22.52a2.66,2.66,0,0,1-2.42-.1L404,178.31c-.48-.28-.66-.65-.55-1A1.11,1.11,0,0,0,404,177.93Z" transform="translate(24.95 85.47)"/><path class="cls-47" d="M489.07,207.89v-.72c0-.07,0-.1-.09-.07l-2.53,1.46a.23.23,0,0,0-.09.18v.72c0,.06,0,.1.09.07l2.53-1.46A.23.23,0,0,0,489.07,207.89Z" transform="translate(24.95 85.47)"/><path class="cls-47" d="M485.29,210.07v-.71c0-.07,0-.1-.09-.07l-2.53,1.46a.21.21,0,0,0-.09.17v.72c0,.07,0,.1.09.07l2.53-1.46A.23.23,0,0,0,485.29,210.07Z" transform="translate(24.95 85.47)"/><path class="cls-48" d="M500.61,191.52l-54.33-31.37a1.17,1.17,0,0,0-1.17,0l-19.35,11.2a.42.42,0,0,0,0,.72l54.31,31.35a1.17,1.17,0,0,0,1.17,0l19.37-11.18A.41.41,0,0,0,500.61,191.52Z" transform="translate(24.95 85.47)"/><path class="cls-49" d="M500.61,192.24l-.19.11L446.28,161.1a1.17,1.17,0,0,0-1.17,0L426,172.18l-.2-.11a.42.42,0,0,1,0-.72l19.35-11.2a1.17,1.17,0,0,1,1.17,0l54.33,31.37A.41.41,0,0,1,500.61,192.24Z" transform="translate(24.95 85.47)"/><polygon class="cls-35" points="468.6 248.46 515.79 275.7 517.89 274.49 470.7 247.25 468.6 248.46"/><polygon class="cls-35" points="463.45 251.43 507.72 276.99 509.82 275.77 465.55 250.22 463.45 251.43"/><polygon class="cls-35" points="460.1 253.36 512.22 283.45 514.32 282.24 462.2 252.15 460.1 253.36"/><polygon class="cls-35" points="456.75 255.3 508.87 285.39 510.97 284.18 458.85 254.09 456.75 255.3"/><polygon class="cls-35" points="453.4 257.23 505.52 287.32 507.62 286.11 455.5 256.02 453.4 257.23"/><polygon class="cls-35" points="518.64 277.35 520.74 278.56 522.84 277.35 520.74 276.14 518.64 277.35"/><polygon class="cls-35" points="511.24 279.02 515.6 281.53 517.7 280.32 513.34 277.81 511.24 279.02"/><path class="cls-59" d="M444.19,199.11l-14.65-8.46a.63.63,0,0,1,0-1.19l10-5.79a2.29,2.29,0,0,1,2.07,0l14.65,8.46a.63.63,0,0,1,0,1.2l-10,5.78A2.29,2.29,0,0,1,444.19,199.11Z" transform="translate(24.95 85.47)"/><path class="cls-49" d="M456.28,192.62l-14.65-8.46a2.29,2.29,0,0,0-2.07,0l-10,5.79a.87.87,0,0,0-.36.35c-.15-.29,0-.62.36-.84l10-5.79a2.29,2.29,0,0,1,2.07,0l14.65,8.46c.4.23.51.55.36.84A.87.87,0,0,0,456.28,192.62Z" transform="translate(24.95 85.47)"/><g class="cls-51"><g class="cls-60"><path class="cls-61" d="M445.17,154.41l65.38,37.75a2.71,2.71,0,0,0,2.41.1l39-22.53c.62-.36.54-1-.18-1.39l-65.38-37.75a2.67,2.67,0,0,0-2.41-.1L445,153C444.37,153.37,444.45,154,445.17,154.41Z" transform="translate(24.95 85.47)"/><path class="cls-62" d="M510.74,161.18l-14.65-8.46a.63.63,0,0,1,0-1.2l10-5.78a2.29,2.29,0,0,1,2.07,0l14.65,8.46a.63.63,0,0,1,0,1.19l-10,5.79A2.29,2.29,0,0,1,510.74,161.18Z" transform="translate(24.95 85.47)"/><path class="cls-49" d="M522.83,154.69l-14.65-8.46a2.29,2.29,0,0,0-2.07,0l-10,5.78a.89.89,0,0,0-.36.36c-.15-.29,0-.62.36-.85l10-5.78a2.29,2.29,0,0,1,2.07,0l14.65,8.46c.4.22.51.55.36.84A.87.87,0,0,0,522.83,154.69Z" transform="translate(24.95 85.47)"/><path class="cls-48" d="M529.27,174.39,474.94,143a1.17,1.17,0,0,0-1.17,0l-19.35,11.19a.42.42,0,0,0,0,.72l54.31,31.36a1.17,1.17,0,0,0,1.17,0l19.37-11.18A.42.42,0,0,0,529.27,174.39Z" transform="translate(24.95 85.47)"/><path class="cls-49" d="M529.27,175.12l-.19.11L474.94,144a1.19,1.19,0,0,0-1.17,0l-19.15,11.09-.2-.12a.42.42,0,0,1,0-.72L473.77,143a1.17,1.17,0,0,1,1.17,0l54.33,31.36A.42.42,0,0,1,529.27,175.12Z" transform="translate(24.95 85.47)"/><polygon class="cls-35" points="484.43 238.93 531.76 266.25 529.89 267.34 482.56 240.01 484.43 238.93"/><polygon class="cls-35" points="489.42 236.05 534.41 262.02 532.53 263.1 487.55 237.13 489.42 236.05"/><polygon class="cls-35" points="537.77 263.96 541.97 266.39 540.09 267.47 535.89 265.04 537.77 263.96"/><polygon class="cls-35" points="534.06 267.58 536.98 269.27 535.11 270.35 532.18 268.66 534.06 267.58"/><polygon class="cls-35" points="492.55 234.24 545.09 264.58 543.22 265.67 490.67 235.33 492.55 234.24"/><polygon class="cls-35" points="495.67 232.44 548.22 262.78 546.34 263.86 493.8 233.52 495.67 232.44"/><polygon class="cls-35" points="498.8 230.64 551.34 260.98 549.47 262.06 496.92 231.72 498.8 230.64"/></g></g><polygon class="cls-38" points="493.27 208.92 498.42 211.9 498.57 211 493.42 208.03 493.27 208.92"/><polygon class="cls-38" points="499.25 212.37 502.06 214 502.21 213.1 499.4 211.48 499.25 212.37"/><polygon class="cls-38" points="506.42 216.52 508.45 217.69 508.61 216.8 506.57 215.62 506.42 216.52"/><polygon class="cls-38" points="504.94 215.66 505.64 216.06 505.79 215.17 505.09 214.77 504.94 215.66"/><polygon class="cls-38" points="502.89 214.48 504.15 215.21 504.31 214.31 503.05 213.58 502.89 214.48"/><polygon class="cls-38" points="497.35 215.76 499.38 216.94 499.53 216.04 497.5 214.87 497.35 215.76"/><polygon class="cls-38" points="492.58 213.01 496.56 215.31 496.71 214.41 492.73 212.11 492.58 213.01"/><polygon class="cls-38" points="498.28 227.5 502.26 229.8 502.41 228.91 498.44 226.61 498.28 227.5"/><polygon class="cls-38" points="496.24 226.32 497.5 227.05 497.65 226.16 496.39 225.43 496.24 226.32"/><polygon class="cls-38" points="498.95 223.41 502.93 225.71 503.08 224.82 499.1 222.52 498.95 223.41"/><polygon class="cls-38" points="496.9 222.23 498.16 222.96 498.31 222.06 497.05 221.34 496.9 222.23"/><polygon class="cls-38" points="495.35 245.16 487.85 240.83 487.7 241.73 495.2 246.06 495.35 245.16"/><polygon class="cls-38" points="497.99 246.69 496.13 245.62 495.98 246.51 497.84 247.59 497.99 246.69"/><polygon class="cls-38" points="511.16 247.56 503.67 243.23 503.51 244.12 511.01 248.45 511.16 247.56"/><polygon class="cls-38" points="513.8 249.09 511.95 248.01 511.8 248.91 513.65 249.98 513.8 249.09"/><polygon class="cls-38" points="490.23 239.96 488.2 238.79 488.05 239.68 490.08 240.86 490.23 239.96"/><polygon class="cls-38" points="502.58 242.61 500.55 241.44 500.4 242.33 502.43 243.51 502.58 242.61"/><polygon class="cls-38" points="494.99 242.72 491.01 240.42 490.86 241.31 494.84 243.61 494.99 242.72"/><polygon class="cls-38" points="497.04 243.9 495.78 243.17 495.63 244.07 496.89 244.79 497.04 243.9"/><polygon class="cls-38" points="501.84 246.67 497.86 244.37 497.71 245.26 501.69 247.56 501.84 246.67"/><polygon class="cls-38" points="503.89 247.85 502.63 247.13 502.48 248.02 503.74 248.75 503.89 247.85"/><polygon class="cls-38" points="502.24 244.66 500.21 243.48 500.06 244.38 502.09 245.55 502.24 244.66"/><polygon class="cls-38" points="507 247.41 503.02 245.11 502.87 246.01 506.85 248.31 507 247.41"/><polygon class="cls-38" points="509.05 248.59 507.79 247.87 507.64 248.76 508.9 249.49 509.05 248.59"/><polygon class="cls-38" points="492.7 239.15 488.54 236.75 488.39 237.64 492.55 240.04 492.7 239.15"/><polygon class="cls-38" points="496.49 241.34 493.48 239.6 493.33 240.5 496.34 242.23 496.49 241.34"/><polygon class="cls-38" points="499.31 242.97 497.28 241.79 497.13 242.69 499.15 243.86 499.31 242.97"/><polygon class="cls-38" points="519 252.08 514.85 249.68 514.7 250.57 518.85 252.98 519 252.08"/><polygon class="cls-38" points="522.79 254.27 519.79 252.54 519.64 253.43 522.64 255.17 522.79 254.27"/><polygon class="cls-38" points="525.61 255.9 523.58 254.73 523.43 255.62 525.46 256.8 525.61 255.9"/><polygon class="cls-38" points="517.38 225.08 521.53 227.49 521.68 226.59 517.53 224.19 517.38 225.08"/><polygon class="cls-38" points="513.59 222.89 516.59 224.63 516.74 223.74 513.74 222 513.59 222.89"/><polygon class="cls-38" points="510.77 221.26 512.8 222.44 512.95 221.54 510.92 220.37 510.77 221.26"/><polygon class="cls-38" points="516 222.04 520.15 224.44 520.3 223.54 516.15 221.14 516 222.04"/><polygon class="cls-38" points="512.21 219.84 515.21 221.58 515.36 220.69 512.36 218.95 512.21 219.84"/><polygon class="cls-38" points="509.39 218.22 511.42 219.39 511.57 218.5 509.54 217.32 509.39 218.22"/><polygon class="cls-38" points="499.22 225.81 500.63 226.63 500.78 225.73 499.37 224.92 499.22 225.81"/><polygon class="cls-38" points="496.58 224.29 498.44 225.36 498.59 224.47 496.73 223.39 496.58 224.29"/><polygon class="cls-38" points="493.07 237.12 488.91 234.71 488.76 235.61 492.92 238.01 493.07 237.12"/><polygon class="cls-38" points="496.86 239.31 493.86 237.57 493.7 238.47 496.71 240.2 496.86 239.31"/><polygon class="cls-38" points="499.68 240.94 497.65 239.76 497.5 240.66 499.53 241.83 499.68 240.94"/><polygon class="cls-38" points="490.66 233.48 489.26 232.67 489.11 233.56 490.51 234.38 490.66 233.48"/><polygon class="cls-38" points="493.3 235.01 491.45 233.94 491.3 234.83 493.15 235.9 493.3 235.01"/><polygon class="cls-38" points="497.08 237.19 494.09 235.46 493.94 236.36 496.93 238.09 497.08 237.19"/><polygon class="cls-38" points="501.13 220.18 502.54 220.99 502.69 220.1 501.28 219.29 501.13 220.18"/><polygon class="cls-38" points="498.49 218.65 500.34 219.73 500.5 218.83 498.64 217.76 498.49 218.65"/><polygon class="cls-38" points="494.71 216.47 497.7 218.2 497.85 217.31 494.87 215.58 494.71 216.47"/><polygon class="cls-38" points="503.27 223.5 506.26 225.22 506.41 224.33 503.42 222.6 503.27 223.5"/><polygon class="cls-38" points="498.38 220.83 502.41 223.16 502.56 222.27 498.53 219.94 498.38 220.83"/><polygon class="cls-38" points="496.33 219.65 497.59 220.38 497.75 219.49 496.49 218.76 496.33 219.65"/><polygon class="cls-38" points="494.37 218.51 495.63 219.24 495.78 218.35 494.52 217.62 494.37 218.51"/><polygon class="cls-38" points="494.64 230.06 498.62 232.36 498.77 231.47 494.79 229.17 494.64 230.06"/><polygon class="cls-38" points="492.59 228.88 493.85 229.61 494 228.71 492.74 227.98 492.59 228.88"/><polygon class="cls-38" points="494.91 232.46 496.32 233.27 496.47 232.38 495.06 231.57 494.91 232.46"/><polygon class="cls-38" points="499.87 230.83 501.27 231.64 501.42 230.74 500.02 229.93 499.87 230.83"/><polygon class="cls-38" points="501.87 231.98 505.24 233.93 505.39 233.03 502.02 231.09 501.87 231.98"/><polygon class="cls-38" points="505.83 234.27 507.84 235.43 507.99 234.53 505.98 233.38 505.83 234.27"/><polygon class="cls-38" points="492.27 230.94 494.13 232.01 494.28 231.11 492.42 230.04 492.27 230.94"/><polygon class="cls-38" points="492.1 233.04 493.5 233.85 493.65 232.95 492.25 232.14 492.1 233.04"/><polygon class="cls-38" points="489.45 231.51 491.31 232.58 491.46 231.69 489.61 230.61 489.45 231.51"/><polygon class="cls-38" points="497.83 229.65 499.09 230.38 499.24 229.49 497.98 228.76 497.83 229.65"/><polygon class="cls-38" points="495.87 228.51 497.13 229.24 497.28 228.35 496.02 227.62 495.87 228.51"/><polygon class="cls-38" points="505.55 218.25 509.85 220.73 510 219.84 505.7 217.35 505.55 218.25"/><polygon class="cls-38" points="500.73 215.46 504.76 217.79 504.91 216.9 500.88 214.57 500.73 215.46"/><polygon class="cls-38" points="498.69 214.28 499.94 215.01 500.1 214.11 498.84 213.39 498.69 214.28"/><polygon class="cls-38" points="496.72 213.15 497.98 213.87 498.13 212.98 496.87 212.25 496.72 213.15"/><polygon class="cls-38" points="495.65 212.52 492.93 210.95 493.08 210.06 495.8 211.63 495.65 212.52"/><path class="cls-4" d="M192.56,268.89a4.93,4.93,0,0,1-2.49-.67L116,225.44a1.58,1.58,0,0,1,0-2.74l65.12-37.6.33.57-65.12,37.6a.92.92,0,0,0-.47.8.9.9,0,0,0,.47.8l74.1,42.79a4.33,4.33,0,0,0,4.32,0l38.41-22.18.32.57-38.4,22.17A4.93,4.93,0,0,1,192.56,268.89Z" transform="translate(24.95 85.47)"/><circle class="cls-63" cx="153.38" cy="246.56" r="9.38" transform="translate(-59.57 165.53) rotate(-23.13)"/><path class="cls-64" d="M155.59,245.28a2.55,2.55,0,1,0-.92,3.48A2.55,2.55,0,0,0,155.59,245.28Z" transform="translate(24.95 85.47)"/><circle class="cls-65" cx="219.95" cy="253.06" r="9.38" transform="translate(-56.77 192.2) rotate(-23.13)"/><path class="cls-66" d="M222.15,251.78a2.55,2.55,0,1,0-.91,3.48A2.55,2.55,0,0,0,222.15,251.78Z" transform="translate(24.95 85.47)"/><circle class="cls-67" cx="334.14" cy="252.31" r="9.38" transform="translate(-47.3 236.98) rotate(-23.13)"/><path class="cls-68" d="M336.34,251a2.55,2.55,0,1,0-.92,3.48A2.55,2.55,0,0,0,336.34,251Z" transform="translate(24.95 85.47)"/><path class="cls-69" d="M354.5,254.77a9.38,9.38,0,1,0-3.36,12.82A9.37,9.37,0,0,0,354.5,254.77Z" transform="translate(24.95 85.47)"/><circle class="cls-70" cx="371.35" cy="344.97" r="2.55"/><circle class="cls-71" cx="413.32" cy="240.12" r="9.38" transform="translate(-38.52 291.4) rotate(-26.05)"/><path class="cls-72" d="M415.52,238.84a2.55,2.55,0,1,0-.91,3.48A2.55,2.55,0,0,0,415.52,238.84Z" transform="translate(24.95 85.47)"/><path class="cls-73" d="M437.2,212.22a9.37,9.37,0,1,0-3.36,12.83A9.37,9.37,0,0,0,437.2,212.22Z" transform="translate(24.95 85.47)"/><path class="cls-74" d="M431.31,215.67a2.55,2.55,0,1,0-.91,3.49A2.55,2.55,0,0,0,431.31,215.67Z" transform="translate(24.95 85.47)"/><path class="cls-75" d="M422.77,203.71a9.38,9.38,0,1,0-3.37,12.82A9.38,9.38,0,0,0,422.77,203.71Z" transform="translate(24.95 85.47)"/><path class="cls-76" d="M416.87,207.15a2.55,2.55,0,1,0-.91,3.49A2.55,2.55,0,0,0,416.87,207.15Z" transform="translate(24.95 85.47)"/><path class="cls-77" d="M408.33,195.78A9.38,9.38,0,1,0,405,208.61,9.38,9.38,0,0,0,408.33,195.78Z" transform="translate(24.95 85.47)"/><path class="cls-78" d="M402.44,199.23a2.55,2.55,0,1,0-.92,3.49A2.54,2.54,0,0,0,402.44,199.23Z" transform="translate(24.95 85.47)"/><path class="cls-79" d="M149.81,235a9.37,9.37,0,1,0-3.36,12.83A9.37,9.37,0,0,0,149.81,235Z" transform="translate(24.95 85.47)"/><circle class="cls-80" cx="166.67" cy="325.24" r="2.55"/><circle class="cls-81" cx="130.05" cy="232.98" r="9.38" transform="translate(-103.35 385.17) rotate(-75.31)"/><path class="cls-82" d="M132.26,231.7a2.55,2.55,0,1,0-.92,3.48A2.55,2.55,0,0,0,132.26,231.7Z" transform="translate(24.95 85.47)"/><path class="cls-83" d="M166.49,193.25a9.38,9.38,0,1,0-3.37,12.83A9.38,9.38,0,0,0,166.49,193.25Z" transform="translate(24.95 85.47)"/><path class="cls-84" d="M160.59,196.7a2.55,2.55,0,1,0-.91,3.48A2.54,2.54,0,0,0,160.59,196.7Z" transform="translate(24.95 85.47)"/><path class="cls-85" d="M179,186.7a9.38,9.38,0,1,0-3.36,12.82A9.37,9.37,0,0,0,179,186.7Z" transform="translate(24.95 85.47)"/><path class="cls-86" d="M173.06,190.14a2.55,2.55,0,1,0-.92,3.49A2.56,2.56,0,0,0,173.06,190.14Z" transform="translate(24.95 85.47)"/></g></g></svg>