<svg id="Ñëîé_1" data-name="Ñëîé 1" xmlns="http://www.w3.org/2000/svg" xmlns:xlink="http://www.w3.org/1999/xlink" viewBox="0 0 468.05 400" width="600"><defs><style>.cls-1{fill:#b3e0ff;}.cls-2{opacity:0.4;}.cls-3,.cls-4,.cls-5{fill:#fff;}.cls-4{opacity:0.2;}.cls-28,.cls-5{opacity:0.5;}.cls-6{fill:#7dc3ea;}.cls-7{fill:url(#Áåçûìÿííûé_ãðàäèåíò_3);}.cls-8{fill:url(#Áåçûìÿííûé_ãðàäèåíò_9);}.cls-9{fill:url(#Áåçûìÿííûé_ãðàäèåíò_4);}.cls-10{fill:url(#Áåçûìÿííûé_ãðàäèåíò_3-2);}.cls-11{fill:url(#Áåçûìÿííûé_ãðàäèåíò_9-2);}.cls-12{fill:url(#Áåçûìÿííûé_ãðàäèåíò_4-2);}.cls-13{fill:url(#Áåçûìÿííûé_ãðàäèåíò_3-3);}.cls-14{fill:url(#Áåçûìÿííûé_ãðàäèåíò_9-3);}.cls-15{fill:url(#Áåçûìÿííûé_ãðàäèåíò_4-3);}.cls-16{fill:url(#Áåçûìÿííûé_ãðàäèåíò_3-4);}.cls-17{fill:url(#Áåçûìÿííûé_ãðàäèåíò_9-4);}.cls-18{fill:url(#Áåçûìÿííûé_ãðàäèåíò_4-4);}.cls-19{fill:url(#Áåçûìÿííûé_ãðàäèåíò_18);}.cls-20{fill:url(#Áåçûìÿííûé_ãðàäèåíò_9-5);}.cls-21{fill:#5793ce;}.cls-22{fill:url(#Áåçûìÿííûé_ãðàäèåíò_441);}.cls-23,.cls-28{fill:#173d7a;}.cls-24{fill:#396caa;}.cls-25{fill:#06033e;opacity:0.3;}.cls-26{fill:#d4ecff;}.cls-27{fill:#ff2c9c;}.cls-29{fill:url(#Áåçûìÿííûé_ãðàäèåíò_13);}.cls-30{fill:url(#Áåçûìÿííûé_ãðàäèåíò_45);}.cls-31{fill:url(#Áåçûìÿííûé_ãðàäèåíò_13-2);}.cls-32{fill:url(#Áåçûìÿííûé_ãðàäèåíò_45-2);}.cls-33{fill:url(#Áåçûìÿííûé_ãðàäèåíò_13-3);}.cls-34{fill:url(#Áåçûìÿííûé_ãðàäèåíò_45-3);}</style><radialGradient id="Áåçûìÿííûé_ãðàäèåíò_3" cx="130.52" cy="300.95" r="33.67" gradientUnits="userSpaceOnUse"><stop offset="0" stop-color="#274f89"/><stop offset="1" stop-color="#173d7a"/></radialGradient><linearGradient id="Áåçûìÿííûé_ãðàäèåíò_9" x1="110.07" y1="288.74" x2="169.65" y2="288.74" gradientUnits="userSpaceOnUse"><stop offset="0" stop-color="#d4ecff"/><stop offset="0.24" stop-color="#d0eafe"/><stop offset="0.46" stop-color="#c5e2f9"/><stop offset="0.67" stop-color="#b2d6f2"/><stop offset="0.88" stop-color="#98c4e7"/><stop offset="1" stop-color="#86b8e0"/></linearGradient><radialGradient id="Áåçûìÿííûé_ãðàäèåíò_4" cx="82.12" cy="266.11" r="60.86" gradientUnits="userSpaceOnUse"><stop offset="0" stop-color="#699dd1"/><stop offset="0.27" stop-color="#6396cc"/><stop offset="0.64" stop-color="#5184bd"/><stop offset="1" stop-color="#396caa"/></radialGradient><radialGradient id="Áåçûìÿííûé_ãðàäèåíò_3-2" cx="383.47" cy="160.46" r="33.67" xlink:href="#Áåçûìÿííûé_ãðàäèåíò_3"/><linearGradient id="Áåçûìÿííûé_ãðàäèåíò_9-2" x1="363.01" y1="148.24" x2="422.59" y2="148.24" xlink:href="#Áåçûìÿííûé_ãðàäèåíò_9"/><radialGradient id="Áåçûìÿííûé_ãðàäèåíò_4-2" cx="335.06" cy="125.62" r="60.86" xlink:href="#Áåçûìÿííûé_ãðàäèåíò_4"/><radialGradient id="Áåçûìÿííûé_ãðàäèåíò_3-3" cx="383.47" cy="300.95" r="33.67" xlink:href="#Áåçûìÿííûé_ãðàäèåíò_3"/><linearGradient id="Áåçûìÿííûé_ãðàäèåíò_9-3" x1="363.01" y1="288.74" x2="422.59" y2="288.74" xlink:href="#Áåçûìÿííûé_ãðàäèåíò_9"/><radialGradient id="Áåçûìÿííûé_ãðàäèåíò_4-3" cx="335.06" cy="266.11" r="60.86" xlink:href="#Áåçûìÿííûé_ãðàäèåíò_4"/><radialGradient id="Áåçûìÿííûé_ãðàäèåíò_3-4" cx="130.52" cy="160.46" r="33.67" xlink:href="#Áåçûìÿííûé_ãðàäèåíò_3"/><linearGradient id="Áåçûìÿííûé_ãðàäèåíò_9-4" x1="110.07" y1="148.24" x2="169.65" y2="148.24" xlink:href="#Áåçûìÿííûé_ãðàäèåíò_9"/><radialGradient id="Áåçûìÿííûé_ãðàäèåíò_4-4" cx="82.12" cy="125.62" r="60.86" xlink:href="#Áåçûìÿííûé_ãðàäèåíò_4"/><radialGradient id="Áåçûìÿííûé_ãðàäèåíò_18" cx="235.04" cy="156.07" r="121.15" gradientUnits="userSpaceOnUse"><stop offset="0" stop-color="#396caa"/><stop offset="1" stop-color="#274f89"/></radialGradient><linearGradient id="Áåçûìÿííûé_ãðàäèåíò_9-5" x1="196.94" y1="70.13" x2="309.9" y2="138.95" xlink:href="#Áåçûìÿííûé_ãðàäèåíò_9"/><linearGradient id="Áåçûìÿííûé_ãðàäèåíò_441" x1="-105.77" y1="1320.05" x2="-39.38" y2="1305.01" gradientTransform="matrix(0.87, 0.5, 0, 1.15, 285.26, -1301.59)" gradientUnits="userSpaceOnUse"><stop offset="0" stop-color="#3919bb"/><stop offset="1" stop-color="#6507fa"/></linearGradient><radialGradient id="Áåçûìÿííûé_ãðàäèåíò_13" cx="221.55" cy="299.77" r="43.62" xlink:href="#Áåçûìÿííûé_ãðàäèåíò_4"/><linearGradient id="Áåçûìÿííûé_ãðàäèåíò_45" x1="229.78" y1="285.78" x2="298.11" y2="326.52" gradientUnits="userSpaceOnUse"><stop offset="0" stop-color="#d4ecff"/><stop offset="0.2" stop-color="#d0eafe"/><stop offset="0.39" stop-color="#c5e2f9"/><stop offset="0.57" stop-color="#b2d6f2"/><stop offset="0.74" stop-color="#98c4e7"/><stop offset="0.84" stop-color="#86b8e0"/></linearGradient><radialGradient id="Áåçûìÿííûé_ãðàäèåíò_13-2" cx="348.02" cy="211.85" r="43.62" xlink:href="#Áåçûìÿííûé_ãðàäèåíò_4"/><linearGradient id="Áåçûìÿííûé_ãðàäèåíò_45-2" x1="356.26" y1="197.86" x2="424.59" y2="238.6" xlink:href="#Áåçûìÿííûé_ãðàäèåíò_45"/><radialGradient id="Áåçûìÿííûé_ãðàäèåíò_13-3" cx="95.08" cy="211.85" r="43.62" xlink:href="#Áåçûìÿííûé_ãðàäèåíò_4"/><linearGradient id="Áåçûìÿííûé_ãðàäèåíò_45-3" x1="103.32" y1="197.86" x2="171.65" y2="238.6" xlink:href="#Áåçûìÿííûé_ãðàäèåíò_45"/></defs><title>4</title><rect class="cls-1" width="468.05" height="400"/><g class="cls-2"><path class="cls-3" d="M410,128.88l-31.29-18.06L410,92.76l.28.16,31,17.9Zm-29.08-18.06L410,127.6l29.06-16.78L410,94Z" transform="translate(0 0)"/><path class="cls-3" d="M349.66,128.88l-31.28-18.06,31.28-18.06,31.28,18.06Zm-29.07-18.06,29.07,16.78,29.07-16.78L349.66,94Z" transform="translate(0 0)"/><path class="cls-3" d="M379.84,146.31l-.28-.16-31-17.91,31.29-18.06,31.28,18.06Zm-29.07-18.07L379.84,145l29.07-16.79-29.07-16.78Z" transform="translate(0 0)"/><path class="cls-3" d="M410,163.73l-.28-.16-31-17.9L410,127.6l.27.16,31,17.91ZM381,145.67,410,162.45l29.07-16.78L410,128.88Z" transform="translate(0 0)"/><path class="cls-3" d="M289.31,128.88l-.28-.16-31-17.9,31.29-18.06.27.16,31,17.9Zm-29.07-18.06,29.07,16.78,29.07-16.78L289.31,94Z" transform="translate(0 0)"/><path class="cls-3" d="M319.48,146.31,288.2,128.24l31.28-18.06,31.29,18.06Zm-29.07-18.07L319.48,145l29.07-16.79-29.07-16.78Z" transform="translate(0 0)"/><path class="cls-3" d="M349.66,163.73l-.27-.16-31-17.9,31.28-18.07.28.16,31,17.91Zm-29.07-18.06,29.07,16.78,29.07-16.78-29.07-16.79Z" transform="translate(0 0)"/><path class="cls-3" d="M379.84,181.15l-.28-.16-31-17.9L379.84,145l.27.16,31,17.9Zm-29.07-18.06,29.07,16.78,29.07-16.78-29.07-16.78Z" transform="translate(0 0)"/><path class="cls-3" d="M410,198.57l-.28-.16-31-17.9L410,162.45l31.28,18.06ZM381,180.51,410,197.29l29.07-16.78L410,163.73Z" transform="translate(0 0)"/><path class="cls-3" d="M229,128.88l-.27-.16-31-17.9L229,92.76l.28.16,31,17.9Zm-29.07-18.06L229,127.6,258,110.82,229,94Z" transform="translate(0 0)"/><path class="cls-3" d="M259.13,146.3l-.28-.16-31-17.9,31.28-18.06.28.16,31,17.9Zm-29.07-18.06L259.13,145l29.07-16.78-29.07-16.78Z" transform="translate(0 0)"/><path class="cls-3" d="M289.31,163.73l-.28-.16-31-17.91,31.29-18.06,31.28,18.07Zm-29.07-18.07,29.07,16.79,29.07-16.78-29.07-16.79Z" transform="translate(0 0)"/><path class="cls-3" d="M319.48,181.15,288.2,163.09,319.48,145l.28.16,31,17.9Zm-29.06-18.06,29.06,16.78,29.07-16.78-29.07-16.78Z" transform="translate(0 0)"/><path class="cls-3" d="M349.66,198.57l-.27-.16-31-17.9,31.28-18.06.28.16,31,17.9Zm-29.07-18.06,29.07,16.78,29.07-16.78-29.07-16.78Z" transform="translate(0 0)"/><path class="cls-3" d="M379.84,216l-.28-.16-31-17.91,31.28-18.06.28.16,31,17.9Zm-29.07-18.07,29.07,16.79,29.07-16.79-29.07-16.78Z" transform="translate(0 0)"/><path class="cls-3" d="M410,233.42l-.28-.16-31-17.9L410,197.29l.27.16,31,17.91ZM381,215.36,410,232.14l29.07-16.78L410,198.57Z" transform="translate(0 0)"/><path class="cls-3" d="M168.6,128.88l-.28-.16-31-17.9L168.6,92.76l.27.16,31,17.9Zm-29.07-18.06L168.6,127.6l29.07-16.78L168.6,94Z" transform="translate(0 0)"/><path class="cls-3" d="M198.78,146.3l-31.29-18.06,31.28-18.06.28.16,31,17.9Zm-29.07-18.06L198.78,145l29.07-16.78-29.08-16.78Z" transform="translate(0 0)"/><path class="cls-3" d="M229,163.73l-.27-.16-31-17.91L229,127.6l.28.16,31,17.9Zm-29.07-18.07L229,162.45,258,145.66,229,128.88Z" transform="translate(0 0)"/><path class="cls-3" d="M259.13,181.15l-.27-.16-31-17.9L259.13,145l.28.17,31,17.9Zm-29.07-18.06,29.07,16.78,29.07-16.78L259.13,146.3Z" transform="translate(0 0)"/><path class="cls-3" d="M289.31,198.57,258,180.51l31.29-18.06,31.28,18.06Zm-29.07-18.06,29.07,16.78,29.07-16.78-29.07-16.78Z" transform="translate(0 0)"/><path class="cls-3" d="M319.49,216l-.28-.16-31-17.91,31.28-18.06.28.16,31,17.9Zm-29.07-18.07,29.07,16.79,29.07-16.79-29.08-16.78Z" transform="translate(0 0)"/><path class="cls-3" d="M349.66,233.42l-31.28-18.06,31.28-18.07.28.16,31,17.91Zm-29.07-18.06,29.07,16.78,29.07-16.78-29.07-16.79Z" transform="translate(0 0)"/><path class="cls-3" d="M379.84,250.84l-.27-.16-31-17.9,31.28-18.06.28.16,31,17.9Zm-29.07-18.06,29.07,16.78,29.07-16.78L379.84,216Z" transform="translate(0 0)"/><path class="cls-3" d="M410,268.27l-.28-.16-31-17.91L410,232.14l.27.16,31,17.9ZM381,250.2,410,267l29.07-16.79L410,233.42Z" transform="translate(0 0)"/><path class="cls-3" d="M108.24,128.88l-.27-.16-31-17.9,31.28-18.06.28.16,31,17.9ZM79.17,110.82l29.07,16.78,29.07-16.78L108.24,94Z" transform="translate(0 0)"/><path class="cls-3" d="M138.42,146.3l-.27-.16-31-17.9,31.28-18.06.28.16,31,17.9Zm-29.07-18.06L138.42,145l29.07-16.78-29.07-16.78Z" transform="translate(0 0)"/><path class="cls-3" d="M168.6,163.73l-.28-.16-31-17.91L168.6,127.6l31.28,18.06Zm-29.07-18.07,29.07,16.79,29.07-16.79L168.6,128.88Z" transform="translate(0 0)"/><path class="cls-3" d="M198.78,181.15l-31.29-18.06L198.78,145l.27.17,31,17.9Zm-29.07-18.06,29.07,16.78,29.07-16.78L198.78,146.3Z" transform="translate(0 0)"/><path class="cls-3" d="M229,198.57l-.27-.16-31-17.9L229,162.45l.28.16,31,17.9Zm-29.07-18.06L229,197.29,258,180.51,229,163.73Z" transform="translate(0 0)"/><path class="cls-3" d="M259.13,216l-31.28-18.07,31.28-18.06,31.29,18.06Zm-29.07-18.07,29.07,16.79,29.07-16.79-29.07-16.78Z" transform="translate(0 0)"/><path class="cls-3" d="M289.31,233.42l-.28-.16-31-17.9,31.29-18.07.27.16,31,17.91Zm-29.07-18.06,29.07,16.78,29.07-16.78-29.07-16.79Z" transform="translate(0 0)"/><path class="cls-3" d="M319.49,250.84l-.28-.16-31-17.9,31.29-18.06,31.28,18.06Zm-29.07-18.06,29.07,16.78,29.07-16.78L319.49,216Z" transform="translate(0 0)"/><path class="cls-3" d="M349.66,268.27,318.38,250.2l31.28-18.06.28.16,31,17.9ZM320.59,250.2,349.66,267l29.07-16.79-29.07-16.78Z" transform="translate(0 0)"/><path class="cls-3" d="M379.84,285.69l-.27-.16-31-17.9,31.28-18.07.28.16,31,17.91Zm-29.07-18.06,29.07,16.78,29.07-16.78-29.07-16.79Z" transform="translate(0 0)"/><path class="cls-3" d="M410,303.11l-.28-.16-31-17.9L410,267l.28.16,31,17.9ZM381,285.05,410,301.83l29.07-16.78L410,268.27Z" transform="translate(0 0)"/><path class="cls-3" d="M108.24,163.73l-.27-.16L77,145.66l31.28-18.06.28.16,31,17.9ZM79.17,145.66l29.07,16.79,29.07-16.79-29.07-16.78Z" transform="translate(0 0)"/><path class="cls-3" d="M138.42,181.15l-.27-.16-31-17.9L138.42,145l.28.16,31,17.91Zm-29.07-18.06,29.07,16.78,29.07-16.78L138.42,146.3Z" transform="translate(0 0)"/><path class="cls-3" d="M168.6,198.57l-.28-.16-31-17.9,31.28-18.06,31.28,18.06Zm-29.07-18.06,29.07,16.78,29.07-16.78L168.6,163.73Z" transform="translate(0 0)"/><path class="cls-3" d="M198.78,216l-.28-.16-31-17.9,31.29-18.06.27.16,31,17.9Zm-29.07-18.06,29.07,16.79,29.07-16.79-29.07-16.78Z" transform="translate(0 0)"/><path class="cls-3" d="M229,233.42l-31.29-18.06L229,197.29l31.29,18.07Zm-29.07-18.06L229,232.14,258,215.36,229,198.57Z" transform="translate(0 0)"/><path class="cls-3" d="M259.13,250.84l-31.28-18.06,31.28-18.06.28.16,31,17.9Zm-29.07-18.06,29.07,16.78,29.07-16.78L259.13,216Z" transform="translate(0 0)"/><path class="cls-3" d="M289.31,268.26l-.28-.16-31-17.9,31.29-18.06.28.16,31,17.9ZM260.24,250.2,289.31,267l29.07-16.78-29.07-16.78Z" transform="translate(0 0)"/><path class="cls-3" d="M319.49,285.69l-.28-.16-31-17.91,31.29-18.06,31.28,18.07Zm-29.07-18.07,29.07,16.79,29.07-16.78-29.07-16.79Z" transform="translate(0 0)"/><path class="cls-3" d="M349.67,303.11l-.28-.16-31-17.9L349.66,267l.28.16,31,17.9ZM320.6,285.05l29.07,16.78,29.06-16.78-29.07-16.78Z" transform="translate(0 0)"/><path class="cls-3" d="M379.84,320.53l-31.28-18.06,31.28-18.06.28.16,31,17.9Zm-29.07-18.06,29.07,16.78,29.07-16.78-29.07-16.78Z" transform="translate(0 0)"/><path class="cls-3" d="M410,338l-.28-.16-31-17.91L410,301.83l.28.16,31,17.9ZM381,319.89,410,336.68l29.07-16.79L410,303.11Z" transform="translate(0 0)"/><path class="cls-3" d="M108.25,198.57,77,180.51l31.28-18.06.28.16,31,17.9ZM79.18,180.51l29.07,16.78,29.07-16.78-29.08-16.78Z" transform="translate(0 0)"/><path class="cls-3" d="M138.42,216l-.27-.16-31-17.9,31.28-18.06.28.16,31,17.9Zm-29.07-18.06,29.07,16.79,29.07-16.79-29.07-16.78Z" transform="translate(0 0)"/><path class="cls-3" d="M168.6,233.42l-.28-.16-31-17.9,31.28-18.07.28.16,31,17.91Zm-29.07-18.06,29.07,16.78,29.07-16.78L168.6,198.57Z" transform="translate(0 0)"/><path class="cls-3" d="M198.78,250.84l-.28-.16-31-17.9,31.29-18.06,31.28,18.06Zm-29.07-18.06,29.07,16.78,29.07-16.78L198.78,216Z" transform="translate(0 0)"/><path class="cls-3" d="M229,268.26,197.67,250.2,229,232.14l31.28,18.06ZM199.89,250.2,229,267,258,250.2,229,233.42Z" transform="translate(0 0)"/><path class="cls-3" d="M259.13,285.69l-31.28-18.07,31.28-18.06.28.16,31,17.9Zm-29.07-18.07,29.07,16.79,29.07-16.79-29.07-16.78Z" transform="translate(0 0)"/><path class="cls-3" d="M289.31,303.11,289,303l-31-17.9L289.31,267l.28.17,31,17.9Zm-29.07-18.06,29.07,16.78,29.07-16.78-29.07-16.79Z" transform="translate(0 0)"/><path class="cls-3" d="M319.49,320.53l-.28-.16-31-17.9,31.29-18.06.27.16,31,17.9Zm-29.07-18.06,29.07,16.78,29.07-16.78-29.07-16.78Z" transform="translate(0 0)"/><path class="cls-3" d="M349.67,338l-.28-.16-31-17.91,31.29-18.06L381,319.89ZM320.6,319.89l29.07,16.79,29.07-16.79-29.07-16.78Z" transform="translate(0 0)"/><path class="cls-3" d="M108.25,233.42,77,215.35l31.29-18.06.27.16,31,17.91ZM79.18,215.35l29.07,16.79,29.07-16.78-29.07-16.79Z" transform="translate(0 0)"/><path class="cls-3" d="M138.42,250.84l-.27-.16-31-17.9,31.28-18.06.28.16,31,17.9Zm-29.07-18.06,29.07,16.78,29.07-16.78L138.42,216Z" transform="translate(0 0)"/><path class="cls-3" d="M168.6,268.26l-.27-.16-31-17.9,31.28-18.06.28.16,31,17.9ZM139.53,250.2,168.6,267l29.07-16.78L168.6,233.42Z" transform="translate(0 0)"/><path class="cls-3" d="M198.78,285.69l-31.29-18.07,31.29-18.06,31.28,18.06Zm-29.07-18.07,29.07,16.79,29.07-16.79-29.07-16.78Z" transform="translate(0 0)"/><path class="cls-3" d="M229,303.11l-.28-.16-31-17.9L229,267l31.28,18.07Zm-29.07-18.06L229,301.83,258,285.05,229,268.26Z" transform="translate(0 0)"/><path class="cls-3" d="M259.13,320.53l-31.28-18.06,31.28-18.06.28.16,31,17.9Zm-29.07-18.06,29.07,16.78,29.07-16.78-29.07-16.78Z" transform="translate(0 0)"/><path class="cls-3" d="M289.31,338l-.27-.16-31-17.91,31.28-18.06.28.16,31,17.9Zm-29.07-18.07,29.07,16.79,29.07-16.79-29.07-16.78Z" transform="translate(0 0)"/><path class="cls-3" d="M108.25,268.26l-.28-.16L77,250.2l31.29-18.06.27.16,31,17.9ZM79.18,250.2,108.25,267l29.07-16.78-29.07-16.78Z" transform="translate(0 0)"/><path class="cls-3" d="M138.43,285.69l-31.29-18.07,31.28-18.06.28.16,31,17.9Zm-29.07-18.07,29.07,16.79,29.06-16.79-29.07-16.78Z" transform="translate(0 0)"/><path class="cls-3" d="M168.6,303.11l-.27-.16-31-17.9L168.6,267l31.29,18.07Zm-29.07-18.06,29.07,16.78,29.07-16.78L168.6,268.26Z" transform="translate(0 0)"/><path class="cls-3" d="M198.78,320.53,167.5,302.47l31.28-18.06.28.16,31,17.9Zm-29.07-18.06,29.07,16.78,29.07-16.78-29.07-16.78Z" transform="translate(0 0)"/><path class="cls-3" d="M229,338l-.28-.16-31-17.9L229,301.83l31.28,18.06Zm-29.07-18.06L229,336.68,258,319.89,229,303.11Z" transform="translate(0 0)"/><path class="cls-3" d="M108.25,303.11,108,303l-31-17.9L108.25,267l31.28,18.07ZM79.18,285.05l29.07,16.78,29.07-16.78-29.07-16.79Z" transform="translate(0 0)"/><path class="cls-3" d="M138.43,320.53l-.28-.16-31-17.9,31.29-18.06.27.16,31,17.9Zm-29.07-18.06,29.07,16.78,29.07-16.78-29.07-16.78Z" transform="translate(0 0)"/><path class="cls-3" d="M168.6,338l-31.28-18.06,31.28-18.06,31.29,18.06Zm-29.07-18.06,29.07,16.79,29.07-16.79L168.6,303.11Z" transform="translate(0 0)"/><path class="cls-3" d="M108.25,338l-.28-.16-31-17.9,31.29-18.06.27.16,31,17.9ZM79.18,319.89l29.07,16.78,29.07-16.78-29.07-16.78Z" transform="translate(0 0)"/></g><path class="cls-3" d="M77.26,244.55a10.45,10.45,0,0,0-1.7,1.25c-.24-7.67-5.78-10.72-12.6-6.79-5.55,3.21-10.26,10.08-12,16.8A7.62,7.62,0,0,0,46.3,257c-5,2.88-9,9.86-9,15.6s4,8.06,9,5.19l31-17.87a14.69,14.69,0,0,0,6.65-11.51C83.91,244.15,80.93,242.43,77.26,244.55Z" transform="translate(0 0)"/><path class="cls-3" d="M317.44,291.55a6.45,6.45,0,0,1-2.92,5.06c-1.61.93-2.92.18-2.92-1.68a6.45,6.45,0,0,1,2.92-5.06C316.13,288.94,317.44,289.69,317.44,291.55Z" transform="translate(0 0)"/><path class="cls-3" d="M326.9,286.09a6.44,6.44,0,0,1-2.92,5.06c-1.61.93-2.91.17-2.91-1.69a6.44,6.44,0,0,1,2.91-5C325.6,283.48,326.9,284.23,326.9,286.09Z" transform="translate(0 0)"/><path class="cls-3" d="M336.36,280.63a6.44,6.44,0,0,1-2.91,5.05c-1.62.94-2.92.18-2.92-1.68a6.44,6.44,0,0,1,2.92-5.06C335.06,278,336.36,278.77,336.36,280.63Z" transform="translate(0 0)"/><path class="cls-3" d="M345.83,275.17a6.45,6.45,0,0,1-2.92,5.05c-1.61.93-2.92.18-2.92-1.68a6.47,6.47,0,0,1,2.92-5.06C344.52,272.55,345.83,273.3,345.83,275.17Z" transform="translate(0 0)"/><path class="cls-3" d="M181.16,343.73a6.44,6.44,0,0,1-2.92,5.06c-1.61.93-2.91.18-2.91-1.69a6.44,6.44,0,0,1,2.91-5.05C179.86,341.12,181.16,341.87,181.16,343.73Z" transform="translate(0 0)"/><path class="cls-3" d="M189.22,339.08a6.45,6.45,0,0,1-2.92,5.06c-1.61.93-2.92.18-2.92-1.69a6.45,6.45,0,0,1,2.92-5.05C187.91,336.47,189.22,337.22,189.22,339.08Z" transform="translate(0 0)"/><path class="cls-3" d="M181.16,334.44a6.42,6.42,0,0,1-2.92,5.05c-1.61.93-2.91.18-2.91-1.68a6.44,6.44,0,0,1,2.91-5.06C179.86,331.82,181.16,332.57,181.16,334.44Z" transform="translate(0 0)"/><path class="cls-3" d="M189.22,329.79a6.45,6.45,0,0,1-2.92,5c-1.61.93-2.92.18-2.92-1.68a6.47,6.47,0,0,1,2.92-5.06C187.91,327.17,189.22,327.92,189.22,329.79Z" transform="translate(0 0)"/><polygon class="cls-3" points="154.12 110.73 148.28 114.1 148.28 107.36 154.12 103.99 154.12 110.73"/><polygon class="cls-3" points="162.22 105.99 156.38 109.36 156.38 102.62 162.22 99.25 162.22 105.99"/><polygon class="cls-3" points="154.17 119.48 148.33 122.85 148.33 116.11 154.17 112.73 154.17 119.48"/><polygon class="cls-3" points="162.22 114.83 156.38 118.2 156.38 111.46 162.22 108.09 162.22 114.83"/><path class="cls-4" d="M392.28,43.87a11.41,11.41,0,0,0-2.85,2.45c-.13-5.62-4.17-7.87-9.13-5a16.6,16.6,0,0,0-4.4,3.83c-2.21-3.86-6.79-4.76-12.1-1.7-7.47,4.31-13.52,14.8-13.52,23.42a16.15,16.15,0,0,0,.14,2,5.06,5.06,0,0,0-3.79.76,14.31,14.31,0,0,0-6.47,11.21c0,4.12,2.9,5.79,6.47,3.73l45.65-26.36a13.72,13.72,0,0,0,6.22-10.77C398.5,43.49,395.72,41.89,392.28,43.87Z" transform="translate(0 0)"/><path class="cls-5" d="M400.42,51a10.88,10.88,0,0,0-2.85,2.45c-.14-5.62-4.17-7.87-9.14-5A16.56,16.56,0,0,0,384,52.32c-2.21-3.87-6.79-4.76-12.1-1.7-7.47,4.31-13.52,14.8-13.52,23.42a16.2,16.2,0,0,0,.13,2,5.08,5.08,0,0,0-3.79.76A14.3,14.3,0,0,0,348.3,88c0,4.12,2.89,5.79,6.46,3.73L400.42,65.4a13.75,13.75,0,0,0,6.22-10.77C406.64,50.66,403.85,49.06,400.42,51Z" transform="translate(0 0)"/><path class="cls-3" d="M408.56,58.21a11.08,11.08,0,0,0-2.86,2.45c-.13-5.62-4.16-7.87-9.13-5a16.56,16.56,0,0,0-4.39,3.83c-2.22-3.87-6.8-4.76-12.11-1.7-7.47,4.31-13.52,14.8-13.52,23.42a16,16,0,0,0,.14,2,5.13,5.13,0,0,0-3.79.77,14.3,14.3,0,0,0-6.47,11.2c0,4.13,2.9,5.8,6.47,3.74l45.66-26.36a13.75,13.75,0,0,0,6.21-10.77C414.77,57.83,412,56.22,408.56,58.21Z" transform="translate(0 0)"/><path class="cls-3" d="M143.42,259.56a1.38,1.38,0,0,1-.71-.19,1.42,1.42,0,0,1-.7-1.22V240.06a1.42,1.42,0,0,1,.7-1.22l15.67-9.05a1.41,1.41,0,0,1,2.11,1.23V249.1a1.41,1.41,0,0,1-.7,1.23l-15.67,9A1.34,1.34,0,0,1,143.42,259.56Zm1.41-18.68V255.7l12.84-7.41V233.46Zm14.25,8.22h0Z" transform="translate(0 0)"/><polygon class="cls-6" points="132.66 347.85 110.07 334.81 132.66 321.76 155.25 334.81 132.66 347.85"/><path class="cls-3" d="M132.66,339.77a1.76,1.76,0,0,1-.86-.23l-22.59-13a1.72,1.72,0,0,1,0-3l22.59-13a1.76,1.76,0,0,1,1.72,0l22.59,13a1.72,1.72,0,0,1,0,3l-22.59,13A1.76,1.76,0,0,1,132.66,339.77ZM113.51,325l19.15,11.06L151.82,325,132.66,314Z" transform="translate(0 0)"/><polygon class="cls-7" points="155.25 314.82 132.66 327.86 132.66 301.78 155.25 288.74 155.25 314.82"/><polygon class="cls-8" points="132.66 301.78 110.07 288.74 132.66 275.69 155.25 288.74 132.66 301.78"/><polygon class="cls-9" points="132.66 327.86 110.07 314.82 110.07 288.74 132.66 301.78 132.66 327.86"/><polygon class="cls-3" points="124.53 313.77 118.21 310.12 118.21 302.83 124.53 306.48 124.53 313.77"/><polygon class="cls-6" points="385.6 207.35 363.01 194.31 385.6 181.27 408.19 194.31 385.6 207.35"/><path class="cls-3" d="M385.6,199.27a1.68,1.68,0,0,1-.86-.23l-22.59-13a1.71,1.71,0,0,1,0-3l22.59-13a1.71,1.71,0,0,1,1.72,0l22.59,13a1.71,1.71,0,0,1,0,3l-22.59,13A1.63,1.63,0,0,1,385.6,199.27Zm-19.15-14.75,19.15,11,19.16-11L385.6,173.46Z" transform="translate(0 0)"/><polygon class="cls-10" points="408.19 174.32 385.6 187.37 385.6 161.28 408.19 148.24 408.19 174.32"/><polygon class="cls-11" points="385.6 161.28 363.01 148.24 385.6 135.2 408.19 148.24 385.6 161.28"/><polygon class="cls-12" points="385.6 187.37 363.01 174.32 363.01 148.24 385.6 161.28 385.6 187.37"/><polygon class="cls-3" points="377.47 173.28 371.15 169.63 371.15 162.33 377.47 165.98 377.47 173.28"/><polygon class="cls-3" points="379.29 148.32 385.56 144.59 391.92 148.16 385.65 151.89 379.29 148.32"/><polygon class="cls-6" points="385.6 347.85 363.01 334.81 385.6 321.76 408.19 334.81 385.6 347.85"/><path class="cls-3" d="M385.6,339.77a1.79,1.79,0,0,1-.86-.23l-22.59-13a1.72,1.72,0,0,1,0-3l22.59-13a1.76,1.76,0,0,1,1.72,0l22.59,13a1.72,1.72,0,0,1,0,3l-22.59,13A1.73,1.73,0,0,1,385.6,339.77ZM366.45,325l19.15,11.06L404.76,325,385.6,314Z" transform="translate(0 0)"/><polygon class="cls-13" points="408.19 314.82 385.6 327.86 385.6 301.78 408.19 288.74 408.19 314.82"/><polygon class="cls-14" points="385.6 301.78 363.01 288.74 385.6 275.69 408.19 288.74 385.6 301.78"/><polygon class="cls-15" points="385.6 327.86 363.01 314.82 363.01 288.74 385.6 301.78 385.6 327.86"/><polygon class="cls-3" points="377.47 313.77 371.15 310.12 371.15 302.83 377.47 306.48 377.47 313.77"/><polygon class="cls-6" points="132.66 207.35 110.07 194.31 132.66 181.27 155.25 194.31 132.66 207.35"/><path class="cls-3" d="M132.66,199.27a1.66,1.66,0,0,1-.86-.23l-22.59-13a1.71,1.71,0,0,1,0-3l22.59-13a1.71,1.71,0,0,1,1.72,0l22.59,13a1.71,1.71,0,0,1,0,3l-22.59,13A1.66,1.66,0,0,1,132.66,199.27Zm-19.15-14.75,19.15,11,19.16-11-19.16-11.06Z" transform="translate(0 0)"/><polygon class="cls-16" points="155.25 174.32 132.66 187.37 132.66 161.28 155.25 148.24 155.25 174.32"/><polygon class="cls-17" points="132.66 161.28 110.07 148.24 132.66 135.2 155.25 148.24 132.66 161.28"/><polygon class="cls-18" points="132.66 187.37 110.07 174.32 110.07 148.24 132.66 161.28 132.66 187.37"/><polygon class="cls-3" points="124.53 173.28 118.21 169.63 118.21 162.33 124.53 165.98 124.53 173.28"/><rect class="cls-3" x="303.21" y="185.41" width="75.86" height="3.43" transform="translate(-47.86 195.58) rotate(-29.99)"/><path class="cls-6" d="M253.8,299.48,195.87,266c-2.13-1.23-1.86-3.37.59-4.79l61.41-35.54c2.45-1.42,6.16-1.57,8.28-.34l57.94,33.44c2.12,1.23,1.85,3.37-.6,4.79l-61.41,35.54C259.63,300.55,255.92,300.7,253.8,299.48Z" transform="translate(0 0)"/><path class="cls-3" d="M257.41,288.48a9.11,9.11,0,0,1-4.47-1L195,254a4.18,4.18,0,0,1-2.3-3.57,5.07,5.07,0,0,1,2.89-4.19L257,210.69c3-1.72,7.36-1.87,10-.35l57.93,33.45a4.16,4.16,0,0,1,2.3,3.56,5.07,5.07,0,0,1-2.89,4.2l-61.41,35.54A11.32,11.32,0,0,1,257.41,288.48Zm-2.75-4c1.59.92,4.66.76,6.57-.34l61.4-35.55c.86-.49,1.17-1,1.17-1.22s-.18-.36-.57-.59l-57.94-33.44c-1.59-.92-4.66-.76-6.57.34l-61.4,35.54c-.86.5-1.17,1-1.17,1.22s.18.36.57.59Z" transform="translate(0 0)"/><path class="cls-19" d="M258,123.41s-31.81,3-51,4.5l50.81,144.71L325,233.86l0,0,.12-.07h0a3.73,3.73,0,0,0,1.37-3.31V89a10.21,10.21,0,0,0-1.16-4.51Z" transform="translate(0 0)"/><path class="cls-20" d="M322.4,81.05,263.29,46.92a2.68,2.68,0,0,0-2.69-.23h0L193.12,85.62l3.18,11.77,16.92,48.18,3.18,1.84,109-62.92A8.32,8.32,0,0,0,322.4,81.05Z" transform="translate(0 0)"/><path class="cls-21" d="M255,272.49l-59.11-34.12c-2.3-1.33-4.16-4.89-4.16-8V89c0-3.07,1.86-4.48,4.16-3.15L255,120c2.3,1.32,4.16,4.89,4.16,8V269.35C259.13,272.41,257.27,273.82,255,272.49Z" transform="translate(0 0)"/><path class="cls-3" d="M256.24,119.24,197.13,85.11a2.46,2.46,0,0,0-3.27.24,3.09,3.09,0,0,1,2,.47L255,120c2.3,1.32,4.16,4.89,4.16,8V269.35a4.27,4.27,0,0,1-.89,2.9c1.29-.2,2.16-1.52,2.16-3.62V127.19C260.4,124.12,258.54,120.56,256.24,119.24Z" transform="translate(0 0)"/><path class="cls-22" d="M251.25,264l-51.67-29.84c-2-1.16-3.64-4.27-3.64-6.95V95.83c0-2.68,1.63-3.91,3.64-2.75l51.67,29.83c2,1.16,3.64,4.27,3.64,7V261.23C254.89,263.91,253.26,265.14,251.25,264Z" transform="translate(0 0)"/><path class="cls-22" d="M251.25,264l-51.67-29.84c-2-1.16-3.64-4.27-3.64-6.95V95.83c0-2.68,1.63-3.91,3.64-2.75l51.67,29.83c2,1.16,3.64,4.27,3.64,7V261.23C254.89,263.91,253.26,265.14,251.25,264Z" transform="translate(0 0)"/><path class="cls-23" d="M251.25,264l-51.67-29.84c-2-1.16-3.64-4.27-3.64-6.95V95.83c0-2.68,1.63-3.91,3.64-2.75l51.67,29.83c2,1.16,3.64,4.27,3.64,7V261.23C254.89,263.91,253.26,265.14,251.25,264Z" transform="translate(0 0)"/><path class="cls-24" d="M252.94,263l-51.67-29.83c-2-1.16-3.64-4.27-3.64-7V94.84a4.21,4.21,0,0,1,.52-2.2c-1.3,0-2.21,1.19-2.21,3.19V227.19c0,2.68,1.63,5.79,3.64,6.95L251.25,264c1.33.76,2.48.48,3.12-.56A2.84,2.84,0,0,1,252.94,263Z" transform="translate(0 0)"/><path class="cls-23" d="M251.25,203.67l-19.2-11.09-30.63,17.68,53.47,30.88V210.62C254.89,207.94,253.26,204.83,251.25,203.67Z" transform="translate(0 0)"/><path class="cls-23" d="M251.25,176.75l-19.2-11.09-30.63,17.68,53.47,30.88V183.7C254.89,181,253.26,177.91,251.25,176.75Z" transform="translate(0 0)"/><path class="cls-23" d="M251.25,149.83l-19.2-11.09-30.63,17.69,53.47,30.87V156.78C254.89,154.1,253.26,151,251.25,149.83Z" transform="translate(0 0)"/><path class="cls-23" d="M251.25,122.91l-19.2-11.09-30.63,17.69,53.47,30.87V129.86C254.89,127.18,253.26,124.07,251.25,122.91Z" transform="translate(0 0)"/><path class="cls-23" d="M251.25,122.91,208.73,98.36l-7.31,4.23,53.47,30.87v-3.6C254.89,127.18,253.26,124.07,251.25,122.91Z" transform="translate(0 0)"/><polygon class="cls-21" points="254.89 133.46 201.41 102.59 201.41 119.6 254.89 150.48 254.89 133.46"/><polygon class="cls-21" points="254.89 160.38 201.41 129.51 201.41 146.52 254.89 177.4 254.89 160.38"/><polygon class="cls-21" points="254.89 187.3 201.41 156.43 201.41 173.44 254.89 204.31 254.89 187.3"/><polygon class="cls-21" points="254.89 214.22 201.41 183.34 201.41 200.36 254.89 231.23 254.89 214.22"/><polygon class="cls-21" points="254.89 241.14 201.41 210.26 201.41 227.28 254.89 258.15 254.89 241.14"/><path class="cls-23" d="M250.17,144.41,209.9,121.16a4.93,4.93,0,0,1-2.06-3.93v-4.56c0-1.52.92-2.21,2.06-1.56l40.27,23.26a4.9,4.9,0,0,1,2.06,3.93v4.56C252.23,144.37,251.31,145.07,250.17,144.41Z" transform="translate(0 0)"/><path class="cls-25" d="M211.93,120.29a4.93,4.93,0,0,1-2.06-3.94V111.8a2.65,2.65,0,0,1,.08-.66l0,0c-1.14-.65-2.06,0-2.06,1.56v4.56a4.93,4.93,0,0,0,2.06,3.93l40.27,23.25a1.24,1.24,0,0,0,2-.9Z" transform="translate(0 0)"/><path class="cls-3" d="M237.53,131.93l-24.23-14a1.74,1.74,0,0,1-.73-1.38h0c0-.54.33-.78.73-.55l24.23,14a1.74,1.74,0,0,1,.73,1.39h0C238.26,131.91,237.93,132.16,237.53,131.93Z" transform="translate(0 0)"/><path class="cls-23" d="M250.17,171.17,209.9,147.91a4.93,4.93,0,0,1-2.06-3.93v-4.56c0-1.52.92-2.21,2.06-1.56l40.27,23.26a4.93,4.93,0,0,1,2.06,3.93v4.56C252.23,171.13,251.31,171.82,250.17,171.17Z" transform="translate(0 0)"/><path class="cls-25" d="M211.93,147a4.93,4.93,0,0,1-2.06-3.94v-4.55a2.71,2.71,0,0,1,.08-.66l0,0c-1.14-.65-2.06,0-2.06,1.56V144a4.93,4.93,0,0,0,2.06,3.93l40.27,23.26a1.24,1.24,0,0,0,2-.91Z" transform="translate(0 0)"/><path class="cls-3" d="M237.53,158.68l-24.23-14a1.74,1.74,0,0,1-.73-1.38h0c0-.53.33-.78.73-.55l24.23,14a1.74,1.74,0,0,1,.73,1.38h0C238.26,158.66,237.93,158.91,237.53,158.68Z" transform="translate(0 0)"/><path class="cls-23" d="M250.17,198.17,209.9,174.91a4.92,4.92,0,0,1-2.06-3.93v-4.56c0-1.51.92-2.21,2.06-1.55l40.27,23.25a4.93,4.93,0,0,1,2.06,3.93v4.56C252.23,198.13,251.31,198.82,250.17,198.17Z" transform="translate(0 0)"/><path class="cls-25" d="M211.93,174a4.93,4.93,0,0,1-2.06-3.93v-4.56a2.57,2.57,0,0,1,.08-.65l0,0c-1.14-.66-2.06,0-2.06,1.55V171a4.92,4.92,0,0,0,2.06,3.93l40.27,23.26a1.24,1.24,0,0,0,2-.91Z" transform="translate(0 0)"/><path class="cls-26" d="M237.53,185.68l-24.23-14a1.77,1.77,0,0,1-.73-1.39h0c0-.53.33-.78.73-.55l24.23,14a1.74,1.74,0,0,1,.73,1.38h0C238.26,185.66,237.93,185.91,237.53,185.68Z" transform="translate(0 0)"/><path class="cls-23" d="M250.17,225.42,209.9,202.16a4.9,4.9,0,0,1-2.06-3.93v-4.56c0-1.51.92-2.21,2.06-1.55l40.27,23.25a4.93,4.93,0,0,1,2.06,3.93v4.56C252.23,225.38,251.31,226.07,250.17,225.42Z" transform="translate(0 0)"/><path class="cls-25" d="M211.93,201.29a4.93,4.93,0,0,1-2.06-3.93V192.8a2.57,2.57,0,0,1,.08-.65l0,0c-1.14-.66-2.06,0-2.06,1.55v4.56a4.9,4.9,0,0,0,2.06,3.93l40.27,23.26a1.24,1.24,0,0,0,2-.9Z" transform="translate(0 0)"/><path class="cls-27" d="M237.53,212.93l-24.23-14a1.75,1.75,0,0,1-.73-1.39h0c0-.53.33-.78.73-.55l24.23,14a1.74,1.74,0,0,1,.73,1.38h0C238.26,212.92,237.93,213.16,237.53,212.93Z" transform="translate(0 0)"/><path class="cls-23" d="M250.17,252.13,209.9,228.87a4.9,4.9,0,0,1-2.06-3.93v-4.56c0-1.51.92-2.21,2.06-1.55l40.27,23.25a4.93,4.93,0,0,1,2.06,3.94v4.55C252.23,252.09,251.31,252.78,250.17,252.13Z" transform="translate(0 0)"/><path class="cls-25" d="M211.93,228a4.93,4.93,0,0,1-2.06-3.93v-4.56a2.63,2.63,0,0,1,.08-.65l0,0c-1.14-.66-2.06,0-2.06,1.55v4.56a4.9,4.9,0,0,0,2.06,3.93l40.27,23.26a1.24,1.24,0,0,0,2-.9Z" transform="translate(0 0)"/><path class="cls-26" d="M237.53,239.64l-24.23-14a1.74,1.74,0,0,1-.73-1.39h0c0-.53.33-.78.73-.55l24.23,14a1.74,1.74,0,0,1,.73,1.38h0C238.26,239.63,237.93,239.87,237.53,239.64Z" transform="translate(0 0)"/><polygon class="cls-28" points="201.41 102.59 205.63 105.02 205.63 122.03 201.41 119.6 201.41 102.59"/><polygon class="cls-28" points="201.41 129.51 205.63 131.94 205.63 148.95 201.41 146.52 201.41 129.51"/><polygon class="cls-28" points="201.41 156.43 205.63 158.86 205.63 175.87 201.41 173.44 201.41 156.43"/><polygon class="cls-28" points="201.41 183.34 205.63 185.78 205.63 202.79 201.41 200.36 201.41 183.34"/><polygon class="cls-28" points="201.41 210.26 205.63 212.69 205.63 229.71 201.41 227.28 201.41 210.26"/><ellipse class="cls-26" cx="241.46" cy="133.11" rx="0.7" ry="1.21" transform="matrix(0.87, -0.5, 0.5, 0.87, -34.21, 138.59)"/><path class="cls-27" d="M245.92,135.69c0,.55-.38.77-.85.49a1.87,1.87,0,0,1-.85-1.47c0-.55.38-.77.85-.49A1.87,1.87,0,0,1,245.92,135.69Z" transform="translate(0 0)"/><path class="cls-26" d="M249.54,137.78c0,.54-.38.76-.85.49a1.89,1.89,0,0,1-.86-1.48c0-.54.39-.76.86-.49A1.89,1.89,0,0,1,249.54,137.78Z" transform="translate(0 0)"/><path class="cls-27" d="M242.31,160.51c0,.54-.38.76-.85.49a1.89,1.89,0,0,1-.86-1.47c0-.55.39-.77.86-.5A1.91,1.91,0,0,1,242.31,160.51Z" transform="translate(0 0)"/><path class="cls-26" d="M245.92,162.6c0,.54-.38.76-.85.49a1.88,1.88,0,0,1-.85-1.48c0-.54.38-.76.85-.49A1.88,1.88,0,0,1,245.92,162.6Z" transform="translate(0 0)"/><path class="cls-3" d="M249.54,164.68c0,.55-.38.77-.85.5a1.92,1.92,0,0,1-.86-1.48c0-.54.39-.76.86-.49A1.87,1.87,0,0,1,249.54,164.68Z" transform="translate(0 0)"/><path class="cls-3" d="M242.31,187.62c0,.54-.38.76-.85.49a1.89,1.89,0,0,1-.86-1.48c0-.54.39-.76.86-.49A1.88,1.88,0,0,1,242.31,187.62Z" transform="translate(0 0)"/><path class="cls-27" d="M245.92,189.7c0,.55-.38.77-.85.5a1.89,1.89,0,0,1-.85-1.48c0-.54.38-.76.85-.49A1.87,1.87,0,0,1,245.92,189.7Z" transform="translate(0 0)"/><path class="cls-3" d="M249.54,191.79c0,.55-.38.77-.85.49a1.89,1.89,0,0,1-.86-1.47c0-.55.39-.77.86-.5A1.91,1.91,0,0,1,249.54,191.79Z" transform="translate(0 0)"/><path class="cls-3" d="M242.31,214.33c0,.54-.38.76-.85.49a1.89,1.89,0,0,1-.86-1.47c0-.55.39-.77.86-.5A1.91,1.91,0,0,1,242.31,214.33Z" transform="translate(0 0)"/><path class="cls-26" d="M245.92,216.42c0,.54-.38.76-.85.49a1.88,1.88,0,0,1-.85-1.48c0-.54.38-.76.85-.49A1.88,1.88,0,0,1,245.92,216.42Z" transform="translate(0 0)"/><path class="cls-26" d="M249.54,218.5c0,.55-.38.77-.85.5a1.92,1.92,0,0,1-.86-1.48c0-.54.39-.76.86-.49A1.87,1.87,0,0,1,249.54,218.5Z" transform="translate(0 0)"/><path class="cls-3" d="M242.31,241.41c0,.54-.38.76-.85.49a1.89,1.89,0,0,1-.86-1.48c0-.54.39-.76.86-.49A1.88,1.88,0,0,1,242.31,241.41Z" transform="translate(0 0)"/><path class="cls-27" d="M245.92,243.5c0,.54-.38.76-.85.49a1.89,1.89,0,0,1-.85-1.48c0-.54.38-.76.85-.49A1.88,1.88,0,0,1,245.92,243.5Z" transform="translate(0 0)"/><path class="cls-26" d="M249.54,245.58c0,.55-.38.77-.85.49a1.89,1.89,0,0,1-.86-1.47c0-.55.39-.77.86-.49A1.87,1.87,0,0,1,249.54,245.58Z" transform="translate(0 0)"/><path class="cls-23" d="M268,253.37V132.93l.25-.14,50.34-29.07V224.17l-.25.14Zm1-119.86V251.65l48.59-28.06V105.45Z" transform="translate(0 0)"/><path class="cls-23" d="M305.54,157.92,283,171c-1.51.87-2.74-.06-2.74-2.08V156.36a6.61,6.61,0,0,1,2.74-5.25l22.57-13c1.52-.87,2.75.06,2.75,2.08v12.51A6.59,6.59,0,0,1,305.54,157.92Z" transform="translate(0 0)"/><path class="cls-21" d="M306.09,137.84a3.59,3.59,0,0,1,.21,1.25v12.52a6.55,6.55,0,0,1-2.75,5.24l-22.57,13a2.94,2.94,0,0,1-.55.25A1.6,1.6,0,0,0,283,171l22.57-13a6.59,6.59,0,0,0,2.75-5.25V140.16C308.29,138.39,307.35,137.45,306.09,137.84Z" transform="translate(0 0)"/><path class="cls-3" d="M301.42,150.38c.42-.24.76,0,.76.44v2.85a1.65,1.65,0,0,1-.76,1.3c-.42.25-.75.05-.75-.43v-2.85A1.66,1.66,0,0,1,301.42,150.38Z" transform="translate(0 0)"/><path class="cls-26" d="M298.18,152.61c.42-.25.76-.05.76.43v2.5a1.65,1.65,0,0,1-.76,1.3c-.41.24-.75,0-.75-.43v-2.5A1.67,1.67,0,0,1,298.18,152.61Z" transform="translate(0 0)"/><path class="cls-27" d="M295,151.69c.41-.24.75,0,.75.44v5.27a1.67,1.67,0,0,1-.75,1.31c-.42.24-.76,0-.76-.43V153A1.67,1.67,0,0,1,295,151.69Z" transform="translate(0 0)"/><path class="cls-26" d="M291.71,150.52c.42-.24.75-.05.75.44v8.31a1.65,1.65,0,0,1-.75,1.31c-.42.24-.76,0-.76-.43v-8.32A1.67,1.67,0,0,1,291.71,150.52Z" transform="translate(0 0)"/><path class="cls-26" d="M288.47,153.26c.42-.24.76,0,.76.44v7.44a1.66,1.66,0,0,1-.76,1.31c-.42.24-.75.05-.75-.43v-7.45A1.66,1.66,0,0,1,288.47,153.26Z" transform="translate(0 0)"/><path class="cls-3" d="M285.23,158.53c.42-.24.76,0,.76.44v4a1.67,1.67,0,0,1-.76,1.31c-.41.24-.75.05-.75-.43v-4A1.69,1.69,0,0,1,285.23,158.53Z" transform="translate(0 0)"/><path class="cls-27" d="M300.68,148.94c0,.47.33.67.74.43a1.64,1.64,0,0,0,.74-1.29c0-.47-.33-.66-.74-.43A1.66,1.66,0,0,0,300.68,148.94Z" transform="translate(0 0)"/><ellipse class="cls-3" cx="301.42" cy="145.83" rx="1.05" ry="0.61" transform="translate(24.41 333.94) rotate(-60)"/><rect class="cls-3" x="383.89" y="81.61" width="3.44" height="66.63"/><path class="cls-6" d="M255.29,360.58l-34.51-19.92c-2.12-1.23-1.85-3.36.6-4.78l33.32-19.23c2.45-1.42,6.15-1.57,8.26-.35l34.52,19.93c2.11,1.22,1.85,3.36-.6,4.77l-33.32,19.24C261.11,361.65,257.41,361.8,255.29,360.58Z" transform="translate(0 0)"/><path class="cls-3" d="M258.9,352.47a9.19,9.19,0,0,1-4.58-1.1h0L219.8,331.45a4.4,4.4,0,0,1-2.41-3.77,5.29,5.29,0,0,1,3-4.4L253.72,304c3.08-1.78,7.48-1.93,10.22-.34l34.52,19.93a4.38,4.38,0,0,1,2.41,3.77,5.28,5.28,0,0,1-3,4.39L264.54,351A11.46,11.46,0,0,1,258.9,352.47ZM256.27,348c1.53.88,4.47.72,6.31-.34L295.9,328.4c.84-.49,1-.92,1.05-1a1.56,1.56,0,0,0-.45-.37L262,307.1c-1.52-.88-4.46-.72-6.3.34l-33.32,19.24c-.84.48-1,.92-1.05,1a1.27,1.27,0,0,0,.45.37L256.27,348Z" transform="translate(0 0)"/><path class="cls-24" d="M298.89,315.19h0V303.28l-26.7,0L263,297.93c-2.11-1.22-5.81-1.07-8.26.35l-8.61,5-26.73,0v12.25a2.38,2.38,0,0,0,1.42,2.21l34.51,19.93c2.12,1.22,5.82,1.07,8.27-.34L296.88,318C298.29,317.22,299,316.17,298.89,315.19Z" transform="translate(0 0)"/><path class="cls-29" d="M259.13,297.11a9.49,9.49,0,0,0-4.43,1.17l-8.61,5-26.73,0v12.25a2.38,2.38,0,0,0,1.42,2.21l34.51,19.93a7.54,7.54,0,0,0,3.84.82Z" transform="translate(0 0)"/><path class="cls-26" d="M222.39,303.23h-3v12.25a2.38,2.38,0,0,0,1.42,2.21l1.61.93Z" transform="translate(0 0)"/><path class="cls-21" d="M255.83,337.88a9.39,9.39,0,0,0,6.6-.08V323.9h-6.6Z" transform="translate(0 0)"/><path class="cls-30" d="M255.29,325.42l-34.51-19.93c-2.12-1.22-1.85-3.36.6-4.77l33.32-19.24c2.45-1.41,6.15-1.56,8.26-.34l34.52,19.92c2.11,1.23,1.85,3.36-.6,4.77l-33.32,19.24C261.11,326.49,257.41,326.64,255.29,325.42Z" transform="translate(0 0)"/><path class="cls-3" d="M296.88,303.49l-33.32,19.24c-2.45,1.41-6.15,1.57-8.27.34l-34.51-19.92a3,3,0,0,1-1.05-.94c-.73,1.17-.4,2.44,1.05,3.28l34.51,19.93c2.12,1.22,5.82,1.07,8.27-.35l33.32-19.24c1.9-1.09,2.48-2.63,1.65-3.83A4.5,4.5,0,0,1,296.88,303.49Z" transform="translate(0 0)"/><path class="cls-26" d="M286.2,318.33a3.06,3.06,0,0,1-1.39,2.41c-.77.45-1.4.09-1.4-.8a3.1,3.1,0,0,1,1.4-2.42C285.58,317.08,286.2,317.44,286.2,318.33Z" transform="translate(0 0)"/><path class="cls-26" d="M290.69,315.74a3.07,3.07,0,0,1-1.4,2.41c-.77.45-1.39.09-1.39-.8a3.09,3.09,0,0,1,1.39-2.42C290.06,314.49,290.69,314.85,290.69,315.74Z" transform="translate(0 0)"/><path class="cls-26" d="M295.17,313.15a3.06,3.06,0,0,1-1.39,2.41c-.77.45-1.4.09-1.4-.8a3.1,3.1,0,0,1,1.4-2.42C294.55,311.9,295.17,312.26,295.17,313.15Z" transform="translate(0 0)"/><path class="cls-21" d="M257.34,313.06l-16.15-9.32c-1-.57-.87-1.57.27-2.23l15.6-9a4.29,4.29,0,0,1,3.86-.16l16.15,9.33c1,.57.87,1.57-.27,2.23l-15.6,9A4.26,4.26,0,0,1,257.34,313.06Z" transform="translate(0 0)"/><path class="cls-26" d="M258.88,305.26,256.65,304c-.14-.08-.12-.22,0-.31l2.15-1.25a.61.61,0,0,1,.54,0l2.23,1.29c.14.08.12.22,0,.31l-2.15,1.24A.58.58,0,0,1,258.88,305.26Z" transform="translate(0 0)"/><path class="cls-24" d="M241.19,303.74l0,0,.23-.16,15.6-9a4.29,4.29,0,0,1,3.86-.16l16.11,9.3c.91-.65,1-1.54,0-2.07l-16.15-9.33a4.29,4.29,0,0,0-3.86.16l-15.6,9C240.32,302.17,240.19,303.17,241.19,303.74Z" transform="translate(0 0)"/><path class="cls-6" d="M381.77,272.66l-34.51-19.92c-2.12-1.22-1.86-3.36.59-4.77l33.32-19.24c2.45-1.41,6.15-1.57,8.27-.35L424,248.31c2.12,1.22,1.85,3.36-.59,4.77L390,272.32C387.59,273.73,383.89,273.89,381.77,272.66Z" transform="translate(0 0)"/><path class="cls-3" d="M385.38,264.55a9.33,9.33,0,0,1-4.59-1.09h0l-34.51-19.93a4.38,4.38,0,0,1-2.41-3.77,5.26,5.26,0,0,1,3-4.39l33.32-19.24c3.09-1.79,7.48-1.93,10.23-.35l34.51,19.93a4.4,4.4,0,0,1,2.41,3.77,5.28,5.28,0,0,1-3,4.39L391,263.11A11.4,11.4,0,0,1,385.38,264.55Zm-2.63-4.49c1.52.88,4.46.72,6.3-.34l33.33-19.24c.83-.48,1-.92,1-1a1.13,1.13,0,0,0-.45-.38l-34.51-19.92c-1.52-.88-4.47-.72-6.31.34l-33.32,19.24c-.84.48-1,.92-1,1a1.13,1.13,0,0,0,.45.38l34.51,19.92Z" transform="translate(0 0)"/><path class="cls-24" d="M425.37,227.27h0V215.36h-26.7L389.44,210c-2.12-1.23-5.82-1.07-8.27.34l-8.61,5H345.84v12.24a2.4,2.4,0,0,0,1.42,2.22l34.51,19.92c2.12,1.22,5.82,1.07,8.26-.34l33.33-19.24C424.77,229.31,425.45,228.25,425.37,227.27Z" transform="translate(0 0)"/><path class="cls-31" d="M385.6,209.2a9.48,9.48,0,0,0-4.43,1.16l-8.61,5H345.84v12.24a2.4,2.4,0,0,0,1.42,2.22l34.51,19.92a7.4,7.4,0,0,0,3.83.82Z" transform="translate(0 0)"/><path class="cls-26" d="M348.86,215.32h-3v12.24a2.4,2.4,0,0,0,1.42,2.22l1.6.92Z" transform="translate(0 0)"/><path class="cls-21" d="M382.3,250a9.41,9.41,0,0,0,6.61-.07V236H382.3Z" transform="translate(0 0)"/><path class="cls-32" d="M381.77,237.5l-34.51-19.93c-2.12-1.22-1.86-3.36.59-4.77l33.32-19.24c2.45-1.41,6.15-1.56,8.27-.34L424,213.15c2.12,1.22,1.85,3.36-.59,4.77L390,237.16C387.59,238.57,383.89,238.72,381.77,237.5Z" transform="translate(0 0)"/><path class="cls-3" d="M423.36,215.57,390,234.81c-2.44,1.42-6.14,1.57-8.26.35l-34.51-19.93a3.08,3.08,0,0,1-1.06-.94c-.73,1.17-.4,2.44,1.06,3.28l34.51,19.93c2.12,1.22,5.82,1.07,8.26-.34l33.33-19.24c1.9-1.1,2.47-2.63,1.65-3.84A4.67,4.67,0,0,1,423.36,215.57Z" transform="translate(0 0)"/><path class="cls-26" d="M412.67,230.41a3.06,3.06,0,0,1-1.39,2.41c-.77.45-1.39.09-1.39-.8a3.06,3.06,0,0,1,1.39-2.41C412.05,229.16,412.67,229.52,412.67,230.41Z" transform="translate(0 0)"/><path class="cls-26" d="M417.16,227.82a3.09,3.09,0,0,1-1.39,2.42c-.77.44-1.4.08-1.4-.81a3.07,3.07,0,0,1,1.4-2.41C416.54,226.57,417.16,226.93,417.16,227.82Z" transform="translate(0 0)"/><path class="cls-26" d="M421.64,225.23a3.09,3.09,0,0,1-1.39,2.42c-.77.44-1.39.08-1.39-.81a3.06,3.06,0,0,1,1.39-2.41C421,224,421.64,224.34,421.64,225.23Z" transform="translate(0 0)"/><path class="cls-21" d="M383.81,225.15l-16.15-9.33c-1-.57-.87-1.57.28-2.23l15.59-9a4.28,4.28,0,0,1,3.87-.16l16.15,9.32c1,.57.86,1.57-.28,2.23l-15.59,9A4.31,4.31,0,0,1,383.81,225.15Z" transform="translate(0 0)"/><path class="cls-26" d="M385.36,217.34l-2.24-1.29c-.14-.08-.12-.22,0-.31l2.16-1.25a.59.59,0,0,1,.53,0l2.24,1.29c.13.08.12.22,0,.31l-2.16,1.25A.59.59,0,0,1,385.36,217.34Z" transform="translate(0 0)"/><path class="cls-24" d="M367.66,215.82l0,0a1.34,1.34,0,0,1,.23-.16l15.59-9a4.25,4.25,0,0,1,3.87-.16l16.1,9.29c.92-.65,1-1.54.05-2.07l-16.15-9.32a4.28,4.28,0,0,0-3.87.16l-15.59,9C366.79,214.25,366.67,215.25,367.66,215.82Z" transform="translate(0 0)"/><path class="cls-6" d="M128.83,272.66,94.31,252.74c-2.11-1.22-1.85-3.36.6-4.77l33.32-19.24c2.45-1.41,6.15-1.57,8.27-.35L171,248.31c2.12,1.22,1.85,3.36-.6,4.77l-33.32,19.24C134.64,273.73,130.94,273.89,128.83,272.66Z" transform="translate(0 0)"/><path class="cls-3" d="M132.43,264.55a9.32,9.32,0,0,1-4.58-1.09h0L93.33,243.53a4.4,4.4,0,0,1-2.41-3.77,5.28,5.28,0,0,1,3-4.39l33.32-19.24c3.09-1.79,7.48-1.93,10.23-.35L172,235.71a4.4,4.4,0,0,1,2.41,3.77,5.28,5.28,0,0,1-3,4.39l-33.33,19.24A11.41,11.41,0,0,1,132.43,264.55Zm-2.62-4.49c1.52.88,4.46.72,6.3-.34l33.32-19.24c.84-.48,1-.92,1-1a1.23,1.23,0,0,0-.45-.38l-34.51-19.92c-1.53-.88-4.47-.72-6.31.34L95.89,238.76c-.84.48-1,.92-1,1a1.35,1.35,0,0,0,.45.38l34.52,19.92Z" transform="translate(0 0)"/><path class="cls-24" d="M172.43,227.27h0V215.36h-26.7L136.5,210c-2.12-1.23-5.82-1.07-8.27.34l-8.61,5H92.9v12.24a2.41,2.41,0,0,0,1.41,2.22l34.52,19.92c2.11,1.22,5.81,1.07,8.26-.34l33.32-19.24C171.83,229.31,172.51,228.25,172.43,227.27Z" transform="translate(0 0)"/><path class="cls-33" d="M132.66,209.2a9.48,9.48,0,0,0-4.43,1.16l-8.61,5H92.9v12.24a2.41,2.41,0,0,0,1.41,2.22l34.52,19.92a7.38,7.38,0,0,0,3.83.82Z" transform="translate(0 0)"/><path class="cls-26" d="M95.92,215.32h-3v12.24a2.41,2.41,0,0,0,1.41,2.22l1.61.92Z" transform="translate(0 0)"/><path class="cls-21" d="M129.36,250a9.38,9.38,0,0,0,6.6-.07V236h-6.6Z" transform="translate(0 0)"/><path class="cls-34" d="M128.83,237.5,94.31,217.57c-2.11-1.22-1.85-3.36.6-4.77l33.32-19.24c2.45-1.41,6.15-1.56,8.27-.34L171,213.15c2.12,1.22,1.85,3.36-.6,4.77l-33.32,19.24C134.64,238.57,130.94,238.72,128.83,237.5Z" transform="translate(0 0)"/><path class="cls-3" d="M170.41,215.57l-33.32,19.24c-2.45,1.42-6.15,1.57-8.26.35L94.31,215.23a3.14,3.14,0,0,1-1-.94c-.73,1.17-.4,2.44,1,3.28l34.52,19.93c2.11,1.22,5.81,1.07,8.26-.34l33.32-19.24c1.9-1.1,2.48-2.63,1.65-3.84A4.5,4.5,0,0,1,170.41,215.57Z" transform="translate(0 0)"/><path class="cls-26" d="M159.73,230.41a3.06,3.06,0,0,1-1.39,2.41c-.77.45-1.4.09-1.4-.8a3.07,3.07,0,0,1,1.4-2.41C159.11,229.16,159.73,229.52,159.73,230.41Z" transform="translate(0 0)"/><path class="cls-26" d="M164.22,227.82a3.1,3.1,0,0,1-1.4,2.42c-.77.44-1.39.08-1.39-.81a3.06,3.06,0,0,1,1.39-2.41C163.59,226.57,164.22,226.93,164.22,227.82Z" transform="translate(0 0)"/><path class="cls-26" d="M168.7,225.23a3.09,3.09,0,0,1-1.39,2.42c-.77.44-1.4.08-1.4-.81a3.07,3.07,0,0,1,1.4-2.41C168.08,224,168.7,224.34,168.7,225.23Z" transform="translate(0 0)"/><path class="cls-21" d="M130.87,225.15l-16.15-9.33c-1-.57-.87-1.57.27-2.23l15.6-9a4.28,4.28,0,0,1,3.87-.16l16.15,9.32c1,.57.86,1.57-.28,2.23l-15.6,9A4.29,4.29,0,0,1,130.87,225.15Z" transform="translate(0 0)"/><path class="cls-26" d="M132.41,217.34l-2.23-1.29c-.14-.08-.12-.22,0-.31l2.15-1.25a.61.61,0,0,1,.54,0l2.23,1.29c.14.08.12.22,0,.31L133,217.32A.61.61,0,0,1,132.41,217.34Z" transform="translate(0 0)"/><path class="cls-24" d="M114.72,215.82l0,0,.23-.16,15.6-9a4.25,4.25,0,0,1,3.87-.16l16.1,9.29c.91-.65,1-1.54.05-2.07l-16.15-9.32a4.28,4.28,0,0,0-3.87.16l-15.6,9C113.85,214.25,113.73,215.25,114.72,215.82Z" transform="translate(0 0)"/></svg>