<svg xmlns="http://www.w3.org/2000/svg" xmlns:xlink="http://www.w3.org/1999/xlink" viewBox="0 0 600.28 450"><defs><style>.cls-1{isolation:isolate;}.cls-2{fill:#111b33;}.cls-3{fill:#fff;}.cls-4,.cls-5{fill:none;}.cls-4{stroke:#fff;stroke-miterlimit:10;stroke-width:0.75px;}.cls-6,.cls-67,.cls-7,.cls-70,.cls-71,.cls-8,.cls-9{opacity:0.9;mix-blend-mode:multiply;}.cls-6{fill:url(#linear-gradient);}.cls-7{fill:url(#linear-gradient-2);}.cls-8{fill:url(#linear-gradient-3);}.cls-9{fill:url(#linear-gradient-4);}.cls-10{fill:#cfd8dc;}.cls-11{fill:#1a237e;}.cls-12{fill:url(#linear-gradient-5);}.cls-13{fill:url(#linear-gradient-6);}.cls-14{fill:url(#linear-gradient-7);}.cls-15{fill:url(#linear-gradient-8);}.cls-16{fill:#b39ddb;}.cls-17{fill:#eceff1;}.cls-18{fill:#0d47a1;}.cls-19{fill:url(#linear-gradient-9);}.cls-20{fill:url(#linear-gradient-10);}.cls-21{fill:url(#linear-gradient-11);}.cls-22{fill:url(#linear-gradient-12);}.cls-23{fill:url(#linear-gradient-13);}.cls-24{opacity:0.6;mix-blend-mode:hard-light;}.cls-25{fill:#8d9396;}.cls-26{fill:#898f91;}.cls-27{fill:#848a8d;}.cls-28{fill:#808688;}.cls-29{fill:#7c8284;}.cls-30{fill:#787d80;}.cls-31{fill:#74797b;}.cls-32{fill:#707577;}.cls-33{fill:#6c7072;}.cls-34{fill:#73838b;}.cls-35{fill:#708088;}.cls-36{fill:#6b7981;}.cls-37{fill:#627076;}.cls-38{fill:#6f7f87;}.cls-39{fill:#a6adb0;}.cls-40{fill:#a1a8ac;}.cls-41{fill:#9da4a7;}.cls-42{fill:#99a0a3;}.cls-43{fill:#959c9e;}.cls-44{fill:#91979a;}.cls-45{fill:#22567f;}.cls-46{fill:#26608e;}.cls-47{fill:#3380bd;}.cls-48{fill:#771e1c;}.cls-49{fill:#85211f;}.cls-50{fill:#9c2724;}.cls-51{fill:#b12c29;}.cls-52{fill:#4b555a;}.cls-53{fill:#4e595e;}.cls-54{fill:#545f65;}.cls-55{fill:#5c696f;}.cls-56{fill:#4d585d;}.cls-57{fill:#7c8d96;}.cls-58{fill:url(#linear-gradient-14);}.cls-59{fill:url(#linear-gradient-15);}.cls-60{fill:url(#linear-gradient-16);}.cls-61{fill:url(#linear-gradient-17);}.cls-62{fill:#c9b9e5;}.cls-63{fill:#7e57c2;}.cls-64{fill:url(#linear-gradient-18);}.cls-65{fill:url(#linear-gradient-19);}.cls-66{fill:url(#linear-gradient-20);}.cls-67{fill:url(#linear-gradient-21);}.cls-68{fill:url(#linear-gradient-22);}.cls-69{fill:#9d82e9;}.cls-70{fill:url(#linear-gradient-23);}.cls-71{fill:url(#linear-gradient-24);}.cls-72{fill:#311b92;}.cls-73{fill:url(#linear-gradient-25);}.cls-74{fill:url(#linear-gradient-26);}.cls-75{fill:url(#linear-gradient-27);}.cls-76{fill:url(#linear-gradient-28);}.cls-77{fill:url(#linear-gradient-29);}.cls-78{fill:url(#linear-gradient-30);}.cls-79{fill:url(#linear-gradient-31);}.cls-80{fill:url(#linear-gradient-32);}.cls-81{fill:url(#linear-gradient-33);}.cls-82{fill:url(#linear-gradient-34);}.cls-83{fill:url(#linear-gradient-35);}.cls-84{fill:url(#linear-gradient-36);}.cls-85{fill:url(#linear-gradient-37);}.cls-86{fill:url(#linear-gradient-38);}.cls-87{fill:url(#linear-gradient-39);}.cls-88{fill:#005ef3;}.cls-89{fill:#003574;}.cls-90{fill:#b0bec5;}.cls-91{fill:#f2f2f4;}.cls-92{fill:#dae1e4;}.cls-93{opacity:0.35;}</style><linearGradient id="linear-gradient" x1="254.12" y1="291.01" x2="254.12" y2="367.77" gradientUnits="userSpaceOnUse"><stop offset="0" stop-color="#a4c9e3"/><stop offset="0.09" stop-color="#a3c2e4" stop-opacity="0.96"/><stop offset="0.24" stop-color="#a2b0e6" stop-opacity="0.86"/><stop offset="0.43" stop-color="#a091e9" stop-opacity="0.69"/><stop offset="0.65" stop-color="#9c67ed" stop-opacity="0.45"/><stop offset="0.89" stop-color="#9833f3" stop-opacity="0.15"/><stop offset="1" stop-color="#9618f6" stop-opacity="0"/></linearGradient><linearGradient id="linear-gradient-2" x1="198.97" y1="261.57" x2="198.97" y2="300.87" xlink:href="#linear-gradient"/><linearGradient id="linear-gradient-3" x1="121.69" y1="94.51" x2="121.69" y2="318.73" xlink:href="#linear-gradient"/><linearGradient id="linear-gradient-4" x1="235.14" y1="136.05" x2="235.14" y2="262.95" xlink:href="#linear-gradient"/><linearGradient id="linear-gradient-5" x1="185.85" y1="276.74" x2="191.09" y2="296.8" gradientUnits="userSpaceOnUse"><stop offset="0" stop-color="#a4c9e3"/><stop offset="0.11" stop-color="#a3c0e4"/><stop offset="0.29" stop-color="#a1a9e6"/><stop offset="0.51" stop-color="#9e82eb"/><stop offset="0.77" stop-color="#9a4df0"/><stop offset="1" stop-color="#9618f6"/></linearGradient><linearGradient id="linear-gradient-6" x1="197.47" y1="271.57" x2="203.31" y2="293.89" xlink:href="#linear-gradient-5"/><linearGradient id="linear-gradient-7" x1="211.36" y1="266.7" x2="216.32" y2="285.67" xlink:href="#linear-gradient-5"/><linearGradient id="linear-gradient-8" x1="172.67" y1="277.12" x2="225.28" y2="277.12" gradientUnits="userSpaceOnUse"><stop offset="0" stop-color="#a8abbc"/><stop offset="0.13" stop-color="#bdbfcc"/><stop offset="0.35" stop-color="#dadbe2"/><stop offset="0.57" stop-color="#eeeff2"/><stop offset="0.79" stop-color="#fbfbfc"/><stop offset="1" stop-color="#fff"/></linearGradient><linearGradient id="linear-gradient-9" x1="233.9" y1="313.59" x2="242.78" y2="355.47" xlink:href="#linear-gradient-5"/><linearGradient id="linear-gradient-10" x1="264.14" y1="302.58" x2="273.45" y2="346.5" xlink:href="#linear-gradient-5"/><linearGradient id="linear-gradient-11" x1="268.27" y1="291.42" x2="274.61" y2="321.28" xlink:href="#linear-gradient-5"/><linearGradient id="linear-gradient-12" x1="214.67" y1="315.37" x2="218.57" y2="333.75" xlink:href="#linear-gradient-5"/><linearGradient id="linear-gradient-13" x1="204.89" y1="313.12" x2="303.37" y2="313.12" xlink:href="#linear-gradient-8"/><linearGradient id="linear-gradient-14" x1="65.6" y1="174.61" x2="39.24" y2="93.16" gradientTransform="translate(151.83)" xlink:href="#linear-gradient-8"/><linearGradient id="linear-gradient-15" x1="60.27" y1="212.39" x2="44.19" y2="100.89" gradientTransform="translate(151.83)" xlink:href="#linear-gradient-8"/><linearGradient id="linear-gradient-16" x1="39.12" y1="103.4" x2="127.73" y2="103.4" gradientTransform="translate(233.52 36.36)" xlink:href="#linear-gradient-8"/><linearGradient id="linear-gradient-17" x1="122.71" y1="216.84" x2="134.71" y2="231.91" xlink:href="#linear-gradient-8"/><linearGradient id="linear-gradient-18" x1="147.38" y1="98.09" x2="104.63" y2="249.25" xlink:href="#linear-gradient-8"/><linearGradient id="linear-gradient-19" x1="116.31" y1="201.17" x2="120.53" y2="241.65" xlink:href="#linear-gradient-5"/><linearGradient id="linear-gradient-20" x1="122.03" y1="155.56" x2="127.01" y2="203.37" xlink:href="#linear-gradient-5"/><linearGradient id="linear-gradient-21" x1="243.72" y1="271.19" x2="243.72" y2="324.54" xlink:href="#linear-gradient"/><linearGradient id="linear-gradient-22" x1="271.25" y1="243.05" x2="220" y2="314.65" xlink:href="#linear-gradient-8"/><linearGradient id="linear-gradient-23" x1="222.35" y1="260.49" x2="388.68" y2="260.49" xlink:href="#linear-gradient"/><linearGradient id="linear-gradient-24" x1="338.4" y1="187.13" x2="338.4" y2="334.89" xlink:href="#linear-gradient"/><linearGradient id="linear-gradient-25" x1="304.85" y1="315.38" x2="306.26" y2="190.37" xlink:href="#linear-gradient-8"/><linearGradient id="linear-gradient-26" x1="415.17" y1="332.64" x2="383.19" y2="244.42" xlink:href="#linear-gradient-8"/><linearGradient id="linear-gradient-27" x1="339.48" y1="286.3" x2="457.27" y2="286.3" gradientUnits="userSpaceOnUse"><stop offset="0" stop-color="#f0ecfd"/><stop offset="1" stop-color="#d5cfe6"/></linearGradient><linearGradient id="linear-gradient-28" x1="296.88" y1="292.61" x2="277.52" y2="236.45" xlink:href="#linear-gradient-8"/><linearGradient id="linear-gradient-29" x1="295.62" y1="183.94" x2="299.52" y2="221.34" xlink:href="#linear-gradient-5"/><linearGradient id="linear-gradient-30" x1="311.56" y1="176.19" x2="318.67" y2="244.26" xlink:href="#linear-gradient-5"/><linearGradient id="linear-gradient-31" x1="338.73" y1="187.6" x2="347.51" y2="271.72" xlink:href="#linear-gradient-5"/><linearGradient id="linear-gradient-32" x1="360" y1="200.14" x2="367.21" y2="269.26" xlink:href="#linear-gradient-5"/><linearGradient id="linear-gradient-33" x1="371.53" y1="194.47" x2="374.39" y2="221.86" xlink:href="#linear-gradient-5"/><linearGradient id="linear-gradient-34" x1="349.45" y1="311.39" x2="360.42" y2="311.39" gradientUnits="userSpaceOnUse"><stop offset="0" stop-color="#f5f3ff"/><stop offset="0.36" stop-color="#f2effd"/><stop offset="0.7" stop-color="#e9e4f5"/><stop offset="1" stop-color="#dbd3ea"/></linearGradient><linearGradient id="linear-gradient-35" x1="288.82" y1="103.02" x2="309.57" y2="103.02" xlink:href="#linear-gradient-8"/><linearGradient id="linear-gradient-36" x1="297.84" y1="103.93" x2="309.99" y2="103.93" xlink:href="#linear-gradient-8"/><linearGradient id="linear-gradient-37" x1="329.01" y1="166.02" x2="329.01" y2="90.21" xlink:href="#linear-gradient-8"/><linearGradient id="linear-gradient-38" x1="305.72" y1="104.53" x2="359" y2="104.53" xlink:href="#linear-gradient-8"/><linearGradient id="linear-gradient-39" x1="347.27" y1="142.64" x2="384.8" y2="142.64" xlink:href="#linear-gradient-8"/></defs><title>10-1</title><g class="cls-1"><g id="OBJECTS"><rect class="cls-2" width="600.28" height="450"/><polygon class="cls-3" points="353.5 209.2 353.13 208.55 456.51 148.56 410.55 123.45 503.96 69.45 504.33 70.11 412.08 123.43 458.04 148.54 353.5 209.2"/><polygon class="cls-3" points="349.06 347.22 239.54 284.35 240.1 284.03 321.48 237.25 321.67 237.35 366.9 263.1 366.53 263.75 321.49 238.11 241.04 284.35 349.05 346.35 402.49 314.46 402.87 315.1 349.06 347.22"/><polygon class="cls-3" points="346.98 420.87 346.61 420.22 392.67 393.43 340.01 362.26 340.39 361.62 394.15 393.44 346.98 420.87"/><rect class="cls-3" x="388.15" y="270.02" width="0.75" height="75.54" transform="translate(11.31 531.51) rotate(-60.6)"/><polygon class="cls-3" points="133.61 420.86 133.21 420.22 186.06 386.81 87.21 330.04 87.78 329.71 286.38 214.83 286.75 215.48 88.72 330.04 187.51 386.77 133.61 420.86"/><path class="cls-4" d="M69.33,330" transform="translate(81.69 36.36)"/><path class="cls-4" d="M186.06,263.57" transform="translate(81.69 36.36)"/><rect class="cls-3" x="60.54" y="296.42" width="134.32" height="0.75" transform="translate(-48.36 138.31) rotate(-29.63)"/><rect class="cls-3" x="375.14" y="112.04" width="0.75" height="105.11" transform="translate(128.4 445.89) rotate(-60.35)"/><polygon class="cls-3" points="267.14 227.28 113.16 139.22 186.51 96.19 81.69 37.01 82.06 36.36 188.02 96.18 114.66 139.21 267.51 226.63 267.14 227.28"/><polygon class="cls-3" points="285.16 164.41 177.82 101.94 178.19 101.29 285.16 163.54 412.59 92.16 412.78 92.27 438.49 107.52 438.11 108.17 412.58 93.03 285.16 164.41"/><polygon class="cls-3" points="329.6 211.33 329.53 211.32 329.57 210.63 329.54 210.33 329.58 210.61 329.62 210.33 329.66 210.33 329.6 210.8 329.67 211.32 329.6 211.33"/><path class="cls-3" d="M247.79,175a.86.86,0,0,1-.24,0l.18-1V174Z" transform="translate(81.69 36.36)"/><path class="cls-3" d="M267.6,169.36l-4.48-.44a.68.68,0,0,1-.25-.07h0l.25-.43.14-.48.16,0Z" transform="translate(81.69 36.36)"/><polygon class="cls-5" points="328.67 209.74 328.67 209.74 328.67 209.74 328.67 209.74 328.67 209.74"/><path class="cls-3" d="M247.39,174.89a1.11,1.11,0,0,1-.21-.08l.47-.89.13.05Z" transform="translate(81.69 36.36)"/><path class="cls-3" d="M263.34,168.94l-.08-.91.44.8A1,1,0,0,1,263.34,168.94Zm0-.5-.08-.49.05.08Z" transform="translate(81.69 36.36)"/><polygon class="cls-5" points="344.76 200.96 344.76 200.96 344.76 200.97 344.76 200.96"/><path class="cls-6" d="M302.73,310.8l-37.39-21.58a3.39,3.39,0,0,0-3.1,0l-56.71,33a1.08,1.08,0,0,0-.64.89h0v2.84a1.09,1.09,0,0,0,.65.91l37.38,21.58a3.42,3.42,0,0,0,3.1,0l56.71-33a1.09,1.09,0,0,0,.64-.9V311.7a.59.59,0,0,1,0,.14A1,1,0,0,0,302.73,310.8ZM207.5,322.56h0l.05-.1h0Zm1.44,1.79h0l11.68,6.75,22.53,13Zm-.91-.52Zm-.6-1.14h0a.28.28,0,0,0,0,.09h0a.31.31,0,0,1,0-.1Zm-2.24,1,.06.07Zm-.28-.49s0,.07,0,.11S204.92,323.25,204.91,323.21Zm.09.25.05.09Zm97.73-10.86a2.26,2.26,0,0,0,.28-.2A2.26,2.26,0,0,1,302.73,312.6Zm.52-.5a1.19,1.19,0,0,0,.08-.16A1.19,1.19,0,0,1,303.25,312.1Zm-.19.25.15-.17Z" transform="translate(81.69 36.36)"/><path class="cls-7" d="M224.65,274l-14.93-8.61a3.24,3.24,0,0,0-3,0L173.28,284.8a1,1,0,0,0-.61.86h0v2.18a1.07,1.07,0,0,0,.63.88l14.93,8.62a3.28,3.28,0,0,0,3,0l33.44-19.43a1.06,1.06,0,0,0,.62-.87v-2.18l0,.13A1,1,0,0,0,224.65,274Zm-35.2,20.56a3.6,3.6,0,0,0,1.6,0A3.6,3.6,0,0,1,189.45,294.54Zm33.29-18.28h0l-7.42,4.31Zm1-1.1h0a.51.51,0,0,0,0-.13h0a.68.68,0,0,1,0,.14Zm-.11-.37h0a.51.51,0,0,1,.07.15h0A.37.37,0,0,0,223.64,274.79Zm-.18-.24h0l.14.15h0Zm-.06-.07ZM173,286.26l.07.08Zm-.26-.47s0,.07,0,.11S172.7,285.83,172.69,285.79Zm.09.24a.2.2,0,0,0,.05.09A.2.2,0,0,1,172.78,286Zm.44.45.08,0,.89.52h0l-.89-.52Zm51.43-10.76a1.52,1.52,0,0,0,.28-.19A1.52,1.52,0,0,1,224.65,275.72Zm.51-.49a1,1,0,0,0,.08-.14A1,1,0,0,1,225.16,275.23Zm-.18.24.14-.15Z" transform="translate(81.69 36.36)"/><path class="cls-8" d="M176.12,270.37l-.78-70.43a1.21,1.21,0,0,0-.37-.88,1.24,1.24,0,0,0-1.46-.17L72.13,256.52l-.27.18.27-.18,101.38-57.64a1.24,1.24,0,0,1,1.12,0l-1.58-1.06-.13-.1a1.2,1.2,0,0,0-1.24,0L70.3,255.3a6,6,0,0,0-2.3,2.35l1.9,1.1.07-.1-.07.1h0a6,6,0,0,0-.61,1.45,6,6,0,0,1,.61-1.46l-1.9-1.1a6,6,0,0,0-.75,2.93l2.33,67.06a3.69,3.69,0,0,0,1.83,3.18h0ZM71.52,256.93a3.36,3.36,0,0,0-.29.24A3.36,3.36,0,0,1,71.52,256.93Zm-.57.48a4,4,0,0,0-.28.3A4,4,0,0,1,71,257.41Zm-.48.53-.27.36C70.29,258.17,70.37,258.06,70.47,257.94Z" transform="translate(81.69 36.36)"/><path class="cls-9" d="M251.23,161.77,191,196.8l-.24,84.36L219,297.51l60.29-35,.24-84.35ZM201.07,253h0l.1,0Zm15.56,6h0Zm.16-.06.08,0h0Z" transform="translate(81.69 36.36)"/><g class="cls-1"><path class="cls-10" d="M206.19,265.3c0-.73,0-1.46,0-2.19h0a3.3,3.3,0,0,1,3,0v2.19A3.27,3.27,0,0,0,206.19,265.3Z" transform="translate(81.69 36.36)"/><polygon class="cls-10" points="295.12 301.91 295.12 304.1 290.88 301.66 290.89 299.47 295.12 301.91"/><polygon class="cls-10" points="300.14 305.32 300.14 307.5 294.68 304.35 294.69 302.17 300.14 305.32"/><polygon class="cls-11" points="295.12 301.91 295.12 304.1 294.68 304.35 294.69 302.17 295.12 301.91"/><polygon class="cls-10" points="300.58 305.06 300.58 307.25 300.14 307.5 300.14 305.32 300.58 305.06"/><polygon class="cls-10" points="304.81 307.51 304.81 309.69 300.58 307.25 300.58 305.06 304.81 307.51"/><path class="cls-10" d="M223.75,274.21a1.08,1.08,0,0,0-.63-.88c0-.64,0-1.28,0-1.93v-.25a1,1,0,0,1,.62.87Z" transform="translate(81.69 36.36)"/><path class="cls-11" d="M223.75,272v2.19a1.07,1.07,0,0,1-.62.87v-2.19A1,1,0,0,0,223.75,272Z" transform="translate(81.69 36.36)"/><path class="cls-10" d="M174.8,283.54a1,1,0,0,0-.61.86v-2.19a1.06,1.06,0,0,1,.62-.86C174.8,282,174.8,282.88,174.8,283.54Z" transform="translate(81.69 36.36)"/><polygon class="cls-11" points="270.43 327.49 270.43 329.68 256.5 321.64 256.51 319.45 270.43 327.49"/><path class="cls-11" d="M174.19,284.4v-2.19a1.07,1.07,0,0,0,.63.88v2.19A1.06,1.06,0,0,1,174.19,284.4Z" transform="translate(81.69 36.36)"/><polygon class="cls-10" points="256.49 317.71 256.49 319.9 256.51 319.89 256.51 319.45 256.89 319.67 287.88 301.66 287.88 299.47 256.49 317.71"/><path class="cls-11" d="M191.74,291.13v2.19a3.3,3.3,0,0,1-3,0v-2.19A3.3,3.3,0,0,0,191.74,291.13Z" transform="translate(81.69 36.36)"/><path class="cls-12" d="M174.81,281.35a.92.92,0,0,0,0,1.74l13.92,8a3.3,3.3,0,0,0,3,0l.74-.43c1.08-7.44,3.54-15,4.34-22.14Z" transform="translate(81.69 36.36)"/><path class="cls-13" d="M205.39,263.58l-8.57,5c-.8,7.17-3.26,14.7-4.34,22.14l12.26-7.12C205.75,276.73,206.63,270,205.39,263.58Z" transform="translate(81.69 36.36)"/><path class="cls-14" d="M223.13,271.15l-4.24-2.45-.43.26L213,265.81l.43-.26-4.23-2.44a3.3,3.3,0,0,0-3,0l-.81.47c1.24,6.45.36,13.15-.65,20l18.4-10.69A.92.92,0,0,0,223.13,271.15Z" transform="translate(81.69 36.36)"/><polygon class="cls-11" points="304.82 309.25 304.82 311.44 273.43 329.68 273.43 327.49 304.82 309.25"/><path class="cls-15" d="M224.65,270.84a.92.92,0,0,1,0,1.74L191.22,292a3.28,3.28,0,0,1-3,0l-14.93-8.62c-.84-.48-.84-1.26,0-1.73l33.44-19.43a3.24,3.24,0,0,1,3,0Zm-32.91,20.29,31.4-18.24a.92.92,0,0,0,0-1.74l-4.24-2.45-.43.26L213,265.81l.43-.26-4.23-2.44a3.3,3.3,0,0,0-3,0l-31.39,18.24a.92.92,0,0,0,0,1.74l13.92,8a3.3,3.3,0,0,0,3,0" transform="translate(81.69 36.36)"/><path class="cls-16" d="M224.65,272.58,191.22,292a3.28,3.28,0,0,1-3,0l-14.93-8.62a1.07,1.07,0,0,1-.63-.87v2.18a1.07,1.07,0,0,0,.63.88l14.93,8.62a3.28,3.28,0,0,0,3,0l33.44-19.43a1.06,1.06,0,0,0,.62-.87v-2.18A1.07,1.07,0,0,1,224.65,272.58Z" transform="translate(81.69 36.36)"/></g><g class="cls-1"><path class="cls-17" d="M265.1,289.25a3.43,3.43,0,0,0-3.09,0v-2.84a3.39,3.39,0,0,1,3.1,0Z" transform="translate(81.69 36.36)"/><polygon class="cls-17" points="381.91 343.04 381.9 345.88 346.79 325.61 346.8 322.77 381.91 343.04"/><path class="cls-17" d="M300.86,310.43a1.11,1.11,0,0,0-.65-.91c0-.83,0-1.67,0-2.51v-.33a1.08,1.08,0,0,1,.64.9Z" transform="translate(81.69 36.36)"/><path class="cls-16" d="M303.37,307.44v2.84a1.09,1.09,0,0,1-.64.9v-2.85A1.07,1.07,0,0,0,303.37,307.44Z" transform="translate(81.69 36.36)"/><path class="cls-18" d="M300.86,307.58v2.85a1.11,1.11,0,0,1-.64.89v-2.85A1.08,1.08,0,0,0,300.86,307.58Z" transform="translate(81.69 36.36)"/><path class="cls-17" d="M207.39,321.52v-2.85a1.09,1.09,0,0,1,.64-.89v2.84A1.09,1.09,0,0,0,207.39,321.52Z" transform="translate(81.69 36.36)"/><polygon class="cls-18" points="324.84 376.21 324.83 379.05 289.72 358.78 289.72 355.93 324.84 376.21"/><polygon class="cls-16" points="324.61 377.65 324.6 380.5 287.21 358.91 287.22 356.07 324.61 377.65"/><polygon class="cls-17" points="289.72 354.14 289.71 356.98 289.72 356.98 289.72 355.93 290.62 356.45 343.69 325.61 343.7 322.77 289.72 354.14"/><path class="cls-16" d="M204.88,321.65v-2.84a1.09,1.09,0,0,0,.65.9v2.84A1.08,1.08,0,0,1,204.88,321.65Z" transform="translate(81.69 36.36)"/><polygon class="cls-18" points="381.92 344.83 381.91 347.68 327.93 379.05 327.94 376.2 381.92 344.83"/><path class="cls-19" d="M229.09,305.54l-7.57,4.4a54.51,54.51,0,0,0-.9,16.9l22.53,13a3.42,3.42,0,0,0,3.1,0l8.28-4.81C243.53,327.63,233.73,317.47,229.09,305.54Z" transform="translate(81.69 36.36)"/><path class="cls-20" d="M300.22,306.68l-2.12-1.22c-18.47,5.76-40,3.92-55.37-7.85l-13.64,7.93c4.64,11.93,14.44,22.09,25.44,29.49l45.7-26.56A1,1,0,0,0,300.22,306.68Z" transform="translate(81.69 36.36)"/><path class="cls-21" d="M298.1,305.46l-33-19a3.39,3.39,0,0,0-3.1,0l-19.28,11.2C258.09,309.38,279.63,311.22,298.1,305.46Z" transform="translate(81.69 36.36)"/><path class="cls-22" d="M221.52,309.94,208,317.78a1,1,0,0,0,0,1.79l12.58,7.27A54.51,54.51,0,0,1,221.52,309.94Z" transform="translate(81.69 36.36)"/><path class="cls-18" d="M246.25,339.84v2.85a3.45,3.45,0,0,1-3.1,0v-2.84A3.42,3.42,0,0,0,246.25,339.84Z" transform="translate(81.69 36.36)"/><polygon class="cls-16" points="384.42 344.69 384.41 347.54 327.69 380.5 327.7 377.65 384.42 344.69"/><path class="cls-16" d="M246,341.29v2.85a3.42,3.42,0,0,1-3.1,0v-2.85A3.37,3.37,0,0,0,246,341.29Z" transform="translate(81.69 36.36)"/><path class="cls-23" d="M302.73,306.54a1,1,0,0,1,0,1.79l-56.72,33a3.37,3.37,0,0,1-3.09,0l-37.38-21.58c-.87-.5-.87-1.29,0-1.79l56.71-33a3.42,3.42,0,0,1,3.1,0Zm-56.48,33.3,54-31.37a1,1,0,0,0,0-1.79l-35.11-20.27a3.39,3.39,0,0,0-3.1,0l-54,31.37a1,1,0,0,0,0,1.79l35.11,20.28a3.42,3.42,0,0,0,3.1,0" transform="translate(81.69 36.36)"/></g><path class="cls-17" d="M282.35,311.78h0a1.07,1.07,0,0,0-1.46-.37l-2.23,1.36,1.09,1.83,2.24-1.36A1.07,1.07,0,0,0,282.35,311.78Z" transform="translate(81.69 36.36)"/><path class="cls-17" d="M279.43,312l-24.08,14.39,1.38,2.32,24.09-14.39a1.35,1.35,0,0,0,.47-1.85h0A1.37,1.37,0,0,0,279.43,312Z" transform="translate(81.69 36.36)"/><polygon class="cls-17" points="337.03 362.7 334.58 365.74 338.42 365.02 337.03 362.7"/><g class="cls-24"><path class="cls-17" d="M282.35,314h0a1.06,1.06,0,0,0-1.46-.37l-2.23,1.36,1.09,1.82L282,315.4A1.06,1.06,0,0,0,282.35,314Z" transform="translate(81.69 36.36)"/><path class="cls-17" d="M279.43,314.12l-24.08,14.39,1.38,2.32,24.09-14.39a1.37,1.37,0,0,0,.47-1.86h0A1.35,1.35,0,0,0,279.43,314.12Z" transform="translate(81.69 36.36)"/><polygon class="cls-17" points="337.03 364.87 334.58 367.91 338.42 367.19 337.03 364.87"/></g><path class="cls-25" d="M195.18,159.81h0l.08.12h0Z" transform="translate(81.69 36.36)"/><path class="cls-26" d="M195.1,159.69h0l.08.12h0Z" transform="translate(81.69 36.36)"/><polygon class="cls-27" points="276.71 195.93 276.71 195.93 276.71 195.94 276.71 195.94 276.71 195.93"/><path class="cls-27" d="M195.05,159.61h0a.56.56,0,0,1,0,.08h0A.56.56,0,0,0,195.05,159.61Z" transform="translate(81.69 36.36)"/><path class="cls-28" d="M194.93,159.46h0l.09.11h0Z" transform="translate(81.69 36.36)"/><path class="cls-29" d="M194.83,159.34h0l.1.12h0Z" transform="translate(81.69 36.36)"/><path class="cls-30" d="M194.8,159.31h0l0,0h0Z" transform="translate(81.69 36.36)"/><path class="cls-30" d="M194.72,159.22h0l0,0h0Z" transform="translate(81.69 36.36)"/><path class="cls-31" d="M194.59,159.1h0l.13.12h0Z" transform="translate(81.69 36.36)"/><path class="cls-32" d="M194.42,159h0l.05,0h0Z" transform="translate(81.69 36.36)"/><path class="cls-32" d="M194.56,159.08h0l0,0h0Z" transform="translate(81.69 36.36)"/><path class="cls-33" d="M194.19,158.8h0l.23.16h0Z" transform="translate(81.69 36.36)"/><path class="cls-33" d="M193.61,158.6h0l.27.06h0Z" transform="translate(81.69 36.36)"/><path class="cls-33" d="M193.91,158.67h0l.28.13h0Z" transform="translate(81.69 36.36)"/><polygon class="cls-34" points="275.87 195.16 275.88 195.16 275.88 195.16 275.87 195.16"/><path class="cls-35" d="M193.88,158.66Z" transform="translate(81.69 36.36)"/><polygon class="cls-36" points="275.28 194.96 275.3 194.96 275.3 194.96 275.28 194.96"/><polygon class="cls-37" points="276.94 196.29 276.95 196.29 276.94 196.29 276.94 196.29"/><path class="cls-36" d="M195,159.58h0l0,0h0Z" transform="translate(81.69 36.36)"/><path class="cls-35" d="M194.78,159.28l0,0h0Z" transform="translate(81.69 36.36)"/><path class="cls-35" d="M194.75,159.26l0,0,0,0Z" transform="translate(81.69 36.36)"/><path class="cls-34" d="M194.47,159h0l.09.08h0Z" transform="translate(81.69 36.36)"/><polygon class="cls-34" points="275.88 195.16 275.88 195.16 275.88 195.16 275.88 195.16 275.88 195.16"/><path class="cls-38" d="M192.67,159.67c0-.72.38-1.12.93-1.07h0l.27.06h0l.28.13.23.16.05,0,.09.08,0,0,.13.12,0,0,0,0,0,0,0,0,.1.12.09.11h0l0,0a.56.56,0,0,1,0,.08l.08.12.08.12h0a3.15,3.15,0,0,1,.44,1.49c0,1-.68,1.36-1.52.87a3.35,3.35,0,0,1-1.4-1.87A2.84,2.84,0,0,1,192.67,159.67Z" transform="translate(81.69 36.36)"/><path class="cls-39" d="M201.36,168.23h0a1,1,0,0,1,0,.28h0A1,1,0,0,0,201.36,168.23Z" transform="translate(81.69 36.36)"/><path class="cls-40" d="M201.33,168.13h0l0,.06h0Z" transform="translate(81.69 36.36)"/><path class="cls-40" d="M201.36,168.2h0v0h0Z" transform="translate(81.69 36.36)"/><path class="cls-41" d="M201.3,168.05h0l0,.08h0Z" transform="translate(81.69 36.36)"/><path class="cls-42" d="M201.27,168h0l0,.07h0Z" transform="translate(81.69 36.36)"/><path class="cls-43" d="M201.26,168h0Z" transform="translate(81.69 36.36)"/><polygon class="cls-27" points="282.9 205.31 282.9 205.31 282.9 205.31 282.9 205.31 282.9 205.31"/><path class="cls-26" d="M201.23,168.93h0v0h0Z" transform="translate(81.69 36.36)"/><path class="cls-25" d="M201.26,168.9h0l0,0h0Z" transform="translate(81.69 36.36)"/><path class="cls-44" d="M201.29,168.86h0l0,0h0Z" transform="translate(81.69 36.36)"/><path class="cls-43" d="M201.31,168.84h0Z" transform="translate(81.69 36.36)"/><path class="cls-43" d="M201.07,169Z" transform="translate(81.69 36.36)"/><path class="cls-42" d="M201.36,168.76h0v0h0Z" transform="translate(81.69 36.36)"/><path class="cls-42" d="M201,169Z" transform="translate(81.69 36.36)"/><path class="cls-41" d="M201.37,168.71h0s0,0,0,0h0S201.37,168.72,201.37,168.71Z" transform="translate(81.69 36.36)"/><path class="cls-40" d="M201.39,168.62h0a.29.29,0,0,1,0,.09h0A.29.29,0,0,0,201.39,168.62Z" transform="translate(81.69 36.36)"/><path class="cls-39" d="M201.41,168.51h0v0h0Z" transform="translate(81.69 36.36)"/><path class="cls-39" d="M201.41,168.53h0s0,.06,0,.08h0S201.41,168.56,201.41,168.53Z" transform="translate(81.69 36.36)"/><path class="cls-45" d="M201.36,168.79h0l-.05.06h0S201.35,168.81,201.36,168.79Z" transform="translate(81.69 36.36)"/><path class="cls-45" d="M201.41,168.53Z" transform="translate(81.69 36.36)"/><polygon class="cls-46" points="283.04 204.55 283.04 204.55 283.05 204.56 283.05 204.56 283.04 204.55"/><path class="cls-47" d="M200.48,167.28a.58.58,0,0,1,.26.09,1,1,0,0,1,.26.21,1.33,1.33,0,0,1,.26.39h0l0,.07,0,.08,0,.06h0v0a1,1,0,0,1,0,.28v0s0,.06,0,.09a.29.29,0,0,1,0,.09s0,0,0,0v0s0,0-.05.05l0,0,0,0,0,0v0h0a.58.58,0,0,1-.14,0H201a.56.56,0,0,1-.2-.06l-.06,0a1.33,1.33,0,0,1-.48-.49,1.38,1.38,0,0,1-.19-.66C200.07,167.43,200.24,167.25,200.48,167.28Z" transform="translate(81.69 36.36)"/><polygon class="cls-27" points="282.92 201.51 282.92 201.51 282.91 201.51 282.91 201.51 282.92 201.51"/><path class="cls-26" d="M201.24,165.13h0v0h0Z" transform="translate(81.69 36.36)"/><path class="cls-25" d="M201.27,165.1h0l0,0h0Z" transform="translate(81.69 36.36)"/><path class="cls-44" d="M201.3,165.06h0l0,0h0Z" transform="translate(81.69 36.36)"/><path class="cls-43" d="M201.32,165.05Z" transform="translate(81.69 36.36)"/><path class="cls-42" d="M201.37,165h0v0h0Z" transform="translate(81.69 36.36)"/><path class="cls-41" d="M201.38,164.91h0a.07.07,0,0,1,0,.05h0A.07.07,0,0,0,201.38,164.91Z" transform="translate(81.69 36.36)"/><path class="cls-40" d="M201.4,164.83h0a.19.19,0,0,1,0,.08h0A.19.19,0,0,0,201.4,164.83Z" transform="translate(81.69 36.36)"/><polygon class="cls-39" points="283.11 201.08 283.11 201.08 283.11 201.09 283.11 201.09 283.11 201.08"/><path class="cls-39" d="M201.42,164.73s0,0,0,0,0,0,0,.07h0A.36.36,0,0,0,201.42,164.73Z" transform="translate(81.69 36.36)"/><path class="cls-39" d="M201.38,164.44h0a1.45,1.45,0,0,1,0,.28h0A1.45,1.45,0,0,0,201.38,164.44Z" transform="translate(81.69 36.36)"/><path class="cls-40" d="M201.37,164.4h0a.06.06,0,0,0,0,0h0A.06.06,0,0,1,201.37,164.4Z" transform="translate(81.69 36.36)"/><path class="cls-40" d="M201.34,164.34h0l0,0h0Z" transform="translate(81.69 36.36)"/><path class="cls-41" d="M201.31,164.26h0l0,.08h0Z" transform="translate(81.69 36.36)"/><path class="cls-42" d="M201.28,164.19h0l0,.07h0Z" transform="translate(81.69 36.36)"/><path class="cls-43" d="M201.25,164.13h0l0,.06h0Z" transform="translate(81.69 36.36)"/><path class="cls-44" d="M201.23,164.07h0s0,0,0,.06h0S201.24,164.09,201.23,164.07Z" transform="translate(81.69 36.36)"/><path class="cls-48" d="M201.32,165.05s0,0,.05-.06h0s0,0-.05.06Z" transform="translate(81.69 36.36)"/><path class="cls-48" d="M201.42,164.73h0s0,0,0,0,0,0,0,0Z" transform="translate(81.69 36.36)"/><polygon class="cls-49" points="283.05 200.75 283.05 200.75 283.06 200.76 283.06 200.76 283.05 200.75"/><polygon class="cls-50" points="282.91 200.43 282.91 200.43 282.91 200.43 282.91 200.43"/><path class="cls-51" d="M201.25,164.13l0,.06,0,.07,0,.08,0,0h0a.06.06,0,0,0,0,0,1.45,1.45,0,0,1,0,.28h0a.36.36,0,0,1,0,.1.19.19,0,0,1,0,.08.07.07,0,0,1,0,.05v0s0,0-.05.06h0l0,0,0,0v0h0a.46.46,0,0,1-.47,0,1.5,1.5,0,0,1-.67-1.16c0-.42.3-.6.67-.38a1.34,1.34,0,0,1,.47.5h0S201.24,164.11,201.25,164.13Z" transform="translate(81.69 36.36)"/><path class="cls-39" d="M217.22,173.3h0a2,2,0,0,1,.05.24h0A2,2,0,0,0,217.22,173.3Z" transform="translate(81.69 36.36)"/><path class="cls-39" d="M217.28,173.6h0a1.84,1.84,0,0,1,0,.33h0A1.84,1.84,0,0,0,217.28,173.6Z" transform="translate(81.69 36.36)"/><path class="cls-40" d="M217.2,173.21h0s0,.06,0,.09h0S217.21,173.24,217.2,173.21Z" transform="translate(81.69 36.36)"/><path class="cls-40" d="M217.14,173.07h0s0,.07,0,.11h0A.37.37,0,0,0,217.14,173.07Z" transform="translate(81.69 36.36)"/><path class="cls-41" d="M217.08,172.88h0c0,.06,0,.12.07.19h0Z" transform="translate(81.69 36.36)"/><path class="cls-42" d="M217.06,172.82h0a.14.14,0,0,0,0,.06h0A.14.14,0,0,1,217.06,172.82Z" transform="translate(81.69 36.36)"/><path class="cls-27" d="M216.89,174.9h0l0,0h0Z" transform="translate(81.69 36.36)"/><path class="cls-26" d="M217,174.84h0l-.08.06h0Z" transform="translate(81.69 36.36)"/><path class="cls-25" d="M217.06,174.75h0s0,0,0,0h0S217.06,174.76,217.06,174.75Z" transform="translate(81.69 36.36)"/><path class="cls-25" d="M216.74,175h0l-.1,0h0Z" transform="translate(81.69 36.36)"/><path class="cls-44" d="M217.11,174.68h0l-.05.07h0Z" transform="translate(81.69 36.36)"/><path class="cls-43" d="M216.49,175Z" transform="translate(81.69 36.36)"/><path class="cls-43" d="M217.14,174.64h0l0,0h0Z" transform="translate(81.69 36.36)"/><path class="cls-42" d="M216.44,175Z" transform="translate(81.69 36.36)"/><path class="cls-42" d="M217.21,174.49h0s0,0,0,.07h0S217.2,174.51,217.21,174.49Z" transform="translate(81.69 36.36)"/><path class="cls-41" d="M217.25,174.37v0a.38.38,0,0,1,0,.1h0A.56.56,0,0,0,217.25,174.37Z" transform="translate(81.69 36.36)"/><path class="cls-40" d="M217.29,174.17h0a.37.37,0,0,1,0,.11h0A.37.37,0,0,0,217.29,174.17Z" transform="translate(81.69 36.36)"/><path class="cls-39" d="M217.31,173.93h0Z" transform="translate(81.69 36.36)"/><path class="cls-39" d="M217.31,174a.22.22,0,0,1,0,.08.61.61,0,0,1,0,.14h0A1.5,1.5,0,0,0,217.31,174Z" transform="translate(81.69 36.36)"/><path class="cls-52" d="M217.05,174.77h0a.27.27,0,0,1-.08.07h0S217,174.8,217.05,174.77Z" transform="translate(81.69 36.36)"/><path class="cls-52" d="M217.19,174.56h0l-.06.09h0S217.18,174.59,217.19,174.56Z" transform="translate(81.69 36.36)"/><path class="cls-52" d="M217.28,174.28h0a.49.49,0,0,1,0,.11v0Z" transform="translate(81.69 36.36)"/><path class="cls-52" d="M217.31,173.94h0a.22.22,0,0,1,0,.08.22.22,0,0,0,0-.08Z" transform="translate(81.69 36.36)"/><path class="cls-53" d="M217.27,173.54h0a.13.13,0,0,1,0,.06h0A.13.13,0,0,0,217.27,173.54Z" transform="translate(81.69 36.36)"/><path class="cls-54" d="M217.19,173.18h0v0h0Z" transform="translate(81.69 36.36)"/><polygon class="cls-55" points="298.74 209.18 298.74 209.18 298.74 209.18 298.74 209.18"/><path class="cls-38" d="M214.27,172.19c0-1,.69-1.35,1.53-.87a3.1,3.1,0,0,1,1.07,1.14c.07.11.13.24.19.36h0a.14.14,0,0,0,0,.06l.06.19a.37.37,0,0,1,.05.11v0s0,.06,0,.09a2,2,0,0,1,.05.24.13.13,0,0,1,0,.06,1.84,1.84,0,0,1,0,.33h0v0a1.5,1.5,0,0,1,0,.22.37.37,0,0,1,0,.11l0,.09a.56.56,0,0,1,0,.12s0,0,0,.07,0,.05-.05.08l0,0-.05.07s0,0,0,0-.05,0-.08.07l-.08.06,0,0-.13.05-.1,0a.75.75,0,0,1-.15,0h-.11a1.53,1.53,0,0,1-.59-.2,3.21,3.21,0,0,1-1.08-1.14c-.06-.11-.13-.24-.18-.36A2.94,2.94,0,0,1,214.27,172.19Z" transform="translate(81.69 36.36)"/><polygon class="cls-56" points="298.51 178.76 298.51 178.76 298.52 175.51 298.51 178.76"/><polygon class="cls-57" points="275.04 157.07 275.04 157.07 298.53 170.63 298.53 170.63 275.04 157.07"/><path class="cls-58" d="M192.9,118.57l-.06,21.6,24.41,14.1.06-21.61Zm23.93,19L193.35,124v-3.25h0l23.48,13.56h0Zm-23.5-8.68v-3.25l23.49,13.56v3.25h0Z" transform="translate(81.69 36.36)"/><path class="cls-38" d="M192.63,118.09l-.07,22.24,25,14.41.06-22.24Zm.27.48,24.41,14.09-.06,21.61-24.41-14.1Z" transform="translate(81.69 36.36)"/><path class="cls-59" d="M190.71,197.1,219,213.45l.24-84.35L191,112.74Zm10.61-32h0l0,0,0,0v0h0a.46.46,0,0,1-.47,0,1.5,1.5,0,0,1-.67-1.16c0-.42.3-.6.67-.38a1.34,1.34,0,0,1,.47.5h0s0,0,0,.06l0,.06,0,.07,0,.08,0,0h0a.06.06,0,0,0,0,0,1.45,1.45,0,0,1,0,.28h0s0,0,0,0,0,0,0,.07a.19.19,0,0,1,0,.08.07.07,0,0,1,0,.05v0S201.33,165,201.32,165.05Zm13.21,8.27a2.94,2.94,0,0,1-.26-1.13c0-1,.69-1.35,1.53-.87a3.1,3.1,0,0,1,1.07,1.14c.07.11.13.24.19.36h0a.14.14,0,0,0,0,.06c0,.06,0,.12.07.19s0,.07,0,.11v0s0,.06,0,.09a2,2,0,0,1,.05.24.13.13,0,0,1,0,.06,1.84,1.84,0,0,1,0,.33h0a.22.22,0,0,1,0,.08.61.61,0,0,1,0,.14.37.37,0,0,1,0,.11.49.49,0,0,1,0,.11.38.38,0,0,1,0,.1s0,0,0,.07l-.06.09,0,0-.05.07s0,0,0,0a.27.27,0,0,1-.08.07l-.08.06,0,0a.35.35,0,0,1-.13.05l-.1,0a.75.75,0,0,1-.15,0h-.11a1.53,1.53,0,0,1-.59-.2,3.21,3.21,0,0,1-1.08-1.14C214.65,173.57,214.58,173.44,214.53,173.32Zm-14.46-5.57c0-.32.17-.5.41-.47a.58.58,0,0,1,.26.09,1,1,0,0,1,.26.21,1.33,1.33,0,0,1,.26.39h0l0,.07,0,.08,0,.06h0v0a1,1,0,0,1,0,.28v0h0s0,.06,0,.08a.29.29,0,0,1,0,.09s0,0,0,0v0l-.05.06h0l0,0,0,0v0h0a.58.58,0,0,1-.14,0H201a.56.56,0,0,1-.2-.06l-.06,0a1.33,1.33,0,0,1-.48-.49A1.38,1.38,0,0,1,200.07,167.75Zm-7.29-7.33a2.84,2.84,0,0,1-.11-.75c0-.72.38-1.12.93-1.07h0l.27.06h0l.28.13h0l.23.16.05,0,.09.08,0,0,.13.12,0,0,0,0,0,0,0,0,.1.12.09.11h0l0,0a.56.56,0,0,1,0,.08l.08.12.08.12h0a3.15,3.15,0,0,1,.44,1.49c0,1-.68,1.36-1.52.87A3.35,3.35,0,0,1,192.78,160.42Zm-.22-20.09.07-22.24,25,14.41-.06,22.24Z" transform="translate(81.69 36.36)"/><polygon class="cls-38" points="275.03 161.95 298.52 175.51 298.51 178.76 298.51 178.76 275.02 165.2 275.03 161.95"/><polygon class="cls-38" points="275.03 160.32 275.04 157.07 275.04 157.07 298.53 170.63 298.53 170.63 298.52 173.88 275.03 160.32"/><polygon class="cls-60" points="300.97 165.46 272.64 149.1 332.92 114.07 361.25 130.43 300.97 165.46"/><polygon class="cls-16" points="300.97 165.46 361.25 130.43 361.01 214.78 300.73 249.81 300.97 165.46"/><g class="cls-1"><path class="cls-16" d="M152,222.37v2.51c0,3.68-2.42,7.34-7.24,10.14-9.71,5.64-25.5,5.64-35.27,0-4.92-2.83-7.37-6.56-7.36-10.28v-2.51c0,3.72,2.44,7.45,7.36,10.28,9.77,5.64,25.56,5.64,35.27,0C149.57,229.71,152,226.05,152,222.37Z" transform="translate(81.69 36.36)"/><path class="cls-61" d="M144.63,212.09c9.77,5.64,9.82,14.78.12,20.42s-25.5,5.64-35.27,0-9.82-14.78-.11-20.42S134.86,206.45,144.63,212.09Z" transform="translate(81.69 36.36)"/></g><path class="cls-62" d="M174.63,118.88a1.18,1.18,0,0,0-1.12.05L72.13,176.56a6,6,0,0,0-2.23,2.24L68,177.7a6.06,6.06,0,0,1,2.3-2.36l101.38-57.63a1.2,1.2,0,0,1,1.24,0,.6.6,0,0,1,.13.09Z" transform="translate(81.69 36.36)"/><path class="cls-63" d="M69.9,178.8a6,6,0,0,0-.82,3l2.33,69h0a3.66,3.66,0,0,1-1.83-3.17l-2.33-67.07A6,6,0,0,1,68,177.7Z" transform="translate(81.69 36.36)"/><path class="cls-64" d="M69.08,181.85l2.33,69,104.71-60.45L175.34,120a1.19,1.19,0,0,0-.37-.88,1.5,1.5,0,0,0-.33-.23,1.23,1.23,0,0,0-1.13.05L72.13,176.56a6,6,0,0,0-2,1.88c-.08.12-.15.24-.22.36h0A6,6,0,0,0,69.08,181.85Z" transform="translate(81.69 36.36)"/><path class="cls-65" d="M74.51,188,76.65,240c0,1,.69,1.37,1.53.88l81.12-46.83c-18.56-2.78-37.52-8.26-55.29-9.59C95.11,183.9,83.4,184,74.51,188Z" transform="translate(81.69 36.36)"/><path class="cls-66" d="M170.89,185.62l-.78-56.91c0-1-.7-1.37-1.54-.89L75.85,180.46a3.41,3.41,0,0,0-1.53,2.66l.19,4.83c8.89-3.94,20.6-4,29.5-3.46,17.77,1.33,36.73,6.81,55.29,9.59l10-5.8A3.41,3.41,0,0,0,170.89,185.62Z" transform="translate(81.69 36.36)"/><polygon class="cls-67" points="266.1 256.88 197.21 296.66 197.21 298.77 221.33 312.7 290.24 272.92 290.24 270.81 266.1 256.88"/><polygon class="cls-16" points="197.21 296.54 197.21 294.43 290.24 268.58 290.24 270.69 221.33 310.48 197.21 296.54"/><polygon class="cls-68" points="197.21 294.43 266.1 254.65 290.24 268.58 221.33 308.37 197.21 294.43"/><polygon class="cls-69" points="203.66 295.98 207.28 293.89 210.9 295.98 207.28 298.07 203.66 295.98"/><polygon class="cls-63" points="203.66 295.98 203.66 296.6 207.28 298.69 207.28 298.07 203.66 295.98"/><polygon class="cls-16" points="210.9 295.98 210.9 296.6 207.28 298.69 207.28 298.07 210.9 295.98"/><polygon class="cls-69" points="208.59 293.11 212.21 291.02 215.83 293.11 212.21 295.2 208.59 293.11"/><polygon class="cls-63" points="208.59 293.11 208.59 293.73 212.21 295.82 212.21 295.2 208.59 293.11"/><polygon class="cls-16" points="215.83 293.11 215.83 293.73 212.21 295.82 212.21 295.2 215.83 293.11"/><polygon class="cls-69" points="213.32 290.4 216.95 288.31 220.57 290.4 216.95 292.49 213.32 290.4"/><polygon class="cls-63" points="213.32 290.4 213.32 291.02 216.95 293.11 216.95 292.49 213.32 290.4"/><polygon class="cls-16" points="220.57 290.4 220.57 291.02 216.95 293.11 216.95 292.49 220.57 290.4"/><polygon class="cls-69" points="218.15 287.62 221.78 285.52 225.4 287.62 221.77 289.7 218.15 287.62"/><polygon class="cls-63" points="218.15 287.62 218.15 288.24 221.77 290.32 221.77 289.7 218.15 287.62"/><polygon class="cls-16" points="225.4 287.62 225.4 288.24 221.77 290.32 221.77 289.7 225.4 287.62"/><polygon class="cls-69" points="222.91 284.85 226.53 282.76 230.15 284.85 226.53 286.94 222.91 284.85"/><polygon class="cls-63" points="222.91 284.85 222.91 285.47 226.53 287.56 226.53 286.94 222.91 284.85"/><polygon class="cls-16" points="230.15 284.85 230.15 285.47 226.53 287.56 226.53 286.94 230.15 284.85"/><polygon class="cls-69" points="227.72 282.08 231.34 279.99 234.96 282.08 231.34 284.17 227.72 282.08"/><polygon class="cls-63" points="227.72 282.08 227.72 282.7 231.34 284.79 231.34 284.17 227.72 282.08"/><polygon class="cls-16" points="234.96 282.08 234.96 282.7 231.34 284.79 231.34 284.17 234.96 282.08"/><polygon class="cls-69" points="232.52 279.32 236.14 277.23 239.76 279.32 236.14 281.41 232.52 279.32"/><polygon class="cls-63" points="232.52 279.32 232.52 279.94 236.14 282.03 236.14 281.41 232.52 279.32"/><polygon class="cls-16" points="239.76 279.32 239.76 279.94 236.14 282.03 236.14 281.41 239.76 279.32"/><polygon class="cls-69" points="237.25 276.6 240.87 274.51 244.49 276.6 240.87 278.69 237.25 276.6"/><polygon class="cls-63" points="237.25 276.6 237.25 277.22 240.87 279.31 240.87 278.69 237.25 276.6"/><polygon class="cls-16" points="244.49 276.6 244.49 277.22 240.87 279.31 240.87 278.69 244.49 276.6"/><polygon class="cls-69" points="242.04 273.83 245.67 271.74 249.29 273.83 245.67 275.92 242.04 273.83"/><polygon class="cls-63" points="242.04 273.83 242.04 274.46 245.67 276.54 245.67 275.92 242.04 273.83"/><polygon class="cls-16" points="249.29 273.83 249.29 274.46 245.67 276.54 245.67 275.92 249.29 273.83"/><polygon class="cls-69" points="246.89 271.02 250.51 268.93 254.13 271.02 250.51 273.11 246.89 271.02"/><polygon class="cls-63" points="246.89 271.02 246.89 271.64 250.51 273.73 250.51 273.11 246.89 271.02"/><polygon class="cls-16" points="254.13 271.02 254.13 271.64 250.51 273.73 250.51 273.11 254.13 271.02"/><polygon class="cls-69" points="251.75 268.19 255.38 266.1 259 268.19 255.38 270.28 251.75 268.19"/><polygon class="cls-63" points="251.75 268.19 251.75 268.81 255.38 270.9 255.38 270.28 251.75 268.19"/><polygon class="cls-16" points="259 268.19 259 268.81 255.38 270.9 255.38 270.28 259 268.19"/><polygon class="cls-69" points="256.74 265.34 260.36 263.25 263.98 265.34 260.36 267.43 256.74 265.34"/><polygon class="cls-63" points="256.74 265.34 256.74 265.96 260.36 268.05 260.36 267.43 256.74 265.34"/><polygon class="cls-16" points="263.98 265.34 263.98 265.96 260.36 268.05 260.36 267.43 263.98 265.34"/><polygon class="cls-63" points="261.6 262.52 261.6 263.15 265.23 265.24 265.23 264.61 261.6 262.52"/><polygon class="cls-69" points="261.6 262.52 269.29 258.08 272.91 260.17 265.23 264.61 261.6 262.52"/><polygon class="cls-16" points="272.91 260.17 272.91 260.79 265.23 265.24 265.23 264.61 272.91 260.17"/><polygon class="cls-69" points="208.3 298.65 215.8 294.31 219.42 296.41 211.93 300.74 208.3 298.65"/><polygon class="cls-63" points="208.3 298.65 208.3 299.27 211.93 301.36 211.93 300.74 208.3 298.65"/><polygon class="cls-16" points="219.42 296.41 219.42 297.03 211.93 301.36 211.93 300.74 219.42 296.41"/><polygon class="cls-69" points="217.12 293.55 220.75 291.46 224.37 293.55 220.74 295.64 217.12 293.55"/><polygon class="cls-63" points="217.12 293.55 217.12 294.17 220.74 296.26 220.74 295.64 217.12 293.55"/><polygon class="cls-16" points="224.37 293.55 224.37 294.17 220.74 296.26 220.74 295.64 224.37 293.55"/><polygon class="cls-69" points="222.02 290.73 225.64 288.63 229.26 290.73 225.64 292.81 222.02 290.73"/><polygon class="cls-63" points="222.02 290.73 222.02 291.35 225.64 293.44 225.64 292.81 222.02 290.73"/><polygon class="cls-16" points="229.26 290.73 229.26 291.35 225.64 293.44 225.64 292.81 229.26 290.73"/><polygon class="cls-69" points="226.85 287.92 230.48 285.82 234.1 287.92 230.47 290 226.85 287.92"/><polygon class="cls-63" points="226.85 287.92 226.85 288.54 230.47 290.62 230.47 290 226.85 287.92"/><polygon class="cls-16" points="234.1 287.92 234.1 288.54 230.47 290.62 230.47 290 234.1 287.92"/><polygon class="cls-69" points="231.78 285.09 235.41 283 239.03 285.09 235.41 287.18 231.78 285.09"/><polygon class="cls-63" points="231.78 285.09 231.78 285.71 235.41 287.8 235.41 287.18 231.78 285.09"/><polygon class="cls-16" points="239.03 285.09 239.03 285.71 235.41 287.8 235.41 287.18 239.03 285.09"/><polygon class="cls-69" points="236.67 282.26 240.29 280.17 243.91 282.26 240.29 284.35 236.67 282.26"/><polygon class="cls-63" points="236.67 282.26 236.67 282.88 240.29 284.97 240.29 284.35 236.67 282.26"/><polygon class="cls-16" points="243.91 282.26 243.91 282.88 240.29 284.97 240.29 284.35 243.91 282.26"/><polygon class="cls-69" points="241.41 279.55 245.03 277.46 248.65 279.55 245.03 281.64 241.41 279.55"/><polygon class="cls-63" points="241.41 279.55 241.41 280.17 245.03 282.26 245.03 281.64 241.41 279.55"/><polygon class="cls-16" points="248.65 279.55 248.65 280.17 245.03 282.26 245.03 281.64 248.65 279.55"/><polygon class="cls-69" points="246.19 276.77 249.82 274.68 253.44 276.77 249.82 278.86 246.19 276.77"/><polygon class="cls-63" points="246.19 276.77 246.19 277.39 249.82 279.48 249.82 278.86 246.19 276.77"/><polygon class="cls-16" points="253.44 276.77 253.44 277.39 249.82 279.48 249.82 278.86 253.44 276.77"/><polygon class="cls-69" points="250.99 273.99 254.62 271.89 258.24 273.99 254.62 276.07 250.99 273.99"/><polygon class="cls-63" points="250.99 273.99 250.99 274.61 254.62 276.7 254.62 276.07 250.99 273.99"/><polygon class="cls-16" points="258.24 273.99 258.24 274.61 254.62 276.7 254.62 276.07 258.24 273.99"/><polygon class="cls-69" points="255.78 271.22 259.4 269.13 263.02 271.22 259.4 273.31 255.78 271.22"/><polygon class="cls-63" points="255.78 271.22 255.78 271.84 259.4 273.93 259.4 273.31 255.78 271.22"/><polygon class="cls-16" points="263.02 271.22 263.02 271.84 259.4 273.93 259.4 273.31 263.02 271.22"/><polygon class="cls-69" points="260.5 268.51 264.13 266.42 267.75 268.51 264.13 270.6 260.5 268.51"/><polygon class="cls-63" points="260.5 268.51 260.5 269.13 264.13 271.22 264.13 270.6 260.5 268.51"/><polygon class="cls-16" points="267.75 268.51 267.75 269.13 264.13 271.22 264.13 270.6 267.75 268.51"/><polygon class="cls-69" points="265.38 265.69 269 263.6 272.62 265.69 269 267.78 265.38 265.69"/><polygon class="cls-63" points="265.38 265.69 265.38 266.32 269 268.4 269 267.78 265.38 265.69"/><polygon class="cls-16" points="272.62 265.69 272.62 266.32 269 268.4 269 267.78 272.62 265.69"/><polygon class="cls-69" points="270.31 262.84 273.94 260.75 277.56 262.84 273.94 264.93 270.31 262.84"/><polygon class="cls-63" points="270.31 262.84 270.31 263.46 273.94 265.55 273.94 264.93 270.31 262.84"/><polygon class="cls-16" points="277.56 262.84 277.56 263.46 273.94 265.55 273.94 264.93 277.56 262.84"/><polygon class="cls-69" points="213.05 301.39 221.44 296.55 225.06 298.64 216.67 303.48 213.05 301.39"/><polygon class="cls-63" points="213.05 301.39 213.05 302.01 216.67 304.1 216.67 303.48 213.05 301.39"/><polygon class="cls-16" points="225.06 298.64 225.06 299.26 216.67 304.1 216.67 303.48 225.06 298.64"/><polygon class="cls-69" points="222.59 295.88 226.21 293.79 229.83 295.88 226.21 297.97 222.59 295.88"/><polygon class="cls-63" points="222.59 295.88 222.59 296.5 226.21 298.59 226.21 297.97 222.59 295.88"/><polygon class="cls-16" points="229.83 295.88 229.83 296.5 226.21 298.59 226.21 297.97 229.83 295.88"/><polygon class="cls-69" points="227.36 293.13 230.98 291.04 234.6 293.13 230.98 295.22 227.36 293.13"/><polygon class="cls-63" points="227.36 293.13 227.36 293.75 230.98 295.84 230.98 295.22 227.36 293.13"/><polygon class="cls-16" points="234.6 293.13 234.6 293.75 230.98 295.84 230.98 295.22 234.6 293.13"/><polygon class="cls-69" points="232.13 290.38 235.75 288.28 239.37 290.38 235.75 292.46 232.13 290.38"/><polygon class="cls-63" points="232.13 290.38 232.13 291 235.75 293.08 235.75 292.46 232.13 290.38"/><polygon class="cls-16" points="239.37 290.38 239.37 291 235.75 293.08 235.75 292.46 239.37 290.38"/><polygon class="cls-69" points="236.9 287.62 240.52 285.53 244.14 287.62 240.52 289.71 236.9 287.62"/><polygon class="cls-63" points="236.9 287.62 236.9 288.24 240.52 290.33 240.52 289.71 236.9 287.62"/><polygon class="cls-16" points="244.14 287.62 244.14 288.24 240.52 290.33 240.52 289.71 244.14 287.62"/><polygon class="cls-69" points="241.67 284.87 245.29 282.77 248.91 284.87 245.29 286.95 241.67 284.87"/><polygon class="cls-63" points="241.67 284.87 241.67 285.49 245.29 287.58 245.29 286.95 241.67 284.87"/><polygon class="cls-16" points="248.91 284.87 248.91 285.49 245.29 287.58 245.29 286.95 248.91 284.87"/><polygon class="cls-69" points="246.44 282.11 250.06 280.02 253.68 282.11 250.06 284.2 246.44 282.11"/><polygon class="cls-63" points="246.44 282.11 246.44 282.73 250.06 284.82 250.06 284.2 246.44 282.11"/><polygon class="cls-16" points="253.68 282.11 253.68 282.73 250.06 284.82 250.06 284.2 253.68 282.11"/><polygon class="cls-69" points="251.21 279.36 254.83 277.26 258.45 279.36 254.83 281.45 251.21 279.36"/><polygon class="cls-63" points="251.21 279.36 251.21 279.98 254.83 282.07 254.83 281.45 251.21 279.36"/><polygon class="cls-16" points="258.45 279.36 258.45 279.98 254.83 282.07 254.83 281.45 258.45 279.36"/><polygon class="cls-69" points="255.98 276.6 259.6 274.51 263.22 276.6 259.6 278.69 255.98 276.6"/><polygon class="cls-63" points="255.98 276.6 255.98 277.22 259.6 279.31 259.6 278.69 255.98 276.6"/><polygon class="cls-16" points="263.22 276.6 263.22 277.22 259.6 279.31 259.6 278.69 263.22 276.6"/><polygon class="cls-69" points="260.75 273.85 264.37 271.76 267.99 273.85 264.37 275.94 260.75 273.85"/><polygon class="cls-63" points="260.75 273.85 260.75 274.47 264.37 276.56 264.37 275.94 260.75 273.85"/><polygon class="cls-16" points="267.99 273.85 267.99 274.47 264.37 276.56 264.37 275.94 267.99 273.85"/><polygon class="cls-69" points="265.52 271.09 269.14 269 272.76 271.09 269.14 273.18 265.52 271.09"/><polygon class="cls-63" points="265.52 271.09 265.52 271.72 269.14 273.8 269.14 273.18 265.52 271.09"/><polygon class="cls-16" points="272.76 271.09 272.76 271.72 269.14 273.8 269.14 273.18 272.76 271.09"/><polygon class="cls-69" points="270.29 268.34 278.68 263.49 282.3 265.59 273.91 270.43 270.29 268.34"/><polygon class="cls-16" points="282.3 265.59 282.3 266.21 273.91 271.05 273.91 270.43 282.3 265.59"/><polygon class="cls-63" points="270.29 268.34 270.29 268.96 273.91 271.05 273.91 270.43 270.29 268.34"/><polygon class="cls-69" points="200.47 294.12 204.09 292.03 206.31 293.32 202.69 295.41 200.47 294.12"/><polygon class="cls-63" points="200.47 294.12 200.47 294.74 202.69 296.03 202.69 295.41 200.47 294.12"/><polygon class="cls-16" points="206.31 293.32 206.31 293.94 202.69 296.03 202.69 295.41 206.31 293.32"/><polygon class="cls-69" points="205.24 291.37 208.86 289.28 211.08 290.56 207.46 292.65 205.24 291.37"/><polygon class="cls-63" points="205.24 291.37 205.24 291.99 207.46 293.27 207.46 292.65 205.24 291.37"/><polygon class="cls-16" points="211.08 290.56 211.08 291.19 207.46 293.27 207.46 292.65 211.08 290.56"/><polygon class="cls-69" points="210 288.61 213.63 286.52 215.85 287.81 212.22 289.9 210 288.61"/><polygon class="cls-63" points="210 288.61 210 289.24 212.22 290.52 212.22 289.9 210 288.61"/><polygon class="cls-16" points="215.85 287.81 215.85 288.43 212.22 290.52 212.22 289.9 215.85 287.81"/><polygon class="cls-69" points="214.78 285.86 218.4 283.77 220.62 285.06 217 287.14 214.78 285.86"/><polygon class="cls-63" points="214.78 285.86 214.78 286.48 217 287.76 217 287.14 214.78 285.86"/><polygon class="cls-16" points="220.62 285.06 220.62 285.68 217 287.76 217 287.14 220.62 285.06"/><polygon class="cls-69" points="219.54 283.11 223.17 281.01 225.39 282.3 221.76 284.39 219.54 283.11"/><polygon class="cls-63" points="219.54 283.11 219.54 283.73 221.76 285.01 221.76 284.39 219.54 283.11"/><polygon class="cls-16" points="225.39 282.3 225.39 282.92 221.76 285.01 221.76 284.39 225.39 282.3"/><polygon class="cls-69" points="224.31 280.35 227.94 278.26 230.16 279.55 226.53 281.63 224.31 280.35"/><polygon class="cls-63" points="224.31 280.35 224.31 280.97 226.53 282.26 226.53 281.63 224.31 280.35"/><polygon class="cls-16" points="230.16 279.55 230.16 280.17 226.53 282.26 226.53 281.63 230.16 279.55"/><polygon class="cls-69" points="229.08 277.6 232.71 275.5 234.93 276.79 231.3 278.88 229.08 277.6"/><polygon class="cls-63" points="229.08 277.6 229.08 278.22 231.3 279.5 231.3 278.88 229.08 277.6"/><polygon class="cls-16" points="234.93 276.79 234.93 277.41 231.3 279.5 231.3 278.88 234.93 276.79"/><polygon class="cls-69" points="233.85 274.84 237.48 272.75 239.69 274.04 236.07 276.13 233.85 274.84"/><polygon class="cls-63" points="233.85 274.84 233.85 275.46 236.07 276.75 236.07 276.13 233.85 274.84"/><polygon class="cls-16" points="239.69 274.04 239.69 274.66 236.07 276.75 236.07 276.13 239.69 274.04"/><polygon class="cls-69" points="238.62 272.09 242.25 270 244.46 271.28 240.84 273.37 238.62 272.09"/><polygon class="cls-63" points="238.62 272.09 238.62 272.71 240.84 273.99 240.84 273.37 238.62 272.09"/><polygon class="cls-16" points="244.46 271.28 244.46 271.9 240.84 273.99 240.84 273.37 244.46 271.28"/><polygon class="cls-69" points="243.39 269.33 247.01 267.24 249.23 268.53 245.61 270.62 243.39 269.33"/><polygon class="cls-63" points="243.39 269.33 243.39 269.95 245.61 271.24 245.61 270.62 243.39 269.33"/><polygon class="cls-16" points="249.23 268.53 249.23 269.15 245.61 271.24 245.61 270.62 249.23 268.53"/><polygon class="cls-69" points="248.16 266.58 251.78 264.49 254 265.77 250.38 267.86 248.16 266.58"/><polygon class="cls-63" points="248.16 266.58 248.16 267.2 250.38 268.49 250.38 267.86 248.16 266.58"/><polygon class="cls-16" points="254 265.77 254 266.4 250.38 268.49 250.38 267.86 254 265.77"/><polygon class="cls-69" points="252.93 263.82 256.55 261.73 258.77 263.02 255.15 265.11 252.93 263.82"/><polygon class="cls-63" points="252.93 263.82 252.93 264.45 255.15 265.73 255.15 265.11 252.93 263.82"/><polygon class="cls-16" points="258.77 263.02 258.77 263.64 255.15 265.73 255.15 265.11 258.77 263.02"/><polygon class="cls-69" points="257.7 261.07 261.32 258.98 263.54 260.27 259.92 262.36 257.7 261.07"/><polygon class="cls-63" points="257.7 261.07 257.7 261.69 259.92 262.98 259.92 262.36 257.7 261.07"/><polygon class="cls-16" points="263.54 260.27 263.54 260.89 259.92 262.98 259.92 262.36 263.54 260.27"/><polygon class="cls-69" points="262.47 258.32 266.09 256.22 268.31 257.51 264.69 259.6 262.47 258.32"/><polygon class="cls-63" points="262.47 258.32 262.47 258.94 264.69 260.22 264.69 259.6 262.47 258.32"/><polygon class="cls-16" points="268.31 257.51 268.31 258.13 264.69 260.22 264.69 259.6 268.31 257.51"/><polygon class="cls-69" points="217.72 304.08 221.34 301.99 224.96 304.08 221.34 306.17 217.72 304.08"/><polygon class="cls-63" points="217.72 304.08 217.72 304.7 221.34 306.79 221.34 306.17 217.72 304.08"/><polygon class="cls-16" points="224.96 304.08 224.96 304.7 221.34 306.79 221.34 306.17 224.96 304.08"/><polygon class="cls-69" points="222.49 301.33 226.11 299.23 229.73 301.33 226.11 303.41 222.49 301.33"/><polygon class="cls-63" points="222.49 301.33 222.49 301.95 226.11 304.04 226.11 303.41 222.49 301.33"/><polygon class="cls-16" points="229.73 301.33 229.73 301.95 226.11 304.04 226.11 303.41 229.73 301.33"/><polygon class="cls-69" points="227.26 298.57 230.88 296.48 234.5 298.57 230.88 300.66 227.26 298.57"/><polygon class="cls-63" points="227.26 298.57 227.26 299.19 230.88 301.28 230.88 300.66 227.26 298.57"/><polygon class="cls-16" points="234.5 298.57 234.5 299.19 230.88 301.28 230.88 300.66 234.5 298.57"/><polygon class="cls-69" points="232.03 295.82 235.65 293.73 239.27 295.82 235.65 297.9 232.03 295.82"/><polygon class="cls-63" points="232.03 295.82 232.03 296.44 235.65 298.53 235.65 297.9 232.03 295.82"/><polygon class="cls-16" points="239.27 295.82 239.27 296.44 235.65 298.53 235.65 297.9 239.27 295.82"/><polygon class="cls-69" points="236.8 293.06 259.5 279.95 263.12 282.05 240.42 295.15 236.8 293.06"/><polygon class="cls-63" points="236.8 293.06 236.8 293.68 240.42 295.77 240.42 295.15 236.8 293.06"/><polygon class="cls-16" points="263.12 282.05 263.12 282.67 240.42 295.77 240.42 295.15 263.12 282.05"/><polygon class="cls-69" points="260.65 279.29 264.27 277.2 267.89 279.29 264.27 281.38 260.65 279.29"/><polygon class="cls-63" points="260.65 279.29 260.65 279.91 264.27 282 264.27 281.38 260.65 279.29"/><polygon class="cls-16" points="267.89 279.29 267.89 279.91 264.27 282 264.27 281.38 267.89 279.29"/><polygon class="cls-69" points="265.42 276.54 269.04 274.44 272.66 276.54 269.04 278.62 265.42 276.54"/><polygon class="cls-63" points="265.42 276.54 265.42 277.16 269.04 279.25 269.04 278.62 265.42 276.54"/><polygon class="cls-16" points="272.66 276.54 272.66 277.16 269.04 279.25 269.04 278.62 272.66 276.54"/><polygon class="cls-69" points="271.53 274.55 275.15 272.46 277.43 273.78 273.81 275.87 271.53 274.55"/><polygon class="cls-63" points="271.53 274.55 271.53 275.18 273.81 276.49 273.81 275.87 271.53 274.55"/><polygon class="cls-16" points="277.43 273.78 277.43 274.4 273.81 276.49 273.81 275.87 277.43 273.78"/><polygon class="cls-69" points="274.96 271.03 278.58 268.94 282.2 271.03 278.58 273.12 274.96 271.03"/><polygon class="cls-63" points="274.96 271.03 274.96 271.65 278.58 273.74 278.58 273.12 274.96 271.03"/><polygon class="cls-16" points="282.2 271.03 282.2 271.65 278.58 273.74 278.58 273.12 282.2 271.03"/><polygon class="cls-69" points="281.1 269.09 284.73 267 286.97 268.27 283.35 270.36 281.1 269.09"/><polygon class="cls-63" points="281.1 269.09 281.1 269.71 283.35 270.98 283.35 270.36 281.1 269.09"/><polygon class="cls-16" points="286.97 268.27 286.97 268.89 283.35 270.98 283.35 270.36 286.97 268.27"/><path class="cls-70" d="M284,211.38l-61,35.21a1.21,1.21,0,0,0-.61,1.06v2.44l.09.45h0a1.23,1.23,0,0,0,.52.61l99.84,57.63a6.1,6.1,0,0,0,6.11,0l57.65-33.28a4.24,4.24,0,0,0,2.12-3.67Z" transform="translate(81.69 36.36)"/><path class="cls-71" d="M392.09,268.32l-1.9,1.1a6.44,6.44,0,0,1,.61,1.46,6.19,6.19,0,0,0-.61-1.45h0l-.06-.1.07.1,1.9-1.1a6,6,0,0,0-2.3-2.35L288.41,208.33a1.22,1.22,0,0,0-1.25,0l-.13.1-1.58,1.06a1.26,1.26,0,0,1,1.13.05L388,267.19l.27.18a2.68,2.68,0,0,0-.28-.18L286.57,209.56a1.18,1.18,0,0,0-1.12-.05,1.06,1.06,0,0,0-.33.22,1.21,1.21,0,0,0-.38.88L284,281,388.67,341.5h0a3.67,3.67,0,0,0,1.83-3.18l2.34-67.06A6.14,6.14,0,0,0,392.09,268.32Zm-2.2.65q-.13-.2-.27-.36Q389.76,268.78,389.89,269Zm-.47-.59a4.11,4.11,0,0,0-.29-.3A4.11,4.11,0,0,1,389.42,268.38Zm-.56-.54c-.1-.08-.19-.17-.29-.24C388.67,267.67,388.76,267.76,388.86,267.84Z" transform="translate(81.69 36.36)"/><path class="cls-62" d="M285.45,136.84a1.26,1.26,0,0,1,1.13,0L388,194.53a6,6,0,0,1,2.23,2.23l1.9-1.1a6,6,0,0,0-2.3-2.35L288.41,135.67a1.22,1.22,0,0,0-1.25,0l-.13.1Z" transform="translate(81.69 36.36)"/><path class="cls-63" d="M390.19,196.76a6,6,0,0,1,.82,3.05l-2.34,69h0a3.67,3.67,0,0,0,1.83-3.18l2.34-67.06a6.14,6.14,0,0,0-.75-2.93Z" transform="translate(81.69 36.36)"/><path class="cls-72" d="M391,199.82l-2.34,69L284,208.38l.78-70.43a1.21,1.21,0,0,1,.38-.88,1.06,1.06,0,0,1,.33-.22,1.18,1.18,0,0,1,1.12.05L388,194.53a5.86,5.86,0,0,1,2,1.88,3.37,3.37,0,0,1,.22.35,0,0,0,0,1,0,0A6,6,0,0,1,391,199.82Z" transform="translate(81.69 36.36)"/><path class="cls-16" d="M222.35,244.65v2.44l.09.45h0a1.23,1.23,0,0,0,.52.61l99.84,57.63a6.12,6.12,0,0,0,3.05.82v-2.44a6.12,6.12,0,0,1-3.05-.82L223,245.71A1.21,1.21,0,0,1,222.35,244.65Z" transform="translate(81.69 36.36)"/><path class="cls-16" d="M325.85,304.16v2.44a6.11,6.11,0,0,0,3.06-.82l57.65-33.28a4.24,4.24,0,0,0,2.12-3.67h0l-59.77,34.51A6.11,6.11,0,0,1,325.85,304.16Z" transform="translate(81.69 36.36)"/><path class="cls-73" d="M222.35,244.65a1.21,1.21,0,0,0,.61,1.06l61,35.21,38.83,22.42a6.1,6.1,0,0,0,6.11,0l59.77-34.51L284,208.38l-61,35.21A1.21,1.21,0,0,0,222.35,244.65Z" transform="translate(81.69 36.36)"/><polygon class="cls-74" points="460.93 303.69 368.27 250.18 335.81 268.92 428.48 322.42 460.93 303.69"/><polygon class="cls-75" points="457.27 303.69 368.27 252.3 339.48 268.92 428.48 320.31 457.27 303.69"/><path class="cls-16" d="M264.29,263.09a1.19,1.19,0,0,1,.58-.75l16.06-9.25a1.21,1.21,0,0,1,1.22,0l29,16.72a1.19,1.19,0,0,1,.58.75,1.22,1.22,0,0,0-.58-1.36l-29-16.72a1.21,1.21,0,0,0-1.22,0l-16.06,9.25A1.21,1.21,0,0,0,264.29,263.09Z" transform="translate(81.69 36.36)"/><path class="cls-76" d="M264.29,263.09a1.19,1.19,0,0,0,.58.75l29,16.72a1.21,1.21,0,0,0,1.22,0l16.06-9.25a.77.77,0,0,0,0-1.5l-29-16.72a1.21,1.21,0,0,0-1.22,0l-16.06,9.25A1.19,1.19,0,0,0,264.29,263.09Z" transform="translate(81.69 36.36)"/><path class="cls-77" d="M289.2,203.58a3.39,3.39,0,0,0,1.54,2.66l16.7,9.64c-2.28-17.71-7.41-35.06-17.73-49.33Z" transform="translate(81.69 36.36)"/><path class="cls-78" d="M300.8,151.06l-9.28-5.27c-.85-.49-1.54-.09-1.54.89l-.27,19.87c10.32,14.27,15.45,31.62,17.73,49.33l31,17.89c-9.82-22.82-15.66-48-28.41-70.28A51.62,51.62,0,0,0,300.8,151.06Z" transform="translate(81.69 36.36)"/><path class="cls-79" d="M333.51,169.63,300.8,151.06A51.62,51.62,0,0,1,310,163.49c12.75,22.31,18.59,47.46,28.41,70.28l41.77,24.12c-.74-.86-1.46-1.68-2.18-2.4C356.5,230.67,350.72,197,333.51,169.63Z" transform="translate(81.69 36.36)"/><path class="cls-80" d="M356.75,182.82l-23.24-13.19c17.21,27.32,23,61,44.5,85.86.72.72,1.44,1.54,2.18,2.4l1.71,1c.85.49,1.54.09,1.54-.89l1.67-40.64C373.69,208.28,364.41,194.63,356.75,182.82Z" transform="translate(81.69 36.36)"/><path class="cls-81" d="M384.24,198.43l-27.49-15.61c7.66,11.81,16.94,25.46,28.36,34.53l.66-16.27A3.39,3.39,0,0,0,384.24,198.43Z" transform="translate(81.69 36.36)"/><polygon class="cls-69" points="452.26 305.76 447.38 302.95 442.51 305.76 447.38 308.57 452.26 305.76"/><polygon class="cls-63" points="452.26 305.76 452.26 306.6 447.38 309.41 447.38 308.57 452.26 305.76"/><polygon class="cls-16" points="442.51 305.76 442.51 306.6 447.38 309.41 447.38 308.57 442.51 305.76"/><polygon class="cls-69" points="445.63 301.91 440.75 299.09 435.88 301.91 440.75 304.72 445.63 301.91"/><polygon class="cls-63" points="445.63 301.91 445.63 302.74 440.75 305.55 440.75 304.72 445.63 301.91"/><polygon class="cls-16" points="435.88 301.91 435.88 302.74 440.75 305.55 440.75 304.72 435.88 301.91"/><polygon class="cls-69" points="439.25 298.26 434.38 295.44 429.51 298.26 434.38 301.07 439.25 298.26"/><polygon class="cls-63" points="439.25 298.26 439.25 299.09 434.38 301.9 434.38 301.07 439.25 298.26"/><polygon class="cls-16" points="429.51 298.26 429.51 299.09 434.38 301.9 434.38 301.07 429.51 298.26"/><polygon class="cls-69" points="432.76 294.52 427.89 291.7 423.02 294.52 427.89 297.33 432.76 294.52"/><polygon class="cls-63" points="432.76 294.52 432.76 295.35 427.89 298.16 427.89 297.33 432.76 294.52"/><polygon class="cls-16" points="423.02 294.52 423.02 295.35 427.89 298.16 427.89 297.33 423.02 294.52"/><polygon class="cls-69" points="426.37 290.8 421.49 287.98 416.62 290.8 421.49 293.6 426.37 290.8"/><polygon class="cls-63" points="426.37 290.8 426.37 291.63 421.49 294.44 421.49 293.6 426.37 290.8"/><polygon class="cls-16" points="416.62 290.8 416.62 291.63 421.49 294.44 421.49 293.6 416.62 290.8"/><polygon class="cls-69" points="419.89 287.07 415.02 284.26 410.15 287.07 415.02 289.88 419.89 287.07"/><polygon class="cls-63" points="419.89 287.07 419.89 287.9 415.02 290.71 415.02 289.88 419.89 287.07"/><polygon class="cls-16" points="410.15 287.07 410.15 287.9 415.02 290.71 415.02 289.88 410.15 287.07"/><polygon class="cls-69" points="413.44 283.37 408.56 280.55 403.69 283.37 408.57 286.17 413.44 283.37"/><polygon class="cls-63" points="413.44 283.37 413.44 284.2 408.57 287.01 408.57 286.17 413.44 283.37"/><polygon class="cls-16" points="403.69 283.37 403.69 284.2 408.57 287.01 408.57 286.17 403.69 283.37"/><polygon class="cls-69" points="407.08 279.7 402.21 276.88 397.34 279.7 402.21 282.51 407.08 279.7"/><polygon class="cls-63" points="407.08 279.7 407.08 280.53 402.21 283.34 402.21 282.51 407.08 279.7"/><polygon class="cls-16" points="397.34 279.7 397.34 280.53 402.21 283.34 402.21 282.51 397.34 279.7"/><polygon class="cls-69" points="400.63 275.98 395.75 273.17 390.88 275.98 395.75 278.79 400.63 275.98"/><polygon class="cls-63" points="400.63 275.98 400.63 276.82 395.75 279.63 395.75 278.79 400.63 275.98"/><polygon class="cls-16" points="390.88 275.98 390.88 276.82 395.75 279.63 395.75 278.79 390.88 275.98"/><polygon class="cls-69" points="394.12 272.19 389.24 269.38 384.37 272.19 389.24 275 394.12 272.19"/><polygon class="cls-63" points="394.12 272.19 394.12 273.03 389.24 275.84 389.24 275 394.12 272.19"/><polygon class="cls-16" points="384.37 272.19 384.37 273.03 389.24 275.84 389.24 275 384.37 272.19"/><polygon class="cls-69" points="387.57 268.39 382.69 265.58 377.82 268.39 382.69 271.2 387.57 268.39"/><polygon class="cls-63" points="387.57 268.39 387.57 269.23 382.69 272.04 382.69 271.2 387.57 268.39"/><polygon class="cls-16" points="377.82 268.39 377.82 269.23 382.69 272.04 382.69 271.2 377.82 268.39"/><polygon class="cls-69" points="380.86 264.56 375.99 261.74 371.12 264.56 375.99 267.37 380.86 264.56"/><polygon class="cls-63" points="380.86 264.56 380.86 265.39 375.99 268.2 375.99 267.37 380.86 264.56"/><polygon class="cls-16" points="371.12 264.56 371.12 265.39 375.99 268.2 375.99 267.37 371.12 264.56"/><polygon class="cls-63" points="374.32 260.77 374.32 261.61 369.45 264.42 369.45 263.58 374.32 260.77"/><polygon class="cls-69" points="374.32 260.77 363.98 254.79 359.11 257.61 369.45 263.58 374.32 260.77"/><polygon class="cls-16" points="359.11 257.61 359.11 258.44 369.45 264.42 369.45 263.58 359.11 257.61"/><polygon class="cls-69" points="446.01 309.36 435.93 303.53 431.06 306.34 441.14 312.17 446.01 309.36"/><polygon class="cls-63" points="446.01 309.36 446.01 310.19 441.14 313 441.14 312.17 446.01 309.36"/><polygon class="cls-16" points="431.06 306.34 431.06 307.18 441.14 313 441.14 312.17 431.06 306.34"/><polygon class="cls-69" points="434.15 302.5 429.27 299.69 424.4 302.5 429.28 305.31 434.15 302.5"/><polygon class="cls-63" points="434.15 302.5 434.15 303.34 429.28 306.14 429.28 305.31 434.15 302.5"/><polygon class="cls-16" points="424.4 302.5 424.4 303.34 429.28 306.14 429.28 305.31 424.4 302.5"/><polygon class="cls-69" points="427.56 298.7 422.69 295.89 417.82 298.7 422.69 301.51 427.56 298.7"/><polygon class="cls-63" points="427.56 298.7 427.56 299.54 422.69 302.35 422.69 301.51 427.56 298.7"/><polygon class="cls-16" points="417.82 298.7 417.82 299.54 422.69 302.35 422.69 301.51 417.82 298.7"/><polygon class="cls-69" points="421.06 294.92 416.18 292.11 411.31 294.92 416.19 297.73 421.06 294.92"/><polygon class="cls-63" points="421.06 294.92 421.06 295.75 416.19 298.56 416.19 297.73 421.06 294.92"/><polygon class="cls-16" points="411.31 294.92 411.31 295.75 416.19 298.56 416.19 297.73 411.31 294.92"/><polygon class="cls-69" points="414.43 291.12 409.55 288.31 404.68 291.12 409.55 293.93 414.43 291.12"/><polygon class="cls-63" points="414.43 291.12 414.43 291.95 409.55 294.76 409.55 293.93 414.43 291.12"/><polygon class="cls-16" points="404.68 291.12 404.68 291.95 409.55 294.76 409.55 293.93 404.68 291.12"/><polygon class="cls-69" points="407.86 287.32 402.98 284.51 398.11 287.32 402.99 290.13 407.86 287.32"/><polygon class="cls-63" points="407.86 287.32 407.86 288.15 402.99 290.96 402.99 290.13 407.86 287.32"/><polygon class="cls-16" points="398.11 287.32 398.11 288.15 402.99 290.96 402.99 290.13 398.11 287.32"/><polygon class="cls-69" points="401.48 283.67 396.61 280.86 391.74 283.67 396.61 286.48 401.48 283.67"/><polygon class="cls-63" points="401.48 283.67 401.48 284.51 396.61 287.32 396.61 286.48 401.48 283.67"/><polygon class="cls-16" points="391.74 283.67 391.74 284.51 396.61 287.32 396.61 286.48 391.74 283.67"/><polygon class="cls-69" points="395.05 279.93 390.17 277.12 385.3 279.93 390.17 282.74 395.05 279.93"/><polygon class="cls-63" points="395.05 279.93 395.05 280.76 390.17 283.57 390.17 282.74 395.05 279.93"/><polygon class="cls-16" points="385.3 279.93 385.3 280.76 390.17 283.57 390.17 282.74 385.3 279.93"/><polygon class="cls-69" points="388.59 276.19 383.72 273.37 378.85 276.19 383.72 279 388.59 276.19"/><polygon class="cls-63" points="388.59 276.19 388.59 277.02 383.72 279.83 383.72 279 388.59 276.19"/><polygon class="cls-16" points="378.85 276.19 378.85 277.02 383.72 279.83 383.72 279 378.85 276.19"/><polygon class="cls-69" points="382.16 272.46 377.28 269.65 372.41 272.46 377.29 275.27 382.16 272.46"/><polygon class="cls-63" points="382.16 272.46 382.16 273.3 377.29 276.11 377.29 275.27 382.16 272.46"/><polygon class="cls-16" points="372.41 272.46 372.41 273.3 377.29 276.11 377.29 275.27 372.41 272.46"/><polygon class="cls-69" points="375.8 268.82 370.92 266 366.06 268.82 370.93 271.63 375.8 268.82"/><polygon class="cls-63" points="375.8 268.82 375.8 269.65 370.93 272.46 370.93 271.63 375.8 268.82"/><polygon class="cls-16" points="366.06 268.82 366.06 269.65 370.93 272.46 370.93 271.63 366.06 268.82"/><polygon class="cls-69" points="369.25 265.04 364.37 262.22 359.51 265.04 364.38 267.84 369.25 265.04"/><polygon class="cls-63" points="369.25 265.04 369.25 265.87 364.38 268.68 364.38 267.84 369.25 265.04"/><polygon class="cls-16" points="359.51 265.04 359.51 265.87 364.38 268.68 364.38 267.84 359.51 265.04"/><polygon class="cls-69" points="362.6 261.2 357.73 258.38 352.86 261.2 357.73 264 362.6 261.2"/><polygon class="cls-63" points="362.6 261.2 362.6 262.03 357.73 264.84 357.73 264 362.6 261.2"/><polygon class="cls-16" points="352.86 261.2 352.86 262.03 357.73 264.84 357.73 264 352.86 261.2"/><polygon class="cls-69" points="439.63 313.05 428.34 306.53 423.47 309.34 434.76 315.86 439.63 313.05"/><polygon class="cls-63" points="439.63 313.05 439.63 313.88 434.76 316.69 434.76 315.86 439.63 313.05"/><polygon class="cls-16" points="423.47 309.34 423.47 310.18 434.76 316.69 434.76 315.86 423.47 309.34"/><polygon class="cls-69" points="426.8 305.64 421.92 302.82 417.05 305.64 421.93 308.45 426.8 305.64"/><polygon class="cls-63" points="426.8 305.64 426.8 306.47 421.93 309.28 421.93 308.45 426.8 305.64"/><polygon class="cls-16" points="417.05 305.64 417.05 306.47 421.93 309.28 421.93 308.45 417.05 305.64"/><polygon class="cls-69" points="420.38 301.93 415.51 299.12 410.64 301.93 415.51 304.74 420.38 301.93"/><polygon class="cls-63" points="420.38 301.93 420.38 302.77 415.51 305.58 415.51 304.74 420.38 301.93"/><polygon class="cls-16" points="410.64 301.93 410.64 302.77 415.51 305.58 415.51 304.74 410.64 301.93"/><polygon class="cls-69" points="413.96 298.23 409.09 295.42 404.22 298.23 409.09 301.04 413.96 298.23"/><polygon class="cls-63" points="413.96 298.23 413.96 299.06 409.09 301.87 409.09 301.04 413.96 298.23"/><polygon class="cls-16" points="404.22 298.23 404.22 299.06 409.09 301.87 409.09 301.04 404.22 298.23"/><polygon class="cls-69" points="407.55 294.52 402.68 291.71 397.81 294.52 402.68 297.33 407.55 294.52"/><polygon class="cls-63" points="407.55 294.52 407.55 295.36 402.68 298.17 402.68 297.33 407.55 294.52"/><polygon class="cls-16" points="397.81 294.52 397.81 295.36 402.68 298.17 402.68 297.33 397.81 294.52"/><polygon class="cls-69" points="401.13 290.82 396.26 288.01 391.39 290.82 396.26 293.63 401.13 290.82"/><polygon class="cls-63" points="401.13 290.82 401.13 291.65 396.26 294.46 396.26 293.63 401.13 290.82"/><polygon class="cls-16" points="391.39 290.82 391.39 291.65 396.26 294.46 396.26 293.63 391.39 290.82"/><polygon class="cls-69" points="394.72 287.12 389.84 284.3 384.98 287.12 389.85 289.92 394.72 287.12"/><polygon class="cls-63" points="394.72 287.12 394.72 287.95 389.85 290.76 389.85 289.92 394.72 287.12"/><polygon class="cls-16" points="384.98 287.12 384.98 287.95 389.85 290.76 389.85 289.92 384.98 287.12"/><polygon class="cls-69" points="388.3 283.41 383.43 280.6 378.56 283.41 383.43 286.22 388.3 283.41"/><polygon class="cls-63" points="388.3 283.41 388.3 284.25 383.43 287.06 383.43 286.22 388.3 283.41"/><polygon class="cls-16" points="378.56 283.41 378.56 284.25 383.43 287.06 383.43 286.22 378.56 283.41"/><polygon class="cls-69" points="381.89 279.71 377.01 276.89 372.14 279.71 377.02 282.51 381.89 279.71"/><polygon class="cls-63" points="381.89 279.71 381.89 280.54 377.02 283.35 377.02 282.51 381.89 279.71"/><polygon class="cls-16" points="372.14 279.71 372.14 280.54 377.02 283.35 377.02 282.51 372.14 279.71"/><polygon class="cls-69" points="375.47 276 370.6 273.19 365.73 276 370.6 278.81 375.47 276"/><polygon class="cls-63" points="375.47 276 375.47 276.84 370.6 279.64 370.6 278.81 375.47 276"/><polygon class="cls-16" points="365.73 276 365.73 276.84 370.6 279.64 370.6 278.81 365.73 276"/><polygon class="cls-69" points="369.06 272.3 364.18 269.48 359.31 272.3 364.19 275.11 369.06 272.3"/><polygon class="cls-63" points="369.06 272.3 369.06 273.13 364.19 275.94 364.19 275.11 369.06 272.3"/><polygon class="cls-16" points="359.31 272.3 359.31 273.13 364.19 275.94 364.19 275.11 359.31 272.3"/><polygon class="cls-69" points="362.64 268.59 351.35 262.07 346.48 264.89 357.77 271.4 362.64 268.59"/><polygon class="cls-16" points="346.48 264.89 346.48 265.72 357.77 272.24 357.77 271.4 346.48 264.89"/><polygon class="cls-63" points="362.64 268.59 362.64 269.43 357.77 272.24 357.77 271.4 362.64 268.59"/><polygon class="cls-69" points="456.55 303.27 451.67 300.45 448.69 302.19 453.56 305 456.55 303.27"/><polygon class="cls-63" points="456.55 303.27 456.55 304.1 453.56 305.83 453.56 305 456.55 303.27"/><polygon class="cls-16" points="448.69 302.19 448.69 303.02 453.56 305.83 453.56 305 448.69 302.19"/><polygon class="cls-69" points="450.13 299.56 445.26 296.75 442.27 298.48 447.15 301.29 450.13 299.56"/><polygon class="cls-63" points="450.13 299.56 450.13 300.4 447.15 302.13 447.15 301.29 450.13 299.56"/><polygon class="cls-16" points="442.27 298.48 442.27 299.32 447.15 302.13 447.15 301.29 442.27 298.48"/><polygon class="cls-69" points="443.72 295.86 438.84 293.05 435.86 294.78 440.73 297.59 443.72 295.86"/><polygon class="cls-63" points="443.72 295.86 443.72 296.69 440.73 298.42 440.73 297.59 443.72 295.86"/><polygon class="cls-16" points="435.86 294.78 435.86 295.61 440.73 298.42 440.73 297.59 435.86 294.78"/><polygon class="cls-69" points="437.3 292.15 432.43 289.34 429.45 291.07 434.32 293.88 437.3 292.15"/><polygon class="cls-63" points="437.3 292.15 437.3 292.99 434.32 294.72 434.32 293.88 437.3 292.15"/><polygon class="cls-16" points="429.45 291.07 429.45 291.91 434.32 294.72 434.32 293.88 429.45 291.07"/><polygon class="cls-69" points="430.89 288.45 426.01 285.64 423.03 287.37 427.9 290.18 430.89 288.45"/><polygon class="cls-63" points="430.89 288.45 430.89 289.29 427.9 291.01 427.9 290.18 430.89 288.45"/><polygon class="cls-16" points="423.03 287.37 423.03 288.2 427.9 291.01 427.9 290.18 423.03 287.37"/><polygon class="cls-69" points="424.47 284.75 419.6 281.93 416.62 283.67 421.49 286.47 424.47 284.75"/><polygon class="cls-63" points="424.47 284.75 424.47 285.58 421.49 287.31 421.49 286.47 424.47 284.75"/><polygon class="cls-16" points="416.62 283.67 416.62 284.5 421.49 287.31 421.49 286.47 416.62 283.67"/><polygon class="cls-69" points="418.06 281.04 413.19 278.23 410.2 279.96 415.07 282.77 418.06 281.04"/><polygon class="cls-63" points="418.06 281.04 418.06 281.88 415.07 283.61 415.07 282.77 418.06 281.04"/><polygon class="cls-16" points="410.2 279.96 410.2 280.8 415.07 283.61 415.07 282.77 410.2 279.96"/><polygon class="cls-69" points="411.64 277.34 406.77 274.52 403.79 276.26 408.66 279.06 411.64 277.34"/><polygon class="cls-63" points="411.64 277.34 411.64 278.17 408.66 279.9 408.66 279.06 411.64 277.34"/><polygon class="cls-16" points="403.79 276.26 403.79 277.09 408.66 279.9 408.66 279.06 403.79 276.26"/><polygon class="cls-69" points="405.23 273.63 400.36 270.82 397.37 272.55 402.25 275.36 405.23 273.63"/><polygon class="cls-63" points="405.23 273.63 405.23 274.47 402.25 276.2 402.25 275.36 405.23 273.63"/><polygon class="cls-16" points="397.37 272.55 397.37 273.39 402.25 276.2 402.25 275.36 397.37 272.55"/><polygon class="cls-69" points="398.82 269.93 393.94 267.12 390.96 268.85 395.83 271.66 398.82 269.93"/><polygon class="cls-63" points="398.82 269.93 398.82 270.76 395.83 272.49 395.83 271.66 398.82 269.93"/><polygon class="cls-16" points="390.96 268.85 390.96 269.68 395.83 272.49 395.83 271.66 390.96 268.85"/><polygon class="cls-69" points="392.4 266.22 387.53 263.41 384.55 265.14 389.42 267.95 392.4 266.22"/><polygon class="cls-63" points="392.4 266.22 392.4 267.06 389.42 268.79 389.42 267.95 392.4 266.22"/><polygon class="cls-16" points="384.55 265.14 384.55 265.98 389.42 268.79 389.42 267.95 384.55 265.14"/><polygon class="cls-69" points="385.99 262.52 381.11 259.71 378.13 261.44 383 264.25 385.99 262.52"/><polygon class="cls-63" points="385.99 262.52 385.99 263.36 383 265.08 383 264.25 385.99 262.52"/><polygon class="cls-16" points="378.13 261.44 378.13 262.27 383 265.08 383 264.25 378.13 261.44"/><polygon class="cls-69" points="379.57 258.81 374.7 256 371.72 257.73 376.59 260.54 379.57 258.81"/><polygon class="cls-63" points="379.57 258.81 379.57 259.65 376.59 261.38 376.59 260.54 379.57 258.81"/><polygon class="cls-16" points="371.72 257.73 371.72 258.57 376.59 261.38 376.59 260.54 371.72 257.73"/><polygon class="cls-69" points="373.16 255.11 368.28 252.3 365.3 254.03 370.17 256.84 373.16 255.11"/><polygon class="cls-63" points="373.16 255.11 373.16 255.95 370.17 257.67 370.17 256.84 373.16 255.11"/><polygon class="cls-16" points="365.3 254.03 365.3 254.87 370.17 257.67 370.17 256.84 365.3 254.03"/><polygon class="cls-69" points="433.35 316.66 428.47 313.85 423.61 316.66 428.48 319.47 433.35 316.66"/><polygon class="cls-63" points="433.35 316.66 433.35 317.5 428.48 320.31 428.48 319.47 433.35 316.66"/><polygon class="cls-16" points="423.61 316.66 423.61 317.5 428.48 320.31 428.48 319.47 423.61 316.66"/><polygon class="cls-69" points="426.93 312.96 422.06 310.14 417.19 312.96 422.06 315.76 426.93 312.96"/><polygon class="cls-63" points="426.93 312.96 426.93 313.79 422.06 316.6 422.06 315.76 426.93 312.96"/><polygon class="cls-16" points="417.19 312.96 417.19 313.79 422.06 316.6 422.06 315.76 417.19 312.96"/><polygon class="cls-69" points="420.52 309.25 415.64 306.44 410.77 309.25 415.65 312.06 420.52 309.25"/><polygon class="cls-63" points="420.52 309.25 420.52 310.09 415.65 312.9 415.65 312.06 420.52 309.25"/><polygon class="cls-16" points="410.77 309.25 410.77 310.09 415.65 312.9 415.65 312.06 410.77 309.25"/><polygon class="cls-69" points="414.1 305.55 409.23 302.73 404.36 305.55 409.23 308.36 414.1 305.55"/><polygon class="cls-63" points="414.1 305.55 414.1 306.38 409.23 309.19 409.23 308.36 414.1 305.55"/><polygon class="cls-16" points="404.36 305.55 404.36 306.38 409.23 309.19 409.23 308.36 404.36 305.55"/><polygon class="cls-69" points="407.69 301.84 377.15 284.21 372.28 287.02 402.81 304.65 407.69 301.84"/><polygon class="cls-63" points="407.69 301.84 407.69 302.68 402.81 305.49 402.81 304.65 407.69 301.84"/><polygon class="cls-16" points="372.28 287.02 372.28 287.86 402.81 305.49 402.81 304.65 372.28 287.02"/><polygon class="cls-69" points="375.61 283.32 370.73 280.51 365.87 283.32 370.74 286.13 375.61 283.32"/><polygon class="cls-63" points="375.61 283.32 375.61 284.15 370.74 286.96 370.74 286.13 375.61 283.32"/><polygon class="cls-16" points="365.87 283.32 365.87 284.15 370.74 286.96 370.74 286.13 365.87 283.32"/><polygon class="cls-69" points="369.19 279.62 364.32 276.8 359.45 279.62 364.32 282.42 369.19 279.62"/><polygon class="cls-63" points="369.19 279.62 369.19 280.45 364.32 283.26 364.32 282.42 369.19 279.62"/><polygon class="cls-16" points="359.45 279.62 359.45 280.45 364.32 283.26 364.32 282.42 359.45 279.62"/><polygon class="cls-69" points="360.97 276.95 356.1 274.13 353.03 275.91 357.9 278.72 360.97 276.95"/><polygon class="cls-63" points="360.97 276.95 360.97 277.79 357.9 279.56 357.9 278.72 360.97 276.95"/><polygon class="cls-16" points="353.03 275.91 353.03 276.75 357.9 279.56 357.9 278.72 353.03 275.91"/><polygon class="cls-69" points="356.36 272.21 351.49 269.39 346.62 272.21 351.49 275.01 356.36 272.21"/><polygon class="cls-63" points="356.36 272.21 356.36 273.04 351.49 275.85 351.49 275.01 356.36 272.21"/><polygon class="cls-16" points="346.62 272.21 346.62 273.04 351.49 275.85 351.49 275.01 346.62 272.21"/><polygon class="cls-69" points="348.1 269.6 343.22 266.79 340.2 268.5 345.07 271.31 348.1 269.6"/><polygon class="cls-63" points="348.1 269.6 348.1 270.44 345.07 272.15 345.07 271.31 348.1 269.6"/><polygon class="cls-16" points="340.2 268.5 340.2 269.34 345.07 272.15 345.07 271.31 340.2 268.5"/><polygon class="cls-82" points="360.42 314.26 359.88 314.57 349.45 308.5 349.95 308.22 360.42 314.26"/><path class="cls-83" d="M308.49,99.87l-.53-.23-.54-.2-.53-.17-.55-.15L305.8,99c-.2,0-.39-.07-.59-.09a5.61,5.61,0,0,0-.59-.06c-.21,0-.41,0-.62,0s-.46,0-.69,0a6.32,6.32,0,0,0-.76.11,6.54,6.54,0,0,0-.92.26,5.86,5.86,0,0,0-1.08.49l-11.73,6.82a7,7,0,0,1,1.07-.5,7.06,7.06,0,0,1,.93-.25,6.32,6.32,0,0,1,.76-.11q.35,0,.69,0c.2,0,.41,0,.62,0a5.9,5.9,0,0,1,.59.06,5.81,5.81,0,0,1,.58.09l.55.12.55.16.53.17.53.2.54.23.53.25.55.28,11.73-6.82-.54-.28Z" transform="translate(81.69 36.36)"/><path class="cls-84" d="M297.84,107.22l.42.24L310,100.64l-.42-.24Z" transform="translate(81.69 36.36)"/><g class="cls-1"><path class="cls-5" d="M323.86,94l11.73-6.82c10.53,6.07,19.55,18.64,23.41,31.34l-11.73,6.81C343.41,112.65,334.38,100.09,323.86,94Z" transform="translate(81.69 36.36)"/><path class="cls-85" d="M323.86,94c10.52,6.07,19.55,18.63,23.41,31.33a17.89,17.89,0,0,1,7.33,2.51c10.23,5.91,18.5,20.23,18.47,32a18.15,18.15,0,0,1-1.26,6.89l-26.52-15.31-8.07-4.66-25.82-14.9-9.23-5.34L285,116.63c0-.54-.06-1.06-.06-1.59,0-8.42,6-11.81,13.31-7.58C298.88,92.13,310.11,86.08,323.86,94Z" transform="translate(81.69 36.36)"/></g><path class="cls-86" d="M359,118.41q-.19-.66-.42-1.32c-.14-.43-.29-.85-.45-1.28s-.31-.84-.47-1.26-.33-.82-.5-1.23-.34-.81-.52-1.22-.37-.82-.56-1.22-.41-.88-.63-1.32-.52-1-.79-1.52c-.38-.73-.78-1.44-1.2-2.15-.67-1.15-1.38-2.28-2.12-3.38-.51-.74-1-1.48-1.55-2.19-.35-.47-.7-.93-1.06-1.39s-.65-.81-1-1.21-.65-.77-1-1.14-.66-.75-1-1.11-.68-.73-1-1.08-.72-.73-1.09-1.08l-1.11-1-1.14-1q-.57-.48-1.14-.93l-1.12-.85c-.36-.27-.73-.53-1.1-.78s-.72-.49-1.09-.72-.71-.44-1.07-.66l-.25-.14q-.4-.24-.81-.45l-1-.55-1-.48c-.34-.15-.68-.3-1-.43l-1-.39q-.51-.18-1-.33c-.35-.11-.7-.21-1.05-.29l-1-.24c-.38-.07-.74-.13-1.11-.18l-1.14-.12c-.4,0-.79,0-1.18,0s-.89,0-1.32.07a11.72,11.72,0,0,0-1.48.21,12.3,12.3,0,0,0-1.76.48,11.8,11.8,0,0,0-2.1,1l-11.73,6.82a12,12,0,0,1,2.09-1,12.8,12.8,0,0,1,1.77-.48,14.06,14.06,0,0,1,1.47-.22c.44,0,.88-.06,1.33-.06s.78,0,1.18,0l1.14.12,1.1.18,1.06.23,1.05.3q.51.15,1,.33l1,.39c.33.13.67.27,1,.43l1,.48,1,.54.81.46.25.14c.36.21.72.43,1.07.66s.73.47,1.09.72.74.51,1.1.78l1.12.85q.57.45,1.14.93c.38.32.76.65,1.13,1s.75.69,1.12,1,.73.71,1.09,1.07.69.72,1,1.09.67.73,1,1.11.65.75,1,1.14.66.8,1,1.21.71.92,1.05,1.39c.54.71,1.05,1.44,1.55,2.19.75,1.1,1.46,2.23,2.13,3.38.41.71.81,1.42,1.2,2.15.27.5.53,1,.79,1.52s.43.88.63,1.32.38.81.56,1.22.35.81.52,1.22.34.82.49,1.23.33.83.48,1.26l.45,1.28c.14.44.29.88.42,1.32l0,.12L359,118.54Z" transform="translate(81.69 36.36)"/><path class="cls-87" d="M384.79,152.2c0-.3,0-.6,0-.9s0-.6-.07-.9-.06-.6-.1-.91-.09-.62-.13-.93-.11-.62-.17-.93-.12-.65-.19-1-.15-.65-.23-1-.17-.65-.26-1-.18-.65-.28-1-.2-.64-.31-1-.21-.63-.33-.94-.22-.61-.34-.91-.24-.6-.36-.9-.25-.59-.38-.88-.27-.6-.41-.9-.31-.65-.47-1-.38-.74-.58-1.11c-.29-.55-.59-1.09-.91-1.62-.44-.75-.9-1.48-1.38-2.2s-.77-1.12-1.17-1.67l-.82-1.08c-.23-.3-.47-.59-.71-.88l-.72-.84-.72-.8c-.25-.27-.5-.53-.76-.79l-.78-.77c-.27-.26-.54-.52-.82-.76s-.54-.49-.82-.72l-.83-.68-.81-.62-.81-.57-.78-.52c-.26-.17-.53-.33-.79-.48l-.18-.11-.6-.33q-.37-.21-.75-.39l-.75-.36-.75-.31c-.25-.1-.5-.2-.74-.28l-.75-.25-.76-.21-.77-.17c-.27,0-.54-.1-.8-.13s-.44-.06-.66-.07l-11.73,6.81.66.08c.26,0,.53.08.79.13l.78.17q.38.09.75.21l.75.25c.25.08.5.18.75.28s.49.2.74.31.5.23.75.36.51.25.76.39l.6.33.18.11q.39.22.78.48l.79.52.81.57.81.62.83.68c.27.23.55.47.82.72s.55.5.82.75l.78.78c.25.26.51.52.76.79l.72.8.72.84.71.88c.28.35.55.71.82,1.08.4.55.79,1.1,1.17,1.67.48.72.94,1.45,1.38,2.2.32.53.62,1.07.91,1.62.2.37.39.74.58,1.11s.32.65.47,1,.28.6.41.9.25.59.38.88l.36.9c.12.3.23.6.34.91l.33.94c.11.32.21.64.31,1s.19.65.28,1,.18.65.26,1,.15.65.23,1,.13.64.19,1,.11.63.16.94.1.62.14.93.07.61.1.91.05.6.07.9,0,.6,0,.89,0,.56,0,.84v.05c0,.29,0,.57,0,.84s0,.57-.05.85-.05.58-.09.86-.08.59-.13.87-.11.61-.18.91-.16.65-.25,1-.22.7-.34,1l-.2.51,11.73-6.82c.07-.17.14-.34.2-.51.12-.34.24-.68.34-1s.18-.63.25-1,.13-.6.18-.91.1-.57.13-.87.07-.57.09-.86,0-.56,0-.84,0-.56,0-.85V153C384.8,152.75,384.8,152.48,384.79,152.2Z" transform="translate(81.69 36.36)"/><g class="cls-1"><path class="cls-3" d="M313.36,180.05a18,18,0,0,1,5.69,5.56c3.95,5.89,4.6,12.92,1.44,15.66-1.81,1.58-4.5,1.39-7.2-.17a17.82,17.82,0,0,1-5.68-5.55c-3.95-5.9-4.6-12.93-1.45-15.66l.62.92c-2.88,2.5-2.29,8.92,1.32,14.31a16.59,16.59,0,0,0,5.19,5.08c2.47,1.42,4.93,1.59,6.58.15,2.88-2.51,2.29-8.92-1.32-14.31a16.2,16.2,0,0,0-5.2-5.08c-.32-.19-.64-.35-1-.5l-.09-1C312.65,179.67,313,179.85,313.36,180.05Z" transform="translate(81.69 36.36)"/><path class="cls-3" d="M313.37,175.29c7.18,4.15,13.1,14.19,13.25,22.58l-2.48-1.35c-.12-6.84-4.93-15-10.76-18.36l-.28-.16c-6-3.28-10.72-.3-10.59,6.64s4.94,15,10.78,18.37l.27.15c3,1.64,5.66,1.71,7.58.5l1.79,3c-2.35,1.48-5.65,1.39-9.31-.62l-.34-.2c-7.19-4.14-13.09-14.17-13.25-22.57s5.68-12.19,13-8.17Z" transform="translate(81.69 36.36)"/><path class="cls-3" d="M313.43,170.58a29.31,29.31,0,0,1,6.16,4.86l-1.07,2.62a24.38,24.38,0,0,0-5.1-4c-5.81-3.36-11.32-2.45-13.52,2.9-2.85,6.9.88,18.66,8.3,26.18a24.19,24.19,0,0,0,5.1,4c5.81,3.36,11.31,2.45,13.52-2.9,1.42-3.45,1.2-8.12-.31-12.86l2.75.17c1.82,5.73,2.09,11.37.37,15.54-2.66,6.47-9.32,7.56-16.35,3.51a29.64,29.64,0,0,1-6.16-4.87c-9-9.1-13.47-23.3-10-31.66C299.75,167.61,306.4,166.52,313.43,170.58Z" transform="translate(81.69 36.36)"/></g><path class="cls-88" d="M146.6,169.69a.15.15,0,0,0,0-.07A.15.15,0,0,1,146.6,169.69Z" transform="translate(81.69 36.36)"/><path class="cls-89" d="M146.6,169.71h0v0Z" transform="translate(81.69 36.36)"/><path class="cls-89" d="M146.59,169.62a.93.93,0,0,0,0-.25h0A1.87,1.87,0,0,1,146.59,169.62Z" transform="translate(81.69 36.36)"/><path class="cls-88" d="M145.59,169l.07,0Z" transform="translate(81.69 36.36)"/><path class="cls-88" d="M145.66,168.92a.61.61,0,0,1,.89.45h0A.6.6,0,0,0,145.66,168.92Z" transform="translate(81.69 36.36)"/><path class="cls-90" d="M109.36,191.62a3.11,3.11,0,0,0,0,.43c0,.8.48,1.19,1,.87l35.35-21.26a2.27,2.27,0,0,0,.91-1.9,1.29,1.29,0,0,0,0-.35,2.3,2.3,0,0,1-.81,1.46,2.3,2.3,0,0,0,.81-1.46.62.62,0,0,0-.56-.52l-15.51-.9a4.59,4.59,0,0,0-.74,0,4.91,4.91,0,0,0-.75.13,7.23,7.23,0,0,0-2.92,1.67,9.53,9.53,0,0,0-.73.7c-.24.26-.48.54-.71.83l-14.78,19.06a2.69,2.69,0,0,0-.49,1.22c.13.52.49.72.88.54C109.83,192.34,109.49,192.12,109.36,191.62Z" transform="translate(81.69 36.36)"/><polygon class="cls-90" points="228.79 219.59 191.53 243.18 191.03 228.59 228.26 206.31 228.79 219.59"/><polygon class="cls-91" points="225.37 223.14 195.2 242.75 194.04 209.6 217.53 196.17 224.43 199.3 225.37 223.14"/><polygon class="cls-10" points="217.53 196.17 224.43 199.3 217.8 203.19 217.53 196.17"/><path class="cls-90" d="M139,167.68,116.66,181c-.28.17-.52.05-.53-.27h0a1.11,1.11,0,0,1,.49-.88L139,166.6c.28-.17.52-.06.53.24h0A1,1,0,0,1,139,167.68Z" transform="translate(81.69 36.36)"/><path class="cls-90" d="M139.14,171.08l-22.35,13.49c-.28.17-.52.05-.53-.26h0a1.07,1.07,0,0,1,.49-.88L139.1,170c.28-.17.52-.07.54.23h0A1.06,1.06,0,0,1,139.14,171.08Z" transform="translate(81.69 36.36)"/><path class="cls-90" d="M127.57,181.62l-10.65,6.54c-.29.17-.53.06-.54-.26h0a1.1,1.1,0,0,1,.5-.88l10.65-6.51c.29-.17.53-.06.54.24h0A1.08,1.08,0,0,1,127.57,181.62Z" transform="translate(81.69 36.36)"/><path class="cls-92" d="M146.06,193,131,191.26a3.11,3.11,0,0,0-2.57.31,8.85,8.85,0,0,0-2.55,2.88l-14.27,21.11a1.63,1.63,0,0,1-.47.5h0l35.4-23.23h0A.71.71,0,0,1,146.06,193Z" transform="translate(81.69 36.36)"/><path class="cls-10" d="M125.53,194.45l-.33,0L109.94,193c-.35,0-.59-.41-.61-1h0l.8,23.21c0,.84.51,1.15,1,.84a1.63,1.63,0,0,0,.47-.5l14.27-21.11Z" transform="translate(81.69 36.36)"/><path class="cls-10" d="M146.6,169.72a2.45,2.45,0,0,1-.51,1.53l-14.44,19.17-.25.35c-.13.17-.26.34-.4.49l15.06,1.7a.71.71,0,0,0,.49-.15,2.46,2.46,0,0,0,.9-1.95l-.85-21.13Z" transform="translate(81.69 36.36)"/><polygon class="cls-3" points="457.99 278.56 457.98 280.18 451.48 276.49 451.48 274.87 457.99 278.56"/><polygon class="cls-3" points="457.98 281.71 457.97 283.33 451.46 279.64 451.47 278.02 457.98 281.71"/><polygon class="cls-3" points="457.96 284.86 457.96 286.49 451.45 282.79 451.45 281.17 457.96 284.86"/><polygon class="cls-3" points="458.02 272.26 458.01 273.88 451.5 270.19 451.51 268.57 458.02 272.26"/><polygon class="cls-3" points="458 275.41 458 277.03 451.49 273.34 451.5 271.72 458 275.41"/><polygon class="cls-3" points="458.04 269.12 458.03 270.74 451.52 267.04 451.52 265.42 458.04 269.12"/><polygon class="cls-3" points="447.73 272.74 447.72 274.35 441.21 270.66 441.22 269.04 447.73 272.74"/><g class="cls-1"><polygon class="cls-3" points="447.7 279.04 447.69 280.66 441.19 276.96 441.19 275.34 447.7 279.04"/><polygon class="cls-3" points="447.71 275.89 447.7 277.5 441.2 273.81 441.2 272.19 447.71 275.89"/></g><polygon class="cls-3" points="447.81 253.84 447.81 255.46 441.3 251.76 441.3 250.14 447.81 253.84"/><polygon class="cls-3" points="447.8 256.99 447.79 258.61 441.28 254.91 441.29 253.3 447.8 256.99"/><polygon class="cls-3" points="447.78 260.14 447.77 261.75 441.27 258.06 441.28 256.44 447.78 260.14"/><polygon class="cls-3" points="447.77 263.29 447.76 264.91 441.25 261.21 441.26 259.59 447.77 263.29"/><polygon class="cls-3" points="447.76 266.44 447.75 268.06 441.24 264.36 441.25 262.74 447.76 266.44"/><polygon class="cls-3" points="447.74 269.59 447.74 271.21 441.22 267.51 441.23 265.89 447.74 269.59"/><polygon class="cls-3" points="427.76 261.27 427.75 262.89 421.25 259.19 421.26 257.58 427.76 261.27"/><polygon class="cls-3" points="427.75 264.42 427.74 266.04 421.23 262.35 421.24 260.72 427.75 264.42"/><polygon class="cls-3" points="427.74 267.57 427.73 269.19 421.22 265.49 421.23 263.88 427.74 267.57"/><polygon class="cls-3" points="427.78 258.12 427.77 259.74 421.26 256.05 421.27 254.43 427.78 258.12"/><polygon class="cls-3" points="427.81 251.82 427.8 253.44 421.29 249.75 421.3 248.13 427.81 251.82"/><polygon class="cls-3" points="427.79 254.97 427.79 256.59 421.28 252.9 421.28 251.27 427.79 254.97"/><polygon class="cls-3" points="427.82 248.67 427.81 250.29 421.3 246.6 421.31 244.98 427.82 248.67"/><polygon class="cls-3" points="437.44 273.21 437.43 274.83 430.92 271.13 430.93 269.51 437.44 273.21"/><polygon class="cls-3" points="437.45 270.06 437.44 271.68 430.93 267.99 430.94 266.37 437.45 270.06"/><polygon class="cls-3" points="437.46 266.91 437.46 268.53 430.95 264.83 430.96 263.21 437.46 266.91"/><polygon class="cls-3" points="464.3 246.84 464.3 247.62 417.98 220.88 417.98 220.09 464.3 246.84"/><polygon class="cls-3" points="448.31 242.52 448.31 243.3 417.96 225.78 417.97 225 448.31 242.52"/><polygon class="cls-3" points="464.29 249.29 464.29 250.07 417.97 223.33 417.97 222.54 464.29 249.29"/><polygon class="cls-3" points="464.31 244.38 464.31 245.16 417.99 218.42 417.99 217.64 464.31 244.38"/><path class="cls-3" d="M270.09,311.65l1,.56-1.17.68-1-.55a8.23,8.23,0,0,1-2.52.6v.79h-1.65V313a8,8,0,0,1-2.55-.6l-.95.55-1.19-.68.95-.55a2.72,2.72,0,0,1-1.07-1.46h-1.35v-.95h1.32a2.76,2.76,0,0,1,1-1.48l-.95-.54,1.18-.69.94.54a8.29,8.29,0,0,1,2.54-.6v-.78h1.65v.77a8.16,8.16,0,0,1,2.53.61l1-.55,1.18.68-.95.56a2.75,2.75,0,0,1,1.06,1.46h1.36v1h-1.36A2.84,2.84,0,0,1,270.09,311.65Zm-7.46-.27a6.38,6.38,0,0,0,5.8,0c1.61-.93,1.6-2.44,0-3.37a6.35,6.35,0,0,0-5.8,0c-1.58.92-1.59,2.43,0,3.35" transform="translate(81.69 36.36)"/><path class="cls-3" d="M260.92,317.25l.74.42-.88.52-.74-.43a5.83,5.83,0,0,1-1.9.47v.59h-1.25v-.6a5.75,5.75,0,0,1-1.93-.46l-.72.42-.89-.51.7-.41a2.17,2.17,0,0,1-.81-1.12h-1v-.73h1a2.22,2.22,0,0,1,.78-1.13l-.71-.41.9-.52.71.41a6.21,6.21,0,0,1,1.92-.46v-.58h1.25l0,.59a6.2,6.2,0,0,1,1.93.46l.72-.42.89.52-.72.42a2.07,2.07,0,0,1,.8,1.11h1l0,.72h-1A2.18,2.18,0,0,1,260.92,317.25Zm-5.64-.2a4.85,4.85,0,0,0,4.39,0,1.35,1.35,0,0,0,0-2.55,4.84,4.84,0,0,0-4.4,0,1.34,1.34,0,0,0,0,2.54" transform="translate(81.69 36.36)"/><path class="cls-3" d="M255.63,311.05l1.48.85-1.77,1-1.46-.84a12.58,12.58,0,0,1-3.83.93v1.2h-2.53V313a12.82,12.82,0,0,1-3.87-.91l-1.43.83-1.78-1,1.43-.83a4.36,4.36,0,0,1-1.64-2.22h-2v-1.46h2a4.25,4.25,0,0,1,1.59-2.24l-1.44-.83,1.78-1,1.43.83a12.49,12.49,0,0,1,3.86-.93V302h2.51v1.18a12.14,12.14,0,0,1,3.84.91l1.45-.84,1.79,1-1.44.84a4.25,4.25,0,0,1,1.6,2.22h2.08v1.46h-2.08A4.1,4.1,0,0,1,255.63,311.05Zm-4.39.35a7.66,7.66,0,0,0,1.88-.73,4.44,4.44,0,0,0,1.28-1.1c1-1.33.57-2.92-1.31-4a9.68,9.68,0,0,0-8.8,0c-2.41,1.4-2.4,3.68,0,5.09a9.81,9.81,0,0,0,6.91.74" transform="translate(81.69 36.36)"/><path class="cls-3" d="M194.88,279.9l0,0Z" transform="translate(81.69 36.36)"/><g class="cls-1"><path class="cls-3" d="M197,276.46c.27.16.33.39,0,.56a1.07,1.07,0,0,1-1,0c-.4-.23-.24-.51.17-.76a1.54,1.54,0,0,1,1.39-.1.39.39,0,0,1,.24.34l-.22,0a.31.31,0,0,0-.18-.28,1.22,1.22,0,0,0-1.06.12h0A1.07,1.07,0,0,1,197,276.46Zm-.83.45a.73.73,0,0,0,.69,0c.2-.11.16-.27,0-.39a.76.76,0,0,0-.64,0c-.18.15-.22.31,0,.43" transform="translate(81.69 36.36)"/><path class="cls-3" d="M199.23,277.13l-.16.1-.71-.41-.51.27a1.09,1.09,0,0,1,.41.13c.27.15.32.38,0,.55a1.07,1.07,0,0,1-1,0c-.23-.14-.3-.29-.29-.44h.24a.37.37,0,0,0,.21.36.71.71,0,0,0,.68,0c.19-.11.17-.26,0-.38a.94.94,0,0,0-.44-.13l-.07-.11.78-.42Z" transform="translate(81.69 36.36)"/><polygon class="cls-3" points="282.41 314.36 282.56 314.44 280.07 314.71 279.93 314.63 282.41 314.36"/><path class="cls-3" d="M199.94,278.42c.21.12.18.3,0,.42a.75.75,0,0,1-.71,0c-.2-.11-.19-.29,0-.41A.77.77,0,0,1,199.94,278.42Zm-.62.37a.5.5,0,0,0,.46,0c.15-.09.17-.2.05-.27a.5.5,0,0,0-.46,0c-.15.08-.17.19-.05.27" transform="translate(81.69 36.36)"/><path class="cls-3" d="M194.77,279.85l-.07,0Z" transform="translate(81.69 36.36)"/><path class="cls-3" d="M194.83,279.88l-.06,0Z" transform="translate(81.69 36.36)"/><path class="cls-3" d="M194,281.49a8.61,8.61,0,0,1-1.34-.59A9.67,9.67,0,0,0,194,281.49Z" transform="translate(81.69 36.36)"/><path class="cls-3" d="M199.06,273.06a.67.67,0,0,1,.41.57c0,.44-.61.8-1.38.8a7.58,7.58,0,0,0-3.68.87c-2.1,1.22-2.09,3.16,0,4.35a8.33,8.33,0,0,0,5.36.74,2.26,2.26,0,0,1,1.42.2,1,1,0,0,1,.34.32c.23.41-.13.85-.81,1l-.08,0a13.77,13.77,0,0,1-4.3.1,11.83,11.83,0,0,1-2.24-.51H194l0,0a9.3,9.3,0,0,1-1.35-.59l-.1,0,0,0-.06,0c-3.15-1.82-3.17-4.78,0-6.6l0,0a11.57,11.57,0,0,1,5.65-1.35h.11A2,2,0,0,1,199.06,273.06Z" transform="translate(81.69 36.36)"/><g class="cls-93"><path class="cls-3" d="M203.82,280.79a10.23,10.23,0,0,1-3.12,1.12c.68-.15,1-.59.81-1a1,1,0,0,0-.34-.32,2.26,2.26,0,0,0-1.42-.2,8.5,8.5,0,0,1-4.7-.42,8.33,8.33,0,0,0,6.8-.32c2.05-1.19,2-3.13,0-4.32a8.31,8.31,0,0,0-7.22-.14,7.76,7.76,0,0,1,3.48-.76c.77,0,1.39-.36,1.38-.8a.67.67,0,0,0-.41-.57,2,2,0,0,0-.87-.24,11.54,11.54,0,0,1,5.59,1.37C206.94,276,207,279,203.82,280.79Z" transform="translate(81.69 36.36)"/></g></g><path class="cls-3" d="M199.86,277.91a.75.75,0,0,1-.71,0c-.2-.12-.18-.3,0-.41a.8.8,0,0,1,.72,0C200.09,277.62,200.07,277.8,199.86,277.91Zm-.55-.31c-.14.08-.16.19,0,.26a.5.5,0,0,0,.46,0c.14-.09.16-.2,0-.27a.48.48,0,0,0-.46,0" transform="translate(81.69 36.36)"/></g></g></svg>