<svg xmlns="http://www.w3.org/2000/svg" xmlns:xlink="http://www.w3.org/1999/xlink" viewBox="0 0 494.66 378.41"><defs><style>.cls-1{isolation:isolate;}.cls-2{fill:#1b2135;}.cls-3,.cls-6{fill:none;}.cls-3{stroke:#beffff;stroke-miterlimit:10;}.cls-4{fill:#beffff;}.cls-5{fill:#2c5166;}.cls-7{fill:#58acc6;}.cls-8{fill:#73e0dd;}.cls-9{fill:#43a3ba;}.cls-10,.cls-11,.cls-12,.cls-13,.cls-14{opacity:0.29;mix-blend-mode:color-dodge;}.cls-10{fill:url(#Degradado_sin_nombre_18);}.cls-11{fill:url(#Degradado_sin_nombre_18-2);}.cls-12{fill:url(#Degradado_sin_nombre_18-3);}.cls-13{fill:url(#Degradado_sin_nombre_18-4);}.cls-14{fill:url(#Degradado_sin_nombre_18-5);}</style><radialGradient id="Degradado_sin_nombre_18" cx="245.81" cy="146.65" r="98.67" gradientUnits="userSpaceOnUse"><stop offset="0" stop-color="#fff"/><stop offset="0.21" stop-color="#b8b8b8"/><stop offset="0.42" stop-color="#777"/><stop offset="0.61" stop-color="#444"/><stop offset="0.78" stop-color="#1f1f1f"/><stop offset="0.91" stop-color="#080808"/><stop offset="1"/></radialGradient><radialGradient id="Degradado_sin_nombre_18-2" cx="424.48" cy="154.82" r="50.5" xlink:href="#Degradado_sin_nombre_18"/><radialGradient id="Degradado_sin_nombre_18-3" cx="245.81" cy="256.82" r="50.5" xlink:href="#Degradado_sin_nombre_18"/><radialGradient id="Degradado_sin_nombre_18-4" cx="71.56" cy="154.03" r="42.87" xlink:href="#Degradado_sin_nombre_18"/><radialGradient id="Degradado_sin_nombre_18-5" cx="242.56" cy="58.03" r="42.87" xlink:href="#Degradado_sin_nombre_18"/></defs><title>3</title><g class="cls-1"><g id="BACKGROUND"><rect class="cls-2" width="494.66" height="378.41"/></g><g id="OBJECTS"><polygon class="cls-3" points="240.77 117.39 352.71 183.05 241.33 247.87 128.28 183.1 240.77 117.39"/><polyline class="cls-3" points="224.84 238.37 160.12 275.99 207.99 303.56 223.59 294.38"/><polygon class="cls-3" points="241.74 266.57 208.22 284.89 239.93 303.46 271.78 284.61 241.74 266.57"/><polygon class="cls-3" points="417.06 164.47 386.19 183.19 416.92 201.63 448.91 182.77 417.06 164.47"/><polygon class="cls-3" points="240.35 62.78 207.99 80.8 240.02 99.61 271.92 81.22 240.35 62.78"/><polygon class="cls-3" points="63.64 164.8 31.42 183.24 63.83 202.05 95.86 183.14 63.64 164.8"/><line class="cls-3" x1="256.41" y1="293.97" x2="288.26" y2="312.96"/><line class="cls-3" x1="272.43" y1="303.37" x2="272.34" y2="341.46"/><polyline class="cls-3" points="143.82 173.55 111.97 155.39 79.56 173.55"/><polyline class="cls-3" points="256.97 90.02 287.15 107.9 256.97 126.06"/><polyline class="cls-3" points="401.51 174.02 368.45 154.83 336.6 173.55"/><polyline class="cls-3" points="288.54 220.21 352.8 256.81 320.3 275.43 400.57 322.18"/><polyline class="cls-3" points="304.47 211.18 384.93 256.81 369 266.59 464.55 321.9"/><polyline class="cls-3" points="142.98 190.87 79.28 229.43 63.92 220.49 47.43 229.99"/><polyline class="cls-3" points="159.37 201.68 110.2 229.61 128.08 238.93 79.28 265.75"/><polyline class="cls-3" points="208.17 228.5 128.08 275.43 143.73 285.49 79.84 321.9"/><polyline class="cls-3" points="337.25 228.87 352.52 219.74 384.74 220.12 401.13 229.61"/><line class="cls-3" x1="321.23" y1="219.93" x2="353.64" y2="201.21"/><polyline class="cls-3" points="256.41 238.65 289.1 257.09 288.82 293.13 338.37 323.12"/><polyline class="cls-3" points="239.93 303.46 240.21 340.06 206.12 359.06"/><polyline class="cls-3" points="191.32 238.65 175.95 229.15 159.19 238.93"/><polyline class="cls-3" points="305.4 154.74 367.98 117.12 336.32 98.49 402.53 60.96"/><polyline class="cls-3" points="159.75 164.89 112.06 136.11 144.47 117.49 126.59 108.18"/><polyline class="cls-3" points="175.39 155.11 144.1 136.95 176.23 118.23 96.05 71.86"/><polyline class="cls-3" points="272.62 135.93 304.28 118.05 319.55 127.73 335.2 117.67 304.65 99.05 337.06 80.61"/><polyline class="cls-3" points="191.18 294.31 160.59 312.4 191.6 331.12"/><polyline class="cls-3" points="368.4 154.86 416.79 126.25 400.49 117.87"/><polyline class="cls-3" points="225.68 71.67 192.16 53.6 245.21 22.49"/><circle class="cls-4" cx="244.62" cy="22.55" r="4.4"/><circle class="cls-4" cx="96.07" cy="35.14" r="4.4"/><circle class="cls-4" cx="95.6" cy="71.46" r="4.4"/><circle class="cls-4" cx="125.78" cy="107.97" r="4.4"/><circle class="cls-4" cx="80.8" cy="321.42" r="4.4"/><circle class="cls-4" cx="159.19" cy="238.65" r="4.4"/><circle class="cls-4" cx="80.12" cy="265.75" r="4.4"/><circle class="cls-4" cx="47.99" cy="229.71" r="4.4"/><circle class="cls-4" cx="207.8" cy="358.69" r="4.4"/><circle class="cls-4" cx="191.32" cy="330.84" r="4.4"/><circle class="cls-4" cx="272.34" cy="340.44" r="4.4"/><circle class="cls-4" cx="288.64" cy="313.24" r="4.4"/><circle class="cls-4" cx="337.06" cy="322.28" r="4.4"/><circle class="cls-4" cx="400.95" cy="322.37" r="4.4"/><circle class="cls-4" cx="465.11" cy="321.62" r="4.4"/><circle class="cls-4" cx="400.9" cy="229.75" r="4.4"/><circle class="cls-4" cx="353.13" cy="201.26" r="4.4"/><circle class="cls-4" cx="400.45" cy="116.89" r="4.4"/><circle class="cls-4" cx="400.85" cy="62.36" r="4.4"/><circle class="cls-4" cx="336.36" cy="80.52" r="4.4"/><line class="cls-3" x1="433.54" y1="173.55" x2="464.55" y2="154.83"/><polyline class="cls-3" points="64.1 165.03 31.23 145.89 47.71 135"/><circle class="cls-4" cx="464.51" cy="154.97" r="4.4"/><circle class="cls-4" cx="47.55" cy="134.79" r="4.4"/><circle class="cls-4" cx="62.82" cy="107.59" r="4.4"/><polyline class="cls-3" points="433.54 229.61 385.12 201.3 352.52 219.74"/><circle class="cls-4" cx="433.03" cy="229.75" r="4.4"/><line class="cls-3" x1="112.07" y1="136.11" x2="63.27" y2="107.8"/><polygon class="cls-3" points="240.93 146.17 303.97 183.15 241.24 219.65 177.58 183.18 240.93 146.17"/><polyline class="cls-3" points="224.56 127.55 176.14 99.98 192.16 90.3 96.61 35.54"/><circle class="cls-4" cx="133.57" cy="24.39" r="4.4"/><polyline class="cls-3" points="133.62 57.32 162.62 41.65 133.62 24.32"/><polygon class="cls-5" points="240.93 146.75 178.58 183.17 241.24 219.07 302.98 183.15 240.93 146.75"/><path class="cls-6" d="M205.9,106.49c2-4.43,5.78-10.23,10.87-12.71a8.87,8.87,0,0,1,2.84-.89,9,9,0,0,1,1.45,5.17l-.25,12.32-16.42,9.51-.09-4.62A22.28,22.28,0,0,1,205.9,106.49Z" transform="translate(28.68 15.15)"/><path class="cls-7" d="M182,178.26l0-42.65a4.82,4.82,0,0,1,2.4-4.16l6.49-3.75.07,2.89,0,0,6.6,3.28,7-4.53-.18-9.43,16.42-9.51-.05,2.44h0l6.63,3.27,7.49-4.18-.08-7.85a2.71,2.71,0,0,1,.57.44L246,110.94l0,0a2.88,2.88,0,0,0-3.11-.15l-47.42,27.46a4.81,4.81,0,0,0-2.4,4.16l0,42.64a4.76,4.76,0,0,0,2.54,4.24v0l-11-6.91A4.75,4.75,0,0,1,182,178.26Z" transform="translate(28.68 15.15)"/><path class="cls-8" d="M192.94,185.09l0-42.64a4.81,4.81,0,0,1,2.4-4.16l47.42-27.46a2.88,2.88,0,0,1,3.11.15,2.85,2.85,0,0,1,1.27,2.36l.26,44.36a4.81,4.81,0,0,1-2.3,4.14L200.25,189.2a4.81,4.81,0,0,1-7.31-4.11Z" transform="translate(28.68 15.15)"/><path class="cls-9" d="M219.61,92.89a6.5,6.5,0,0,1,5.59,2,8.79,8.79,0,0,1,2.49,6.45l-.29,14.76-6.63-3.27h0l.05-2.44.25-12.32A9,9,0,0,0,219.61,92.89Z" transform="translate(28.68 15.15)"/><path class="cls-9" d="M219.43,84.41c-11,1.59-19.32,12.51-21.92,24.48a18.08,18.08,0,0,0-.39,4.22l.48,20.74-6.6-3.28,0,0-.07-2.89-.41-17.85a18.07,18.07,0,0,1,.38-4.22c2.6-12,11-22.9,21.93-24.48a12.43,12.43,0,0,1,7.33,1.13,43.16,43.16,0,0,1,8.09,4.06A12.66,12.66,0,0,0,219.43,84.41Z" transform="translate(28.68 15.15)"/><path class="cls-8" d="M234.89,111.9l-7.49,4.18.29-14.76a8.79,8.79,0,0,0-2.49-6.45,6.5,6.5,0,0,0-5.59-2,8.87,8.87,0,0,0-2.84.89c-5.09,2.48-8.85,8.28-10.87,12.71a22.28,22.28,0,0,0-1.6,8.78l.09,4.62.18,9.43-7,4.53-.48-20.74a18.08,18.08,0,0,1,.39-4.22c2.6-12,11-22.89,21.92-24.48a12.66,12.66,0,0,1,8.79,1.93,16.87,16.87,0,0,1,2.22,1.7,13.44,13.44,0,0,1,4.32,9.8l.05,6.21Z" transform="translate(28.68 15.15)"/><path class="cls-5" d="M224.41,146.28s4.61-3.64,2.8-7.69-7.69-2.38-10.21,1.54-2.52,9.22,1.68,9.08v18.18l5.87-3.49Z" transform="translate(28.68 15.15)"/><path class="cls-7" d="M196.1,261.42c6.19,7.58,11.72,9.6,11.72,9.6l4.21,1.41,3.28.91-1.22-3.29a73.32,73.32,0,0,0,15.21-44.22,19.14,19.14,0,0,0,3.25-3.33l-6-2.08s-10.46,8.91-19.11,6.14c0,0-4.8,10.25-19.2,13.23A36.54,36.54,0,0,0,196.1,261.42Z" transform="translate(28.68 15.15)"/><path class="cls-8" d="M195.77,242.11c14.41-3,19.21-13.24,19.21-13.24,5.77,1.85,11.65-1.6,14.94-4.11a26.64,26.64,0,0,0,2.63-2.26c1.21,32.17-17.24,50.84-17.24,50.84a18.76,18.76,0,0,1-3.6-2,38.58,38.58,0,0,1-8.11-7.6A36.57,36.57,0,0,1,195.77,242.11Z" transform="translate(28.68 15.15)"/><path class="cls-5" d="M226.92,241.76s-7.13,14.9-7.53,15.22-15.94-5.6-16.58-6.16.21-2.73,1.09-2.57,13.81,5.05,14.37,5,6.09-12.34,6.65-12.82A1.25,1.25,0,0,1,226.92,241.76Z" transform="translate(28.68 15.15)"/><path class="cls-7" d="M193.12,60.26c6.19,7.58,11.72,9.61,11.72,9.61l4.21,1.4,3.28.91-1.22-3.29a73.28,73.28,0,0,0,15.21-44.21,19,19,0,0,0,3.25-3.34l-6-2.08s-10.46,8.91-19.11,6.14c0,0-4.8,10.25-19.2,13.24A36.52,36.52,0,0,0,193.12,60.26Z" transform="translate(28.68 15.15)"/><path class="cls-8" d="M192.79,41C207.2,38,212,27.72,212,27.72c5.77,1.84,11.65-1.61,14.94-4.11a25.81,25.81,0,0,0,2.63-2.27c1.21,32.18-17.24,50.84-17.24,50.84a18.76,18.76,0,0,1-3.6-2,38.31,38.31,0,0,1-8.11-7.6A36.57,36.57,0,0,1,192.79,41Z" transform="translate(28.68 15.15)"/><path class="cls-5" d="M223.94,40.61s-7.13,14.9-7.53,15.22-15.94-5.61-16.58-6.17.21-2.72,1.09-2.56,13.81,5,14.37,5,6.09-12.33,6.65-12.81A1.25,1.25,0,0,1,223.94,40.61Z" transform="translate(28.68 15.15)"/><path class="cls-7" d="M374.16,162.33c6.19,7.58,11.72,9.61,11.72,9.61l4.21,1.4,3.29.91L392.15,171a73.29,73.29,0,0,0,15.21-44.22,19.14,19.14,0,0,0,3.25-3.33l-6-2.08s-10.46,8.91-19.11,6.14c0,0-4.8,10.25-19.2,13.24A36.52,36.52,0,0,0,374.16,162.33Z" transform="translate(28.68 15.15)"/><path class="cls-8" d="M373.84,143c14.4-3,19.2-13.23,19.2-13.23,5.77,1.84,11.65-1.61,14.94-4.11a25.81,25.81,0,0,0,2.63-2.27c1.21,32.18-17.23,50.84-17.23,50.84a18.62,18.62,0,0,1-3.61-2,38.58,38.58,0,0,1-8.11-7.6A36.52,36.52,0,0,1,373.84,143Z" transform="translate(28.68 15.15)"/><path class="cls-5" d="M405,142.68s-7.13,14.9-7.53,15.22-15.94-5.61-16.58-6.17.21-2.73,1.09-2.57,13.81,5.05,14.37,5,6.09-12.34,6.65-12.82A1.26,1.26,0,0,1,405,142.68Z" transform="translate(28.68 15.15)"/><path class="cls-7" d="M21,160.09c6.19,7.59,11.71,9.61,11.71,9.61L37,171.11l3.28.9L39,168.72a73.28,73.28,0,0,0,15.21-44.21,19.14,19.14,0,0,0,3.25-3.33l-6-2.08S41.05,128,32.4,125.24c0,0-4.8,10.25-19.2,13.23A36.52,36.52,0,0,0,21,160.09Z" transform="translate(28.68 15.15)"/><path class="cls-8" d="M20.69,140.78c14.41-3,19.21-13.23,19.21-13.23,5.76,1.85,11.65-1.6,14.94-4.11a26.64,26.64,0,0,0,2.63-2.26C58.68,153.35,40.23,172,40.23,172a19,19,0,0,1-3.6-2,38.58,38.58,0,0,1-8.11-7.6A36.59,36.59,0,0,1,20.69,140.78Z" transform="translate(28.68 15.15)"/><path class="cls-5" d="M51.84,140.44s-7.13,14.9-7.53,15.22-15.94-5.61-16.58-6.17.21-2.72,1.09-2.56,13.81,5,14.37,5,6.09-12.34,6.65-12.82A1.25,1.25,0,0,1,51.84,140.44Z" transform="translate(28.68 15.15)"/><circle class="cls-10" cx="245.81" cy="146.65" r="98.67"/><circle class="cls-11" cx="424.48" cy="154.82" r="50.5"/><circle class="cls-12" cx="245.81" cy="256.82" r="50.5"/><circle class="cls-13" cx="71.56" cy="154.03" r="42.87"/><circle class="cls-14" cx="242.56" cy="58.03" r="42.87"/></g></g></svg>