<svg xmlns="http://www.w3.org/2000/svg" xmlns:xlink="http://www.w3.org/1999/xlink" viewBox="0 0 1215.08 500" width="600"><defs><style>.cls-1{fill:none;}.cls-2{fill:url(#Degradado_sin_nombre_468);}.cls-3{fill:url(#Degradado_sin_nombre_962);}.cls-4{fill:url(#Degradado_sin_nombre_962-2);}.cls-5{fill:url(#Degradado_sin_nombre_962-3);}.cls-6{fill:url(#Degradado_sin_nombre_962-4);}.cls-7{fill:url(#Degradado_sin_nombre_962-5);}.cls-8{fill:url(#Degradado_sin_nombre_962-6);}.cls-9{fill:url(#Degradado_sin_nombre_962-7);}.cls-10{fill:url(#Degradado_sin_nombre_962-8);}.cls-11{fill:url(#Degradado_sin_nombre_962-9);}.cls-12{fill:url(#Degradado_sin_nombre_962-10);}.cls-13{fill:url(#Degradado_sin_nombre_962-11);}.cls-14{fill:url(#Degradado_sin_nombre_962-12);}.cls-15{fill:url(#Degradado_sin_nombre_962-13);}.cls-16{fill:url(#Degradado_sin_nombre_962-14);}.cls-17{fill:url(#Degradado_sin_nombre_962-15);}.cls-18{fill:url(#Degradado_sin_nombre_962-16);}.cls-19{opacity:0.24;}.cls-20{fill:url(#Degradado_sin_nombre_160);}.cls-21{fill:#0dffff;}.cls-22{fill:#60ffff;}.cls-23{fill:#082337;}.cls-24{fill:url(#Degradado_sin_nombre_160-2);}.cls-25{opacity:0.31;fill:url(#Degradado_sin_nombre_1159);}.cls-26{fill:url(#Degradado_sin_nombre_962-17);}.cls-27{fill:url(#Degradado_sin_nombre_962-18);}.cls-28{fill:url(#Degradado_sin_nombre_962-19);}.cls-29{fill:url(#Degradado_sin_nombre_962-20);}.cls-30{fill:url(#Degradado_sin_nombre_962-21);}.cls-31{fill:url(#Degradado_sin_nombre_962-22);}.cls-32{fill:url(#Degradado_sin_nombre_962-23);}.cls-33{fill:url(#Degradado_sin_nombre_962-24);}.cls-34{fill:url(#Degradado_sin_nombre_1549);}.cls-35{fill:url(#Degradado_sin_nombre_1190);}.cls-36{fill:url(#Degradado_sin_nombre_933);}.cls-37{fill:url(#Degradado_sin_nombre_944);}.cls-38{fill:url(#Degradado_sin_nombre_944-2);}.cls-39{fill:url(#Degradado_sin_nombre_944-3);}.cls-40{fill:url(#Degradado_sin_nombre_944-4);}.cls-41{fill:url(#Degradado_sin_nombre_944-5);}.cls-42{clip-path:url(#clip-path);}.cls-43{fill:url(#Degradado_sin_nombre_999);}.cls-44{fill:url(#Degradado_sin_nombre_999-2);}.cls-45{fill:url(#Degradado_sin_nombre_999-3);}.cls-46{fill:url(#Degradado_sin_nombre_999-4);}.cls-47{fill:url(#Degradado_sin_nombre_999-5);}.cls-48{fill:url(#Degradado_sin_nombre_999-6);}.cls-49{fill:url(#Degradado_sin_nombre_999-7);}.cls-50{fill:url(#Degradado_sin_nombre_999-8);}.cls-51{fill:url(#Degradado_sin_nombre_999-9);}.cls-52{fill:url(#Degradado_sin_nombre_999-10);}.cls-53{fill:url(#Degradado_sin_nombre_999-11);}.cls-54{fill:url(#Degradado_sin_nombre_999-12);}.cls-55{fill:url(#Degradado_sin_nombre_999-13);}.cls-56{fill:url(#Degradado_sin_nombre_999-14);}.cls-57{fill:url(#Degradado_sin_nombre_999-15);}.cls-58{fill:url(#Degradado_sin_nombre_999-16);}.cls-59{fill:url(#Degradado_sin_nombre_996);}.cls-60{fill:url(#Degradado_sin_nombre_996-2);}.cls-61{fill:url(#Degradado_sin_nombre_996-3);}.cls-62{fill:url(#Degradado_sin_nombre_996-4);}.cls-63{fill:url(#Degradado_sin_nombre_996-5);}.cls-64{fill:url(#Degradado_sin_nombre_996-6);}.cls-65{fill:url(#Degradado_sin_nombre_996-7);}.cls-66{fill:url(#Degradado_sin_nombre_996-8);}.cls-67{fill:url(#Degradado_sin_nombre_1038);}.cls-68{fill:url(#Degradado_sin_nombre_1190-2);}.cls-69{clip-path:url(#clip-path-2);}.cls-70{fill:url(#Degradado_sin_nombre_160-3);}.cls-71{fill:url(#Degradado_sin_nombre_160-4);}.cls-72{fill:#fff;}</style><linearGradient id="Degradado_sin_nombre_468" x1="250" y1="526" x2="250" y2="-15.06" gradientUnits="userSpaceOnUse"><stop offset="0" stop-color="#000045"/><stop offset="0.12" stop-color="#000447"/><stop offset="0.24" stop-color="#00114d"/><stop offset="0.37" stop-color="#002658"/><stop offset="0.5" stop-color="#004467"/><stop offset="0.63" stop-color="#006a7a"/><stop offset="0.76" stop-color="#009891"/><stop offset="0.9" stop-color="#00cfac"/><stop offset="1" stop-color="#00ffc4"/></linearGradient><linearGradient id="Degradado_sin_nombre_962" x1="431.17" y1="295.65" x2="431.17" y2="177.26" gradientTransform="translate(156.45 861.08) rotate(-90)" gradientUnits="userSpaceOnUse"><stop offset="0" stop-color="#000045" stop-opacity="0"/><stop offset="0.01" stop-color="#000246" stop-opacity="0.01"/><stop offset="0.17" stop-color="#004469" stop-opacity="0.27"/><stop offset="0.34" stop-color="#007d86" stop-opacity="0.49"/><stop offset="0.49" stop-color="#00ac9f" stop-opacity="0.67"/><stop offset="0.64" stop-color="#00d0b1" stop-opacity="0.82"/><stop offset="0.78" stop-color="#00eabf" stop-opacity="0.92"/><stop offset="0.9" stop-color="#00fac7" stop-opacity="0.98"/><stop offset="1" stop-color="#00ffca"/></linearGradient><linearGradient id="Degradado_sin_nombre_962-2" x1="417.88" y1="295.65" x2="417.88" y2="177.26" xlink:href="#Degradado_sin_nombre_962"/><linearGradient id="Degradado_sin_nombre_962-3" x1="458.15" y1="264.13" x2="458.15" y2="177.26" xlink:href="#Degradado_sin_nombre_962"/><linearGradient id="Degradado_sin_nombre_962-4" x1="448.39" y1="264.13" x2="448.39" y2="177.26" xlink:href="#Degradado_sin_nombre_962"/><linearGradient id="Degradado_sin_nombre_962-5" x1="481.91" y1="239.94" x2="481.91" y2="177.26" xlink:href="#Degradado_sin_nombre_962"/><linearGradient id="Degradado_sin_nombre_962-6" x1="474.87" y1="239.94" x2="474.87" y2="177.26" xlink:href="#Degradado_sin_nombre_962"/><linearGradient id="Degradado_sin_nombre_962-7" x1="501.59" y1="223.25" x2="501.59" y2="177.26" xlink:href="#Degradado_sin_nombre_962"/><linearGradient id="Degradado_sin_nombre_962-8" x1="496.42" y1="223.25" x2="496.42" y2="177.26" xlink:href="#Degradado_sin_nombre_962"/><linearGradient id="Degradado_sin_nombre_962-9" x1="519.65" y1="213.83" x2="519.65" y2="177.26" xlink:href="#Degradado_sin_nombre_962"/><linearGradient id="Degradado_sin_nombre_962-10" x1="515.54" y1="213.83" x2="515.54" y2="177.26" xlink:href="#Degradado_sin_nombre_962"/><linearGradient id="Degradado_sin_nombre_962-11" x1="534.95" y1="204.09" x2="534.95" y2="177.26" xlink:href="#Degradado_sin_nombre_962"/><linearGradient id="Degradado_sin_nombre_962-12" x1="531.94" y1="204.09" x2="531.94" y2="177.26" xlink:href="#Degradado_sin_nombre_962"/><linearGradient id="Degradado_sin_nombre_962-13" x1="431.17" y1="-16.14" x2="431.17" y2="-134.54" gradientTransform="matrix(0, -1, -1, 0, 74.37, 861.08)" xlink:href="#Degradado_sin_nombre_962"/><linearGradient id="Degradado_sin_nombre_962-14" x1="417.88" y1="-16.14" x2="417.88" y2="-134.54" gradientTransform="matrix(0, -1, -1, 0, 74.37, 861.08)" xlink:href="#Degradado_sin_nombre_962"/><linearGradient id="Degradado_sin_nombre_962-15" x1="458.15" y1="-47.67" x2="458.15" y2="-134.54" gradientTransform="matrix(0, -1, -1, 0, 74.37, 861.08)" xlink:href="#Degradado_sin_nombre_962"/><linearGradient id="Degradado_sin_nombre_962-16" x1="448.39" y1="-47.67" x2="448.39" y2="-134.54" gradientTransform="matrix(0, -1, -1, 0, 74.37, 861.08)" xlink:href="#Degradado_sin_nombre_962"/><radialGradient id="Degradado_sin_nombre_160" cx="384.15" cy="290.07" r="100.98" gradientUnits="userSpaceOnUse"><stop offset="0" stop-color="#a3ffff"/><stop offset="0.27" stop-color="aqua"/><stop offset="0.49" stop-color="#6ff"/><stop offset="0.77" stop-color="#004381"/><stop offset="0.99" stop-color="aqua"/></radialGradient><radialGradient id="Degradado_sin_nombre_160-2" cx="202.15" cy="-84.54" r="111.53" gradientTransform="matrix(0, -1, -1, 0, 84.72, 576.93)" xlink:href="#Degradado_sin_nombre_160"/><linearGradient id="Degradado_sin_nombre_1159" x1="251.64" y1="193.57" x2="251.64" y2="38.37" gradientUnits="userSpaceOnUse"><stop offset="0.07" stop-color="#00d67f" stop-opacity="0"/><stop offset="0.11" stop-color="#09d987" stop-opacity="0.06"/><stop offset="0.35" stop-color="#37e6ae" stop-opacity="0.39"/><stop offset="0.56" stop-color="#5cf1cd" stop-opacity="0.65"/><stop offset="0.73" stop-color="#77f8e4" stop-opacity="0.84"/><stop offset="0.86" stop-color="#87fdf2" stop-opacity="0.96"/><stop offset="0.94" stop-color="#8dfff7"/></linearGradient><linearGradient id="Degradado_sin_nombre_962-17" x1="388.64" y1="326.44" x2="388.64" y2="142.63" gradientTransform="matrix(1, 0, 0, 1, 0, 0)" xlink:href="#Degradado_sin_nombre_962"/><linearGradient id="Degradado_sin_nombre_962-18" x1="446.1" y1="263.55" x2="446.1" y2="205.52" gradientTransform="matrix(1, 0, 0, 1, 0, 0)" xlink:href="#Degradado_sin_nombre_962"/><linearGradient id="Degradado_sin_nombre_962-19" x1="472.38" y1="366" x2="472.38" y2="-65.74" gradientTransform="matrix(1, 0, 0, 1, 0, 0)" xlink:href="#Degradado_sin_nombre_962"/><linearGradient id="Degradado_sin_nombre_962-20" x1="412.2" y1="295.88" x2="412.2" y2="173.19" gradientTransform="matrix(1, 0, 0, -1, 0, 469.07)" xlink:href="#Degradado_sin_nombre_962"/><linearGradient id="Degradado_sin_nombre_962-21" x1="33.62" y1="326.44" x2="33.62" y2="142.63" gradientTransform="matrix(-1, 0, 0, 1, 145.89, 0)" xlink:href="#Degradado_sin_nombre_962"/><linearGradient id="Degradado_sin_nombre_962-22" x1="91.08" y1="263.55" x2="91.08" y2="205.52" gradientTransform="matrix(-1, 0, 0, 1, 145.89, 0)" xlink:href="#Degradado_sin_nombre_962"/><linearGradient id="Degradado_sin_nombre_962-23" x1="117.36" y1="366" x2="117.36" y2="-65.74" gradientTransform="matrix(-1, 0, 0, 1, 145.89, 0)" xlink:href="#Degradado_sin_nombre_962"/><linearGradient id="Degradado_sin_nombre_962-24" x1="57.18" y1="295.88" x2="57.18" y2="173.19" gradientTransform="translate(145.89 469.07) rotate(180)" xlink:href="#Degradado_sin_nombre_962"/><linearGradient id="Degradado_sin_nombre_1549" x1="241.53" y1="508.11" x2="241.53" y2="148.4" gradientUnits="userSpaceOnUse"><stop offset="0" stop-color="#000045" stop-opacity="0"/><stop offset="0.08" stop-color="#031753" stop-opacity="0.09"/><stop offset="0.42" stop-color="#0f798f" stop-opacity="0.47"/><stop offset="0.7" stop-color="#18c1bb" stop-opacity="0.76"/><stop offset="0.9" stop-color="#1eeed7" stop-opacity="0.93"/><stop offset="1" stop-color="#20ffe1"/></linearGradient><linearGradient id="Degradado_sin_nombre_1190" x1="241.53" y1="317.74" x2="241.53" y2="133.06" gradientUnits="userSpaceOnUse"><stop offset="0" stop-color="#000045" stop-opacity="0"/><stop offset="0.07" stop-color="#0b1857" stop-opacity="0.09"/><stop offset="0.27" stop-color="#2a5d89" stop-opacity="0.37"/><stop offset="0.46" stop-color="#4497b3" stop-opacity="0.59"/><stop offset="0.63" stop-color="#58c4d4" stop-opacity="0.77"/><stop offset="0.78" stop-color="#67e4eb" stop-opacity="0.89"/><stop offset="0.91" stop-color="#70f8fa" stop-opacity="0.97"/><stop offset="1" stop-color="#73ffff"/></linearGradient><linearGradient id="Degradado_sin_nombre_933" x1="271.3" y1="479.79" x2="271.3" y2="387.38" gradientUnits="userSpaceOnUse"><stop offset="0" stop-color="#000045" stop-opacity="0"/><stop offset="0.09" stop-color="#020d4d" stop-opacity="0.05"/><stop offset="0.26" stop-color="#063163" stop-opacity="0.19"/><stop offset="0.49" stop-color="#0d6a86" stop-opacity="0.42"/><stop offset="0.77" stop-color="#17b8b6" stop-opacity="0.72"/><stop offset="1" stop-color="#20ffe1"/></linearGradient><linearGradient id="Degradado_sin_nombre_944" x1="271.3" y1="467.95" x2="271.3" y2="404.24" gradientUnits="userSpaceOnUse"><stop offset="0" stop-color="#20ffe1"/><stop offset="0.23" stop-color="#17b8b6" stop-opacity="0.72"/><stop offset="0.51" stop-color="#0d6a86" stop-opacity="0.42"/><stop offset="0.74" stop-color="#063163" stop-opacity="0.19"/><stop offset="0.91" stop-color="#020d4d" stop-opacity="0.05"/><stop offset="1" stop-color="#000045" stop-opacity="0"/></linearGradient><linearGradient id="Degradado_sin_nombre_944-2" x1="271.3" y1="453.34" x2="271.3" y2="404.67" xlink:href="#Degradado_sin_nombre_944"/><linearGradient id="Degradado_sin_nombre_944-3" x1="271.3" y1="436.78" x2="271.3" y2="401.69" xlink:href="#Degradado_sin_nombre_944"/><linearGradient id="Degradado_sin_nombre_944-4" x1="271.3" y1="418" x2="271.3" y2="393.12" xlink:href="#Degradado_sin_nombre_944"/><linearGradient id="Degradado_sin_nombre_944-5" x1="271.3" y1="402.48" x2="271.3" y2="377.6" xlink:href="#Degradado_sin_nombre_944"/><clipPath id="clip-path" transform="translate(0 0)"><path class="cls-1" d="M366.65,234.24C365.41,176.16,317.79,129,259.7,128.33A108.33,108.33,0,0,0,157.57,197h0c-1.74,4.43-39.81,85.78-39.81,85.78a13.27,13.27,0,0,0,11.91,19.13h10.8l5.43,55.72a24,24,0,0,0,23.85,21.64H194.3a19.39,19.39,0,0,1,19.39,19.39V441.4c0-9.62,25.79-17.41,57.61-17.41s57.61,7.79,57.61,17.41V318.79h0A108.09,108.09,0,0,0,366.65,234.24Z"/></clipPath><linearGradient id="Degradado_sin_nombre_999" x1="696.26" y1="475.45" x2="696.26" y2="339.62" gradientTransform="translate(-543.42 -209.3)" gradientUnits="userSpaceOnUse"><stop offset="0" stop-color="#00d67f" stop-opacity="0"/><stop offset="0.01" stop-color="#01d680" stop-opacity="0.01"/><stop offset="0.17" stop-color="#26e19f" stop-opacity="0.27"/><stop offset="0.34" stop-color="#45eaba" stop-opacity="0.49"/><stop offset="0.49" stop-color="#5ff2d0" stop-opacity="0.67"/><stop offset="0.64" stop-color="#73f7e1" stop-opacity="0.82"/><stop offset="0.78" stop-color="#81fced" stop-opacity="0.92"/><stop offset="0.9" stop-color="#8afef4" stop-opacity="0.98"/><stop offset="1" stop-color="#8dfff7"/></linearGradient><linearGradient id="Degradado_sin_nombre_999-2" x1="681.01" y1="475.45" x2="681.01" y2="339.62" xlink:href="#Degradado_sin_nombre_999"/><linearGradient id="Degradado_sin_nombre_999-3" x1="726.78" y1="475.45" x2="726.78" y2="339.62" xlink:href="#Degradado_sin_nombre_999"/><linearGradient id="Degradado_sin_nombre_999-4" x1="711.52" y1="475.45" x2="711.52" y2="339.62" xlink:href="#Degradado_sin_nombre_999"/><linearGradient id="Degradado_sin_nombre_999-5" x1="757.29" y1="475.45" x2="757.29" y2="339.62" xlink:href="#Degradado_sin_nombre_999"/><linearGradient id="Degradado_sin_nombre_999-6" x1="742.03" y1="475.45" x2="742.03" y2="339.62" xlink:href="#Degradado_sin_nombre_999"/><linearGradient id="Degradado_sin_nombre_999-7" x1="787.8" y1="475.45" x2="787.8" y2="339.62" xlink:href="#Degradado_sin_nombre_999"/><linearGradient id="Degradado_sin_nombre_999-8" x1="772.54" y1="475.45" x2="772.54" y2="339.62" xlink:href="#Degradado_sin_nombre_999"/><linearGradient id="Degradado_sin_nombre_999-9" x1="817.58" y1="475.45" x2="817.58" y2="339.62" xlink:href="#Degradado_sin_nombre_999"/><linearGradient id="Degradado_sin_nombre_999-10" x1="802.32" y1="475.45" x2="802.32" y2="339.62" xlink:href="#Degradado_sin_nombre_999"/><linearGradient id="Degradado_sin_nombre_999-11" x1="848.09" y1="475.45" x2="848.09" y2="339.62" xlink:href="#Degradado_sin_nombre_999"/><linearGradient id="Degradado_sin_nombre_999-12" x1="832.84" y1="475.45" x2="832.84" y2="339.62" xlink:href="#Degradado_sin_nombre_999"/><linearGradient id="Degradado_sin_nombre_999-13" x1="878.61" y1="475.45" x2="878.61" y2="339.62" xlink:href="#Degradado_sin_nombre_999"/><linearGradient id="Degradado_sin_nombre_999-14" x1="863.35" y1="475.45" x2="863.35" y2="339.62" xlink:href="#Degradado_sin_nombre_999"/><linearGradient id="Degradado_sin_nombre_999-15" x1="909.12" y1="475.45" x2="909.12" y2="339.62" xlink:href="#Degradado_sin_nombre_999"/><linearGradient id="Degradado_sin_nombre_999-16" x1="893.86" y1="475.45" x2="893.86" y2="339.62" xlink:href="#Degradado_sin_nombre_999"/><linearGradient id="Degradado_sin_nombre_996" x1="718.99" y1="337.39" x2="718.99" y2="212.22" gradientTransform="matrix(-1, 0, 0, 1, 1011.03, 31.75)" gradientUnits="userSpaceOnUse"><stop offset="0" stop-color="#00d67f" stop-opacity="0"/><stop offset="0.01" stop-color="#00d680" stop-opacity="0.01"/><stop offset="0.17" stop-color="#0ae19f" stop-opacity="0.27"/><stop offset="0.34" stop-color="#12eaba" stop-opacity="0.49"/><stop offset="0.49" stop-color="#18f2d0" stop-opacity="0.67"/><stop offset="0.64" stop-color="#1df7e1" stop-opacity="0.82"/><stop offset="0.78" stop-color="#21fced" stop-opacity="0.92"/><stop offset="0.9" stop-color="#23fef4" stop-opacity="0.98"/><stop offset="1" stop-color="#24fff7"/></linearGradient><linearGradient id="Degradado_sin_nombre_996-2" x1="704.93" y1="337.39" x2="704.93" y2="212.22" xlink:href="#Degradado_sin_nombre_996"/><linearGradient id="Degradado_sin_nombre_996-3" x1="746.82" y1="337.39" x2="746.82" y2="212.22" xlink:href="#Degradado_sin_nombre_996"/><linearGradient id="Degradado_sin_nombre_996-4" x1="733.04" y1="337.39" x2="733.04" y2="212.22" xlink:href="#Degradado_sin_nombre_996"/><linearGradient id="Degradado_sin_nombre_996-5" x1="773.4" y1="337.39" x2="773.4" y2="212.22" xlink:href="#Degradado_sin_nombre_996"/><linearGradient id="Degradado_sin_nombre_996-6" x1="759.62" y1="337.39" x2="759.62" y2="212.22" xlink:href="#Degradado_sin_nombre_996"/><linearGradient id="Degradado_sin_nombre_996-7" x1="801.51" y1="337.39" x2="801.51" y2="212.22" xlink:href="#Degradado_sin_nombre_996"/><linearGradient id="Degradado_sin_nombre_996-8" x1="787.46" y1="337.39" x2="787.46" y2="212.22" xlink:href="#Degradado_sin_nombre_996"/><radialGradient id="Degradado_sin_nombre_1038" cx="256.94" cy="173.06" r="110.06" gradientTransform="translate(0 71.76) scale(1 0.59)" gradientUnits="userSpaceOnUse"><stop offset="0" stop-color="#0039af" stop-opacity="0"/><stop offset="0.26" stop-color="#0973be" stop-opacity="0.29"/><stop offset="0.63" stop-color="#15bed0" stop-opacity="0.67"/><stop offset="0.88" stop-color="#1deddc" stop-opacity="0.91"/><stop offset="1" stop-color="#20ffe1"/></radialGradient><linearGradient id="Degradado_sin_nombre_1190-2" x1="182.18" y1="182.19" x2="333.7" y2="182.19" xlink:href="#Degradado_sin_nombre_1190"/><clipPath id="clip-path-2" transform="translate(0 0)"><path class="cls-1" d="M295.58,239.18H220.3a38.23,38.23,0,0,1-38.12-38.12h0a38.23,38.23,0,0,1,38.12-38.12h75.28a38.23,38.23,0,0,1,38.12,38.12h0A38.23,38.23,0,0,1,295.58,239.18Z"/></clipPath><radialGradient id="Degradado_sin_nombre_160-3" cx="231.1" cy="184.42" r="53.76" xlink:href="#Degradado_sin_nombre_160"/><radialGradient id="Degradado_sin_nombre_160-4" cx="307.93" cy="172.88" r="53.76" xlink:href="#Degradado_sin_nombre_160"/></defs><title>1</title><g id="BACKGROUND_1" data-name="BACKGROUND 1"><rect class="cls-2" width="500" height="500"/><path class="cls-3" d="M437.45,429.91a1,1,0,1,0,1-1A1,1,0,0,0,437.45,429.91Zm-85.07,0a4.36,4.36,0,1,0,4.36-4.36A4.36,4.36,0,0,0,352.38,429.91Zm-9.95,0a4.36,4.36,0,1,0-4.36,4.36A4.36,4.36,0,0,0,342.43,429.91Zm85.41,0a1.44,1.44,0,1,0,1.44-1.44A1.45,1.45,0,0,0,427.84,429.91Zm22.91,0a.68.68,0,1,0,1.35,0,.68.68,0,1,0-1.35,0Zm-5.33,0a.68.68,0,1,0,.68-.68A.69.69,0,0,0,445.42,429.91Zm-60.57,0a3,3,0,1,0,3-3A3,3,0,0,0,384.85,429.91Zm34.29,0a1.44,1.44,0,1,0,1.44-1.44A1.45,1.45,0,0,0,419.14,429.91Zm-49.28,0a4.36,4.36,0,1,0,4.36-4.36A4.36,4.36,0,0,0,369.86,429.91Zm28.52,0a2.19,2.19,0,1,0,2.19-2.19A2.19,2.19,0,0,0,398.38,429.91Zm11.59,0a1.44,1.44,0,1,0,1.44-1.44A1.44,1.44,0,0,0,410,429.91Z" transform="translate(0 0)"/><path class="cls-4" d="M437.45,443.21a1,1,0,1,0,1-1A1,1,0,0,0,437.45,443.21Zm-85.07,0a4.36,4.36,0,1,0,4.36-4.36A4.36,4.36,0,0,0,352.38,443.21Zm-9.95,0a4.36,4.36,0,1,0-4.36,4.35A4.36,4.36,0,0,0,342.43,443.21Zm85.41,0a1.44,1.44,0,1,0,1.44-1.45A1.45,1.45,0,0,0,427.84,443.21Zm22.91,0a.68.68,0,1,0,.68-.68A.67.67,0,0,0,450.75,443.21Zm-5.33,0a.68.68,0,1,0,.68-.68A.68.68,0,0,0,445.42,443.21Zm-60.57,0a3,3,0,1,0,3-3A3,3,0,0,0,384.85,443.21Zm34.29,0a1.44,1.44,0,1,0,1.44-1.45A1.45,1.45,0,0,0,419.14,443.21Zm-49.28,0a4.36,4.36,0,1,0,4.36-4.36A4.36,4.36,0,0,0,369.86,443.21Zm28.52,0a2.19,2.19,0,1,0,2.19-2.19A2.19,2.19,0,0,0,398.38,443.21Zm11.59,0a1.44,1.44,0,1,0,1.44-1.45A1.44,1.44,0,0,0,410,443.21Z" transform="translate(0 0)"/><path class="cls-5" d="M409.83,402.93a.73.73,0,0,0,.72.73.73.73,0,0,0,.73-.73.73.73,0,0,0-.73-.72A.72.72,0,0,0,409.83,402.93Zm-62.42,0a3.2,3.2,0,1,0,3.2-3.19A3.2,3.2,0,0,0,347.41,402.93Zm-7.3,0a3.2,3.2,0,1,0-3.2,3.2A3.19,3.19,0,0,0,340.11,402.93Zm62.67,0a1.06,1.06,0,1,0,1.06-1.05A1.05,1.05,0,0,0,402.78,402.93Zm16.81,0a.5.5,0,1,0,.49-.49A.49.49,0,0,0,419.59,402.93Zm-3.91,0a.5.5,0,1,0,.5-.49A.5.5,0,0,0,415.68,402.93Zm-44.45,0a2.23,2.23,0,1,0,2.23-2.22A2.23,2.23,0,0,0,371.23,402.93Zm25.17,0a1.06,1.06,0,1,0,1.05-1.05A1.05,1.05,0,0,0,396.4,402.93Zm-36.16,0a3.2,3.2,0,1,0,3.19-3.19A3.19,3.19,0,0,0,360.24,402.93Zm20.92,0a1.61,1.61,0,1,0,1.61-1.6A1.6,1.6,0,0,0,381.16,402.93Zm8.51,0a1.06,1.06,0,1,0,1.05-1.05A1.05,1.05,0,0,0,389.67,402.93Z" transform="translate(0 0)"/><path class="cls-6" d="M409.83,412.69a.72.72,0,0,0,.72.72.72.72,0,1,0,0-1.44A.72.72,0,0,0,409.83,412.69Zm-62.42,0a3.2,3.2,0,1,0,3.2-3.2A3.2,3.2,0,0,0,347.41,412.69Zm-7.3,0a3.2,3.2,0,1,0-3.2,3.2A3.2,3.2,0,0,0,340.11,412.69Zm62.67,0a1.06,1.06,0,1,0,1.06-1.06A1.06,1.06,0,0,0,402.78,412.69Zm16.81,0a.5.5,0,1,0,.49-.5A.5.5,0,0,0,419.59,412.69Zm-3.91,0a.5.5,0,1,0,.5-.5A.5.5,0,0,0,415.68,412.69Zm-44.45,0a2.23,2.23,0,1,0,2.23-2.23A2.22,2.22,0,0,0,371.23,412.69Zm25.17,0a1.06,1.06,0,1,0,1.05-1.06A1.06,1.06,0,0,0,396.4,412.69Zm-36.16,0a3.2,3.2,0,1,0,3.19-3.2A3.19,3.19,0,0,0,360.24,412.69Zm20.92,0a1.61,1.61,0,1,0,1.61-1.6A1.61,1.61,0,0,0,381.16,412.69Zm8.51,0a1.06,1.06,0,1,0,1.05-1.06A1.06,1.06,0,0,0,389.67,412.69Z" transform="translate(0 0)"/><path class="cls-7" d="M388.64,379.17a.52.52,0,1,0,.52-.52A.52.52,0,0,0,388.64,379.17Zm-45,0a2.31,2.31,0,1,0,2.3-2.31A2.31,2.31,0,0,0,343.6,379.17Zm-5.27,0a2.31,2.31,0,1,0-2.31,2.31A2.31,2.31,0,0,0,338.33,379.17Zm45.22,0a.76.76,0,0,0,.76.76.76.76,0,1,0,0-1.52A.76.76,0,0,0,383.55,379.17Zm12.13,0a.36.36,0,0,0,.36.36.36.36,0,0,0,0-.72A.36.36,0,0,0,395.68,379.17Zm-2.82,0a.36.36,0,0,0,.36.36.36.36,0,0,0,0-.72A.36.36,0,0,0,392.86,379.17Zm-32.07,0a1.61,1.61,0,1,0,1.6-1.61A1.6,1.6,0,0,0,360.79,379.17Zm18.15,0a.77.77,0,1,0,.77-.76A.76.76,0,0,0,378.94,379.17Zm-26.09,0a2.31,2.31,0,1,0,2.31-2.31A2.31,2.31,0,0,0,352.85,379.17Zm15.1,0a1.16,1.16,0,1,0,1.16-1.16A1.15,1.15,0,0,0,368,379.17Zm6.14,0a.76.76,0,1,0,.76-.76A.76.76,0,0,0,374.09,379.17Z" transform="translate(0 0)"/><path class="cls-8" d="M388.64,386.21a.52.52,0,1,0,.52-.52A.52.52,0,0,0,388.64,386.21Zm-45,0a2.31,2.31,0,1,0,2.3-2.31A2.31,2.31,0,0,0,343.6,386.21Zm-5.27,0a2.31,2.31,0,1,0-2.31,2.31A2.31,2.31,0,0,0,338.33,386.21Zm45.22,0a.76.76,0,0,0,.76.76.76.76,0,1,0,0-1.52A.76.76,0,0,0,383.55,386.21Zm12.13,0a.36.36,0,0,0,.36.36.36.36,0,1,0,0-.72A.36.36,0,0,0,395.68,386.21Zm-2.82,0a.36.36,0,0,0,.36.36.36.36,0,0,0,0-.72A.36.36,0,0,0,392.86,386.21Zm-32.07,0a1.61,1.61,0,0,0,3.21,0,1.61,1.61,0,1,0-3.21,0Zm18.15,0a.77.77,0,1,0,.77-.76A.76.76,0,0,0,378.94,386.21Zm-26.09,0a2.31,2.31,0,1,0,2.31-2.31A2.31,2.31,0,0,0,352.85,386.21Zm15.1,0a1.16,1.16,0,1,0,1.16-1.16A1.15,1.15,0,0,0,368,386.21Zm6.14,0a.76.76,0,1,0,.76-.76A.76.76,0,0,0,374.09,386.21Z" transform="translate(0 0)"/><path class="cls-9" d="M374,359.49a.39.39,0,1,0,.39-.38A.38.38,0,0,0,374,359.49Zm-33.05,0a1.7,1.7,0,1,0,1.7-1.69A1.69,1.69,0,0,0,341,359.49Zm-3.86,0a1.7,1.7,0,1,0-1.69,1.69A1.69,1.69,0,0,0,337.1,359.49Zm33.18,0a.56.56,0,1,0,.56-.56A.56.56,0,0,0,370.28,359.49Zm8.9,0a.27.27,0,0,0,.53,0,.27.27,0,0,0-.53,0Zm-2.07,0a.27.27,0,0,0,.53,0,.27.27,0,0,0-.53,0Zm-23.53,0a1.18,1.18,0,1,0,1.17-1.18A1.17,1.17,0,0,0,353.58,359.49Zm13.32,0a.56.56,0,1,0,.56-.56A.56.56,0,0,0,366.9,359.49Zm-19.14,0a1.69,1.69,0,1,0,1.69-1.69A1.68,1.68,0,0,0,347.76,359.49Zm11.08,0a.85.85,0,1,0,.84-.85A.85.85,0,0,0,358.84,359.49Zm4.5,0a.56.56,0,1,0,.56-.56A.56.56,0,0,0,363.34,359.49Z" transform="translate(0 0)"/><path class="cls-10" d="M374,364.66a.39.39,0,0,0,.77,0,.39.39,0,1,0-.77,0Zm-33.05,0a1.7,1.7,0,1,0,1.7-1.7A1.7,1.7,0,0,0,341,364.66Zm-3.86,0a1.7,1.7,0,1,0-1.69,1.69A1.7,1.7,0,0,0,337.1,364.66Zm33.18,0a.56.56,0,1,0,.56-.56A.56.56,0,0,0,370.28,364.66Zm8.9,0a.27.27,0,0,0,.53,0,.27.27,0,1,0-.53,0Zm-2.07,0a.27.27,0,0,0,.53,0,.27.27,0,1,0-.53,0Zm-23.53,0a1.18,1.18,0,1,0,1.17-1.18A1.17,1.17,0,0,0,353.58,364.66Zm13.32,0a.56.56,0,1,0,.56-.56A.56.56,0,0,0,366.9,364.66Zm-19.14,0a1.69,1.69,0,1,0,1.69-1.7A1.69,1.69,0,0,0,347.76,364.66Zm11.08,0a.85.85,0,1,0,.84-.85A.85.85,0,0,0,358.84,364.66Zm4.5,0a.56.56,0,1,0,.56-.56A.56.56,0,0,0,363.34,364.66Z" transform="translate(0 0)"/><path class="cls-11" d="M365.75,341.43a.31.31,0,0,0,.31.31.31.31,0,0,0,0-.61A.31.31,0,0,0,365.75,341.43Zm-26.27,0a1.35,1.35,0,1,0,1.34-1.34A1.34,1.34,0,0,0,339.48,341.43Zm-3.08,0a1.35,1.35,0,1,0-1.34,1.35A1.34,1.34,0,0,0,336.4,341.43Zm26.39,0a.45.45,0,1,0,.44-.44A.45.45,0,0,0,362.79,341.43Zm7.07,0a.21.21,0,0,0,.42,0,.21.21,0,0,0-.42,0Zm-1.64,0a.21.21,0,0,0,.21.21.2.2,0,0,0,.2-.21.2.2,0,0,0-.2-.2A.2.2,0,0,0,368.22,341.43Zm-18.71,0a.94.94,0,1,0,.93-.93A.94.94,0,0,0,349.51,341.43Zm10.59,0a.45.45,0,1,0,.44-.44A.45.45,0,0,0,360.1,341.43Zm-15.22,0a1.35,1.35,0,1,0,1.34-1.34A1.34,1.34,0,0,0,344.88,341.43Zm8.81,0a.67.67,0,0,0,.67.68.68.68,0,1,0,0-1.35A.67.67,0,0,0,353.69,341.43Zm3.58,0a.45.45,0,1,0,.44-.44A.45.45,0,0,0,357.27,341.43Z" transform="translate(0 0)"/><path class="cls-12" d="M365.75,345.54a.31.31,0,0,0,.31.31.3.3,0,0,0,.3-.31.29.29,0,0,0-.3-.3A.3.3,0,0,0,365.75,345.54Zm-26.27,0a1.35,1.35,0,1,0,1.34-1.34A1.35,1.35,0,0,0,339.48,345.54Zm-3.08,0a1.35,1.35,0,1,0-1.34,1.35A1.34,1.34,0,0,0,336.4,345.54Zm26.39,0a.45.45,0,1,0,.44-.44A.45.45,0,0,0,362.79,345.54Zm7.07,0a.21.21,0,0,0,.42,0,.21.21,0,1,0-.42,0Zm-1.64,0a.21.21,0,0,0,.21.21.2.2,0,0,0,.2-.21.21.21,0,1,0-.41,0Zm-18.71,0a.94.94,0,1,0,.93-.93A.94.94,0,0,0,349.51,345.54Zm10.59,0a.45.45,0,1,0,.44-.44A.45.45,0,0,0,360.1,345.54Zm-15.22,0a1.35,1.35,0,1,0,1.34-1.34A1.35,1.35,0,0,0,344.88,345.54Zm8.81,0a.68.68,0,0,0,.67.68.69.69,0,0,0,.68-.68.68.68,0,0,0-.68-.67A.67.67,0,0,0,353.69,345.54Zm3.58,0a.45.45,0,1,0,.44-.44A.45.45,0,0,0,357.27,345.54Z" transform="translate(0 0)"/><path class="cls-13" d="M357.22,326.13a.23.23,0,1,0,.45,0,.22.22,0,0,0-.22-.22A.22.22,0,0,0,357.22,326.13Zm-19.28,0a1,1,0,1,0,1-1A1,1,0,0,0,337.94,326.13Zm-2.25,0a1,1,0,1,0-1,1A1,1,0,0,0,335.69,326.13Zm19.36,0a.32.32,0,0,0,.32.33.33.33,0,0,0,.33-.33.32.32,0,0,0-.33-.32A.32.32,0,0,0,355.05,326.13Zm5.19,0a.15.15,0,1,0,.3,0,.15.15,0,0,0-.3,0Zm-1.21,0a.16.16,0,0,0,.15.16.16.16,0,0,0,.16-.16.16.16,0,0,0-.16-.15A.15.15,0,0,0,359,326.13Zm-13.73,0a.69.69,0,0,0,1.38,0,.69.69,0,0,0-1.38,0Zm7.77,0a.33.33,0,0,0,.66,0,.33.33,0,0,0-.66,0Zm-11.17,0a1,1,0,1,0,1-1A1,1,0,0,0,341.9,326.13Zm6.47,0a.5.5,0,1,0,.49-.49A.49.49,0,0,0,348.37,326.13Zm2.62,0a.33.33,0,0,0,.66,0,.33.33,0,0,0-.66,0Z" transform="translate(0 0)"/><path class="cls-14" d="M357.22,329.15a.22.22,0,0,0,.23.22.22.22,0,0,0,.22-.22.23.23,0,1,0-.45,0Zm-19.28,0a1,1,0,1,0,1-1A1,1,0,0,0,337.94,329.15Zm-2.25,0a1,1,0,1,0-1,1A1,1,0,0,0,335.69,329.15Zm19.36,0a.32.32,0,0,0,.32.32.32.32,0,0,0,.33-.32.33.33,0,0,0-.33-.33A.32.32,0,0,0,355.05,329.15Zm5.19,0a.15.15,0,0,0,.3,0,.15.15,0,1,0-.3,0Zm-1.21,0a.15.15,0,0,0,.15.15.16.16,0,0,0,.16-.15.16.16,0,0,0-.16-.16A.16.16,0,0,0,359,329.15Zm-13.73,0a.69.69,0,0,0,1.38,0,.69.69,0,0,0-1.38,0Zm7.77,0a.33.33,0,0,0,.66,0,.33.33,0,1,0-.66,0Zm-11.17,0a1,1,0,1,0,1-1A1,1,0,0,0,341.9,329.15Zm6.47,0a.5.5,0,1,0,.49-.5A.49.49,0,0,0,348.37,329.15Zm2.62,0a.33.33,0,0,0,.66,0,.33.33,0,0,0-.66,0Z" transform="translate(0 0)"/><path class="cls-15" d="M104.19,428.92a1,1,0,1,0,1,1A1,1,0,0,0,104.19,428.92Zm81.7-3.37a4.36,4.36,0,1,0,4.35,4.36A4.36,4.36,0,0,0,185.89,425.55Zm18.66,8.72a4.36,4.36,0,1,0-4.35-4.36A4.36,4.36,0,0,0,204.55,434.27Zm-91.21-5.8a1.44,1.44,0,1,0,1.44,1.44A1.43,1.43,0,0,0,113.34,428.47Zm-22.14.76a.68.68,0,1,0,.67.68A.67.67,0,0,0,91.2,429.23Zm5.32,0a.68.68,0,0,0,0,1.36.68.68,0,1,0,0-1.36Zm58.22-2.35a3,3,0,1,0,3,3A3,3,0,0,0,154.74,426.88ZM122,428.47a1.44,1.44,0,1,0,1.44,1.44A1.44,1.44,0,0,0,122,428.47Zm46.37-2.92a4.36,4.36,0,1,0,4.35,4.36A4.36,4.36,0,0,0,168.41,425.55Zm-26.35,2.17a2.19,2.19,0,1,0,2.18,2.19A2.19,2.19,0,0,0,142.06,427.72Zm-10.85.75a1.44,1.44,0,1,0,1.44,1.44A1.44,1.44,0,0,0,131.21,428.47Z" transform="translate(0 0)"/><path class="cls-16" d="M104.19,442.22a1,1,0,1,0,1,1A1,1,0,0,0,104.19,442.22Zm81.7-3.37a4.36,4.36,0,1,0,4.35,4.36A4.36,4.36,0,0,0,185.89,438.85Zm18.66,8.71a4.36,4.36,0,1,0-4.35-4.35A4.36,4.36,0,0,0,204.55,447.56Zm-91.21-5.8a1.45,1.45,0,1,0,1.44,1.45A1.44,1.44,0,0,0,113.34,441.76Zm-22.14.77a.68.68,0,1,0,.67.68A.67.67,0,0,0,91.2,442.53Zm5.32,0a.68.68,0,1,0,.68.68A.67.67,0,0,0,96.52,442.53Zm58.22-2.36a3,3,0,1,0,3,3A3,3,0,0,0,154.74,440.17ZM122,441.76a1.45,1.45,0,1,0,1.44,1.45A1.45,1.45,0,0,0,122,441.76Zm46.37-2.91a4.36,4.36,0,1,0,4.35,4.36A4.36,4.36,0,0,0,168.41,438.85ZM142.06,441a2.19,2.19,0,1,0,2.18,2.19A2.19,2.19,0,0,0,142.06,441Zm-10.85.74a1.45,1.45,0,1,0,1.44,1.45A1.45,1.45,0,0,0,131.21,441.76Z" transform="translate(0 0)"/><path class="cls-17" d="M132.07,402.21a.72.72,0,0,0-.72.72.72.72,0,1,0,1.44,0A.72.72,0,0,0,132.07,402.21Zm60-2.47a3.2,3.2,0,1,0,3.19,3.19A3.19,3.19,0,0,0,192,399.74Zm13.69,6.39a3.2,3.2,0,1,0-3.19-3.2A3.2,3.2,0,0,0,205.71,406.13Zm-66.92-4.25a1.06,1.06,0,1,0,1.05,1.05A1.05,1.05,0,0,0,138.79,401.88Zm-16.25.56a.5.5,0,1,0,0,1,.5.5,0,1,0,0-1Zm3.91,0a.5.5,0,1,0,.49.49A.49.49,0,0,0,126.45,402.44Zm42.72-1.73a2.23,2.23,0,1,0,2.22,2.22A2.22,2.22,0,0,0,169.17,400.71Zm-24,1.17a1.06,1.06,0,1,0,1.06,1.05A1.06,1.06,0,0,0,145.17,401.88Zm34-2.14a3.2,3.2,0,1,0,3.2,3.19A3.19,3.19,0,0,0,179.19,399.74Zm-19.33,1.59a1.6,1.6,0,1,0,1.6,1.6A1.6,1.6,0,0,0,159.86,401.33Zm-8,.55a1.06,1.06,0,1,0,1.06,1.05A1.06,1.06,0,0,0,151.9,401.88Z" transform="translate(0 0)"/><path class="cls-18" d="M132.07,412a.72.72,0,1,0,.72.72A.72.72,0,0,0,132.07,412Zm60-2.48a3.2,3.2,0,1,0,3.19,3.2A3.2,3.2,0,0,0,192,409.49Zm13.69,6.4a3.2,3.2,0,1,0-3.19-3.2A3.2,3.2,0,0,0,205.71,415.89Zm-66.92-4.26a1.06,1.06,0,1,0,1.05,1.06A1.06,1.06,0,0,0,138.79,411.63Zm-16.25.56a.5.5,0,0,0,0,1,.5.5,0,1,0,0-1Zm3.91,0a.5.5,0,1,0,.49.5A.5.5,0,0,0,126.45,412.19Zm42.72-1.73a2.23,2.23,0,1,0,2.22,2.23A2.23,2.23,0,0,0,169.17,410.46Zm-24,1.17a1.06,1.06,0,1,0,1.06,1.06A1.07,1.07,0,0,0,145.17,411.63Zm34-2.14a3.2,3.2,0,1,0,3.2,3.2A3.2,3.2,0,0,0,179.19,409.49Zm-19.33,1.6a1.6,1.6,0,1,0,1.6,1.6A1.6,1.6,0,0,0,159.86,411.09Zm-8,.54a1.06,1.06,0,1,0,1.06,1.06A1.07,1.07,0,0,0,151.9,411.63Z" transform="translate(0 0)"/><g class="cls-19"><path class="cls-20" d="M331.51,392.62a8.63,8.63,0,0,0-5.76,2.2l-29.3-29.3,15.82-15.82a.53.53,0,0,0,0-.74l-13.84-13.83L370.55,263a.53.53,0,0,0,0-.74l-41.14-41.14a.52.52,0,0,0-.74.74l40.77,40.77-72.12,72.12a.51.51,0,0,0,0,.74l13.84,13.83-15.82,15.82a.53.53,0,0,0,0,.74L325,395.56a8.69,8.69,0,1,0,6.5-2.94Zm0,16.87a8.15,8.15,0,0,1-6.13-13.56l1.55,1.54a6,6,0,1,0,10.57,3.85,6,6,0,0,0-9.83-4.59l-1.55-1.54a8.17,8.17,0,1,1,5.39,14.3Zm.37-8.54-3.82-3.83a5.38,5.38,0,0,1,3.45-1.27,5.54,5.54,0,1,1-4.19,2l3.82,3.83a.53.53,0,0,0,.37.15.52.52,0,0,0,.37-.89Zm29.84-23h-2.61a.15.15,0,0,0-.12.07l-1.3,2.26a.15.15,0,0,0,0,.13l1.3,2.26a.14.14,0,0,0,.12.06h2.61a.13.13,0,0,0,.11-.06l1.31-2.26a.15.15,0,0,0,0-.13L361.83,378A.14.14,0,0,0,361.72,378Zm-.08,4.52h-2.46L358,380.36l1.22-2.13h2.46l1.23,2.13Zm25-118.34L316.84,334a.27.27,0,0,0,0,.37L330,347.52l-18.17,18.17a.27.27,0,0,0,0,.37l13.76,13.77a.26.26,0,0,0,.19.07.26.26,0,0,0,.18-.07.27.27,0,0,0,0-.37l-13.58-13.58,18.17-18.17a.25.25,0,0,0,0-.37L317.4,334.17l69.83-69.84a.25.25,0,0,0,.08-.18.27.27,0,0,0-.08-.19L344,220.69a.26.26,0,0,0-.37.37Zm93.7-25.24a13.4,13.4,0,0,0-9.68,22.69l-50,50a.26.26,0,0,0,.19.44.26.26,0,0,0,.18-.07l50-50a13.42,13.42,0,1,0,9.31-23.06Zm0,26.32a12.84,12.84,0,0,1-8.94-3.63L477,256a.26.26,0,1,0-.37-.37l-5.58,5.58a12.88,12.88,0,1,1,9.31,4Zm0-15.9a3,3,0,1,0,3,3A3,3,0,0,0,480.38,249.33Zm-43.12-2.69a.24.24,0,0,0-.22-.14H415.9a.27.27,0,0,0-.23.14l-7.54,13.07-8.46-8.46L428,222.94a.27.27,0,0,0,0-.37.25.25,0,0,0-.37,0l-28.5,28.49a.27.27,0,0,0,0,.37l8.74,8.74-2.75,4.77a.3.3,0,0,0,0,.26l3.52,6.1L343.89,336a.27.27,0,0,0-.08.19.23.23,0,0,0,.08.18l5.46,5.47h0l28.43,28.43L368.09,380a.27.27,0,0,0,0,.37l9.64,9.63v11.33a.26.26,0,0,0,.26.26.26.26,0,0,0,.26-.26V389.88a.24.24,0,0,0-.07-.18l-9.53-9.53,9.69-9.69a.27.27,0,0,0,0-.37l-28.43-28.43,47.23-47.23a4.71,4.71,0,1,0-.37-.37l-47.23,47.23-5.1-5.09,64.45-64.45,6.78,11.74a.28.28,0,0,0,.23.13H437a.25.25,0,0,0,.22-.13l10.57-18.31a.24.24,0,0,0,0-.26Zm-37,41.1a3.23,3.23,0,1,1,0,6.46,3.18,3.18,0,0,1-2.08-.78l2.26-2.26a.26.26,0,0,0-.37-.37l-2.26,2.26A3.18,3.18,0,0,1,397,291,3.23,3.23,0,0,1,400.25,287.74Zm5.38-22.67,2.61-4.51,5.56,5.56L409,270.91Zm31.25,18H416.05l-6.77-11.73,5.08-5.07a.32.32,0,0,0,.07-.19.27.27,0,0,0-.07-.18l-5.85-5.85L416.05,247h20.83l10.42,18ZM365.15,372.3a.28.28,0,0,0-.23-.13h-2.19a.25.25,0,0,0-.22.13l-.21.35a.23.23,0,0,0-.07-.17l-19.77-19.77,4.8-4.8a.27.27,0,0,0,0-.37l-13.07-13.08,69.36-69.36a.24.24,0,0,0,.07-.18.26.26,0,0,0-.07-.19l-12.39-12.39,29.4-29.4a.27.27,0,0,0,0-.37.25.25,0,0,0-.37,0L390.6,252.16a.23.23,0,0,0-.08.18.27.27,0,0,0,.08.19L403,264.92l-69.36,69.36a.27.27,0,0,0,0,.37l13.08,13.07-19.55,19.54a.26.26,0,0,0-.07.19.24.24,0,0,0,.07.18l20.09,20.09a.26.26,0,0,0,.18.07.26.26,0,0,0,.19-.44l-19.9-19.9,3.79-3.8,32.13,32.14a.26.26,0,0,0,.19.07.26.26,0,0,0,.18-.07.27.27,0,0,0,0-.37l-32.13-32.14,3.24-3.23,20.2,20.21a.27.27,0,0,0,0,.23l2.43,4.21a.25.25,0,0,0,.22.13h4.86a.28.28,0,0,0,.23-.13l2.43-4.21a.3.3,0,0,0,0-.26l-2.17-3.75h1.59a.28.28,0,0,0,.23-.13l1.09-1.89a.26.26,0,0,0,0-.27Zm-23.06-19.22,19.77,19.77a.24.24,0,0,0,.19.08.31.31,0,0,0,.12-.05l-.76,1.31a.32.32,0,0,0,0,.27l.83,1.43h-3.57L339,356.19Zm-6.6,6.6,3.11-3.12,19.34,19.34a.32.32,0,0,0-.18.12l-2.17,3.76ZM365,380.36l-2.28,3.95h-4.55l-2.26-3.92a.24.24,0,0,0,.05-.16l2.21-3.81h4.43a.31.31,0,0,0,.16.06Zm-.2-4.4H363a.2.2,0,0,0-.15-.06l-.91-1.57.94-1.64h1.89l.94,1.64Zm66.15-118.74H422a.12.12,0,0,0-.11.07L417.44,265a.15.15,0,0,0,0,.13l4.46,7.71a.12.12,0,0,0,.11.07h8.91a.15.15,0,0,0,.12-.07l4.45-7.71a.15.15,0,0,0,0-.13L431,257.29A.15.15,0,0,0,430.92,257.22Zm-.07,15.44h-8.76l-4.38-7.59,4.38-7.59h8.76l4.38,7.59ZM406.72,316a13.16,13.16,0,1,0,13.16,13.16A13.17,13.17,0,0,0,406.72,316Zm0,26.05a12.9,12.9,0,1,1,12.89-12.89A12.91,12.91,0,0,1,406.72,342Zm0-24.3a11.41,11.41,0,1,0,11.41,11.41A11.42,11.42,0,0,0,406.72,317.7Zm0,22.55a11.15,11.15,0,1,1,11.15-11.14A11.16,11.16,0,0,1,406.72,340.25Zm0-25.94a14.8,14.8,0,1,0,14.8,14.8A14.82,14.82,0,0,0,406.72,314.31Zm0,29.34a14.54,14.54,0,1,1,14.54-14.54A14.55,14.55,0,0,1,406.72,343.65Zm23.11-84.53h-6.72a.15.15,0,0,0-.12.07L419.63,265a.15.15,0,0,0,0,.13L423,271a.14.14,0,0,0,.12.06h6.72a.13.13,0,0,0,.11-.06l3.36-5.82a.15.15,0,0,0,0-.13l-3.36-5.82A.14.14,0,0,0,429.83,259.12Zm-.08,11.64h-6.57l-3.28-5.69,3.28-5.69h6.57l3.28,5.69Z" transform="translate(0 0)"/><path class="cls-21" d="M432.38,390.64a8.7,8.7,0,1,1,8.7-8.7A8.71,8.71,0,0,1,432.38,390.64Zm0-16.87a8.18,8.18,0,1,0,8.17,8.17A8.18,8.18,0,0,0,432.38,373.77Z" transform="translate(0 0)"/><path class="cls-21" d="M432.38,387.93a6,6,0,1,1,6-6A6,6,0,0,1,432.38,387.93Zm0-11.45a5.47,5.47,0,1,0,5.46,5.46A5.47,5.47,0,0,0,432.38,376.48Z" transform="translate(0 0)"/><path class="cls-22" d="M435.38,381.94a3,3,0,1,1-3-3A3,3,0,0,1,435.38,381.94Z" transform="translate(0 0)"/><path class="cls-22" d="M334.51,401.32a3,3,0,1,1-3-3A3,3,0,0,1,334.51,401.32Z" transform="translate(0 0)"/><circle class="cls-22" cx="400.25" cy="290.97" r="2.07"/><path class="cls-21" d="M406.72,351.89a22.79,22.79,0,1,1,22.78-22.78A22.82,22.82,0,0,1,406.72,351.89Zm0-45.3a22.52,22.52,0,1,0,22.52,22.52A22.54,22.54,0,0,0,406.72,306.59Z" transform="translate(0 0)"/><path class="cls-22" d="M292.25,377.56a2,2,0,1,1,2-2A2,2,0,0,1,292.25,377.56Z" transform="translate(0 0)"/><path class="cls-23" d="M292.25,376.46a.91.91,0,0,1,0-1.81.91.91,0,1,1,0,1.81Z" transform="translate(0 0)"/><path class="cls-22" d="M292.25,375.87a.31.31,0,0,1-.31-.31.31.31,0,1,1,.62,0A.31.31,0,0,1,292.25,375.87Z" transform="translate(0 0)"/><path class="cls-22" d="M296.14,381.45a2,2,0,1,1,2-2A2,2,0,0,1,296.14,381.45Z" transform="translate(0 0)"/><path class="cls-23" d="M296.14,380.35a.91.91,0,0,1,0-1.81.91.91,0,1,1,0,1.81Z" transform="translate(0 0)"/><path class="cls-22" d="M296.14,379.76a.31.31,0,1,1,.31-.31A.31.31,0,0,1,296.14,379.76Z" transform="translate(0 0)"/><path class="cls-22" d="M300,385.34a2,2,0,1,1,2-2A2,2,0,0,1,300,385.34Z" transform="translate(0 0)"/><path class="cls-23" d="M300,384.24a.91.91,0,0,1,0-1.81.91.91,0,1,1,0,1.81Z" transform="translate(0 0)"/><path class="cls-22" d="M300,383.65a.31.31,0,1,1,.31-.31A.31.31,0,0,1,300,383.65Z" transform="translate(0 0)"/><path class="cls-21" d="M411.67,390H399a.28.28,0,0,1-.23-.13l-6.33-11a.3.3,0,0,1,0-.26l6.33-11a.28.28,0,0,1,.23-.13h12.66a.25.25,0,0,1,.22.13l6.33,11a.24.24,0,0,1,0,.26l-6.33,11A.25.25,0,0,1,411.67,390Zm-12.51-.52h12.36l6.17-10.7-6.17-10.7H399.16L393,378.78Z" transform="translate(0 0)"/><path class="cls-21" d="M420.94,377.64h-7.27a.25.25,0,0,1-.22-.13l-3.64-6.29a.32.32,0,0,1,0-.27l3.64-6.29a.25.25,0,0,1,.22-.13h7.27a.28.28,0,0,1,.23.13L424.8,371a.26.26,0,0,1,0,.27l-3.63,6.29A.28.28,0,0,1,420.94,377.64Zm-7.11-.52h7l3.48-6-3.48-6h-7l-3.49,6Z" transform="translate(0 0)"/><path class="cls-21" d="M434.53,365.53h-5.17a.25.25,0,0,1-.22-.13l-2.58-4.47a.24.24,0,0,1,0-.26l2.58-4.47a.25.25,0,0,1,.22-.13h5.17a.25.25,0,0,1,.22.13l2.58,4.47a.24.24,0,0,1,0,.26l-2.58,4.47A.25.25,0,0,1,434.53,365.53Zm-5-.52h4.86l2.42-4.21-2.42-4.21h-4.86l-2.43,4.21Z" transform="translate(0 0)"/><path class="cls-22" d="M480.38,258a5.7,5.7,0,1,1,5.71-5.7A5.71,5.71,0,0,1,480.38,258Zm0-10.35a4.66,4.66,0,1,0,4.66,4.65A4.65,4.65,0,0,0,480.38,247.68Z" transform="translate(0 0)"/><path class="cls-22" d="M480.38,261.07a8.74,8.74,0,1,1,8.74-8.74A8.75,8.75,0,0,1,480.38,261.07Zm0-16.43a7.69,7.69,0,1,0,7.7,7.69A7.7,7.7,0,0,0,480.38,244.64Z" transform="translate(0 0)"/></g><g class="cls-19"><path class="cls-24" d="M44.2,431.58a7.93,7.93,0,1,0,5.25,13.85l27,27a.48.48,0,0,0,.68,0l14.4-14.4,12.61,12.6a.46.46,0,0,0,.67,0L208,367.5l37.14,37.14a.47.47,0,0,0,.67-.67l-37.47-37.48a.48.48,0,0,0-.68,0L104.49,469.64,91.89,457a.46.46,0,0,0-.67,0l-14.41,14.4L50.13,444.75a7.91,7.91,0,0,0-5.93-13.17Zm0,.48a7.44,7.44,0,0,1,5.59,12.36L48.38,443A5.45,5.45,0,1,0,44.2,445a5.39,5.39,0,0,0,3.5-1.28l1.41,1.41A7.36,7.36,0,0,1,44.2,447a7.45,7.45,0,1,1,0-14.89Zm-.33,7.11a.43.43,0,0,0-.14.33.44.44,0,0,0,.14.34l3.48,3.49a5.15,5.15,0,1,1,.67-.68l-3.48-3.48A.46.46,0,0,0,43.87,439.17Zm21.54-27.28-2.06-1.19a.13.13,0,0,0-.12,0l-2.06,1.19a.13.13,0,0,0-.06.1v2.38a.13.13,0,0,0,.06.1l2.06,1.19a.13.13,0,0,0,.12,0l2.06-1.19a.11.11,0,0,0,.06-.1V412A.11.11,0,0,0,65.41,411.89Zm-2.12-.95,1.94,1.12v2.24l-1.94,1.12-1.94-1.12v-2.24ZM245.85,391a.23.23,0,0,0,.34,0,.24.24,0,0,0,0-.33l-39.42-39.42a.24.24,0,0,0-.16-.07.24.24,0,0,0-.17.07L105.37,452.36l-12-12a.22.22,0,0,0-.33,0L76.48,456.92,64.12,444.55a.25.25,0,0,0-.34,0,.24.24,0,0,0,0,.34l12.54,12.53a.22.22,0,0,0,.33,0L93.2,440.87l12,12a.25.25,0,0,0,.34,0L206.61,351.8ZM217.37,254.21a12.21,12.21,0,0,0-8.78,20.72l-83,83a.2.2,0,0,0-.07.16.21.21,0,0,0,.07.17.23.23,0,0,0,.34,0l83-83a12.22,12.22,0,1,0,8.44-21Zm0,.48a11.75,11.75,0,1,1-8.11,20.24l5.09-5.09a.24.24,0,1,0-.34-.34l-5.09,5.09a11.74,11.74,0,0,1,8.45-19.9Zm0,9a2.74,2.74,0,1,0,2.74,2.73A2.74,2.74,0,0,0,217.37,263.71Zm-11.49,32.38a.24.24,0,0,0-.23,0L189,305.72a.24.24,0,0,0-.12.21v19.25a.26.26,0,0,0,.12.21l10.7,6.17L103.5,427.73l-4.64-4.64,80.49-80.49a4.24,4.24,0,1,0-1.44-3.16,4.17,4.17,0,0,0,1.1,2.82L98.52,422.75l-25.89-25.9a.25.25,0,0,0-.34,0l-8.83,8.83L54.79,397a.23.23,0,0,0-.17-.07H44.2a.24.24,0,0,0,0,.48H54.52l8.78,8.77a.24.24,0,0,0,.33,0l8.83-8.82,25.89,25.89h0l5,5a.24.24,0,0,0,.34,0l96.42-96.42,5.56,3.2a.24.24,0,0,0,.23,0l4.35-2.5,8,8a.25.25,0,0,0,.34,0l25.95-26a.24.24,0,0,0-.34-.34L218.36,340l-7.71-7.71,11.91-6.87a.26.26,0,0,0,.12-.21V305.93a.24.24,0,0,0-.12-.21Zm-23.71,46.29a2.89,2.89,0,0,1-1.89-.71l2.06-2.06a.24.24,0,1,0-.34-.34l-2.06,2.06a2.89,2.89,0,0,1-.71-1.89,2.95,2.95,0,1,1,2.94,2.94Zm18.27-10.92,4.37-4.37,5.07,5.07-4.11,2.37Zm5.33-34.88,16.43,9.48v19l-11.9,6.87L205,326.59a.24.24,0,0,0-.34,0L200,331.21,189.33,325v-19ZM68.91,407.87a.25.25,0,0,0-.24,0l-1.73,1a.24.24,0,0,0-.12.2v1.45l-3.41-2a.25.25,0,0,0-.24,0l-3.83,2.21a.24.24,0,0,0-.12.21v4.42a.26.26,0,0,0,.12.21l3.83,2.21a.24.24,0,0,0,.22,0l18.4,18.4-2.94,2.95L49.58,409.9a.25.25,0,0,0-.34,0,.24.24,0,0,0,0,.34L78.51,439.5,75.05,443,56.93,424.83a.25.25,0,0,0-.34,0,.24.24,0,0,0,0,.34l18.3,18.29a.2.2,0,0,0,.16.07.21.21,0,0,0,.17-.07L93,425.67l11.91,11.9a.23.23,0,0,0,.34,0L205.91,336.94l11.28,11.28a.23.23,0,0,0,.17.07.21.21,0,0,0,.17-.07l26.95-27a.24.24,0,0,0-.34-.34l-26.78,26.79-11.28-11.29a.28.28,0,0,0-.17-.07.24.24,0,0,0-.17.07L105.1,437.07,93.19,425.16a.25.25,0,0,0-.34,0l-4.37,4.37-18-18a.25.25,0,0,0-.16-.06l.33-.19a.23.23,0,0,0,.11-.2v-2a.23.23,0,0,0-.11-.2ZM85.3,432.71,67.36,414.77v-3.26l1.31.76a.25.25,0,0,0,.24,0l1.2-.69a.22.22,0,0,0,0,.11.23.23,0,0,0,.07.17l18,18ZM63.82,417.57l3.42-2a.25.25,0,0,0,.11-.17L85,433.05l-2.84,2.83Zm3-6.5a.22.22,0,0,0,0,.14v4l-3.47,2a.3.3,0,0,0-.15.05l-3.56-2.06V411.1L63.29,409Zm2-2.72,1.49.86v1.72l-1.49.86L67.36,411a.25.25,0,0,0-.06-.14v-1.61Zm144.06-97-7-4.06a.11.11,0,0,0-.11,0l-7,4.06a.11.11,0,0,0-.06.11v8.11a.14.14,0,0,0,.06.11l7,4a.08.08,0,0,0,.11,0l7-4a.14.14,0,0,0,.06-.11V311.5A.11.11,0,0,0,212.85,311.39Zm-7.08-3.82,6.91,4v8l-6.91,4-6.91-4v-8ZM110,359a12,12,0,1,0,12,12A12,12,0,0,0,110,359Zm0,.24A11.75,11.75,0,1,1,98.23,371,11.76,11.76,0,0,1,110,359.25Zm0,1.36A10.39,10.39,0,1,0,120.37,371,10.4,10.4,0,0,0,110,360.61Zm0,.24A10.15,10.15,0,1,1,99.82,371,10.16,10.16,0,0,1,110,360.85Zm0-3.33A13.48,13.48,0,1,0,123.46,371,13.49,13.49,0,0,0,110,357.52Zm0,.23A13.25,13.25,0,1,1,96.73,371,13.26,13.26,0,0,1,110,357.75Zm101.15-45.36-5.31-3.06a.11.11,0,0,0-.11,0l-5.3,3.06a.11.11,0,0,0-.06.1v6.12a.11.11,0,0,0,.06.11l5.3,3.06a.11.11,0,0,0,.11,0l5.31-3.06a.13.13,0,0,0,.05-.11v-6.12A.12.12,0,0,0,211.13,312.39Zm-5.36-2.82,5.18,3v6l-5.18,3-5.19-3v-6Z" transform="translate(0 0)"/><path class="cls-21" d="M61.85,339.7a7.93,7.93,0,1,1-7.92,7.93A7.94,7.94,0,0,1,61.85,339.7Zm0,.48a7.45,7.45,0,1,0,7.45,7.45A7.46,7.46,0,0,0,61.85,340.18Z" transform="translate(0 0)"/><path class="cls-21" d="M61.85,342.18a5.45,5.45,0,1,1-5.45,5.45A5.45,5.45,0,0,1,61.85,342.18Zm0,.47a5,5,0,1,0,5,5A5,5,0,0,0,61.85,342.65Z" transform="translate(0 0)"/><circle class="cls-22" cx="61.85" cy="347.63" r="2.74"/><path class="cls-22" d="M44.2,436.77a2.74,2.74,0,1,0,2.74,2.73A2.73,2.73,0,0,0,44.2,436.77Z" transform="translate(0 0)"/><path class="cls-22" d="M182.17,337.55a1.89,1.89,0,1,0,1.89,1.89A1.89,1.89,0,0,0,182.17,337.55Z" transform="translate(0 0)"/><path class="cls-21" d="M110,350.25A20.75,20.75,0,1,1,89.22,371,20.78,20.78,0,0,1,110,350.25Zm0,.23A20.52,20.52,0,1,0,130.49,371,20.54,20.54,0,0,0,110,350.48Z" transform="translate(0 0)"/><path class="cls-22" d="M65.84,475.27a1.83,1.83,0,1,0,1.83-1.83A1.83,1.83,0,0,0,65.84,475.27Z" transform="translate(0 0)"/><path class="cls-23" d="M66.84,475.27a.83.83,0,1,0,.83-.83A.83.83,0,0,0,66.84,475.27Z" transform="translate(0 0)"/><path class="cls-22" d="M67.39,475.27a.28.28,0,0,0,.28.28.29.29,0,0,0,0-.57A.28.28,0,0,0,67.39,475.27Z" transform="translate(0 0)"/><path class="cls-22" d="M62.3,471.72a1.83,1.83,0,1,0,1.82-1.82A1.83,1.83,0,0,0,62.3,471.72Z" transform="translate(0 0)"/><path class="cls-23" d="M63.3,471.72a.83.83,0,1,0,.82-.82A.83.83,0,0,0,63.3,471.72Z" transform="translate(0 0)"/><path class="cls-22" d="M63.84,471.72a.29.29,0,0,0,.57,0,.29.29,0,0,0-.57,0Z" transform="translate(0 0)"/><path class="cls-22" d="M58.75,468.18a1.83,1.83,0,1,0,1.83-1.83A1.82,1.82,0,0,0,58.75,468.18Z" transform="translate(0 0)"/><path class="cls-23" d="M59.76,468.18a.82.82,0,1,0,.82-.83A.82.82,0,0,0,59.76,468.18Z" transform="translate(0 0)"/><path class="cls-22" d="M60.3,468.18a.28.28,0,0,0,.56,0,.28.28,0,1,0-.56,0Z" transform="translate(0 0)"/><path class="cls-21" d="M54.63,366.29l10-5.77a.25.25,0,0,1,.24,0l10,5.77a.24.24,0,0,1,.12.2V378a.26.26,0,0,1-.12.21l-10,5.76a.25.25,0,0,1-.24,0l-10-5.76a.26.26,0,0,1-.12-.21V366.49A.24.24,0,0,1,54.63,366.29Zm10.1,17.22,9.75-5.63V366.63L64.73,361,55,366.63v11.25Z" transform="translate(0 0)"/><path class="cls-21" d="M65.89,357.84l5.73-3.31a.25.25,0,0,1,.24,0l5.73,3.31a.22.22,0,0,1,.12.2v6.62a.22.22,0,0,1-.12.21l-5.73,3.31a.25.25,0,0,1-.24,0l-5.73-3.31a.24.24,0,0,1-.12-.21V358A.24.24,0,0,1,65.89,357.84Zm5.85,9.86,5.5-3.17v-6.35L71.74,355l-5.49,3.17v6.35Z" transform="translate(0 0)"/><path class="cls-21" d="M76.92,345.46,81,343.11a.25.25,0,0,1,.24,0l4.07,2.35a.26.26,0,0,1,.12.21v4.7a.24.24,0,0,1-.12.21l-4.07,2.35a.25.25,0,0,1-.24,0l-4.07-2.35a.22.22,0,0,1-.12-.21v-4.7A.24.24,0,0,1,76.92,345.46Zm4.19,7,3.83-2.22v-4.42l-3.83-2.22-3.84,2.22v4.42Z" transform="translate(0 0)"/><path class="cls-22" d="M217.37,261.25a5.19,5.19,0,1,1-5.19,5.19A5.2,5.2,0,0,1,217.37,261.25Zm0,.95a4.24,4.24,0,1,0,4.24,4.24A4.24,4.24,0,0,0,217.37,262.2Z" transform="translate(0 0)"/><path class="cls-22" d="M217.37,258.48a8,8,0,1,1-8,8A8,8,0,0,1,217.37,258.48Zm0,1a7,7,0,1,0,7,7A7,7,0,0,0,217.37,259.44Z" transform="translate(0 0)"/></g><path class="cls-25" d="M350.44,103.06A3.48,3.48,0,1,0,347,99.58,3.48,3.48,0,0,0,350.44,103.06ZM365.7,53.73A1.65,1.65,0,1,0,364,52.08,1.65,1.65,0,0,0,365.7,53.73Zm0-11a1.13,1.13,0,1,0-1.14-1.13A1.14,1.14,0,0,0,365.7,42.71Zm0-15.26a.76.76,0,0,0,.77-.77.77.77,0,0,0-.77-.78.78.78,0,0,0-.78.78A.77.77,0,0,0,365.7,27.45Zm0,36.27A1.66,1.66,0,1,0,364,62.06,1.65,1.65,0,0,0,365.7,63.72Zm0-30.16a.76.76,0,0,0,.77-.77.77.77,0,0,0-.77-.78.78.78,0,0,0-.78.78A.77.77,0,0,0,365.7,33.56Zm0,40.68A1.66,1.66,0,1,0,364,72.59,1.65,1.65,0,0,0,365.7,74.24Zm0,46a5,5,0,1,0-5-5A5,5,0,0,0,365.7,120.25Zm0-32.72a2.51,2.51,0,1,0-2.51-2.5A2.5,2.5,0,0,0,365.7,87.53Zm0,15.53a3.48,3.48,0,1,0-3.48-3.48A3.48,3.48,0,0,0,365.7,103.06Zm-30.52,0a3.48,3.48,0,1,0-3.48-3.48A3.48,3.48,0,0,0,335.18,103.06Zm-197.59,0a3.48,3.48,0,1,0-3.48-3.48A3.47,3.47,0,0,0,137.59,103.06Zm106.79,68a5,5,0,1,0,5,5A5,5,0,0,0,244.38,171.1Zm14.52-19.37a5,5,0,1,0,5,5A5,5,0,0,0,258.9,151.73Zm0,19.37a5,5,0,1,0,5,5A5,5,0,0,0,258.9,171.1Zm-14.52-40.79a5,5,0,1,0,5,5A5,5,0,0,0,244.38,130.31Zm0,21.42a5,5,0,1,0,5,5A5,5,0,0,0,244.38,151.73Zm0-41.47a5,5,0,1,0,5,5A5,5,0,0,0,244.38,110.26Zm14.52,20a5,5,0,1,0,5,5A5,5,0,0,0,258.9,130.31Zm15.26,21.42a5,5,0,1,0,5,5A5,5,0,0,0,274.16,151.73Zm0-21.42a5,5,0,1,0,5,5A5,5,0,0,0,274.16,130.31Zm-15.26-20a5,5,0,1,0,5,5A5,5,0,0,0,258.9,110.26Zm15.26,60.84a5,5,0,1,0,5,5A5,5,0,0,0,274.16,171.1Zm-45,0a5,5,0,1,0,5,5A5,5,0,0,0,229.12,171.1Zm-15.25,0a5,5,0,1,0,5,5A5,5,0,0,0,213.87,171.1Zm0-19.37a5,5,0,1,0,5,5A5,5,0,0,0,213.87,151.73Zm-15.26-41.47a5,5,0,1,0,5,5A5,5,0,0,0,198.61,110.26Zm30.51,0a5,5,0,1,0,5,5A5,5,0,0,0,229.12,110.26Zm-30.51,20a5,5,0,1,0,5,5A5,5,0,0,0,198.61,130.31Zm0,21.42a5,5,0,1,0,5,5A5,5,0,0,0,198.61,151.73Zm15.26-21.42a5,5,0,1,0,5,5A5,5,0,0,0,213.87,130.31Zm15.25,21.42a5,5,0,1,0,5,5A5,5,0,0,0,229.12,151.73Zm0-21.42a5,5,0,1,0,5,5A5,5,0,0,0,229.12,130.31Zm45-20a5,5,0,1,0,5,5A5,5,0,0,0,274.16,110.26Zm-60.29,0a5,5,0,1,0,5,5A5,5,0,0,0,213.87,110.26Zm106.06,20a5,5,0,1,0,5,5A5,5,0,0,0,319.93,130.31Zm30.51,21.42a5,5,0,1,0,5,5A5,5,0,0,0,350.44,151.73Zm0,19.37a5,5,0,1,0,5,5A5,5,0,0,0,350.44,171.1Zm-15.26-60.84a5,5,0,1,0,5,5A5,5,0,0,0,335.18,110.26Zm0,20a5,5,0,1,0,5,5A5,5,0,0,0,335.18,130.31Zm15.26,0a5,5,0,1,0,5,5A5,5,0,0,0,350.44,130.31ZM335.18,171.1a5,5,0,1,0,5,5A5,5,0,0,0,335.18,171.1Zm30.52-19.37a5,5,0,1,0,5,5A5,5,0,0,0,365.7,151.73Zm0-21.42a5,5,0,1,0,5,5A5,5,0,0,0,365.7,130.31Zm0,40.79a5,5,0,1,0,5,5A5,5,0,0,0,365.7,171.1Zm-15.26-60.84a5,5,0,1,0,5,5A5,5,0,0,0,350.44,110.26Zm-15.26,41.47a5,5,0,1,0,5,5A5,5,0,0,0,335.18,151.73Zm-30.51,0a5,5,0,1,0,5,5A5,5,0,0,0,304.67,151.73Zm-15.26-41.47a5,5,0,1,0,5,5A5,5,0,0,0,289.41,110.26Zm15.26,60.84a5,5,0,1,0,5,5A5,5,0,0,0,304.67,171.1Zm-15.26-40.79a5,5,0,1,0,5,5A5,5,0,0,0,289.41,130.31Zm0,21.42a5,5,0,1,0,5,5A5,5,0,0,0,289.41,151.73Zm30.52,19.37a5,5,0,1,0,5,5A5,5,0,0,0,319.93,171.1Zm-121.32,0a5,5,0,1,0,5,5A5,5,0,0,0,198.61,171.1Zm106.06-40.79a5,5,0,1,0,5,5A5,5,0,0,0,304.67,130.31Zm15.26,21.42a5,5,0,1,0,5,5A5,5,0,0,0,319.93,151.73Zm-15.26-41.47a5,5,0,1,0,5,5A5,5,0,0,0,304.67,110.26Zm15.26,0a5,5,0,1,0,5,5A5,5,0,0,0,319.93,110.26ZM289.41,171.1a5,5,0,1,0,5,5A5,5,0,0,0,289.41,171.1Zm-121.31-68a3.48,3.48,0,1,0-3.48-3.48A3.48,3.48,0,0,0,168.1,103.06Zm15.25,7.2a5,5,0,1,0,5,5A5,5,0,0,0,183.35,110.26ZM168.1,151.73a5,5,0,1,0,5,5A5,5,0,0,0,168.1,151.73Zm0,19.37a5,5,0,1,0,5,5A5,5,0,0,0,168.1,171.1Zm-15.26-60.84a5,5,0,1,0,5,5A5,5,0,0,0,152.84,110.26Zm0,20a5,5,0,1,0,5,5A5,5,0,0,0,152.84,130.31Zm0,21.42a5,5,0,1,0,5,5A5,5,0,0,0,152.84,151.73Zm15.26-41.47a5,5,0,1,0,5,5A5,5,0,0,0,168.1,110.26Zm15.25,20a5,5,0,1,0,5,5A5,5,0,0,0,183.35,130.31Zm0,21.42a5,5,0,1,0,5,5A5,5,0,0,0,183.35,151.73Zm-30.51-48.67a3.48,3.48,0,1,0-3.48-3.48A3.48,3.48,0,0,0,152.84,103.06Zm0,68a5,5,0,1,0,5,5A5,5,0,0,0,152.84,171.1Zm15.26-40.79a5,5,0,1,0,5,5A5,5,0,0,0,168.1,130.31Zm15.25,40.79a5,5,0,1,0,5,5A5,5,0,0,0,183.35,171.1ZM137.59,53.73a1.65,1.65,0,1,0-1.66-1.65A1.65,1.65,0,0,0,137.59,53.73Zm0-11a1.13,1.13,0,1,0-1.14-1.13A1.14,1.14,0,0,0,137.59,42.71Zm0-15.26a.77.77,0,0,0,.77-.77.78.78,0,1,0-.77.77Zm0,6.11a.77.77,0,0,0,.77-.77.78.78,0,1,0-.77.77Zm0,30.16a1.66,1.66,0,1,0-1.66-1.66A1.65,1.65,0,0,0,137.59,63.72Zm0,46.54a5,5,0,1,0,5,5A5,5,0,0,0,137.59,110.26Zm0,20a5,5,0,1,0,5,5A5,5,0,0,0,137.59,130.31Zm0-56.07a1.66,1.66,0,1,0-1.66-1.65A1.65,1.65,0,0,0,137.59,74.24Zm0,77.49a5,5,0,1,0,5,5A5,5,0,0,0,137.59,151.73Zm0-64.2a2.51,2.51,0,1,0-2.51-2.5A2.5,2.5,0,0,0,137.59,87.53Zm0,83.57a5,5,0,1,0,5,5A5,5,0,0,0,137.59,171.1Z" transform="translate(0 0)"/><path class="cls-26" d="M388.64,303.69a1.53,1.53,0,1,0,1.53,1.53A1.53,1.53,0,0,0,388.64,303.69Zm0-132.08a6.77,6.77,0,1,0,6.76,6.77A6.77,6.77,0,0,0,388.64,171.61Zm0-15.45a6.77,6.77,0,1,0-6.77-6.77A6.77,6.77,0,0,0,388.64,156.16Zm0,132.61a2.24,2.24,0,1,0,2.23,2.24A2.24,2.24,0,0,0,388.64,288.77Zm0,35.56a1.06,1.06,0,1,0,1.05,1.05A1.06,1.06,0,0,0,388.64,324.33Zm0-8.27a1.06,1.06,0,1,0,1.05,1.05A1.06,1.06,0,0,0,388.64,316.06Zm0-94a4.71,4.71,0,1,0,4.7,4.7A4.7,4.7,0,0,0,388.64,222Zm0,53.24a2.24,2.24,0,1,0,2.23,2.24A2.24,2.24,0,0,0,388.64,275.26Zm0-76.51a6.77,6.77,0,1,0,6.76,6.77A6.77,6.77,0,0,0,388.64,198.75Zm0,44.28a3.39,3.39,0,1,0,3.39,3.39A3.39,3.39,0,0,0,388.64,243Zm0,18a2.24,2.24,0,1,0,2.23,2.24A2.24,2.24,0,0,0,388.64,261Z" transform="translate(0 0)"/><path class="cls-27" d="M446.1,256.37a.48.48,0,1,0,.48.48A.47.47,0,0,0,446.1,256.37Zm0-41.7a2.14,2.14,0,1,0,2.14,2.13A2.13,2.13,0,0,0,446.1,214.67Zm0-4.88a2.14,2.14,0,1,0-2.14-2.14A2.14,2.14,0,0,0,446.1,209.79Zm0,41.87a.7.7,0,0,0-.71.7.71.71,0,0,0,1.42,0A.7.7,0,0,0,446.1,251.66Zm0,11.23a.33.33,0,0,0-.33.33.33.33,0,0,0,.66,0A.33.33,0,0,0,446.1,262.89Zm0-2.62a.34.34,0,1,0,.33.34A.34.34,0,0,0,446.1,260.27Zm0-29.69a1.49,1.49,0,1,0,1.49,1.49A1.49,1.49,0,0,0,446.1,230.58Zm0,16.81a.71.71,0,0,0-.71.71.71.71,0,0,0,1.42,0A.71.71,0,0,0,446.1,247.39Zm0-24.15a2.14,2.14,0,1,0,2.14,2.13A2.13,2.13,0,0,0,446.1,223.24Zm0,14a1.07,1.07,0,1,0,1.07,1.07A1.07,1.07,0,0,0,446.1,237.22Zm0,5.68a.7.7,0,0,0-.71.7.71.71,0,1,0,1.42,0A.7.7,0,0,0,446.1,242.9Z" transform="translate(0 0)"/><path class="cls-28" d="M472.38,333.46a2.19,2.19,0,1,0,2.19,2.19A2.19,2.19,0,0,0,472.38,333.46Zm0-188.94a9.68,9.68,0,1,0,9.68,9.68A9.68,9.68,0,0,0,472.38,144.52Zm0-22.1a9.68,9.68,0,1,0-9.68-9.68A9.69,9.69,0,0,0,472.38,122.42Zm0,189.7a3.2,3.2,0,1,0,3.2,3.2A3.2,3.2,0,0,0,472.38,312.12Zm0,50.87a1.51,1.51,0,1,0,1.51,1.51A1.52,1.52,0,0,0,472.38,363Zm0-11.83a1.51,1.51,0,1,0,1.51,1.51A1.52,1.52,0,0,0,472.38,351.16Zm0-134.53a6.74,6.74,0,1,0,6.73,6.73A6.73,6.73,0,0,0,472.38,216.63Zm0,76.16a3.2,3.2,0,1,0,3.2,3.2A3.2,3.2,0,0,0,472.38,292.79Zm0-109.44a9.68,9.68,0,1,0,9.68,9.67A9.67,9.67,0,0,0,472.38,183.35Zm0,63.34a4.85,4.85,0,1,0,4.85,4.85A4.85,4.85,0,0,0,472.38,246.69Zm0,25.73a3.21,3.21,0,1,0,3.2,3.2A3.2,3.2,0,0,0,472.38,272.42Z" transform="translate(0 0)"/><path class="cls-29" d="M413.22,187.35a1,1,0,1,0-1,1A1,1,0,0,0,413.22,187.35Zm3.5,84.67a4.52,4.52,0,1,0-4.52,4.51A4.52,4.52,0,0,0,416.72,272Zm-9,19.34a4.52,4.52,0,1,0,4.52-4.51A4.52,4.52,0,0,0,407.68,291.36Zm6-94.52a1.49,1.49,0,1,0-1.49,1.49A1.5,1.5,0,0,0,413.69,196.84Zm-.79-23a.7.7,0,1,0-.7.7A.7.7,0,0,0,412.9,173.89Zm0,5.52a.7.7,0,1,0-.7.7A.7.7,0,0,0,412.9,179.41Zm2.44,60.34a3.14,3.14,0,1,0-3.14,3.14A3.14,3.14,0,0,0,415.34,239.75Zm-1.65-33.9a1.49,1.49,0,1,0-1.49,1.5A1.49,1.49,0,0,0,413.69,205.85Zm3,48.05a4.52,4.52,0,1,0-4.52,4.52A4.52,4.52,0,0,0,416.72,253.9Zm-2.26-27.3a2.26,2.26,0,1,0-2.26,2.26A2.27,2.27,0,0,0,414.46,226.6Zm-.77-11.24a1.49,1.49,0,1,0-1.49,1.49A1.5,1.5,0,0,0,413.69,215.36Z" transform="translate(0 0)"/><path class="cls-30" d="M110.74,305.22a1.53,1.53,0,1,0,1.53-1.53A1.53,1.53,0,0,0,110.74,305.22Zm-5.23-126.84a6.77,6.77,0,1,0,6.76-6.77A6.76,6.76,0,0,0,105.51,178.38Zm13.53-29a6.77,6.77,0,1,0-6.77,6.77A6.77,6.77,0,0,0,119,149.39ZM110,291a2.24,2.24,0,1,0,2.24-2.24A2.24,2.24,0,0,0,110,291Zm1.19,34.37a1,1,0,1,0,1-1.05A1.05,1.05,0,0,0,111.22,325.38Zm0-8.27a1,1,0,1,0,1-1.05A1.05,1.05,0,0,0,111.22,317.11Zm-3.66-90.39a4.71,4.71,0,1,0,4.71-4.7A4.71,4.71,0,0,0,107.56,226.72ZM110,277.5a2.24,2.24,0,1,0,2.24-2.24A2.24,2.24,0,0,0,110,277.5Zm-4.52-72a6.77,6.77,0,1,0,6.76-6.77A6.76,6.76,0,0,0,105.51,205.52Zm3.37,40.9a3.39,3.39,0,1,0,3.39-3.39A3.39,3.39,0,0,0,108.88,246.42ZM110,263.26a2.24,2.24,0,1,0,2.24-2.24A2.25,2.25,0,0,0,110,263.26Z" transform="translate(0 0)"/><path class="cls-31" d="M54.32,256.85a.49.49,0,1,0,.49-.48A.48.48,0,0,0,54.32,256.85ZM52.67,216.8a2.14,2.14,0,1,0,2.14-2.13A2.14,2.14,0,0,0,52.67,216.8Zm4.27-9.15a2.14,2.14,0,1,0-2.13,2.14A2.13,2.13,0,0,0,56.94,207.65ZM54.1,252.36a.71.71,0,0,0,.71.71.7.7,0,0,0,.7-.71.7.7,0,0,0-.7-.7A.7.7,0,0,0,54.1,252.36Zm.38,10.86a.33.33,0,0,0,.33.33.33.33,0,0,0,.33-.33.33.33,0,0,0-.33-.33A.32.32,0,0,0,54.48,263.22Zm0-2.61a.33.33,0,0,0,.33.33.34.34,0,0,0,0-.67A.33.33,0,0,0,54.48,260.61Zm-1.16-28.54a1.49,1.49,0,1,0,1.49-1.49A1.49,1.49,0,0,0,53.32,232.07Zm.78,16a.7.7,0,0,0,.71.7.7.7,0,0,0,.7-.7.7.7,0,0,0-.7-.71A.71.71,0,0,0,54.1,248.1Zm-1.43-22.73a2.14,2.14,0,1,0,2.14-2.13A2.14,2.14,0,0,0,52.67,225.37Zm1.07,12.92a1.07,1.07,0,1,0,1.07-1.07A1.07,1.07,0,0,0,53.74,238.29Zm.36,5.31a.71.71,0,0,0,.71.71.7.7,0,0,0,.7-.71.7.7,0,0,0-.7-.7A.7.7,0,0,0,54.1,243.6Z" transform="translate(0 0)"/><path class="cls-32" d="M26.34,335.65a2.19,2.19,0,1,0,2.19-2.19A2.19,2.19,0,0,0,26.34,335.65ZM18.85,154.2a9.68,9.68,0,1,0,9.68-9.68A9.68,9.68,0,0,0,18.85,154.2Zm19.36-41.46a9.68,9.68,0,1,0-9.68,9.68A9.69,9.69,0,0,0,38.21,112.74ZM25.33,315.32a3.2,3.2,0,1,0,3.2-3.2A3.2,3.2,0,0,0,25.33,315.32ZM27,364.5A1.51,1.51,0,1,0,28.53,363,1.51,1.51,0,0,0,27,364.5Zm0-11.83a1.51,1.51,0,1,0,1.51-1.51A1.51,1.51,0,0,0,27,352.67ZM21.79,223.36a6.74,6.74,0,1,0,6.74-6.73A6.74,6.74,0,0,0,21.79,223.36ZM25.33,296a3.2,3.2,0,1,0,3.2-3.2A3.2,3.2,0,0,0,25.33,296ZM18.85,193a9.68,9.68,0,1,0,9.68-9.67A9.68,9.68,0,0,0,18.85,193Zm4.83,58.52a4.85,4.85,0,1,0,4.85-4.85A4.85,4.85,0,0,0,23.68,251.54Zm1.65,24.08a3.2,3.2,0,1,0,3.2-3.2A3.21,3.21,0,0,0,25.33,275.62Z" transform="translate(0 0)"/><path class="cls-33" d="M88.71,188.37a1,1,0,1,0,0-2,1,1,0,1,0,0,2Zm0,88.16A4.52,4.52,0,1,0,84.19,272,4.51,4.51,0,0,0,88.71,276.53Zm0,10.32a4.52,4.52,0,1,0,4.51,4.51A4.51,4.51,0,0,0,88.71,286.85Zm0-88.52a1.5,1.5,0,1,0-1.5-1.49A1.49,1.49,0,0,0,88.71,198.33Zm0-23.74a.7.7,0,1,0-.7-.7A.7.7,0,0,0,88.71,174.59Zm0,5.52a.7.7,0,1,0-.7-.7A.7.7,0,0,0,88.71,180.11Zm0,62.78a3.15,3.15,0,1,0-3.14-3.14A3.15,3.15,0,0,0,88.71,242.89Zm0-35.54a1.5,1.5,0,1,0-1.5-1.5A1.5,1.5,0,0,0,88.71,207.35Zm0,51.07a4.52,4.52,0,1,0-4.52-4.52A4.51,4.51,0,0,0,88.71,258.42Zm0-29.56a2.27,2.27,0,1,0-2.26-2.26A2.26,2.26,0,0,0,88.71,228.86Zm0-12a1.5,1.5,0,1,0-1.5-1.49A1.49,1.49,0,0,0,88.71,216.85Z" transform="translate(0 0)"/><path class="cls-34" d="M366.65,234.24C365.41,176.16,317.79,129,259.7,128.33A108.33,108.33,0,0,0,157.57,197h0c-1.74,4.43-39.81,85.78-39.81,85.78a13.27,13.27,0,0,0,11.91,19.13h10.8l5.43,55.72a24,24,0,0,0,23.85,21.64H194.3a19.39,19.39,0,0,1,19.39,19.39V441.4c0-9.62,25.79-17.41,57.61-17.41s57.61,7.79,57.61,17.41V318.79h0A108.09,108.09,0,0,0,366.65,234.24Z" transform="translate(0 0)"/><path class="cls-35" d="M117.76,283.62s38.07-81.35,39.81-85.78h0A108.33,108.33,0,0,1,259.7,129.16c58.09.69,105.71,47.83,107,105.91,0,.85,0,1.69,0,2.54,0-1.12,0-2.24,0-3.37C365.41,176.16,317.79,129,259.7,128.33A108.33,108.33,0,0,0,157.57,197h0c-1.74,4.43-39.81,85.78-39.81,85.78a13.3,13.3,0,0,0-1.37,6.27A13.22,13.22,0,0,1,117.76,283.62Z" transform="translate(0 0)"/><ellipse class="cls-36" cx="271.3" cy="441.4" rx="57.61" ry="17.41"/><ellipse class="cls-37" cx="271.3" cy="433.27" rx="42.71" ry="12"/><ellipse class="cls-38" cx="271.3" cy="426.84" rx="32.63" ry="9.17"/><ellipse class="cls-39" cx="271.3" cy="417.68" rx="23.53" ry="6.61"/><path class="cls-40" d="M288,404.46c0,2.59-7.47,4.68-16.68,4.68s-16.68-2.09-16.68-4.68,7.47-4.69,16.68-4.69S288,401.87,288,404.46Z" transform="translate(0 0)"/><ellipse class="cls-41" cx="271.3" cy="388.93" rx="16.68" ry="4.69"/><g class="cls-42"><path class="cls-43" d="M152.84,249.34a1.14,1.14,0,1,0,1.13,1.13A1.14,1.14,0,0,0,152.84,249.34Zm0-97.6a5,5,0,1,0,5,5A5,5,0,0,0,152.84,151.74Zm0-11.42a5,5,0,1,0-5-5A5,5,0,0,0,152.84,140.32Zm0,98a1.65,1.65,0,1,0,1.65,1.65A1.65,1.65,0,0,0,152.84,238.32Zm0,26.28a.78.78,0,1,0,.78.78A.78.78,0,0,0,152.84,264.6Zm0-6.11a.77.77,0,0,0-.78.77.78.78,0,1,0,1.56,0A.77.77,0,0,0,152.84,258.49Zm0-69.5a3.48,3.48,0,1,0,3.48,3.48A3.48,3.48,0,0,0,152.84,189Zm0,39.34a1.66,1.66,0,1,0,1.65,1.66A1.66,1.66,0,0,0,152.84,228.33Zm0-56.53a5,5,0,1,0,5,5A5,5,0,0,0,152.84,171.8Zm0,32.72a2.51,2.51,0,1,0,2.51,2.5A2.5,2.5,0,0,0,152.84,204.52Zm0,13.29a1.66,1.66,0,1,0,1.65,1.66A1.65,1.65,0,0,0,152.84,217.81Z" transform="translate(0 0)"/><path class="cls-44" d="M137.59,249.34a1.14,1.14,0,1,0,1.13,1.13A1.14,1.14,0,0,0,137.59,249.34Zm0-97.6a5,5,0,1,0,5,5A5,5,0,0,0,137.59,151.74Zm0-11.42a5,5,0,1,0-5-5A5,5,0,0,0,137.59,140.32Zm0,98a1.65,1.65,0,1,0,1.65,1.65A1.65,1.65,0,0,0,137.59,238.32Zm0,26.28a.78.78,0,1,0,.77.78A.78.78,0,0,0,137.59,264.6Zm0-6.11a.77.77,0,0,0-.78.77.78.78,0,1,0,1.55,0A.77.77,0,0,0,137.59,258.49Zm0-69.5a3.48,3.48,0,1,0,3.47,3.48A3.48,3.48,0,0,0,137.59,189Zm0,39.34a1.66,1.66,0,1,0,1.65,1.66A1.66,1.66,0,0,0,137.59,228.33Zm0-56.53a5,5,0,1,0,5,5A5,5,0,0,0,137.59,171.8Zm0,32.72a2.51,2.51,0,1,0,2.5,2.5A2.5,2.5,0,0,0,137.59,204.52Zm0,13.29a1.66,1.66,0,1,0,1.65,1.66A1.66,1.66,0,0,0,137.59,217.81Z" transform="translate(0 0)"/><path class="cls-45" d="M183.35,249.34a1.14,1.14,0,1,0,1.14,1.13A1.14,1.14,0,0,0,183.35,249.34Zm0-97.6a5,5,0,1,0,5,5A5,5,0,0,0,183.35,151.74Zm0-11.42a5,5,0,1,0-5-5A5,5,0,0,0,183.35,140.32Zm0,98A1.65,1.65,0,1,0,185,240,1.65,1.65,0,0,0,183.35,238.32Zm0,26.28a.78.78,0,1,0,.78.78A.78.78,0,0,0,183.35,264.6Zm0-6.11a.76.76,0,0,0-.77.77.77.77,0,0,0,.77.78.78.78,0,0,0,.78-.78A.77.77,0,0,0,183.35,258.49Zm0-69.5a3.48,3.48,0,1,0,3.48,3.48A3.47,3.47,0,0,0,183.35,189Zm0,39.34A1.66,1.66,0,1,0,185,230,1.66,1.66,0,0,0,183.35,228.33Zm0-56.53a5,5,0,1,0,5,5A5,5,0,0,0,183.35,171.8Zm0,32.72a2.51,2.51,0,1,0,2.51,2.5A2.5,2.5,0,0,0,183.35,204.52Zm0,13.29a1.66,1.66,0,1,0,1.66,1.66A1.65,1.65,0,0,0,183.35,217.81Z" transform="translate(0 0)"/><path class="cls-46" d="M168.1,249.34a1.14,1.14,0,1,0,1.13,1.13A1.13,1.13,0,0,0,168.1,249.34Zm0-97.6a5,5,0,1,0,5,5A5,5,0,0,0,168.1,151.74Zm0-11.42a5,5,0,1,0-5-5A5,5,0,0,0,168.1,140.32Zm0,98a1.65,1.65,0,1,0,1.65,1.65A1.65,1.65,0,0,0,168.1,238.32Zm0,26.28a.78.78,0,1,0,.78.78A.78.78,0,0,0,168.1,264.6Zm0-6.11a.77.77,0,0,0-.78.77.78.78,0,1,0,1.56,0A.77.77,0,0,0,168.1,258.49Zm0-69.5a3.48,3.48,0,1,0,3.48,3.48A3.48,3.48,0,0,0,168.1,189Zm0,39.34a1.66,1.66,0,1,0,1.65,1.66A1.66,1.66,0,0,0,168.1,228.33Zm0-56.53a5,5,0,1,0,5,5A5,5,0,0,0,168.1,171.8Zm0,32.72a2.51,2.51,0,1,0,2.5,2.5A2.5,2.5,0,0,0,168.1,204.52Zm0,13.29a1.66,1.66,0,1,0,1.65,1.66A1.66,1.66,0,0,0,168.1,217.81Z" transform="translate(0 0)"/><path class="cls-47" d="M213.87,249.34a1.14,1.14,0,1,0,1.13,1.13A1.14,1.14,0,0,0,213.87,249.34Zm0-97.6a5,5,0,1,0,5,5A5,5,0,0,0,213.87,151.74Zm0-11.42a5,5,0,1,0-5-5A5,5,0,0,0,213.87,140.32Zm0,98a1.65,1.65,0,1,0,1.65,1.65A1.65,1.65,0,0,0,213.87,238.32Zm0,26.28a.78.78,0,1,0,0,1.55.78.78,0,0,0,0-1.55Zm0-6.11a.77.77,0,0,0-.78.77.78.78,0,0,0,.78.78.77.77,0,0,0,.77-.78A.76.76,0,0,0,213.87,258.49Zm0-69.5a3.48,3.48,0,1,0,3.48,3.48A3.48,3.48,0,0,0,213.87,189Zm0,39.34a1.66,1.66,0,1,0,1.65,1.66A1.66,1.66,0,0,0,213.87,228.33Zm0-56.53a5,5,0,1,0,5,5A5,5,0,0,0,213.87,171.8Zm0,32.72a2.51,2.51,0,1,0,2.5,2.5A2.5,2.5,0,0,0,213.87,204.52Zm0,13.29a1.66,1.66,0,1,0,1.65,1.66A1.66,1.66,0,0,0,213.87,217.81Z" transform="translate(0 0)"/><path class="cls-48" d="M198.61,249.34a1.14,1.14,0,1,0,1.13,1.13A1.14,1.14,0,0,0,198.61,249.34Zm0-97.6a5,5,0,1,0,5,5A5,5,0,0,0,198.61,151.74Zm0-11.42a5,5,0,1,0-5-5A5,5,0,0,0,198.61,140.32Zm0,98a1.65,1.65,0,1,0,1.65,1.65A1.65,1.65,0,0,0,198.61,238.32Zm0,26.28a.78.78,0,1,0,.78.78A.78.78,0,0,0,198.61,264.6Zm0-6.11a.77.77,0,0,0-.78.77.78.78,0,1,0,1.56,0A.77.77,0,0,0,198.61,258.49Zm0-69.5a3.48,3.48,0,1,0,3.48,3.48A3.48,3.48,0,0,0,198.61,189Zm0,39.34a1.66,1.66,0,1,0,1.65,1.66A1.66,1.66,0,0,0,198.61,228.33Zm0-56.53a5,5,0,1,0,5,5A5,5,0,0,0,198.61,171.8Zm0,32.72a2.51,2.51,0,1,0,2.51,2.5A2.5,2.5,0,0,0,198.61,204.52Zm0,13.29a1.66,1.66,0,1,0,1.65,1.66A1.65,1.65,0,0,0,198.61,217.81Z" transform="translate(0 0)"/><path class="cls-49" d="M244.38,249.34a1.14,1.14,0,1,0,1.13,1.13A1.13,1.13,0,0,0,244.38,249.34Zm0-97.6a5,5,0,1,0,5,5A5,5,0,0,0,244.38,151.74Zm0-11.42a5,5,0,1,0-5-5A5,5,0,0,0,244.38,140.32Zm0,98A1.65,1.65,0,1,0,246,240,1.65,1.65,0,0,0,244.38,238.32Zm0,26.28a.78.78,0,1,0,.78.78A.78.78,0,0,0,244.38,264.6Zm0-6.11a.77.77,0,0,0-.78.77.78.78,0,1,0,1.56,0A.77.77,0,0,0,244.38,258.49Zm0-69.5a3.48,3.48,0,1,0,3.48,3.48A3.48,3.48,0,0,0,244.38,189Zm0,39.34A1.66,1.66,0,1,0,246,230,1.66,1.66,0,0,0,244.38,228.33Zm0-56.53a5,5,0,1,0,5,5A5,5,0,0,0,244.38,171.8Zm0,32.72a2.51,2.51,0,1,0,2.5,2.5A2.51,2.51,0,0,0,244.38,204.52Zm0,13.29a1.66,1.66,0,1,0,1.65,1.66A1.65,1.65,0,0,0,244.38,217.81Z" transform="translate(0 0)"/><path class="cls-50" d="M229.12,249.34a1.14,1.14,0,1,0,1.14,1.13A1.14,1.14,0,0,0,229.12,249.34Zm0-97.6a5,5,0,1,0,5,5A5,5,0,0,0,229.12,151.74Zm0-11.42a5,5,0,1,0-5-5A5,5,0,0,0,229.12,140.32Zm0,98a1.65,1.65,0,1,0,1.66,1.65A1.65,1.65,0,0,0,229.12,238.32Zm0,26.28a.78.78,0,1,0,.78.78A.78.78,0,0,0,229.12,264.6Zm0-6.11a.76.76,0,0,0-.77.77.77.77,0,0,0,.77.78.78.78,0,0,0,.78-.78A.77.77,0,0,0,229.12,258.49Zm0-69.5a3.48,3.48,0,1,0,3.48,3.48A3.48,3.48,0,0,0,229.12,189Zm0,39.34a1.66,1.66,0,1,0,1.66,1.66A1.66,1.66,0,0,0,229.12,228.33Zm0-56.53a5,5,0,1,0,5,5A5,5,0,0,0,229.12,171.8Zm0,32.72a2.51,2.51,0,1,0,2.51,2.5A2.5,2.5,0,0,0,229.12,204.52Zm0,13.29a1.66,1.66,0,1,0,1.66,1.66A1.65,1.65,0,0,0,229.12,217.81Z" transform="translate(0 0)"/><path class="cls-51" d="M274.16,249.34a1.14,1.14,0,1,0,1.13,1.13A1.13,1.13,0,0,0,274.16,249.34Zm0-97.6a5,5,0,1,0,5,5A5,5,0,0,0,274.16,151.74Zm0-11.42a5,5,0,1,0-5-5A5,5,0,0,0,274.16,140.32Zm0,98a1.65,1.65,0,1,0,1.65,1.65A1.66,1.66,0,0,0,274.16,238.32Zm0,26.28a.78.78,0,1,0,.78.78A.78.78,0,0,0,274.16,264.6Zm0-6.11a.77.77,0,0,0-.78.77.78.78,0,0,0,1.56,0A.77.77,0,0,0,274.16,258.49Zm0-69.5a3.48,3.48,0,1,0,3.48,3.48A3.48,3.48,0,0,0,274.16,189Zm0,39.34a1.66,1.66,0,1,0,0,3.31,1.66,1.66,0,0,0,0-3.31Zm0-56.53a5,5,0,1,0,5,5A5,5,0,0,0,274.16,171.8Zm0,32.72a2.51,2.51,0,1,0,2.5,2.5A2.5,2.5,0,0,0,274.16,204.52Zm0,13.29a1.66,1.66,0,1,0,1.65,1.66A1.66,1.66,0,0,0,274.16,217.81Z" transform="translate(0 0)"/><path class="cls-52" d="M258.9,249.34a1.14,1.14,0,1,0,1.13,1.13A1.14,1.14,0,0,0,258.9,249.34Zm0-97.6a5,5,0,1,0,5,5A5,5,0,0,0,258.9,151.74Zm0-11.42a5,5,0,1,0-5-5A5,5,0,0,0,258.9,140.32Zm0,98a1.65,1.65,0,1,0,1.66,1.65A1.65,1.65,0,0,0,258.9,238.32Zm0,26.28a.78.78,0,1,0,.78.78A.78.78,0,0,0,258.9,264.6Zm0-6.11a.77.77,0,0,0-.78.77.78.78,0,1,0,1.56,0A.77.77,0,0,0,258.9,258.49Zm0-69.5a3.48,3.48,0,1,0,3.48,3.48A3.48,3.48,0,0,0,258.9,189Zm0,39.34a1.66,1.66,0,1,0,1.66,1.66A1.66,1.66,0,0,0,258.9,228.33Zm0-56.53a5,5,0,1,0,5,5A5,5,0,0,0,258.9,171.8Zm0,32.72a2.51,2.51,0,1,0,2.51,2.5A2.5,2.5,0,0,0,258.9,204.52Zm0,13.29a1.66,1.66,0,1,0,1.66,1.66A1.65,1.65,0,0,0,258.9,217.81Z" transform="translate(0 0)"/><path class="cls-53" d="M304.67,249.34a1.14,1.14,0,1,0,1.13,1.13A1.14,1.14,0,0,0,304.67,249.34Zm0-97.6a5,5,0,1,0,5,5A5,5,0,0,0,304.67,151.74Zm0-11.42a5,5,0,1,0-5-5A5,5,0,0,0,304.67,140.32Zm0,98a1.65,1.65,0,1,0,1.65,1.65A1.65,1.65,0,0,0,304.67,238.32Zm0,26.28a.78.78,0,1,0,.78.78A.78.78,0,0,0,304.67,264.6Zm0-6.11a.77.77,0,0,0-.78.77.78.78,0,1,0,1.56,0A.77.77,0,0,0,304.67,258.49Zm0-69.5a3.48,3.48,0,1,0,3.48,3.48A3.48,3.48,0,0,0,304.67,189Zm0,39.34a1.66,1.66,0,1,0,1.65,1.66A1.66,1.66,0,0,0,304.67,228.33Zm0-56.53a5,5,0,1,0,5,5A5,5,0,0,0,304.67,171.8Zm0,32.72a2.51,2.51,0,1,0,2.51,2.5A2.5,2.5,0,0,0,304.67,204.52Zm0,13.29a1.66,1.66,0,1,0,1.65,1.66A1.65,1.65,0,0,0,304.67,217.81Z" transform="translate(0 0)"/><path class="cls-54" d="M289.41,249.34a1.14,1.14,0,1,0,1.14,1.13A1.14,1.14,0,0,0,289.41,249.34Zm0-97.6a5,5,0,1,0,5,5A5,5,0,0,0,289.41,151.74Zm0-11.42a5,5,0,1,0-5-5A5,5,0,0,0,289.41,140.32Zm0,98a1.65,1.65,0,1,0,1.66,1.65A1.65,1.65,0,0,0,289.41,238.32Zm0,26.28a.78.78,0,1,0,.78.78A.78.78,0,0,0,289.41,264.6Zm0-6.11a.77.77,0,0,0-.77.77.78.78,0,1,0,.77-.77Zm0-69.5a3.48,3.48,0,1,0,3.48,3.48A3.47,3.47,0,0,0,289.41,189Zm0,39.34a1.66,1.66,0,1,0,1.66,1.66A1.66,1.66,0,0,0,289.41,228.33Zm0-56.53a5,5,0,1,0,5,5A5,5,0,0,0,289.41,171.8Zm0,32.72a2.51,2.51,0,1,0,2.51,2.5A2.5,2.5,0,0,0,289.41,204.52Zm0,13.29a1.66,1.66,0,1,0,1.66,1.66A1.65,1.65,0,0,0,289.41,217.81Z" transform="translate(0 0)"/><path class="cls-55" d="M335.18,249.34a1.14,1.14,0,1,0,1.14,1.13A1.14,1.14,0,0,0,335.18,249.34Zm0-97.6a5,5,0,1,0,5,5A5,5,0,0,0,335.18,151.74Zm0-11.42a5,5,0,1,0-5-5A5,5,0,0,0,335.18,140.32Zm0,98a1.65,1.65,0,1,0,1.66,1.65A1.65,1.65,0,0,0,335.18,238.32Zm0,26.28a.78.78,0,1,0,.78.78A.78.78,0,0,0,335.18,264.6Zm0-6.11a.76.76,0,0,0-.77.77.77.77,0,0,0,.77.78.78.78,0,0,0,.78-.78A.77.77,0,0,0,335.18,258.49Zm0-69.5a3.48,3.48,0,1,0,3.48,3.48A3.48,3.48,0,0,0,335.18,189Zm0,39.34a1.66,1.66,0,1,0,1.66,1.66A1.66,1.66,0,0,0,335.18,228.33Zm0-56.53a5,5,0,1,0,5,5A5,5,0,0,0,335.18,171.8Zm0,32.72a2.51,2.51,0,1,0,2.51,2.5A2.5,2.5,0,0,0,335.18,204.52Zm0,13.29a1.66,1.66,0,1,0,1.66,1.66A1.65,1.65,0,0,0,335.18,217.81Z" transform="translate(0 0)"/><path class="cls-56" d="M319.93,249.34a1.14,1.14,0,1,0,1.13,1.13A1.13,1.13,0,0,0,319.93,249.34Zm0-97.6a5,5,0,1,0,5,5A5,5,0,0,0,319.93,151.74Zm0-11.42a5,5,0,1,0-5-5A5,5,0,0,0,319.93,140.32Zm0,98a1.65,1.65,0,1,0,1.65,1.65A1.65,1.65,0,0,0,319.93,238.32Zm0,26.28a.78.78,0,1,0,.78.78A.78.78,0,0,0,319.93,264.6Zm0-6.11a.77.77,0,0,0-.78.77.78.78,0,1,0,1.56,0A.77.77,0,0,0,319.93,258.49Zm0-69.5a3.48,3.48,0,1,0,3.48,3.48A3.48,3.48,0,0,0,319.93,189Zm0,39.34a1.66,1.66,0,1,0,1.65,1.66A1.66,1.66,0,0,0,319.93,228.33Zm0-56.53a5,5,0,1,0,5,5A5,5,0,0,0,319.93,171.8Zm0,32.72a2.51,2.51,0,1,0,2.5,2.5A2.5,2.5,0,0,0,319.93,204.52Zm0,13.29a1.66,1.66,0,1,0,1.65,1.66A1.66,1.66,0,0,0,319.93,217.81Z" transform="translate(0 0)"/><path class="cls-57" d="M365.7,249.34a1.14,1.14,0,1,0,1.13,1.13A1.14,1.14,0,0,0,365.7,249.34Zm0-97.6a5,5,0,1,0,5,5A5,5,0,0,0,365.7,151.74Zm0-11.42a5,5,0,1,0-5-5A5,5,0,0,0,365.7,140.32Zm0,98a1.65,1.65,0,1,0,1.65,1.65A1.65,1.65,0,0,0,365.7,238.32Zm0,26.28a.78.78,0,1,0,0,1.55.78.78,0,0,0,0-1.55Zm0-6.11a.77.77,0,0,0-.78.77.78.78,0,0,0,.78.78.77.77,0,0,0,.77-.78A.76.76,0,0,0,365.7,258.49Zm0-69.5a3.48,3.48,0,1,0,3.48,3.48A3.48,3.48,0,0,0,365.7,189Zm0,39.34a1.66,1.66,0,1,0,1.65,1.66A1.66,1.66,0,0,0,365.7,228.33Zm0-56.53a5,5,0,1,0,5,5A5,5,0,0,0,365.7,171.8Zm0,32.72a2.51,2.51,0,1,0,2.5,2.5A2.5,2.5,0,0,0,365.7,204.52Zm0,13.29a1.66,1.66,0,1,0,1.65,1.66A1.66,1.66,0,0,0,365.7,217.81Z" transform="translate(0 0)"/><path class="cls-58" d="M350.44,249.34a1.14,1.14,0,1,0,1.13,1.13A1.14,1.14,0,0,0,350.44,249.34Zm0-97.6a5,5,0,1,0,5,5A5,5,0,0,0,350.44,151.74Zm0-11.42a5,5,0,1,0-5-5A5,5,0,0,0,350.44,140.32Zm0,98a1.65,1.65,0,1,0,1.65,1.65A1.65,1.65,0,0,0,350.44,238.32Zm0,26.28a.78.78,0,1,0,.78.78A.78.78,0,0,0,350.44,264.6Zm0-6.11a.77.77,0,0,0-.78.77.78.78,0,1,0,1.56,0A.77.77,0,0,0,350.44,258.49Zm0-69.5a3.48,3.48,0,1,0,3.48,3.48A3.48,3.48,0,0,0,350.44,189Zm0,39.34a1.66,1.66,0,1,0,1.65,1.66A1.66,1.66,0,0,0,350.44,228.33Zm0-56.53a5,5,0,1,0,5,5A5,5,0,0,0,350.44,171.8Zm0,32.72A2.51,2.51,0,1,0,353,207,2.5,2.5,0,0,0,350.44,204.52Zm0,13.29a1.66,1.66,0,1,0,1.65,1.66A1.65,1.65,0,0,0,350.44,217.81Z" transform="translate(0 0)"/></g><path class="cls-59" d="M297.7,354.69c-.13.58.29,1,1,1a1.54,1.54,0,0,0,1.48-1c.14-.58-.31-1-1-1A1.49,1.49,0,0,0,297.7,354.69ZM282,268.32c-.08,2.54,1.65,4.6,3.67,4.6s3.54-2.06,3.64-4.6-1.23-4.61-3.29-4.61S282.1,265.77,282,268.32Zm12.71-19.74c1.4-2.54.8-4.61-1.79-4.61a8.08,8.08,0,0,0-6.77,4.61c-1,2.54.16,4.61,2.36,4.61S293.34,251.12,294.74,248.58ZM298.38,345a1.6,1.6,0,0,0,1.75,1.52,1.81,1.81,0,0,0,1.92-1.52,1.64,1.64,0,0,0-1.8-1.52A1.76,1.76,0,0,0,298.38,345Zm-5.72,23.41c-.23.4-.1.72.29.72a1.54,1.54,0,0,0,1.16-.72c.23-.39.09-.71-.32-.71A1.47,1.47,0,0,0,292.66,368.42Zm2.79-5.63a.48.48,0,0,0,.47.72,1.3,1.3,0,0,0,1.1-.72.48.48,0,0,0-.48-.72A1.29,1.29,0,0,0,295.45,362.79Zm-7.16-61.55a4.45,4.45,0,0,0,4,3.2c1.75,0,2.69-1.43,2.1-3.2a4.67,4.67,0,0,0-4-3.21C288.78,298,287.82,299.47,288.29,301.24Zm9.77,34.57a1.91,1.91,0,0,0,2,1.53,1.51,1.51,0,0,0,1.68-1.53,1.94,1.94,0,0,0-2-1.52A1.49,1.49,0,0,0,298.06,335.81Zm-14.4-49a5.52,5.52,0,0,0,5,4.6c2.25,0,3.46-2.06,2.83-4.6s-2.69-4.61-4.78-4.61S283.2,284.25,283.66,286.8Zm9.24,27.85A3.35,3.35,0,0,0,296,317a1.73,1.73,0,0,0,1.82-2.31,3.52,3.52,0,0,0-3.15-2.31A1.75,1.75,0,0,0,292.9,314.65Zm3.65,11.47a2.11,2.11,0,0,0,2.07,1.52c1,0,1.63-.68,1.44-1.52a2.18,2.18,0,0,0-2.09-1.53A1.3,1.3,0,0,0,296.55,326.12Z" transform="translate(0 0)"/><path class="cls-60" d="M314.14,354.69c-.18.58.19,1,.86,1a1.73,1.73,0,0,0,1.58-1c.19-.58-.22-1-.89-1A1.67,1.67,0,0,0,314.14,354.69Zm-21-86.37c-.12,2.54,1.66,4.6,3.68,4.6s3.49-2.06,3.63-4.6-1.09-4.61-3.14-4.61S293.29,265.77,293.18,268.32Zm14.62-19.74c1.89-2.54,1.8-4.61-.79-4.61a10.47,10.47,0,0,0-7.77,4.61c-1.52,2.54-.6,4.61,1.59,4.61S305.91,251.12,307.8,248.58ZM315.34,345a1.56,1.56,0,0,0,1.72,1.52A1.86,1.86,0,0,0,319,345a1.61,1.61,0,0,0-1.78-1.52A1.78,1.78,0,0,0,315.34,345Zm-8.45,23.41c-.32.4-.27.72.12.72a2,2,0,0,0,1.33-.72c.33-.39.25-.71-.15-.71A2,2,0,0,0,306.89,368.42Zm3.94-5.63c-.24.4-.09.72.34.72a1.6,1.6,0,0,0,1.22-.72c.25-.39.08-.72-.36-.72A1.57,1.57,0,0,0,310.83,362.79Zm-9.12-61.55a5.19,5.19,0,0,0,4.41,3.2c1.75,0,2.5-1.43,1.71-3.2a5.44,5.44,0,0,0-4.37-3.21C301.83,298,301,299.47,301.71,301.24Zm13.19,34.57a2,2,0,0,0,2,1.53c1,0,1.75-.69,1.62-1.53a2,2,0,0,0-2.06-1.52C315.47,334.29,314.78,335,314.9,335.81Zm-19.34-49c.67,2.54,3.15,4.6,5.4,4.6s3.24-2.06,2.4-4.6-3-4.61-5.12-4.61S294.88,284.25,295.56,286.8Zm12.37,27.85a3.85,3.85,0,0,0,3.38,2.31,1.55,1.55,0,0,0,1.55-2.31,4.06,4.06,0,0,0-3.41-2.31A1.56,1.56,0,0,0,307.93,314.65Zm4.82,11.47a2.35,2.35,0,0,0,2.2,1.52c1,0,1.57-.68,1.31-1.52a2.44,2.44,0,0,0-2.23-1.53A1.18,1.18,0,0,0,312.75,326.12Z" transform="translate(0 0)"/><path class="cls-61" d="M264.81,354.69a1.08,1.08,0,0,0,1.17,1,1.21,1.21,0,0,0,1.27-1,1.07,1.07,0,0,0-1.17-1A1.2,1.2,0,0,0,264.81,354.69Zm-5.08-86.37c0,2.54,1.63,4.6,3.66,4.6s3.62-2.06,3.65-4.6-1.53-4.61-3.58-4.61S259.73,265.77,259.73,268.32Zm8.89-19.74a3.75,3.75,0,0,0-3.78-4.61,4.77,4.77,0,0,0-4.78,4.61c-.06,2.54,1.69,4.61,3.89,4.61S268.19,251.12,268.62,248.58ZM264.45,345a1.69,1.69,0,0,0,1.82,1.52,1.73,1.73,0,0,0,1.86-1.52,1.69,1.69,0,0,0-1.83-1.52A1.72,1.72,0,0,0,264.45,345Zm-.25,23.41a.63.63,0,0,0,.64.72.84.84,0,0,0,.81-.72.63.63,0,0,0-.65-.71A.82.82,0,0,0,264.2,368.42Zm.51-5.63a.68.68,0,0,0,.72.72.85.85,0,0,0,.85-.72.68.68,0,0,0-.73-.72A.84.84,0,0,0,264.71,362.79Zm-3.25-61.55a3.28,3.28,0,0,0,3.25,3.2,2.85,2.85,0,0,0,2.87-3.2,3.47,3.47,0,0,0-3.25-3.21A3,3,0,0,0,261.46,301.24Zm2.94,34.57a1.73,1.73,0,0,0,1.85,1.53,1.66,1.66,0,0,0,1.8-1.53,1.75,1.75,0,0,0-1.86-1.52A1.66,1.66,0,0,0,264.4,335.81Zm-4.54-49a4.41,4.41,0,0,0,4.11,4.6c2.25,0,3.88-2.06,3.69-4.6s-2-4.61-4.08-4.61S259.83,284.25,259.86,286.8Zm3,27.85a2.53,2.53,0,0,0,2.6,2.31,2.21,2.21,0,0,0,2.34-2.31,2.62,2.62,0,0,0-2.61-2.31A2.27,2.27,0,0,0,262.85,314.65Zm1.3,11.47a1.73,1.73,0,0,0,1.82,1.52,1.55,1.55,0,0,0,1.69-1.52,1.75,1.75,0,0,0-1.82-1.53A1.59,1.59,0,0,0,264.15,326.12Z" transform="translate(0 0)"/><path class="cls-62" d="M281.25,354.69a1,1,0,0,0,1.07,1,1.36,1.36,0,0,0,1.37-1c.09-.58-.4-1-1.08-1A1.34,1.34,0,0,0,281.25,354.69Zm-10.37-86.37c0,2.54,1.64,4.6,3.66,4.6s3.58-2.06,3.65-4.6-1.38-4.61-3.44-4.61S270.92,265.77,270.88,268.32Zm10.8-19.74c.92-2.54-.2-4.61-2.78-4.61a6.19,6.19,0,0,0-5.78,4.61c-.55,2.54.93,4.61,3.13,4.61S280.76,251.12,281.68,248.58ZM281.41,345a1.65,1.65,0,0,0,1.79,1.52,1.77,1.77,0,0,0,1.89-1.52,1.66,1.66,0,0,0-1.81-1.52A1.74,1.74,0,0,0,281.41,345Zm-3,23.41a.49.49,0,0,0,.47.72,1.15,1.15,0,0,0,1-.72.49.49,0,0,0-.48-.71A1.09,1.09,0,0,0,278.43,368.42Zm1.65-5.63a.57.57,0,0,0,.6.72,1,1,0,0,0,1-.72.56.56,0,0,0-.6-.72A1,1,0,0,0,280.08,362.79Zm-5.2-61.55a3.8,3.8,0,0,0,3.63,3.2,2.49,2.49,0,0,0,2.48-3.2,4,4,0,0,0-3.62-3.21A2.61,2.61,0,0,0,274.88,301.24Zm6.35,34.57a1.82,1.82,0,0,0,1.91,1.53,1.58,1.58,0,0,0,1.74-1.53,1.85,1.85,0,0,0-1.93-1.52A1.57,1.57,0,0,0,281.23,335.81Zm-9.47-49a4.93,4.93,0,0,0,4.54,4.6c2.25,0,3.67-2.06,3.26-4.6s-2.35-4.61-4.43-4.61S271.52,284.25,271.76,286.8Zm6.12,27.85a2.9,2.9,0,0,0,2.86,2.31,1.93,1.93,0,0,0,2.07-2.31,3,3,0,0,0-2.87-2.31A2,2,0,0,0,277.88,314.65Zm2.47,11.47a1.91,1.91,0,0,0,1.95,1.52,1.41,1.41,0,0,0,1.56-1.52,2,2,0,0,0-1.95-1.53A1.43,1.43,0,0,0,280.35,326.12Z" transform="translate(0 0)"/><path class="cls-63" d="M231.92,354.69a1.38,1.38,0,0,0,1.38,1,1,1,0,0,0,1.06-1,1.33,1.33,0,0,0-1.36-1A1,1,0,0,0,231.92,354.69Zm5.51-86.37c.06,2.54,1.62,4.6,3.64,4.6s3.71-2.06,3.66-4.6-1.82-4.61-3.87-4.61S237.36,265.77,237.43,268.32Zm5.07-19.74a6.2,6.2,0,0,0-5.78-4.61c-2.59,0-3.7,2.07-2.78,4.61s3.22,4.61,5.43,4.61S243,251.12,242.5,248.58Zm-12,96.43a1.76,1.76,0,0,0,1.88,1.52A1.64,1.64,0,0,0,234.2,345a1.73,1.73,0,0,0-1.86-1.52A1.65,1.65,0,0,0,230.53,345Zm5.21,23.41a1.12,1.12,0,0,0,1,.72.5.5,0,0,0,.47-.72,1.1,1.1,0,0,0-1-.71A.49.49,0,0,0,235.74,368.42ZM234,362.79a1,1,0,0,0,1,.72.56.56,0,0,0,.59-.72,1,1,0,0,0-1-.72A.56.56,0,0,0,234,362.79Zm.65-61.55a2.5,2.5,0,0,0,2.48,3.2,3.82,3.82,0,0,0,3.64-3.2,2.62,2.62,0,0,0-2.5-3.21A4,4,0,0,0,234.62,301.24Zm-3.88,34.57a1.57,1.57,0,0,0,1.73,1.53,1.81,1.81,0,0,0,1.91-1.53,1.56,1.56,0,0,0-1.72-1.52A1.83,1.83,0,0,0,230.74,335.81Zm5.32-49c-.41,2.54,1,4.6,3.26,4.6a4.94,4.94,0,0,0,4.54-4.6c.24-2.55-1.3-4.61-3.38-4.61S236.47,284.25,236.06,286.8Zm-3.26,27.85a1.94,1.94,0,0,0,2.08,2.31,2.9,2.9,0,0,0,2.86-2.31,2,2,0,0,0-2.06-2.31A3,3,0,0,0,232.8,314.65Zm-1.05,11.47a1.42,1.42,0,0,0,1.57,1.52,1.9,1.9,0,0,0,1.94-1.52,1.43,1.43,0,0,0-1.55-1.53A2,2,0,0,0,231.75,326.12Z" transform="translate(0 0)"/><path class="cls-64" d="M248.37,354.69a1.21,1.21,0,0,0,1.27,1,1.08,1.08,0,0,0,1.17-1,1.2,1.2,0,0,0-1.27-1A1.06,1.06,0,0,0,248.37,354.69Zm.21-86.37c0,2.54,1.63,4.6,3.65,4.6s3.66-2.06,3.66-4.6-1.68-4.61-3.73-4.61S248.54,265.77,248.58,268.32Zm7-19.74a4.77,4.77,0,0,0-4.78-4.61,3.74,3.74,0,0,0-3.78,4.61c.43,2.54,2.46,4.61,4.66,4.61S255.62,251.12,255.56,248.58ZM247.49,345a1.72,1.72,0,0,0,1.85,1.52,1.67,1.67,0,0,0,1.82-1.52,1.71,1.71,0,0,0-1.84-1.52A1.68,1.68,0,0,0,247.49,345ZM250,368.42a.84.84,0,0,0,.81.72.64.64,0,0,0,.64-.72.82.82,0,0,0-.81-.71A.62.62,0,0,0,250,368.42Zm-.63-5.63a.84.84,0,0,0,.84.72.68.68,0,0,0,.72-.72.82.82,0,0,0-.84-.72A.68.68,0,0,0,249.34,362.79ZM248,301.24a2.85,2.85,0,0,0,2.87,3.2,3.29,3.29,0,0,0,3.25-3.2,3,3,0,0,0-2.87-3.21A3.45,3.45,0,0,0,248,301.24Zm-.47,34.57a1.65,1.65,0,0,0,1.79,1.53,1.75,1.75,0,0,0,1.86-1.53,1.66,1.66,0,0,0-1.79-1.52A1.74,1.74,0,0,0,247.57,335.81Zm.39-49c-.2,2.54,1.44,4.6,3.68,4.6a4.42,4.42,0,0,0,4.12-4.6c0-2.55-1.65-4.61-3.73-4.61S248.15,284.25,248,286.8Zm-.13,27.85a2.2,2.2,0,0,0,2.33,2.31,2.51,2.51,0,0,0,2.6-2.31,2.27,2.27,0,0,0-2.33-2.31A2.61,2.61,0,0,0,247.83,314.65Zm.12,11.47a1.56,1.56,0,0,0,1.69,1.52,1.72,1.72,0,0,0,1.82-1.52,1.58,1.58,0,0,0-1.68-1.53A1.76,1.76,0,0,0,248,326.12Z" transform="translate(0 0)"/><path class="cls-65" d="M199,354.69a1.76,1.76,0,0,0,1.59,1c.66,0,1-.46.86-1a1.68,1.68,0,0,0-1.55-1C199.25,353.65,198.84,354.11,199,354.69Zm16.09-86.37c.15,2.54,1.61,4.6,3.64,4.6s3.79-2.06,3.67-4.6-2.11-4.61-4.16-4.61S215,265.77,215.12,268.32Zm1.25-19.74A10.45,10.45,0,0,0,208.6,244c-2.59,0-2.67,2.07-.79,4.61s4.76,4.61,7,4.61S217.89,251.12,216.37,248.58ZM196.6,345a1.86,1.86,0,0,0,2,1.52,1.57,1.57,0,0,0,1.72-1.52,1.79,1.79,0,0,0-1.9-1.52A1.62,1.62,0,0,0,196.6,345Zm10.68,23.41a2,2,0,0,0,1.32.72c.4,0,.45-.32.13-.72a2,2,0,0,0-1.3-.71C207,367.71,207,368,207.28,368.42Zm-4.06-5.63a1.62,1.62,0,0,0,1.23.72c.43,0,.57-.32.34-.72a1.59,1.59,0,0,0-1.21-.72C203.14,362.07,203,362.4,203.22,362.79Zm4.56-61.55c-.79,1.77,0,3.2,1.72,3.2a5.18,5.18,0,0,0,4.4-3.2c.68-1.77-.11-3.21-1.75-3.21A5.46,5.46,0,0,0,207.78,301.24Zm-10.71,34.57c-.13.84.61,1.53,1.62,1.53a2,2,0,0,0,2-1.53c.12-.84-.58-1.52-1.58-1.52A2.06,2.06,0,0,0,197.07,335.81Zm15.19-49c-.85,2.54.15,4.6,2.4,4.6s4.72-2.06,5.39-4.6-.59-4.61-2.67-4.61S213.1,284.25,212.26,286.8Zm-9.5,27.85a1.55,1.55,0,0,0,1.55,2.31,3.86,3.86,0,0,0,3.38-2.31,1.56,1.56,0,0,0-1.52-2.31A4.05,4.05,0,0,0,202.76,314.65Zm-3.41,11.47c-.26.84.34,1.52,1.32,1.52a2.34,2.34,0,0,0,2.19-1.52,1.18,1.18,0,0,0-1.28-1.53A2.45,2.45,0,0,0,199.35,326.12Z" transform="translate(0 0)"/><path class="cls-66" d="M215.48,354.69a1.54,1.54,0,0,0,1.48,1c.66,0,1.09-.46,1-1a1.5,1.5,0,0,0-1.45-1C215.79,353.65,215.34,354.11,215.48,354.69Zm10.79-86.37c.11,2.54,1.62,4.6,3.64,4.6s3.75-2.06,3.67-4.6-2-4.61-4-4.61S226.17,265.77,226.27,268.32Zm3.16-19.74a8.05,8.05,0,0,0-6.77-4.61c-2.59,0-3.19,2.07-1.79,4.61s4,4.61,6.21,4.61S230.47,251.12,229.43,248.58ZM213.56,345a1.82,1.82,0,0,0,1.92,1.52,1.61,1.61,0,0,0,1.76-1.52,1.76,1.76,0,0,0-1.88-1.52A1.65,1.65,0,0,0,213.56,345Zm7.95,23.41a1.54,1.54,0,0,0,1.15.72c.4,0,.53-.32.3-.72a1.49,1.49,0,0,0-1.14-.71C221.41,367.71,221.27,368,221.51,368.42Zm-2.92-5.63a1.31,1.31,0,0,0,1.1.72.48.48,0,0,0,.47-.72,1.29,1.29,0,0,0-1.09-.72A.48.48,0,0,0,218.59,362.79Zm2.61-61.55c-.58,1.77.35,3.2,2.1,3.2a4.44,4.44,0,0,0,4-3.2c.47-1.77-.49-3.21-2.12-3.21A4.68,4.68,0,0,0,221.2,301.24Zm-7.3,34.57a1.51,1.51,0,0,0,1.68,1.53,1.9,1.9,0,0,0,2-1.53,1.49,1.49,0,0,0-1.65-1.52A2,2,0,0,0,213.9,335.81Zm10.26-49c-.63,2.54.58,4.6,2.83,4.6s4.51-2.06,5-4.6-1-4.61-3-4.61S224.78,284.25,224.16,286.8Zm-6.38,27.85a1.72,1.72,0,0,0,1.81,2.31,3.34,3.34,0,0,0,3.12-2.31,1.75,1.75,0,0,0-1.79-2.31A3.51,3.51,0,0,0,217.78,314.65Zm-2.23,11.47c-.19.84.46,1.52,1.44,1.52a2.11,2.11,0,0,0,2.07-1.52,1.29,1.29,0,0,0-1.41-1.53A2.2,2.2,0,0,0,215.55,326.12Z" transform="translate(0 0)"/><path class="cls-67" d="M295.58,239.18H220.3a38.23,38.23,0,0,1-38.12-38.12h0a38.23,38.23,0,0,1,38.12-38.12h75.28a38.23,38.23,0,0,1,38.12,38.12h0A38.23,38.23,0,0,1,295.58,239.18Z" transform="translate(0 0)"/><path class="cls-67" d="M295.58,239.18H220.3a38.23,38.23,0,0,1-38.12-38.12h0a38.23,38.23,0,0,1,38.12-38.12h75.28a38.23,38.23,0,0,1,38.12,38.12h0A38.23,38.23,0,0,1,295.58,239.18Z" transform="translate(0 0)"/><path class="cls-67" d="M295.58,239.18H220.3a38.23,38.23,0,0,1-38.12-38.12h0a38.23,38.23,0,0,1,38.12-38.12h75.28a38.23,38.23,0,0,1,38.12,38.12h0A38.23,38.23,0,0,1,295.58,239.18Z" transform="translate(0 0)"/><path class="cls-68" d="M295.58,162.94H220.3a38.23,38.23,0,0,0-38.12,38.12h0c0,.12,0,.25,0,.37a38.23,38.23,0,0,1,38.11-37.75h75.28a38.24,38.24,0,0,1,38.12,37.75v-.37h0A38.23,38.23,0,0,0,295.58,162.94Z" transform="translate(0 0)"/><g class="cls-69"><path class="cls-70" d="M203.08,239a4.64,4.64,0,0,0-3.07,1.17l-15.6-15.59,8.42-8.42a.28.28,0,0,0,0-.4l-7.36-7.36L223.86,170a.28.28,0,0,0,0-.4L202,147.72a.28.28,0,0,0-.4.4l21.71,21.7-38.4,38.39a.3.3,0,0,0,0,.4l7.37,7.36-8.42,8.42a.27.27,0,0,0,0,.39l15.8,15.8a4.57,4.57,0,0,0-1.18,3.06,4.64,4.64,0,1,0,4.64-4.63Zm0,9a4.35,4.35,0,0,1-3.27-7.23l.83.83a3.12,3.12,0,0,0-.75,2A3.18,3.18,0,1,0,201,241.2l-.82-.82a4.29,4.29,0,0,1,2.87-1.09,4.36,4.36,0,0,1,0,8.71Zm.19-4.55-2-2a2.85,2.85,0,1,1-.4.39l2,2a.3.3,0,0,0,.2.08.28.28,0,0,0,.19-.47Zm15.89-12.23h-1.39a.06.06,0,0,0-.06,0l-.7,1.2a.09.09,0,0,0,0,.07l.7,1.21a.06.06,0,0,0,.06,0h1.39l.06,0,.69-1.21a.09.09,0,0,0,0-.07l-.69-1.2A.09.09,0,0,0,219.16,231.22Zm0,2.4h-1.31l-.66-1.13.66-1.14h1.31l.65,1.14Zm13.32-63L195.27,207.8a.13.13,0,0,0,0,.2l7,7-9.68,9.67a.15.15,0,0,0,0,.2l7.33,7.32a.13.13,0,0,0,.1,0,.14.14,0,0,0,.1,0,.14.14,0,0,0,0-.19l-7.23-7.23,9.67-9.67a.13.13,0,0,0,0-.2l-7-7,37.18-37.18a.15.15,0,0,0,0-.1.15.15,0,0,0,0-.09l-23-23a.14.14,0,0,0-.19,0,.13.13,0,0,0,0,.2Zm49.89-13.43a7.14,7.14,0,0,0-5.16,12.08l-26.61,26.61a.15.15,0,0,0,0,.2.18.18,0,0,0,.1,0,.21.21,0,0,0,.1,0l26.61-26.61a7.14,7.14,0,1,0,5-12.28Zm0,14a6.87,6.87,0,0,1-4.77-1.93l3-3a.14.14,0,1,0-.2-.2l-3,3a6.85,6.85,0,1,1,5,2.13Zm0-8.46a1.6,1.6,0,1,0,1.59,1.59A1.59,1.59,0,0,0,282.33,162.74Zm-23-1.44a.14.14,0,0,0-.12-.07H248a.14.14,0,0,0-.12.07l-4,7-4.5-4.5,15.07-15.07a.14.14,0,0,0-.2-.2l-15.17,15.17a.15.15,0,0,0,0,.2l4.66,4.65-1.47,2.54a.17.17,0,0,0,0,.14l1.88,3.24-34.47,34.46a.15.15,0,0,0,0,.2l2.91,2.91h0l15.14,15.13-5.16,5.16a.15.15,0,0,0,0,.2l5.13,5.12v6a.14.14,0,1,0,.28,0v-6.08a.15.15,0,0,0,0-.1l-5.07-5.07,5.15-5.16a.13.13,0,0,0,0-.2L212.87,211.9,238,186.75a2.45,2.45,0,0,0,1.66.64,2.5,2.5,0,1,0-1.85-.83L212.67,211.7,210,209l34.31-34.31,3.61,6.25a.14.14,0,0,0,.12.07h11.25a.14.14,0,0,0,.12-.07l5.63-9.74a.17.17,0,0,0,0-.14Zm-19.7,21.88a1.72,1.72,0,1,1-1.11,3l1.2-1.21a.13.13,0,0,0-.19-.19l-1.21,1.2a1.72,1.72,0,0,1,1.31-2.83Zm2.86-12.06,1.39-2.41,3,3-2.55,2.56Zm16.64,9.6H248.08l-3.61-6.24,2.71-2.71a.15.15,0,0,0,0-.1.15.15,0,0,0,0-.09l-3.12-3.12,4-7h11.09l5.54,9.61ZM221,228.2a.12.12,0,0,0-.12-.07H219.7a.12.12,0,0,0-.12.07l-.11.18a.12.12,0,0,0,0-.09L208.9,217.77l2.56-2.56a.15.15,0,0,0,0-.2l-7-7,36.92-36.92a.12.12,0,0,0,0-.1.14.14,0,0,0,0-.1l-6.59-6.59,15.65-15.65a.14.14,0,0,0-.2-.2l-15.75,15.75a.15.15,0,0,0,0,.2l6.6,6.59L204.2,208a.14.14,0,0,0,0,.19l7,7-10.4,10.4a.21.21,0,0,0,0,.1.15.15,0,0,0,0,.1l10.69,10.69a.14.14,0,0,0,.1,0,.13.13,0,0,0,.1,0,.14.14,0,0,0,0-.19l-10.59-10.6,2-2,17.1,17.11a.13.13,0,0,0,.1,0,.14.14,0,0,0,.1,0,.15.15,0,0,0,0-.2l-17.11-17.1,1.73-1.72,10.75,10.75a.12.12,0,0,0,0,.13l1.29,2.24a.14.14,0,0,0,.12.07h2.58a.14.14,0,0,0,.12-.07l1.3-2.24a.17.17,0,0,0,0-.14l-1.15-2h.84a.12.12,0,0,0,.12-.07l.58-1a.11.11,0,0,0,0-.13ZM208.71,218l10.52,10.53a.14.14,0,0,0,.1,0l.07,0-.41.7a.15.15,0,0,0,0,.13l.45.77h-1.91l-10.48-10.49Zm-3.52,3.52,1.66-1.66,10.3,10.3a.11.11,0,0,0-.1.06l-1.16,2Zm15.7,11-1.22,2.1h-2.42l-1.2-2.09a.11.11,0,0,0,0-.08l1.17-2h2.36a.11.11,0,0,0,.08,0Zm-.11-2.35h-.94a.11.11,0,0,0-.08,0l-.49-.84.51-.86h1l.5.86ZM256,166.94h-4.75a.07.07,0,0,0-.06,0l-2.37,4.11a.09.09,0,0,0,0,.07l2.37,4.11a.07.07,0,0,0,.06,0H256a.09.09,0,0,0,.06,0l2.37-4.11a.09.09,0,0,0,0-.07L256.06,167A.09.09,0,0,0,256,166.94Zm0,8.21h-4.67l-2.33-4,2.33-4H256l2.33,4Zm-12.85,23a7,7,0,1,0,7,7A7,7,0,0,0,243.11,198.2Zm0,13.87A6.87,6.87,0,1,1,250,205.2,6.87,6.87,0,0,1,243.11,212.07Zm0-12.94a6.08,6.08,0,1,0,6.07,6.07A6.08,6.08,0,0,0,243.11,199.13Zm0,12A5.94,5.94,0,1,1,249,205.2,5.94,5.94,0,0,1,243.11,211.14Zm0-13.82A7.89,7.89,0,1,0,251,205.2,7.9,7.9,0,0,0,243.11,197.32Zm0,15.63a7.75,7.75,0,1,1,7.74-7.75A7.75,7.75,0,0,1,243.11,213Zm12.3-45h-3.57a.09.09,0,0,0-.07,0l-1.78,3.1a0,0,0,0,0,0,.07l1.78,3.1a.09.09,0,0,0,.07,0h3.57a.06.06,0,0,0,.06,0l1.79-3.1a.09.09,0,0,0,0-.07l-1.79-3.1A.06.06,0,0,0,255.41,168Zm0,6.19h-3.49l-1.75-3,1.75-3h3.49l1.75,3Z" transform="translate(0 0)"/><path class="cls-21" d="M256.77,238a4.63,4.63,0,1,1,4.63-4.63A4.63,4.63,0,0,1,256.77,238Zm0-9a4.35,4.35,0,1,0,4.35,4.35A4.35,4.35,0,0,0,256.77,229Z" transform="translate(0 0)"/><path class="cls-21" d="M256.77,236.52a3.19,3.19,0,1,1,3.19-3.19A3.19,3.19,0,0,1,256.77,236.52Zm0-6.1a2.91,2.91,0,1,0,2.91,2.91A2.92,2.92,0,0,0,256.77,230.42Z" transform="translate(0 0)"/><circle class="cls-22" cx="256.77" cy="233.33" r="1.6"/><circle class="cls-22" cx="203.08" cy="243.64" r="1.6"/><path class="cls-22" d="M240.77,184.9a1.11,1.11,0,1,1-1.1-1.1A1.11,1.11,0,0,1,240.77,184.9Z" transform="translate(0 0)"/><path class="cls-21" d="M243.11,217.33a12.13,12.13,0,1,1,12.13-12.13A12.14,12.14,0,0,1,243.11,217.33Zm0-24.11a12,12,0,1,0,12,12A12,12,0,0,0,243.11,193.22Z" transform="translate(0 0)"/><path class="cls-22" d="M182.18,231a1.07,1.07,0,1,1,1.06-1.07A1.07,1.07,0,0,1,182.18,231Z" transform="translate(0 0)"/><path class="cls-23" d="M182.18,230.41a.48.48,0,0,1,0-1,.48.48,0,0,1,0,1Z" transform="translate(0 0)"/><path class="cls-22" d="M182.18,230.09a.17.17,0,0,1-.17-.16.18.18,0,0,1,.17-.17.17.17,0,0,1,.16.17A.16.16,0,0,1,182.18,230.09Z" transform="translate(0 0)"/><path class="cls-22" d="M184.25,233.07a1.07,1.07,0,1,1,1.07-1.07A1.07,1.07,0,0,1,184.25,233.07Z" transform="translate(0 0)"/><circle class="cls-23" cx="184.25" cy="232" r="0.48"/><path class="cls-22" d="M184.25,232.17a.18.18,0,0,1-.17-.17.17.17,0,0,1,.17-.16.16.16,0,0,1,.16.16A.17.17,0,0,1,184.25,232.17Z" transform="translate(0 0)"/><circle class="cls-22" cx="186.32" cy="234.07" r="1.07"/><circle class="cls-23" cx="186.32" cy="234.07" r="0.48"/><path class="cls-22" d="M186.32,234.24a.18.18,0,0,1-.17-.17.17.17,0,0,1,.17-.16.16.16,0,0,1,.16.16A.17.17,0,0,1,186.32,234.24Z" transform="translate(0 0)"/><path class="cls-21" d="M245.75,237.62H239a.14.14,0,0,1-.12-.07l-3.37-5.83a.12.12,0,0,1,0-.14l3.37-5.84a.14.14,0,0,1,.12-.07h6.74a.15.15,0,0,1,.12.07l3.37,5.84a.17.17,0,0,1,0,.14l-3.37,5.83A.15.15,0,0,1,245.75,237.62Zm-6.66-.28h6.57l3.29-5.69-3.29-5.7h-6.57l-3.29,5.7Z" transform="translate(0 0)"/><path class="cls-21" d="M250.68,231h-3.87a.15.15,0,0,1-.12-.07l-1.93-3.35a.12.12,0,0,1,0-.14l1.93-3.35a.15.15,0,0,1,.12-.07h3.87a.14.14,0,0,1,.12.07l1.94,3.35a.17.17,0,0,1,0,.14L250.8,231A.14.14,0,0,1,250.68,231Zm-3.79-.28h3.71l1.86-3.21-1.86-3.21h-3.71L245,227.55Z" transform="translate(0 0)"/><path class="cls-21" d="M257.91,224.59h-2.74a.13.13,0,0,1-.12-.06l-1.38-2.38a.17.17,0,0,1,0-.14l1.38-2.38a.12.12,0,0,1,.12-.07h2.74a.12.12,0,0,1,.12.07l1.38,2.38a.17.17,0,0,1,0,.14L258,224.53A.13.13,0,0,1,257.91,224.59Zm-2.66-.27h2.58l1.3-2.24-1.3-2.24h-2.58l-1.3,2.24Z" transform="translate(0 0)"/><path class="cls-22" d="M282.33,167.37a3,3,0,1,1,3-3A3,3,0,0,1,282.33,167.37Zm0-5.51a2.48,2.48,0,1,0,2.47,2.47A2.48,2.48,0,0,0,282.33,161.86Z" transform="translate(0 0)"/><path class="cls-22" d="M282.33,169a4.66,4.66,0,1,1,4.65-4.66A4.66,4.66,0,0,1,282.33,169Zm0-8.75a4.1,4.1,0,1,0,4.09,4.09A4.1,4.1,0,0,0,282.33,160.24Z" transform="translate(0 0)"/><path class="cls-71" d="M279.91,227.47a4.6,4.6,0,0,0-3.07,1.18l-15.59-15.6,8.41-8.42a.27.27,0,0,0,0-.39l-7.36-7.37,38.39-38.39a.27.27,0,0,0,0-.39l-21.9-21.9a.28.28,0,0,0-.4,0,.29.29,0,0,0,0,.39l21.71,21.7-38.39,38.39a.28.28,0,0,0,0,.4l7.36,7.36-8.41,8.42a.28.28,0,0,0,0,.4L276.45,229a4.59,4.59,0,0,0-1.17,3.07,4.63,4.63,0,1,0,4.63-4.64Zm0,9a4.35,4.35,0,0,1-4.35-4.35,4.29,4.29,0,0,1,1.09-2.87l.82.82a3.15,3.15,0,0,0-.75,2.05,3.2,3.2,0,1,0,1.14-2.44l-.82-.83a4.35,4.35,0,1,1,2.87,7.62Zm.2-4.55-2-2a2.89,2.89,0,1,1-1.07,2.24,2.83,2.83,0,0,1,.68-1.84l2,2a.28.28,0,0,0,.4-.39ZM296,219.68H294.6a.07.07,0,0,0-.06,0l-.69,1.21s0,0,0,.07l.69,1.2a.07.07,0,0,0,.06,0H296a.07.07,0,0,0,.06,0l.69-1.2s0-.05,0-.07l-.69-1.21A.07.07,0,0,0,296,219.68Zm0,2.4h-1.31L294,221l.65-1.13H296l.65,1.13Zm13.33-63L272.1,196.26a.15.15,0,0,0,0,.2l7,7-9.67,9.67a.13.13,0,0,0,0,.2l7.32,7.33a.21.21,0,0,0,.1,0,.18.18,0,0,0,.1,0,.15.15,0,0,0,0-.2l-7.23-7.23,9.68-9.67a.15.15,0,0,0,0-.2l-7-7,37.17-37.17a.14.14,0,0,0,0-.1.13.13,0,0,0,0-.1l-23-23a.13.13,0,0,0-.2,0,.14.14,0,0,0,0,.19Zm49.88-13.44A7.14,7.14,0,0,0,354,157.73l-26.61,26.61a.15.15,0,0,0,0,.2.14.14,0,0,0,.1,0,.13.13,0,0,0,.1,0l26.61-26.61a7.14,7.14,0,1,0,5-12.28Zm0,14a6.79,6.79,0,0,1-4.76-1.93l3-3a.14.14,0,0,0-.2-.2l-3,3a6.86,6.86,0,1,1,5,2.13Zm0-8.46a1.6,1.6,0,1,0,1.6,1.6A1.6,1.6,0,0,0,359.16,151.2Zm-23-1.44a.14.14,0,0,0-.12-.07H324.83a.14.14,0,0,0-.12.07l-4,7-4.5-4.5,15.07-15.07a.14.14,0,0,0-.2-.2l-15.17,15.17a.15.15,0,0,0,0,.2l4.66,4.65-1.47,2.54a.17.17,0,0,0,0,.14l1.88,3.24L286.5,197.35a.14.14,0,0,0,0,.1.13.13,0,0,0,0,.1l2.91,2.91h0l15.13,15.13-5.16,5.16a.15.15,0,0,0,0,.2l5.13,5.13v6a.14.14,0,1,0,.28,0V226a.13.13,0,0,0,0-.1l-5.07-5.07,5.16-5.16a.14.14,0,0,0,0-.19L289.7,200.36l25.15-25.14a2.52,2.52,0,1,0-.2-.2L289.5,200.16l-2.71-2.71,34.31-34.31,3.61,6.25a.12.12,0,0,0,.12.07h11.25a.12.12,0,0,0,.12-.07l5.63-9.74a.17.17,0,0,0,0-.14Zm-19.7,21.89a1.72,1.72,0,1,1,0,3.44,1.68,1.68,0,0,1-1.11-.42l1.21-1.21a.14.14,0,0,0,0-.19.13.13,0,0,0-.2,0l-1.21,1.2a1.71,1.71,0,0,1,1.31-2.82Zm2.87-12.07,1.38-2.4,3,3-2.55,2.55Zm16.63,9.6H324.91l-3.6-6.24,2.7-2.7a.14.14,0,0,0,0-.1.12.12,0,0,0,0-.1l-3.11-3.11,4-7H336l5.55,9.61Zm-38.19,47.48a.14.14,0,0,0-.12-.07h-1.16a.14.14,0,0,0-.12.07l-.11.19a.1.1,0,0,0,0-.09l-10.52-10.53,2.55-2.56a.12.12,0,0,0,0-.19l-7-7,36.93-36.93a.15.15,0,0,0,0-.09.15.15,0,0,0,0-.1l-6.6-6.6,15.65-15.65a.13.13,0,0,0,0-.2.15.15,0,0,0-.2,0L311.36,152.7a.15.15,0,0,0,0,.2l6.6,6.6L281,196.42a.13.13,0,0,0,0,.2l7,7L277.59,214a.15.15,0,0,0,0,.1.15.15,0,0,0,0,.09l10.7,10.7a.15.15,0,0,0,.09,0,.15.15,0,0,0,.1,0,.13.13,0,0,0,0-.2l-10.59-10.59,2-2,17.1,17.1a.14.14,0,0,0,.1,0,.13.13,0,0,0,.1,0,.15.15,0,0,0,0-.2l-17.1-17.1,1.72-1.72,10.75,10.76a.17.17,0,0,0,0,.12l1.29,2.24a.15.15,0,0,0,.12.07h2.59a.15.15,0,0,0,.12-.07L298,221a.12.12,0,0,0,0-.14l-1.15-2h.84a.14.14,0,0,0,.12-.07l.59-1a.17.17,0,0,0,0-.14Zm-12.27-10.23L296.07,217a.12.12,0,0,0,.09.05.15.15,0,0,0,.07,0l-.4.7a.12.12,0,0,0,0,.14l.44.76h-1.9l-10.49-10.48ZM282,209.94l1.65-1.66,10.3,10.3a.17.17,0,0,0-.1.06l-1.15,2Zm15.69,11-1.21,2.1h-2.43l-1.2-2.08a.16.16,0,0,0,0-.09l1.17-2h2.36a.14.14,0,0,0,.09,0Zm-.11-2.34h-.94a.12.12,0,0,0-.08,0l-.48-.83.5-.87h1l.51.87Zm35.22-63.21h-4.75a.07.07,0,0,0-.06,0l-2.37,4.1a.08.08,0,0,0,0,.07l2.37,4.11s0,0,.06,0h4.75a.08.08,0,0,0,.06,0l2.37-4.11a.08.08,0,0,0,0-.07l-2.37-4.1A.06.06,0,0,0,332.83,155.4Zm0,8.22h-4.66l-2.34-4,2.34-4h4.66l2.33,4Zm-12.85,23a7,7,0,1,0,7,7A7,7,0,0,0,319.94,186.66Zm0,13.87a6.87,6.87,0,1,1,6.87-6.86A6.87,6.87,0,0,1,319.94,200.53Zm0-12.93a6.07,6.07,0,1,0,6.08,6.07A6.08,6.08,0,0,0,319.94,187.6Zm0,12a5.94,5.94,0,1,1,5.94-5.93A5.94,5.94,0,0,1,319.94,199.6Zm0-13.81a7.88,7.88,0,1,0,7.88,7.88A7.89,7.89,0,0,0,319.94,185.79Zm0,15.62a7.74,7.74,0,1,1,7.75-7.74A7.75,7.75,0,0,1,319.94,201.41Zm12.31-45h-3.58a.05.05,0,0,0-.06,0l-1.79,3.09a.08.08,0,0,0,0,.07l1.79,3.1a.07.07,0,0,0,.06,0h3.58s0,0,.06,0l1.78-3.1s0,0,0-.07l-1.78-3.09A.07.07,0,0,0,332.25,156.41Zm-.05,6.2h-3.49l-1.75-3,1.75-3h3.49l1.75,3Z" transform="translate(0 0)"/><path class="cls-21" d="M333.6,226.42a4.63,4.63,0,1,1,4.63-4.63A4.63,4.63,0,0,1,333.6,226.42Zm0-9a4.36,4.36,0,1,0,4.35,4.35A4.35,4.35,0,0,0,333.6,217.44Z" transform="translate(0 0)"/><path class="cls-21" d="M333.6,225a3.19,3.19,0,1,1,3.19-3.19A3.19,3.19,0,0,1,333.6,225Zm0-6.1a2.91,2.91,0,1,0,2.91,2.91A2.92,2.92,0,0,0,333.6,218.88Z" transform="translate(0 0)"/><path class="cls-22" d="M335.2,221.79a1.6,1.6,0,1,1-1.6-1.6A1.6,1.6,0,0,1,335.2,221.79Z" transform="translate(0 0)"/><path class="cls-22" d="M281.51,232.11a1.6,1.6,0,1,1-1.6-1.6A1.6,1.6,0,0,1,281.51,232.11Z" transform="translate(0 0)"/><circle class="cls-22" cx="316.5" cy="173.36" r="1.1"/><path class="cls-21" d="M319.94,205.8a12.13,12.13,0,1,1,12.13-12.13A12.14,12.14,0,0,1,319.94,205.8Zm0-24.12a12,12,0,1,0,12,12A12,12,0,0,0,319.94,181.68Z" transform="translate(0 0)"/><path class="cls-22" d="M259,219.46a1.07,1.07,0,1,1,1.07-1.07A1.07,1.07,0,0,1,259,219.46Z" transform="translate(0 0)"/><path class="cls-23" d="M259,218.87a.47.47,0,0,1-.48-.48.48.48,0,1,1,1,0A.47.47,0,0,1,259,218.87Z" transform="translate(0 0)"/><path class="cls-22" d="M259,218.56a.18.18,0,0,1-.17-.17.17.17,0,0,1,.17-.16.16.16,0,0,1,.16.16A.17.17,0,0,1,259,218.56Z" transform="translate(0 0)"/><path class="cls-22" d="M261.08,221.53a1.07,1.07,0,1,1,1.07-1.07A1.07,1.07,0,0,1,261.08,221.53Z" transform="translate(0 0)"/><path class="cls-23" d="M261.08,221a.49.49,0,0,1,0-1,.49.49,0,0,1,0,1Z" transform="translate(0 0)"/><path class="cls-22" d="M261.08,220.63a.17.17,0,0,1-.16-.17.16.16,0,0,1,.16-.16.17.17,0,0,1,.17.16A.18.18,0,0,1,261.08,220.63Z" transform="translate(0 0)"/><path class="cls-22" d="M263.15,223.6a1.07,1.07,0,1,1,1.07-1.07A1.06,1.06,0,0,1,263.15,223.6Z" transform="translate(0 0)"/><circle class="cls-23" cx="263.15" cy="222.53" r="0.48"/><path class="cls-22" d="M263.15,222.7a.16.16,0,0,1-.16-.17.16.16,0,0,1,.16-.16.17.17,0,0,1,.17.16A.17.17,0,0,1,263.15,222.7Z" transform="translate(0 0)"/><path class="cls-21" d="M322.58,226.08h-6.74a.13.13,0,0,1-.12-.07l-3.37-5.83a.17.17,0,0,1,0-.14l3.37-5.84a.15.15,0,0,1,.12-.07h6.74a.15.15,0,0,1,.12.07l3.37,5.84a.17.17,0,0,1,0,.14L322.7,226A.13.13,0,0,1,322.58,226.08Zm-6.66-.28h6.58l3.29-5.69-3.29-5.7h-6.58l-3.29,5.7Z" transform="translate(0 0)"/><path class="cls-21" d="M327.52,219.5h-3.87a.12.12,0,0,1-.12-.07l-1.94-3.35a.17.17,0,0,1,0-.14l1.94-3.35a.14.14,0,0,1,.12-.07h3.87a.17.17,0,0,1,.12.07l1.93,3.35a.17.17,0,0,1,0,.14l-1.93,3.35A.14.14,0,0,1,327.52,219.5Zm-3.79-.28h3.7l1.86-3.21-1.86-3.21h-3.7L321.87,216Z" transform="translate(0 0)"/><path class="cls-21" d="M334.75,213.06H332a.14.14,0,0,1-.12-.07l-1.38-2.38a.17.17,0,0,1,0-.14l1.38-2.38A.14.14,0,0,1,332,208h2.75a.15.15,0,0,1,.12.07l1.37,2.38a.12.12,0,0,1,0,.14L334.87,213A.15.15,0,0,1,334.75,213.06Zm-2.67-.28h2.59l1.29-2.24-1.29-2.24h-2.59l-1.29,2.24Z" transform="translate(0 0)"/><path class="cls-22" d="M359.16,155.83a3,3,0,1,1,3-3A3,3,0,0,1,359.16,155.83Zm0-5.51a2.48,2.48,0,1,0,2.48,2.48A2.48,2.48,0,0,0,359.16,150.32Z" transform="translate(0 0)"/><path class="cls-22" d="M359.16,157.45a4.65,4.65,0,1,1,4.65-4.65A4.65,4.65,0,0,1,359.16,157.45Zm0-8.75a4.1,4.1,0,1,0,4.09,4.1A4.11,4.11,0,0,0,359.16,148.7Z" transform="translate(0 0)"/></g></g><g id="DESIGNED_BY_FREEPIK" data-name="DESIGNED BY FREEPIK"><path class="cls-72" d="M1154.06,473a7.75,7.75,0,0,0-1.11,1.45l-.46-.24a.6.6,0,0,0-.66-.46.61.61,0,0,0-.53.67.6.6,0,0,0,.67.52.41.41,0,0,0,.18-.05l.45.24a7.48,7.48,0,0,0-.54,1.74l.75.13a6.64,6.64,0,0,1,1.79-3.47Z" transform="translate(0 0)"/><path class="cls-72" d="M1159.55,470.68a4.35,4.35,0,0,0-.51,0l-.08-.63a.71.71,0,0,0-.53-1.27.7.7,0,0,0-.62.79.74.74,0,0,0,.4.57l.07.62a7.6,7.6,0,0,0-2.06.65l.33.68a6.86,6.86,0,0,1,3-.67,7.26,7.26,0,0,1,1.47.15l.16-.74A8.05,8.05,0,0,0,1159.55,470.68Z" transform="translate(0 0)"/><path class="cls-72" d="M1166.15,473.23a.6.6,0,1,0-.68-.59l-.41.36a7.82,7.82,0,0,0-1.41-1.14l-.41.64a6.74,6.74,0,0,1,2.57,2.93l.69-.32a7.56,7.56,0,0,0-.94-1.54l.4-.35Z" transform="translate(0 0)"/><path class="cls-72" d="M1159,480.89l-1.16,0a16,16,0,0,1-2.48-.18,8.19,8.19,0,0,1-1.27-.29,6.19,6.19,0,0,0,11.34-1.38,9.33,9.33,0,0,1-2.46,1.12A17.1,17.1,0,0,1,1159,480.89Z" transform="translate(0 0)"/><path class="cls-72" d="M1159.55,472.19a6,6,0,0,0-6.08,5.95,5.92,5.92,0,0,0,.13,1.26c.68.48,2.71.89,5.35.73a11.45,11.45,0,0,0,6.67-2.16,5.65,5.65,0,0,0,0-.58A6,6,0,0,0,1159.55,472.19Zm-2.16,6.52a1.85,1.85,0,1,1,1.85-1.85A1.85,1.85,0,0,1,1157.39,478.71Zm4.73-.91a1.36,1.36,0,1,1,1.37-1.36A1.36,1.36,0,0,1,1162.12,477.8Z" transform="translate(0 0)"/><path class="cls-72" d="M1175.55,474.06a2.9,2.9,0,0,0-1.38-.24.87.87,0,0,0-.85,1v.87h2.23v1.71h-2.23v5.46h-1.93v-5.46h-1.34V475.7h1.34v-.89A2.46,2.46,0,0,1,1174,472a4.06,4.06,0,0,1,1.59.3Z" transform="translate(0 0)"/><path class="cls-72" d="M1180.25,477.39a3,3,0,0,0-.52,0,1.43,1.43,0,0,0-1.51,1.61v3.91h-1.93V475.7h1.87v.78a2.27,2.27,0,0,1,2-1,1.77,1.77,0,0,1,1.09.34Z" transform="translate(0 0)"/><path class="cls-72" d="M1187.92,479.27a4.19,4.19,0,0,1,0,.65h-5.08a1.73,1.73,0,0,0,1.84,1.49,2.86,2.86,0,0,0,1.81-.69l1.14,1.25a4.39,4.39,0,0,1-3.06,1.08,3.78,3.78,0,0,1-.1-7.55A3.47,3.47,0,0,1,1187.92,479.27Zm-5.11-.66H1186a1.59,1.59,0,0,0-3.17,0Z" transform="translate(0 0)"/><path class="cls-72" d="M1195.57,479.27a6.18,6.18,0,0,1,0,.65h-5.09a1.73,1.73,0,0,0,1.84,1.49,2.89,2.89,0,0,0,1.82-.69l1.13,1.25a4.38,4.38,0,0,1-3.06,1.08,3.78,3.78,0,0,1-.09-7.55A3.46,3.46,0,0,1,1195.57,479.27Zm-5.11-.66h3.17a1.55,1.55,0,0,0-1.56-1.44A1.56,1.56,0,0,0,1190.46,478.61Z" transform="translate(0 0)"/><path class="cls-72" d="M1203.92,479.28a3.55,3.55,0,0,1-3.47,3.77,2.6,2.6,0,0,1-2.11-.93v3.71h-1.93V475.7h1.89v.79a2.6,2.6,0,0,1,2.14-1A3.56,3.56,0,0,1,1203.92,479.28Zm-5.68,0a1.85,1.85,0,1,0,1.85-2A1.85,1.85,0,0,0,1198.24,479.28Z" transform="translate(0 0)"/><path class="cls-72" d="M1207,473.35a1.23,1.23,0,1,1-1.23-1.24A1.21,1.21,0,0,1,1207,473.35Zm-.26,9.52h-1.93V475.7h1.93Z" transform="translate(0 0)"/><path class="cls-72" d="M1210,478.25l2.7-2.55h2.37l-3.48,3.37,3.5,3.8h-2.38L1210,480v2.9h-1.93V472.21H1210Z" transform="translate(0 0)"/><path class="cls-72" d="M1078.37,482.8v-1.05A3,3,0,0,1,1076,483c-1.85,0-3.15-1.41-3.15-3.71s1.29-3.72,3.15-3.72a3,3,0,0,1,2.39,1.25V473h1.1v9.77Zm0-1.91v-3.21a2.67,2.67,0,0,0-2.13-1.15c-1.42,0-2.27,1.18-2.27,2.74s.85,2.73,2.27,2.73A2.66,2.66,0,0,0,1078.37,480.89Z" transform="translate(0 0)"/><path class="cls-72" d="M1080.89,479.26a3.54,3.54,0,0,1,3.48-3.71c2.14,0,3.4,1.67,3.4,3.8v.28H1082a2.49,2.49,0,0,0,2.55,2.44,3.11,3.11,0,0,0,2.19-.89l.52.72a3.84,3.84,0,0,1-2.81,1.08A3.51,3.51,0,0,1,1080.89,479.26Zm3.47-2.8a2.37,2.37,0,0,0-2.32,2.36h4.65A2.3,2.3,0,0,0,1084.36,476.46Z" transform="translate(0 0)"/><path class="cls-72" d="M1088.56,481.87l.57-.79a3.23,3.23,0,0,0,2.33,1c1.09,0,1.67-.52,1.67-1.22,0-1.71-4.38-.66-4.38-3.28,0-1.1,1-2,2.64-2a3.58,3.58,0,0,1,2.62,1l-.51.76a2.77,2.77,0,0,0-2.11-.89c-1,0-1.57.48-1.57,1.11,0,1.55,4.38.53,4.38,3.28,0,1.19-1,2.14-2.78,2.14A3.77,3.77,0,0,1,1088.56,481.87Z" transform="translate(0 0)"/><path class="cls-72" d="M1095.43,474a.74.74,0,1,1,1.48,0,.74.74,0,0,1-1.48,0Zm.19,8.81v-7.07h1.1v7.07Z" transform="translate(0 0)"/><path class="cls-72" d="M1098.54,484.62l.55-.82a2.72,2.72,0,0,0,2.3,1,2,2,0,0,0,2.27-2.13v-1a2.93,2.93,0,0,1-2.37,1.26c-1.84,0-3.15-1.38-3.15-3.66s1.29-3.68,3.15-3.68a2.92,2.92,0,0,1,2.37,1.25v-1.07h1.1v6.87c0,2.34-1.64,3.07-3.37,3.07A3.59,3.59,0,0,1,1098.54,484.62Zm5.12-3.85v-3.09a2.6,2.6,0,0,0-2.11-1.15c-1.42,0-2.27,1.13-2.27,2.7s.85,2.7,2.27,2.7A2.63,2.63,0,0,0,1103.66,480.77Z" transform="translate(0 0)"/><path class="cls-72" d="M1111.37,482.8v-4.62c0-1.25-.63-1.65-1.58-1.65a2.74,2.74,0,0,0-2.1,1.1v5.17h-1.1v-7.07h1.1v1a3.54,3.54,0,0,1,2.52-1.2,2,2,0,0,1,2.26,2.29v5Z" transform="translate(0 0)"/><path class="cls-72" d="M1113.89,479.26a3.54,3.54,0,0,1,3.48-3.71c2.14,0,3.4,1.67,3.4,3.8v.28H1115a2.49,2.49,0,0,0,2.55,2.44,3.11,3.11,0,0,0,2.19-.89l.52.72a3.84,3.84,0,0,1-2.81,1.08A3.51,3.51,0,0,1,1113.89,479.26Zm3.47-2.8a2.37,2.37,0,0,0-2.32,2.36h4.65A2.3,2.3,0,0,0,1117.36,476.46Z" transform="translate(0 0)"/><path class="cls-72" d="M1127.31,482.8v-1.05a3,3,0,0,1-2.39,1.23c-1.85,0-3.15-1.41-3.15-3.71s1.29-3.72,3.15-3.72a3,3,0,0,1,2.39,1.25V473h1.09v9.77Zm0-1.91v-3.21a2.67,2.67,0,0,0-2.13-1.15c-1.42,0-2.27,1.18-2.27,2.74s.85,2.73,2.27,2.73A2.66,2.66,0,0,0,1127.31,480.89Z" transform="translate(0 0)"/><path class="cls-72" d="M1133.65,482.8V473h1.1v3.77a2.93,2.93,0,0,1,2.38-1.25c1.85,0,3.15,1.47,3.15,3.72s-1.3,3.71-3.15,3.71a3,3,0,0,1-2.38-1.23v1.05Zm3.2-.8c1.44,0,2.29-1.16,2.29-2.73s-.85-2.74-2.29-2.74a2.61,2.61,0,0,0-2.1,1.15v3.21A2.6,2.6,0,0,0,1136.85,482Z" transform="translate(0 0)"/><path class="cls-72" d="M1141.48,484.58a1.77,1.77,0,0,0,.6.11,1,1,0,0,0,1.06-.74l.47-1.07-3-7.15h1.19l2.35,5.8,2.35-5.8h1.2l-3.55,8.51a2.09,2.09,0,0,1-2.08,1.43,3.44,3.44,0,0,1-.8-.1Z" transform="translate(0 0)"/></g></svg>