<svg id="Ñëîé_1" data-name="Ñëîé 1" xmlns="http://www.w3.org/2000/svg" xmlns:xlink="http://www.w3.org/1999/xlink" viewBox="0 0 384.69 240.02"><defs><style>.cls-1{mask:url(#mask);filter:url(#luminosity-noclip-13);}.cls-10,.cls-12,.cls-14,.cls-16,.cls-18,.cls-2,.cls-20,.cls-22,.cls-24,.cls-4,.cls-6,.cls-8{mix-blend-mode:multiply;}.cls-2{fill:url(#Áåçûìÿííûé_ãðàäèåíò_87);}.cls-3{mask:url(#mask-2);filter:url(#luminosity-noclip-18);}.cls-4{fill:url(#Áåçûìÿííûé_ãðàäèåíò_82);}.cls-5{mask:url(#mask-3);filter:url(#luminosity-noclip-19);}.cls-6{fill:url(#Áåçûìÿííûé_ãðàäèåíò_81);}.cls-7{mask:url(#mask-4);filter:url(#luminosity-noclip-20);}.cls-8{fill:url(#Áåçûìÿííûé_ãðàäèåíò_80);}.cls-9{mask:url(#mask-5);filter:url(#luminosity-noclip-21);}.cls-10{fill:url(#Áåçûìÿííûé_ãðàäèåíò_79);}.cls-11{mask:url(#mask-6);filter:url(#luminosity-noclip-22);}.cls-12{fill:url(#Áåçûìÿííûé_ãðàäèåíò_78);}.cls-13{mask:url(#mask-7);filter:url(#luminosity-noclip-14);}.cls-14{fill:url(#Áåçûìÿííûé_ãðàäèåíò_86);}.cls-15{mask:url(#mask-8);filter:url(#luminosity-noclip-23);}.cls-16{fill:url(#Áåçûìÿííûé_ãðàäèåíò_77);}.cls-17{mask:url(#mask-9);filter:url(#luminosity-noclip-24);}.cls-18{fill:url(#Áåçûìÿííûé_ãðàäèåíò_76);}.cls-19{mask:url(#mask-10);filter:url(#luminosity-noclip-15);}.cls-20{fill:url(#Áåçûìÿííûé_ãðàäèåíò_85);}.cls-21{mask:url(#mask-11);filter:url(#luminosity-noclip-16);}.cls-22{fill:url(#Áåçûìÿííûé_ãðàäèåíò_84);}.cls-23{mask:url(#mask-12);filter:url(#luminosity-noclip-17);}.cls-24{fill:url(#Áåçûìÿííûé_ãðàäèåíò_83);}.cls-25{fill:none;}.cls-26{fill:url(#Áåçûìÿííûé_ãðàäèåíò_20);}.cls-27{fill:url(#Áåçûìÿííûé_ãðàäèåíò_20-2);}.cls-28{fill:url(#Áåçûìÿííûé_ãðàäèåíò_20-3);}.cls-29{mask:url(#mask-13);}.cls-30,.cls-32,.cls-34,.cls-36,.cls-38,.cls-40{opacity:0.66;}.cls-30{fill:url(#Áåçûìÿííûé_ãðàäèåíò_32);}.cls-31{mask:url(#mask-14);}.cls-32{fill:url(#Áåçûìÿííûé_ãðàäèåíò_32-2);}.cls-33{mask:url(#mask-15);}.cls-34{fill:url(#Áåçûìÿííûé_ãðàäèåíò_32-3);}.cls-35{mask:url(#mask-16);}.cls-36{fill:url(#Áåçûìÿííûé_ãðàäèåíò_32-4);}.cls-37{mask:url(#mask-17);}.cls-38{fill:url(#Áåçûìÿííûé_ãðàäèåíò_32-5);}.cls-39{mask:url(#mask-18);}.cls-40{fill:url(#Áåçûìÿííûé_ãðàäèåíò_32-6);}.cls-41{fill:url(#Áåçûìÿííûé_ãðàäèåíò_21);}.cls-42{fill:url(#Áåçûìÿííûé_ãðàäèåíò_20-4);}.cls-43{fill:#4553c7;}.cls-44{fill:url(#Áåçûìÿííûé_ãðàäèåíò_28);}.cls-45{fill:url(#Áåçûìÿííûé_ãðàäèåíò_26);}.cls-46{fill:url(#Áåçûìÿííûé_ãðàäèåíò_23);}.cls-47{fill:url(#Áåçûìÿííûé_ãðàäèåíò_20-5);}.cls-48{fill:url(#Áåçûìÿííûé_ãðàäèåíò_20-6);}.cls-49{fill:url(#Áåçûìÿííûé_ãðàäèåíò_20-7);}.cls-50{fill:url(#Áåçûìÿííûé_ãðàäèåíò_20-8);}.cls-51{fill:#bcd5ff;}.cls-52{fill:url(#Áåçûìÿííûé_ãðàäèåíò_21-2);}.cls-53{opacity:0.67;}.cls-54{fill:#242993;}.cls-55{fill:#fff;}.cls-56{fill:url(#Áåçûìÿííûé_ãðàäèåíò_28-2);}.cls-57{opacity:0.51;}.cls-58{mask:url(#mask-19);}.cls-117,.cls-136,.cls-155,.cls-59,.cls-79,.cls-98{opacity:0.78;}.cls-59{fill:url(#Áåçûìÿííûé_ãðàäèåíò_31);}.cls-60{fill:url(#Áåçûìÿííûé_ãðàäèåíò_28-3);}.cls-61{fill:url(#Áåçûìÿííûé_ãðàäèåíò_28-4);}.cls-62{fill:url(#Áåçûìÿííûé_ãðàäèåíò_29);}.cls-63{fill:#3f38fc;}.cls-64{fill:url(#Áåçûìÿííûé_ãðàäèåíò_29-2);}.cls-65{fill:url(#Áåçûìÿííûé_ãðàäèåíò_29-3);}.cls-66{fill:url(#Áåçûìÿííûé_ãðàäèåíò_29-4);}.cls-67{fill:url(#Áåçûìÿííûé_ãðàäèåíò_29-5);}.cls-68{fill:url(#Áåçûìÿííûé_ãðàäèåíò_28-5);}.cls-69{fill:url(#Áåçûìÿííûé_ãðàäèåíò_29-6);}.cls-70{fill:url(#Áåçûìÿííûé_ãðàäèåíò_28-6);}.cls-71{fill:url(#Áåçûìÿííûé_ãðàäèåíò_29-7);}.cls-72{fill:url(#Áåçûìÿííûé_ãðàäèåíò_28-7);}.cls-73{fill:url(#Áåçûìÿííûé_ãðàäèåíò_29-8);}.cls-74{fill:url(#Áåçûìÿííûé_ãðàäèåíò_28-8);}.cls-75{fill:url(#Áåçûìÿííûé_ãðàäèåíò_29-9);}.cls-76{fill:url(#Áåçûìÿííûé_ãðàäèåíò_21-3);}.cls-77{fill:url(#Áåçûìÿííûé_ãðàäèåíò_28-9);}.cls-78{mask:url(#mask-20);}.cls-79{fill:url(#Áåçûìÿííûé_ãðàäèåíò_31-2);}.cls-80{fill:url(#Áåçûìÿííûé_ãðàäèåíò_28-10);}.cls-81{fill:url(#Áåçûìÿííûé_ãðàäèåíò_28-11);}.cls-82{fill:url(#Áåçûìÿííûé_ãðàäèåíò_29-10);}.cls-83{fill:url(#Áåçûìÿííûé_ãðàäèåíò_29-11);}.cls-84{fill:url(#Áåçûìÿííûé_ãðàäèåíò_29-12);}.cls-85{fill:url(#Áåçûìÿííûé_ãðàäèåíò_29-13);}.cls-86{fill:url(#Áåçûìÿííûé_ãðàäèåíò_29-14);}.cls-87{fill:url(#Áåçûìÿííûé_ãðàäèåíò_28-12);}.cls-88{fill:url(#Áåçûìÿííûé_ãðàäèåíò_29-15);}.cls-89{fill:url(#Áåçûìÿííûé_ãðàäèåíò_28-13);}.cls-90{fill:url(#Áåçûìÿííûé_ãðàäèåíò_29-16);}.cls-91{fill:url(#Áåçûìÿííûé_ãðàäèåíò_28-14);}.cls-92{fill:url(#Áåçûìÿííûé_ãðàäèåíò_29-17);}.cls-93{fill:url(#Áåçûìÿííûé_ãðàäèåíò_28-15);}.cls-94{fill:url(#Áåçûìÿííûé_ãðàäèåíò_29-18);}.cls-95{fill:url(#Áåçûìÿííûé_ãðàäèåíò_21-4);}.cls-96{fill:url(#Áåçûìÿííûé_ãðàäèåíò_28-16);}.cls-97{mask:url(#mask-21);}.cls-98{fill:url(#Áåçûìÿííûé_ãðàäèåíò_31-3);}.cls-99{fill:url(#Áåçûìÿííûé_ãðàäèåíò_28-17);}.cls-100{fill:url(#Áåçûìÿííûé_ãðàäèåíò_28-18);}.cls-101{fill:url(#Áåçûìÿííûé_ãðàäèåíò_29-19);}.cls-102{fill:url(#Áåçûìÿííûé_ãðàäèåíò_29-20);}.cls-103{fill:url(#Áåçûìÿííûé_ãðàäèåíò_29-21);}.cls-104{fill:url(#Áåçûìÿííûé_ãðàäèåíò_29-22);}.cls-105{fill:url(#Áåçûìÿííûé_ãðàäèåíò_29-23);}.cls-106{fill:url(#Áåçûìÿííûé_ãðàäèåíò_28-19);}.cls-107{fill:url(#Áåçûìÿííûé_ãðàäèåíò_29-24);}.cls-108{fill:url(#Áåçûìÿííûé_ãðàäèåíò_28-20);}.cls-109{fill:url(#Áåçûìÿííûé_ãðàäèåíò_29-25);}.cls-110{fill:url(#Áåçûìÿííûé_ãðàäèåíò_28-21);}.cls-111{fill:url(#Áåçûìÿííûé_ãðàäèåíò_29-26);}.cls-112{fill:url(#Áåçûìÿííûé_ãðàäèåíò_28-22);}.cls-113{fill:url(#Áåçûìÿííûé_ãðàäèåíò_29-27);}.cls-114{fill:url(#Áåçûìÿííûé_ãðàäèåíò_21-5);}.cls-115{fill:url(#Áåçûìÿííûé_ãðàäèåíò_28-23);}.cls-116{mask:url(#mask-22);}.cls-117{fill:url(#Áåçûìÿííûé_ãðàäèåíò_31-4);}.cls-118{fill:url(#Áåçûìÿííûé_ãðàäèåíò_28-24);}.cls-119{fill:url(#Áåçûìÿííûé_ãðàäèåíò_28-25);}.cls-120{fill:url(#Áåçûìÿííûé_ãðàäèåíò_29-28);}.cls-121{fill:url(#Áåçûìÿííûé_ãðàäèåíò_29-29);}.cls-122{fill:url(#Áåçûìÿííûé_ãðàäèåíò_29-30);}.cls-123{fill:url(#Áåçûìÿííûé_ãðàäèåíò_29-31);}.cls-124{fill:url(#Áåçûìÿííûé_ãðàäèåíò_29-32);}.cls-125{fill:url(#Áåçûìÿííûé_ãðàäèåíò_28-26);}.cls-126{fill:url(#Áåçûìÿííûé_ãðàäèåíò_29-33);}.cls-127{fill:url(#Áåçûìÿííûé_ãðàäèåíò_28-27);}.cls-128{fill:url(#Áåçûìÿííûé_ãðàäèåíò_29-34);}.cls-129{fill:url(#Áåçûìÿííûé_ãðàäèåíò_28-28);}.cls-130{fill:url(#Áåçûìÿííûé_ãðàäèåíò_29-35);}.cls-131{fill:url(#Áåçûìÿííûé_ãðàäèåíò_28-29);}.cls-132{fill:url(#Áåçûìÿííûé_ãðàäèåíò_29-36);}.cls-133{fill:url(#Áåçûìÿííûé_ãðàäèåíò_21-6);}.cls-134{fill:url(#Áåçûìÿííûé_ãðàäèåíò_28-30);}.cls-135{mask:url(#mask-23);}.cls-136{fill:url(#Áåçûìÿííûé_ãðàäèåíò_31-5);}.cls-137{fill:url(#Áåçûìÿííûé_ãðàäèåíò_28-31);}.cls-138{fill:url(#Áåçûìÿííûé_ãðàäèåíò_28-32);}.cls-139{fill:url(#Áåçûìÿííûé_ãðàäèåíò_29-37);}.cls-140{fill:url(#Áåçûìÿííûé_ãðàäèåíò_29-38);}.cls-141{fill:url(#Áåçûìÿííûé_ãðàäèåíò_29-39);}.cls-142{fill:url(#Áåçûìÿííûé_ãðàäèåíò_29-40);}.cls-143{fill:url(#Áåçûìÿííûé_ãðàäèåíò_29-41);}.cls-144{fill:url(#Áåçûìÿííûé_ãðàäèåíò_28-33);}.cls-145{fill:url(#Áåçûìÿííûé_ãðàäèåíò_29-42);}.cls-146{fill:url(#Áåçûìÿííûé_ãðàäèåíò_28-34);}.cls-147{fill:url(#Áåçûìÿííûé_ãðàäèåíò_29-43);}.cls-148{fill:url(#Áåçûìÿííûé_ãðàäèåíò_28-35);}.cls-149{fill:url(#Áåçûìÿííûé_ãðàäèåíò_29-44);}.cls-150{fill:url(#Áåçûìÿííûé_ãðàäèåíò_28-36);}.cls-151{fill:url(#Áåçûìÿííûé_ãðàäèåíò_29-45);}.cls-152{fill:url(#Áåçûìÿííûé_ãðàäèåíò_21-7);}.cls-153{fill:url(#Áåçûìÿííûé_ãðàäèåíò_28-37);}.cls-154{mask:url(#mask-24);}.cls-155{fill:url(#Áåçûìÿííûé_ãðàäèåíò_31-6);}.cls-156{fill:url(#Áåçûìÿííûé_ãðàäèåíò_28-38);}.cls-157{fill:url(#Áåçûìÿííûé_ãðàäèåíò_28-39);}.cls-158{fill:url(#Áåçûìÿííûé_ãðàäèåíò_29-46);}.cls-159{fill:url(#Áåçûìÿííûé_ãðàäèåíò_29-47);}.cls-160{fill:url(#Áåçûìÿííûé_ãðàäèåíò_29-48);}.cls-161{fill:url(#Áåçûìÿííûé_ãðàäèåíò_29-49);}.cls-162{fill:url(#Áåçûìÿííûé_ãðàäèåíò_29-50);}.cls-163{fill:url(#Áåçûìÿííûé_ãðàäèåíò_28-40);}.cls-164{fill:url(#Áåçûìÿííûé_ãðàäèåíò_29-51);}.cls-165{fill:url(#Áåçûìÿííûé_ãðàäèåíò_28-41);}.cls-166{fill:url(#Áåçûìÿííûé_ãðàäèåíò_29-52);}.cls-167{fill:url(#Áåçûìÿííûé_ãðàäèåíò_28-42);}.cls-168{fill:url(#Áåçûìÿííûé_ãðàäèåíò_29-53);}.cls-169{fill:url(#Áåçûìÿííûé_ãðàäèåíò_28-43);}.cls-170{fill:url(#Áåçûìÿííûé_ãðàäèåíò_29-54);}.cls-171{fill:#42ffff;}.cls-172{fill:url(#Áåçûìÿííûé_ãðàäèåíò_20-9);}.cls-173{fill:url(#Áåçûìÿííûé_ãðàäèåíò_20-10);}.cls-174{fill:url(#Áåçûìÿííûé_ãðàäèåíò_28-44);}.cls-175{fill:url(#Áåçûìÿííûé_ãðàäèåíò_29-55);}.cls-176{fill:url(#Áåçûìÿííûé_ãðàäèåíò_29-56);}.cls-177{fill:url(#Áåçûìÿííûé_ãðàäèåíò_28-45);}.cls-178{fill:#2859cb;}.cls-179{fill:#adc8ff;}.cls-180{fill:#91afff;}.cls-181{fill:url(#Áåçûìÿííûé_ãðàäèåíò_28-46);}.cls-182{opacity:0.11;}.cls-183{clip-path:url(#clip-path);}.cls-184{fill:url(#Áåçûìÿííûé_ãðàäèåíò_28-47);}.cls-185{fill:url(#Áåçûìÿííûé_ãðàäèåíò_28-48);}.cls-186{filter:url(#luminosity-noclip-12);}.cls-187{filter:url(#luminosity-noclip-11);}.cls-188{filter:url(#luminosity-noclip-10);}.cls-189{filter:url(#luminosity-noclip-9);}.cls-190{filter:url(#luminosity-noclip-8);}.cls-191{filter:url(#luminosity-noclip-7);}.cls-192{filter:url(#luminosity-noclip-6);}.cls-193{filter:url(#luminosity-noclip-5);}.cls-194{filter:url(#luminosity-noclip-4);}.cls-195{filter:url(#luminosity-noclip-3);}.cls-196{filter:url(#luminosity-noclip-2);}.cls-197{filter:url(#luminosity-noclip);}</style><filter id="luminosity-noclip" x="228.51" y="-8294.35" width="6.8" height="32766" filterUnits="userSpaceOnUse" color-interpolation-filters="sRGB"><feFlood flood-color="#fff" result="bg"/><feBlend in="SourceGraphic" in2="bg"/></filter><mask id="mask" x="228.51" y="-8294.35" width="6.8" height="32766" maskUnits="userSpaceOnUse"><g class="cls-197"/></mask><linearGradient id="Áåçûìÿííûé_ãðàäèåíò_87" x1="4638.82" y1="-1211.64" x2="4638.82" y2="-1310.7" gradientTransform="matrix(-0.87, 0.5, 0, 1.15, 4249.13, -796.62)" gradientUnits="userSpaceOnUse"><stop offset="0"/><stop offset="0.06" stop-color="#2a2a2a"/><stop offset="0.15" stop-color="#626262"/><stop offset="0.23" stop-color="#929292"/><stop offset="0.31" stop-color="#b6b6b6"/><stop offset="0.39" stop-color="#d1d1d1"/><stop offset="0.45" stop-color="#e0e0e0"/><stop offset="0.51" stop-color="#e6e6e6"/><stop offset="0.55" stop-color="#dedede"/><stop offset="0.62" stop-color="#c9c9c9"/><stop offset="0.71" stop-color="#a7a7a7"/><stop offset="0.8" stop-color="#787878"/><stop offset="0.91" stop-color="#3b3b3b"/><stop offset="1"/></linearGradient><filter id="luminosity-noclip-2" x="164.78" y="-8294.35" width="6.8" height="32766" filterUnits="userSpaceOnUse" color-interpolation-filters="sRGB"><feFlood flood-color="#fff" result="bg"/><feBlend in="SourceGraphic" in2="bg"/></filter><mask id="mask-2" x="164.78" y="-8294.35" width="6.8" height="32766" maskUnits="userSpaceOnUse"><g class="cls-196"/></mask><linearGradient id="Áåçûìÿííûé_ãðàäèåíò_82" x1="4712.41" y1="-1266.07" x2="4712.41" y2="-1310.7" xlink:href="#Áåçûìÿííûé_ãðàäèåíò_87"/><filter id="luminosity-noclip-3" x="264.39" y="-8294.35" width="19.82" height="32766" filterUnits="userSpaceOnUse" color-interpolation-filters="sRGB"><feFlood flood-color="#fff" result="bg"/><feBlend in="SourceGraphic" in2="bg"/></filter><mask id="mask-3" x="264.39" y="-8294.35" width="19.82" height="32766" maskUnits="userSpaceOnUse"><g class="cls-195"/></mask><linearGradient id="Áåçûìÿííûé_ãðàäèåíò_81" x1="4119.14" y1="61.16" x2="4138.96" y2="61.16" gradientTransform="matrix(-1, 0, 0, 1, 4403.35, 0)" gradientUnits="userSpaceOnUse"><stop offset="0"/><stop offset="0.05" stop-color="#2f2f2f"/><stop offset="0.1" stop-color="#5a5a5a"/><stop offset="0.15" stop-color="#828282"/><stop offset="0.22" stop-color="#a4a4a4"/><stop offset="0.28" stop-color="silver"/><stop offset="0.36" stop-color="#d7d7d7"/><stop offset="0.44" stop-color="#e9e9e9"/><stop offset="0.54" stop-color="#f6f6f6"/><stop offset="0.68" stop-color="#fdfdfd"/><stop offset="1" stop-color="#fff"/></linearGradient><filter id="luminosity-noclip-4" x="299.78" y="-8294.35" width="19.82" height="32766" filterUnits="userSpaceOnUse" color-interpolation-filters="sRGB"><feFlood flood-color="#fff" result="bg"/><feBlend in="SourceGraphic" in2="bg"/></filter><mask id="mask-4" x="299.78" y="-8294.35" width="19.82" height="32766" maskUnits="userSpaceOnUse"><g class="cls-194"/></mask><linearGradient id="Áåçûìÿííûé_ãðàäèåíò_80" x1="4083.75" y1="81.83" x2="4103.57" y2="81.83" xlink:href="#Áåçûìÿííûé_ãðàäèåíò_81"/><filter id="luminosity-noclip-5" x="335.17" y="-8294.35" width="19.82" height="32766" filterUnits="userSpaceOnUse" color-interpolation-filters="sRGB"><feFlood flood-color="#fff" result="bg"/><feBlend in="SourceGraphic" in2="bg"/></filter><mask id="mask-5" x="335.17" y="-8294.35" width="19.82" height="32766" maskUnits="userSpaceOnUse"><g class="cls-193"/></mask><linearGradient id="Áåçûìÿííûé_ãðàäèåíò_79" x1="4048.36" y1="102.49" x2="4068.18" y2="102.49" xlink:href="#Áåçûìÿííûé_ãðàäèåíò_81"/><filter id="luminosity-noclip-6" x="224.31" y="-8294.35" width="19.82" height="32766" filterUnits="userSpaceOnUse" color-interpolation-filters="sRGB"><feFlood flood-color="#fff" result="bg"/><feBlend in="SourceGraphic" in2="bg"/></filter><mask id="mask-6" x="224.31" y="-8294.35" width="19.82" height="32766" maskUnits="userSpaceOnUse"><g class="cls-192"/></mask><linearGradient id="Áåçûìÿííûé_ãðàäèåíò_78" x1="4159.22" y1="85.02" x2="4179.05" y2="85.02" xlink:href="#Áåçûìÿííûé_ãðàäèåíò_81"/><filter id="luminosity-noclip-7" x="215.76" y="-8294.35" width="6.8" height="32766" filterUnits="userSpaceOnUse" color-interpolation-filters="sRGB"><feFlood flood-color="#fff" result="bg"/><feBlend in="SourceGraphic" in2="bg"/></filter><mask id="mask-7" x="215.76" y="-8294.35" width="6.8" height="32766" maskUnits="userSpaceOnUse"><g class="cls-191"/></mask><linearGradient id="Áåçûìÿííûé_ãðàäèåíò_86" x1="4653.54" y1="-1235.36" x2="4653.54" y2="-1286.98" xlink:href="#Áåçûìÿííûé_ãðàäèåíò_87"/><filter id="luminosity-noclip-8" x="259.7" y="-8294.35" width="19.82" height="32766" filterUnits="userSpaceOnUse" color-interpolation-filters="sRGB"><feFlood flood-color="#fff" result="bg"/><feBlend in="SourceGraphic" in2="bg"/></filter><mask id="mask-8" x="259.7" y="-8294.35" width="19.82" height="32766" maskUnits="userSpaceOnUse"><g class="cls-190"/></mask><linearGradient id="Áåçûìÿííûé_ãðàäèåíò_77" x1="4123.83" y1="105.69" x2="4143.65" y2="105.69" xlink:href="#Áåçûìÿííûé_ãðàäèåíò_81"/><filter id="luminosity-noclip-9" x="295.09" y="-8294.35" width="19.82" height="32766" filterUnits="userSpaceOnUse" color-interpolation-filters="sRGB"><feFlood flood-color="#fff" result="bg"/><feBlend in="SourceGraphic" in2="bg"/></filter><mask id="mask-9" x="295.09" y="-8294.35" width="19.82" height="32766" maskUnits="userSpaceOnUse"><g class="cls-189"/></mask><linearGradient id="Áåçûìÿííûé_ãðàäèåíò_76" x1="4088.44" y1="126.35" x2="4108.26" y2="126.35" xlink:href="#Áåçûìÿííûé_ãðàäèåíò_81"/><filter id="luminosity-noclip-10" x="203.02" y="-8294.35" width="6.8" height="32766" filterUnits="userSpaceOnUse" color-interpolation-filters="sRGB"><feFlood flood-color="#fff" result="bg"/><feBlend in="SourceGraphic" in2="bg"/></filter><mask id="mask-10" x="203.02" y="-8294.35" width="6.8" height="32766" maskUnits="userSpaceOnUse"><g class="cls-188"/></mask><linearGradient id="Áåçûìÿííûé_ãðàäèåíò_85" x1="4668.26" y1="-1211.64" x2="4668.26" y2="-1276.37" xlink:href="#Áåçûìÿííûé_ãðàäèåíò_87"/><filter id="luminosity-noclip-11" x="190.27" y="-8294.35" width="6.8" height="32766" filterUnits="userSpaceOnUse" color-interpolation-filters="sRGB"><feFlood flood-color="#fff" result="bg"/><feBlend in="SourceGraphic" in2="bg"/></filter><mask id="mask-11" x="190.27" y="-8294.35" width="6.8" height="32766" maskUnits="userSpaceOnUse"><g class="cls-187"/></mask><linearGradient id="Áåçûìÿííûé_ãðàäèåíò_84" x1="4682.97" y1="-1211.64" x2="4682.97" y2="-1337.45" xlink:href="#Áåçûìÿííûé_ãðàäèåíò_87"/><filter id="luminosity-noclip-12" x="177.53" y="-8294.35" width="6.8" height="32766" filterUnits="userSpaceOnUse" color-interpolation-filters="sRGB"><feFlood flood-color="#fff" result="bg"/><feBlend in="SourceGraphic" in2="bg"/></filter><mask id="mask-12" x="177.53" y="-8294.35" width="6.8" height="32766" maskUnits="userSpaceOnUse"><g class="cls-186"/></mask><linearGradient id="Áåçûìÿííûé_ãðàäèåíò_83" x1="4697.69" y1="-1211.64" x2="4697.69" y2="-1318.57" xlink:href="#Áåçûìÿííûé_ãðàäèåíò_87"/><linearGradient id="Áåçûìÿííûé_ãðàäèåíò_20" x1="2960.08" y1="-2338.75" x2="2990.89" y2="-2338.75" gradientTransform="matrix(-0.87, 0.5, 1, 0.58, 5099.54, 51.65)" gradientUnits="userSpaceOnUse"><stop offset="0" stop-color="#42ffff"/><stop offset="0.15" stop-color="#43faff"/><stop offset="0.33" stop-color="#45ecff"/><stop offset="0.52" stop-color="#49d4ff"/><stop offset="0.72" stop-color="#4eb3ff"/><stop offset="0.93" stop-color="#5489ff"/><stop offset="1" stop-color="#5778ff"/></linearGradient><linearGradient id="Áåçûìÿííûé_ãðàäèåíò_20-2" x1="4264.34" y1="189.58" x2="4250.87" y2="175.13" gradientTransform="matrix(-1, 0, 0, 1, 4403.35, 0)" xlink:href="#Áåçûìÿííûé_ãðàäèåíò_20"/><linearGradient id="Áåçûìÿííûé_ãðàäèåíò_20-3" x1="4267.17" y1="192.62" x2="4248.04" y2="172.1" gradientTransform="matrix(-1, 0, 0, 1, 4403.35, 0)" xlink:href="#Áåçûìÿííûé_ãðàäèåíò_20"/><filter id="luminosity-noclip-13" x="228.51" y="8.81" width="6.8" height="115.42" filterUnits="userSpaceOnUse" color-interpolation-filters="sRGB"><feFlood flood-color="#fff" result="bg"/><feBlend in="SourceGraphic" in2="bg"/></filter><mask id="mask-13" x="228.51" y="8.81" width="6.8" height="115.42" maskUnits="userSpaceOnUse"><g class="cls-1"><path class="cls-2" d="M231.67,9.46l.48-.28c1.74-1,3.16.07,3.16,2.4v106a7.6,7.6,0,0,1-3.16,6l-.48.27c-1.74,1-3.16-.06-3.16-2.39V15.5A7.59,7.59,0,0,1,231.67,9.46Z"/></g></mask><linearGradient id="Áåçûìÿííûé_ãðàäèåíò_32" x1="4638.82" y1="-1211.64" x2="4638.82" y2="-1310.7" gradientTransform="matrix(-0.87, 0.5, 0, 1.15, 4249.13, -796.62)" gradientUnits="userSpaceOnUse"><stop offset="0" stop-color="#5778ff"/><stop offset="0.01" stop-color="#567cff"/><stop offset="0.13" stop-color="#4fabff"/><stop offset="0.24" stop-color="#49cfff"/><stop offset="0.34" stop-color="#45eaff"/><stop offset="0.43" stop-color="#43f9ff"/><stop offset="0.51" stop-color="#42ffff"/><stop offset="0.57" stop-color="#43f7ff"/><stop offset="0.67" stop-color="#46e3ff"/><stop offset="0.8" stop-color="#4cc0ff"/><stop offset="0.93" stop-color="#5391ff"/><stop offset="1" stop-color="#5778ff"/></linearGradient><filter id="luminosity-noclip-14" x="215.76" y="43.55" width="6.8" height="60.64" filterUnits="userSpaceOnUse" color-interpolation-filters="sRGB"><feFlood flood-color="#fff" result="bg"/><feBlend in="SourceGraphic" in2="bg"/></filter><mask id="mask-14" x="215.76" y="43.55" width="6.8" height="60.64" maskUnits="userSpaceOnUse"><g class="cls-13"><path class="cls-14" d="M218.93,44.2l.47-.27c1.75-1,3.16.06,3.16,2.39V97.5a7.56,7.56,0,0,1-3.16,6l-.47.27c-1.75,1-3.17-.06-3.17-2.39V50.25A7.59,7.59,0,0,1,218.93,44.2Z"/></g></mask><linearGradient id="Áåçûìÿííûé_ãðàäèåíò_32-2" x1="4653.54" y1="-1235.36" x2="4653.54" y2="-1286.98" xlink:href="#Áåçûìÿííûé_ãðàäèåíò_32"/><filter id="luminosity-noclip-15" x="203.02" y="63.17" width="6.8" height="75.77" filterUnits="userSpaceOnUse" color-interpolation-filters="sRGB"><feFlood flood-color="#fff" result="bg"/><feBlend in="SourceGraphic" in2="bg"/></filter><mask id="mask-15" x="203.02" y="63.17" width="6.8" height="75.77" maskUnits="userSpaceOnUse"><g class="cls-19"><path class="cls-20" d="M206.18,63.82l.47-.28c1.75-1,3.17.07,3.17,2.4v66.3a7.59,7.59,0,0,1-3.17,6l-.47.27c-1.75,1-3.16-.06-3.16-2.39V69.86A7.56,7.56,0,0,1,206.18,63.82Z"/></g></mask><linearGradient id="Áåçûìÿííûé_ãðàäèåíò_32-3" x1="4668.26" y1="-1211.64" x2="4668.26" y2="-1276.37" xlink:href="#Áåçûìÿííûé_ãðàäèåíò_32"/><filter id="luminosity-noclip-16" x="190.27" y="0" width="6.8" height="146.3" filterUnits="userSpaceOnUse" color-interpolation-filters="sRGB"><feFlood flood-color="#fff" result="bg"/><feBlend in="SourceGraphic" in2="bg"/></filter><mask id="mask-16" x="190.27" y="0" width="6.8" height="146.3" maskUnits="userSpaceOnUse"><g class="cls-21"><path class="cls-22" d="M193.44.65l.47-.27c1.74-1,3.16.06,3.16,2.39V139.6a7.6,7.6,0,0,1-3.16,6.05l-.47.27c-1.75,1-3.17-.06-3.17-2.39V6.7A7.59,7.59,0,0,1,193.44.65Z"/></g></mask><linearGradient id="Áåçûìÿííûé_ãðàäèåíò_32-4" x1="4682.97" y1="-1211.64" x2="4682.97" y2="-1337.45" xlink:href="#Áåçûìÿííûé_ãðàäèåíò_32"/><filter id="luminosity-noclip-17" x="177.53" y="29.16" width="6.8" height="124.49" filterUnits="userSpaceOnUse" color-interpolation-filters="sRGB"><feFlood flood-color="#fff" result="bg"/><feBlend in="SourceGraphic" in2="bg"/></filter><mask id="mask-17" x="177.53" y="29.16" width="6.8" height="124.49" maskUnits="userSpaceOnUse"><g class="cls-23"><path class="cls-24" d="M180.69,29.81l.47-.27c1.75-1,3.16.06,3.16,2.39V147a7.54,7.54,0,0,1-3.16,6l-.47.28c-1.75,1-3.16-.07-3.16-2.39v-115A7.58,7.58,0,0,1,180.69,29.81Z"/></g></mask><linearGradient id="Áåçûìÿííûé_ãðàäèåíò_32-5" x1="4697.69" y1="-1211.64" x2="4697.69" y2="-1318.57" xlink:href="#Áåçûìÿííûé_ãðàäèåíò_32"/><filter id="luminosity-noclip-18" x="164.78" y="45.6" width="6.8" height="52.57" filterUnits="userSpaceOnUse" color-interpolation-filters="sRGB"><feFlood flood-color="#fff" result="bg"/><feBlend in="SourceGraphic" in2="bg"/></filter><mask id="mask-18" x="164.78" y="45.6" width="6.8" height="52.57" maskUnits="userSpaceOnUse"><g class="cls-3"><path class="cls-4" d="M167.94,46.25l.47-.27c1.75-1,3.17.06,3.17,2.39V91.48a7.57,7.57,0,0,1-3.17,6l-.47.27c-1.74,1-3.16-.06-3.16-2.39V52.3A7.6,7.6,0,0,1,167.94,46.25Z"/></g></mask><linearGradient id="Áåçûìÿííûé_ãðàäèåíò_32-6" x1="4712.41" y1="-1266.07" x2="4712.41" y2="-1310.7" xlink:href="#Áåçûìÿííûé_ãðàäèåíò_32"/><linearGradient id="Áåçûìÿííûé_ãðàäèåíò_21" x1="-3054.53" y1="130.86" x2="-2887.42" y2="227.34" gradientTransform="translate(3250.9)" gradientUnits="userSpaceOnUse"><stop offset="0" stop-color="#5778ff"/><stop offset="0.07" stop-color="#5489ff"/><stop offset="0.28" stop-color="#4eb3ff"/><stop offset="0.48" stop-color="#49d4ff"/><stop offset="0.67" stop-color="#45ecff"/><stop offset="0.85" stop-color="#43faff"/><stop offset="1" stop-color="#42ffff"/></linearGradient><linearGradient id="Áåçûìÿííûé_ãðàäèåíò_20-4" x1="-1829.69" y1="2299.81" x2="-1714.69" y2="2223.1" gradientTransform="matrix(0.87, 0.5, -0.87, 0.5, 3803.83, -75.09)" xlink:href="#Áåçûìÿííûé_ãðàäèåíò_20"/><linearGradient id="Áåçûìÿííûé_ãðàäèåíò_28" x1="-1865.94" y1="2270.53" x2="-1731.36" y2="2270.53" gradientTransform="matrix(0.87, 0.5, -0.87, 0.5, 3803.83, -75.09)" gradientUnits="userSpaceOnUse"><stop offset="0" stop-color="#c0d6ff"/><stop offset="0.3" stop-color="#c5dbff"/><stop offset="0.65" stop-color="#d3e9ff"/><stop offset="1" stop-color="#e9ffff"/></linearGradient><linearGradient id="Áåçûìÿííûé_ãðàäèåíò_26" x1="-3050.03" y1="159.79" x2="-2947.4" y2="159.79" gradientTransform="translate(3250.9)" gradientUnits="userSpaceOnUse"><stop offset="0.35" stop-color="#bcd5ff"/><stop offset="0.44" stop-color="#b5cfff"/><stop offset="0.57" stop-color="#a3beff"/><stop offset="0.72" stop-color="#84a2ff"/><stop offset="0.88" stop-color="#5a7bff"/><stop offset="0.89" stop-color="#5778ff"/></linearGradient><linearGradient id="Áåçûìÿííûé_ãðàäèåíò_23" x1="-1883.18" y1="2255.04" x2="-1745.1" y2="2255.04" gradientTransform="matrix(0.87, 0.5, -0.87, 0.5, 3803.83, -75.09)" gradientUnits="userSpaceOnUse"><stop offset="0" stop-color="#e9ffff"/><stop offset="0.35" stop-color="#d3e9ff"/><stop offset="0.7" stop-color="#c5dbff"/><stop offset="1" stop-color="#c0d6ff"/></linearGradient><linearGradient id="Áåçûìÿííûé_ãðàäèåíò_20-5" x1="4038.31" y1="133.85" x2="4031.08" y2="126.1" gradientTransform="matrix(-1, 0, 0, 1, 4403.35, 0)" xlink:href="#Áåçûìÿííûé_ãðàäèåíò_20"/><linearGradient id="Áåçûìÿííûé_ãðàäèåíò_20-6" x1="4025.56" y1="142.32" x2="4021.76" y2="138.24" gradientTransform="matrix(-1, 0, 0, 1, 4403.35, 0)" xlink:href="#Áåçûìÿííûé_ãðàäèåíò_20"/><linearGradient id="Áåçûìÿííûé_ãðàäèåíò_20-7" x1="4172.05" y1="235.73" x2="4167.37" y2="230.71" gradientTransform="matrix(-1, 0, 0, 1, 4403.35, 0)" xlink:href="#Áåçûìÿííûé_ãðàäèåíò_20"/><linearGradient id="Áåçûìÿííûé_ãðàäèåíò_20-8" x1="4174.82" y1="238.7" x2="4164.6" y2="227.73" gradientTransform="matrix(-1, 0, 0, 1, 4403.35, 0)" xlink:href="#Áåçûìÿííûé_ãðàäèåíò_20"/><linearGradient id="Áåçûìÿííûé_ãðàäèåíò_21-2" x1="4116.09" y1="113.45" x2="4161.83" y2="113.45" gradientTransform="matrix(-1, 0, 0, 1, 4403.35, 0)" xlink:href="#Áåçûìÿííûé_ãðàäèåíò_21"/><linearGradient id="Áåçûìÿííûé_ãðàäèåíò_28-2" x1="4148.88" y1="104.54" x2="4148.88" y2="62.71" gradientTransform="matrix(-1, 0, 0, 1, 4403.35, 0)" xlink:href="#Áåçûìÿííûé_ãðàäèåíò_28"/><filter id="luminosity-noclip-19" x="264.39" y="52.35" width="19.82" height="17.62" filterUnits="userSpaceOnUse" color-interpolation-filters="sRGB"><feFlood flood-color="#fff" result="bg"/><feBlend in="SourceGraphic" in2="bg"/></filter><mask id="mask-19" x="264.39" y="52.35" width="19.82" height="17.62" maskUnits="userSpaceOnUse"><g class="cls-5"><polygon class="cls-6" points="264.39 69.97 269.6 69.97 284.21 61.54 268.31 52.35 264.39 52.35 264.39 69.97"/></g></mask><linearGradient id="Áåçûìÿííûé_ãðàäèåíò_31" x1="4119.14" y1="61.16" x2="4138.96" y2="61.16" gradientTransform="matrix(-1, 0, 0, 1, 4403.35, 0)" gradientUnits="userSpaceOnUse"><stop offset="0" stop-color="#e9ffff"/><stop offset="0.04" stop-color="#d3ebff"/><stop offset="0.11" stop-color="#b2ccff"/><stop offset="0.18" stop-color="#96b2ff"/><stop offset="0.27" stop-color="#7f9dff"/><stop offset="0.36" stop-color="#6d8cff"/><stop offset="0.48" stop-color="#6081ff"/><stop offset="0.64" stop-color="#597aff"/><stop offset="1" stop-color="#5778ff"/></linearGradient><linearGradient id="Áåçûìÿííûé_ãðàäèåíò_28-3" x1="4124.58" y1="60.66" x2="4153.35" y2="60.66" gradientTransform="matrix(-1, 0, 0, 1, 4403.35, 0)" xlink:href="#Áåçûìÿííûé_ãðàäèåíò_28"/><linearGradient id="Áåçûìÿííûé_ãðàäèåíò_28-4" x1="4148.01" y1="68.56" x2="4144.51" y2="62.45" gradientTransform="matrix(-1, 0, 0, 1, 4403.35, 0)" xlink:href="#Áåçûìÿííûé_ãðàäèåíò_28"/><linearGradient id="Áåçûìÿííûé_ãðàäèåíò_29" x1="4131.77" y1="65.66" x2="4131.77" y2="56.35" gradientTransform="matrix(-1, 0, 0, 1, 4403.35, 0)" gradientUnits="userSpaceOnUse"><stop offset="0" stop-color="#5778ff"/><stop offset="0.18" stop-color="#5c7dff"/><stop offset="0.39" stop-color="#6a8aff"/><stop offset="0.61" stop-color="#82a0ff"/><stop offset="0.85" stop-color="#a3beff"/><stop offset="1" stop-color="#bcd5ff"/></linearGradient><linearGradient id="Áåçûìÿííûé_ãðàäèåíò_29-2" x1="4132.34" y1="58.46" x2="4139.79" y2="58.46" xlink:href="#Áåçûìÿííûé_ãðàäèåíò_29"/><linearGradient id="Áåçûìÿííûé_ãðàäèåíò_29-3" x1="4134.27" y1="59.57" x2="4141.72" y2="59.57" xlink:href="#Áåçûìÿííûé_ãðàäèåíò_29"/><linearGradient id="Áåçûìÿííûé_ãðàäèåíò_29-4" x1="4136.21" y1="60.68" x2="4143.65" y2="60.68" xlink:href="#Áåçûìÿííûé_ãðàäèåíò_29"/><linearGradient id="Áåçûìÿííûé_ãðàäèåíò_29-5" x1="4138.14" y1="61.8" x2="4145.59" y2="61.8" xlink:href="#Áåçûìÿííûé_ãðàäèåíò_29"/><linearGradient id="Áåçûìÿííûé_ãðàäèåíò_28-5" x1="4136.27" y1="74.64" x2="4138.18" y2="74.64" gradientTransform="matrix(-1, 0, 0, 1, 4403.35, 0)" xlink:href="#Áåçûìÿííûé_ãðàäèåíò_28"/><linearGradient id="Áåçûìÿííûé_ãðàäèåíò_29-6" x1="4136.04" y1="74.83" x2="4137.62" y2="74.83" xlink:href="#Áåçûìÿííûé_ãðàäèåíò_29"/><linearGradient id="Áåçûìÿííûé_ãðàäèåíò_28-6" x1="4119.64" y1="64.42" x2="4121.55" y2="64.42" gradientTransform="matrix(-1, 0, 0, 1, 4403.35, 0)" xlink:href="#Áåçûìÿííûé_ãðàäèåíò_28"/><linearGradient id="Áåçûìÿííûé_ãðàäèåíò_29-7" x1="4119.41" y1="64.62" x2="4120.99" y2="64.62" xlink:href="#Áåçûìÿííûé_ãðàäèåíò_29"/><linearGradient id="Áåçûìÿííûé_ãðàäèåíò_28-7" x1="4136.27" y1="113.98" x2="4138.18" y2="113.98" gradientTransform="matrix(-1, 0, 0, 1, 4403.35, 0)" xlink:href="#Áåçûìÿííûé_ãðàäèåíò_28"/><linearGradient id="Áåçûìÿííûé_ãðàäèåíò_29-8" x1="4136.04" y1="114.18" x2="4137.62" y2="114.18" xlink:href="#Áåçûìÿííûé_ãðàäèåíò_29"/><linearGradient id="Áåçûìÿííûé_ãðàäèåíò_28-8" x1="4119.64" y1="103.77" x2="4121.55" y2="103.77" gradientTransform="matrix(-1, 0, 0, 1, 4403.35, 0)" xlink:href="#Áåçûìÿííûé_ãðàäèåíò_28"/><linearGradient id="Áåçûìÿííûé_ãðàäèåíò_29-9" x1="4119.41" y1="103.96" x2="4120.99" y2="103.96" xlink:href="#Áåçûìÿííûé_ãðàäèåíò_29"/><linearGradient id="Áåçûìÿííûé_ãðàäèåíò_21-3" x1="4080.7" y1="134.11" x2="4126.44" y2="134.11" gradientTransform="matrix(-1, 0, 0, 1, 4403.35, 0)" xlink:href="#Áåçûìÿííûé_ãðàäèåíò_21"/><linearGradient id="Áåçûìÿííûé_ãðàäèåíò_28-9" x1="4113.48" y1="125.21" x2="4113.48" y2="83.37" gradientTransform="matrix(-1, 0, 0, 1, 4403.35, 0)" xlink:href="#Áåçûìÿííûé_ãðàäèåíò_28"/><filter id="luminosity-noclip-20" x="299.78" y="73.02" width="19.82" height="17.62" filterUnits="userSpaceOnUse" color-interpolation-filters="sRGB"><feFlood flood-color="#fff" result="bg"/><feBlend in="SourceGraphic" in2="bg"/></filter><mask id="mask-20" x="299.78" y="73.02" width="19.82" height="17.62" maskUnits="userSpaceOnUse"><g class="cls-7"><polygon class="cls-8" points="299.78 90.64 304.99 90.64 319.61 82.2 303.7 73.02 299.78 73.02 299.78 90.64"/></g></mask><linearGradient id="Áåçûìÿííûé_ãðàäèåíò_31-2" x1="4083.75" y1="81.83" x2="4103.57" y2="81.83" xlink:href="#Áåçûìÿííûé_ãðàäèåíò_31"/><linearGradient id="Áåçûìÿííûé_ãðàäèåíò_28-10" x1="4089.19" y1="81.32" x2="4117.96" y2="81.32" gradientTransform="matrix(-1, 0, 0, 1, 4403.35, 0)" xlink:href="#Áåçûìÿííûé_ãðàäèåíò_28"/><linearGradient id="Áåçûìÿííûé_ãðàäèåíò_28-11" x1="4112.62" y1="89.22" x2="4109.12" y2="83.12" gradientTransform="matrix(-1, 0, 0, 1, 4403.35, 0)" xlink:href="#Áåçûìÿííûé_ãðàäèåíò_28"/><linearGradient id="Áåçûìÿííûé_ãðàäèåíò_29-10" x1="4096.38" y1="86.32" x2="4096.38" y2="77.01" xlink:href="#Áåçûìÿííûé_ãðàäèåíò_29"/><linearGradient id="Áåçûìÿííûé_ãðàäèåíò_29-11" x1="4096.95" y1="79.12" x2="4104.4" y2="79.12" xlink:href="#Áåçûìÿííûé_ãðàäèåíò_29"/><linearGradient id="Áåçûìÿííûé_ãðàäèåíò_29-12" x1="4098.88" y1="80.24" x2="4106.33" y2="80.24" xlink:href="#Áåçûìÿííûé_ãðàäèåíò_29"/><linearGradient id="Áåçûìÿííûé_ãðàäèåíò_29-13" x1="4100.81" y1="81.35" x2="4108.26" y2="81.35" xlink:href="#Áåçûìÿííûé_ãðàäèåíò_29"/><linearGradient id="Áåçûìÿííûé_ãðàäèåíò_29-14" x1="4102.75" y1="82.46" x2="4110.2" y2="82.46" xlink:href="#Áåçûìÿííûé_ãðàäèåíò_29"/><linearGradient id="Áåçûìÿííûé_ãðàäèåíò_28-12" x1="4100.88" y1="95.3" x2="4102.79" y2="95.3" gradientTransform="matrix(-1, 0, 0, 1, 4403.35, 0)" xlink:href="#Áåçûìÿííûé_ãðàäèåíò_28"/><linearGradient id="Áåçûìÿííûé_ãðàäèåíò_29-15" x1="4100.65" y1="95.49" x2="4102.23" y2="95.49" xlink:href="#Áåçûìÿííûé_ãðàäèåíò_29"/><linearGradient id="Áåçûìÿííûé_ãðàäèåíò_28-13" x1="4084.25" y1="85.08" x2="4086.16" y2="85.08" gradientTransform="matrix(-1, 0, 0, 1, 4403.35, 0)" xlink:href="#Áåçûìÿííûé_ãðàäèåíò_28"/><linearGradient id="Áåçûìÿííûé_ãðàäèåíò_29-16" x1="4084.02" y1="85.28" x2="4085.6" y2="85.28" xlink:href="#Áåçûìÿííûé_ãðàäèåíò_29"/><linearGradient id="Áåçûìÿííûé_ãðàäèåíò_28-14" x1="4100.88" y1="134.65" x2="4102.79" y2="134.65" gradientTransform="matrix(-1, 0, 0, 1, 4403.35, 0)" xlink:href="#Áåçûìÿííûé_ãðàäèåíò_28"/><linearGradient id="Áåçûìÿííûé_ãðàäèåíò_29-17" x1="4100.65" y1="134.84" x2="4102.23" y2="134.84" xlink:href="#Áåçûìÿííûé_ãðàäèåíò_29"/><linearGradient id="Áåçûìÿííûé_ãðàäèåíò_28-15" x1="4084.25" y1="124.43" x2="4086.16" y2="124.43" gradientTransform="matrix(-1, 0, 0, 1, 4403.35, 0)" xlink:href="#Áåçûìÿííûé_ãðàäèåíò_28"/><linearGradient id="Áåçûìÿííûé_ãðàäèåíò_29-18" x1="4084.02" y1="124.62" x2="4085.6" y2="124.62" xlink:href="#Áåçûìÿííûé_ãðàäèåíò_29"/><linearGradient id="Áåçûìÿííûé_ãðàäèåíò_21-4" x1="4045.31" y1="154.78" x2="4091.05" y2="154.78" gradientTransform="matrix(-1, 0, 0, 1, 4403.35, 0)" xlink:href="#Áåçûìÿííûé_ãðàäèåíò_21"/><linearGradient id="Áåçûìÿííûé_ãðàäèåíò_28-16" x1="4078.09" y1="145.87" x2="4078.09" y2="104.04" gradientTransform="matrix(-1, 0, 0, 1, 4403.35, 0)" xlink:href="#Áåçûìÿííûé_ãðàäèåíò_28"/><filter id="luminosity-noclip-21" x="335.17" y="93.68" width="19.82" height="17.62" filterUnits="userSpaceOnUse" color-interpolation-filters="sRGB"><feFlood flood-color="#fff" result="bg"/><feBlend in="SourceGraphic" in2="bg"/></filter><mask id="mask-21" x="335.17" y="93.68" width="19.82" height="17.62" maskUnits="userSpaceOnUse"><g class="cls-9"><polygon class="cls-10" points="335.17 111.3 340.38 111.3 355 102.86 339.09 93.68 335.17 93.68 335.17 111.3"/></g></mask><linearGradient id="Áåçûìÿííûé_ãðàäèåíò_31-3" x1="4048.36" y1="102.49" x2="4068.18" y2="102.49" xlink:href="#Áåçûìÿííûé_ãðàäèåíò_31"/><linearGradient id="Áåçûìÿííûé_ãðàäèåíò_28-17" x1="4053.8" y1="101.99" x2="4082.57" y2="101.99" gradientTransform="matrix(-1, 0, 0, 1, 4403.35, 0)" xlink:href="#Áåçûìÿííûé_ãðàäèåíò_28"/><linearGradient id="Áåçûìÿííûé_ãðàäèåíò_28-18" x1="4077.23" y1="109.89" x2="4073.73" y2="103.78" gradientTransform="matrix(-1, 0, 0, 1, 4403.35, 0)" xlink:href="#Áåçûìÿííûé_ãðàäèåíò_28"/><linearGradient id="Áåçûìÿííûé_ãðàäèåíò_29-19" x1="4060.99" y1="106.99" x2="4060.99" y2="97.67" xlink:href="#Áåçûìÿííûé_ãðàäèåíò_29"/><linearGradient id="Áåçûìÿííûé_ãðàäèåíò_29-20" x1="4061.56" y1="99.79" x2="4069.01" y2="99.79" xlink:href="#Áåçûìÿííûé_ãðàäèåíò_29"/><linearGradient id="Áåçûìÿííûé_ãðàäèåíò_29-21" x1="4063.49" y1="100.9" x2="4070.94" y2="100.9" xlink:href="#Áåçûìÿííûé_ãðàäèåíò_29"/><linearGradient id="Áåçûìÿííûé_ãðàäèåíò_29-22" x1="4065.42" y1="102.01" x2="4072.87" y2="102.01" xlink:href="#Áåçûìÿííûé_ãðàäèåíò_29"/><linearGradient id="Áåçûìÿííûé_ãðàäèåíò_29-23" x1="4067.36" y1="103.13" x2="4074.81" y2="103.13" xlink:href="#Áåçûìÿííûé_ãðàäèåíò_29"/><linearGradient id="Áåçûìÿííûé_ãðàäèåíò_28-19" x1="4065.49" y1="115.96" x2="4067.4" y2="115.96" gradientTransform="matrix(-1, 0, 0, 1, 4403.35, 0)" xlink:href="#Áåçûìÿííûé_ãðàäèåíò_28"/><linearGradient id="Áåçûìÿííûé_ãðàäèåíò_29-24" x1="4065.26" y1="116.16" x2="4066.83" y2="116.16" xlink:href="#Áåçûìÿííûé_ãðàäèåíò_29"/><linearGradient id="Áåçûìÿííûé_ãðàäèåíò_28-20" x1="4048.86" y1="105.75" x2="4050.77" y2="105.75" gradientTransform="matrix(-1, 0, 0, 1, 4403.35, 0)" xlink:href="#Áåçûìÿííûé_ãðàäèåíò_28"/><linearGradient id="Áåçûìÿííûé_ãðàäèåíò_29-25" x1="4048.63" y1="105.94" x2="4050.21" y2="105.94" xlink:href="#Áåçûìÿííûé_ãðàäèåíò_29"/><linearGradient id="Áåçûìÿííûé_ãðàäèåíò_28-21" x1="4065.49" y1="155.31" x2="4067.4" y2="155.31" gradientTransform="matrix(-1, 0, 0, 1, 4403.35, 0)" xlink:href="#Áåçûìÿííûé_ãðàäèåíò_28"/><linearGradient id="Áåçûìÿííûé_ãðàäèåíò_29-26" x1="4065.26" y1="155.5" x2="4066.83" y2="155.5" xlink:href="#Áåçûìÿííûé_ãðàäèåíò_29"/><linearGradient id="Áåçûìÿííûé_ãðàäèåíò_28-22" x1="4048.86" y1="145.09" x2="4050.77" y2="145.09" gradientTransform="matrix(-1, 0, 0, 1, 4403.35, 0)" xlink:href="#Áåçûìÿííûé_ãðàäèåíò_28"/><linearGradient id="Áåçûìÿííûé_ãðàäèåíò_29-27" x1="4048.63" y1="145.29" x2="4050.21" y2="145.29" xlink:href="#Áåçûìÿííûé_ãðàäèåíò_29"/><linearGradient id="Áåçûìÿííûé_ãðàäèåíò_21-5" x1="4156.18" y1="137.31" x2="4201.91" y2="137.31" gradientTransform="matrix(-1, 0, 0, 1, 4403.35, 0)" xlink:href="#Áåçûìÿííûé_ãðàäèåíò_21"/><linearGradient id="Áåçûìÿííûé_ãðàäèåíò_28-23" x1="4188.96" y1="128.4" x2="4188.96" y2="86.57" gradientTransform="matrix(-1, 0, 0, 1, 4403.35, 0)" xlink:href="#Áåçûìÿííûé_ãðàäèåíò_28"/><filter id="luminosity-noclip-22" x="224.31" y="76.22" width="19.82" height="17.62" filterUnits="userSpaceOnUse" color-interpolation-filters="sRGB"><feFlood flood-color="#fff" result="bg"/><feBlend in="SourceGraphic" in2="bg"/></filter><mask id="mask-22" x="224.31" y="76.22" width="19.82" height="17.62" maskUnits="userSpaceOnUse"><g class="cls-11"><polygon class="cls-12" points="224.31 93.83 229.52 93.83 244.13 85.4 228.23 76.22 224.31 76.22 224.31 93.83"/></g></mask><linearGradient id="Áåçûìÿííûé_ãðàäèåíò_31-4" x1="4159.22" y1="85.02" x2="4179.05" y2="85.02" xlink:href="#Áåçûìÿííûé_ãðàäèåíò_31"/><linearGradient id="Áåçûìÿííûé_ãðàäèåíò_28-24" x1="4164.66" y1="84.52" x2="4193.43" y2="84.52" gradientTransform="matrix(-1, 0, 0, 1, 4403.35, 0)" xlink:href="#Áåçûìÿííûé_ãðàäèåíò_28"/><linearGradient id="Áåçûìÿííûé_ãðàäèåíò_28-25" x1="4188.09" y1="92.42" x2="4184.6" y2="86.31" gradientTransform="matrix(-1, 0, 0, 1, 4403.35, 0)" xlink:href="#Áåçûìÿííûé_ãðàäèåíò_28"/><linearGradient id="Áåçûìÿííûé_ãðàäèåíò_29-28" x1="4171.85" y1="89.52" x2="4171.85" y2="80.21" xlink:href="#Áåçûìÿííûé_ãðàäèåíò_29"/><linearGradient id="Áåçûìÿííûé_ãðàäèåíò_29-29" x1="4172.42" y1="82.32" x2="4179.87" y2="82.32" xlink:href="#Áåçûìÿííûé_ãðàäèåíò_29"/><linearGradient id="Áåçûìÿííûé_ãðàäèåíò_29-30" x1="4174.35" y1="83.43" x2="4181.8" y2="83.43" xlink:href="#Áåçûìÿííûé_ãðàäèåíò_29"/><linearGradient id="Áåçûìÿííûé_ãðàäèåíò_29-31" x1="4176.29" y1="84.54" x2="4183.74" y2="84.54" xlink:href="#Áåçûìÿííûé_ãðàäèåíò_29"/><linearGradient id="Áåçûìÿííûé_ãðàäèåíò_29-32" x1="4178.22" y1="85.66" x2="4185.67" y2="85.66" xlink:href="#Áåçûìÿííûé_ãðàäèåíò_29"/><linearGradient id="Áåçûìÿííûé_ãðàäèåíò_28-26" x1="4176.35" y1="98.5" x2="4178.26" y2="98.5" gradientTransform="matrix(-1, 0, 0, 1, 4403.35, 0)" xlink:href="#Áåçûìÿííûé_ãðàäèåíò_28"/><linearGradient id="Áåçûìÿííûé_ãðàäèåíò_29-33" x1="4176.12" y1="98.69" x2="4177.7" y2="98.69" xlink:href="#Áåçûìÿííûé_ãðàäèåíò_29"/><linearGradient id="Áåçûìÿííûé_ãðàäèåíò_28-27" x1="4159.73" y1="88.28" x2="4161.63" y2="88.28" gradientTransform="matrix(-1, 0, 0, 1, 4403.35, 0)" xlink:href="#Áåçûìÿííûé_ãðàäèåíò_28"/><linearGradient id="Áåçûìÿííûé_ãðàäèåíò_29-34" x1="4159.49" y1="88.48" x2="4161.07" y2="88.48" xlink:href="#Áåçûìÿííûé_ãðàäèåíò_29"/><linearGradient id="Áåçûìÿííûé_ãðàäèåíò_28-28" x1="4176.35" y1="137.84" x2="4178.26" y2="137.84" gradientTransform="matrix(-1, 0, 0, 1, 4403.35, 0)" xlink:href="#Áåçûìÿííûé_ãðàäèåíò_28"/><linearGradient id="Áåçûìÿííûé_ãðàäèåíò_29-35" x1="4176.12" y1="138.04" x2="4177.7" y2="138.04" xlink:href="#Áåçûìÿííûé_ãðàäèåíò_29"/><linearGradient id="Áåçûìÿííûé_ãðàäèåíò_28-29" x1="4159.73" y1="127.63" x2="4161.63" y2="127.63" gradientTransform="matrix(-1, 0, 0, 1, 4403.35, 0)" xlink:href="#Áåçûìÿííûé_ãðàäèåíò_28"/><linearGradient id="Áåçûìÿííûé_ãðàäèåíò_29-36" x1="4159.49" y1="127.82" x2="4161.07" y2="127.82" xlink:href="#Áåçûìÿííûé_ãðàäèåíò_29"/><linearGradient id="Áåçûìÿííûé_ãðàäèåíò_21-6" x1="4120.79" y1="157.97" x2="4166.52" y2="157.97" gradientTransform="matrix(-1, 0, 0, 1, 4403.35, 0)" xlink:href="#Áåçûìÿííûé_ãðàäèåíò_21"/><linearGradient id="Áåçûìÿííûé_ãðàäèåíò_28-30" x1="4153.57" y1="149.07" x2="4153.57" y2="107.24" gradientTransform="matrix(-1, 0, 0, 1, 4403.35, 0)" xlink:href="#Áåçûìÿííûé_ãðàäèåíò_28"/><filter id="luminosity-noclip-23" x="259.7" y="96.88" width="19.82" height="17.62" filterUnits="userSpaceOnUse" color-interpolation-filters="sRGB"><feFlood flood-color="#fff" result="bg"/><feBlend in="SourceGraphic" in2="bg"/></filter><mask id="mask-23" x="259.7" y="96.88" width="19.82" height="17.62" maskUnits="userSpaceOnUse"><g class="cls-15"><polygon class="cls-16" points="259.7 114.5 264.91 114.5 279.52 106.06 263.62 96.88 259.7 96.88 259.7 114.5"/></g></mask><linearGradient id="Áåçûìÿííûé_ãðàäèåíò_31-5" x1="4123.83" y1="105.69" x2="4143.65" y2="105.69" xlink:href="#Áåçûìÿííûé_ãðàäèåíò_31"/><linearGradient id="Áåçûìÿííûé_ãðàäèåíò_28-31" x1="4129.27" y1="105.18" x2="4158.04" y2="105.18" gradientTransform="matrix(-1, 0, 0, 1, 4403.35, 0)" xlink:href="#Áåçûìÿííûé_ãðàäèåíò_28"/><linearGradient id="Áåçûìÿííûé_ãðàäèåíò_28-32" x1="4152.7" y1="113.08" x2="4149.21" y2="106.98" gradientTransform="matrix(-1, 0, 0, 1, 4403.35, 0)" xlink:href="#Áåçûìÿííûé_ãðàäèåíò_28"/><linearGradient id="Áåçûìÿííûé_ãðàäèåíò_29-37" x1="4136.46" y1="110.19" x2="4136.46" y2="100.87" xlink:href="#Áåçûìÿííûé_ãðàäèåíò_29"/><linearGradient id="Áåçûìÿííûé_ãðàäèåíò_29-38" x1="4137.03" y1="102.98" x2="4144.48" y2="102.98" xlink:href="#Áåçûìÿííûé_ãðàäèåíò_29"/><linearGradient id="Áåçûìÿííûé_ãðàäèåíò_29-39" x1="4138.96" y1="104.1" x2="4146.41" y2="104.1" xlink:href="#Áåçûìÿííûé_ãðàäèåíò_29"/><linearGradient id="Áåçûìÿííûé_ãðàäèåíò_29-40" x1="4140.9" y1="105.21" x2="4148.35" y2="105.21" xlink:href="#Áåçûìÿííûé_ãðàäèåíò_29"/><linearGradient id="Áåçûìÿííûé_ãðàäèåíò_29-41" x1="4142.83" y1="106.32" x2="4150.28" y2="106.32" xlink:href="#Áåçûìÿííûé_ãðàäèåíò_29"/><linearGradient id="Áåçûìÿííûé_ãðàäèåíò_28-33" x1="4140.96" y1="119.16" x2="4142.87" y2="119.16" gradientTransform="matrix(-1, 0, 0, 1, 4403.35, 0)" xlink:href="#Áåçûìÿííûé_ãðàäèåíò_28"/><linearGradient id="Áåçûìÿííûé_ãðàäèåíò_29-42" x1="4140.73" y1="119.35" x2="4142.31" y2="119.35" xlink:href="#Áåçûìÿííûé_ãðàäèåíò_29"/><linearGradient id="Áåçûìÿííûé_ãðàäèåíò_28-34" x1="4124.34" y1="108.95" x2="4126.24" y2="108.95" gradientTransform="matrix(-1, 0, 0, 1, 4403.35, 0)" xlink:href="#Áåçûìÿííûé_ãðàäèåíò_28"/><linearGradient id="Áåçûìÿííûé_ãðàäèåíò_29-43" x1="4124.1" y1="109.14" x2="4125.68" y2="109.14" xlink:href="#Áåçûìÿííûé_ãðàäèåíò_29"/><linearGradient id="Áåçûìÿííûé_ãðàäèåíò_28-35" x1="4140.96" y1="158.51" x2="4142.87" y2="158.51" gradientTransform="matrix(-1, 0, 0, 1, 4403.35, 0)" xlink:href="#Áåçûìÿííûé_ãðàäèåíò_28"/><linearGradient id="Áåçûìÿííûé_ãðàäèåíò_29-44" x1="4140.73" y1="158.7" x2="4142.31" y2="158.7" xlink:href="#Áåçûìÿííûé_ãðàäèåíò_29"/><linearGradient id="Áåçûìÿííûé_ãðàäèåíò_28-36" x1="4124.34" y1="148.29" x2="4126.24" y2="148.29" gradientTransform="matrix(-1, 0, 0, 1, 4403.35, 0)" xlink:href="#Áåçûìÿííûé_ãðàäèåíò_28"/><linearGradient id="Áåçûìÿííûé_ãðàäèåíò_29-45" x1="4124.1" y1="148.48" x2="4125.68" y2="148.48" xlink:href="#Áåçûìÿííûé_ãðàäèåíò_29"/><linearGradient id="Áåçûìÿííûé_ãðàäèåíò_21-7" x1="4085.39" y1="178.64" x2="4131.13" y2="178.64" gradientTransform="matrix(-1, 0, 0, 1, 4403.35, 0)" xlink:href="#Áåçûìÿííûé_ãðàäèåíò_21"/><linearGradient id="Áåçûìÿííûé_ãðàäèåíò_28-37" x1="4118.18" y1="169.73" x2="4118.18" y2="127.9" gradientTransform="matrix(-1, 0, 0, 1, 4403.35, 0)" xlink:href="#Áåçûìÿííûé_ãðàäèåíò_28"/><filter id="luminosity-noclip-24" x="295.09" y="117.54" width="19.82" height="17.62" filterUnits="userSpaceOnUse" color-interpolation-filters="sRGB"><feFlood flood-color="#fff" result="bg"/><feBlend in="SourceGraphic" in2="bg"/></filter><mask id="mask-24" x="295.09" y="117.54" width="19.82" height="17.62" maskUnits="userSpaceOnUse"><g class="cls-17"><polygon class="cls-18" points="295.09 135.16 300.3 135.16 314.91 126.72 299.01 117.54 295.09 117.54 295.09 135.16"/></g></mask><linearGradient id="Áåçûìÿííûé_ãðàäèåíò_31-6" x1="4088.44" y1="126.35" x2="4108.26" y2="126.35" xlink:href="#Áåçûìÿííûé_ãðàäèåíò_31"/><linearGradient id="Áåçûìÿííûé_ãðàäèåíò_28-38" x1="4093.88" y1="125.85" x2="4122.65" y2="125.85" gradientTransform="matrix(-1, 0, 0, 1, 4403.35, 0)" xlink:href="#Áåçûìÿííûé_ãðàäèåíò_28"/><linearGradient id="Áåçûìÿííûé_ãðàäèåíò_28-39" x1="4117.31" y1="133.75" x2="4113.82" y2="127.64" gradientTransform="matrix(-1, 0, 0, 1, 4403.35, 0)" xlink:href="#Áåçûìÿííûé_ãðàäèåíò_28"/><linearGradient id="Áåçûìÿííûé_ãðàäèåíò_29-46" x1="4101.07" y1="130.85" x2="4101.07" y2="121.54" xlink:href="#Áåçûìÿííûé_ãðàäèåíò_29"/><linearGradient id="Áåçûìÿííûé_ãðàäèåíò_29-47" x1="4101.64" y1="123.65" x2="4109.09" y2="123.65" xlink:href="#Áåçûìÿííûé_ãðàäèåíò_29"/><linearGradient id="Áåçûìÿííûé_ãðàäèåíò_29-48" x1="4103.57" y1="124.76" x2="4111.02" y2="124.76" xlink:href="#Áåçûìÿííûé_ãðàäèåíò_29"/><linearGradient id="Áåçûìÿííûé_ãðàäèåíò_29-49" x1="4105.51" y1="125.87" x2="4112.96" y2="125.87" xlink:href="#Áåçûìÿííûé_ãðàäèåíò_29"/><linearGradient id="Áåçûìÿííûé_ãðàäèåíò_29-50" x1="4107.44" y1="126.99" x2="4114.89" y2="126.99" xlink:href="#Áåçûìÿííûé_ãðàäèåíò_29"/><linearGradient id="Áåçûìÿííûé_ãðàäèåíò_28-40" x1="4105.57" y1="139.82" x2="4107.48" y2="139.82" gradientTransform="matrix(-1, 0, 0, 1, 4403.35, 0)" xlink:href="#Áåçûìÿííûé_ãðàäèåíò_28"/><linearGradient id="Áåçûìÿííûé_ãðàäèåíò_29-51" x1="4105.34" y1="140.02" x2="4106.92" y2="140.02" xlink:href="#Áåçûìÿííûé_ãðàäèåíò_29"/><linearGradient id="Áåçûìÿííûé_ãðàäèåíò_28-41" x1="4088.95" y1="129.61" x2="4090.85" y2="129.61" gradientTransform="matrix(-1, 0, 0, 1, 4403.35, 0)" xlink:href="#Áåçûìÿííûé_ãðàäèåíò_28"/><linearGradient id="Áåçûìÿííûé_ãðàäèåíò_29-52" x1="4088.71" y1="129.8" x2="4090.29" y2="129.8" xlink:href="#Áåçûìÿííûé_ãðàäèåíò_29"/><linearGradient id="Áåçûìÿííûé_ãðàäèåíò_28-42" x1="4105.57" y1="179.17" x2="4107.48" y2="179.17" gradientTransform="matrix(-1, 0, 0, 1, 4403.35, 0)" xlink:href="#Áåçûìÿííûé_ãðàäèåíò_28"/><linearGradient id="Áåçûìÿííûé_ãðàäèåíò_29-53" x1="4105.34" y1="179.36" x2="4106.92" y2="179.36" xlink:href="#Áåçûìÿííûé_ãðàäèåíò_29"/><linearGradient id="Áåçûìÿííûé_ãðàäèåíò_28-43" x1="4088.95" y1="168.95" x2="4090.85" y2="168.95" gradientTransform="matrix(-1, 0, 0, 1, 4403.35, 0)" xlink:href="#Áåçûìÿííûé_ãðàäèåíò_28"/><linearGradient id="Áåçûìÿííûé_ãðàäèåíò_29-54" x1="4088.71" y1="169.15" x2="4090.29" y2="169.15" xlink:href="#Áåçûìÿííûé_ãðàäèåíò_29"/><linearGradient id="Áåçûìÿííûé_ãðàäèåíò_20-9" x1="2335.43" y1="2953.82" x2="2347.01" y2="2953.82" gradientTransform="matrix(-1, -0.58, -0.87, 0.5, 5019.36, 66.22)" xlink:href="#Áåçûìÿííûé_ãðàäèåíò_20"/><linearGradient id="Áåçûìÿííûé_ãðàäèåíò_20-10" x1="-698.75" y1="173.22" x2="-579.25" y2="173.22" gradientTransform="matrix(-1, 0, 0, 1, -574.37, 0)" xlink:href="#Áåçûìÿííûé_ãðàäèåíò_20"/><linearGradient id="Áåçûìÿííûé_ãðàäèåíò_28-44" x1="-714.85" y1="115.7" x2="-624.03" y2="115.7" gradientTransform="matrix(-1, 0, 0, 1, -574.37, 0)" xlink:href="#Áåçûìÿííûé_ãðàäèåíò_28"/><linearGradient id="Áåçûìÿííûé_ãðàäèåíò_29-55" x1="-714.84" y1="138.99" x2="-699.25" y2="138.99" gradientTransform="matrix(-1, 0, 0, 1, -574.37, 0)" xlink:href="#Áåçûìÿííûé_ãðàäèåíò_29"/><linearGradient id="Áåçûìÿííûé_ãðàäèåíò_29-56" x1="-702.68" y1="165.17" x2="-574.41" y2="165.17" gradientTransform="matrix(-1, 0, 0, 1, -574.37, 0)" xlink:href="#Áåçûìÿííûé_ãðàäèåíò_29"/><linearGradient id="Áåçûìÿííûé_ãðàäèåíò_28-45" x1="-659.58" y1="160.9" x2="-531.24" y2="160.9" gradientTransform="matrix(-1, 0, 0, 1, -574.37, 0)" xlink:href="#Áåçûìÿííûé_ãðàäèåíò_28"/><linearGradient id="Áåçûìÿííûé_ãðàäèåíò_28-46" x1="-637.85" y1="168.18" x2="-605" y2="168.18" gradientTransform="matrix(-1, 0, 0, 1, -574.37, 0)" xlink:href="#Áåçûìÿííûé_ãðàäèåíò_28"/><clipPath id="clip-path"><polygon id="SVGID" class="cls-25" points="60.62 66.5 136.4 110.26 127 165.66 51.27 121.94 60.62 66.5"/></clipPath><linearGradient id="Áåçûìÿííûé_ãðàäèåíò_28-47" x1="-708.61" y1="132.45" x2="-580.28" y2="132.45" gradientTransform="matrix(-1, 0, 0, 1, -574.37, 0)" xlink:href="#Áåçûìÿííûé_ãðàäèåíò_28"/><linearGradient id="Áåçûìÿííûé_ãðàäèåíò_28-48" x1="-717.06" y1="123.03" x2="-684.21" y2="123.03" gradientTransform="matrix(-1, 0, 0, 1, -574.37, 0)" xlink:href="#Áåçûìÿííûé_ãðàäèåíò_28"/></defs><title>9</title><path class="cls-26" d="M184.16,203.44a6.78,6.78,0,0,1-3.38-.91l-23-13.27.57-1,23,13.27a5.62,5.62,0,0,0,5.61,0l22.73-13.12.57,1-22.73,13.12A6.78,6.78,0,0,1,184.16,203.44Z"/><path class="cls-27" d="M137,187.38c4.81,2.78,12.61,2.78,17.42,0s4.8-7.27,0-10-12.61-2.78-17.42,0S132.23,184.61,137,187.38Zm4-7.74a10.42,10.42,0,0,1,9.42,0c2.6,1.5,2.6,3.93,0,5.43a10.36,10.36,0,0,1-9.42,0C138.44,183.57,138.44,181.14,141,179.64Z"/><path class="cls-28" d="M145.75,192.6a24.89,24.89,0,0,1-12.15-2.9h0c-3.35-1.94-5.19-4.54-5.19-7.34s1.84-5.41,5.19-7.35c6.7-3.86,17.6-3.86,24.29,0,3.36,1.94,5.2,4.55,5.2,7.35s-1.84,5.4-5.2,7.34A24.85,24.85,0,0,1,145.75,192.6Zm-11.57-3.89c6.38,3.68,16.76,3.68,23.14,0,3-1.72,4.63-4,4.63-6.35s-1.64-4.63-4.63-6.36c-6.38-3.68-16.76-3.68-23.14,0-3,1.73-4.63,4-4.63,6.36s1.64,4.63,4.63,6.35Z"/><g class="cls-29"><path class="cls-30" d="M231.67,9.46l.48-.28c1.74-1,3.16.07,3.16,2.4v106a7.6,7.6,0,0,1-3.16,6l-.48.27c-1.74,1-3.16-.06-3.16-2.39V15.5A7.59,7.59,0,0,1,231.67,9.46Z"/></g><g class="cls-31"><path class="cls-32" d="M218.93,44.2l.47-.27c1.75-1,3.16.06,3.16,2.39V97.5a7.56,7.56,0,0,1-3.16,6l-.47.27c-1.75,1-3.17-.06-3.17-2.39V50.25A7.59,7.59,0,0,1,218.93,44.2Z"/></g><g class="cls-33"><path class="cls-34" d="M206.18,63.82l.47-.28c1.75-1,3.17.07,3.17,2.4v66.3a7.59,7.59,0,0,1-3.17,6l-.47.27c-1.75,1-3.16-.06-3.16-2.39V69.86A7.56,7.56,0,0,1,206.18,63.82Z"/></g><g class="cls-35"><path class="cls-36" d="M193.44.65l.47-.27c1.74-1,3.16.06,3.16,2.39V139.6a7.6,7.6,0,0,1-3.16,6.05l-.47.27c-1.75,1-3.17-.06-3.17-2.39V6.7A7.59,7.59,0,0,1,193.44.65Z"/></g><g class="cls-37"><path class="cls-38" d="M180.69,29.81l.47-.27c1.75-1,3.16.06,3.16,2.39V147a7.54,7.54,0,0,1-3.16,6l-.47.28c-1.75,1-3.16-.07-3.16-2.39v-115A7.58,7.58,0,0,1,180.69,29.81Z"/></g><g class="cls-39"><path class="cls-40" d="M167.94,46.25l.47-.27c1.75-1,3.17.06,3.17,2.39V91.48a7.57,7.57,0,0,1-3.17,6l-.47.27c-1.74,1-3.16-.06-3.16-2.39V52.3A7.6,7.6,0,0,1,167.94,46.25Z"/></g><path class="cls-41" d="M298.48,240a6.43,6.43,0,0,1-3.11-.72h0l-118.82-69a2.5,2.5,0,0,1-1.4-2.12,3.21,3.21,0,0,1,1.87-2.61l80.39-46.42a7.78,7.78,0,0,1,7.06-.27l118.82,69a2.48,2.48,0,0,1,1.4,2.12,3.21,3.21,0,0,1-1.87,2.61L302.43,239A8.1,8.1,0,0,1,298.48,240ZM296,238.31a6.72,6.72,0,0,0,5.91-.27l80.39-46.42c.81-.47,1.3-1.07,1.3-1.62a1.44,1.44,0,0,0-.84-1.13l-118.82-69a6.67,6.67,0,0,0-5.9.27l-80.4,46.42c-.81.47-1.3,1.07-1.3,1.62a1.44,1.44,0,0,0,.84,1.13l118.82,69Z"/><path class="cls-42" d="M295.66,225.7l-118.82-69c-1.66-1-1.45-2.64.47-3.74l80.39-46.42a7.25,7.25,0,0,1,6.48-.27l118.82,69c1.66,1,1.45,2.64-.47,3.74l-80.39,46.42A7.19,7.19,0,0,1,295.66,225.7Z"/><path class="cls-43" d="M376.52,171.29l-25.25-1.65-86.46-50.29a6.59,6.59,0,0,0-6,.25l-55.6,32.1-19.92-1.3v3.28h0a1.75,1.75,0,0,0,1,1.5L295,219.46a6.62,6.62,0,0,0,6-.25l74.06-42.76a2.47,2.47,0,0,0,1.45-1.88h0Z"/><path class="cls-44" d="M295,216.22,184.35,151.94c-1.53-.88-1.34-2.42.43-3.45l74.06-42.76a6.61,6.61,0,0,1,6-.24l110.68,64.28c1.53.88,1.34,2.42-.43,3.44L301,216A6.65,6.65,0,0,1,295,216.22Z"/><path class="cls-45" d="M379.19,156.12l-26-1.69L264.59,102.9a6.84,6.84,0,0,0-6.15.26l-57.27,33.06-20.52-1.33V149.2h0a1.78,1.78,0,0,0,1,1.54l113.54,65.93a6.84,6.84,0,0,0,6.15-.25l76.29-44.05a2.55,2.55,0,0,0,1.49-1.94h0Z"/><path class="cls-46" d="M295.25,202.25,181.71,136.32c-1.58-.91-1.38-2.5.44-3.55l76.29-44a6.84,6.84,0,0,1,6.15-.26L378.13,154.4c1.58.91,1.38,2.5-.44,3.55L301.4,202A6.84,6.84,0,0,1,295.25,202.25Z"/><path class="cls-47" d="M364,132.67a10.32,10.32,0,0,0,9.34,0c2.58-1.49,2.58-3.9,0-5.39a10.32,10.32,0,0,0-9.34,0C361.41,128.77,361.41,131.18,364,132.67Z"/><path class="cls-48" d="M377.23,141.7a5.46,5.46,0,0,0,4.92,0c1.36-.79,1.36-2.06,0-2.84a5.4,5.4,0,0,0-4.92,0C375.87,139.64,375.87,140.91,377.23,141.7Z"/><path class="cls-49" d="M230.62,235a6.71,6.71,0,0,0,6,0c1.67-1,1.67-2.53,0-3.5a6.71,6.71,0,0,0-6,0C229,232.44,229,234,230.62,235Z"/><path class="cls-50" d="M233.64,238.71a13.19,13.19,0,0,1-6.46-1.54c-1.8-1-2.79-2.44-2.79-3.95s1-2.91,2.79-3.95a14.3,14.3,0,0,1,12.93,0c1.8,1,2.79,2.44,2.79,3.95s-1,2.91-2.79,3.95A13.2,13.2,0,0,1,233.64,238.71Zm0-10.23a12.42,12.42,0,0,0-6.08,1.45c-1.55.89-2.4,2.06-2.4,3.29s.85,2.39,2.4,3.29a13.45,13.45,0,0,0,12.17,0c1.55-.9,2.4-2.07,2.4-3.29s-.85-2.4-2.4-3.29A12.44,12.44,0,0,0,233.64,228.48Z"/><polygon class="cls-51" points="264.39 72.98 284.21 61.54 264.39 50.09 244.57 61.54 264.39 72.98"/><path class="cls-52" d="M263.6,126.65l-21.69-12.52a.79.79,0,0,1,0-1.36l21.69-12.52a1.59,1.59,0,0,1,1.58,0l21.69,12.52a.79.79,0,0,1,0,1.36l-21.69,12.52a1.59,1.59,0,0,1-1.58,0Zm.29-25.9L242.2,113.27a.2.2,0,0,0,0,.36l21.69,12.52a1,1,0,0,0,1,0l21.69-12.52a.2.2,0,0,0,0-.36L264.9,100.75a1,1,0,0,0-.51-.14A1,1,0,0,0,263.89,100.75Z"/><g class="cls-53"><polygon class="cls-54" points="264.39 123.15 281.19 113.45 264.39 103.75 247.59 113.45 264.39 123.15"/></g><polygon class="cls-55" points="264.39 116.91 284.21 105.47 264.39 94.02 244.57 105.47 264.39 116.91"/><polygon class="cls-56" points="244.57 61.54 244.57 105.47 264.39 116.91 264.39 72.98 244.57 61.54"/><polygon class="cls-54" points="284.21 61.54 284.21 105.47 264.39 116.91 264.39 72.98 284.21 61.54"/><g class="cls-57"><polygon class="cls-43" points="282.87 64.45 282.87 103.94 265.73 113.83 265.73 74.34 282.87 64.45"/></g><polygon class="cls-43" points="247.54 72.15 247.54 73.31 261.42 81.32 261.42 80.16 247.54 72.15"/><polygon class="cls-43" points="247.54 77.06 247.54 78.22 261.42 86.23 261.42 85.07 247.54 77.06"/><polygon class="cls-43" points="247.54 81.97 247.54 83.13 261.42 91.14 261.42 89.98 247.54 81.97"/><polygon class="cls-43" points="247.54 86.88 247.54 88.04 261.42 96.05 261.42 94.89 247.54 86.88"/><polygon class="cls-43" points="247.54 91.79 247.54 92.95 261.42 100.96 261.42 99.8 247.54 91.79"/><polygon class="cls-43" points="247.54 96.7 247.54 97.86 261.42 105.87 261.42 104.71 247.54 96.7"/><g class="cls-58"><polygon class="cls-59" points="264.39 69.97 269.6 69.97 284.21 61.54 268.31 52.35 264.39 52.35 264.39 69.97"/></g><polygon class="cls-60" points="264.39 68.96 278.77 60.66 264.39 52.35 250.01 60.66 264.39 68.96"/><polygon class="cls-61" points="250.01 60.66 250.01 61.67 264.39 69.97 264.39 68.96 250.01 60.66"/><polygon class="cls-62" points="278.77 60.66 278.77 61.67 264.39 69.97 264.39 68.96 278.77 60.66"/><polygon class="cls-63" points="269.97 60.79 270.61 60.42 270.55 60.13 264.64 56.69 263.82 57.08 263.98 57.33 269.97 60.79"/><polygon class="cls-64" points="264.61 56.97 263.98 57.33 263.57 57.1 264.61 56.49 271.02 60.19 270.61 60.42 264.61 56.97"/><polygon class="cls-63" points="268.04 61.91 268.67 61.54 268.62 61.24 262.71 57.8 261.89 58.19 262.04 58.45 268.04 61.91"/><polygon class="cls-65" points="262.68 58.08 262.04 58.45 261.63 58.21 262.68 57.6 269.08 61.3 268.67 61.54 262.68 58.08"/><polygon class="cls-63" points="266.1 63.02 266.74 62.65 266.69 62.35 260.78 58.91 259.96 59.3 260.11 59.56 266.1 63.02"/><polygon class="cls-66" points="260.75 59.19 260.11 59.56 259.7 59.32 260.75 58.72 267.15 62.41 266.74 62.65 260.75 59.19"/><polygon class="cls-63" points="264.17 64.13 264.81 63.76 264.75 63.46 258.84 60.02 258.02 60.42 258.18 60.67 264.17 64.13"/><polygon class="cls-67" points="258.81 60.3 258.18 60.67 257.77 60.43 258.81 59.83 265.21 63.53 264.81 63.76 258.81 60.3"/><g class="cls-57"><polygon class="cls-43" points="284.21 98.53 264.39 86.56 264.39 72.98 284.21 61.54 284.21 98.53"/></g><path class="cls-68" d="M265.18,75a1.74,1.74,0,0,1,.78-1.37.53.53,0,0,1,.56,0h0l.56.32-.34,0a.86.86,0,0,1,0,.17,1.72,1.72,0,0,1-.79,1.36.6.6,0,0,1-.16.08l.16.3-.55-.32h0A.56.56,0,0,1,265.18,75Z"/><path class="cls-69" d="M265.74,75.29c0,.5.35.7.79.45a1.75,1.75,0,0,0,.79-1.37c0-.5-.36-.7-.79-.45A1.73,1.73,0,0,0,265.74,75.29Z"/><path class="cls-63" d="M266.07,75.09c0,.29.21.41.46.26a1,1,0,0,0,.45-.78c0-.29-.2-.41-.45-.26A1,1,0,0,0,266.07,75.09Z"/><path class="cls-70" d="M281.8,64.74a1.72,1.72,0,0,1,.79-1.36.56.56,0,0,1,.56-.06h0l.56.33h-.35a.88.88,0,0,1,0,.17,1.74,1.74,0,0,1-.79,1.37.61.61,0,0,1-.17.07l.16.3-.54-.32h0A.54.54,0,0,1,281.8,64.74Z"/><path class="cls-71" d="M282.36,65.07c0,.5.36.71.79.46a1.76,1.76,0,0,0,.79-1.37c0-.5-.35-.71-.79-.46A1.79,1.79,0,0,0,282.36,65.07Z"/><path class="cls-63" d="M282.7,64.88c0,.29.2.4.45.26a1,1,0,0,0,.46-.79c0-.29-.21-.4-.46-.26A1,1,0,0,0,282.7,64.88Z"/><path class="cls-72" d="M265.18,114.3a1.74,1.74,0,0,1,.78-1.36.56.56,0,0,1,.56-.06h0l.56.33h-.34a.91.91,0,0,1,0,.17,1.74,1.74,0,0,1-.79,1.37.56.56,0,0,1-.16.07l.16.3-.55-.32h0A.56.56,0,0,1,265.18,114.3Z"/><path class="cls-73" d="M265.74,114.63c0,.5.35.71.79.46a1.79,1.79,0,0,0,.79-1.37c0-.5-.36-.71-.79-.46A1.76,1.76,0,0,0,265.74,114.63Z"/><path class="cls-63" d="M266.07,114.44c0,.29.21.4.46.26a1,1,0,0,0,.45-.79c0-.29-.2-.4-.45-.26A1,1,0,0,0,266.07,114.44Z"/><path class="cls-74" d="M281.8,104.09a1.73,1.73,0,0,1,.79-1.37.53.53,0,0,1,.56,0h0l.56.32-.35,0a.79.79,0,0,1,0,.17,1.72,1.72,0,0,1-.79,1.36.65.65,0,0,1-.17.08l.16.3-.54-.32h0A.54.54,0,0,1,281.8,104.09Z"/><path class="cls-75" d="M282.36,104.42c0,.5.36.7.79.45a1.73,1.73,0,0,0,.79-1.37c0-.5-.35-.7-.79-.45A1.75,1.75,0,0,0,282.36,104.42Z"/><path class="cls-63" d="M282.7,104.22c0,.29.2.41.45.26a1,1,0,0,0,.46-.78c0-.29-.21-.41-.46-.26A1,1,0,0,0,282.7,104.22Z"/><polygon class="cls-51" points="299.78 93.64 319.61 82.2 299.78 70.75 279.96 82.2 299.78 93.64"/><path class="cls-76" d="M299,147.31,277.3,134.79a.78.78,0,0,1-.39-.68.8.8,0,0,1,.39-.68L299,120.91a1.59,1.59,0,0,1,1.58,0l21.69,12.52a.8.8,0,0,1,.39.68.78.78,0,0,1-.39.68l-21.69,12.52a1.59,1.59,0,0,1-1.58,0Zm.29-25.9-21.69,12.52a.22.22,0,0,0-.1.18.22.22,0,0,0,.1.19l21.69,12.52a1,1,0,0,0,1,0L322,134.3a.21.21,0,0,0,.11-.19.21.21,0,0,0-.11-.18l-21.68-12.52a1,1,0,0,0-.51-.13A1,1,0,0,0,299.28,121.41Z"/><g class="cls-53"><polygon class="cls-54" points="299.78 143.81 316.58 134.11 299.78 124.42 282.98 134.11 299.78 143.81"/></g><polygon class="cls-55" points="299.78 137.58 319.61 126.13 299.78 114.69 279.96 126.13 299.78 137.58"/><polygon class="cls-77" points="279.96 82.2 279.96 126.13 299.78 137.58 299.78 93.64 279.96 82.2"/><polygon class="cls-54" points="319.61 82.2 319.61 126.13 299.78 137.58 299.78 93.64 319.61 82.2"/><g class="cls-57"><polygon class="cls-43" points="318.26 85.11 318.26 124.6 301.12 134.5 301.12 95.01 318.26 85.11"/></g><polygon class="cls-43" points="282.93 92.81 282.93 93.98 296.81 101.99 296.81 100.83 282.93 92.81"/><polygon class="cls-43" points="282.93 97.72 282.93 98.89 296.81 106.9 296.81 105.74 282.93 97.72"/><polygon class="cls-43" points="282.93 102.64 282.93 103.8 296.81 111.81 296.81 110.65 282.93 102.64"/><polygon class="cls-43" points="282.93 107.54 282.93 108.71 296.81 116.72 296.81 115.56 282.93 107.54"/><polygon class="cls-43" points="282.93 112.45 282.93 113.62 296.81 121.63 296.81 120.47 282.93 112.45"/><polygon class="cls-43" points="282.93 117.36 282.93 118.53 296.81 126.54 296.81 125.38 282.93 117.36"/><g class="cls-78"><polygon class="cls-79" points="299.78 90.64 304.99 90.64 319.61 82.2 303.7 73.02 299.78 73.02 299.78 90.64"/></g><polygon class="cls-80" points="299.78 89.63 314.17 81.32 299.78 73.02 285.4 81.32 299.78 89.63"/><polygon class="cls-81" points="285.4 81.32 285.4 82.33 299.78 90.64 299.78 89.63 285.4 81.32"/><polygon class="cls-82" points="314.17 81.32 314.17 82.33 299.78 90.64 299.78 89.63 314.17 81.32"/><polygon class="cls-63" points="305.36 81.46 306 81.09 305.94 80.79 300.04 77.35 299.21 77.74 299.37 78 305.36 81.46"/><polygon class="cls-83" points="300 77.63 299.37 78 298.96 77.76 300 77.16 306.41 80.85 306 81.09 300 77.63"/><polygon class="cls-63" points="303.43 82.57 304.06 82.2 304.01 81.9 298.1 78.46 297.28 78.86 297.43 79.11 303.43 82.57"/><polygon class="cls-84" points="298.07 78.74 297.43 79.11 297.02 78.87 298.07 78.27 304.47 81.97 304.06 82.2 298.07 78.74"/><polygon class="cls-63" points="301.49 83.68 302.13 83.31 302.08 83.02 296.17 79.58 295.35 79.97 295.5 80.22 301.49 83.68"/><polygon class="cls-85" points="296.14 79.86 295.5 80.22 295.09 79.99 296.14 79.38 302.54 83.08 302.13 83.31 296.14 79.86"/><polygon class="cls-63" points="299.56 84.8 300.2 84.43 300.14 84.13 294.23 80.69 293.41 81.08 293.57 81.33 299.56 84.8"/><polygon class="cls-86" points="294.2 80.97 293.57 81.33 293.16 81.1 294.2 80.49 300.61 84.19 300.19 84.43 294.2 80.97"/><g class="cls-57"><polygon class="cls-43" points="319.61 119.19 299.78 107.22 299.78 93.64 319.61 82.2 319.61 119.19"/></g><path class="cls-87" d="M300.57,95.62a1.76,1.76,0,0,1,.79-1.37.57.57,0,0,1,.56,0h0l.55.33h-.34a.91.91,0,0,1,0,.17,1.77,1.77,0,0,1-.78,1.37l-.17.07.16.3-.55-.32h0A.56.56,0,0,1,300.57,95.62Z"/><path class="cls-88" d="M301.13,96c0,.5.35.71.79.46a1.79,1.79,0,0,0,.79-1.37c0-.5-.36-.71-.79-.46A1.76,1.76,0,0,0,301.13,96Z"/><path class="cls-63" d="M301.46,95.76c0,.29.21.4.46.26a1,1,0,0,0,.45-.79c0-.29-.2-.4-.45-.26A1,1,0,0,0,301.46,95.76Z"/><path class="cls-89" d="M317.19,85.41A1.75,1.75,0,0,1,318,84a.53.53,0,0,1,.56-.05h0l.56.32h-.35a1,1,0,0,1,0,.17,1.73,1.73,0,0,1-.79,1.37l-.17.08.16.3-.54-.32h0A.54.54,0,0,1,317.19,85.41Z"/><path class="cls-90" d="M317.75,85.73c0,.51.36.71.79.46a1.73,1.73,0,0,0,.79-1.37c0-.5-.35-.7-.79-.45A1.75,1.75,0,0,0,317.75,85.73Z"/><path class="cls-63" d="M318.09,85.54c0,.29.2.41.45.26A1,1,0,0,0,319,85c0-.29-.21-.41-.46-.26A1,1,0,0,0,318.09,85.54Z"/><path class="cls-91" d="M300.57,135a1.73,1.73,0,0,1,.79-1.37.53.53,0,0,1,.56,0h0l.55.32h-.34a1,1,0,0,1,0,.18,1.74,1.74,0,0,1-.78,1.36l-.17.08.16.3-.55-.32h0A.56.56,0,0,1,300.57,135Z"/><path class="cls-92" d="M301.13,135.29c0,.51.35.71.79.46a1.75,1.75,0,0,0,.79-1.37c0-.5-.36-.7-.79-.45A1.72,1.72,0,0,0,301.13,135.29Z"/><path class="cls-63" d="M301.46,135.1c0,.29.21.41.46.26a1,1,0,0,0,.45-.78c0-.29-.2-.41-.45-.26A1,1,0,0,0,301.46,135.1Z"/><path class="cls-93" d="M317.19,124.75a1.79,1.79,0,0,1,.79-1.37.58.58,0,0,1,.56,0h0l.56.33h-.35a.88.88,0,0,1,0,.17,1.76,1.76,0,0,1-.79,1.37l-.17.07.16.3-.54-.32h0A.54.54,0,0,1,317.19,124.75Z"/><path class="cls-94" d="M317.75,125.08c0,.5.36.71.79.45a1.72,1.72,0,0,0,.79-1.36c0-.5-.35-.71-.79-.46A1.77,1.77,0,0,0,317.75,125.08Z"/><path class="cls-63" d="M318.09,124.89c0,.29.2.4.45.26a1,1,0,0,0,.46-.79c0-.29-.21-.4-.46-.26A1,1,0,0,0,318.09,124.89Z"/><polygon class="cls-51" points="335.17 114.31 355 102.86 335.17 91.42 315.35 102.86 335.17 114.31"/><path class="cls-95" d="M334.38,168l-21.69-12.52a.79.79,0,0,1-.39-.68.78.78,0,0,1,.39-.68l21.69-12.52a1.59,1.59,0,0,1,1.58,0l21.69,12.52a.78.78,0,0,1,.39.68.8.8,0,0,1-.39.68L336,168a1.56,1.56,0,0,1-.79.21A1.58,1.58,0,0,1,334.38,168Zm.29-25.91L313,154.59a.22.22,0,0,0-.1.19.21.21,0,0,0,.1.18l21.69,12.52a1,1,0,0,0,1,0L357.36,155a.2.2,0,0,0,.11-.18.21.21,0,0,0-.11-.19l-21.68-12.52a1,1,0,0,0-.51-.13A1,1,0,0,0,334.67,142.07Z"/><g class="cls-53"><polygon class="cls-54" points="335.17 164.48 351.97 154.78 335.17 145.08 318.38 154.78 335.17 164.48"/></g><polygon class="cls-55" points="335.17 158.24 355 146.8 335.17 135.35 315.35 146.8 335.17 158.24"/><polygon class="cls-96" points="315.35 102.86 315.35 146.8 335.17 158.24 335.17 114.31 315.35 102.86"/><polygon class="cls-54" points="355 102.86 355 146.8 335.17 158.24 335.17 114.31 355 102.86"/><g class="cls-57"><polygon class="cls-43" points="353.65 105.78 353.65 145.27 336.51 155.16 336.51 115.67 353.65 105.78"/></g><polygon class="cls-43" points="318.32 113.48 318.32 114.64 332.2 122.65 332.2 121.49 318.32 113.48"/><polygon class="cls-43" points="318.32 118.39 318.32 119.55 332.2 127.56 332.2 126.4 318.32 118.39"/><polygon class="cls-43" points="318.32 123.3 318.32 124.46 332.2 132.47 332.2 131.31 318.32 123.3"/><polygon class="cls-43" points="318.32 128.21 318.32 129.37 332.2 137.38 332.2 136.22 318.32 128.21"/><polygon class="cls-43" points="318.32 133.12 318.32 134.28 332.2 142.29 332.2 141.13 318.32 133.12"/><polygon class="cls-43" points="318.32 138.03 318.32 139.19 332.2 147.2 332.2 146.04 318.32 138.03"/><g class="cls-97"><polygon class="cls-98" points="335.17 111.3 340.38 111.3 355 102.86 339.09 93.68 335.17 93.68 335.17 111.3"/></g><polygon class="cls-99" points="335.17 110.29 349.56 101.99 335.17 93.68 320.79 101.99 335.17 110.29"/><polygon class="cls-100" points="320.79 101.99 320.79 103 335.17 111.3 335.17 110.29 320.79 101.99"/><polygon class="cls-101" points="349.56 101.99 349.56 103 335.17 111.3 335.17 110.29 349.56 101.99"/><polygon class="cls-63" points="340.75 102.12 341.39 101.75 341.33 101.45 335.43 98.02 334.61 98.41 334.76 98.66 340.75 102.12"/><polygon class="cls-102" points="335.39 98.29 334.76 98.66 334.35 98.42 335.39 97.82 341.8 101.52 341.39 101.75 335.39 98.29"/><polygon class="cls-63" points="338.82 103.23 339.45 102.86 339.4 102.57 333.49 99.13 332.67 99.52 332.82 99.77 338.82 103.23"/><polygon class="cls-103" points="333.46 99.41 332.82 99.77 332.41 99.54 333.46 98.93 339.86 102.63 339.45 102.87 333.46 99.41"/><polygon class="cls-63" points="336.88 104.35 337.52 103.98 337.47 103.68 331.56 100.24 330.74 100.63 330.89 100.89 336.88 104.35"/><polygon class="cls-104" points="331.53 100.52 330.89 100.89 330.48 100.65 331.53 100.05 337.93 103.74 337.52 103.98 331.53 100.52"/><polygon class="cls-63" points="334.95 105.46 335.59 105.09 335.53 104.79 329.63 101.35 328.8 101.75 328.96 102 334.95 105.46"/><polygon class="cls-105" points="329.59 101.63 328.96 102 328.55 101.76 329.59 101.16 336 104.86 335.59 105.09 329.59 101.63"/><g class="cls-57"><polygon class="cls-43" points="355 139.85 335.17 127.89 335.17 114.31 355 102.86 355 139.85"/></g><path class="cls-106" d="M336,116.29a1.73,1.73,0,0,1,.79-1.37.53.53,0,0,1,.56,0h0l.55.32h-.34a1,1,0,0,1,0,.17,1.74,1.74,0,0,1-.78,1.37l-.17.08.16.3-.55-.32h0A.56.56,0,0,1,336,116.29Z"/><path class="cls-107" d="M336.52,116.61c0,.51.35.71.79.46a1.75,1.75,0,0,0,.79-1.37c0-.5-.36-.7-.79-.45A1.72,1.72,0,0,0,336.52,116.61Z"/><path class="cls-63" d="M336.85,116.42c0,.29.21.41.46.26a1,1,0,0,0,.45-.78c0-.29-.2-.41-.45-.27A1,1,0,0,0,336.85,116.42Z"/><path class="cls-108" d="M352.58,106.07a1.79,1.79,0,0,1,.79-1.37.58.58,0,0,1,.56,0h0l.56.33h-.35a.88.88,0,0,1,0,.17,1.76,1.76,0,0,1-.79,1.37l-.17.07.16.3-.54-.32h0A.54.54,0,0,1,352.58,106.07Z"/><path class="cls-109" d="M353.14,106.4c0,.5.36.71.79.45a1.72,1.72,0,0,0,.79-1.36c0-.5-.35-.71-.79-.46A1.77,1.77,0,0,0,353.14,106.4Z"/><path class="cls-63" d="M353.48,106.21c0,.28.2.4.45.26a1,1,0,0,0,.46-.79c0-.29-.21-.41-.46-.26A1,1,0,0,0,353.48,106.21Z"/><path class="cls-110" d="M336,155.63a1.76,1.76,0,0,1,.79-1.37.57.57,0,0,1,.56,0h0l.55.33h-.34a.91.91,0,0,1,0,.17,1.77,1.77,0,0,1-.78,1.37l-.17.07.16.3-.55-.32h0A.56.56,0,0,1,336,155.63Z"/><path class="cls-111" d="M336.52,156c0,.5.35.71.79.45a1.75,1.75,0,0,0,.79-1.36c0-.5-.36-.71-.79-.46A1.74,1.74,0,0,0,336.52,156Z"/><path class="cls-63" d="M336.85,155.77c0,.29.21.4.46.26a1,1,0,0,0,.45-.79c0-.29-.2-.4-.45-.26A1,1,0,0,0,336.85,155.77Z"/><path class="cls-112" d="M352.58,145.41a1.75,1.75,0,0,1,.79-1.36.53.53,0,0,1,.56-.05h0l.56.33h-.35a1,1,0,0,1,0,.17,1.73,1.73,0,0,1-.79,1.37l-.17.08.16.3-.54-.32h0A.55.55,0,0,1,352.58,145.41Z"/><path class="cls-113" d="M353.14,145.74c0,.51.36.71.79.46a1.73,1.73,0,0,0,.79-1.37c0-.5-.35-.7-.79-.45A1.75,1.75,0,0,0,353.14,145.74Z"/><path class="cls-63" d="M353.48,145.55c0,.29.2.41.45.26a1,1,0,0,0,.46-.78.28.28,0,0,0-.46-.27A1,1,0,0,0,353.48,145.55Z"/><polygon class="cls-51" points="224.31 96.84 244.13 85.4 224.31 73.95 204.49 85.4 224.31 96.84"/><path class="cls-114" d="M223.52,150.51,201.83,138a.79.79,0,0,1,0-1.36l21.69-12.52a1.59,1.59,0,0,1,1.58,0l21.69,12.52a.79.79,0,0,1,0,1.36L225.1,150.51a1.58,1.58,0,0,1-.79.21A1.56,1.56,0,0,1,223.52,150.51Zm.29-25.9-21.69,12.52a.2.2,0,0,0,0,.36L223.8,150a1,1,0,0,0,1,0l21.69-12.52a.21.21,0,0,0,0-.36l-21.69-12.52a1,1,0,0,0-.5-.14A1,1,0,0,0,223.81,124.61Z"/><g class="cls-53"><polygon class="cls-54" points="224.31 147.01 241.11 137.31 224.31 127.61 207.51 137.31 224.31 147.01"/></g><polygon class="cls-55" points="224.31 140.77 244.13 129.33 224.31 117.88 204.49 129.33 224.31 140.77"/><polygon class="cls-115" points="204.49 85.4 204.49 129.33 224.31 140.77 224.31 96.84 204.49 85.4"/><polygon class="cls-54" points="244.13 85.4 244.13 129.33 224.31 140.77 224.31 96.84 244.13 85.4"/><g class="cls-57"><polygon class="cls-43" points="242.79 88.31 242.79 127.8 225.65 137.69 225.65 98.21 242.79 88.31"/></g><polygon class="cls-43" points="207.46 96.01 207.46 97.17 221.34 105.18 221.34 104.02 207.46 96.01"/><polygon class="cls-43" points="207.46 100.92 207.46 102.08 221.34 110.09 221.34 108.93 207.46 100.92"/><polygon class="cls-43" points="207.46 105.83 207.46 106.99 221.34 115 221.34 113.84 207.46 105.83"/><polygon class="cls-43" points="207.46 110.74 207.46 111.9 221.34 119.91 221.34 118.75 207.46 110.74"/><polygon class="cls-43" points="207.46 115.65 207.46 116.81 221.34 124.82 221.34 123.66 207.46 115.65"/><polygon class="cls-43" points="207.46 120.56 207.46 121.72 221.34 129.73 221.34 128.57 207.46 120.56"/><g class="cls-116"><polygon class="cls-117" points="224.31 93.83 229.52 93.83 244.13 85.4 228.23 76.22 224.31 76.22 224.31 93.83"/></g><polygon class="cls-118" points="224.31 92.82 238.69 84.52 224.31 76.22 209.93 84.52 224.31 92.82"/><polygon class="cls-119" points="209.93 84.52 209.93 85.53 224.31 93.83 224.31 92.82 209.93 84.52"/><polygon class="cls-120" points="238.69 84.52 238.69 85.53 224.31 93.83 224.31 92.82 238.69 84.52"/><polygon class="cls-63" points="229.89 84.65 230.53 84.28 230.47 83.99 224.56 80.55 223.74 80.94 223.9 81.19 229.89 84.65"/><polygon class="cls-121" points="224.53 80.83 223.9 81.19 223.49 80.96 224.53 80.35 230.93 84.05 230.52 84.28 224.53 80.83"/><polygon class="cls-63" points="227.95 85.77 228.59 85.4 228.54 85.1 222.63 81.66 221.81 82.05 221.96 82.31 227.95 85.77"/><polygon class="cls-122" points="222.6 81.94 221.96 82.31 221.55 82.07 222.6 81.47 229 85.16 228.59 85.4 222.6 81.94"/><polygon class="cls-63" points="226.02 86.88 226.66 86.51 226.6 86.21 220.69 82.77 219.88 83.16 220.03 83.42 226.02 86.88"/><polygon class="cls-123" points="220.66 83.05 220.03 83.42 219.62 83.18 220.66 82.58 227.07 86.27 226.66 86.51 220.66 83.05"/><polygon class="cls-63" points="224.09 87.99 224.72 87.62 224.67 87.33 218.76 83.89 217.94 84.28 218.09 84.53 224.09 87.99"/><polygon class="cls-124" points="218.73 84.16 218.09 84.53 217.68 84.3 218.73 83.69 225.13 87.39 224.72 87.62 218.73 84.16"/><g class="cls-57"><polygon class="cls-43" points="244.13 122.39 224.31 110.42 224.31 96.84 244.13 85.4 244.13 122.39"/></g><path class="cls-125" d="M225.09,98.82a1.75,1.75,0,0,1,.79-1.37.53.53,0,0,1,.56,0h0l.56.32-.34,0a.86.86,0,0,1,0,.17,1.72,1.72,0,0,1-.79,1.36.65.65,0,0,1-.17.08l.16.3-.54-.32h0A.54.54,0,0,1,225.09,98.82Z"/><path class="cls-126" d="M225.66,99.15c0,.5.35.7.78.45a1.72,1.72,0,0,0,.79-1.36c0-.51-.35-.71-.79-.46A1.74,1.74,0,0,0,225.66,99.15Z"/><path class="cls-63" d="M226,99c0,.29.2.41.45.26a1,1,0,0,0,.46-.78c0-.29-.2-.41-.46-.26A1,1,0,0,0,226,99Z"/><path class="cls-127" d="M241.72,88.6a1.72,1.72,0,0,1,.79-1.36.56.56,0,0,1,.56-.06h0l.56.33h-.35a.88.88,0,0,1,0,.17,1.77,1.77,0,0,1-.79,1.37.77.77,0,0,1-.17.07l.16.3-.55-.32h0A.55.55,0,0,1,241.72,88.6Z"/><path class="cls-128" d="M242.28,88.93c0,.5.35.71.79.46a1.76,1.76,0,0,0,.79-1.37c0-.5-.35-.71-.79-.46A1.76,1.76,0,0,0,242.28,88.93Z"/><path class="cls-63" d="M242.62,88.74c0,.29.2.4.45.26a1,1,0,0,0,.45-.79c0-.29-.2-.4-.45-.26A1,1,0,0,0,242.62,88.74Z"/><path class="cls-129" d="M225.09,138.16a1.75,1.75,0,0,1,.79-1.36.56.56,0,0,1,.56-.06h0l.56.33h-.34a.91.91,0,0,1,0,.17,1.74,1.74,0,0,1-.79,1.37.61.61,0,0,1-.17.07l.16.3-.54-.32h0A.53.53,0,0,1,225.09,138.16Z"/><path class="cls-130" d="M225.66,138.49c0,.5.35.71.78.46a1.76,1.76,0,0,0,.79-1.37c0-.5-.35-.71-.79-.46A1.77,1.77,0,0,0,225.66,138.49Z"/><path class="cls-63" d="M226,138.3c0,.29.2.4.45.26a1,1,0,0,0,.46-.79c0-.29-.2-.4-.46-.26A1,1,0,0,0,226,138.3Z"/><path class="cls-131" d="M241.72,128a1.73,1.73,0,0,1,.79-1.37.53.53,0,0,1,.56,0h0l.56.32-.35,0a.79.79,0,0,1,0,.17,1.75,1.75,0,0,1-.79,1.36.85.85,0,0,1-.17.08l.16.3-.55-.32h0A.56.56,0,0,1,241.72,128Z"/><path class="cls-132" d="M242.28,128.28c0,.5.35.7.79.45a1.73,1.73,0,0,0,.79-1.37c0-.5-.35-.7-.79-.45A1.73,1.73,0,0,0,242.28,128.28Z"/><path class="cls-63" d="M242.62,128.08c0,.29.2.41.45.26a1,1,0,0,0,.45-.78c0-.29-.2-.41-.45-.26A1,1,0,0,0,242.62,128.08Z"/><polygon class="cls-51" points="259.7 117.51 279.52 106.06 259.7 94.62 239.88 106.06 259.7 117.51"/><path class="cls-133" d="M258.91,171.17l-21.69-12.52a.78.78,0,0,1-.39-.68.8.8,0,0,1,.39-.68l21.69-12.52a1.59,1.59,0,0,1,1.58,0l21.69,12.52a.8.8,0,0,1,.39.68.78.78,0,0,1-.39.68l-21.69,12.52a1.59,1.59,0,0,1-1.58,0Zm.29-25.9-21.69,12.52a.21.21,0,0,0-.11.18.21.21,0,0,0,.11.19l21.68,12.52a1,1,0,0,0,1,0l21.69-12.52A.21.21,0,0,0,282,158a.21.21,0,0,0-.11-.18L260.2,145.27a1,1,0,0,0-1,0Z"/><g class="cls-53"><polygon class="cls-54" points="259.7 167.67 276.5 157.97 259.7 148.28 242.9 157.97 259.7 167.67"/></g><polygon class="cls-55" points="259.7 161.44 279.52 149.99 259.7 138.55 239.88 149.99 259.7 161.44"/><polygon class="cls-134" points="239.88 106.06 239.88 149.99 259.7 161.44 259.7 117.51 239.88 106.06"/><polygon class="cls-54" points="279.52 106.06 279.52 149.99 259.7 161.44 259.7 117.51 279.52 106.06"/><g class="cls-57"><polygon class="cls-43" points="278.18 108.97 278.18 148.46 261.04 158.36 261.04 118.87 278.18 108.97"/></g><polygon class="cls-43" points="242.85 116.67 242.85 117.84 256.73 125.85 256.73 124.69 242.85 116.67"/><polygon class="cls-43" points="242.85 121.58 242.85 122.75 256.73 130.76 256.73 129.6 242.85 121.58"/><polygon class="cls-43" points="242.85 126.5 242.85 127.66 256.73 135.67 256.73 134.51 242.85 126.5"/><polygon class="cls-43" points="242.85 131.41 242.85 132.57 256.73 140.58 256.73 139.42 242.85 131.41"/><polygon class="cls-43" points="242.85 136.31 242.85 137.48 256.73 145.49 256.73 144.33 242.85 136.31"/><polygon class="cls-43" points="242.85 141.22 242.85 142.39 256.73 150.4 256.73 149.24 242.85 141.22"/><g class="cls-135"><polygon class="cls-136" points="259.7 114.5 264.91 114.5 279.52 106.06 263.62 96.88 259.7 96.88 259.7 114.5"/></g><polygon class="cls-137" points="259.7 113.49 274.08 105.18 259.7 96.88 245.32 105.18 259.7 113.49"/><polygon class="cls-138" points="245.32 105.18 245.32 106.19 259.7 114.5 259.7 113.49 245.32 105.18"/><polygon class="cls-139" points="274.08 105.18 274.08 106.19 259.7 114.5 259.7 113.49 274.08 105.18"/><polygon class="cls-63" points="265.28 105.32 265.92 104.95 265.86 104.65 259.95 101.21 259.13 101.6 259.29 101.86 265.28 105.32"/><polygon class="cls-140" points="259.92 101.49 259.29 101.86 258.88 101.62 259.92 101.02 266.32 104.71 265.91 104.95 259.92 101.49"/><polygon class="cls-63" points="263.34 106.43 263.98 106.06 263.93 105.76 258.02 102.32 257.2 102.72 257.35 102.97 263.34 106.43"/><polygon class="cls-141" points="257.99 102.6 257.35 102.97 256.94 102.73 257.99 102.13 264.39 105.83 263.98 106.06 257.99 102.6"/><polygon class="cls-63" points="261.41 107.54 262.05 107.17 262 106.88 256.09 103.44 255.26 103.83 255.42 104.08 261.41 107.54"/><polygon class="cls-142" points="256.06 103.72 255.42 104.08 255.01 103.85 256.06 103.24 262.46 106.94 262.05 107.17 256.06 103.72"/><polygon class="cls-63" points="259.48 108.66 260.11 108.29 260.06 107.99 254.15 104.55 253.33 104.94 253.49 105.2 259.48 108.66"/><polygon class="cls-143" points="254.12 104.83 253.49 105.2 253.07 104.96 254.12 104.36 260.52 108.05 260.11 108.29 254.12 104.83"/><g class="cls-57"><polygon class="cls-43" points="279.52 143.05 259.7 131.08 259.7 117.51 279.52 106.06 279.52 143.05"/></g><path class="cls-144" d="M260.48,119.48a1.75,1.75,0,0,1,.79-1.36.56.56,0,0,1,.56-.06h0l.56.33h-.34a.91.91,0,0,1,0,.17,1.74,1.74,0,0,1-.79,1.37.51.51,0,0,1-.17.07l.17.3-.55-.32h0A.54.54,0,0,1,260.48,119.48Z"/><path class="cls-145" d="M261.05,119.81c0,.5.35.71.79.46a1.77,1.77,0,0,0,.78-1.37c0-.5-.35-.71-.78-.46A1.76,1.76,0,0,0,261.05,119.81Z"/><path class="cls-63" d="M261.38,119.62c0,.29.2.4.46.26a1,1,0,0,0,.45-.79c0-.29-.2-.4-.45-.26A1,1,0,0,0,261.38,119.62Z"/><path class="cls-146" d="M277.11,109.27a1.73,1.73,0,0,1,.79-1.37.53.53,0,0,1,.56-.05h0l.56.32h-.35a1,1,0,0,1,0,.18,1.75,1.75,0,0,1-.79,1.36.85.85,0,0,1-.17.08l.16.3-.55-.32h0A.56.56,0,0,1,277.11,109.27Z"/><path class="cls-147" d="M277.67,109.6c0,.5.36.7.79.45a1.73,1.73,0,0,0,.79-1.37c0-.5-.35-.7-.79-.45A1.75,1.75,0,0,0,277.67,109.6Z"/><path class="cls-63" d="M278,109.4c0,.29.2.41.45.26a1,1,0,0,0,.45-.78c0-.29-.2-.41-.45-.26A1,1,0,0,0,278,109.4Z"/><path class="cls-148" d="M260.48,158.83a1.75,1.75,0,0,1,.79-1.37.53.53,0,0,1,.56-.05h0l.56.32-.34,0a.86.86,0,0,1,0,.17,1.72,1.72,0,0,1-.79,1.36.53.53,0,0,1-.17.08l.17.3-.55-.32h0A.54.54,0,0,1,260.48,158.83Z"/><path class="cls-149" d="M261.05,159.16c0,.5.35.7.79.45a1.74,1.74,0,0,0,.78-1.37c0-.5-.35-.7-.78-.45A1.73,1.73,0,0,0,261.05,159.16Z"/><path class="cls-63" d="M261.38,159c0,.29.2.41.46.26a1,1,0,0,0,.45-.78c0-.29-.2-.41-.45-.26A1,1,0,0,0,261.38,159Z"/><path class="cls-150" d="M277.11,148.61a1.72,1.72,0,0,1,.79-1.36.56.56,0,0,1,.56-.06h0l.56.33h-.35a.88.88,0,0,1,0,.17,1.79,1.79,0,0,1-.79,1.37l-.17.07.16.3-.55-.32h0A.56.56,0,0,1,277.11,148.61Z"/><path class="cls-151" d="M277.67,148.94c0,.5.36.71.79.46a1.76,1.76,0,0,0,.79-1.37c0-.5-.35-.71-.79-.46A1.79,1.79,0,0,0,277.67,148.94Z"/><path class="cls-63" d="M278,148.75c0,.29.2.4.45.26a1,1,0,0,0,.45-.79c0-.29-.2-.4-.45-.26A1,1,0,0,0,278,148.75Z"/><polygon class="cls-51" points="295.09 138.17 314.91 126.72 295.09 115.28 275.27 126.72 295.09 138.17"/><path class="cls-152" d="M294.3,191.84l-21.69-12.52a.79.79,0,0,1-.39-.68.78.78,0,0,1,.39-.68l21.69-12.52a1.59,1.59,0,0,1,1.58,0L317.57,178a.78.78,0,0,1,.39.68.79.79,0,0,1-.39.68l-21.69,12.52a1.59,1.59,0,0,1-1.58,0Zm.29-25.91L272.9,178.45a.21.21,0,0,0-.11.19.2.2,0,0,0,.11.18l21.69,12.52a1,1,0,0,0,1,0l21.69-12.52a.2.2,0,0,0,.11-.18.21.21,0,0,0-.11-.19l-21.69-12.52a1,1,0,0,0-1,0Z"/><g class="cls-53"><polygon class="cls-54" points="295.09 188.34 311.89 178.64 295.09 168.94 278.29 178.64 295.09 188.34"/></g><polygon class="cls-55" points="295.09 182.1 314.91 170.66 295.09 159.21 275.27 170.66 295.09 182.1"/><polygon class="cls-153" points="275.27 126.72 275.27 170.66 295.09 182.1 295.09 138.17 275.27 126.72"/><polygon class="cls-54" points="314.91 126.72 314.91 170.66 295.09 182.1 295.09 138.17 314.91 126.72"/><g class="cls-57"><polygon class="cls-43" points="313.57 129.64 313.57 169.13 296.43 179.02 296.43 139.53 313.57 129.64"/></g><polygon class="cls-43" points="278.24 137.34 278.24 138.5 292.12 146.51 292.12 145.35 278.24 137.34"/><polygon class="cls-43" points="278.24 142.25 278.24 143.41 292.12 151.42 292.12 150.26 278.24 142.25"/><polygon class="cls-43" points="278.24 147.16 278.24 148.32 292.12 156.33 292.12 155.17 278.24 147.16"/><polygon class="cls-43" points="278.24 152.07 278.24 153.23 292.12 161.24 292.12 160.08 278.24 152.07"/><polygon class="cls-43" points="278.24 156.98 278.24 158.14 292.12 166.15 292.12 164.99 278.24 156.98"/><polygon class="cls-43" points="278.24 161.89 278.24 163.05 292.12 171.06 292.12 169.9 278.24 161.89"/><g class="cls-154"><polygon class="cls-155" points="295.09 135.16 300.3 135.16 314.91 126.72 299.01 117.54 295.09 117.54 295.09 135.16"/></g><polygon class="cls-156" points="295.09 134.15 309.47 125.85 295.09 117.54 280.71 125.85 295.09 134.15"/><polygon class="cls-157" points="280.71 125.85 280.71 126.86 295.09 135.16 295.09 134.15 280.71 125.85"/><polygon class="cls-158" points="309.47 125.85 309.47 126.86 295.09 135.16 295.09 134.15 309.47 125.85"/><polygon class="cls-63" points="300.67 125.98 301.31 125.61 301.25 125.31 295.34 121.88 294.52 122.27 294.68 122.52 300.67 125.98"/><polygon class="cls-159" points="295.31 122.15 294.68 122.52 294.27 122.28 295.31 121.68 301.71 125.38 301.3 125.61 295.31 122.15"/><polygon class="cls-63" points="298.74 127.09 299.37 126.73 299.32 126.43 293.41 122.99 292.59 123.38 292.74 123.63 298.74 127.09"/><polygon class="cls-160" points="293.38 123.27 292.74 123.63 292.33 123.4 293.38 122.79 299.78 126.49 299.37 126.73 293.38 123.27"/><polygon class="cls-63" points="296.8 128.21 297.44 127.84 297.39 127.54 291.48 124.1 290.66 124.49 290.81 124.75 296.8 128.21"/><polygon class="cls-161" points="291.44 124.38 290.81 124.75 290.4 124.51 291.44 123.91 297.85 127.6 297.44 127.84 291.44 124.38"/><polygon class="cls-63" points="294.87 129.32 295.5 128.95 295.45 128.65 289.54 125.21 288.72 125.61 288.88 125.86 294.87 129.32"/><polygon class="cls-162" points="289.51 125.49 288.88 125.86 288.46 125.62 289.51 125.02 295.91 128.72 295.5 128.95 289.51 125.49"/><g class="cls-57"><polygon class="cls-43" points="314.91 163.72 295.09 151.75 295.09 138.17 314.91 126.72 314.91 163.72"/></g><path class="cls-163" d="M295.88,140.15a1.74,1.74,0,0,1,.78-1.37.53.53,0,0,1,.56-.05h0l.56.32h-.34a1,1,0,0,1,0,.17,1.73,1.73,0,0,1-.79,1.37l-.17.08.17.3-.55-.32h0A.54.54,0,0,1,295.88,140.15Z"/><path class="cls-164" d="M296.44,140.47c0,.51.35.71.79.46a1.74,1.74,0,0,0,.78-1.37c0-.5-.35-.7-.78-.45A1.72,1.72,0,0,0,296.44,140.47Z"/><path class="cls-63" d="M296.77,140.28c0,.29.21.41.46.26a1,1,0,0,0,.45-.78c0-.29-.2-.41-.45-.26A1,1,0,0,0,296.77,140.28Z"/><path class="cls-165" d="M312.5,129.93a1.76,1.76,0,0,1,.79-1.37.58.58,0,0,1,.56-.05h0l.56.33h-.35a.88.88,0,0,1,0,.17,1.76,1.76,0,0,1-.79,1.37l-.17.07.16.3-.55-.32h0A.56.56,0,0,1,312.5,129.93Z"/><path class="cls-166" d="M313.06,130.26c0,.5.36.71.79.45a1.72,1.72,0,0,0,.79-1.36c0-.5-.35-.71-.79-.46A1.77,1.77,0,0,0,313.06,130.26Z"/><path class="cls-63" d="M313.4,130.07c0,.29.2.4.45.26a1,1,0,0,0,.46-.79c0-.29-.21-.4-.46-.26A1,1,0,0,0,313.4,130.07Z"/><path class="cls-167" d="M295.88,179.49a1.77,1.77,0,0,1,.78-1.37.58.58,0,0,1,.56-.05h0l.56.33h-.34a.91.91,0,0,1,0,.17,1.76,1.76,0,0,1-.79,1.37l-.17.07.17.3-.55-.32h0A.54.54,0,0,1,295.88,179.49Z"/><path class="cls-168" d="M296.44,179.82c0,.5.35.71.79.45a1.74,1.74,0,0,0,.78-1.36c0-.5-.35-.71-.78-.46A1.74,1.74,0,0,0,296.44,179.82Z"/><path class="cls-63" d="M296.77,179.63c0,.29.21.4.46.26a1,1,0,0,0,.45-.79c0-.29-.2-.4-.45-.26A1,1,0,0,0,296.77,179.63Z"/><path class="cls-169" d="M312.5,169.28a1.73,1.73,0,0,1,.79-1.37.53.53,0,0,1,.56,0h0l.56.32h-.35a1,1,0,0,1,0,.17,1.73,1.73,0,0,1-.79,1.37l-.17.08.16.3-.55-.32h0A.56.56,0,0,1,312.5,169.28Z"/><path class="cls-170" d="M313.06,169.6c0,.51.36.71.79.46a1.73,1.73,0,0,0,.79-1.37c0-.5-.35-.7-.79-.45A1.75,1.75,0,0,0,313.06,169.6Z"/><path class="cls-63" d="M313.4,169.41c0,.29.2.41.45.26a1,1,0,0,0,.46-.78.28.28,0,0,0-.46-.27A1,1,0,0,0,313.4,169.41Z"/><polygon class="cls-171" points="308.06 142.13 312.43 139.61 312.43 138.65 308.06 141.17 308.06 142.13"/><polygon class="cls-171" points="305.82 143.43 307.39 142.52 307.39 141.56 305.82 142.47 305.82 143.43"/><polygon class="cls-171" points="304.08 144.43 305.15 143.81 305.15 142.85 304.08 143.47 304.08 144.43"/><polygon class="cls-171" points="310.05 143.18 312.43 141.8 312.43 140.84 310.05 142.22 310.05 143.18"/><polygon class="cls-171" points="306.46 145.25 309.38 143.56 309.38 142.6 306.46 144.29 306.46 145.25"/><polygon class="cls-171" points="304.73 146.25 305.8 145.63 305.8 144.67 304.73 145.29 304.73 146.25"/><polygon class="cls-171" points="303.08 147.2 304.15 146.58 304.15 145.63 303.08 146.24 303.08 147.2"/><polygon class="cls-171" points="310.71 144.99 312.43 143.99 312.43 143.03 310.71 144.03 310.71 144.99"/><polygon class="cls-171" points="309.45 145.71 310.04 145.37 310.04 144.41 309.45 144.75 309.45 145.71"/><polygon class="cls-171" points="307.72 146.72 308.79 146.1 308.79 145.14 307.72 145.75 307.72 146.72"/><polygon class="cls-171" points="306.07 149.85 312.43 146.18 312.43 145.22 306.07 148.9 306.07 149.85"/><polygon class="cls-171" points="303.83 151.15 305.41 150.24 305.41 149.28 303.83 150.19 303.83 151.15"/><polygon class="cls-171" points="310.71 149.37 312.43 148.38 312.43 147.42 310.71 148.41 310.71 149.37"/><polygon class="cls-171" points="306.67 151.71 310.04 149.76 310.04 148.8 306.67 150.75 306.67 151.71"/><polygon class="cls-171" points="304.93 152.71 306 152.09 306 151.13 304.93 151.75 304.93 152.71"/><polygon class="cls-171" points="308.91 152.6 312.43 150.57 312.43 149.61 308.91 151.64 308.91 152.6"/><polygon class="cls-171" points="305.69 154.46 308.24 152.99 308.24 152.03 305.69 153.5 305.69 154.46"/><polygon class="cls-171" points="303.3 155.84 305.02 154.84 305.02 153.89 303.3 154.88 303.3 155.84"/><polygon class="cls-171" points="311.24 153.45 312.43 152.76 312.43 151.8 311.24 152.49 311.24 153.45"/><polygon class="cls-171" points="309 154.74 310.57 153.83 310.57 152.87 309 153.78 309 154.74"/><polygon class="cls-171" points="305.8 156.59 308.33 155.13 308.33 154.17 305.8 155.63 305.8 156.59"/><polygon class="cls-171" points="308.79 157.06 312.43 154.95 312.43 153.99 308.79 156.1 308.79 157.06"/><polygon class="cls-171" points="304.7 159.41 308.12 157.44 308.12 156.48 304.7 158.46 304.7 159.41"/><polygon class="cls-171" points="302.96 160.42 304.03 159.8 304.03 158.84 302.96 159.46 302.96 160.42"/><polygon class="cls-171" points="301.3 161.38 302.37 160.76 302.37 159.8 301.3 160.42 301.3 161.38"/><polygon class="cls-171" points="310.25 158.41 312.43 157.14 312.43 156.18 310.25 157.45 310.25 158.41"/><polygon class="cls-171" points="301.11 146.15 298.08 147.89 298.08 146.94 301.11 145.19 301.11 146.15"/><polygon class="cls-171" points="300.46 148.71 298.08 150.09 298.08 149.13 300.46 147.75 300.46 148.71"/><polygon class="cls-171" points="299.8 151.28 298.08 152.28 298.08 151.32 299.8 150.32 299.8 151.28"/><polygon class="cls-171" points="300.59 153.02 298.08 154.47 298.08 153.51 300.59 152.06 300.59 153.02"/><polygon class="cls-171" points="299.8 155.67 298.08 156.66 298.08 155.7 299.8 154.71 299.8 155.67"/><polygon class="cls-171" points="300.26 157.59 298.08 158.85 298.08 157.89 300.26 156.63 300.26 157.59"/><polygon class="cls-171" points="299.27 160.36 298.08 161.04 298.08 160.09 299.27 159.4 299.27 160.36"/><polygon class="cls-171" points="300.39 161.91 298.08 163.24 298.08 162.28 300.39 160.95 300.39 161.91"/><polygon class="cls-171" points="300.26 164.17 298.08 165.43 298.08 164.47 300.26 163.21 300.26 164.17"/><polygon class="cls-171" points="308.65 159.33 309.58 158.79 309.58 157.83 308.65 158.37 308.65 159.33"/><polygon class="cls-171" points="305.89 160.92 307.98 159.71 307.98 158.75 305.89 159.96 305.89 160.92"/><polygon class="cls-171" points="304.16 168.29 307.69 166.25 307.69 165.3 304.16 167.33 304.16 168.29"/><polygon class="cls-171" points="301.74 169.69 303.13 168.89 303.13 167.93 301.74 168.73 301.74 169.69"/><path class="cls-172" d="M113,201.37a4.7,4.7,0,0,1-2.33-.62l-8.72-5,.54-.92,8.71,5a3.65,3.65,0,0,0,3.59,0l22.92-13.24.54.93-22.93,13.23A4.66,4.66,0,0,1,113,201.37Z"/><path class="cls-173" d="M79.5,208.07a6.56,6.56,0,0,1-3.27-.87L5.62,166.44a1.51,1.51,0,0,1-.74-1.3,1.47,1.47,0,0,1,.74-1.28l44.14-25.49.27.15L123.64,181a1.48,1.48,0,0,1,0,2.58L82.77,207.2A6.56,6.56,0,0,1,79.5,208.07ZM49.76,139.6,6.16,164.78a.41.41,0,0,0,0,.73l70.61,40.77a5.49,5.49,0,0,0,5.46,0l40.88-23.6a.42.42,0,0,0,0-.73Z"/><path class="cls-174" d="M49.67,121.35,59.51,63l-.79-.34L59.91,62h0a.87.87,0,0,1,.91.06l78.62,45.39a2.24,2.24,0,0,1,1,2l-9.92,58.82a.73.73,0,0,1-.41.6h0l-1.16.68-.2-1.09.06,0L50.69,123.35A2.25,2.25,0,0,1,49.67,121.35Z"/><path class="cls-175" d="M139,109l1.29-.57a1.73,1.73,0,0,1,.17,1l-9.92,58.82a.73.73,0,0,1-.41.6h0l-1.16.68-.2-1.09.06,0-4-2.28Z"/><path class="cls-54" d="M49.46,124.05l78.62,45.39c.6.35,1.12.15,1.23-.48l9.92-58.82a2.24,2.24,0,0,0-1-2L59.59,62.75c-.61-.35-1.13-.15-1.24.48l-9.91,58.83A2.21,2.21,0,0,0,49.46,124.05Z"/><g class="cls-57"><polygon class="cls-43" points="60.62 66.5 136.4 110.26 127 165.66 51.27 121.94 60.62 66.5"/></g><path class="cls-176" d="M0,151.9l4.29,2.24,43-24.83a3.11,3.11,0,0,1,2.81.11l74.2,42.84c.71-.4,4-1.95,4-1.95l-1.57,4.09h0a.86.86,0,0,1-.44.49L81,201a3.11,3.11,0,0,1-2.81-.12L2.24,157.09a1.34,1.34,0,0,1-.63-.68h0Z"/><path class="cls-177" d="M.7,152.61l77.82,44.93a3.23,3.23,0,0,0,2.88.12l46.44-26.81c.73-.43.64-1.17-.21-1.67L49.81,124.26a3.16,3.16,0,0,0-2.88-.12L.5,151C-.24,151.37-.15,152.12.7,152.61Z"/><path class="cls-55" d="M127.84,170.17,81.4,197a3.16,3.16,0,0,1-2.88-.12L.7,151.94a1.59,1.59,0,0,1-.61-.6c-.23.41,0,.91.61,1.27l77.82,44.93a3.23,3.23,0,0,0,2.88.12l46.44-26.81a.77.77,0,0,0,.4-1.07A1,1,0,0,1,127.84,170.17Z"/><path class="cls-178" d="M102,187.82V187c0-.08,0-.11-.11-.08l-3,1.74a.26.26,0,0,0-.11.21v.85c0,.08,0,.12.11.09l3-1.74A.25.25,0,0,0,102,187.82Z"/><path class="cls-178" d="M97.49,190.42v-.86c0-.08,0-.12-.11-.08l-3,1.74a.26.26,0,0,0-.11.21v.85c0,.08,0,.12.11.08l3-1.73A.27.27,0,0,0,97.49,190.42Z"/><path class="cls-179" d="M115.73,168.33,51.06,131a1.38,1.38,0,0,0-1.39,0l-23,13.32a.5.5,0,0,0,0,.86L91.28,182.5a1.38,1.38,0,0,0,1.39,0l23.06-13.31A.5.5,0,0,0,115.73,168.33Z"/><path class="cls-180" d="M115.73,169.19l-.23.14-64.44-37.2a1.38,1.38,0,0,0-1.39,0l-22.8,13.19-.23-.14a.5.5,0,0,1,0-.86l23-13.32a1.38,1.38,0,0,1,1.39,0l64.67,37.33A.5.5,0,0,1,115.73,169.19Z"/><polygon class="cls-54" points="47.93 134.37 104.11 166.81 106.6 165.36 50.43 132.93 47.93 134.37"/><polygon class="cls-54" points="41.81 137.91 94.5 168.33 97 166.89 44.31 136.47 41.81 137.91"/><polygon class="cls-54" points="37.82 140.21 99.86 176.03 102.35 174.59 40.32 138.77 37.82 140.21"/><polygon class="cls-54" points="33.83 142.51 95.87 178.33 98.36 176.89 36.33 141.07 33.83 142.51"/><polygon class="cls-54" points="29.84 144.82 91.88 180.63 94.38 179.19 32.34 143.38 29.84 144.82"/><polygon class="cls-54" points="107.5 168.76 110 170.21 112.49 168.76 110 167.32 107.5 168.76"/><polygon class="cls-54" points="98.69 170.75 103.87 173.74 106.37 172.3 101.19 169.31 98.69 170.75"/><path class="cls-181" d="M48.57,177.37,31.14,167.3a.75.75,0,0,1,0-1.42L43.06,159a2.75,2.75,0,0,1,2.47,0L63,169.06a.76.76,0,0,1,0,1.43L51,177.37A2.75,2.75,0,0,1,48.57,177.37Z"/><path class="cls-180" d="M63,169.64,45.53,159.58a2.69,2.69,0,0,0-2.47,0l-11.92,6.88a1.09,1.09,0,0,0-.43.42c-.18-.34,0-.73.43-1L43.06,159a2.75,2.75,0,0,1,2.47,0L63,169.06c.47.27.6.66.42,1A1.05,1.05,0,0,0,63,169.64Z"/><g class="cls-182"><g class="cls-183"><path class="cls-184" d="M49.74,124.16l77.81,44.93a3.2,3.2,0,0,0,2.88.12l46.44-26.81c.74-.43.64-1.17-.21-1.66L98.84,95.81A3.21,3.21,0,0,0,96,95.69L49.53,122.5C48.79,122.93,48.88,123.67,49.74,124.16Z"/><path class="cls-185" d="M127.79,132.22l-17.44-10.07a.75.75,0,0,1,0-1.42l11.92-6.89a2.75,2.75,0,0,1,2.47,0l17.44,10.07a.75.75,0,0,1,0,1.42l-11.93,6.89A2.73,2.73,0,0,1,127.79,132.22Z"/><path class="cls-180" d="M142.18,124.49l-17.44-10.06a2.69,2.69,0,0,0-2.47,0l-11.92,6.88a1.09,1.09,0,0,0-.43.42c-.18-.34,0-.73.43-1l11.92-6.89a2.75,2.75,0,0,1,2.47,0l17.44,10.07c.47.27.61.66.43,1A1.16,1.16,0,0,0,142.18,124.49Z"/><path class="cls-179" d="M149.84,148,85.18,110.62a1.4,1.4,0,0,0-1.4,0l-23,13.32a.5.5,0,0,0,0,.86l64.64,37.32a1.41,1.41,0,0,0,1.39,0l23.06-13.31A.5.5,0,0,0,149.84,148Z"/><path class="cls-180" d="M149.84,148.81l-.23.13-64.43-37.2a1.4,1.4,0,0,0-1.4,0L61,124.93l-.24-.13a.5.5,0,0,1,0-.86l23-13.32a1.43,1.43,0,0,1,1.4,0L149.84,148A.5.5,0,0,1,149.84,148.81Z"/><polygon class="cls-54" points="66.78 123.03 123.12 155.56 120.89 156.84 64.55 124.32 66.78 123.03"/><polygon class="cls-54" points="72.72 119.6 126.26 150.52 124.03 151.81 70.48 120.89 72.72 119.6"/><polygon class="cls-54" points="130.26 152.83 135.26 155.71 133.03 157 128.03 154.12 130.26 152.83"/><polygon class="cls-54" points="125.84 157.13 129.33 159.14 127.09 160.43 123.61 158.42 125.84 157.13"/><polygon class="cls-54" points="76.44 117.46 138.98 153.57 136.75 154.85 74.2 118.74 76.44 117.46"/><polygon class="cls-54" points="80.16 115.31 142.7 151.42 140.47 152.71 77.92 116.6 80.16 115.31"/><polygon class="cls-54" points="83.88 113.16 146.42 149.27 144.19 150.56 81.64 114.45 83.88 113.16"/></g></g></svg>