<svg id="Ñëîé_1" data-name="Ñëîé 1" xmlns="http://www.w3.org/2000/svg" xmlns:xlink="http://www.w3.org/1999/xlink" viewBox="0 0 600.28 450"><defs><style>.cls-1{mask:url(#mask);}.cls-10,.cls-12,.cls-14,.cls-16,.cls-18,.cls-2,.cls-20,.cls-22,.cls-24,.cls-4,.cls-6,.cls-8{mix-blend-mode:multiply;}.cls-2{fill:url(#Áåçûìÿííûé_ãðàäèåíò_87);}.cls-3{mask:url(#mask-2);}.cls-4{fill:url(#Áåçûìÿííûé_ãðàäèåíò_82);}.cls-5{mask:url(#mask-3);}.cls-6{fill:url(#Áåçûìÿííûé_ãðàäèåíò_81);}.cls-7{mask:url(#mask-4);}.cls-8{fill:url(#Áåçûìÿííûé_ãðàäèåíò_80);}.cls-9{mask:url(#mask-5);}.cls-10{fill:url(#Áåçûìÿííûé_ãðàäèåíò_79);}.cls-11{mask:url(#mask-6);}.cls-12{fill:url(#Áåçûìÿííûé_ãðàäèåíò_78);}.cls-13{mask:url(#mask-7);}.cls-14{fill:url(#Áåçûìÿííûé_ãðàäèåíò_86);}.cls-15{mask:url(#mask-8);}.cls-16{fill:url(#Áåçûìÿííûé_ãðàäèåíò_77);}.cls-17{mask:url(#mask-9);}.cls-18{fill:url(#Áåçûìÿííûé_ãðàäèåíò_76);}.cls-19{mask:url(#mask-10);}.cls-20{fill:url(#Áåçûìÿííûé_ãðàäèåíò_85);}.cls-21{mask:url(#mask-11);}.cls-22{fill:url(#Áåçûìÿííûé_ãðàäèåíò_84);}.cls-23{mask:url(#mask-12);}.cls-24{fill:url(#Áåçûìÿííûé_ãðàäèåíò_83);}.cls-25{fill:none;}.cls-26{fill:#111b33;}.cls-27{fill:url(#Áåçûìÿííûé_ãðàäèåíò_20);}.cls-28{fill:url(#Áåçûìÿííûé_ãðàäèåíò_20-2);}.cls-29{fill:url(#Áåçûìÿííûé_ãðàäèåíò_20-3);}.cls-30{mask:url(#mask-13);}.cls-31,.cls-33,.cls-35,.cls-37,.cls-39,.cls-41{opacity:0.66;}.cls-31{fill:url(#Áåçûìÿííûé_ãðàäèåíò_32);}.cls-32{mask:url(#mask-14);}.cls-33{fill:url(#Áåçûìÿííûé_ãðàäèåíò_32-2);}.cls-34{mask:url(#mask-15);}.cls-35{fill:url(#Áåçûìÿííûé_ãðàäèåíò_32-3);}.cls-36{mask:url(#mask-16);}.cls-37{fill:url(#Áåçûìÿííûé_ãðàäèåíò_32-4);}.cls-38{mask:url(#mask-17);}.cls-39{fill:url(#Áåçûìÿííûé_ãðàäèåíò_32-5);}.cls-40{mask:url(#mask-18);}.cls-41{fill:url(#Áåçûìÿííûé_ãðàäèåíò_32-6);}.cls-42{fill:url(#Áåçûìÿííûé_ãðàäèåíò_21);}.cls-43{fill:url(#Áåçûìÿííûé_ãðàäèåíò_20-4);}.cls-44{fill:#4553c7;}.cls-45{fill:url(#Áåçûìÿííûé_ãðàäèåíò_28);}.cls-46{fill:url(#Áåçûìÿííûé_ãðàäèåíò_26);}.cls-47{fill:url(#Áåçûìÿííûé_ãðàäèåíò_23);}.cls-48{fill:url(#Áåçûìÿííûé_ãðàäèåíò_20-5);}.cls-49{fill:url(#Áåçûìÿííûé_ãðàäèåíò_20-6);}.cls-50{fill:url(#Áåçûìÿííûé_ãðàäèåíò_20-7);}.cls-51{fill:url(#Áåçûìÿííûé_ãðàäèåíò_20-8);}.cls-52{fill:#bcd5ff;}.cls-53{fill:url(#Áåçûìÿííûé_ãðàäèåíò_21-2);}.cls-54{opacity:0.67;}.cls-55{fill:#242993;}.cls-56{fill:#fff;}.cls-57{fill:url(#Áåçûìÿííûé_ãðàäèåíò_28-2);}.cls-58{opacity:0.51;}.cls-59{mask:url(#mask-19);}.cls-118,.cls-137,.cls-156,.cls-60,.cls-80,.cls-99{opacity:0.78;}.cls-60{fill:url(#Áåçûìÿííûé_ãðàäèåíò_31);}.cls-61{fill:url(#Áåçûìÿííûé_ãðàäèåíò_28-3);}.cls-62{fill:url(#Áåçûìÿííûé_ãðàäèåíò_28-4);}.cls-63{fill:url(#Áåçûìÿííûé_ãðàäèåíò_29);}.cls-64{fill:#3f38fc;}.cls-65{fill:url(#Áåçûìÿííûé_ãðàäèåíò_29-2);}.cls-66{fill:url(#Áåçûìÿííûé_ãðàäèåíò_29-3);}.cls-67{fill:url(#Áåçûìÿííûé_ãðàäèåíò_29-4);}.cls-68{fill:url(#Áåçûìÿííûé_ãðàäèåíò_29-5);}.cls-69{fill:url(#Áåçûìÿííûé_ãðàäèåíò_28-5);}.cls-70{fill:url(#Áåçûìÿííûé_ãðàäèåíò_29-6);}.cls-71{fill:url(#Áåçûìÿííûé_ãðàäèåíò_28-6);}.cls-72{fill:url(#Áåçûìÿííûé_ãðàäèåíò_29-7);}.cls-73{fill:url(#Áåçûìÿííûé_ãðàäèåíò_28-7);}.cls-74{fill:url(#Áåçûìÿííûé_ãðàäèåíò_29-8);}.cls-75{fill:url(#Áåçûìÿííûé_ãðàäèåíò_28-8);}.cls-76{fill:url(#Áåçûìÿííûé_ãðàäèåíò_29-9);}.cls-77{fill:url(#Áåçûìÿííûé_ãðàäèåíò_21-3);}.cls-78{fill:url(#Áåçûìÿííûé_ãðàäèåíò_28-9);}.cls-79{mask:url(#mask-20);}.cls-80{fill:url(#Áåçûìÿííûé_ãðàäèåíò_31-2);}.cls-81{fill:url(#Áåçûìÿííûé_ãðàäèåíò_28-10);}.cls-82{fill:url(#Áåçûìÿííûé_ãðàäèåíò_28-11);}.cls-83{fill:url(#Áåçûìÿííûé_ãðàäèåíò_29-10);}.cls-84{fill:url(#Áåçûìÿííûé_ãðàäèåíò_29-11);}.cls-85{fill:url(#Áåçûìÿííûé_ãðàäèåíò_29-12);}.cls-86{fill:url(#Áåçûìÿííûé_ãðàäèåíò_29-13);}.cls-87{fill:url(#Áåçûìÿííûé_ãðàäèåíò_29-14);}.cls-88{fill:url(#Áåçûìÿííûé_ãðàäèåíò_28-12);}.cls-89{fill:url(#Áåçûìÿííûé_ãðàäèåíò_29-15);}.cls-90{fill:url(#Áåçûìÿííûé_ãðàäèåíò_28-13);}.cls-91{fill:url(#Áåçûìÿííûé_ãðàäèåíò_29-16);}.cls-92{fill:url(#Áåçûìÿííûé_ãðàäèåíò_28-14);}.cls-93{fill:url(#Áåçûìÿííûé_ãðàäèåíò_29-17);}.cls-94{fill:url(#Áåçûìÿííûé_ãðàäèåíò_28-15);}.cls-95{fill:url(#Áåçûìÿííûé_ãðàäèåíò_29-18);}.cls-96{fill:url(#Áåçûìÿííûé_ãðàäèåíò_21-4);}.cls-97{fill:url(#Áåçûìÿííûé_ãðàäèåíò_28-16);}.cls-98{mask:url(#mask-21);}.cls-99{fill:url(#Áåçûìÿííûé_ãðàäèåíò_31-3);}.cls-100{fill:url(#Áåçûìÿííûé_ãðàäèåíò_28-17);}.cls-101{fill:url(#Áåçûìÿííûé_ãðàäèåíò_28-18);}.cls-102{fill:url(#Áåçûìÿííûé_ãðàäèåíò_29-19);}.cls-103{fill:url(#Áåçûìÿííûé_ãðàäèåíò_29-20);}.cls-104{fill:url(#Áåçûìÿííûé_ãðàäèåíò_29-21);}.cls-105{fill:url(#Áåçûìÿííûé_ãðàäèåíò_29-22);}.cls-106{fill:url(#Áåçûìÿííûé_ãðàäèåíò_29-23);}.cls-107{fill:url(#Áåçûìÿííûé_ãðàäèåíò_28-19);}.cls-108{fill:url(#Áåçûìÿííûé_ãðàäèåíò_29-24);}.cls-109{fill:url(#Áåçûìÿííûé_ãðàäèåíò_28-20);}.cls-110{fill:url(#Áåçûìÿííûé_ãðàäèåíò_29-25);}.cls-111{fill:url(#Áåçûìÿííûé_ãðàäèåíò_28-21);}.cls-112{fill:url(#Áåçûìÿííûé_ãðàäèåíò_29-26);}.cls-113{fill:url(#Áåçûìÿííûé_ãðàäèåíò_28-22);}.cls-114{fill:url(#Áåçûìÿííûé_ãðàäèåíò_29-27);}.cls-115{fill:url(#Áåçûìÿííûé_ãðàäèåíò_21-5);}.cls-116{fill:url(#Áåçûìÿííûé_ãðàäèåíò_28-23);}.cls-117{mask:url(#mask-22);}.cls-118{fill:url(#Áåçûìÿííûé_ãðàäèåíò_31-4);}.cls-119{fill:url(#Áåçûìÿííûé_ãðàäèåíò_28-24);}.cls-120{fill:url(#Áåçûìÿííûé_ãðàäèåíò_28-25);}.cls-121{fill:url(#Áåçûìÿííûé_ãðàäèåíò_29-28);}.cls-122{fill:url(#Áåçûìÿííûé_ãðàäèåíò_29-29);}.cls-123{fill:url(#Áåçûìÿííûé_ãðàäèåíò_29-30);}.cls-124{fill:url(#Áåçûìÿííûé_ãðàäèåíò_29-31);}.cls-125{fill:url(#Áåçûìÿííûé_ãðàäèåíò_29-32);}.cls-126{fill:url(#Áåçûìÿííûé_ãðàäèåíò_28-26);}.cls-127{fill:url(#Áåçûìÿííûé_ãðàäèåíò_29-33);}.cls-128{fill:url(#Áåçûìÿííûé_ãðàäèåíò_28-27);}.cls-129{fill:url(#Áåçûìÿííûé_ãðàäèåíò_29-34);}.cls-130{fill:url(#Áåçûìÿííûé_ãðàäèåíò_28-28);}.cls-131{fill:url(#Áåçûìÿííûé_ãðàäèåíò_29-35);}.cls-132{fill:url(#Áåçûìÿííûé_ãðàäèåíò_28-29);}.cls-133{fill:url(#Áåçûìÿííûé_ãðàäèåíò_29-36);}.cls-134{fill:url(#Áåçûìÿííûé_ãðàäèåíò_21-6);}.cls-135{fill:url(#Áåçûìÿííûé_ãðàäèåíò_28-30);}.cls-136{mask:url(#mask-23);}.cls-137{fill:url(#Áåçûìÿííûé_ãðàäèåíò_31-5);}.cls-138{fill:url(#Áåçûìÿííûé_ãðàäèåíò_28-31);}.cls-139{fill:url(#Áåçûìÿííûé_ãðàäèåíò_28-32);}.cls-140{fill:url(#Áåçûìÿííûé_ãðàäèåíò_29-37);}.cls-141{fill:url(#Áåçûìÿííûé_ãðàäèåíò_29-38);}.cls-142{fill:url(#Áåçûìÿííûé_ãðàäèåíò_29-39);}.cls-143{fill:url(#Áåçûìÿííûé_ãðàäèåíò_29-40);}.cls-144{fill:url(#Áåçûìÿííûé_ãðàäèåíò_29-41);}.cls-145{fill:url(#Áåçûìÿííûé_ãðàäèåíò_28-33);}.cls-146{fill:url(#Áåçûìÿííûé_ãðàäèåíò_29-42);}.cls-147{fill:url(#Áåçûìÿííûé_ãðàäèåíò_28-34);}.cls-148{fill:url(#Áåçûìÿííûé_ãðàäèåíò_29-43);}.cls-149{fill:url(#Áåçûìÿííûé_ãðàäèåíò_28-35);}.cls-150{fill:url(#Áåçûìÿííûé_ãðàäèåíò_29-44);}.cls-151{fill:url(#Áåçûìÿííûé_ãðàäèåíò_28-36);}.cls-152{fill:url(#Áåçûìÿííûé_ãðàäèåíò_29-45);}.cls-153{fill:url(#Áåçûìÿííûé_ãðàäèåíò_21-7);}.cls-154{fill:url(#Áåçûìÿííûé_ãðàäèåíò_28-37);}.cls-155{mask:url(#mask-24);}.cls-156{fill:url(#Áåçûìÿííûé_ãðàäèåíò_31-6);}.cls-157{fill:url(#Áåçûìÿííûé_ãðàäèåíò_28-38);}.cls-158{fill:url(#Áåçûìÿííûé_ãðàäèåíò_28-39);}.cls-159{fill:url(#Áåçûìÿííûé_ãðàäèåíò_29-46);}.cls-160{fill:url(#Áåçûìÿííûé_ãðàäèåíò_29-47);}.cls-161{fill:url(#Áåçûìÿííûé_ãðàäèåíò_29-48);}.cls-162{fill:url(#Áåçûìÿííûé_ãðàäèåíò_29-49);}.cls-163{fill:url(#Áåçûìÿííûé_ãðàäèåíò_29-50);}.cls-164{fill:url(#Áåçûìÿííûé_ãðàäèåíò_28-40);}.cls-165{fill:url(#Áåçûìÿííûé_ãðàäèåíò_29-51);}.cls-166{fill:url(#Áåçûìÿííûé_ãðàäèåíò_28-41);}.cls-167{fill:url(#Áåçûìÿííûé_ãðàäèåíò_29-52);}.cls-168{fill:url(#Áåçûìÿííûé_ãðàäèåíò_28-42);}.cls-169{fill:url(#Áåçûìÿííûé_ãðàäèåíò_29-53);}.cls-170{fill:url(#Áåçûìÿííûé_ãðàäèåíò_28-43);}.cls-171{fill:url(#Áåçûìÿííûé_ãðàäèåíò_29-54);}.cls-172{fill:#42ffff;}.cls-173{fill:url(#Áåçûìÿííûé_ãðàäèåíò_20-9);}.cls-174{fill:url(#Áåçûìÿííûé_ãðàäèåíò_20-10);}.cls-175{fill:url(#Áåçûìÿííûé_ãðàäèåíò_28-44);}.cls-176{fill:url(#Áåçûìÿííûé_ãðàäèåíò_29-55);}.cls-177{fill:url(#Áåçûìÿííûé_ãðàäèåíò_29-56);}.cls-178{fill:url(#Áåçûìÿííûé_ãðàäèåíò_28-45);}.cls-179{fill:#2859cb;}.cls-180{fill:#adc8ff;}.cls-181{fill:#91afff;}.cls-182{fill:url(#Áåçûìÿííûé_ãðàäèåíò_28-46);}.cls-183{opacity:0.11;}.cls-184{clip-path:url(#clip-path);}.cls-185{fill:url(#Áåçûìÿííûé_ãðàäèåíò_28-47);}.cls-186{fill:url(#Áåçûìÿííûé_ãðàäèåíò_28-48);}.cls-187{filter:url(#luminosity-noclip-24);}.cls-188{filter:url(#luminosity-noclip-23);}.cls-189{filter:url(#luminosity-noclip-22);}.cls-190{filter:url(#luminosity-noclip-21);}.cls-191{filter:url(#luminosity-noclip-20);}.cls-192{filter:url(#luminosity-noclip-19);}.cls-193{filter:url(#luminosity-noclip-18);}.cls-194{filter:url(#luminosity-noclip-17);}.cls-195{filter:url(#luminosity-noclip-16);}.cls-196{filter:url(#luminosity-noclip-15);}.cls-197{filter:url(#luminosity-noclip-14);}.cls-198{filter:url(#luminosity-noclip-13);}.cls-199{filter:url(#luminosity-noclip-12);}.cls-200{filter:url(#luminosity-noclip-11);}.cls-201{filter:url(#luminosity-noclip-10);}.cls-202{filter:url(#luminosity-noclip-9);}.cls-203{filter:url(#luminosity-noclip-8);}.cls-204{filter:url(#luminosity-noclip-7);}.cls-205{filter:url(#luminosity-noclip-6);}.cls-206{filter:url(#luminosity-noclip-5);}.cls-207{filter:url(#luminosity-noclip-4);}.cls-208{filter:url(#luminosity-noclip-3);}.cls-209{filter:url(#luminosity-noclip-2);}.cls-210{filter:url(#luminosity-noclip);}</style><filter id="luminosity-noclip" x="228.51" y="-8294.35" width="6.8" height="32766" filterUnits="userSpaceOnUse" color-interpolation-filters="sRGB"><feFlood flood-color="#fff" result="bg"/><feBlend in="SourceGraphic" in2="bg"/></filter><mask id="mask" x="228.51" y="-8294.35" width="6.8" height="32766" maskUnits="userSpaceOnUse"><g class="cls-210"/></mask><linearGradient id="Áåçûìÿííûé_ãðàäèåíò_87" x1="4638.82" y1="-1211.64" x2="4638.82" y2="-1310.7" gradientTransform="matrix(-0.87, 0.5, 0, 1.15, 4249.13, -796.62)" gradientUnits="userSpaceOnUse"><stop offset="0"/><stop offset="0.06" stop-color="#2a2a2a"/><stop offset="0.15" stop-color="#626262"/><stop offset="0.23" stop-color="#929292"/><stop offset="0.31" stop-color="#b6b6b6"/><stop offset="0.39" stop-color="#d1d1d1"/><stop offset="0.45" stop-color="#e0e0e0"/><stop offset="0.51" stop-color="#e6e6e6"/><stop offset="0.55" stop-color="#dedede"/><stop offset="0.62" stop-color="#c9c9c9"/><stop offset="0.71" stop-color="#a7a7a7"/><stop offset="0.8" stop-color="#787878"/><stop offset="0.91" stop-color="#3b3b3b"/><stop offset="1"/></linearGradient><filter id="luminosity-noclip-2" x="164.78" y="-8294.35" width="6.8" height="32766" filterUnits="userSpaceOnUse" color-interpolation-filters="sRGB"><feFlood flood-color="#fff" result="bg"/><feBlend in="SourceGraphic" in2="bg"/></filter><mask id="mask-2" x="164.78" y="-8294.35" width="6.8" height="32766" maskUnits="userSpaceOnUse"><g class="cls-209"/></mask><linearGradient id="Áåçûìÿííûé_ãðàäèåíò_82" x1="4712.41" y1="-1266.07" x2="4712.41" y2="-1310.7" xlink:href="#Áåçûìÿííûé_ãðàäèåíò_87"/><filter id="luminosity-noclip-3" x="264.39" y="-8294.35" width="19.82" height="32766" filterUnits="userSpaceOnUse" color-interpolation-filters="sRGB"><feFlood flood-color="#fff" result="bg"/><feBlend in="SourceGraphic" in2="bg"/></filter><mask id="mask-3" x="264.39" y="-8294.35" width="19.82" height="32766" maskUnits="userSpaceOnUse"><g class="cls-208"/></mask><linearGradient id="Áåçûìÿííûé_ãðàäèåíò_81" x1="4119.14" y1="61.16" x2="4138.96" y2="61.16" gradientTransform="matrix(-1, 0, 0, 1, 4403.35, 0)" gradientUnits="userSpaceOnUse"><stop offset="0"/><stop offset="0.05" stop-color="#2f2f2f"/><stop offset="0.1" stop-color="#5a5a5a"/><stop offset="0.15" stop-color="#828282"/><stop offset="0.22" stop-color="#a4a4a4"/><stop offset="0.28" stop-color="silver"/><stop offset="0.36" stop-color="#d7d7d7"/><stop offset="0.44" stop-color="#e9e9e9"/><stop offset="0.54" stop-color="#f6f6f6"/><stop offset="0.68" stop-color="#fdfdfd"/><stop offset="1" stop-color="#fff"/></linearGradient><filter id="luminosity-noclip-4" x="299.78" y="-8294.35" width="19.82" height="32766" filterUnits="userSpaceOnUse" color-interpolation-filters="sRGB"><feFlood flood-color="#fff" result="bg"/><feBlend in="SourceGraphic" in2="bg"/></filter><mask id="mask-4" x="299.78" y="-8294.35" width="19.82" height="32766" maskUnits="userSpaceOnUse"><g class="cls-207"/></mask><linearGradient id="Áåçûìÿííûé_ãðàäèåíò_80" x1="4083.75" y1="81.83" x2="4103.57" y2="81.83" xlink:href="#Áåçûìÿííûé_ãðàäèåíò_81"/><filter id="luminosity-noclip-5" x="335.17" y="-8294.35" width="19.82" height="32766" filterUnits="userSpaceOnUse" color-interpolation-filters="sRGB"><feFlood flood-color="#fff" result="bg"/><feBlend in="SourceGraphic" in2="bg"/></filter><mask id="mask-5" x="335.17" y="-8294.35" width="19.82" height="32766" maskUnits="userSpaceOnUse"><g class="cls-206"/></mask><linearGradient id="Áåçûìÿííûé_ãðàäèåíò_79" x1="4048.36" y1="102.49" x2="4068.18" y2="102.49" xlink:href="#Áåçûìÿííûé_ãðàäèåíò_81"/><filter id="luminosity-noclip-6" x="224.31" y="-8294.35" width="19.82" height="32766" filterUnits="userSpaceOnUse" color-interpolation-filters="sRGB"><feFlood flood-color="#fff" result="bg"/><feBlend in="SourceGraphic" in2="bg"/></filter><mask id="mask-6" x="224.31" y="-8294.35" width="19.82" height="32766" maskUnits="userSpaceOnUse"><g class="cls-205"/></mask><linearGradient id="Áåçûìÿííûé_ãðàäèåíò_78" x1="4159.22" y1="85.02" x2="4179.05" y2="85.02" xlink:href="#Áåçûìÿííûé_ãðàäèåíò_81"/><filter id="luminosity-noclip-7" x="215.76" y="-8294.35" width="6.8" height="32766" filterUnits="userSpaceOnUse" color-interpolation-filters="sRGB"><feFlood flood-color="#fff" result="bg"/><feBlend in="SourceGraphic" in2="bg"/></filter><mask id="mask-7" x="215.76" y="-8294.35" width="6.8" height="32766" maskUnits="userSpaceOnUse"><g class="cls-204"/></mask><linearGradient id="Áåçûìÿííûé_ãðàäèåíò_86" x1="4653.54" y1="-1235.36" x2="4653.54" y2="-1286.98" xlink:href="#Áåçûìÿííûé_ãðàäèåíò_87"/><filter id="luminosity-noclip-8" x="259.7" y="-8294.35" width="19.82" height="32766" filterUnits="userSpaceOnUse" color-interpolation-filters="sRGB"><feFlood flood-color="#fff" result="bg"/><feBlend in="SourceGraphic" in2="bg"/></filter><mask id="mask-8" x="259.7" y="-8294.35" width="19.82" height="32766" maskUnits="userSpaceOnUse"><g class="cls-203"/></mask><linearGradient id="Áåçûìÿííûé_ãðàäèåíò_77" x1="4123.83" y1="105.69" x2="4143.65" y2="105.69" xlink:href="#Áåçûìÿííûé_ãðàäèåíò_81"/><filter id="luminosity-noclip-9" x="295.09" y="-8294.35" width="19.82" height="32766" filterUnits="userSpaceOnUse" color-interpolation-filters="sRGB"><feFlood flood-color="#fff" result="bg"/><feBlend in="SourceGraphic" in2="bg"/></filter><mask id="mask-9" x="295.09" y="-8294.35" width="19.82" height="32766" maskUnits="userSpaceOnUse"><g class="cls-202"/></mask><linearGradient id="Áåçûìÿííûé_ãðàäèåíò_76" x1="4088.44" y1="126.35" x2="4108.26" y2="126.35" xlink:href="#Áåçûìÿííûé_ãðàäèåíò_81"/><filter id="luminosity-noclip-10" x="203.02" y="-8294.35" width="6.8" height="32766" filterUnits="userSpaceOnUse" color-interpolation-filters="sRGB"><feFlood flood-color="#fff" result="bg"/><feBlend in="SourceGraphic" in2="bg"/></filter><mask id="mask-10" x="203.02" y="-8294.35" width="6.8" height="32766" maskUnits="userSpaceOnUse"><g class="cls-201"/></mask><linearGradient id="Áåçûìÿííûé_ãðàäèåíò_85" x1="4668.26" y1="-1211.64" x2="4668.26" y2="-1276.37" xlink:href="#Áåçûìÿííûé_ãðàäèåíò_87"/><filter id="luminosity-noclip-11" x="190.27" y="-8294.35" width="6.8" height="32766" filterUnits="userSpaceOnUse" color-interpolation-filters="sRGB"><feFlood flood-color="#fff" result="bg"/><feBlend in="SourceGraphic" in2="bg"/></filter><mask id="mask-11" x="190.27" y="-8294.35" width="6.8" height="32766" maskUnits="userSpaceOnUse"><g class="cls-200"/></mask><linearGradient id="Áåçûìÿííûé_ãðàäèåíò_84" x1="4682.97" y1="-1211.64" x2="4682.97" y2="-1337.45" xlink:href="#Áåçûìÿííûé_ãðàäèåíò_87"/><filter id="luminosity-noclip-12" x="177.53" y="-8294.35" width="6.8" height="32766" filterUnits="userSpaceOnUse" color-interpolation-filters="sRGB"><feFlood flood-color="#fff" result="bg"/><feBlend in="SourceGraphic" in2="bg"/></filter><mask id="mask-12" x="177.53" y="-8294.35" width="6.8" height="32766" maskUnits="userSpaceOnUse"><g class="cls-199"/></mask><linearGradient id="Áåçûìÿííûé_ãðàäèåíò_83" x1="4697.69" y1="-1211.64" x2="4697.69" y2="-1318.57" xlink:href="#Áåçûìÿííûé_ãðàäèåíò_87"/><linearGradient id="Áåçûìÿííûé_ãðàäèåíò_20" x1="2960.08" y1="-2338.75" x2="2990.89" y2="-2338.75" gradientTransform="matrix(-0.87, 0.5, 1, 0.58, 5099.54, 51.65)" gradientUnits="userSpaceOnUse"><stop offset="0" stop-color="#42ffff"/><stop offset="0.15" stop-color="#43faff"/><stop offset="0.33" stop-color="#45ecff"/><stop offset="0.52" stop-color="#49d4ff"/><stop offset="0.72" stop-color="#4eb3ff"/><stop offset="0.93" stop-color="#5489ff"/><stop offset="1" stop-color="#5778ff"/></linearGradient><linearGradient id="Áåçûìÿííûé_ãðàäèåíò_20-2" x1="4264.34" y1="189.58" x2="4250.87" y2="175.13" gradientTransform="matrix(-1, 0, 0, 1, 4403.35, 0)" xlink:href="#Áåçûìÿííûé_ãðàäèåíò_20"/><linearGradient id="Áåçûìÿííûé_ãðàäèåíò_20-3" x1="4267.17" y1="192.62" x2="4248.04" y2="172.1" gradientTransform="matrix(-1, 0, 0, 1, 4403.35, 0)" xlink:href="#Áåçûìÿííûé_ãðàäèåíò_20"/><filter id="luminosity-noclip-13" x="228.51" y="8.81" width="6.8" height="115.42" filterUnits="userSpaceOnUse" color-interpolation-filters="sRGB"><feFlood flood-color="#fff" result="bg"/><feBlend in="SourceGraphic" in2="bg"/></filter><mask id="mask-13" x="327.21" y="98.64" width="6.8" height="115.42" maskUnits="userSpaceOnUse"><g class="cls-198"><g transform="translate(98.7 89.84)"><g class="cls-1"><path class="cls-2" d="M231.67,9.46l.48-.28c1.74-1,3.16.07,3.16,2.4v106a7.6,7.6,0,0,1-3.16,6l-.48.27c-1.74,1-3.16-.06-3.16-2.39V15.5A7.59,7.59,0,0,1,231.67,9.46Z"/></g></g></g></mask><linearGradient id="Áåçûìÿííûé_ãðàäèåíò_32" x1="4638.82" y1="-1211.64" x2="4638.82" y2="-1310.7" gradientTransform="matrix(-0.87, 0.5, 0, 1.15, 4249.13, -796.62)" gradientUnits="userSpaceOnUse"><stop offset="0" stop-color="#5778ff"/><stop offset="0.01" stop-color="#567cff"/><stop offset="0.13" stop-color="#4fabff"/><stop offset="0.24" stop-color="#49cfff"/><stop offset="0.34" stop-color="#45eaff"/><stop offset="0.43" stop-color="#43f9ff"/><stop offset="0.51" stop-color="#42ffff"/><stop offset="0.57" stop-color="#43f7ff"/><stop offset="0.67" stop-color="#46e3ff"/><stop offset="0.8" stop-color="#4cc0ff"/><stop offset="0.93" stop-color="#5391ff"/><stop offset="1" stop-color="#5778ff"/></linearGradient><filter id="luminosity-noclip-14" x="215.76" y="43.55" width="6.8" height="60.64" filterUnits="userSpaceOnUse" color-interpolation-filters="sRGB"><feFlood flood-color="#fff" result="bg"/><feBlend in="SourceGraphic" in2="bg"/></filter><mask id="mask-14" x="314.46" y="133.39" width="6.8" height="60.64" maskUnits="userSpaceOnUse"><g class="cls-197"><g transform="translate(98.7 89.84)"><g class="cls-13"><path class="cls-14" d="M218.93,44.2l.47-.27c1.75-1,3.16.06,3.16,2.39V97.5a7.56,7.56,0,0,1-3.16,6l-.47.27c-1.75,1-3.17-.06-3.17-2.39V50.25A7.59,7.59,0,0,1,218.93,44.2Z"/></g></g></g></mask><linearGradient id="Áåçûìÿííûé_ãðàäèåíò_32-2" x1="4653.54" y1="-1235.36" x2="4653.54" y2="-1286.98" xlink:href="#Áåçûìÿííûé_ãðàäèåíò_32"/><filter id="luminosity-noclip-15" x="203.02" y="63.17" width="6.8" height="75.77" filterUnits="userSpaceOnUse" color-interpolation-filters="sRGB"><feFlood flood-color="#fff" result="bg"/><feBlend in="SourceGraphic" in2="bg"/></filter><mask id="mask-15" x="301.72" y="153" width="6.8" height="75.77" maskUnits="userSpaceOnUse"><g class="cls-196"><g transform="translate(98.7 89.84)"><g class="cls-19"><path class="cls-20" d="M206.18,63.82l.47-.28c1.75-1,3.17.07,3.17,2.4v66.3a7.59,7.59,0,0,1-3.17,6l-.47.27c-1.75,1-3.16-.06-3.16-2.39V69.86A7.56,7.56,0,0,1,206.18,63.82Z"/></g></g></g></mask><linearGradient id="Áåçûìÿííûé_ãðàäèåíò_32-3" x1="4668.26" y1="-1211.64" x2="4668.26" y2="-1276.37" xlink:href="#Áåçûìÿííûé_ãðàäèåíò_32"/><filter id="luminosity-noclip-16" x="190.27" y="0" width="6.8" height="146.3" filterUnits="userSpaceOnUse" color-interpolation-filters="sRGB"><feFlood flood-color="#fff" result="bg"/><feBlend in="SourceGraphic" in2="bg"/></filter><mask id="mask-16" x="288.97" y="89.84" width="6.8" height="146.3" maskUnits="userSpaceOnUse"><g class="cls-195"><g transform="translate(98.7 89.84)"><g class="cls-21"><path class="cls-22" d="M193.44.65l.47-.27c1.74-1,3.16.06,3.16,2.39V139.6a7.6,7.6,0,0,1-3.16,6.05l-.47.27c-1.75,1-3.17-.06-3.17-2.39V6.7A7.59,7.59,0,0,1,193.44.65Z"/></g></g></g></mask><linearGradient id="Áåçûìÿííûé_ãðàäèåíò_32-4" x1="4682.97" y1="-1211.64" x2="4682.97" y2="-1337.45" xlink:href="#Áåçûìÿííûé_ãðàäèåíò_32"/><filter id="luminosity-noclip-17" x="177.53" y="29.16" width="6.8" height="124.49" filterUnits="userSpaceOnUse" color-interpolation-filters="sRGB"><feFlood flood-color="#fff" result="bg"/><feBlend in="SourceGraphic" in2="bg"/></filter><mask id="mask-17" x="276.23" y="119" width="6.8" height="124.49" maskUnits="userSpaceOnUse"><g class="cls-194"><g transform="translate(98.7 89.84)"><g class="cls-23"><path class="cls-24" d="M180.69,29.81l.47-.27c1.75-1,3.16.06,3.16,2.39V147a7.54,7.54,0,0,1-3.16,6l-.47.28c-1.75,1-3.16-.07-3.16-2.39v-115A7.58,7.58,0,0,1,180.69,29.81Z"/></g></g></g></mask><linearGradient id="Áåçûìÿííûé_ãðàäèåíò_32-5" x1="4697.69" y1="-1211.64" x2="4697.69" y2="-1318.57" xlink:href="#Áåçûìÿííûé_ãðàäèåíò_32"/><filter id="luminosity-noclip-18" x="164.78" y="45.6" width="6.8" height="52.57" filterUnits="userSpaceOnUse" color-interpolation-filters="sRGB"><feFlood flood-color="#fff" result="bg"/><feBlend in="SourceGraphic" in2="bg"/></filter><mask id="mask-18" x="263.48" y="135.44" width="6.8" height="52.57" maskUnits="userSpaceOnUse"><g class="cls-193"><g transform="translate(98.7 89.84)"><g class="cls-3"><path class="cls-4" d="M167.94,46.25l.47-.27c1.75-1,3.17.06,3.17,2.39V91.48a7.57,7.57,0,0,1-3.17,6l-.47.27c-1.74,1-3.16-.06-3.16-2.39V52.3A7.6,7.6,0,0,1,167.94,46.25Z"/></g></g></g></mask><linearGradient id="Áåçûìÿííûé_ãðàäèåíò_32-6" x1="4712.41" y1="-1266.07" x2="4712.41" y2="-1310.7" xlink:href="#Áåçûìÿííûé_ãðàäèåíò_32"/><linearGradient id="Áåçûìÿííûé_ãðàäèåíò_21" x1="-3054.53" y1="130.86" x2="-2887.42" y2="227.34" gradientTransform="translate(3250.9)" gradientUnits="userSpaceOnUse"><stop offset="0" stop-color="#5778ff"/><stop offset="0.07" stop-color="#5489ff"/><stop offset="0.28" stop-color="#4eb3ff"/><stop offset="0.48" stop-color="#49d4ff"/><stop offset="0.67" stop-color="#45ecff"/><stop offset="0.85" stop-color="#43faff"/><stop offset="1" stop-color="#42ffff"/></linearGradient><linearGradient id="Áåçûìÿííûé_ãðàäèåíò_20-4" x1="-1829.69" y1="2299.81" x2="-1714.69" y2="2223.1" gradientTransform="matrix(0.87, 0.5, -0.87, 0.5, 3803.83, -75.09)" xlink:href="#Áåçûìÿííûé_ãðàäèåíò_20"/><linearGradient id="Áåçûìÿííûé_ãðàäèåíò_28" x1="-1865.94" y1="2270.53" x2="-1731.36" y2="2270.53" gradientTransform="matrix(0.87, 0.5, -0.87, 0.5, 3803.83, -75.09)" gradientUnits="userSpaceOnUse"><stop offset="0" stop-color="#c0d6ff"/><stop offset="0.3" stop-color="#c5dbff"/><stop offset="0.65" stop-color="#d3e9ff"/><stop offset="1" stop-color="#e9ffff"/></linearGradient><linearGradient id="Áåçûìÿííûé_ãðàäèåíò_26" x1="-3050.03" y1="159.79" x2="-2947.4" y2="159.79" gradientTransform="translate(3250.9)" gradientUnits="userSpaceOnUse"><stop offset="0.35" stop-color="#bcd5ff"/><stop offset="0.44" stop-color="#b5cfff"/><stop offset="0.57" stop-color="#a3beff"/><stop offset="0.72" stop-color="#84a2ff"/><stop offset="0.88" stop-color="#5a7bff"/><stop offset="0.89" stop-color="#5778ff"/></linearGradient><linearGradient id="Áåçûìÿííûé_ãðàäèåíò_23" x1="-1883.18" y1="2255.04" x2="-1745.1" y2="2255.04" gradientTransform="matrix(0.87, 0.5, -0.87, 0.5, 3803.83, -75.09)" gradientUnits="userSpaceOnUse"><stop offset="0" stop-color="#e9ffff"/><stop offset="0.35" stop-color="#d3e9ff"/><stop offset="0.7" stop-color="#c5dbff"/><stop offset="1" stop-color="#c0d6ff"/></linearGradient><linearGradient id="Áåçûìÿííûé_ãðàäèåíò_20-5" x1="4038.31" y1="133.85" x2="4031.08" y2="126.1" gradientTransform="matrix(-1, 0, 0, 1, 4403.35, 0)" xlink:href="#Áåçûìÿííûé_ãðàäèåíò_20"/><linearGradient id="Áåçûìÿííûé_ãðàäèåíò_20-6" x1="4025.56" y1="142.32" x2="4021.76" y2="138.24" gradientTransform="matrix(-1, 0, 0, 1, 4403.35, 0)" xlink:href="#Áåçûìÿííûé_ãðàäèåíò_20"/><linearGradient id="Áåçûìÿííûé_ãðàäèåíò_20-7" x1="4172.05" y1="235.73" x2="4167.37" y2="230.71" gradientTransform="matrix(-1, 0, 0, 1, 4403.35, 0)" xlink:href="#Áåçûìÿííûé_ãðàäèåíò_20"/><linearGradient id="Áåçûìÿííûé_ãðàäèåíò_20-8" x1="4174.82" y1="238.7" x2="4164.6" y2="227.73" gradientTransform="matrix(-1, 0, 0, 1, 4403.35, 0)" xlink:href="#Áåçûìÿííûé_ãðàäèåíò_20"/><linearGradient id="Áåçûìÿííûé_ãðàäèåíò_21-2" x1="4116.09" y1="113.45" x2="4161.83" y2="113.45" gradientTransform="matrix(-1, 0, 0, 1, 4403.35, 0)" xlink:href="#Áåçûìÿííûé_ãðàäèåíò_21"/><linearGradient id="Áåçûìÿííûé_ãðàäèåíò_28-2" x1="4148.88" y1="104.54" x2="4148.88" y2="62.71" gradientTransform="matrix(-1, 0, 0, 1, 4502.05, 89.84)" xlink:href="#Áåçûìÿííûé_ãðàäèåíò_28"/><filter id="luminosity-noclip-19" x="264.39" y="52.35" width="19.82" height="17.62" filterUnits="userSpaceOnUse" color-interpolation-filters="sRGB"><feFlood flood-color="#fff" result="bg"/><feBlend in="SourceGraphic" in2="bg"/></filter><mask id="mask-19" x="363.09" y="142.19" width="19.82" height="17.62" maskUnits="userSpaceOnUse"><g class="cls-192"><g transform="translate(98.7 89.84)"><g class="cls-5"><polygon class="cls-6" points="264.39 69.97 269.6 69.97 284.21 61.54 268.31 52.35 264.39 52.35 264.39 69.97"/></g></g></g></mask><linearGradient id="Áåçûìÿííûé_ãðàäèåíò_31" x1="4119.14" y1="61.16" x2="4138.96" y2="61.16" gradientTransform="matrix(-1, 0, 0, 1, 4502.05, 89.84)" gradientUnits="userSpaceOnUse"><stop offset="0" stop-color="#e9ffff"/><stop offset="0.04" stop-color="#d3ebff"/><stop offset="0.11" stop-color="#b2ccff"/><stop offset="0.18" stop-color="#96b2ff"/><stop offset="0.27" stop-color="#7f9dff"/><stop offset="0.36" stop-color="#6d8cff"/><stop offset="0.48" stop-color="#6081ff"/><stop offset="0.64" stop-color="#597aff"/><stop offset="1" stop-color="#5778ff"/></linearGradient><linearGradient id="Áåçûìÿííûé_ãðàäèåíò_28-3" x1="4124.58" y1="60.66" x2="4153.35" y2="60.66" gradientTransform="matrix(-1, 0, 0, 1, 4502.05, 89.84)" xlink:href="#Áåçûìÿííûé_ãðàäèåíò_28"/><linearGradient id="Áåçûìÿííûé_ãðàäèåíò_28-4" x1="4148.01" y1="68.56" x2="4144.51" y2="62.45" gradientTransform="matrix(-1, 0, 0, 1, 4502.05, 89.84)" xlink:href="#Áåçûìÿííûé_ãðàäèåíò_28"/><linearGradient id="Áåçûìÿííûé_ãðàäèåíò_29" x1="4131.77" y1="65.66" x2="4131.77" y2="56.35" gradientTransform="matrix(-1, 0, 0, 1, 4502.05, 89.84)" gradientUnits="userSpaceOnUse"><stop offset="0" stop-color="#5778ff"/><stop offset="0.18" stop-color="#5c7dff"/><stop offset="0.39" stop-color="#6a8aff"/><stop offset="0.61" stop-color="#82a0ff"/><stop offset="0.85" stop-color="#a3beff"/><stop offset="1" stop-color="#bcd5ff"/></linearGradient><linearGradient id="Áåçûìÿííûé_ãðàäèåíò_29-2" x1="4132.34" y1="58.46" x2="4139.79" y2="58.46" xlink:href="#Áåçûìÿííûé_ãðàäèåíò_29"/><linearGradient id="Áåçûìÿííûé_ãðàäèåíò_29-3" x1="4134.27" y1="59.57" x2="4141.72" y2="59.57" xlink:href="#Áåçûìÿííûé_ãðàäèåíò_29"/><linearGradient id="Áåçûìÿííûé_ãðàäèåíò_29-4" x1="4136.21" y1="60.68" x2="4143.65" y2="60.68" xlink:href="#Áåçûìÿííûé_ãðàäèåíò_29"/><linearGradient id="Áåçûìÿííûé_ãðàäèåíò_29-5" x1="4138.14" y1="61.8" x2="4145.59" y2="61.8" xlink:href="#Áåçûìÿííûé_ãðàäèåíò_29"/><linearGradient id="Áåçûìÿííûé_ãðàäèåíò_28-5" x1="4136.27" y1="74.64" x2="4138.18" y2="74.64" gradientTransform="matrix(-1, 0, 0, 1, 4403.35, 0)" xlink:href="#Áåçûìÿííûé_ãðàäèåíò_28"/><linearGradient id="Áåçûìÿííûé_ãðàäèåíò_29-6" x1="4136.04" y1="74.83" x2="4137.62" y2="74.83" gradientTransform="matrix(-1, 0, 0, 1, 4403.35, 0)" xlink:href="#Áåçûìÿííûé_ãðàäèåíò_29"/><linearGradient id="Áåçûìÿííûé_ãðàäèåíò_28-6" x1="4119.64" y1="64.42" x2="4121.55" y2="64.42" gradientTransform="matrix(-1, 0, 0, 1, 4403.35, 0)" xlink:href="#Áåçûìÿííûé_ãðàäèåíò_28"/><linearGradient id="Áåçûìÿííûé_ãðàäèåíò_29-7" x1="4119.41" y1="64.62" x2="4120.99" y2="64.62" gradientTransform="matrix(-1, 0, 0, 1, 4403.35, 0)" xlink:href="#Áåçûìÿííûé_ãðàäèåíò_29"/><linearGradient id="Áåçûìÿííûé_ãðàäèåíò_28-7" x1="4136.27" y1="113.98" x2="4138.18" y2="113.98" gradientTransform="matrix(-1, 0, 0, 1, 4403.35, 0)" xlink:href="#Áåçûìÿííûé_ãðàäèåíò_28"/><linearGradient id="Áåçûìÿííûé_ãðàäèåíò_29-8" x1="4136.04" y1="114.18" x2="4137.62" y2="114.18" gradientTransform="matrix(-1, 0, 0, 1, 4403.35, 0)" xlink:href="#Áåçûìÿííûé_ãðàäèåíò_29"/><linearGradient id="Áåçûìÿííûé_ãðàäèåíò_28-8" x1="4119.64" y1="103.77" x2="4121.55" y2="103.77" gradientTransform="matrix(-1, 0, 0, 1, 4403.35, 0)" xlink:href="#Áåçûìÿííûé_ãðàäèåíò_28"/><linearGradient id="Áåçûìÿííûé_ãðàäèåíò_29-9" x1="4119.41" y1="103.96" x2="4120.99" y2="103.96" gradientTransform="matrix(-1, 0, 0, 1, 4403.35, 0)" xlink:href="#Áåçûìÿííûé_ãðàäèåíò_29"/><linearGradient id="Áåçûìÿííûé_ãðàäèåíò_21-3" x1="4080.7" y1="134.11" x2="4126.44" y2="134.11" gradientTransform="matrix(-1, 0, 0, 1, 4403.35, 0)" xlink:href="#Áåçûìÿííûé_ãðàäèåíò_21"/><linearGradient id="Áåçûìÿííûé_ãðàäèåíò_28-9" x1="4113.48" y1="125.21" x2="4113.48" y2="83.37" gradientTransform="matrix(-1, 0, 0, 1, 4502.05, 89.84)" xlink:href="#Áåçûìÿííûé_ãðàäèåíò_28"/><filter id="luminosity-noclip-20" x="299.78" y="73.02" width="19.82" height="17.62" filterUnits="userSpaceOnUse" color-interpolation-filters="sRGB"><feFlood flood-color="#fff" result="bg"/><feBlend in="SourceGraphic" in2="bg"/></filter><mask id="mask-20" x="398.48" y="162.86" width="19.82" height="17.62" maskUnits="userSpaceOnUse"><g class="cls-191"><g transform="translate(98.7 89.84)"><g class="cls-7"><polygon class="cls-8" points="299.78 90.64 304.99 90.64 319.61 82.2 303.7 73.02 299.78 73.02 299.78 90.64"/></g></g></g></mask><linearGradient id="Áåçûìÿííûé_ãðàäèåíò_31-2" x1="4083.75" y1="81.83" x2="4103.57" y2="81.83" xlink:href="#Áåçûìÿííûé_ãðàäèåíò_31"/><linearGradient id="Áåçûìÿííûé_ãðàäèåíò_28-10" x1="4089.19" y1="81.32" x2="4117.96" y2="81.32" gradientTransform="matrix(-1, 0, 0, 1, 4502.05, 89.84)" xlink:href="#Áåçûìÿííûé_ãðàäèåíò_28"/><linearGradient id="Áåçûìÿííûé_ãðàäèåíò_28-11" x1="4112.62" y1="89.22" x2="4109.12" y2="83.12" gradientTransform="matrix(-1, 0, 0, 1, 4502.05, 89.84)" xlink:href="#Áåçûìÿííûé_ãðàäèåíò_28"/><linearGradient id="Áåçûìÿííûé_ãðàäèåíò_29-10" x1="4096.38" y1="86.32" x2="4096.38" y2="77.01" xlink:href="#Áåçûìÿííûé_ãðàäèåíò_29"/><linearGradient id="Áåçûìÿííûé_ãðàäèåíò_29-11" x1="4096.95" y1="79.12" x2="4104.4" y2="79.12" xlink:href="#Áåçûìÿííûé_ãðàäèåíò_29"/><linearGradient id="Áåçûìÿííûé_ãðàäèåíò_29-12" x1="4098.88" y1="80.24" x2="4106.33" y2="80.24" xlink:href="#Áåçûìÿííûé_ãðàäèåíò_29"/><linearGradient id="Áåçûìÿííûé_ãðàäèåíò_29-13" x1="4100.81" y1="81.35" x2="4108.26" y2="81.35" xlink:href="#Áåçûìÿííûé_ãðàäèåíò_29"/><linearGradient id="Áåçûìÿííûé_ãðàäèåíò_29-14" x1="4102.75" y1="82.46" x2="4110.2" y2="82.46" xlink:href="#Áåçûìÿííûé_ãðàäèåíò_29"/><linearGradient id="Áåçûìÿííûé_ãðàäèåíò_28-12" x1="4100.88" y1="95.3" x2="4102.79" y2="95.3" gradientTransform="matrix(-1, 0, 0, 1, 4403.35, 0)" xlink:href="#Áåçûìÿííûé_ãðàäèåíò_28"/><linearGradient id="Áåçûìÿííûé_ãðàäèåíò_29-15" x1="4100.65" y1="95.49" x2="4102.23" y2="95.49" gradientTransform="matrix(-1, 0, 0, 1, 4403.35, 0)" xlink:href="#Áåçûìÿííûé_ãðàäèåíò_29"/><linearGradient id="Áåçûìÿííûé_ãðàäèåíò_28-13" x1="4084.25" y1="85.08" x2="4086.16" y2="85.08" gradientTransform="matrix(-1, 0, 0, 1, 4403.35, 0)" xlink:href="#Áåçûìÿííûé_ãðàäèåíò_28"/><linearGradient id="Áåçûìÿííûé_ãðàäèåíò_29-16" x1="4084.02" y1="85.28" x2="4085.6" y2="85.28" gradientTransform="matrix(-1, 0, 0, 1, 4403.35, 0)" xlink:href="#Áåçûìÿííûé_ãðàäèåíò_29"/><linearGradient id="Áåçûìÿííûé_ãðàäèåíò_28-14" x1="4100.88" y1="134.65" x2="4102.79" y2="134.65" gradientTransform="matrix(-1, 0, 0, 1, 4403.35, 0)" xlink:href="#Áåçûìÿííûé_ãðàäèåíò_28"/><linearGradient id="Áåçûìÿííûé_ãðàäèåíò_29-17" x1="4100.65" y1="134.84" x2="4102.23" y2="134.84" gradientTransform="matrix(-1, 0, 0, 1, 4403.35, 0)" xlink:href="#Áåçûìÿííûé_ãðàäèåíò_29"/><linearGradient id="Áåçûìÿííûé_ãðàäèåíò_28-15" x1="4084.25" y1="124.43" x2="4086.16" y2="124.43" gradientTransform="matrix(-1, 0, 0, 1, 4403.35, 0)" xlink:href="#Áåçûìÿííûé_ãðàäèåíò_28"/><linearGradient id="Áåçûìÿííûé_ãðàäèåíò_29-18" x1="4084.02" y1="124.62" x2="4085.6" y2="124.62" gradientTransform="matrix(-1, 0, 0, 1, 4403.35, 0)" xlink:href="#Áåçûìÿííûé_ãðàäèåíò_29"/><linearGradient id="Áåçûìÿííûé_ãðàäèåíò_21-4" x1="4045.31" y1="154.78" x2="4091.05" y2="154.78" gradientTransform="matrix(-1, 0, 0, 1, 4403.35, 0)" xlink:href="#Áåçûìÿííûé_ãðàäèåíò_21"/><linearGradient id="Áåçûìÿííûé_ãðàäèåíò_28-16" x1="4078.09" y1="145.87" x2="4078.09" y2="104.04" gradientTransform="matrix(-1, 0, 0, 1, 4502.05, 89.84)" xlink:href="#Áåçûìÿííûé_ãðàäèåíò_28"/><filter id="luminosity-noclip-21" x="335.17" y="93.68" width="19.82" height="17.62" filterUnits="userSpaceOnUse" color-interpolation-filters="sRGB"><feFlood flood-color="#fff" result="bg"/><feBlend in="SourceGraphic" in2="bg"/></filter><mask id="mask-21" x="433.87" y="183.52" width="19.82" height="17.62" maskUnits="userSpaceOnUse"><g class="cls-190"><g transform="translate(98.7 89.84)"><g class="cls-9"><polygon class="cls-10" points="335.17 111.3 340.38 111.3 355 102.86 339.09 93.68 335.17 93.68 335.17 111.3"/></g></g></g></mask><linearGradient id="Áåçûìÿííûé_ãðàäèåíò_31-3" x1="4048.36" y1="102.49" x2="4068.18" y2="102.49" xlink:href="#Áåçûìÿííûé_ãðàäèåíò_31"/><linearGradient id="Áåçûìÿííûé_ãðàäèåíò_28-17" x1="4053.8" y1="101.99" x2="4082.57" y2="101.99" gradientTransform="matrix(-1, 0, 0, 1, 4502.05, 89.84)" xlink:href="#Áåçûìÿííûé_ãðàäèåíò_28"/><linearGradient id="Áåçûìÿííûé_ãðàäèåíò_28-18" x1="4077.23" y1="109.89" x2="4073.73" y2="103.78" gradientTransform="matrix(-1, 0, 0, 1, 4502.05, 89.84)" xlink:href="#Áåçûìÿííûé_ãðàäèåíò_28"/><linearGradient id="Áåçûìÿííûé_ãðàäèåíò_29-19" x1="4060.99" y1="106.99" x2="4060.99" y2="97.67" xlink:href="#Áåçûìÿííûé_ãðàäèåíò_29"/><linearGradient id="Áåçûìÿííûé_ãðàäèåíò_29-20" x1="4061.56" y1="99.79" x2="4069.01" y2="99.79" xlink:href="#Áåçûìÿííûé_ãðàäèåíò_29"/><linearGradient id="Áåçûìÿííûé_ãðàäèåíò_29-21" x1="4063.49" y1="100.9" x2="4070.94" y2="100.9" xlink:href="#Áåçûìÿííûé_ãðàäèåíò_29"/><linearGradient id="Áåçûìÿííûé_ãðàäèåíò_29-22" x1="4065.42" y1="102.01" x2="4072.87" y2="102.01" xlink:href="#Áåçûìÿííûé_ãðàäèåíò_29"/><linearGradient id="Áåçûìÿííûé_ãðàäèåíò_29-23" x1="4067.36" y1="103.13" x2="4074.81" y2="103.13" xlink:href="#Áåçûìÿííûé_ãðàäèåíò_29"/><linearGradient id="Áåçûìÿííûé_ãðàäèåíò_28-19" x1="4065.49" y1="115.96" x2="4067.4" y2="115.96" gradientTransform="matrix(-1, 0, 0, 1, 4403.35, 0)" xlink:href="#Áåçûìÿííûé_ãðàäèåíò_28"/><linearGradient id="Áåçûìÿííûé_ãðàäèåíò_29-24" x1="4065.26" y1="116.16" x2="4066.83" y2="116.16" gradientTransform="matrix(-1, 0, 0, 1, 4403.35, 0)" xlink:href="#Áåçûìÿííûé_ãðàäèåíò_29"/><linearGradient id="Áåçûìÿííûé_ãðàäèåíò_28-20" x1="4048.86" y1="105.75" x2="4050.77" y2="105.75" gradientTransform="matrix(-1, 0, 0, 1, 4403.35, 0)" xlink:href="#Áåçûìÿííûé_ãðàäèåíò_28"/><linearGradient id="Áåçûìÿííûé_ãðàäèåíò_29-25" x1="4048.63" y1="105.94" x2="4050.21" y2="105.94" gradientTransform="matrix(-1, 0, 0, 1, 4403.35, 0)" xlink:href="#Áåçûìÿííûé_ãðàäèåíò_29"/><linearGradient id="Áåçûìÿííûé_ãðàäèåíò_28-21" x1="4065.49" y1="155.31" x2="4067.4" y2="155.31" gradientTransform="matrix(-1, 0, 0, 1, 4403.35, 0)" xlink:href="#Áåçûìÿííûé_ãðàäèåíò_28"/><linearGradient id="Áåçûìÿííûé_ãðàäèåíò_29-26" x1="4065.26" y1="155.5" x2="4066.83" y2="155.5" gradientTransform="matrix(-1, 0, 0, 1, 4403.35, 0)" xlink:href="#Áåçûìÿííûé_ãðàäèåíò_29"/><linearGradient id="Áåçûìÿííûé_ãðàäèåíò_28-22" x1="4048.86" y1="145.09" x2="4050.77" y2="145.09" gradientTransform="matrix(-1, 0, 0, 1, 4403.35, 0)" xlink:href="#Áåçûìÿííûé_ãðàäèåíò_28"/><linearGradient id="Áåçûìÿííûé_ãðàäèåíò_29-27" x1="4048.63" y1="145.29" x2="4050.21" y2="145.29" gradientTransform="matrix(-1, 0, 0, 1, 4403.35, 0)" xlink:href="#Áåçûìÿííûé_ãðàäèåíò_29"/><linearGradient id="Áåçûìÿííûé_ãðàäèåíò_21-5" x1="4156.18" y1="137.31" x2="4201.91" y2="137.31" gradientTransform="matrix(-1, 0, 0, 1, 4403.35, 0)" xlink:href="#Áåçûìÿííûé_ãðàäèåíò_21"/><linearGradient id="Áåçûìÿííûé_ãðàäèåíò_28-23" x1="4188.96" y1="128.4" x2="4188.96" y2="86.57" gradientTransform="matrix(-1, 0, 0, 1, 4502.05, 89.84)" xlink:href="#Áåçûìÿííûé_ãðàäèåíò_28"/><filter id="luminosity-noclip-22" x="224.31" y="76.22" width="19.82" height="17.62" filterUnits="userSpaceOnUse" color-interpolation-filters="sRGB"><feFlood flood-color="#fff" result="bg"/><feBlend in="SourceGraphic" in2="bg"/></filter><mask id="mask-22" x="323.01" y="166.05" width="19.82" height="17.62" maskUnits="userSpaceOnUse"><g class="cls-189"><g transform="translate(98.7 89.84)"><g class="cls-11"><polygon class="cls-12" points="224.31 93.83 229.52 93.83 244.13 85.4 228.23 76.22 224.31 76.22 224.31 93.83"/></g></g></g></mask><linearGradient id="Áåçûìÿííûé_ãðàäèåíò_31-4" x1="4159.22" y1="85.02" x2="4179.05" y2="85.02" xlink:href="#Áåçûìÿííûé_ãðàäèåíò_31"/><linearGradient id="Áåçûìÿííûé_ãðàäèåíò_28-24" x1="4164.66" y1="84.52" x2="4193.43" y2="84.52" gradientTransform="matrix(-1, 0, 0, 1, 4502.05, 89.84)" xlink:href="#Áåçûìÿííûé_ãðàäèåíò_28"/><linearGradient id="Áåçûìÿííûé_ãðàäèåíò_28-25" x1="4188.09" y1="92.42" x2="4184.6" y2="86.31" gradientTransform="matrix(-1, 0, 0, 1, 4502.05, 89.84)" xlink:href="#Áåçûìÿííûé_ãðàäèåíò_28"/><linearGradient id="Áåçûìÿííûé_ãðàäèåíò_29-28" x1="4171.85" y1="89.52" x2="4171.85" y2="80.21" xlink:href="#Áåçûìÿííûé_ãðàäèåíò_29"/><linearGradient id="Áåçûìÿííûé_ãðàäèåíò_29-29" x1="4172.42" y1="82.32" x2="4179.87" y2="82.32" xlink:href="#Áåçûìÿííûé_ãðàäèåíò_29"/><linearGradient id="Áåçûìÿííûé_ãðàäèåíò_29-30" x1="4174.35" y1="83.43" x2="4181.8" y2="83.43" xlink:href="#Áåçûìÿííûé_ãðàäèåíò_29"/><linearGradient id="Áåçûìÿííûé_ãðàäèåíò_29-31" x1="4176.29" y1="84.54" x2="4183.74" y2="84.54" xlink:href="#Áåçûìÿííûé_ãðàäèåíò_29"/><linearGradient id="Áåçûìÿííûé_ãðàäèåíò_29-32" x1="4178.22" y1="85.66" x2="4185.67" y2="85.66" xlink:href="#Áåçûìÿííûé_ãðàäèåíò_29"/><linearGradient id="Áåçûìÿííûé_ãðàäèåíò_28-26" x1="4176.35" y1="98.5" x2="4178.26" y2="98.5" gradientTransform="matrix(-1, 0, 0, 1, 4403.35, 0)" xlink:href="#Áåçûìÿííûé_ãðàäèåíò_28"/><linearGradient id="Áåçûìÿííûé_ãðàäèåíò_29-33" x1="4176.12" y1="98.69" x2="4177.7" y2="98.69" gradientTransform="matrix(-1, 0, 0, 1, 4403.35, 0)" xlink:href="#Áåçûìÿííûé_ãðàäèåíò_29"/><linearGradient id="Áåçûìÿííûé_ãðàäèåíò_28-27" x1="4159.73" y1="88.28" x2="4161.63" y2="88.28" gradientTransform="matrix(-1, 0, 0, 1, 4403.35, 0)" xlink:href="#Áåçûìÿííûé_ãðàäèåíò_28"/><linearGradient id="Áåçûìÿííûé_ãðàäèåíò_29-34" x1="4159.49" y1="88.48" x2="4161.07" y2="88.48" gradientTransform="matrix(-1, 0, 0, 1, 4403.35, 0)" xlink:href="#Áåçûìÿííûé_ãðàäèåíò_29"/><linearGradient id="Áåçûìÿííûé_ãðàäèåíò_28-28" x1="4176.35" y1="137.84" x2="4178.26" y2="137.84" gradientTransform="matrix(-1, 0, 0, 1, 4403.35, 0)" xlink:href="#Áåçûìÿííûé_ãðàäèåíò_28"/><linearGradient id="Áåçûìÿííûé_ãðàäèåíò_29-35" x1="4176.12" y1="138.04" x2="4177.7" y2="138.04" gradientTransform="matrix(-1, 0, 0, 1, 4403.35, 0)" xlink:href="#Áåçûìÿííûé_ãðàäèåíò_29"/><linearGradient id="Áåçûìÿííûé_ãðàäèåíò_28-29" x1="4159.73" y1="127.63" x2="4161.63" y2="127.63" gradientTransform="matrix(-1, 0, 0, 1, 4403.35, 0)" xlink:href="#Áåçûìÿííûé_ãðàäèåíò_28"/><linearGradient id="Áåçûìÿííûé_ãðàäèåíò_29-36" x1="4159.49" y1="127.82" x2="4161.07" y2="127.82" gradientTransform="matrix(-1, 0, 0, 1, 4403.35, 0)" xlink:href="#Áåçûìÿííûé_ãðàäèåíò_29"/><linearGradient id="Áåçûìÿííûé_ãðàäèåíò_21-6" x1="4120.79" y1="157.97" x2="4166.52" y2="157.97" gradientTransform="matrix(-1, 0, 0, 1, 4403.35, 0)" xlink:href="#Áåçûìÿííûé_ãðàäèåíò_21"/><linearGradient id="Áåçûìÿííûé_ãðàäèåíò_28-30" x1="4153.57" y1="149.07" x2="4153.57" y2="107.24" gradientTransform="matrix(-1, 0, 0, 1, 4502.05, 89.84)" xlink:href="#Áåçûìÿííûé_ãðàäèåíò_28"/><filter id="luminosity-noclip-23" x="259.7" y="96.88" width="19.82" height="17.62" filterUnits="userSpaceOnUse" color-interpolation-filters="sRGB"><feFlood flood-color="#fff" result="bg"/><feBlend in="SourceGraphic" in2="bg"/></filter><mask id="mask-23" x="358.4" y="186.72" width="19.82" height="17.62" maskUnits="userSpaceOnUse"><g class="cls-188"><g transform="translate(98.7 89.84)"><g class="cls-15"><polygon class="cls-16" points="259.7 114.5 264.91 114.5 279.52 106.06 263.62 96.88 259.7 96.88 259.7 114.5"/></g></g></g></mask><linearGradient id="Áåçûìÿííûé_ãðàäèåíò_31-5" x1="4123.83" y1="105.69" x2="4143.65" y2="105.69" xlink:href="#Áåçûìÿííûé_ãðàäèåíò_31"/><linearGradient id="Áåçûìÿííûé_ãðàäèåíò_28-31" x1="4129.27" y1="105.18" x2="4158.04" y2="105.18" gradientTransform="matrix(-1, 0, 0, 1, 4502.05, 89.84)" xlink:href="#Áåçûìÿííûé_ãðàäèåíò_28"/><linearGradient id="Áåçûìÿííûé_ãðàäèåíò_28-32" x1="4152.7" y1="113.08" x2="4149.21" y2="106.98" gradientTransform="matrix(-1, 0, 0, 1, 4502.05, 89.84)" xlink:href="#Áåçûìÿííûé_ãðàäèåíò_28"/><linearGradient id="Áåçûìÿííûé_ãðàäèåíò_29-37" x1="4136.46" y1="110.19" x2="4136.46" y2="100.87" xlink:href="#Áåçûìÿííûé_ãðàäèåíò_29"/><linearGradient id="Áåçûìÿííûé_ãðàäèåíò_29-38" x1="4137.03" y1="102.98" x2="4144.48" y2="102.98" xlink:href="#Áåçûìÿííûé_ãðàäèåíò_29"/><linearGradient id="Áåçûìÿííûé_ãðàäèåíò_29-39" x1="4138.96" y1="104.1" x2="4146.41" y2="104.1" xlink:href="#Áåçûìÿííûé_ãðàäèåíò_29"/><linearGradient id="Áåçûìÿííûé_ãðàäèåíò_29-40" x1="4140.9" y1="105.21" x2="4148.35" y2="105.21" xlink:href="#Áåçûìÿííûé_ãðàäèåíò_29"/><linearGradient id="Áåçûìÿííûé_ãðàäèåíò_29-41" x1="4142.83" y1="106.32" x2="4150.28" y2="106.32" xlink:href="#Áåçûìÿííûé_ãðàäèåíò_29"/><linearGradient id="Áåçûìÿííûé_ãðàäèåíò_28-33" x1="4140.96" y1="119.16" x2="4142.87" y2="119.16" gradientTransform="matrix(-1, 0, 0, 1, 4403.35, 0)" xlink:href="#Áåçûìÿííûé_ãðàäèåíò_28"/><linearGradient id="Áåçûìÿííûé_ãðàäèåíò_29-42" x1="4140.73" y1="119.35" x2="4142.31" y2="119.35" gradientTransform="matrix(-1, 0, 0, 1, 4403.35, 0)" xlink:href="#Áåçûìÿííûé_ãðàäèåíò_29"/><linearGradient id="Áåçûìÿííûé_ãðàäèåíò_28-34" x1="4124.34" y1="108.95" x2="4126.24" y2="108.95" gradientTransform="matrix(-1, 0, 0, 1, 4403.35, 0)" xlink:href="#Áåçûìÿííûé_ãðàäèåíò_28"/><linearGradient id="Áåçûìÿííûé_ãðàäèåíò_29-43" x1="4124.1" y1="109.14" x2="4125.68" y2="109.14" gradientTransform="matrix(-1, 0, 0, 1, 4403.35, 0)" xlink:href="#Áåçûìÿííûé_ãðàäèåíò_29"/><linearGradient id="Áåçûìÿííûé_ãðàäèåíò_28-35" x1="4140.96" y1="158.51" x2="4142.87" y2="158.51" gradientTransform="matrix(-1, 0, 0, 1, 4403.35, 0)" xlink:href="#Áåçûìÿííûé_ãðàäèåíò_28"/><linearGradient id="Áåçûìÿííûé_ãðàäèåíò_29-44" x1="4140.73" y1="158.7" x2="4142.31" y2="158.7" gradientTransform="matrix(-1, 0, 0, 1, 4403.35, 0)" xlink:href="#Áåçûìÿííûé_ãðàäèåíò_29"/><linearGradient id="Áåçûìÿííûé_ãðàäèåíò_28-36" x1="4124.34" y1="148.29" x2="4126.24" y2="148.29" gradientTransform="matrix(-1, 0, 0, 1, 4403.35, 0)" xlink:href="#Áåçûìÿííûé_ãðàäèåíò_28"/><linearGradient id="Áåçûìÿííûé_ãðàäèåíò_29-45" x1="4124.1" y1="148.48" x2="4125.68" y2="148.48" gradientTransform="matrix(-1, 0, 0, 1, 4403.35, 0)" xlink:href="#Áåçûìÿííûé_ãðàäèåíò_29"/><linearGradient id="Áåçûìÿííûé_ãðàäèåíò_21-7" x1="4085.39" y1="178.64" x2="4131.13" y2="178.64" gradientTransform="matrix(-1, 0, 0, 1, 4403.35, 0)" xlink:href="#Áåçûìÿííûé_ãðàäèåíò_21"/><linearGradient id="Áåçûìÿííûé_ãðàäèåíò_28-37" x1="4118.18" y1="169.73" x2="4118.18" y2="127.9" gradientTransform="matrix(-1, 0, 0, 1, 4502.05, 89.84)" xlink:href="#Áåçûìÿííûé_ãðàäèåíò_28"/><filter id="luminosity-noclip-24" x="295.09" y="117.54" width="19.82" height="17.62" filterUnits="userSpaceOnUse" color-interpolation-filters="sRGB"><feFlood flood-color="#fff" result="bg"/><feBlend in="SourceGraphic" in2="bg"/></filter><mask id="mask-24" x="393.79" y="207.38" width="19.82" height="17.62" maskUnits="userSpaceOnUse"><g class="cls-187"><g transform="translate(98.7 89.84)"><g class="cls-17"><polygon class="cls-18" points="295.09 135.16 300.3 135.16 314.91 126.72 299.01 117.54 295.09 117.54 295.09 135.16"/></g></g></g></mask><linearGradient id="Áåçûìÿííûé_ãðàäèåíò_31-6" x1="4088.44" y1="126.35" x2="4108.26" y2="126.35" xlink:href="#Áåçûìÿííûé_ãðàäèåíò_31"/><linearGradient id="Áåçûìÿííûé_ãðàäèåíò_28-38" x1="4093.88" y1="125.85" x2="4122.65" y2="125.85" gradientTransform="matrix(-1, 0, 0, 1, 4502.05, 89.84)" xlink:href="#Áåçûìÿííûé_ãðàäèåíò_28"/><linearGradient id="Áåçûìÿííûé_ãðàäèåíò_28-39" x1="4117.31" y1="133.75" x2="4113.82" y2="127.64" gradientTransform="matrix(-1, 0, 0, 1, 4502.05, 89.84)" xlink:href="#Áåçûìÿííûé_ãðàäèåíò_28"/><linearGradient id="Áåçûìÿííûé_ãðàäèåíò_29-46" x1="4101.07" y1="130.85" x2="4101.07" y2="121.54" xlink:href="#Áåçûìÿííûé_ãðàäèåíò_29"/><linearGradient id="Áåçûìÿííûé_ãðàäèåíò_29-47" x1="4101.64" y1="123.65" x2="4109.09" y2="123.65" xlink:href="#Áåçûìÿííûé_ãðàäèåíò_29"/><linearGradient id="Áåçûìÿííûé_ãðàäèåíò_29-48" x1="4103.57" y1="124.76" x2="4111.02" y2="124.76" xlink:href="#Áåçûìÿííûé_ãðàäèåíò_29"/><linearGradient id="Áåçûìÿííûé_ãðàäèåíò_29-49" x1="4105.51" y1="125.87" x2="4112.96" y2="125.87" xlink:href="#Áåçûìÿííûé_ãðàäèåíò_29"/><linearGradient id="Áåçûìÿííûé_ãðàäèåíò_29-50" x1="4107.44" y1="126.99" x2="4114.89" y2="126.99" xlink:href="#Áåçûìÿííûé_ãðàäèåíò_29"/><linearGradient id="Áåçûìÿííûé_ãðàäèåíò_28-40" x1="4105.57" y1="139.82" x2="4107.48" y2="139.82" gradientTransform="matrix(-1, 0, 0, 1, 4403.35, 0)" xlink:href="#Áåçûìÿííûé_ãðàäèåíò_28"/><linearGradient id="Áåçûìÿííûé_ãðàäèåíò_29-51" x1="4105.34" y1="140.02" x2="4106.92" y2="140.02" gradientTransform="matrix(-1, 0, 0, 1, 4403.35, 0)" xlink:href="#Áåçûìÿííûé_ãðàäèåíò_29"/><linearGradient id="Áåçûìÿííûé_ãðàäèåíò_28-41" x1="4088.95" y1="129.61" x2="4090.85" y2="129.61" gradientTransform="matrix(-1, 0, 0, 1, 4403.35, 0)" xlink:href="#Áåçûìÿííûé_ãðàäèåíò_28"/><linearGradient id="Áåçûìÿííûé_ãðàäèåíò_29-52" x1="4088.71" y1="129.8" x2="4090.29" y2="129.8" gradientTransform="matrix(-1, 0, 0, 1, 4403.35, 0)" xlink:href="#Áåçûìÿííûé_ãðàäèåíò_29"/><linearGradient id="Áåçûìÿííûé_ãðàäèåíò_28-42" x1="4105.57" y1="179.17" x2="4107.48" y2="179.17" gradientTransform="matrix(-1, 0, 0, 1, 4403.35, 0)" xlink:href="#Áåçûìÿííûé_ãðàäèåíò_28"/><linearGradient id="Áåçûìÿííûé_ãðàäèåíò_29-53" x1="4105.34" y1="179.36" x2="4106.92" y2="179.36" gradientTransform="matrix(-1, 0, 0, 1, 4403.35, 0)" xlink:href="#Áåçûìÿííûé_ãðàäèåíò_29"/><linearGradient id="Áåçûìÿííûé_ãðàäèåíò_28-43" x1="4088.95" y1="168.95" x2="4090.85" y2="168.95" gradientTransform="matrix(-1, 0, 0, 1, 4403.35, 0)" xlink:href="#Áåçûìÿííûé_ãðàäèåíò_28"/><linearGradient id="Áåçûìÿííûé_ãðàäèåíò_29-54" x1="4088.71" y1="169.15" x2="4090.29" y2="169.15" gradientTransform="matrix(-1, 0, 0, 1, 4403.35, 0)" xlink:href="#Áåçûìÿííûé_ãðàäèåíò_29"/><linearGradient id="Áåçûìÿííûé_ãðàäèåíò_20-9" x1="2335.43" y1="2953.82" x2="2347.01" y2="2953.82" gradientTransform="matrix(-1, -0.58, -0.87, 0.5, 5019.36, 66.22)" xlink:href="#Áåçûìÿííûé_ãðàäèåíò_20"/><linearGradient id="Áåçûìÿííûé_ãðàäèåíò_20-10" x1="-698.75" y1="173.22" x2="-579.25" y2="173.22" gradientTransform="matrix(-1, 0, 0, 1, -574.37, 0)" xlink:href="#Áåçûìÿííûé_ãðàäèåíò_20"/><linearGradient id="Áåçûìÿííûé_ãðàäèåíò_28-44" x1="-714.85" y1="115.7" x2="-624.03" y2="115.7" gradientTransform="matrix(-1, 0, 0, 1, -574.37, 0)" xlink:href="#Áåçûìÿííûé_ãðàäèåíò_28"/><linearGradient id="Áåçûìÿííûé_ãðàäèåíò_29-55" x1="-714.84" y1="138.99" x2="-699.25" y2="138.99" gradientTransform="matrix(-1, 0, 0, 1, -574.37, 0)" xlink:href="#Áåçûìÿííûé_ãðàäèåíò_29"/><linearGradient id="Áåçûìÿííûé_ãðàäèåíò_29-56" x1="-702.68" y1="165.17" x2="-574.41" y2="165.17" gradientTransform="matrix(-1, 0, 0, 1, -574.37, 0)" xlink:href="#Áåçûìÿííûé_ãðàäèåíò_29"/><linearGradient id="Áåçûìÿííûé_ãðàäèåíò_28-45" x1="-659.58" y1="160.9" x2="-531.24" y2="160.9" gradientTransform="matrix(-1, 0, 0, 1, -574.37, 0)" xlink:href="#Áåçûìÿííûé_ãðàäèåíò_28"/><linearGradient id="Áåçûìÿííûé_ãðàäèåíò_28-46" x1="-637.85" y1="168.18" x2="-605" y2="168.18" gradientTransform="matrix(-1, 0, 0, 1, -574.37, 0)" xlink:href="#Áåçûìÿííûé_ãðàäèåíò_28"/><clipPath id="clip-path" transform="translate(98.7 89.84)"><polygon id="SVGID" class="cls-25" points="60.62 66.5 136.4 110.26 127 165.66 51.27 121.94 60.62 66.5"/></clipPath><linearGradient id="Áåçûìÿííûé_ãðàäèåíò_28-47" x1="-708.61" y1="132.45" x2="-580.28" y2="132.45" gradientTransform="matrix(-1, 0, 0, 1, -574.37, 0)" xlink:href="#Áåçûìÿííûé_ãðàäèåíò_28"/><linearGradient id="Áåçûìÿííûé_ãðàäèåíò_28-48" x1="-717.06" y1="123.03" x2="-684.21" y2="123.03" gradientTransform="matrix(-1, 0, 0, 1, -574.37, 0)" xlink:href="#Áåçûìÿííûé_ãðàäèåíò_28"/></defs><title>9-1</title><rect class="cls-26" width="600.28" height="450"/><path class="cls-27" d="M184.16,203.44a6.78,6.78,0,0,1-3.38-.91l-23-13.27.57-1,23,13.27a5.62,5.62,0,0,0,5.61,0l22.73-13.12.57,1-22.73,13.12A6.78,6.78,0,0,1,184.16,203.44Z" transform="translate(98.7 89.84)"/><path class="cls-28" d="M137,187.38c4.81,2.78,12.61,2.78,17.42,0s4.8-7.27,0-10-12.61-2.78-17.42,0S132.23,184.61,137,187.38Zm4-7.74a10.42,10.42,0,0,1,9.42,0c2.6,1.5,2.6,3.93,0,5.43a10.36,10.36,0,0,1-9.42,0C138.44,183.57,138.44,181.14,141,179.64Z" transform="translate(98.7 89.84)"/><path class="cls-29" d="M145.75,192.6a24.89,24.89,0,0,1-12.15-2.9h0c-3.35-1.94-5.19-4.54-5.19-7.34s1.84-5.41,5.19-7.35c6.7-3.86,17.6-3.86,24.29,0,3.36,1.94,5.2,4.55,5.2,7.35s-1.84,5.4-5.2,7.34A24.85,24.85,0,0,1,145.75,192.6Zm-11.57-3.89c6.38,3.68,16.76,3.68,23.14,0,3-1.72,4.63-4,4.63-6.35s-1.64-4.63-4.63-6.36c-6.38-3.68-16.76-3.68-23.14,0-3,1.73-4.63,4-4.63,6.36s1.64,4.63,4.63,6.35Z" transform="translate(98.7 89.84)"/><g class="cls-30"><path class="cls-31" d="M231.67,9.46l.48-.28c1.74-1,3.16.07,3.16,2.4v106a7.6,7.6,0,0,1-3.16,6l-.48.27c-1.74,1-3.16-.06-3.16-2.39V15.5A7.59,7.59,0,0,1,231.67,9.46Z" transform="translate(98.7 89.84)"/></g><g class="cls-32"><path class="cls-33" d="M218.93,44.2l.47-.27c1.75-1,3.16.06,3.16,2.39V97.5a7.56,7.56,0,0,1-3.16,6l-.47.27c-1.75,1-3.17-.06-3.17-2.39V50.25A7.59,7.59,0,0,1,218.93,44.2Z" transform="translate(98.7 89.84)"/></g><g class="cls-34"><path class="cls-35" d="M206.18,63.82l.47-.28c1.75-1,3.17.07,3.17,2.4v66.3a7.59,7.59,0,0,1-3.17,6l-.47.27c-1.75,1-3.16-.06-3.16-2.39V69.86A7.56,7.56,0,0,1,206.18,63.82Z" transform="translate(98.7 89.84)"/></g><g class="cls-36"><path class="cls-37" d="M193.44.65l.47-.27c1.74-1,3.16.06,3.16,2.39V139.6a7.6,7.6,0,0,1-3.16,6.05l-.47.27c-1.75,1-3.17-.06-3.17-2.39V6.7A7.59,7.59,0,0,1,193.44.65Z" transform="translate(98.7 89.84)"/></g><g class="cls-38"><path class="cls-39" d="M180.69,29.81l.47-.27c1.75-1,3.16.06,3.16,2.39V147a7.54,7.54,0,0,1-3.16,6l-.47.28c-1.75,1-3.16-.07-3.16-2.39v-115A7.58,7.58,0,0,1,180.69,29.81Z" transform="translate(98.7 89.84)"/></g><g class="cls-40"><path class="cls-41" d="M167.94,46.25l.47-.27c1.75-1,3.17.06,3.17,2.39V91.48a7.57,7.57,0,0,1-3.17,6l-.47.27c-1.74,1-3.16-.06-3.16-2.39V52.3A7.6,7.6,0,0,1,167.94,46.25Z" transform="translate(98.7 89.84)"/></g><path class="cls-42" d="M298.48,240a6.43,6.43,0,0,1-3.11-.72h0l-118.82-69a2.5,2.5,0,0,1-1.4-2.12,3.21,3.21,0,0,1,1.87-2.61l80.39-46.42a7.78,7.78,0,0,1,7.06-.27l118.82,69a2.48,2.48,0,0,1,1.4,2.12,3.21,3.21,0,0,1-1.87,2.61L302.43,239A8.1,8.1,0,0,1,298.48,240ZM296,238.31a6.72,6.72,0,0,0,5.91-.27l80.39-46.42c.81-.47,1.3-1.07,1.3-1.62a1.44,1.44,0,0,0-.84-1.13l-118.82-69a6.67,6.67,0,0,0-5.9.27l-80.4,46.42c-.81.47-1.3,1.07-1.3,1.62a1.44,1.44,0,0,0,.84,1.13l118.82,69Z" transform="translate(98.7 89.84)"/><path class="cls-43" d="M295.66,225.7l-118.82-69c-1.66-1-1.45-2.64.47-3.74l80.39-46.42a7.25,7.25,0,0,1,6.48-.27l118.82,69c1.66,1,1.45,2.64-.47,3.74l-80.39,46.42A7.19,7.19,0,0,1,295.66,225.7Z" transform="translate(98.7 89.84)"/><path class="cls-44" d="M376.52,171.29l-25.25-1.65-86.46-50.29a6.59,6.59,0,0,0-6,.25l-55.6,32.1-19.92-1.3v3.28h0a1.75,1.75,0,0,0,1,1.5L295,219.46a6.62,6.62,0,0,0,6-.25l74.06-42.76a2.47,2.47,0,0,0,1.45-1.88h0Z" transform="translate(98.7 89.84)"/><path class="cls-45" d="M295,216.22,184.35,151.94c-1.53-.88-1.34-2.42.43-3.45l74.06-42.76a6.61,6.61,0,0,1,6-.24l110.68,64.28c1.53.88,1.34,2.42-.43,3.44L301,216A6.65,6.65,0,0,1,295,216.22Z" transform="translate(98.7 89.84)"/><path class="cls-46" d="M379.19,156.12l-26-1.69L264.59,102.9a6.84,6.84,0,0,0-6.15.26l-57.27,33.06-20.52-1.33V149.2h0a1.78,1.78,0,0,0,1,1.54l113.54,65.93a6.84,6.84,0,0,0,6.15-.25l76.29-44.05a2.55,2.55,0,0,0,1.49-1.94h0Z" transform="translate(98.7 89.84)"/><path class="cls-47" d="M295.25,202.25,181.71,136.32c-1.58-.91-1.38-2.5.44-3.55l76.29-44a6.84,6.84,0,0,1,6.15-.26L378.13,154.4c1.58.91,1.38,2.5-.44,3.55L301.4,202A6.84,6.84,0,0,1,295.25,202.25Z" transform="translate(98.7 89.84)"/><path class="cls-48" d="M364,132.67a10.32,10.32,0,0,0,9.34,0c2.58-1.49,2.58-3.9,0-5.39a10.32,10.32,0,0,0-9.34,0C361.41,128.77,361.41,131.18,364,132.67Z" transform="translate(98.7 89.84)"/><path class="cls-49" d="M377.23,141.7a5.46,5.46,0,0,0,4.92,0c1.36-.79,1.36-2.06,0-2.84a5.4,5.4,0,0,0-4.92,0C375.87,139.64,375.87,140.91,377.23,141.7Z" transform="translate(98.7 89.84)"/><path class="cls-50" d="M230.62,235a6.71,6.71,0,0,0,6,0c1.67-1,1.67-2.53,0-3.5a6.71,6.71,0,0,0-6,0C229,232.44,229,234,230.62,235Z" transform="translate(98.7 89.84)"/><path class="cls-51" d="M233.64,238.71a13.19,13.19,0,0,1-6.46-1.54c-1.8-1-2.79-2.44-2.79-3.95s1-2.91,2.79-3.95a14.3,14.3,0,0,1,12.93,0c1.8,1,2.79,2.44,2.79,3.95s-1,2.91-2.79,3.95A13.2,13.2,0,0,1,233.64,238.71Zm0-10.23a12.42,12.42,0,0,0-6.08,1.45c-1.55.89-2.4,2.06-2.4,3.29s.85,2.39,2.4,3.29a13.45,13.45,0,0,0,12.17,0c1.55-.9,2.4-2.07,2.4-3.29s-.85-2.4-2.4-3.29A12.44,12.44,0,0,0,233.64,228.48Z" transform="translate(98.7 89.84)"/><polygon class="cls-52" points="363.09 162.82 382.91 151.37 363.09 139.93 343.27 151.37 363.09 162.82"/><path class="cls-53" d="M263.6,126.65l-21.69-12.52a.79.79,0,0,1,0-1.36l21.69-12.52a1.59,1.59,0,0,1,1.58,0l21.69,12.52a.79.79,0,0,1,0,1.36l-21.69,12.52a1.59,1.59,0,0,1-1.58,0Zm.29-25.9L242.2,113.27a.2.2,0,0,0,0,.36l21.69,12.52a1,1,0,0,0,1,0l21.69-12.52a.2.2,0,0,0,0-.36L264.9,100.75a1,1,0,0,0-.51-.14A1,1,0,0,0,263.89,100.75Z" transform="translate(98.7 89.84)"/><g class="cls-54"><polygon class="cls-55" points="363.09 212.99 379.89 203.29 363.09 193.59 346.29 203.29 363.09 212.99"/></g><polygon class="cls-56" points="363.09 206.75 382.91 195.31 363.09 183.86 343.27 195.31 363.09 206.75"/><polygon class="cls-57" points="343.27 151.37 343.27 195.31 363.09 206.75 363.09 162.82 343.27 151.37"/><polygon class="cls-55" points="382.91 151.37 382.91 195.31 363.09 206.75 363.09 162.82 382.91 151.37"/><g class="cls-58"><polygon class="cls-44" points="381.57 154.29 381.57 193.78 364.43 203.67 364.43 164.18 381.57 154.29"/></g><polygon class="cls-44" points="346.24 161.99 346.24 163.15 360.12 171.16 360.12 170 346.24 161.99"/><polygon class="cls-44" points="346.24 166.9 346.24 168.06 360.12 176.07 360.12 174.91 346.24 166.9"/><polygon class="cls-44" points="346.24 171.81 346.24 172.97 360.12 180.98 360.12 179.82 346.24 171.81"/><polygon class="cls-44" points="346.24 176.72 346.24 177.88 360.12 185.89 360.12 184.73 346.24 176.72"/><polygon class="cls-44" points="346.24 181.63 346.24 182.79 360.12 190.8 360.12 189.64 346.24 181.63"/><polygon class="cls-44" points="346.24 186.54 346.24 187.7 360.12 195.71 360.12 194.55 346.24 186.54"/><g class="cls-59"><polygon class="cls-60" points="363.09 159.81 368.3 159.81 382.91 151.37 367.01 142.19 363.09 142.19 363.09 159.81"/></g><polygon class="cls-61" points="363.09 158.8 377.47 150.5 363.09 142.19 348.71 150.5 363.09 158.8"/><polygon class="cls-62" points="348.71 150.5 348.71 151.51 363.09 159.81 363.09 158.8 348.71 150.5"/><polygon class="cls-63" points="377.47 150.5 377.47 151.51 363.09 159.81 363.09 158.8 377.47 150.5"/><polygon class="cls-64" points="368.67 150.63 369.31 150.26 369.25 149.96 363.34 146.52 362.52 146.91 362.68 147.17 368.67 150.63"/><polygon class="cls-65" points="363.31 146.8 362.68 147.17 362.27 146.93 363.31 146.33 369.71 150.03 369.31 150.26 363.31 146.8"/><polygon class="cls-64" points="366.74 151.74 367.37 151.37 367.32 151.08 361.41 147.64 360.59 148.03 360.74 148.28 366.74 151.74"/><polygon class="cls-66" points="361.38 147.92 360.74 148.28 360.33 148.05 361.38 147.44 367.78 151.14 367.37 151.38 361.38 147.92"/><polygon class="cls-64" points="364.8 152.85 365.44 152.49 365.39 152.19 359.48 148.75 358.66 149.14 358.81 149.4 364.8 152.85"/><polygon class="cls-67" points="359.45 149.03 358.81 149.4 358.4 149.16 359.45 148.56 365.85 152.25 365.44 152.49 359.45 149.03"/><polygon class="cls-64" points="362.87 153.97 363.5 153.6 363.45 153.3 357.54 149.86 356.72 150.25 356.88 150.51 362.87 153.97"/><polygon class="cls-68" points="357.51 150.14 356.88 150.51 356.46 150.27 357.51 149.67 363.92 153.36 363.5 153.6 357.51 150.14"/><g class="cls-58"><polygon class="cls-44" points="382.91 188.36 363.09 176.39 363.09 162.82 382.91 151.37 382.91 188.36"/></g><path class="cls-69" d="M265.18,75a1.74,1.74,0,0,1,.78-1.37.53.53,0,0,1,.56,0h0l.56.32-.34,0a.86.86,0,0,1,0,.17,1.72,1.72,0,0,1-.79,1.36.6.6,0,0,1-.16.08l.16.3-.55-.32h0A.56.56,0,0,1,265.18,75Z" transform="translate(98.7 89.84)"/><path class="cls-70" d="M265.74,75.29c0,.5.35.7.79.45a1.75,1.75,0,0,0,.79-1.37c0-.5-.36-.7-.79-.45A1.73,1.73,0,0,0,265.74,75.29Z" transform="translate(98.7 89.84)"/><path class="cls-64" d="M266.07,75.09c0,.29.21.41.46.26a1,1,0,0,0,.45-.78c0-.29-.2-.41-.45-.26A1,1,0,0,0,266.07,75.09Z" transform="translate(98.7 89.84)"/><path class="cls-71" d="M281.8,64.74a1.72,1.72,0,0,1,.79-1.36.56.56,0,0,1,.56-.06h0l.56.33h-.35a.88.88,0,0,1,0,.17,1.74,1.74,0,0,1-.79,1.37.61.61,0,0,1-.17.07l.16.3-.54-.32h0A.54.54,0,0,1,281.8,64.74Z" transform="translate(98.7 89.84)"/><path class="cls-72" d="M282.36,65.07c0,.5.36.71.79.46a1.76,1.76,0,0,0,.79-1.37c0-.5-.35-.71-.79-.46A1.79,1.79,0,0,0,282.36,65.07Z" transform="translate(98.7 89.84)"/><path class="cls-64" d="M282.7,64.88c0,.29.2.4.45.26a1,1,0,0,0,.46-.79c0-.29-.21-.4-.46-.26A1,1,0,0,0,282.7,64.88Z" transform="translate(98.7 89.84)"/><path class="cls-73" d="M265.18,114.3a1.74,1.74,0,0,1,.78-1.36.56.56,0,0,1,.56-.06h0l.56.33h-.34a.91.91,0,0,1,0,.17,1.74,1.74,0,0,1-.79,1.37.56.56,0,0,1-.16.07l.16.3-.55-.32h0A.56.56,0,0,1,265.18,114.3Z" transform="translate(98.7 89.84)"/><path class="cls-74" d="M265.74,114.63c0,.5.35.71.79.46a1.79,1.79,0,0,0,.79-1.37c0-.5-.36-.71-.79-.46A1.76,1.76,0,0,0,265.74,114.63Z" transform="translate(98.7 89.84)"/><path class="cls-64" d="M266.07,114.44c0,.29.21.4.46.26a1,1,0,0,0,.45-.79c0-.29-.2-.4-.45-.26A1,1,0,0,0,266.07,114.44Z" transform="translate(98.7 89.84)"/><path class="cls-75" d="M281.8,104.09a1.73,1.73,0,0,1,.79-1.37.53.53,0,0,1,.56,0h0l.56.32-.35,0a.79.79,0,0,1,0,.17,1.72,1.72,0,0,1-.79,1.36.65.65,0,0,1-.17.08l.16.3-.54-.32h0A.54.54,0,0,1,281.8,104.09Z" transform="translate(98.7 89.84)"/><path class="cls-76" d="M282.36,104.42c0,.5.36.7.79.45a1.73,1.73,0,0,0,.79-1.37c0-.5-.35-.7-.79-.45A1.75,1.75,0,0,0,282.36,104.42Z" transform="translate(98.7 89.84)"/><path class="cls-64" d="M282.7,104.22c0,.29.2.41.45.26a1,1,0,0,0,.46-.78c0-.29-.21-.41-.46-.26A1,1,0,0,0,282.7,104.22Z" transform="translate(98.7 89.84)"/><polygon class="cls-52" points="398.48 183.48 418.3 172.04 398.48 160.59 378.66 172.04 398.48 183.48"/><path class="cls-77" d="M299,147.31,277.3,134.79a.78.78,0,0,1-.39-.68.8.8,0,0,1,.39-.68L299,120.91a1.59,1.59,0,0,1,1.58,0l21.69,12.52a.8.8,0,0,1,.39.68.78.78,0,0,1-.39.68l-21.69,12.52a1.59,1.59,0,0,1-1.58,0Zm.29-25.9-21.69,12.52a.22.22,0,0,0-.1.18.22.22,0,0,0,.1.19l21.69,12.52a1,1,0,0,0,1,0L322,134.3a.21.21,0,0,0,.11-.19.21.21,0,0,0-.11-.18l-21.68-12.52a1,1,0,0,0-.51-.13A1,1,0,0,0,299.28,121.41Z" transform="translate(98.7 89.84)"/><g class="cls-54"><polygon class="cls-55" points="398.48 233.65 415.28 223.95 398.48 214.25 381.68 223.95 398.48 233.65"/></g><polygon class="cls-56" points="398.48 227.42 418.3 215.97 398.48 204.53 378.66 215.97 398.48 227.42"/><polygon class="cls-78" points="378.66 172.04 378.66 215.97 398.48 227.42 398.48 183.48 378.66 172.04"/><polygon class="cls-55" points="418.3 172.04 418.3 215.97 398.48 227.42 398.48 183.48 418.3 172.04"/><g class="cls-58"><polygon class="cls-44" points="416.96 174.95 416.96 214.44 399.82 224.34 399.82 184.85 416.96 174.95"/></g><polygon class="cls-44" points="381.63 182.65 381.63 183.81 395.51 191.82 395.51 190.66 381.63 182.65"/><polygon class="cls-44" points="381.63 187.56 381.63 188.72 395.51 196.74 395.51 195.57 381.63 187.56"/><polygon class="cls-44" points="381.63 192.47 381.63 193.63 395.51 201.65 395.51 200.48 381.63 192.47"/><polygon class="cls-44" points="381.63 197.38 381.63 198.54 395.51 206.56 395.51 205.39 381.63 197.38"/><polygon class="cls-44" points="381.63 202.29 381.63 203.45 395.51 211.47 395.51 210.3 381.63 202.29"/><polygon class="cls-44" points="381.63 207.2 381.63 208.36 395.51 216.37 395.51 215.21 381.63 207.2"/><g class="cls-79"><polygon class="cls-80" points="398.48 180.47 403.69 180.47 418.3 172.04 402.4 162.86 398.48 162.86 398.48 180.47"/></g><polygon class="cls-81" points="398.48 179.47 412.86 171.16 398.48 162.86 384.1 171.16 398.48 179.47"/><polygon class="cls-82" points="384.1 171.16 384.1 172.17 398.48 180.47 398.48 179.47 384.1 171.16"/><polygon class="cls-83" points="412.86 171.16 412.86 172.17 398.48 180.47 398.48 179.47 412.86 171.16"/><polygon class="cls-64" points="404.06 171.29 404.7 170.93 404.64 170.63 398.74 167.19 397.91 167.58 398.07 167.83 404.06 171.29"/><polygon class="cls-84" points="398.7 167.47 398.07 167.83 397.66 167.6 398.7 166.99 405.11 170.69 404.69 170.93 398.7 167.47"/><polygon class="cls-64" points="402.13 172.41 402.76 172.04 402.71 171.74 396.8 168.3 395.98 168.69 396.13 168.95 402.13 172.41"/><polygon class="cls-85" points="396.77 168.58 396.13 168.95 395.72 168.71 396.77 168.11 403.17 171.8 402.76 172.04 396.77 168.58"/><polygon class="cls-64" points="400.19 173.52 400.83 173.15 400.78 172.85 394.87 169.41 394.05 169.81 394.2 170.06 400.19 173.52"/><polygon class="cls-86" points="394.84 169.69 394.2 170.06 393.79 169.82 394.84 169.22 401.24 172.91 400.83 173.15 394.84 169.69"/><polygon class="cls-64" points="398.26 174.63 398.9 174.26 398.84 173.97 392.93 170.53 392.11 170.92 392.27 171.17 398.26 174.63"/><polygon class="cls-87" points="392.9 170.81 392.27 171.17 391.86 170.94 392.9 170.33 399.31 174.03 398.89 174.26 392.9 170.81"/><g class="cls-58"><polygon class="cls-44" points="418.3 209.03 398.48 197.06 398.48 183.48 418.3 172.04 418.3 209.03"/></g><path class="cls-88" d="M300.57,95.62a1.76,1.76,0,0,1,.79-1.37.57.57,0,0,1,.56,0h0l.55.33h-.34a.91.91,0,0,1,0,.17,1.77,1.77,0,0,1-.78,1.37l-.17.07.16.3-.55-.32h0A.56.56,0,0,1,300.57,95.62Z" transform="translate(98.7 89.84)"/><path class="cls-89" d="M301.13,96c0,.5.35.71.79.46a1.79,1.79,0,0,0,.79-1.37c0-.5-.36-.71-.79-.46A1.76,1.76,0,0,0,301.13,96Z" transform="translate(98.7 89.84)"/><path class="cls-64" d="M301.46,95.76c0,.29.21.4.46.26a1,1,0,0,0,.45-.79c0-.29-.2-.4-.45-.26A1,1,0,0,0,301.46,95.76Z" transform="translate(98.7 89.84)"/><path class="cls-90" d="M317.19,85.41A1.75,1.75,0,0,1,318,84a.53.53,0,0,1,.56-.05h0l.56.32h-.35a1,1,0,0,1,0,.17,1.73,1.73,0,0,1-.79,1.37l-.17.08.16.3-.54-.32h0A.54.54,0,0,1,317.19,85.41Z" transform="translate(98.7 89.84)"/><path class="cls-91" d="M317.75,85.73c0,.51.36.71.79.46a1.73,1.73,0,0,0,.79-1.37c0-.5-.35-.7-.79-.45A1.75,1.75,0,0,0,317.75,85.73Z" transform="translate(98.7 89.84)"/><path class="cls-64" d="M318.09,85.54c0,.29.2.41.45.26A1,1,0,0,0,319,85c0-.29-.21-.41-.46-.26A1,1,0,0,0,318.09,85.54Z" transform="translate(98.7 89.84)"/><path class="cls-92" d="M300.57,135a1.73,1.73,0,0,1,.79-1.37.53.53,0,0,1,.56,0h0l.55.32h-.34a1,1,0,0,1,0,.18,1.74,1.74,0,0,1-.78,1.36l-.17.08.16.3-.55-.32h0A.56.56,0,0,1,300.57,135Z" transform="translate(98.7 89.84)"/><path class="cls-93" d="M301.13,135.29c0,.51.35.71.79.46a1.75,1.75,0,0,0,.79-1.37c0-.5-.36-.7-.79-.45A1.72,1.72,0,0,0,301.13,135.29Z" transform="translate(98.7 89.84)"/><path class="cls-64" d="M301.46,135.1c0,.29.21.41.46.26a1,1,0,0,0,.45-.78c0-.29-.2-.41-.45-.26A1,1,0,0,0,301.46,135.1Z" transform="translate(98.7 89.84)"/><path class="cls-94" d="M317.19,124.75a1.79,1.79,0,0,1,.79-1.37.58.58,0,0,1,.56,0h0l.56.33h-.35a.88.88,0,0,1,0,.17,1.76,1.76,0,0,1-.79,1.37l-.17.07.16.3-.54-.32h0A.54.54,0,0,1,317.19,124.75Z" transform="translate(98.7 89.84)"/><path class="cls-95" d="M317.75,125.08c0,.5.36.71.79.45a1.72,1.72,0,0,0,.79-1.36c0-.5-.35-.71-.79-.46A1.77,1.77,0,0,0,317.75,125.08Z" transform="translate(98.7 89.84)"/><path class="cls-64" d="M318.09,124.89c0,.29.2.4.45.26a1,1,0,0,0,.46-.79c0-.29-.21-.4-.46-.26A1,1,0,0,0,318.09,124.89Z" transform="translate(98.7 89.84)"/><polygon class="cls-52" points="433.87 204.15 453.69 192.7 433.87 181.26 414.05 192.7 433.87 204.15"/><path class="cls-96" d="M334.38,168l-21.69-12.52a.79.79,0,0,1-.39-.68.78.78,0,0,1,.39-.68l21.69-12.52a1.59,1.59,0,0,1,1.58,0l21.69,12.52a.78.78,0,0,1,.39.68.8.8,0,0,1-.39.68L336,168a1.56,1.56,0,0,1-.79.21A1.58,1.58,0,0,1,334.38,168Zm.29-25.91L313,154.59a.22.22,0,0,0-.1.19.21.21,0,0,0,.1.18l21.69,12.52a1,1,0,0,0,1,0L357.36,155a.2.2,0,0,0,.11-.18.21.21,0,0,0-.11-.19l-21.68-12.52a1,1,0,0,0-.51-.13A1,1,0,0,0,334.67,142.07Z" transform="translate(98.7 89.84)"/><g class="cls-54"><polygon class="cls-55" points="433.87 254.31 450.67 244.62 433.87 234.92 417.07 244.62 433.87 254.31"/></g><polygon class="cls-56" points="433.87 248.08 453.69 236.63 433.87 225.19 414.05 236.63 433.87 248.08"/><polygon class="cls-97" points="414.05 192.7 414.05 236.63 433.87 248.08 433.87 204.15 414.05 192.7"/><polygon class="cls-55" points="453.69 192.7 453.69 236.63 433.87 248.08 433.87 204.15 453.69 192.7"/><g class="cls-58"><polygon class="cls-44" points="452.35 195.62 452.35 235.1 435.21 245 435.21 205.51 452.35 195.62"/></g><polygon class="cls-44" points="417.02 203.32 417.02 204.48 430.9 212.49 430.9 211.33 417.02 203.32"/><polygon class="cls-44" points="417.02 208.23 417.02 209.39 430.9 217.4 430.9 216.24 417.02 208.23"/><polygon class="cls-44" points="417.02 213.14 417.02 214.3 430.9 222.31 430.9 221.15 417.02 213.14"/><polygon class="cls-44" points="417.02 218.05 417.02 219.21 430.9 227.22 430.9 226.06 417.02 218.05"/><polygon class="cls-44" points="417.02 222.96 417.02 224.12 430.9 232.13 430.9 230.97 417.02 222.96"/><polygon class="cls-44" points="417.02 227.87 417.02 229.03 430.9 237.04 430.9 235.88 417.02 227.87"/><g class="cls-98"><polygon class="cls-99" points="433.87 201.14 439.08 201.14 453.69 192.7 437.79 183.52 433.87 183.52 433.87 201.14"/></g><polygon class="cls-100" points="433.87 200.13 448.25 191.82 433.87 183.52 419.49 191.82 433.87 200.13"/><polygon class="cls-101" points="419.49 191.82 419.49 192.84 433.87 201.14 433.87 200.13 419.49 191.82"/><polygon class="cls-102" points="448.25 191.82 448.25 192.84 433.87 201.14 433.87 200.13 448.25 191.82"/><polygon class="cls-64" points="439.45 191.96 440.09 191.59 440.03 191.29 434.13 187.85 433.31 188.24 433.46 188.5 439.45 191.96"/><polygon class="cls-103" points="434.09 188.13 433.46 188.5 433.05 188.26 434.09 187.66 440.5 191.35 440.09 191.59 434.09 188.13"/><polygon class="cls-64" points="437.52 193.07 438.15 192.7 438.1 192.41 432.19 188.97 431.37 189.36 431.52 189.61 437.52 193.07"/><polygon class="cls-104" points="432.16 189.24 431.52 189.61 431.11 189.38 432.16 188.77 438.56 192.47 438.15 192.7 432.16 189.24"/><polygon class="cls-64" points="435.58 194.18 436.22 193.82 436.17 193.52 430.26 190.08 429.44 190.47 429.59 190.72 435.58 194.18"/><polygon class="cls-105" points="430.23 190.36 429.59 190.72 429.18 190.49 430.23 189.88 436.63 193.58 436.22 193.82 430.23 190.36"/><polygon class="cls-64" points="433.65 195.3 434.29 194.93 434.23 194.63 428.32 191.19 427.5 191.58 427.66 191.84 433.65 195.3"/><polygon class="cls-106" points="428.29 191.47 427.66 191.84 427.25 191.6 428.29 191 434.7 194.69 434.29 194.93 428.29 191.47"/><g class="cls-58"><polygon class="cls-44" points="453.69 229.69 433.87 217.72 433.87 204.15 453.69 192.7 453.69 229.69"/></g><path class="cls-107" d="M336,116.29a1.73,1.73,0,0,1,.79-1.37.53.53,0,0,1,.56,0h0l.55.32h-.34a1,1,0,0,1,0,.17,1.74,1.74,0,0,1-.78,1.37l-.17.08.16.3-.55-.32h0A.56.56,0,0,1,336,116.29Z" transform="translate(98.7 89.84)"/><path class="cls-108" d="M336.52,116.61c0,.51.35.71.79.46a1.75,1.75,0,0,0,.79-1.37c0-.5-.36-.7-.79-.45A1.72,1.72,0,0,0,336.52,116.61Z" transform="translate(98.7 89.84)"/><path class="cls-64" d="M336.85,116.42c0,.29.21.41.46.26a1,1,0,0,0,.45-.78c0-.29-.2-.41-.45-.27A1,1,0,0,0,336.85,116.42Z" transform="translate(98.7 89.84)"/><path class="cls-109" d="M352.58,106.07a1.79,1.79,0,0,1,.79-1.37.58.58,0,0,1,.56,0h0l.56.33h-.35a.88.88,0,0,1,0,.17,1.76,1.76,0,0,1-.79,1.37l-.17.07.16.3-.54-.32h0A.54.54,0,0,1,352.58,106.07Z" transform="translate(98.7 89.84)"/><path class="cls-110" d="M353.14,106.4c0,.5.36.71.79.45a1.72,1.72,0,0,0,.79-1.36c0-.5-.35-.71-.79-.46A1.77,1.77,0,0,0,353.14,106.4Z" transform="translate(98.7 89.84)"/><path class="cls-64" d="M353.48,106.21c0,.28.2.4.45.26a1,1,0,0,0,.46-.79c0-.29-.21-.41-.46-.26A1,1,0,0,0,353.48,106.21Z" transform="translate(98.7 89.84)"/><path class="cls-111" d="M336,155.63a1.76,1.76,0,0,1,.79-1.37.57.57,0,0,1,.56,0h0l.55.33h-.34a.91.91,0,0,1,0,.17,1.77,1.77,0,0,1-.78,1.37l-.17.07.16.3-.55-.32h0A.56.56,0,0,1,336,155.63Z" transform="translate(98.7 89.84)"/><path class="cls-112" d="M336.52,156c0,.5.35.71.79.45a1.75,1.75,0,0,0,.79-1.36c0-.5-.36-.71-.79-.46A1.74,1.74,0,0,0,336.52,156Z" transform="translate(98.7 89.84)"/><path class="cls-64" d="M336.85,155.77c0,.29.21.4.46.26a1,1,0,0,0,.45-.79c0-.29-.2-.4-.45-.26A1,1,0,0,0,336.85,155.77Z" transform="translate(98.7 89.84)"/><path class="cls-113" d="M352.58,145.41a1.75,1.75,0,0,1,.79-1.36.53.53,0,0,1,.56-.05h0l.56.33h-.35a1,1,0,0,1,0,.17,1.73,1.73,0,0,1-.79,1.37l-.17.08.16.3-.54-.32h0A.55.55,0,0,1,352.58,145.41Z" transform="translate(98.7 89.84)"/><path class="cls-114" d="M353.14,145.74c0,.51.36.71.79.46a1.73,1.73,0,0,0,.79-1.37c0-.5-.35-.7-.79-.45A1.75,1.75,0,0,0,353.14,145.74Z" transform="translate(98.7 89.84)"/><path class="cls-64" d="M353.48,145.55c0,.29.2.41.45.26a1,1,0,0,0,.46-.78.28.28,0,0,0-.46-.27A1,1,0,0,0,353.48,145.55Z" transform="translate(98.7 89.84)"/><polygon class="cls-52" points="323.01 186.68 342.83 175.23 323.01 163.79 303.19 175.23 323.01 186.68"/><path class="cls-115" d="M223.52,150.51,201.83,138a.79.79,0,0,1,0-1.36l21.69-12.52a1.59,1.59,0,0,1,1.58,0l21.69,12.52a.79.79,0,0,1,0,1.36L225.1,150.51a1.58,1.58,0,0,1-.79.21A1.56,1.56,0,0,1,223.52,150.51Zm.29-25.9-21.69,12.52a.2.2,0,0,0,0,.36L223.8,150a1,1,0,0,0,1,0l21.69-12.52a.21.21,0,0,0,0-.36l-21.69-12.52a1,1,0,0,0-.5-.14A1,1,0,0,0,223.81,124.61Z" transform="translate(98.7 89.84)"/><g class="cls-54"><polygon class="cls-55" points="323.01 236.84 339.81 227.15 323.01 217.45 306.21 227.15 323.01 236.84"/></g><polygon class="cls-56" points="323.01 230.61 342.83 219.17 323.01 207.72 303.19 219.17 323.01 230.61"/><polygon class="cls-116" points="303.19 175.23 303.19 219.17 323.01 230.61 323.01 186.68 303.19 175.23"/><polygon class="cls-55" points="342.83 175.23 342.83 219.17 323.01 230.61 323.01 186.68 342.83 175.23"/><g class="cls-58"><polygon class="cls-44" points="341.49 178.15 341.49 217.64 324.35 227.53 324.35 188.04 341.49 178.15"/></g><polygon class="cls-44" points="306.16 185.85 306.16 187.01 320.04 195.02 320.04 193.86 306.16 185.85"/><polygon class="cls-44" points="306.16 190.76 306.16 191.92 320.04 199.93 320.04 198.77 306.16 190.76"/><polygon class="cls-44" points="306.16 195.67 306.16 196.83 320.04 204.84 320.04 203.68 306.16 195.67"/><polygon class="cls-44" points="306.16 200.58 306.16 201.74 320.04 209.75 320.04 208.59 306.16 200.58"/><polygon class="cls-44" points="306.16 205.49 306.16 206.65 320.04 214.66 320.04 213.5 306.16 205.49"/><polygon class="cls-44" points="306.16 210.4 306.16 211.56 320.04 219.57 320.04 218.41 306.16 210.4"/><g class="cls-117"><polygon class="cls-118" points="323.01 183.67 328.22 183.67 342.83 175.23 326.93 166.05 323.01 166.05 323.01 183.67"/></g><polygon class="cls-119" points="323.01 182.66 337.39 174.36 323.01 166.05 308.63 174.36 323.01 182.66"/><polygon class="cls-120" points="308.63 174.36 308.63 175.37 323.01 183.67 323.01 182.66 308.63 174.36"/><polygon class="cls-121" points="337.39 174.36 337.39 175.37 323.01 183.67 323.01 182.66 337.39 174.36"/><polygon class="cls-64" points="328.59 174.49 329.22 174.12 329.17 173.82 323.26 170.38 322.44 170.78 322.6 171.03 328.59 174.49"/><polygon class="cls-122" points="323.23 170.66 322.6 171.03 322.18 170.79 323.23 170.19 329.63 173.89 329.22 174.12 323.23 170.66"/><polygon class="cls-64" points="326.65 175.6 327.29 175.24 327.24 174.94 321.33 171.5 320.51 171.89 320.66 172.14 326.65 175.6"/><polygon class="cls-123" points="321.3 171.78 320.66 172.14 320.25 171.91 321.3 171.3 327.7 175 327.29 175.24 321.3 171.78"/><polygon class="cls-64" points="324.72 176.72 325.36 176.35 325.3 176.05 319.39 172.61 318.57 173 318.73 173.26 324.72 176.72"/><polygon class="cls-124" points="319.36 172.89 318.73 173.26 318.32 173.02 319.36 172.41 325.77 176.11 325.36 176.35 319.36 172.89"/><polygon class="cls-64" points="322.79 177.83 323.42 177.46 323.37 177.16 317.46 173.72 316.64 174.11 316.79 174.37 322.79 177.83"/><polygon class="cls-125" points="317.43 174 316.79 174.37 316.38 174.13 317.43 173.53 323.83 177.22 323.42 177.46 317.43 174"/><g class="cls-58"><polygon class="cls-44" points="342.83 212.22 323.01 200.25 323.01 186.68 342.83 175.23 342.83 212.22"/></g><path class="cls-126" d="M225.09,98.82a1.75,1.75,0,0,1,.79-1.37.53.53,0,0,1,.56,0h0l.56.32-.34,0a.86.86,0,0,1,0,.17,1.72,1.72,0,0,1-.79,1.36.65.65,0,0,1-.17.08l.16.3-.54-.32h0A.54.54,0,0,1,225.09,98.82Z" transform="translate(98.7 89.84)"/><path class="cls-127" d="M225.66,99.15c0,.5.35.7.78.45a1.72,1.72,0,0,0,.79-1.36c0-.51-.35-.71-.79-.46A1.74,1.74,0,0,0,225.66,99.15Z" transform="translate(98.7 89.84)"/><path class="cls-64" d="M226,99c0,.29.2.41.45.26a1,1,0,0,0,.46-.78c0-.29-.2-.41-.46-.26A1,1,0,0,0,226,99Z" transform="translate(98.7 89.84)"/><path class="cls-128" d="M241.72,88.6a1.72,1.72,0,0,1,.79-1.36.56.56,0,0,1,.56-.06h0l.56.33h-.35a.88.88,0,0,1,0,.17,1.77,1.77,0,0,1-.79,1.37.77.77,0,0,1-.17.07l.16.3-.55-.32h0A.55.55,0,0,1,241.72,88.6Z" transform="translate(98.7 89.84)"/><path class="cls-129" d="M242.28,88.93c0,.5.35.71.79.46a1.76,1.76,0,0,0,.79-1.37c0-.5-.35-.71-.79-.46A1.76,1.76,0,0,0,242.28,88.93Z" transform="translate(98.7 89.84)"/><path class="cls-64" d="M242.62,88.74c0,.29.2.4.45.26a1,1,0,0,0,.45-.79c0-.29-.2-.4-.45-.26A1,1,0,0,0,242.62,88.74Z" transform="translate(98.7 89.84)"/><path class="cls-130" d="M225.09,138.16a1.75,1.75,0,0,1,.79-1.36.56.56,0,0,1,.56-.06h0l.56.33h-.34a.91.91,0,0,1,0,.17,1.74,1.74,0,0,1-.79,1.37.61.61,0,0,1-.17.07l.16.3-.54-.32h0A.53.53,0,0,1,225.09,138.16Z" transform="translate(98.7 89.84)"/><path class="cls-131" d="M225.66,138.49c0,.5.35.71.78.46a1.76,1.76,0,0,0,.79-1.37c0-.5-.35-.71-.79-.46A1.77,1.77,0,0,0,225.66,138.49Z" transform="translate(98.7 89.84)"/><path class="cls-64" d="M226,138.3c0,.29.2.4.45.26a1,1,0,0,0,.46-.79c0-.29-.2-.4-.46-.26A1,1,0,0,0,226,138.3Z" transform="translate(98.7 89.84)"/><path class="cls-132" d="M241.72,128a1.73,1.73,0,0,1,.79-1.37.53.53,0,0,1,.56,0h0l.56.32-.35,0a.79.79,0,0,1,0,.17,1.75,1.75,0,0,1-.79,1.36.85.85,0,0,1-.17.08l.16.3-.55-.32h0A.56.56,0,0,1,241.72,128Z" transform="translate(98.7 89.84)"/><path class="cls-133" d="M242.28,128.28c0,.5.35.7.79.45a1.73,1.73,0,0,0,.79-1.37c0-.5-.35-.7-.79-.45A1.73,1.73,0,0,0,242.28,128.28Z" transform="translate(98.7 89.84)"/><path class="cls-64" d="M242.62,128.08c0,.29.2.41.45.26a1,1,0,0,0,.45-.78c0-.29-.2-.41-.45-.26A1,1,0,0,0,242.62,128.08Z" transform="translate(98.7 89.84)"/><polygon class="cls-52" points="358.4 207.34 378.22 195.9 358.4 184.45 338.57 195.9 358.4 207.34"/><path class="cls-134" d="M258.91,171.17l-21.69-12.52a.78.78,0,0,1-.39-.68.8.8,0,0,1,.39-.68l21.69-12.52a1.59,1.59,0,0,1,1.58,0l21.69,12.52a.8.8,0,0,1,.39.68.78.78,0,0,1-.39.68l-21.69,12.52a1.59,1.59,0,0,1-1.58,0Zm.29-25.9-21.69,12.52a.21.21,0,0,0-.11.18.21.21,0,0,0,.11.19l21.68,12.52a1,1,0,0,0,1,0l21.69-12.52A.21.21,0,0,0,282,158a.21.21,0,0,0-.11-.18L260.2,145.27a1,1,0,0,0-1,0Z" transform="translate(98.7 89.84)"/><g class="cls-54"><polygon class="cls-55" points="358.4 257.51 375.2 247.81 358.4 238.11 341.6 247.81 358.4 257.51"/></g><polygon class="cls-56" points="358.4 251.28 378.22 239.83 358.4 228.39 338.57 239.83 358.4 251.28"/><polygon class="cls-135" points="338.57 195.9 338.57 239.83 358.4 251.28 358.4 207.34 338.57 195.9"/><polygon class="cls-55" points="378.22 195.9 378.22 239.83 358.4 251.28 358.4 207.34 378.22 195.9"/><g class="cls-58"><polygon class="cls-44" points="376.88 198.81 376.88 238.3 359.74 248.2 359.74 208.71 376.88 198.81"/></g><polygon class="cls-44" points="341.55 206.51 341.55 207.67 355.43 215.69 355.43 214.52 341.55 206.51"/><polygon class="cls-44" points="341.55 211.42 341.55 212.58 355.43 220.59 355.43 219.43 341.55 211.42"/><polygon class="cls-44" points="341.55 216.33 341.55 217.49 355.43 225.5 355.43 224.34 341.55 216.33"/><polygon class="cls-44" points="341.55 221.24 341.55 222.4 355.43 230.41 355.43 229.25 341.55 221.24"/><polygon class="cls-44" points="341.55 226.15 341.55 227.31 355.43 235.32 355.43 234.16 341.55 226.15"/><polygon class="cls-44" points="341.55 231.06 341.55 232.22 355.43 240.24 355.43 239.07 341.55 231.06"/><g class="cls-136"><polygon class="cls-137" points="358.4 204.34 363.61 204.34 378.22 195.9 362.32 186.72 358.4 186.72 358.4 204.34"/></g><polygon class="cls-138" points="358.4 203.33 372.78 195.02 358.4 186.72 344.01 195.02 358.4 203.33"/><polygon class="cls-139" points="344.01 195.02 344.01 196.03 358.4 204.34 358.4 203.33 344.01 195.02"/><polygon class="cls-140" points="372.78 195.02 372.78 196.03 358.4 204.34 358.4 203.33 372.78 195.02"/><polygon class="cls-64" points="363.98 195.15 364.62 194.79 364.56 194.49 358.65 191.05 357.83 191.44 357.99 191.69 363.98 195.15"/><polygon class="cls-141" points="358.62 191.33 357.99 191.69 357.57 191.46 358.62 190.85 365.02 194.55 364.61 194.79 358.62 191.33"/><polygon class="cls-64" points="362.04 196.27 362.68 195.9 362.63 195.6 356.72 192.16 355.9 192.55 356.05 192.81 362.04 196.27"/><polygon class="cls-142" points="356.69 192.44 356.05 192.81 355.64 192.57 356.69 191.97 363.09 195.66 362.68 195.9 356.69 192.44"/><polygon class="cls-64" points="360.11 197.38 360.75 197.01 360.69 196.71 354.79 193.28 353.96 193.67 354.12 193.92 360.11 197.38"/><polygon class="cls-143" points="354.75 193.55 354.12 193.92 353.71 193.68 354.75 193.08 361.16 196.78 360.75 197.01 354.75 193.55"/><polygon class="cls-64" points="358.18 198.49 358.81 198.13 358.76 197.83 352.85 194.39 352.03 194.78 352.18 195.03 358.18 198.49"/><polygon class="cls-144" points="352.82 194.67 352.18 195.03 351.77 194.8 352.82 194.19 359.22 197.89 358.81 198.13 352.82 194.67"/><g class="cls-58"><polygon class="cls-44" points="378.22 232.89 358.4 220.92 358.4 207.34 378.22 195.9 378.22 232.89"/></g><path class="cls-145" d="M260.48,119.48a1.75,1.75,0,0,1,.79-1.36.56.56,0,0,1,.56-.06h0l.56.33h-.34a.91.91,0,0,1,0,.17,1.74,1.74,0,0,1-.79,1.37.51.51,0,0,1-.17.07l.17.3-.55-.32h0A.54.54,0,0,1,260.48,119.48Z" transform="translate(98.7 89.84)"/><path class="cls-146" d="M261.05,119.81c0,.5.35.71.79.46a1.77,1.77,0,0,0,.78-1.37c0-.5-.35-.71-.78-.46A1.76,1.76,0,0,0,261.05,119.81Z" transform="translate(98.7 89.84)"/><path class="cls-64" d="M261.38,119.62c0,.29.2.4.46.26a1,1,0,0,0,.45-.79c0-.29-.2-.4-.45-.26A1,1,0,0,0,261.38,119.62Z" transform="translate(98.7 89.84)"/><path class="cls-147" d="M277.11,109.27a1.73,1.73,0,0,1,.79-1.37.53.53,0,0,1,.56-.05h0l.56.32h-.35a1,1,0,0,1,0,.18,1.75,1.75,0,0,1-.79,1.36.85.85,0,0,1-.17.08l.16.3-.55-.32h0A.56.56,0,0,1,277.11,109.27Z" transform="translate(98.7 89.84)"/><path class="cls-148" d="M277.67,109.6c0,.5.36.7.79.45a1.73,1.73,0,0,0,.79-1.37c0-.5-.35-.7-.79-.45A1.75,1.75,0,0,0,277.67,109.6Z" transform="translate(98.7 89.84)"/><path class="cls-64" d="M278,109.4c0,.29.2.41.45.26a1,1,0,0,0,.45-.78c0-.29-.2-.41-.45-.26A1,1,0,0,0,278,109.4Z" transform="translate(98.7 89.84)"/><path class="cls-149" d="M260.48,158.83a1.75,1.75,0,0,1,.79-1.37.53.53,0,0,1,.56-.05h0l.56.32-.34,0a.86.86,0,0,1,0,.17,1.72,1.72,0,0,1-.79,1.36.53.53,0,0,1-.17.08l.17.3-.55-.32h0A.54.54,0,0,1,260.48,158.83Z" transform="translate(98.7 89.84)"/><path class="cls-150" d="M261.05,159.16c0,.5.35.7.79.45a1.74,1.74,0,0,0,.78-1.37c0-.5-.35-.7-.78-.45A1.73,1.73,0,0,0,261.05,159.16Z" transform="translate(98.7 89.84)"/><path class="cls-64" d="M261.38,159c0,.29.2.41.46.26a1,1,0,0,0,.45-.78c0-.29-.2-.41-.45-.26A1,1,0,0,0,261.38,159Z" transform="translate(98.7 89.84)"/><path class="cls-151" d="M277.11,148.61a1.72,1.72,0,0,1,.79-1.36.56.56,0,0,1,.56-.06h0l.56.33h-.35a.88.88,0,0,1,0,.17,1.79,1.79,0,0,1-.79,1.37l-.17.07.16.3-.55-.32h0A.56.56,0,0,1,277.11,148.61Z" transform="translate(98.7 89.84)"/><path class="cls-152" d="M277.67,148.94c0,.5.36.71.79.46a1.76,1.76,0,0,0,.79-1.37c0-.5-.35-.71-.79-.46A1.79,1.79,0,0,0,277.67,148.94Z" transform="translate(98.7 89.84)"/><path class="cls-64" d="M278,148.75c0,.29.2.4.45.26a1,1,0,0,0,.45-.79c0-.29-.2-.4-.45-.26A1,1,0,0,0,278,148.75Z" transform="translate(98.7 89.84)"/><polygon class="cls-52" points="393.79 228.01 413.61 216.56 393.79 205.12 373.97 216.56 393.79 228.01"/><path class="cls-153" d="M294.3,191.84l-21.69-12.52a.79.79,0,0,1-.39-.68.78.78,0,0,1,.39-.68l21.69-12.52a1.59,1.59,0,0,1,1.58,0L317.57,178a.78.78,0,0,1,.39.68.79.79,0,0,1-.39.68l-21.69,12.52a1.59,1.59,0,0,1-1.58,0Zm.29-25.91L272.9,178.45a.21.21,0,0,0-.11.19.2.2,0,0,0,.11.18l21.69,12.52a1,1,0,0,0,1,0l21.69-12.52a.2.2,0,0,0,.11-.18.21.21,0,0,0-.11-.19l-21.69-12.52a1,1,0,0,0-1,0Z" transform="translate(98.7 89.84)"/><g class="cls-54"><polygon class="cls-55" points="393.79 278.17 410.59 268.48 393.79 258.78 376.99 268.48 393.79 278.17"/></g><polygon class="cls-56" points="393.79 271.94 413.61 260.5 393.79 249.05 373.97 260.5 393.79 271.94"/><polygon class="cls-154" points="373.97 216.56 373.97 260.5 393.79 271.94 393.79 228.01 373.97 216.56"/><polygon class="cls-55" points="413.61 216.56 413.61 260.5 393.79 271.94 393.79 228.01 413.61 216.56"/><g class="cls-58"><polygon class="cls-44" points="412.27 219.48 412.27 258.96 395.13 268.86 395.13 229.37 412.27 219.48"/></g><polygon class="cls-44" points="376.94 227.18 376.94 228.34 390.82 236.35 390.82 235.19 376.94 227.18"/><polygon class="cls-44" points="376.94 232.09 376.94 233.25 390.82 241.26 390.82 240.1 376.94 232.09"/><polygon class="cls-44" points="376.94 237 376.94 238.16 390.82 246.17 390.82 245.01 376.94 237"/><polygon class="cls-44" points="376.94 241.91 376.94 243.07 390.82 251.08 390.82 249.92 376.94 241.91"/><polygon class="cls-44" points="376.94 246.82 376.94 247.98 390.82 255.99 390.82 254.83 376.94 246.82"/><polygon class="cls-44" points="376.94 251.73 376.94 252.89 390.82 260.9 390.82 259.74 376.94 251.73"/><g class="cls-155"><polygon class="cls-156" points="393.79 225 399 225 413.61 216.56 397.71 207.38 393.79 207.38 393.79 225"/></g><polygon class="cls-157" points="393.79 223.99 408.17 215.69 393.79 207.38 379.41 215.69 393.79 223.99"/><polygon class="cls-158" points="379.41 215.69 379.41 216.7 393.79 225 393.79 223.99 379.41 215.69"/><polygon class="cls-159" points="408.17 215.69 408.17 216.69 393.79 225 393.79 223.99 408.17 215.69"/><polygon class="cls-64" points="399.37 215.82 400 215.45 399.95 215.15 394.04 211.71 393.22 212.1 393.38 212.36 399.37 215.82"/><polygon class="cls-160" points="394.01 211.99 393.38 212.36 392.96 212.12 394.01 211.52 400.41 215.21 400 215.45 394.01 211.99"/><polygon class="cls-64" points="397.43 216.93 398.07 216.56 398.02 216.26 392.11 212.83 391.29 213.22 391.44 213.47 397.43 216.93"/><polygon class="cls-161" points="392.08 213.1 391.44 213.47 391.03 213.24 392.08 212.63 398.48 216.33 398.07 216.56 392.08 213.1"/><polygon class="cls-64" points="395.5 218.04 396.14 217.68 396.08 217.38 390.18 213.94 389.36 214.33 389.51 214.59 395.5 218.04"/><polygon class="cls-162" points="390.14 214.22 389.51 214.59 389.1 214.35 390.14 213.74 396.55 217.44 396.14 217.68 390.14 214.22"/><polygon class="cls-64" points="393.57 219.16 394.2 218.79 394.15 218.49 388.24 215.05 387.42 215.44 387.57 215.7 393.57 219.16"/><polygon class="cls-163" points="388.21 215.33 387.57 215.7 387.16 215.46 388.21 214.86 394.61 218.55 394.2 218.79 388.21 215.33"/><g class="cls-58"><polygon class="cls-44" points="413.61 253.55 393.79 241.58 393.79 228.01 413.61 216.56 413.61 253.55"/></g><path class="cls-164" d="M295.88,140.15a1.74,1.74,0,0,1,.78-1.37.53.53,0,0,1,.56-.05h0l.56.32h-.34a1,1,0,0,1,0,.17,1.73,1.73,0,0,1-.79,1.37l-.17.08.17.3-.55-.32h0A.54.54,0,0,1,295.88,140.15Z" transform="translate(98.7 89.84)"/><path class="cls-165" d="M296.44,140.47c0,.51.35.71.79.46a1.74,1.74,0,0,0,.78-1.37c0-.5-.35-.7-.78-.45A1.72,1.72,0,0,0,296.44,140.47Z" transform="translate(98.7 89.84)"/><path class="cls-64" d="M296.77,140.28c0,.29.21.41.46.26a1,1,0,0,0,.45-.78c0-.29-.2-.41-.45-.26A1,1,0,0,0,296.77,140.28Z" transform="translate(98.7 89.84)"/><path class="cls-166" d="M312.5,129.93a1.76,1.76,0,0,1,.79-1.37.58.58,0,0,1,.56-.05h0l.56.33h-.35a.88.88,0,0,1,0,.17,1.76,1.76,0,0,1-.79,1.37l-.17.07.16.3-.55-.32h0A.56.56,0,0,1,312.5,129.93Z" transform="translate(98.7 89.84)"/><path class="cls-167" d="M313.06,130.26c0,.5.36.71.79.45a1.72,1.72,0,0,0,.79-1.36c0-.5-.35-.71-.79-.46A1.77,1.77,0,0,0,313.06,130.26Z" transform="translate(98.7 89.84)"/><path class="cls-64" d="M313.4,130.07c0,.29.2.4.45.26a1,1,0,0,0,.46-.79c0-.29-.21-.4-.46-.26A1,1,0,0,0,313.4,130.07Z" transform="translate(98.7 89.84)"/><path class="cls-168" d="M295.88,179.49a1.77,1.77,0,0,1,.78-1.37.58.58,0,0,1,.56-.05h0l.56.33h-.34a.91.91,0,0,1,0,.17,1.76,1.76,0,0,1-.79,1.37l-.17.07.17.3-.55-.32h0A.54.54,0,0,1,295.88,179.49Z" transform="translate(98.7 89.84)"/><path class="cls-169" d="M296.44,179.82c0,.5.35.71.79.45a1.74,1.74,0,0,0,.78-1.36c0-.5-.35-.71-.78-.46A1.74,1.74,0,0,0,296.44,179.82Z" transform="translate(98.7 89.84)"/><path class="cls-64" d="M296.77,179.63c0,.29.21.4.46.26a1,1,0,0,0,.45-.79c0-.29-.2-.4-.45-.26A1,1,0,0,0,296.77,179.63Z" transform="translate(98.7 89.84)"/><path class="cls-170" d="M312.5,169.28a1.73,1.73,0,0,1,.79-1.37.53.53,0,0,1,.56,0h0l.56.32h-.35a1,1,0,0,1,0,.17,1.73,1.73,0,0,1-.79,1.37l-.17.08.16.3-.55-.32h0A.56.56,0,0,1,312.5,169.28Z" transform="translate(98.7 89.84)"/><path class="cls-171" d="M313.06,169.6c0,.51.36.71.79.46a1.73,1.73,0,0,0,.79-1.37c0-.5-.35-.7-.79-.45A1.75,1.75,0,0,0,313.06,169.6Z" transform="translate(98.7 89.84)"/><path class="cls-64" d="M313.4,169.41c0,.29.2.41.45.26a1,1,0,0,0,.46-.78.28.28,0,0,0-.46-.27A1,1,0,0,0,313.4,169.41Z" transform="translate(98.7 89.84)"/><polygon class="cls-172" points="406.76 231.97 411.13 229.45 411.13 228.49 406.76 231.01 406.76 231.97"/><polygon class="cls-172" points="404.52 233.26 406.09 232.35 406.09 231.4 404.52 232.3 404.52 233.26"/><polygon class="cls-172" points="402.78 234.26 403.85 233.65 403.85 232.69 402.78 233.31 402.78 234.26"/><polygon class="cls-172" points="408.75 233.01 411.13 231.64 411.13 230.68 408.75 232.05 408.75 233.01"/><polygon class="cls-172" points="405.17 235.08 408.08 233.4 408.08 232.44 405.17 234.12 405.17 235.08"/><polygon class="cls-172" points="403.43 236.09 404.5 235.47 404.5 234.51 403.43 235.13 403.43 236.09"/><polygon class="cls-172" points="401.78 237.04 402.85 236.42 402.85 235.46 401.78 236.08 401.78 237.04"/><polygon class="cls-172" points="409.41 234.82 411.13 233.83 411.13 232.87 409.41 233.87 409.41 234.82"/><polygon class="cls-172" points="408.15 235.55 408.74 235.21 408.74 234.25 408.15 234.59 408.15 235.55"/><polygon class="cls-172" points="406.42 236.55 407.48 235.94 407.48 234.98 406.42 235.59 406.42 236.55"/><polygon class="cls-172" points="404.77 239.69 411.13 236.02 411.13 235.06 404.77 238.73 404.77 239.69"/><polygon class="cls-172" points="402.53 240.99 404.11 240.08 404.11 239.12 402.53 240.03 402.53 240.99"/><polygon class="cls-172" points="409.41 239.21 411.13 238.21 411.13 237.25 409.41 238.25 409.41 239.21"/><polygon class="cls-172" points="405.37 241.54 408.74 239.59 408.74 238.63 405.37 240.58 405.37 241.54"/><polygon class="cls-172" points="403.63 242.54 404.7 241.93 404.7 240.97 403.63 241.59 403.63 242.54"/><polygon class="cls-172" points="407.61 242.44 411.13 240.41 411.13 239.45 407.61 241.48 407.61 242.44"/><polygon class="cls-172" points="404.39 244.3 406.94 242.83 406.94 241.87 404.39 243.34 404.39 244.3"/><polygon class="cls-172" points="402 245.68 403.72 244.68 403.72 243.72 402 244.72 402 245.68"/><polygon class="cls-172" points="409.94 243.28 411.13 242.6 411.13 241.64 409.94 242.32 409.94 243.28"/><polygon class="cls-172" points="407.7 244.58 409.27 243.67 409.27 242.71 407.7 243.62 407.7 244.58"/><polygon class="cls-172" points="404.5 246.43 407.03 244.96 407.03 244 404.5 245.47 404.5 246.43"/><polygon class="cls-172" points="407.48 246.9 411.13 244.79 411.13 243.83 407.48 245.94 407.48 246.9"/><polygon class="cls-172" points="403.4 249.25 406.82 247.28 406.82 246.32 403.4 248.29 403.4 249.25"/><polygon class="cls-172" points="401.66 250.25 402.73 249.64 402.73 248.68 401.66 249.3 401.66 250.25"/><polygon class="cls-172" points="400 251.22 401.07 250.6 401.07 249.64 400 250.26 400 251.22"/><polygon class="cls-172" points="408.95 248.24 411.13 246.98 411.13 246.02 408.95 247.28 408.95 248.24"/><polygon class="cls-172" points="399.81 235.98 396.78 237.73 396.78 236.77 399.81 235.02 399.81 235.98"/><polygon class="cls-172" points="399.16 238.55 396.78 239.92 396.78 238.96 399.16 237.59 399.16 238.55"/><polygon class="cls-172" points="398.5 241.12 396.78 242.12 396.78 241.16 398.5 240.16 398.5 241.12"/><polygon class="cls-172" points="399.29 242.86 396.78 244.31 396.78 243.35 399.29 241.9 399.29 242.86"/><polygon class="cls-172" points="398.5 245.5 396.78 246.5 396.78 245.54 398.5 244.54 398.5 245.5"/><polygon class="cls-172" points="398.96 247.43 396.78 248.69 396.78 247.73 398.96 246.47 398.96 247.43"/><polygon class="cls-172" points="397.97 250.2 396.78 250.88 396.78 249.92 397.97 249.24 397.97 250.2"/><polygon class="cls-172" points="399.09 251.74 396.78 253.07 396.78 252.12 399.09 250.78 399.09 251.74"/><polygon class="cls-172" points="398.96 254 396.78 255.27 396.78 254.31 398.96 253.05 398.96 254"/><polygon class="cls-172" points="407.35 249.16 408.28 248.63 408.28 247.67 407.35 248.21 407.35 249.16"/><polygon class="cls-172" points="404.59 250.76 406.68 249.55 406.68 248.59 404.59 249.8 404.59 250.76"/><polygon class="cls-172" points="402.86 258.13 406.39 256.09 406.39 255.13 402.86 257.17 402.86 258.13"/><polygon class="cls-172" points="400.44 259.53 401.83 258.72 401.83 257.76 400.44 258.57 400.44 259.53"/><path class="cls-173" d="M113,201.37a4.7,4.7,0,0,1-2.33-.62l-8.72-5,.54-.92,8.71,5a3.65,3.65,0,0,0,3.59,0l22.92-13.24.54.93-22.93,13.23A4.66,4.66,0,0,1,113,201.37Z" transform="translate(98.7 89.84)"/><path class="cls-174" d="M79.5,208.07a6.56,6.56,0,0,1-3.27-.87L5.62,166.44a1.51,1.51,0,0,1-.74-1.3,1.47,1.47,0,0,1,.74-1.28l44.14-25.49.27.15L123.64,181a1.48,1.48,0,0,1,0,2.58L82.77,207.2A6.56,6.56,0,0,1,79.5,208.07ZM49.76,139.6,6.16,164.78a.41.41,0,0,0,0,.73l70.61,40.77a5.49,5.49,0,0,0,5.46,0l40.88-23.6a.42.42,0,0,0,0-.73Z" transform="translate(98.7 89.84)"/><path class="cls-175" d="M49.67,121.35,59.51,63l-.79-.34L59.91,62h0a.87.87,0,0,1,.91.06l78.62,45.39a2.24,2.24,0,0,1,1,2l-9.92,58.82a.73.73,0,0,1-.41.6h0l-1.16.68-.2-1.09.06,0L50.69,123.35A2.25,2.25,0,0,1,49.67,121.35Z" transform="translate(98.7 89.84)"/><path class="cls-176" d="M139,109l1.29-.57a1.73,1.73,0,0,1,.17,1l-9.92,58.82a.73.73,0,0,1-.41.6h0l-1.16.68-.2-1.09.06,0-4-2.28Z" transform="translate(98.7 89.84)"/><path class="cls-55" d="M49.46,124.05l78.62,45.39c.6.35,1.12.15,1.23-.48l9.92-58.82a2.24,2.24,0,0,0-1-2L59.59,62.75c-.61-.35-1.13-.15-1.24.48l-9.91,58.83A2.21,2.21,0,0,0,49.46,124.05Z" transform="translate(98.7 89.84)"/><g class="cls-58"><polygon class="cls-44" points="159.31 156.34 235.1 200.09 225.7 255.5 149.97 211.77 159.31 156.34"/></g><path class="cls-177" d="M0,151.9l4.29,2.24,43-24.83a3.11,3.11,0,0,1,2.81.11l74.2,42.84c.71-.4,4-1.95,4-1.95l-1.57,4.09h0a.86.86,0,0,1-.44.49L81,201a3.11,3.11,0,0,1-2.81-.12L2.24,157.09a1.34,1.34,0,0,1-.63-.68h0Z" transform="translate(98.7 89.84)"/><path class="cls-178" d="M.7,152.61l77.82,44.93a3.23,3.23,0,0,0,2.88.12l46.44-26.81c.73-.43.64-1.17-.21-1.67L49.81,124.26a3.16,3.16,0,0,0-2.88-.12L.5,151C-.24,151.37-.15,152.12.7,152.61Z" transform="translate(98.7 89.84)"/><path class="cls-56" d="M127.84,170.17,81.4,197a3.16,3.16,0,0,1-2.88-.12L.7,151.94a1.59,1.59,0,0,1-.61-.6c-.23.41,0,.91.61,1.27l77.82,44.93a3.23,3.23,0,0,0,2.88.12l46.44-26.81a.77.77,0,0,0,.4-1.07A1,1,0,0,1,127.84,170.17Z" transform="translate(98.7 89.84)"/><path class="cls-179" d="M102,187.82V187c0-.08,0-.11-.11-.08l-3,1.74a.26.26,0,0,0-.11.21v.85c0,.08,0,.12.11.09l3-1.74A.25.25,0,0,0,102,187.82Z" transform="translate(98.7 89.84)"/><path class="cls-179" d="M97.49,190.42v-.86c0-.08,0-.12-.11-.08l-3,1.74a.26.26,0,0,0-.11.21v.85c0,.08,0,.12.11.08l3-1.73A.27.27,0,0,0,97.49,190.42Z" transform="translate(98.7 89.84)"/><path class="cls-180" d="M115.73,168.33,51.06,131a1.38,1.38,0,0,0-1.39,0l-23,13.32a.5.5,0,0,0,0,.86L91.28,182.5a1.38,1.38,0,0,0,1.39,0l23.06-13.31A.5.5,0,0,0,115.73,168.33Z" transform="translate(98.7 89.84)"/><path class="cls-181" d="M115.73,169.19l-.23.14-64.44-37.2a1.38,1.38,0,0,0-1.39,0l-22.8,13.19-.23-.14a.5.5,0,0,1,0-.86l23-13.32a1.38,1.38,0,0,1,1.39,0l64.67,37.33A.5.5,0,0,1,115.73,169.19Z" transform="translate(98.7 89.84)"/><polygon class="cls-55" points="146.63 224.21 202.8 256.64 205.3 255.2 149.13 222.77 146.63 224.21"/><polygon class="cls-55" points="140.51 227.75 193.2 258.17 195.69 256.72 143.01 226.31 140.51 227.75"/><polygon class="cls-55" points="136.52 230.05 198.56 265.86 201.05 264.42 139.02 228.61 136.52 230.05"/><polygon class="cls-55" points="132.53 232.35 194.57 268.17 197.06 266.73 135.03 230.91 132.53 232.35"/><polygon class="cls-55" points="128.54 234.65 190.58 270.47 193.08 269.03 131.04 233.21 128.54 234.65"/><polygon class="cls-55" points="206.2 258.6 208.7 260.04 211.19 258.6 208.7 257.16 206.2 258.6"/><polygon class="cls-55" points="197.39 260.59 202.57 263.58 205.07 262.14 199.89 259.14 197.39 260.59"/><path class="cls-182" d="M48.57,177.37,31.14,167.3a.75.75,0,0,1,0-1.42L43.06,159a2.75,2.75,0,0,1,2.47,0L63,169.06a.76.76,0,0,1,0,1.43L51,177.37A2.75,2.75,0,0,1,48.57,177.37Z" transform="translate(98.7 89.84)"/><path class="cls-181" d="M63,169.64,45.53,159.58a2.69,2.69,0,0,0-2.47,0l-11.92,6.88a1.09,1.09,0,0,0-.43.42c-.18-.34,0-.73.43-1L43.06,159a2.75,2.75,0,0,1,2.47,0L63,169.06c.47.27.6.66.42,1A1.05,1.05,0,0,0,63,169.64Z" transform="translate(98.7 89.84)"/><g class="cls-183"><g class="cls-184"><path class="cls-185" d="M49.74,124.16l77.81,44.93a3.2,3.2,0,0,0,2.88.12l46.44-26.81c.74-.43.64-1.17-.21-1.66L98.84,95.81A3.21,3.21,0,0,0,96,95.69L49.53,122.5C48.79,122.93,48.88,123.67,49.74,124.16Z" transform="translate(98.7 89.84)"/><path class="cls-186" d="M127.79,132.22l-17.44-10.07a.75.75,0,0,1,0-1.42l11.92-6.89a2.75,2.75,0,0,1,2.47,0l17.44,10.07a.75.75,0,0,1,0,1.42l-11.93,6.89A2.73,2.73,0,0,1,127.79,132.22Z" transform="translate(98.7 89.84)"/><path class="cls-181" d="M142.18,124.49l-17.44-10.06a2.69,2.69,0,0,0-2.47,0l-11.92,6.88a1.09,1.09,0,0,0-.43.42c-.18-.34,0-.73.43-1l11.92-6.89a2.75,2.75,0,0,1,2.47,0l17.44,10.07c.47.27.61.66.43,1A1.16,1.16,0,0,0,142.18,124.49Z" transform="translate(98.7 89.84)"/><path class="cls-180" d="M149.84,148,85.18,110.62a1.4,1.4,0,0,0-1.4,0l-23,13.32a.5.5,0,0,0,0,.86l64.64,37.32a1.41,1.41,0,0,0,1.39,0l23.06-13.31A.5.5,0,0,0,149.84,148Z" transform="translate(98.7 89.84)"/><path class="cls-181" d="M149.84,148.81l-.23.13-64.43-37.2a1.4,1.4,0,0,0-1.4,0L61,124.93l-.24-.13a.5.5,0,0,1,0-.86l23-13.32a1.43,1.43,0,0,1,1.4,0L149.84,148A.5.5,0,0,1,149.84,148.81Z" transform="translate(98.7 89.84)"/><polygon class="cls-55" points="165.48 212.87 221.82 245.39 219.59 246.68 163.25 214.16 165.48 212.87"/><polygon class="cls-55" points="171.42 209.44 224.96 240.36 222.73 241.64 169.19 210.73 171.42 209.44"/><polygon class="cls-55" points="228.96 242.66 233.96 245.55 231.73 246.84 226.73 243.95 228.96 242.66"/><polygon class="cls-55" points="224.54 246.97 228.03 248.98 225.79 250.27 222.31 248.26 224.54 246.97"/><polygon class="cls-55" points="175.13 207.29 237.68 243.4 235.45 244.69 172.9 208.58 175.13 207.29"/><polygon class="cls-55" points="178.85 205.15 241.4 241.26 239.17 242.54 176.62 206.43 178.85 205.15"/><polygon class="cls-55" points="182.57 203 245.12 239.11 242.89 240.4 180.34 204.29 182.57 203"/></g></g></svg>