<svg xmlns="http://www.w3.org/2000/svg" xmlns:xlink="http://www.w3.org/1999/xlink" viewBox="0 0 2495.97 2073.01" width="600"><defs><style>.cls-1{isolation:isolate;}.cls-2,.cls-23,.cls-6{fill:#fff;}.cls-10,.cls-11,.cls-2{opacity:0.5;}.cls-3,.cls-8{fill:#438be3;}.cls-23,.cls-24,.cls-3,.cls-7{opacity:0.2;}.cls-10,.cls-11,.cls-3,.cls-7{mix-blend-mode:multiply;}.cls-4{fill:#c7deeb;}.cls-5{fill:#d4ebf8;}.cls-9{fill:#0080ff;}.cls-10{fill:url(#linear-gradient);}.cls-11{fill:url(#linear-gradient-2);}.cls-12{fill:#d9e8f9;}.cls-13{fill:#b4d1f4;}.cls-14{fill:#f9ffff;}.cls-15{fill:url(#linear-gradient-3);}.cls-16{fill:#f07;}.cls-17{fill:#4ceaf5;}.cls-18{fill:#c4d4ec;}.cls-19{fill:#1ed6fe;}.cls-20{opacity:0.3;}.cls-21{fill:#1ab8c3;}.cls-22{fill:#b4002c;}.cls-25{fill:#134c84;}.cls-26{fill:#001135;}.cls-27{fill:#367ed6;}.cls-28{fill:#1d65bd;}.cls-29{fill:#f7c2b8;}.cls-30{fill:#d19c92;}.cls-31{fill:#412999;}.cls-32{fill:#281080;}.cls-33{fill:#145ea8;}.cls-34{fill:#bad1de;}</style><linearGradient id="linear-gradient" x1="2" y1="1453.63" x2="1213.88" y2="1453.63" gradientUnits="userSpaceOnUse"><stop offset="0" stop-color="#fff"/><stop offset="1" stop-color="#b4d1f4"/></linearGradient><linearGradient id="linear-gradient-2" x1="230.79" y1="2107.49" x2="1832.06" y2="1282.84" xlink:href="#linear-gradient"/><linearGradient id="linear-gradient-3" x1="518.92" y1="523.62" x2="1665.31" y2="523.62" gradientUnits="userSpaceOnUse"><stop offset="0" stop-color="#2693d1"/><stop offset="0.16" stop-color="#238bca"/><stop offset="0.4" stop-color="#1b75b6"/><stop offset="0.71" stop-color="#0f5195"/><stop offset="1" stop-color="#002770"/></linearGradient></defs><title>shutterstock_1421765270 [Converted] 1</title><g class="cls-1"><g id="_3" data-name=" 3"><path class="cls-2" d="M2496,1324.67l-.93-.54-95.32,55-105.25-60.76,95.32-55-.93-.53-95.32,55-105.25-60.77,95.32-55-.93-.54-95.32,55-105.25-60.76,95.31-55-.93-.53-95.32,55-105.24-60.77,95.31-55-.93-.54-95.32,55-105.24-60.77,95.31-55-.93-.54-95.31,55-105.26-60.77,95.32-55-.93-.54-95.32,55-105.25-60.77,95.32-55-.93-.54-95.32,55L1551.2,889.26l95.32-55-.94-.54-95.31,55L1445,828l95.32-55-.94-.54-95.31,55-105.25-60.76,95.31-55-.93-.54-95.31,55-105.25-60.77,95.31-55-.93-.54-95.31,55L1126.48,644l95.31-55-.93-.54-95.32,55-80.37-46.41-.94.54L1124.61,644,1019.37,704.8,939,658.39l-.94.55,80.38,46.4L913.18,766.11,832.8,719.7l-.93.54,80.38,46.41L807,827.41,726.62,781l-.93.54L806.06,828,700.82,888.72l-80.38-46.41-.93.54,80.38,46.41L594.64,950l-80.38-46.4-.93.54,80.38,46.4-105.25,60.77-80.38-46.41-.93.54,80.37,46.41-105.24,60.77-80.38-46.41-.94.54,80.38,46.4L276.1,1133.94l-80.38-46.4-.93.54,80.37,46.4-105.24,60.77-80.38-46.41-.93.54L169,1195.79,63.73,1256.55l-44.66-25.78v1.08l43.73,25.24-43.73,25.25v1.08l44.66-25.79L169,1318.4,63.73,1379.16l-44.66-25.78v1.08L62.8,1379.7,19.07,1405V1406l44.66-25.79L169,1441,63.73,1501.78,19.07,1476v1.08l43.73,25.24-43.73,25.25v1.08l44.66-25.79L169,1563.62l-68.71,39.67.94.54,68.71-39.67,105.24,60.76-68.7,39.67.93.54,68.71-39.67,105.24,60.77-68.7,39.68.93.53,68.71-39.67,105.24,60.77-68.7,39.67.93.54,68.71-39.67,105.25,60.77L525,1848.51l.93.54,68.71-39.66,105.25,60.76-68.71,39.67.93.54,68.71-39.67,105.24,60.76-68.7,39.68.94.53L807,1932l105.25,60.77L901.47,1999h1.87l9.84-5.68L923,1999h1.86l-10.77-6.22L1019.37,1932l105.24,60.77-10.78,6.22h1.87l9.84-5.68,9.85,5.68h1.87l-10.78-6.22L1231.73,1932,1337,1992.77,1326.2,1999h1.87l9.84-5.68,9.84,5.68h1.87l-10.78-6.22L1444.09,1932l66.21,38.23.94-.54L1445,1931.45l105.25-60.76,66.21,38.23.94-.54-66.22-38.23,105.25-60.76,66.21,38.22.94-.53-66.22-38.23,105.25-60.77,66.21,38.23.94-.54-66.22-38.23,105.26-60.77L1935,1725l.94-.54-66.21-38.23L1975,1625.46l66.21,38.23.94-.54-66.21-38.23,105.24-60.76,66.22,38.23.93-.54-66.21-38.23,105.25-60.77,66.21,38.23.93-.54-66.21-38.23,105.25-60.76,66.21,38.23.93-.54L2294.47,1441l105.25-60.77,66.21,38.23.94-.54-66.22-38.23Zm-203.37-6.27-105.24,60.76-105.25-60.76,105.25-60.77Zm-1060.87-.54-105.25-60.77,105.25-60.77L1337,1257.09Zm106.18-60.23,105.24,60.77-105.24,60.76-105.25-60.76Zm-107.12,60.77-105.25,60.76L1020.3,1318.4l105.24-60.77Zm-105.25-61.85-105.24-60.76L1125.54,1135l105.25,60.77Zm-.93.54-105.24,60.77-105.25-60.77,105.25-60.77Zm-106.18,61.31-105.25,60.76L807.94,1318.4l105.24-60.77Zm-106.18,61.3L807,1440.47,701.75,1379.7,807,1318.94Zm.93.54L1018.43,1441l-105.25,60.77L807.94,1441Zm.94-.54,105.25-60.76,105.24,60.76-105.24,60.77Zm211.42.54L1230.79,1441l-105.25,60.77L1020.3,1441Zm.94-.54,105.25-60.76L1337,1379.7l-105.24,60.77Zm211.43.54L1443.15,1441l-105.24,60.77L1232.66,1441Zm.93-.54,105.25-60.76,105.25,60.76-105.25,60.77ZM1445,1318.4l105.25-60.77,105.24,60.77-105.24,60.76Zm-.93-.54-105.25-60.77,105.25-60.77,105.25,60.77Zm-106.18-61.31-105.25-60.76L1337.91,1135l105.24,60.77Zm-106.18-61.3-105.25-60.77,105.25-60.77L1337,1134.48Zm-106.19-61.31-105.24-60.77,105.24-60.76,105.25,60.76Zm-.93.54-105.24,60.77-105.25-60.77,105.25-60.77Zm-106.18,61.31-105.25,60.76-105.24-60.76L913.18,1135Zm-106.18,61.3L807,1317.86l-105.25-60.77L807,1196.32ZM806.06,1318.4l-105.24,60.76L595.58,1318.4l105.24-60.77Zm-106.17,61.3-105.25,60.77L489.39,1379.7l105.25-60.76Zm.93.54L806.06,1441l-105.24,60.77L595.58,1441ZM807,1441.55l105.25,60.76L807,1563.08l-105.25-60.77Zm106.18,61.3,105.25,60.77-105.25,60.77-105.24-60.77Zm.94-.54,105.25-60.76,105.24,60.76-105.24,60.77Zm211.42.54,105.25,60.77-105.25,60.77-105.24-60.77Zm.94-.54,105.25-60.76L1337,1502.31l-105.24,60.77Zm211.43.54,105.24,60.77-105.24,60.77-105.25-60.77Zm.93-.54,105.25-60.76,105.25,60.76-105.25,60.77ZM1445,1441l105.25-60.77L1655.51,1441l-105.24,60.77Zm106.18-61.31,105.25-60.76,105.25,60.76-105.25,60.77Zm106.18-61.3,105.25-60.77,105.25,60.77-105.25,60.76Zm-.93-.54-105.25-60.77,105.25-60.77,105.25,60.77Zm-106.18-61.31L1445,1195.79,1550.27,1135l105.24,60.77Zm-106.18-61.3-105.25-60.77,105.25-60.77,105.25,60.77Zm-106.18-61.31-105.25-60.77,105.25-60.76,105.24,60.76Zm-106.18-61.3-105.25-60.77,105.25-60.77L1337,1011.87Zm-106.19-61.31L1020.3,950.56l105.24-60.76,105.25,60.76Zm-.93.54-105.24,60.77-105.25-60.77,105.25-60.77Zm-106.18,61.3-105.25,60.77-105.24-60.77,105.24-60.76Zm-106.18,61.31L807,1195.25l-105.25-60.77L807,1073.71Zm-106.19,61.31-105.24,60.76-105.24-60.76L700.82,1135Zm-106.17,61.3-105.25,60.77-105.25-60.77,105.25-60.77ZM593.71,1318.4l-105.25,60.76L383.21,1318.4l105.25-60.77Zm-106.19,61.3-105.24,60.77L277,1379.7l105.25-60.76Zm.94.54L593.71,1441l-105.25,60.77L383.21,1441Zm106.18,61.31,105.25,60.76-105.25,60.77-105.25-60.77Zm106.18,61.3,105.24,60.77-105.24,60.77-105.24-60.77ZM807,1564.16l105.25,60.76L807,1685.69l-105.25-60.77Zm106.18,61.3,105.25,60.77L913.18,1747l-105.24-60.77Zm.94-.54,105.25-60.76,105.24,60.76-105.24,60.77Zm211.42.54,105.25,60.77L1125.54,1747l-105.24-60.77Zm.94-.54,105.25-60.76L1337,1624.92l-105.24,60.77Zm211.43.54,105.24,60.77L1337.91,1747l-105.25-60.77Zm.93-.54,105.25-60.76,105.25,60.76-105.25,60.77Zm106.18-61.3,105.25-60.77,105.24,60.77-105.24,60.77Zm106.18-61.31,105.25-60.76,105.25,60.76-105.25,60.77Zm106.18-61.3,105.25-60.77L1867.88,1441l-105.25,60.77Zm106.18-61.31,105.26-60.76,105.24,60.76-105.24,60.77Zm106.19-61.3L1975,1257.63l105.25,60.77L1975,1379.16Zm-.93-.54-105.26-60.77,105.26-60.77,105.24,60.77Zm-106.19-61.31-105.25-60.76L1762.63,1135l105.25,60.77Zm-106.18-61.3-105.25-60.77,105.25-60.77,105.25,60.77Zm-106.18-61.31L1445,1073.17l105.25-60.76,105.24,60.76Zm-106.18-61.3-105.25-60.77,105.25-60.77,105.25,60.77Zm-106.18-61.31-105.25-60.77,105.25-60.76,105.24,60.76ZM1231.73,950l-105.25-60.76,105.25-60.77L1337,889.26Zm-106.19-61.3L1020.3,828l105.24-60.76L1230.79,828Zm-.93.54L1019.37,950,914.12,889.26l105.25-60.77Zm-106.18,61.3-105.25,60.77L807.94,950.56,913.18,889.8Zm-106.18,61.31L807,1072.64l-105.25-60.77L807,951.1Zm-106.19,61.3-105.24,60.77-105.24-60.77,105.24-60.76Zm-106.17,61.31-105.25,60.77-105.25-60.77,105.25-60.77Zm-106.18,61.31-105.25,60.76-105.25-60.76L488.46,1135Zm-106.19,61.3-105.24,60.77L277,1257.09l105.25-60.77ZM381.34,1318.4,276.1,1379.16,170.85,1318.4l105.25-60.77Zm0,122.61L276.1,1501.78,170.85,1441l105.25-60.77Zm.94.54,105.24,60.76-105.24,60.77L277,1502.31Zm106.18,61.3,105.25,60.77-105.25,60.77-105.25-60.77Zm106.18,61.31,105.25,60.76-105.25,60.77-105.25-60.77Zm106.18,61.3,105.24,60.77L700.82,1747l-105.24-60.77ZM807,1686.77l105.25,60.77L807,1808.31l-105.25-60.77Zm106.18,61.31,105.25,60.77-105.25,60.76-105.24-60.76Zm.94-.54,105.25-60.77,105.24,60.77-105.24,60.77Zm211.42.54,105.25,60.77-105.25,60.76-105.24-60.76Zm.94-.54,105.25-60.77L1337,1747.54l-105.24,60.77Zm211.43.54,105.24,60.77-105.24,60.76-105.25-60.76Zm.93-.54,105.25-60.77,105.25,60.77-105.25,60.77ZM1445,1686.23l105.25-60.77,105.24,60.77L1550.27,1747Zm106.18-61.31,105.25-60.76,105.25,60.76-105.25,60.77Zm106.18-61.3,105.25-60.77,105.25,60.77-105.25,60.77Zm106.18-61.31,105.26-60.76,105.24,60.76-105.24,60.77Zm106.19-61.3L1975,1380.24,2080.24,1441,1975,1501.78Zm106.18-61.31,105.24-60.76,105.25,60.76-105.25,60.77Zm210.49-122.61-105.25,60.77-105.24-60.77,105.24-60.77Zm-106.18-61.3L1975,1256.55l-105.24-60.76L1975,1135Zm-106.18-61.31-105.24,60.77-105.26-60.77,105.26-60.77Zm-106.18-61.31-105.25,60.77-105.25-60.77,105.25-60.76Zm-106.18-61.3-105.25,60.77-105.25-60.77,105.25-60.77Zm-106.19-61.31-105.24,60.77L1445,950.56l105.25-60.76Zm-106.17-61.3L1444.09,950l-105.25-60.76,105.25-60.77ZM1443.15,828l-105.24,60.77L1232.66,828l105.25-60.76ZM1337,766.65l-105.24,60.76-105.25-60.76,105.25-60.77ZM1125.54,644.58l105.25,60.76-105.25,60.77L1020.3,705.34Zm-106.17,61.3,105.24,60.77-105.24,60.76L914.12,766.65ZM913.18,767.19,1018.43,828,913.18,888.72,807.94,828ZM807,828.49l105.25,60.77L807,950,701.75,889.26ZM700.82,889.8l105.24,60.76-105.24,60.77L595.58,950.56ZM594.64,951.1l105.25,60.77-105.25,60.77-105.25-60.77Zm-106.18,61.31,105.25,60.76-105.25,60.77-105.25-60.77Zm-106.18,61.3,105.24,60.77-105.24,60.77L277,1134.48ZM276.1,1135l105.24,60.77L276.1,1256.55l-105.25-60.76ZM64.67,1257.09l105.25-60.77,105.24,60.77-105.24,60.77Zm0,122.61,105.25-60.76,105.24,60.76-105.24,60.77Zm0,122.61,105.25-60.76,105.24,60.76-105.24,60.77Zm106.18,61.31,105.25-60.77,105.24,60.77L276.1,1624.39ZM277,1624.92l105.25-60.76,105.24,60.76-105.24,60.77Zm106.18,61.31,105.25-60.77,105.25,60.77L488.46,1747Zm106.18,61.31,105.25-60.77,105.25,60.77-105.25,60.77Zm106.19,61.31,105.24-60.77,105.24,60.77-105.24,60.76Zm106.17,61.3L807,1809.39l105.25,60.76L807,1930.92Zm211.43,122.07-105.24-60.77,105.24-60.76,105.25,60.76Zm.94-122.07,105.25-60.76,105.24,60.76-105.24,60.77Zm211.42,122.07-105.24-60.77,105.24-60.76,105.25,60.76Zm.94-122.07,105.25-60.76L1337,1870.15l-105.24,60.77Zm211.43,122.07-105.25-60.77,105.25-60.76,105.24,60.76Zm106.18-61.3-105.25-60.77,105.25-60.76,105.25,60.76Zm106.18-61.31L1445,1808.85l105.25-60.77,105.24,60.77Zm106.18-61.3-105.25-60.77,105.25-60.77,105.25,60.77ZM1762.63,1747l-105.25-60.77,105.25-60.77,105.25,60.77Zm106.19-61.31-105.26-60.77,105.26-60.76,105.24,60.76Zm106.17-61.3-105.24-60.77L1975,1502.85l105.25,60.77Zm106.18-61.31-105.24-60.77,105.24-60.76,105.25,60.76Zm106.19-61.3L2082.11,1441l105.25-60.77L2292.6,1441Zm106.18-61.31-105.25-60.77,105.25-60.76,105.25,60.76Z"/><polygon class="cls-3" points="1702.24 936.16 1771.37 936.16 1859.7 987.16 1771.37 1038.17 1702.24 1038.17 1613.91 987.16 1702.24 936.16"/><polygon class="cls-4" points="1771.37 449.65 1771.37 1038.17 1859.7 987.17 1859.7 398.65 1771.37 449.65"/><polygon class="cls-5" points="1683.05 987.17 1771.37 1038.17 1771.37 449.65 1683.05 398.65 1683.05 987.17"/><polygon class="cls-6" points="1683.05 398.65 1771.37 449.65 1859.7 398.65 1771.37 347.65 1683.05 398.65"/><polygon class="cls-3" points="1818.35 1003.42 1887.48 1003.42 1975.8 1054.42 1887.47 1105.42 1818.34 1105.42 1730.02 1054.42 1818.35 1003.42"/><polygon class="cls-4" points="1887.48 611.14 1887.47 1105.42 1975.8 1054.43 1975.8 560.14 1887.48 611.14"/><polygon class="cls-5" points="1799.14 1054.43 1887.47 1105.42 1887.48 611.14 1799.14 560.14 1799.14 1054.43"/><polygon class="cls-6" points="1799.14 560.14 1887.47 611.14 1975.8 560.14 1887.48 509.14 1799.14 560.14"/><polygon class="cls-3" points="1934.44 1070.67 2003.57 1070.67 2091.89 1121.67 2003.57 1172.67 1934.44 1172.67 1846.12 1121.67 1934.44 1070.67"/><polygon class="cls-4" points="2003.57 772.63 2003.57 1172.67 2091.89 1121.68 2091.89 721.62 2003.57 772.63"/><polygon class="cls-5" points="1915.24 1121.68 2003.57 1172.67 2003.57 772.63 1915.24 721.62 1915.24 1121.68"/><polygon class="cls-6" points="1915.24 721.62 2003.57 772.63 2091.89 721.62 2003.57 670.62 1915.24 721.62"/><polygon class="cls-3" points="2050.54 1137.92 2119.67 1137.92 2208 1188.92 2119.66 1239.93 2050.53 1239.93 1962.21 1188.92 2050.54 1137.92"/><polygon class="cls-4" points="2119.67 990.66 2119.66 1239.93 2208 1188.94 2208 939.65 2119.67 990.66"/><polygon class="cls-5" points="2031.34 1188.94 2119.66 1239.93 2119.67 990.66 2031.34 939.65 2031.34 1188.94"/><polygon class="cls-6" points="2031.34 939.65 2119.66 990.66 2208 939.65 2119.67 888.65 2031.34 939.65"/><polygon class="cls-3" points="2166.64 1205.18 2235.77 1205.18 2324.09 1256.18 2235.76 1307.18 2166.64 1307.18 2078.31 1256.18 2166.64 1205.18"/><polygon class="cls-4" points="2235.77 1133.29 2235.76 1307.18 2324.09 1256.19 2324.09 1082.29 2235.77 1133.29"/><polygon class="cls-5" points="2147.44 1256.19 2235.76 1307.18 2235.77 1133.29 2147.44 1082.29 2147.44 1256.19"/><polygon class="cls-6" points="2147.44 1082.29 2235.76 1133.29 2324.09 1082.29 2235.77 1031.29 2147.44 1082.29"/><g class="cls-7"><path class="cls-8" d="M622.58,1124.25c6.95,4,7,10.59.13,14.6l-110.24,64.06c-6.91,4-18.28,4-25.23,0l-110.95-64.05c-7-4-7-10.61-.09-14.62l110.24-64.06c6.9-4,18.23-4,25.19,0Z"/></g><path class="cls-9" d="M500,1223.46a33,33,0,0,1-16.25-3.91l-134.23-77.49c-4.71-2.72-7.31-6.47-7.31-10.55s2.56-7.78,7.2-10.48l133.37-77.5c8.64-5,23.67-5,32.41,0l134.24,77.5c4.72,2.72,7.33,6.47,7.33,10.56s-2.55,7.74-7.18,10.43l-133.35,77.5A32.78,32.78,0,0,1,500,1223.46Zm-1.09-180a28.68,28.68,0,0,0-14.18,3.37l-133.38,77.5c-3.41,2-5.28,4.51-5.28,7.14s1.91,5.2,5.38,7.21l134.23,77.49c7.57,4.37,21.09,4.37,28.6,0l133.36-77.51c3.4-2,5.27-4.48,5.26-7.09s-1.92-5.21-5.41-7.23L513.22,1046.9A29.19,29.19,0,0,0,498.87,1043.5Z"/><path class="cls-4" d="M622.71,1070,512.47,1134.1c-6.91,4-18.28,4-25.23,0L376.29,1070c-3.51-2-5.25-4.69-5.25-7.36l-.07,25.66c0,2.66,1.75,5.33,5.25,7.35l110.94,64c6.95,4,18.33,4,25.24,0l110.24-64c3.41-2,5.13-4.6,5.13-7.22l.07-25.66C627.83,1065.43,626.13,1068.05,622.71,1070Z"/><path class="cls-6" d="M622.58,1055.44c6.95,4,7,10.58.13,14.6L512.47,1134.1c-6.91,4-18.28,4-25.23,0L376.29,1070c-7-4-7-10.6-.09-14.62l110.24-64.06c6.9-4,18.23-4,25.19,0Z"/><polygon class="cls-10" points="2 1482.31 2 1908.25 1168.67 1447.37 1168.67 1383.5 1213.88 999 2 1482.31"/><polygon class="cls-11" points="1618.04 1371.24 0 2028.43 0 2073.01 448.25 2073.01 1507.98 1647.66 1736.13 1510.22 1618.04 1371.24"/><polygon class="cls-12" points="1502.63 1254.55 1168.67 1447.37 1168.67 1383.5 1502.63 1190.68 1502.63 1254.55"/><polygon class="cls-13" points="1168.67 1383.5 1168.67 1447.37 834.71 1254.55 834.71 1190.68 1168.67 1383.5"/><polygon class="cls-14" points="1502.63 1190.68 1168.67 1383.5 834.71 1190.68 1168.67 997.86 1502.63 1190.68"/><polygon class="cls-12" points="1324.69 1179.67 1168.67 1269.75 1168.67 742.04 1324.69 651.96 1324.69 1179.67"/><polygon class="cls-13" points="1168.67 742.04 1168.67 1269.75 1012.65 1179.67 1012.65 651.96 1168.67 742.04"/><polygon class="cls-14" points="1324.69 651.96 1168.67 742.04 1012.65 651.96 1168.67 561.88 1324.69 651.96"/><polygon class="cls-13" points="458.12 505.77 479.44 469.39 1292.4 0 1704.78 577.84 1683.46 614.22 870.51 1083.61 458.12 505.77"/><polygon class="cls-14" points="479.44 469.39 1292.4 0 1704.78 577.84 891.83 1047.23 479.44 469.39"/><polygon class="cls-15" points="1284.62 35.85 518.92 477.96 899.61 1011.38 1665.31 569.28 1284.62 35.85"/><path class="cls-16" d="M1068.78,265.94l-5.94,3.43c11.38,15.81,9.3,35.15-4.66,43.21s-34.5,1.78-45.89-14-9.3-35.15,4.66-43.2l-4.85-6.73c-17.24,9.95-19.82,33.84-5.75,53.36s39.44,27.27,56.68,17.32S1082.85,285.46,1068.78,265.94Z"/><path class="cls-17" d="M1152,217.91c-14.06-19.51-39.44-27.27-56.68-17.32l4.85,6.74c14-8.06,34.5-1.79,45.89,14s9.3,35.14-4.66,43.2a28.49,28.49,0,0,1-18.79,3.11l.42,7.47c8.89,1.36,16.32.14,23.22-3.84C1163.46,261.32,1166,237.43,1152,217.91Z"/><path class="cls-6" d="M1234.7,170.15c-14.07-19.52-39.45-27.27-56.69-17.32l4.85,6.73c14-8,34.5-1.77,45.89,14a40.54,40.54,0,0,1,5.13,9.55L1241,182A47.68,47.68,0,0,0,1234.7,170.15Z"/><path class="cls-18" d="M1012.1,248.63l4.85,6.73c14-8.06,34.5-1.79,45.89,14l5.94-3.43C1054.72,246.43,1029.34,238.67,1012.1,248.63Z"/><path class="cls-18" d="M1095.48,250.53c-11.38-15.8-9.3-35.15,4.66-43.2l-4.85-6.74c-10.35,6-15.51,16.17-14.76,29.15,1.24,21.65,20.26,42,42.47,45.38l-.42-7.47C1112.51,266.1,1102.34,260.05,1095.48,250.53Z"/><path class="cls-18" d="M1233.88,183.14c5,13.37,1.45,27.16-9.79,33.65-14,8.06-34.51,1.78-45.89-14s-9.3-35.14,4.66-43.2h0l-4.85-6.73c-13.8,8-18.53,24.25-12.09,41.56,8,21.64,31.39,36.4,52.13,33a32.06,32.06,0,0,0,10.9-3.83c13.16-7.6,18.56-24.16,12.09-41.57Z"/><path class="cls-18" d="M1309.85,111.29l-4.16,5.34a44.38,44.38,0,0,1,7.62,8.13c11.39,15.81,9.3,35.14-4.66,43.2s-34.5,1.79-45.89-14-9.3-35.14,4.66-43.21l-4.85-6.73a27.44,27.44,0,0,0-8.4,7.3c-12.05,15.5-6.67,40.62,12,56.11,15,12.45,34.13,14.88,47.29,7.29a28.94,28.94,0,0,0,8.4-7.31C1334,151.89,1328.56,126.77,1309.85,111.29Z"/><path class="cls-19" d="M1262.57,104l4.85,6.73c11.23-6.48,26.72-3.67,38.27,5.89l4.16-5.34C1294.89,98.9,1276.35,96.05,1262.57,104Z"/><g class="cls-20"><polygon class="cls-6" points="1361.1 182.42 1049.73 362.19 1052.81 366.47 1364.18 186.7 1361.1 182.42"/><polygon class="cls-6" points="1368.39 192.53 1057.01 372.3 1060.09 376.58 1371.47 196.81 1368.39 192.53"/><polygon class="cls-6" points="1243.62 278.88 1064.3 382.41 1067.38 386.69 1246.7 283.15 1243.62 278.88"/><polygon class="cls-6" points="1390.24 222.86 1078.87 402.63 1081.94 406.91 1393.32 227.13 1390.24 222.86"/><polygon class="cls-6" points="1397.53 232.97 1086.15 412.74 1089.23 417.02 1400.61 237.25 1397.53 232.97"/><polygon class="cls-6" points="1404.81 243.08 1093.43 422.85 1096.52 427.13 1407.89 247.36 1404.81 243.08"/><polygon class="cls-6" points="1100.72 432.96 1103.8 437.24 1240.69 358.21 1237.6 353.93 1100.72 432.96"/></g><path class="cls-21" d="M922.48,817.94h-.88a44.47,44.47,0,0,0-22.35,5.64l-.1,0-.12.07c-13.88,8.08-21.57,23.88-19,42.49,0,0,0,0,0,.06,0,.29.08.58.13.87s.12.79.19,1.19.14.77.22,1.16a63.53,63.53,0,0,0,11,24.83c12.05,16.66,31.6,28.19,51.56,28.54l-2.46-12.51c-22-.39-43.31-18.58-47.65-40.64-3-15.29,2.94-28.42,14.18-34.91a34,34,0,0,1,17.76-4.33c17.69.31,34.95,12.16,43.28,28.27l11.09-3.66C967.84,832.9,945.57,818.36,922.48,817.94Z"/><path class="cls-17" d="M943.12,922.85h0c-20-.35-39.51-11.88-51.56-28.54a63.53,63.53,0,0,1-11-24.83c-.08-.39-.15-.78-.22-1.16s-.13-.79-.19-1.19-.09-.58-.13-.87c0,0,0,0,0-.06-2.52-18.61,5.17-34.41,19-42.49l.12-.07.1,0a44.44,44.44,0,0,1,22.35-5.64h.88l-2.58-13.11a55.83,55.83,0,0,0-29.15,7.11c-18.46,10.66-28.22,32.2-23.28,57.3,7.13,36.2,42.15,66.08,78.23,66.72Z"/><polygon class="cls-17" points="875.28 801.21 883.93 813.03 885.29 795.43 904.42 784.38 890.54 765.12 854.55 785.89 868.43 805.16 875.28 801.21"/><path class="cls-18" d="M1071.11,841.76c-19.23,7.08-44.14-4.13-55.64-25-10.46-19-6.21-39.51,9.14-48.37a30.47,30.47,0,0,1,4.86-2.27L1023,754.23l-.41.15-.06,0-.23.09a40.88,40.88,0,0,0-5.69,2.72,38,38,0,0,0-12.51,11.61l-.09.14h0a40.87,40.87,0,0,0-6.07,14.81,50.49,50.49,0,0,0,.93,22.72v0l.06.24,0,.09a1.21,1.21,0,0,0,.05.18l0,.15,0,.05a63.28,63.28,0,0,0,5.55,13.51c.35.63.71,1.27,1.08,1.89a71.06,71.06,0,0,0,17.09,19.47h0l.17.13a69.47,69.47,0,0,0,16.7,9.71q2.63,1.06,5.3,1.88c11,3.38,22.48,3.56,32.72-.21Z"/><path class="cls-6" d="M1004,769h0a1.1,1.1,0,0,0,.09-.14,38,38,0,0,1,12.51-11.61,40.88,40.88,0,0,1,5.69-2.72l.23-.09.06,0c9.59-3.65,21.09-4,33.13-.36l1.34-12.47c-18.29-5.59-35.61-3.67-48.81,4s-22.3,21-24.16,38.17c-3.71,34.45,22.94,71.44,59.53,82.61l1.34-12.47q-2.67-.81-5.3-1.88a68.86,68.86,0,0,1-16.7-9.71l-.17-.13h0a71.06,71.06,0,0,1-17.09-19.47,63.39,63.39,0,0,1-6.63-15.4l0-.05,0-.15a1.21,1.21,0,0,1-.05-.18l0-.09-.06-.24v0a50.49,50.49,0,0,1-.93-22.72A40.57,40.57,0,0,1,1004,769Z"/><polygon class="cls-6" points="992.08 733.77 1000.74 745.6 1002.09 728 1021.22 716.95 1007.34 697.68 971.35 718.46 985.23 737.73 992.08 733.77"/><path class="cls-16" d="M1171.38,676.47c-18.29-5.59-35.61-3.67-48.82,3.95s-22.3,21-24.15,38.18c-3.72,34.44,22.93,71.43,59.52,82.61l1.34-12.47h0a68.43,68.43,0,0,1-24-13.17h0l-.16-.14a70.53,70.53,0,0,1-15.53-18.52h0l-.1-.17a59.84,59.84,0,0,1-7.93-24.11,47.91,47.91,0,0,1,.46-13,38.9,38.9,0,0,1,3.29-10.5,36.16,36.16,0,0,1,6.5-9.76,38,38,0,0,1,9.09-7.28c15-8.68,36.24-7.72,55.21,4.27a71.68,71.68,0,0,1,14,11.6l8.88-7.72C1198.07,688.55,1186,680.93,1171.38,676.47Z"/><path class="cls-22" d="M1127,716.53a29.1,29.1,0,0,1,6.48-9.15l-9.77-9.85c-.65.62-1.27,1.24-1.85,1.87a36.16,36.16,0,0,0-6.5,9.76l-.18.38a41.89,41.89,0,0,0-3.11,10.12,47.91,47.91,0,0,0-.46,13,60.64,60.64,0,0,0,7.93,24.11l.1.17h0a70.53,70.53,0,0,0,15.53,18.52l.16.14h0a72.27,72.27,0,0,0,9.57,6.78l4.72-10.37C1128.8,759.65,1118.67,734.83,1127,716.53Z"/><polygon class="cls-16" points="1121.23 631.93 1085.23 652.71 1099.11 671.98 1105.97 668.02 1114.62 679.85 1115.98 662.24 1135.11 651.2 1121.23 631.93"/><polygon class="cls-23" points="574.49 495.82 775.82 775.23 1154.53 556.8 953.67 276.9 574.49 495.82"/><path class="cls-23" d="M775.82,775.23,1154.53,556.8l-34.91-48.64c-14-6.53-31-12.1-43.24-8.47-24.62,7.3-9.66,35.33-25.64,43.2s-80.07-68.25-94.09-57.74,10,76.49-15.1,94.86S836.63,566.53,817,574.52s-12.34,33.57-22.85,45.42-35.38,6.74-72,2.6c-24.6-2.79-42.85,2.26-52.18,5.87Z"/><path class="cls-23" d="M775.82,775.23,1154.53,556.8l-92.71-129.19c-4.32-.18-8.4.29-11.18,2.06-9,5.73,7.22,58.07-2.2,68.81s-24.72-3.52-37.33,2.34,3.63,20.65-11.32,30.75-67-47.28-101.66-30.87-32.32,91.76-43.65,105.22-15.1,2.14-37.59,14.28,7.06,47.93-11.63,56.71-64.2-39.8-89.28-34.06c-14.57,3.33-19.58,12.64-21.23,19.87Z"/><path class="cls-6" d="M695.4,663.63c1.46-7.1,6.2-16.67,20.76-20a19,19,0,0,1,4.22-.46c12,0,27.64,9.59,42.75,18.86,14,8.61,27.31,16.75,36.93,16.75a13.06,13.06,0,0,0,5.54-1.14c9.45-4.44,7.37-15,5.17-26.27-2.35-12-4.78-24.37,6.5-30.47,10.59-5.71,16.89-6.15,22-6.5,5.65-.39,9.73-.67,15.86-8,4-4.81,6.28-16.58,9.11-31.47,5-26.58,12-63,34.27-73.55A31.4,31.4,0,0,1,912,498.53c17.19,0,36.33,11.36,53.22,21.38,12.35,7.33,23,13.66,30.17,13.66a8.5,8.5,0,0,0,4.84-1.34c8.23-5.56,7.47-12.45,6.79-18.53-.59-5.36-1.06-9.6,4.42-12.15a15.82,15.82,0,0,1,6.81-1.4,48,48,0,0,1,10.63,1.67,44.71,44.71,0,0,0,10,1.6A12.55,12.55,0,0,0,1049,499c5.06-5.77,3.16-22.18,1.33-38.05-1.6-13.81-3.26-28.1.7-30.62,2-1.31,5.09-2,9-2,.76,0,1.53,0,2.31.07l-1.19-1.65-1.12,0c-4.26,0-7.59.75-9.9,2.23-4.8,3.06-3.24,16.54-1.43,32.15,1.71,14.79,3.65,31.57-.94,36.81a11.05,11.05,0,0,1-8.92,3.87,44.11,44.11,0,0,1-9.67-1.56,49.22,49.22,0,0,0-11-1.72,17.42,17.42,0,0,0-7.49,1.55c-6.52,3-5.91,8.5-5.32,13.78.65,5.9,1.33,12-6.11,17A6.87,6.87,0,0,1,995.4,532c-6.71,0-17.21-6.23-29.36-13.44-17.06-10.12-36.4-21.6-54-21.6A33,33,0,0,0,897.79,500c-23,10.92-30,47.78-35.16,74.69-2.67,14.08-5,26.25-8.76,30.74-5.7,6.77-9.3,7-14.75,7.4-5.22.36-11.71.81-22.6,6.69-12.32,6.65-9.66,20.21-7.32,32.18,2.17,11.05,4,20.6-4.28,24.51a11.31,11.31,0,0,1-4.86,1c-9.17,0-22.25-8-36.09-16.51-15.31-9.39-31.14-19.09-43.59-19.09a20.42,20.42,0,0,0-4.58.49c-14.47,3.31-19.76,12.49-21.63,19.84Z"/><path class="cls-6" d="M710.75,684.93a51.27,51.27,0,0,0,15.1,2.61,24.32,24.32,0,0,0,11.74-2.66c5.38-2.93,9.22-9.12,13.67-16.28,6.83-11,14.56-23.48,30.5-28.71a59.81,59.81,0,0,1,19-3.1,97,97,0,0,1,14.41,1.32,71.87,71.87,0,0,0,10.18,1A20,20,0,0,0,836,636.42c6.38-3.81,5-18.09,3.16-36.18-2.1-21.07-4.48-45,5.17-57.64,11.15-14.65,40-14.7,65.46-14.74,15,0,29.1-.05,38.15-3,23.34-7.68,38.15-32.53,40.23-52,.71-6.62.13-14.65-.44-22.43-.89-12.44-1.74-24.19,2.95-26.79a1.82,1.82,0,0,1,.82-.15c4.13,0,15.47,6.64,28.6,14.33,20.77,12.16,46.61,27.29,62.18,27.29a17.4,17.4,0,0,0,5.78-.9l-1-1.36a16.11,16.11,0,0,1-4.81.67c-15.14,0-40.77-15-61.37-27.08-13.88-8.13-24.85-14.55-29.41-14.55a3.34,3.34,0,0,0-1.59.35c-5.59,3.09-4.75,14.78-3.77,28.31.56,7.7,1.14,15.66.45,22.14-1.62,15.15-13.68,42.3-39.15,50.68-8.81,2.9-22.82,2.92-37.65,2.94-25.83,0-55.11.09-66.73,15.37-10,13.19-7.62,37.4-5.49,58.77,1.68,16.83,3.12,31.36-2.39,34.65a18.54,18.54,0,0,1-9.85,2.49,70.94,70.94,0,0,1-10-1,98,98,0,0,0-14.64-1.34,61.38,61.38,0,0,0-19.46,3.18c-16.5,5.42-24.74,18.71-31.37,29.38-4.32,7-8.06,13-13.07,15.73a22.78,22.78,0,0,1-11,2.47,52.23,52.23,0,0,1-16.72-3.27Z"/><path class="cls-6" d="M670.51,629.09a105.71,105.71,0,0,1,37.59-6.56,125.22,125.22,0,0,1,14,.8c5,.57,9.72,1.14,14.29,1.7,13.35,1.63,24.88,3,34.25,3,12,0,19.46-2.34,24.12-7.6,4.38-4.93,5.72-11.93,7.15-19.33,2-10.46,4.09-21.27,15.4-25.88A23.74,23.74,0,0,1,826,574c9.53,0,23.49,2.68,38.27,5.52,17.28,3.32,36.85,7.08,52.57,7.08,11.45,0,19.68-2,25.16-6,14.73-10.77,13-36.75,11.5-59.68-1-15.91-2-30.94,3.61-35.18A4.61,4.61,0,0,1,960,485c8.57,0,26.14,14.87,43.13,29.25,18.26,15.46,35.51,30.06,44.93,30.06a6.91,6.91,0,0,0,3-.65c7.46-3.68,8.49-11.3,9.59-19.37,1.33-9.77,2.7-19.86,15.93-23.79a29.61,29.61,0,0,1,8.4-1.11c11.17,0,24.44,4.87,35.6,10.19l-2-2.74c-10.69-4.87-23-9.05-33.63-9.05a31.4,31.4,0,0,0-8.86,1.18c-14.21,4.22-15.72,15.31-17.05,25.1-1,7.64-2,14.86-8.71,18.15a5.25,5.25,0,0,1-2.35.5c-8.83,0-26.66-15.1-43.9-29.69-18-15.23-35-29.63-44.16-29.63a6.21,6.21,0,0,0-3.81,1.16c-6.34,4.76-5.37,19.5-4.24,36.56,1.48,22.52,3.17,48-10.85,58.3-5.2,3.8-13.12,5.64-24.22,5.64-15.56,0-35.06-3.74-52.26-7-14.86-2.85-28.89-5.55-38.58-5.55a25.17,25.17,0,0,0-9.3,1.37c-12.11,4.93-14.28,16.18-16.37,27.05-1.38,7.19-2.69,14-6.78,18.58-4.33,4.89-11.39,7.07-22.92,7.07-9.27,0-20.76-1.41-34-3-4.58-.56-9.32-1.14-14.31-1.7a126.09,126.09,0,0,0-14.19-.82,107.36,107.36,0,0,0-38.55,6.82Z"/><path class="cls-23" d="M775.82,775.23,1154.53,556.8l-67-93.32c-23,7.71-89.44-44.91-97.27-40.59-8.25,4.56-1.06,32.43-2.92,49.84S972,516.08,947.68,524.08s-86-5.61-104,18,5,85.79-8.11,93.62-27.41-5.35-54.06,3.4-31,37.83-44.31,45c-8.49,4.61-20,2.07-27.26-.37Z"/><g class="cls-24"><polygon class="cls-18" points="1609.28 546.66 1310.7 719.05 1311.16 719.69 1609.74 547.3 1609.28 546.66"/><path class="cls-18" d="M1364.35,629.35l-16.9,9.76L1318,598.28l25.45-14.69L1343,583l-25.42,14.68-10.15-14.09a6.54,6.54,0,0,1-.59.3L1317,598l-24.88,14.37c.17.2.33.41.49.63l24.85-14.36,29.42,40.83-25.48,14.72.17.31h.85l24.93-14.39,5.52,7.67.58-.31-5.54-7.68,16.27-9.4Z"/><path class="cls-18" d="M1318,656.1l-3.74,2.16-4.07-5.65a4.6,4.6,0,0,0-.59.29l4.1,5.69-4.3,2.48a7.8,7.8,0,0,0,.58.57l4.18-2.41,2.54,3.53a4,4,0,0,0,.54-.37l-2.52-3.49,3.61-2.08A5.76,5.76,0,0,0,1318,656.1Z"/><path class="cls-18" d="M1301.72,665.51l-15.21,8.78c0,.31,0,.63,0,.93l18.89-10.91Z"/><path class="cls-18" d="M1280.5,619.94l3.79-2.18,3.52,4.89a6.45,6.45,0,0,0,.59-.29l-3.55-4.93,4.36-2.51a6.15,6.15,0,0,0-.5-.62l-4.32,2.49-3.09-4.28a4.1,4.1,0,0,0-.53.36l3.06,4.25-3.75,2.16A7.39,7.39,0,0,0,1280.5,619.94Z"/><path class="cls-18" d="M1255,633.76l-3.78,2.18-3.52-4.88a4.11,4.11,0,0,0-.6.28l7.1,9.86a5.14,5.14,0,0,0,.54-.37l-3.06-4.25,3.75-2.16C1255.3,634.2,1255.16,634,1255,633.76Z"/><path class="cls-18" d="M1512.73,485.87l3.79-2.19,3.52,4.89a5.48,5.48,0,0,0,.6-.29l-3.55-4.93,4.34-2.51c-.15-.21-.32-.42-.49-.62l-4.32,2.49-3.08-4.28a3.62,3.62,0,0,0-.54.36l3.06,4.25-3.75,2.17C1512.43,485.43,1512.58,485.65,1512.73,485.87Z"/><path class="cls-18" d="M1258.84,632.45l18.27-10.54q-.24-.33-.45-.66L1258.4,631.8C1258.56,632,1258.7,632.23,1258.84,632.45Z"/><path class="cls-18" d="M1355.1,576l-4.35,2.51-3.56-4.93a5,5,0,0,0-.53.37l3.52,4.89-3.79,2.19c.16.21.33.42.5.61l3.75-2.16,3.06,4.24a3.28,3.28,0,0,0,.6-.28l-3.09-4.29,4.31-2.49A6,6,0,0,0,1355.1,576Z"/><path class="cls-18" d="M1316.4,540.49l4.36-2.51,3.55,4.93a5.14,5.14,0,0,0,.54-.37l-3.52-4.89,3.78-2.18a7.52,7.52,0,0,0-.5-.62l-3.74,2.16-3.06-4.24a4.11,4.11,0,0,0-.6.28l3.09,4.29-4.32,2.49A5.67,5.67,0,0,0,1316.4,540.49Z"/><path class="cls-18" d="M1254.41,576.29l4.56,6.34c.2-.11.39-.21.59-.3L1255,576l19.18-11.07.54-1.22-20.18,11.65-29.42-40.83,32.61-18.83,18.64,25.88c.18-.12.36-.24.55-.35l-18.62-25.85,32.61-18.83,23.56,32.7c.19-.11.39-.21.58-.3l-23.58-32.73,19.8-11.43-.2-.79L1291,495.54l-29.42-40.83,32.61-18.83,6.8,9.43a6.36,6.36,0,0,1,.58-.3l-6.81-9.45,32.61-18.83,4.54,6.31.28-.17a2.69,2.69,0,0,1,.29-.16l-4.55-6.31,32.62-18.82,11.73,16.28.27-.17a2.69,2.69,0,0,0,.29-.16l-11.73-16.28,32.61-18.83,11.73,16.28a6.36,6.36,0,0,1,.58-.3l-11.75-16.3L1417,365l.16-1-23.34,13.48-29.42-40.83L1397,317.8,1414.4,342c.18-.12.36-.24.55-.35l-17.39-24.14,32.61-18.83,29.42,40.83-29.29,16.91a7.06,7.06,0,0,1-1.18,1.59l30.93-17.86,29.42,40.83-32.61,18.83-29.27-40.62c-.19.11-.39.21-.58.3l29.29,40.65-25.46,14.69.49.63,25.43-14.68,3.57,4.95c.17-.12.35-.24.54-.35l-3.55-4.93,32.61-18.82,29.42,40.82-32.61,18.83-13.22-18.35a6.54,6.54,0,0,1-.59.3l13.25,18.38-32.61,18.83-23.12-32.08c-.17.12-.36.24-.55.35l23.1,32.05-32.61,18.83-13.24-18.38c-.18.12-.36.24-.55.35l13.23,18.36-32.62,18.82-23.11-32.07c-.17.12-.36.24-.55.35l23.1,32-26,15,.21.78,23.65-13.65a7.16,7.16,0,0,1,2.24-2l.58-.31a8.27,8.27,0,0,1,2.4-.69l30.57-17.64,13.76,19.1.28-.17.29-.15-13.77-19.11,32.61-18.83,2.59,3.59a6.36,6.36,0,0,1,.58-.3L1454,461l32.61-18.83,23.58,32.72c.17-.12.36-.24.55-.35l-23.57-32.7,32.62-18.82,29.42,40.82-24.89,14.37c.17.21.33.41.48.63l24.87-14.36,29.42,40.83-32.61,18.83-23.1-32.06-.59.31,23.12,32.08-32.61,18.83-29.42-40.83,25.43-14.68c-.16-.22-.3-.44-.44-.66l-25.45,14.7-14.21-19.72c-.18.12-.36.24-.55.35l14.19,19.69L1450.27,521l-3-4.19a2.61,2.61,0,0,1-.28.17l-.28.16,3,4.19-32.61,18.83-17.17-23.83a5.21,5.21,0,0,1-.55.36l17.15,23.79-17,9.8,0,.87,17.38-10L1446.41,582l-32.6,18.83-11.76-16.32c-.17.13-.34.26-.53.38l11.72,16.26L1380.63,620l-2.61-3.62c-.18.12-.36.24-.55.35l2.59,3.6-10.63,6.14-.17,1,11.26-6.5,28.81,40,.57-.33-28.81-40,32.61-18.82,28.81,40,.57-.33-28.81-40,32.6-18.83,28.81,40,.57-.32-28.81-40,32.61-18.83,28.81,40,.57-.33-28.81-40,32.6-18.82,28.81,40,.57-.33-28.81-40,32.61-18.83,28.81,40,.57-.32-28.81-40L1579.58,506l28.81,40,.56-.33-178.72-248-.57.33,0,.06-32.61,18.83,0-.06-.56.33,0,.06L1363.92,336l-.05-.07-.56.33,0,.06-32.6,18.83,0-.06-.57.32,0,.07-32.61,18.82,0-.06-.56.33,0,.06-32.6,18.83-.05-.07-.56.33,0,.06-32.61,18.83,0-.06-.56.32,0,.07L1198,431.76l0-.07-.57.33,0,.06-32.62,18.83,0-.06-.57.33,0,.06-32.61,18.82,0-.06-.57.33L1244.33,627.5a6.54,6.54,0,0,1,.59-.3l-23.12-32.09ZM1447,581.65l-29.42-40.83L1450.17,522l29.42,40.83Zm33.18-19.16-29.42-40.83,32.6-18.82,29.42,40.82Zm-255.53-28.64L1195.21,493l32.61-18.83L1257.24,515Zm65.79-38L1257.8,514.7l-29.41-40.83L1261,455ZM1363.82,337l29.42,40.83-32.61,18.83-29.42-40.83Zm-33.18,19.16,29.42,40.83-32.61,18.83L1298,374.94Zm-33.18,19.15,29.42,40.83-32.6,18.83-29.42-40.83Zm-33.17,19.15,29.42,40.83-32.61,18.83-29.42-40.83Zm-33.18,19.16,29.43,40.83-32.62,18.83L1198.5,432.4Zm-33.17,19.15,29.42,40.83-32.61,18.83-29.42-40.83Zm-65.79,38,32.61-18.82,29.42,40.83-32.61,18.82ZM1162,512.18l32.6-18.83,29.42,40.83L1191.46,553Zm29.88,41.47,32.6-18.83,29.42,40.83-32.6,18.82Z"/><path class="cls-18" d="M1281,560.91l2.3-1.33a10.83,10.83,0,0,1-1.09-.27l-.67.38Z"/><path class="cls-18" d="M1306.52,545.29,1293.14,553a6.74,6.74,0,0,1-.17,1l16.83-9.71Z"/><path class="cls-18" d="M1427.43,416.76l-3.75,2.17-3.06-4.25a4.6,4.6,0,0,0-.59.29l3.09,4.28-4.32,2.5c.13.22.27.44.43.66l4.35-2.51,3.55,4.92a4,4,0,0,0,.54-.37l-3.53-4.88,3.79-2.19A5.9,5.9,0,0,0,1427.43,416.76Z"/><path class="cls-18" d="M1315,482.6l9.08-5.25,29.42,40.83L1328,532.89a7.64,7.64,0,0,1,.51.62l25.43-14.69,4.73,6.57.6-.14,0-.21-4.72-6.54,2.62-1.51-.21-.79-2.87,1.66L1324.62,477,1343.8,466l-.21-.79-19.43,11.22-10-13.89a6.37,6.37,0,0,1-.55.35l10,13.86-8.82,5.1Z"/><path class="cls-18" d="M1352.87,460.72l4.36-2.52,3.55,4.93a4,4,0,0,0,.54-.37l-3.53-4.89,3.79-2.18a7.52,7.52,0,0,0-.5-.62l-3.75,2.16-3.06-4.24a4.53,4.53,0,0,0-.59.28l3.09,4.29-4.32,2.49C1352.58,460.28,1352.72,460.5,1352.87,460.72Z"/><path class="cls-18" d="M1370.77,449.48l-6.29,3.63c.17.2.34.4.5.62l6.69-3.87Z"/><path class="cls-18" d="M1347.53,463.8l2-1.12c-.16-.22-.31-.44-.44-.66l-1.72,1Z"/><path class="cls-18" d="M1376,447.37l14.42-8.32L1394,444a6.36,6.36,0,0,1,.58-.3l-3.57-4.95,24.86-14.35c-.16-.22-.3-.43-.44-.65l-24.88,14.36-5-7-.28.17-.29.16,5.06,7L1375.08,447Z"/><path class="cls-18" d="M1422.19,361.07l-.17,1,3.75-2.16a9.17,9.17,0,0,1-2.1.3Z"/><path class="cls-18" d="M1258.23,646.78l7,9.78a4.73,4.73,0,0,0,.6-.29l-7.11-9.86A4.15,4.15,0,0,0,1258.23,646.78Z"/><path class="cls-18" d="M1268.05,660.42l2.18,3a6.54,6.54,0,0,1,.59-.3l-2.18-3A6.54,6.54,0,0,1,1268.05,660.42Z"/><path class="cls-18" d="M1273,667.29l7.1,9.86a4.15,4.15,0,0,0,.53-.37l-7-9.77A4.53,4.53,0,0,0,1273,667.29Z"/><path class="cls-18" d="M1282.88,681l26.93,37.37.56-.32-26.95-37.4C1283.25,680.76,1283.07,680.88,1282.88,681Z"/><path class="cls-18" d="M1278.53,608.66l-6.37-8.84c-.17.12-.36.24-.55.35L1278,609C1278.16,608.89,1278.34,608.77,1278.53,608.66Z"/><path class="cls-18" d="M1319.48,666.6l23.5,32.61.56-.32L1320,666.25A5.14,5.14,0,0,1,1319.48,666.6Z"/><path class="cls-18" d="M1262.34,586.19a4.66,4.66,0,0,0-.6.28l7.11,9.86a3.34,3.34,0,0,0,.53-.37Z"/><path class="cls-18" d="M1307.42,648.75l-16.25-22.55-.58.31,16.25,22.55Z"/><path class="cls-18" d="M1286.76,554.89l-7.1-9.86a3.34,3.34,0,0,0-.53.37l7,9.77A4.53,4.53,0,0,0,1286.76,554.89Z"/><path class="cls-18" d="M1362.74,661.44a5.49,5.49,0,0,0,.53-.37l-7-9.77a4.53,4.53,0,0,0-.59.28Z"/><path class="cls-18" d="M1376.72,679.73l-10.66-14.8a4.62,4.62,0,0,1-.55.35l10.65,14.78Z"/><path class="cls-18" d="M1304.05,580a4.73,4.73,0,0,0,.6-.29l-7.11-9.85a3.34,3.34,0,0,0-.53.37Z"/><path class="cls-18" d="M1289,559l5.28,7.32a5.07,5.07,0,0,1,.55-.34l-5.25-7.28A6.36,6.36,0,0,1,1289,559Z"/><path class="cls-18" d="M1365.41,598.83l-8.34-11.58c-.19.11-.39.21-.59.31l8.35,11.58Z"/><path class="cls-18" d="M1374.7,612.84a5.14,5.14,0,0,0,.54-.37l-7-9.78a4.6,4.6,0,0,0-.59.29Z"/><path class="cls-18" d="M1327.08,546.75l16.8,23.31c.17-.12.36-.24.55-.35l-16.8-23.31C1327.45,546.52,1327.27,546.64,1327.08,546.75Z"/><path class="cls-18" d="M1310.84,459a3.34,3.34,0,0,0,.53-.37l-7-9.77a3.58,3.58,0,0,0-.59.29Z"/><path class="cls-18" d="M1391.68,571.2l7.07,9.82a3.43,3.43,0,0,0,.49-.43l-6.92-9.62A4.41,4.41,0,0,0,1391.68,571.2Z"/><path class="cls-18" d="M1362.32,529.34a5.18,5.18,0,0,0-.79,0l6.59,9.15a3.88,3.88,0,0,0,.35-.63Z"/><path class="cls-18" d="M1388.9,567.35a6.65,6.65,0,0,1,.61-.27l-5.13-7.11,11-6.37-.05-.88-11.44,6.61L1371.46,542c-.14.17-.29.33-.45.49l12.35,17.13L1358.49,574c.16.22.31.43.44.65l24.89-14.37Z"/><path class="cls-18" d="M1335.23,426.56l-.29.15-.28.18,6.43,8.91.61-.26Z"/><path class="cls-18" d="M1351.49,449.13l-6.4-8.89-.28.17-.29.16,6.39,8.86A6.36,6.36,0,0,1,1351.49,449.13Z"/><path class="cls-18" d="M1389.51,503l7.1,9.85a3,3,0,0,0,.54-.37l-7-9.77A4.73,4.73,0,0,0,1389.51,503Z"/><path class="cls-18" d="M1375.3,417.54l-.27.17,7.09,9.84.29-.15.28-.18-7.09-9.84Z"/><path class="cls-18" d="M1403.83,457.68a5.14,5.14,0,0,0,.54-.37l-7-9.77a4.11,4.11,0,0,0-.6.28Z"/><path class="cls-18" d="M1444.48,513l-7.08-9.83-.3.15-.27.18,7.09,9.83.28-.15Z"/><path class="cls-18" d="M1408.79,398.26a4.6,4.6,0,0,0-.59.29l7.1,9.86a5.14,5.14,0,0,0,.54-.37Z"/><path class="cls-18" d="M1459.42,468.52a4.11,4.11,0,0,0-.6.28l7.1,9.86a5.14,5.14,0,0,0,.54-.37Z"/><path class="cls-18" d="M1417.18,345.82l7,9.77a4.53,4.53,0,0,0,.59-.28l-7.1-9.86A5.14,5.14,0,0,0,1417.18,345.82Z"/><path class="cls-18" d="M1463.65,409.19a3.43,3.43,0,0,0-.54.37l7,9.77a4.73,4.73,0,0,0,.6-.29Z"/></g><path class="cls-16" d="M1364.48,453.11l-.53-.59,2.84-4.75-4.41-1.89-2.23,3.73a10,10,0,0,0-8.66-.48,6.36,6.36,0,0,0-.58.3,7.17,7.17,0,0,0-3.43,4.82L1345,454l1.14,4.36,1.44.13A11.79,11.79,0,0,0,1349,462c.13.22.28.44.44.66,3.48,4.84,9.8,6.76,14.07,4.3.19-.11.38-.23.55-.35,3.77-2.65,4.21-8.28.88-12.9C1364.82,453.51,1364.65,453.31,1364.48,453.11Zm-3.16,9.65a4,4,0,0,1-.54.37c-2.4,1.38-6,.3-7.91-2.41-.15-.22-.29-.44-.42-.67-1.46-2.57-1-5.5,1.23-6.78a4.53,4.53,0,0,1,.59-.28c2.16-.84,5,0,6.81,2.08a7.52,7.52,0,0,1,.5.62C1363.38,458.19,1363.22,461.21,1361.32,462.76Z"/><path class="cls-16" d="M1340.57,453.59,1316,451.25a13.23,13.23,0,0,0-1-1.64c-3.33-4.62-9.24-6.58-13.48-4.6a6.36,6.36,0,0,0-.58.3c-4.28,2.47-4.92,8.41-1.43,13.25a13.14,13.14,0,0,0,6.22,4.68L1311,484l.2.79,11.24,44.15a9.69,9.69,0,0,0-7.46,0c-.19.09-.39.19-.58.3-3.31,1.91-4.41,5.91-3.12,9.88l-20.55,6.17c-3.52-4.66-9.68-6.5-13.88-4.07-.19.11-.37.23-.55.35-3.77,2.64-4.21,8.27-.88,12.89a13.51,13.51,0,0,0,2.27,2.38l-3,6.86-.54,1.22-7.64,17.23a9.44,9.44,0,0,0-7,.21c-.2.09-.39.19-.59.3-4.27,2.47-4.91,8.4-1.42,13.24a13.06,13.06,0,0,0,3.28,3.19l-10.29,27.61a9.15,9.15,0,0,0-5.62.53,6.54,6.54,0,0,0-.59.3c-4.27,2.47-4.91,8.41-1.43,13.25a12.57,12.57,0,0,0,10,5.37,7.13,7.13,0,0,1,3.08-3.55,8.17,8.17,0,0,1,4.06-1.06,10.07,10.07,0,0,0-1.21-9.06c-.14-.22-.28-.44-.44-.65a13.38,13.38,0,0,0-3.54-3.35l10.24-27.51a9,9,0,0,0,6.51-.77c.19-.11.38-.23.55-.35,3.78-2.64,4.22-8.27.89-12.89a13.42,13.42,0,0,0-2.42-2.51L1281,560.91l.54-1.22.23-.52.44.14a10.83,10.83,0,0,0,1.09.27A9.05,9.05,0,0,0,1289,559a6.36,6.36,0,0,0,.58-.3A7.18,7.18,0,0,0,1293,554a6.74,6.74,0,0,0,.17-1,9.74,9.74,0,0,0-.3-3.61l13.68-4.12,3.28-1,3.81-1.15c3.57,4.29,9.42,5.93,13.47,3.59.19-.11.37-.23.55-.35,3.77-2.64,4.21-8.27.88-12.89a7.64,7.64,0,0,0-.51-.62l-.31-.34L1315,482.6l-.21-.79-4.56-17.93a8.07,8.07,0,0,0,3.4-1,6.37,6.37,0,0,0,.55-.35,7.65,7.65,0,0,0,3.08-6.89l24.47,2.34ZM1255,633.76c.16.22.3.44.43.66,1.33,2.35,1,5-.69,6.41a5.14,5.14,0,0,1-.54.37c-2.4,1.38-6,.31-7.9-2.41s-1.6-6.06.8-7.45a4.11,4.11,0,0,1,.6-.28C1250.06,630.14,1253.2,631.26,1255,633.76Zm14.38-37.8a3.34,3.34,0,0,1-.53.37c-2.41,1.39-5.95.3-7.91-2.42s-1.6-6,.8-7.44a4.66,4.66,0,0,1,.6-.28c2.36-.92,5.51.2,7.31,2.7S1271.29,594.41,1269.38,596Zm17.38-41.07a4.53,4.53,0,0,1-.59.28c-2.36.92-5.51-.2-7.31-2.7s-1.64-5.52.27-7.07a3.34,3.34,0,0,1,.53-.37c2.4-1.39,5.95-.3,7.91,2.41S1289.16,553.5,1286.76,554.89Zm38.35-19.42c1.8,2.5,1.64,5.52-.26,7.07a5.14,5.14,0,0,1-.54.37c-2.4,1.38-6,.3-7.91-2.42a5.67,5.67,0,0,1-.42-.66c-1.46-2.57-1-5.5,1.23-6.78a4.11,4.11,0,0,1,.6-.28c2.15-.84,5,0,6.8,2.08A7.52,7.52,0,0,1,1325.11,535.47Zm-13.74-76.83a3.34,3.34,0,0,1-.53.37c-2.4,1.39-5.95.31-7.91-2.41s-1.59-6.06.81-7.44a3.58,3.58,0,0,1,.59-.29c2.36-.92,5.5.2,7.31,2.7S1313.28,457.1,1311.37,458.64Z"/><path class="cls-16" d="M1429,345.91c-3.49-4.84-9.8-6.77-14.07-4.3-.19.11-.37.23-.55.35-3.77,2.64-4.21,8.27-.88,12.89a13.23,13.23,0,0,0,4.46,3.9l-.84,5.23-.16,1-4.69,29a9.22,9.22,0,0,0-6.28.38,6.36,6.36,0,0,0-.58.3c-3.91,2.26-4.74,7.41-2.2,12l-17.61,10.16c-3.51-3.85-8.9-5.32-12.8-3.3a2.69,2.69,0,0,1-.29.16l-.27.17c-4,2.56-4.56,8.35-1.15,13.08a13.76,13.76,0,0,0,1.54,1.77l-8.2,13.72,4.4,1.89,7.77-13a9.73,9.73,0,0,0,8.27.06l.29-.16.28-.17c3.23-2.06,4.16-6.21,2.64-10.22l18.19-10.5a11.83,11.83,0,0,0,8.65,2.91,7.13,7.13,0,0,1,2.32-2.14,8.17,8.17,0,0,1,3.13-1c2-2.94,1.8-7.36-.9-11.11a13.15,13.15,0,0,0-3-3l5.48-34,.17-1,.14-.91a8.63,8.63,0,0,0,1.34,0,9.17,9.17,0,0,0,2.1-.3,7.68,7.68,0,0,0,1.24-.46c.19-.09.39-.19.58-.3a6.93,6.93,0,0,0,1.53-1.18,7.06,7.06,0,0,0,1.18-1.59C1431.9,353.47,1431.54,349.4,1429,345.91Zm-46.33,81.31-.28.18-.29.15c-2.39,1.14-5.74,0-7.62-2.57s-1.62-5.8.53-7.27l.27-.17.3-.16c2.39-1.15,5.73,0,7.61,2.57S1384.84,425.74,1382.69,427.22ZM1415.84,408a5.14,5.14,0,0,1-.54.37c-2.4,1.38-6,.29-7.91-2.42s-1.59-6.06.81-7.44a4.6,4.6,0,0,1,.59-.29c2.36-.92,5.51.2,7.31,2.7S1417.74,406.49,1415.84,408Zm9-52.73a4.53,4.53,0,0,1-.59.28c-2.37.92-5.51-.2-7.31-2.7s-1.64-5.52.26-7.07a5.14,5.14,0,0,1,.54-.37c2.4-1.39,5.94-.3,7.9,2.42S1427.23,353.92,1424.82,355.31Z"/><path class="cls-17" d="M1475,409.64c-3.49-4.84-9.8-6.77-14.08-4.3-.19.11-.37.23-.54.35-2.56,1.8-3.54,5-2.9,8.27l-25.15,3a13,13,0,0,0-1-1.58l-.49-.63a12.23,12.23,0,0,0-10.45-4.68,8.17,8.17,0,0,0-3.13,1,7.13,7.13,0,0,0-2.32,2.14c-1.92,2.77-1.83,6.85.45,10.46.14.22.28.43.44.65s.2.22.29.34l-14.13,19a9.71,9.71,0,0,0-7.45,0,6.36,6.36,0,0,0-.58.3c-3.28,1.9-4.4,5.83-3.18,9.73L1376,447.37l-.91-.38-6.23-2.67-4.4-1.89-16.19-6.93a10.64,10.64,0,0,0-2-8.33c-3.41-4.73-9.51-6.68-13.78-4.46a2.69,2.69,0,0,0-.29.16l-.28.17c-4,2.56-4.56,8.35-1.15,13.08a13.12,13.12,0,0,0,6.52,4.79l3.31,12.68,1.14,4.36,1.88,7.22.21.79,13.11,50.24.21.79,2.1,8,0,.21-.6.14a6.63,6.63,0,0,0-1.77.71c-4.28,2.46-4.92,8.4-1.44,13.24a13.42,13.42,0,0,0,4.62,4l-7.45,26.13a9.5,9.5,0,0,0-8.2.24c-.19.11-.38.23-.55.35a7.58,7.58,0,0,0-3.09,6.41L1310.65,574a11.86,11.86,0,0,0-1.8-3.66c-3.49-4.84-9.8-6.76-14.07-4.29a5.07,5.07,0,0,0-.55.34c-3.77,2.65-4.22,8.27-.88,12.9a13.34,13.34,0,0,0,3,3l-9.5,26.21a9.5,9.5,0,0,0-8.31.2h0c-.19.11-.37.23-.55.35-3.59,2.53-4.15,7.76-1.32,12.24q.21.33.45.66a13.63,13.63,0,0,0,1.84,2l-11.34,20.4a12,12,0,0,0-7.56-2.82,8.17,8.17,0,0,0-4.06,1.06,7.13,7.13,0,0,0-3.08,3.55c-1.15,2.83-.64,6.5,1.65,9.69,3.33,4.62,9.25,6.59,13.49,4.61a6.54,6.54,0,0,0,.59-.3c3.88-2.25,4.72-7.36,2.23-11.91L1283,626.45a9.72,9.72,0,0,0,7.61.06l.58-.31h0c4.27-2.47,4.91-8.41,1.43-13.24-.16-.22-.32-.43-.49-.63a12.84,12.84,0,0,0-1.25-1.3l9.72-26.78a9.35,9.35,0,0,0,6.24-.4,6.54,6.54,0,0,0,.59-.3,7.3,7.3,0,0,0,3.53-5.31l30.82,2.57A12.55,12.55,0,0,0,1343,583l.49.63c3.39,4.16,9,5.86,13,4,.2-.1.4-.2.59-.31,4.08-2.35,4.84-7.88,1.86-12.59-.13-.22-.28-.43-.44-.65a13.65,13.65,0,0,0-1.79-2l7.8-27.37a8.6,8.6,0,0,0,5-1,7.5,7.5,0,0,0,1.47-1.12c.16-.16.31-.32.45-.49,2.44-2.93,2.37-7.65-.5-11.63a13,13,0,0,0-7.36-5l-2.75-10.54-.21-.78-13.11-50.25-.21-.79-1.21-4.64L1345,454l-3.29-12.62a8.22,8.22,0,0,0,2.84-.82l.29-.16.28-.17a7.76,7.76,0,0,0,1.37-1.17l15.92,6.81,4.41,1.89,4,1.71.9.38,23.48,10.05c3.52,2.75,8.1,3.55,11.45,1.61.19-.11.37-.23.55-.35,3.77-2.64,4.21-8.27.88-12.9a14,14,0,0,0-2-2.1l13.61-18.26c3.31,2,7.25,2.47,10.21.76.19-.11.38-.23.55-.35a7.67,7.67,0,0,0,3.09-7l25.68-3.1c.08.12.14.26.23.38,3.33,4.63,9.24,6.6,13.48,4.61a6.54,6.54,0,0,0,.59-.3C1477.79,420.42,1478.43,414.48,1475,409.64ZM1265.87,656.27a4.73,4.73,0,0,1-.6.29c-2.36.91-5.51-.21-7.31-2.71s-1.64-5.52.27-7.07a4.15,4.15,0,0,1,.53-.37c2.4-1.38,6-.3,7.9,2.42S1268.27,654.89,1265.87,656.27Zm22.54-33.91h0a6.45,6.45,0,0,1-.59.29c-2.36.91-5.5-.21-7.31-2.71a7.39,7.39,0,0,1-.42-.66c-1.33-2.35-1-5,.69-6.41a4.1,4.1,0,0,1,.53-.36h0c2.21-1.27,5.38-.46,7.4,1.8a6.15,6.15,0,0,1,.5.62C1291.17,617.63,1290.81,621,1288.41,622.36Zm16.24-42.66a4.73,4.73,0,0,1-.6.29c-2.36.91-5.51-.2-7.31-2.7s-1.63-5.53.27-7.07a3.34,3.34,0,0,1,.53-.37c2.41-1.39,6-.31,7.91,2.41S1307.05,578.31,1304.65,579.7Zm49.65,3.71a3.28,3.28,0,0,1-.6.28c-2.16.85-5,0-6.81-2.08-.17-.19-.34-.4-.5-.61-1.8-2.51-1.64-5.53.27-7.08a5,5,0,0,1,.53-.37c2.41-1.38,6-.3,7.91,2.42a6,6,0,0,1,.42.66C1357,579.21,1356.5,582.13,1354.3,583.41Zm7.23-54a5.18,5.18,0,0,1,.79,0,7.17,7.17,0,0,1,5.24,3,5.75,5.75,0,0,1,.91,5.52,3.88,3.88,0,0,1-.35.63,3.78,3.78,0,0,1-1.35,1.28c-2.4,1.39-6,.31-7.91-2.41s-1.6-6.06.81-7.44A4.5,4.5,0,0,1,1361.53,529.36Zm-17.83-94.67-2,.85-.61.26-2.78,1.18a7.25,7.25,0,0,1-4.18-2.83c-1.88-2.61-1.61-5.79.53-7.26l.28-.18.29-.15c2.39-1.15,5.74,0,7.62,2.57A5.69,5.69,0,0,1,1343.7,434.69Zm60.67,22.62a5.14,5.14,0,0,1-.54.37c-2.4,1.38-5.95.3-7.91-2.42s-1.59-6.05.81-7.44a4.11,4.11,0,0,1,.6-.28c2.35-.92,5.49.19,7.29,2.69S1406.27,455.76,1404.37,457.31Zm23.3-32.86a4,4,0,0,1-.54.37c-2.4,1.39-6,.31-7.9-2.41-.16-.22-.3-.44-.43-.66-1.46-2.58-1-5.51,1.23-6.78a4.6,4.6,0,0,1,.59-.29c2.16-.84,5,0,6.81,2.08a5.9,5.9,0,0,1,.5.62C1429.73,419.88,1429.57,422.91,1427.67,424.45Zm43.08-5.41a4.73,4.73,0,0,1-.6.29c-2.36.92-5.5-.2-7.31-2.71s-1.64-5.52.27-7.06a3.43,3.43,0,0,1,.54-.37c2.4-1.39,5.94-.31,7.89,2.41S1473.15,417.66,1470.75,419Z"/><path class="cls-6" d="M1524.83,478.88c-.15-.22-.31-.42-.48-.63-3.56-4.37-9.5-6-13.58-3.67-.19.11-.38.23-.55.35a7.36,7.36,0,0,0-3.07,5.4l-35-6.46a11.84,11.84,0,0,0-2-4.61c-3.33-4.62-9.25-6.59-13.49-4.61a6.36,6.36,0,0,0-.58.3c-4.28,2.47-4.91,8.42-1.43,13.25a12.45,12.45,0,0,0,1.24,1.45L1444,499.9c-3.08-1.7-6.63-2-9.4-.6l-.29.15-.28.17a7.48,7.48,0,0,0-3.34,6.44l-28.87-.89a13.86,13.86,0,0,0-1-1.71c-2.73-3.8-7.22-5.81-11.09-5.3a8.27,8.27,0,0,0-2.4.69l-.58.31a7.16,7.16,0,0,0-2.24,2c-2.12,2.95-1.93,7.43.81,11.23a12.92,12.92,0,0,0,8.1,5.17l1.95,35.14.05.88.76,13.51a9.71,9.71,0,0,0-6.66,0,6.65,6.65,0,0,0-.61.27c-.14.06-.27.14-.41.21-4.27,2.47-4.91,8.42-1.43,13.25l.11.12-13.3,18.3a10,10,0,0,0-8.46-.4l-.58.31c-4.27,2.46-4.92,8.4-1.44,13.24a13.41,13.41,0,0,0,3.26,3.17l-2.3,13.8-.17,1-2.87,17.24a9.84,9.84,0,0,0-7.86-.16l-.58.31a7.5,7.5,0,0,0-3.63,6.91l-26.82-.19h-.85l-.17-.31c-.15-.27-.3-.53-.48-.79-3.34-4.63-9.25-6.59-13.5-4.61l-.58.31c-3.59,2.07-4.57,6.58-2.75,10.84l-20.68,6.8c-3.42-3.84-8.7-5.38-12.59-3.56a6.54,6.54,0,0,0-.59.3c-4.28,2.47-4.91,8.42-1.43,13.25s9.8,6.77,14.08,4.3c.19-.11.37-.23.54-.35a7.35,7.35,0,0,0,3-5.42c0-.3,0-.62,0-.93a10.3,10.3,0,0,0-.66-3.56l15.87-5.22,3.64-1.2,1.38-.45c3.61,3.66,9,4.92,12.74,2.74a5.14,5.14,0,0,0,.55-.35,7.74,7.74,0,0,0,3-7.47l27.19.19a13,13,0,0,0,1.18,2c3.49,4.84,9.8,6.77,14.07,4.3a4.62,4.62,0,0,0,.55-.35c3.77-2.64,4.21-8.27.88-12.9a15.45,15.45,0,0,0-1.49-1.72l3.81-22.89.17-1,1.5-9a9,9,0,0,0,6.54-.76c.19-.11.37-.23.55-.35,3.77-2.65,4.21-8.28.87-12.9a13,13,0,0,0-1.17-1.37l13-17.85c3.34,2.15,7.4,2.65,10.43.89a2.55,2.55,0,0,0,.39-.24c.19-.12.36-.25.53-.38,3.43-2.74,3.73-8.15.51-12.62a13.52,13.52,0,0,0-1.91-2.08l-1-18.61,0-.87-1.84-32.88a8.3,8.3,0,0,0,1.65-.71,5.21,5.21,0,0,0,.55-.36,7.64,7.64,0,0,0,3.09-6.86l28.6.89a11.61,11.61,0,0,0,1.29,2.32c3.4,4.73,9.52,6.68,13.78,4.46l.28-.16a2.61,2.61,0,0,0,.28-.17c4-2.56,4.56-8.35,1.16-13.07-.21-.29-.46-.53-.68-.8l12-20.52a9.71,9.71,0,0,0,9,.06c.19-.11.37-.23.55-.35a7.24,7.24,0,0,0,2.79-4.07l35.69,6.57a12.21,12.21,0,0,0,1.18,2.52c.14.22.28.44.44.66,3.33,4.62,9.24,6.58,13.48,4.6l.59-.31C1527.68,489.66,1528.32,483.72,1524.83,478.88Zm-244.19,197.9a4.15,4.15,0,0,1-.53.37c-2.4,1.38-5.95.3-7.91-2.42s-1.6-6.05.81-7.44a4.53,4.53,0,0,1,.59-.28c2.36-.92,5.5.2,7.3,2.7S1282.55,675.23,1280.64,676.78Zm36.61-14.39a4,4,0,0,1-.54.37c-2,1.14-4.71.61-6.72-1.12a7.8,7.8,0,0,1-.58-.57,6.94,6.94,0,0,1-.6-.72c-2-2.73-1.6-6.06.8-7.45a4.6,4.6,0,0,1,.59-.29c2.36-.91,5.51.2,7.32,2.71a8.35,8.35,0,0,1,.49.78,5.76,5.76,0,0,1,.33.72A4.73,4.73,0,0,1,1317.25,662.39Zm46-1.32a5.49,5.49,0,0,1-.53.37c-2.4,1.38-6,.3-7.91-2.42s-1.59-6,.81-7.44a4.53,4.53,0,0,1,.59-.28c2.36-.92,5.51.19,7.31,2.69S1365.18,659.52,1363.27,661.07Zm12-48.6a5.14,5.14,0,0,1-.54.37c-2.4,1.38-6,.3-7.91-2.42s-1.59-6,.81-7.44a4.6,4.6,0,0,1,.59-.29c2.36-.91,5.5.21,7.3,2.7S1377.14,610.92,1375.24,612.47Zm23.93-38.65c1.69,2.34,1.65,5.15.07,6.77a3.43,3.43,0,0,1-.49.43c-.12.09-.25.17-.38.25-2.4,1.38-6,.3-7.91-2.42s-1.6-6.06.8-7.44a4.11,4.11,0,0,1,.42-.21,4.41,4.41,0,0,1,.64-.23A6.73,6.73,0,0,1,1399.17,573.82Zm-2-61.33a3,3,0,0,1-.54.37c-2.39,1.39-5.94.31-7.9-2.41s-1.59-6.06.8-7.44a4.73,4.73,0,0,1,.6-.29c2.36-.92,5.51.2,7.31,2.7S1399.06,511,1397.15,512.49Zm47.33.49-.28.18-.28.15c-2.39,1.15-5.74,0-7.62-2.57s-1.62-5.79.53-7.26l.27-.18.3-.15c2.39-1.15,5.73,0,7.61,2.57S1446.64,511.5,1444.48,513Zm22-34.69a5.14,5.14,0,0,1-.54.37c-2.39,1.38-5.94.3-7.9-2.42s-1.6-6.05.8-7.44a4.11,4.11,0,0,1,.6-.28c2.36-.92,5.5.2,7.3,2.7S1468.36,476.74,1466.46,478.29Zm54.18,10a5.48,5.48,0,0,1-.6.29c-2.36.91-5.51-.2-7.31-2.7-.15-.22-.3-.44-.42-.66-1.34-2.36-1-5,.69-6.42a3.62,3.62,0,0,1,.54-.36c2.21-1.28,5.38-.46,7.4,1.79.17.2.34.41.49.62C1523.39,483.56,1523,486.89,1520.64,488.28Z"/><path class="cls-25" d="M1742.14,1445s6.27,39,0,47.84-31.69,18.21-48.31,8.31-18.06-17.38-35.69-33.37c-16.75-15.18-42.31-29.44-49.18-52.55-5.28-17.83-1-38.83,7.91-43s43.69,6.25,61.36,21.81S1742.14,1445,1742.14,1445Z"/><path class="cls-26" d="M1609,1415.18c6.87,23.11,32.43,37.37,49.18,52.55,17.63,16,19,23.5,35.69,33.37s42.11.52,48.31-8.31a14.14,14.14,0,0,0,2-5.78,27,27,0,0,1-.84,8.08l-1.67,10.25a39.06,39.06,0,0,1-14.58,9.78c-9.39,3.65-23.45,4.17-33.1-2.34s-28.13-26.31-28.13-26.31,0-2.9.07-6.31c-2.23-2.31-4.77-4.8-7.8-7.53-16.75-15.17-42.31-29.41-49.18-52.55a57.35,57.35,0,0,1-2.2-18.44A55.81,55.81,0,0,0,1609,1415.18Z"/><path class="cls-27" d="M1743.11,1266.42c-6.68-72.41-25.17-114.52-29.27-132.49-3.86-16.89-10.44-191.55-11.23-212.59l-.07-2.07-29.27-110.93-90.39,14.9-56,132s64.7,157.65,81.65,202.33,29.38,150.29,34.81,191.55c6,45.39,6,94.57,19.83,105.87s70.15,34.33,79.91,14.3S1749.79,1338.83,1743.11,1266.42Z"/><path class="cls-28" d="M1582.88,823.24l-56,132s30.72,74.86,55.38,136c11.53-25.21,36-71.46,67.18-90.58,15.08-9.23,35.23-18.57,55.2-26.86-1.06-25.78-1.82-46.13-2.06-52.48l-.07-2.07-29.27-110.93Z"/><path class="cls-25" d="M1297.55,1582.89c22.38-4.91,92.89-9.38,117.61-35.34l98.52,32.21s6.71,31.31,0,47.89c0,0-25.06,12.52-46.54,12.52s-37.13-2.48-61.28,3.58-62.68,9-92.64,0-49.26-31.33-49.68-42S1275.16,1587.82,1297.55,1582.89Z"/><path class="cls-26" d="M1263.58,1602c.72,10.8,19.87,32.88,49.64,41.78,30,9,68.46,6.06,92.64,0s39.81-3.58,61.28-3.58,46.54-12.52,46.54-12.52a13.79,13.79,0,0,0,.55-1.52,23.33,23.33,0,0,1-.46,3.34l.64,14.92s-4.42,3.44-19.55,7.69-59.44,1.47-59.44,1.47-.1-4.23-.1-8.22a131,131,0,0,0-30.53,4.05c-24.18,6-62.64,8.93-92.62,0s-49.22-31.34-49.66-42.1A10,10,0,0,1,1263.58,1602Z"/><path class="cls-28" d="M1422.75,913.05s-18.39,75.65-19.8,165.45,8.48,301.21,5,350-23.33,140.71-23.33,140.71-5.66,37.47,38.18,46,94,2.13,92.62-19.79,26.87-193.74,24-236.87-19.09-102.52-8.48-149.89,40.3-205.76,40.3-205.76,41-57.27,41-86.26S1422.75,913.05,1422.75,913.05Z"/><path class="cls-28" d="M1422.75,913.05s-5.77,23.75-11.1,60.43c19.81,11.48,71.71,35,159.31,30.79.18-.93.27-1.43.27-1.43s41-57.27,41-86.26S1422.75,913.05,1422.75,913.05Z"/><path class="cls-29" d="M1687.69,395s-37.63-8-36.7-36.68,30.59-68.69,26.36-112.44-40.47-73.38-82.33-84.69-85.63,21.65-92.7,48-6.67,37-3.53,42.69,3.49,13.83,2,17.73-4.07,17.72-.54,29.36,12.74,50.77,22.18,53.93,23.25,3.88,25.47,16.07-3,41-10.34,59.29c0,0,27.15,25.48,89,15.34S1687.69,395,1687.69,395Z"/><path class="cls-30" d="M1537.58,428.23c7.39-18.29,12.57-47.1,10.34-59.29s-16.08-12.91-25.47-16.07a6.64,6.64,0,0,1-2.16-1.34c6.55-4.82,14.23-12.67,15.3-23.41,1.94-19.16,1.94-46,1.94-46s47.17,27.22,54.62,27.22S1572.47,384.5,1602.36,419c11.35,13.09-2.34,20.89-23.66,25.51C1550.44,440.31,1537.58,428.23,1537.58,428.23Z"/><path class="cls-29" d="M1530.74,301s-1.46-12.2,6.61-11.36,8.67,24,6.6,34.5-9.9,15.08-11.37-1S1530.74,301,1530.74,301Z"/><path class="cls-31" d="M1554.32,150q64.29-8.07,102.85,27.85c25.72,23.92,43,86.07,14,115.13h0c-4.87,15.67-11.29,30.36-15.62,43.55-23.1,10.79-54.11,11.79-72.52,7.28-21.08-5.16-14.89-33.47-30.58-49.39s-30.38,0-30.38,0-3.53-21.67-4.33-32.85-6.41-14.25-7.21-25.42,2.67-22.5-1.88-30.36a15.13,15.13,0,0,1-2-6.71s-5.16-2.29-5.88-12.3S1511.46,155.32,1554.32,150Z"/><path class="cls-32" d="M1522.06,294.39s-3.53-21.67-4.33-32.85a31,31,0,0,0-1.3-6.92c12.55,10.29,40.46,31.63,65.41,40.3,27,9.4,61.29,5.51,89.32-2-4.87,15.67-11.29,30.36-15.62,43.55-23.1,10.79-54.11,11.79-72.52,7.28-21.08-5.16-14.89-33.47-30.58-49.39S1522.06,294.39,1522.06,294.39Z"/><path class="cls-29" d="M1408.6,402.52c-2.15,7.23-14.15,5.46-20.29,3.19s-35.46-14.33-39.78-3.19,6.14,14.25,15,17.36,21.83,7,27.28,10.83,23.87,8.64,30,10,36.38,3.52,36.38,3.52l20.91-30.8s-21.82-27.7-27.51-35.22-27.83-21.62-37.78-25.94-23.6-7.27-31.55-5-20.69,4.77-27.51,7.5-21.83,9.78-18.76,14.67,15.12.56,24.44.56,25.24.91,32.51,5.46S1410,397.75,1408.6,402.52Z"/><polygon class="cls-6" points="1475.15 407.72 1452.65 447.76 1467.65 456.18 1487.43 413.89 1475.15 407.72"/><polygon class="cls-28" points="1481.31 409.56 1456.29 464.59 1502.66 492.55 1542.68 434.35 1481.31 409.56"/><path class="cls-27" d="M1436.9,805c6.9-40.24,19.22-89.86,17-139.62s-3.7-145,6.89-164c4.76-8.5-10.56-1.84,1.43-14.38,14.86-15.54,64.92-45.44,64.92-45.44L1672.86,395l4.57-14.19s66.7-7.88,79.08,4.11c19.35,18.72,5.37,85.1-.56,120.71s-33.75,109-47,135.72-17,107.86-9.46,137.08c8.89,34.47,32.68,133.16,32.68,133.16s-16.81,32.6-69.09,56.67l-18.85-123.46,9,127.69a261.09,261.09,0,0,1-42.57,13l-13.32,1.93c-35.69,8.66-134.66,12.21-188.75-33.91C1408.6,953.44,1430.11,844.65,1436.9,805Z"/><path class="cls-33" d="M1508,611.17c7.7-35.07-8.47-51.48-8.47-51.48h-46.63c-1.25,35.15-.24,77.64,1,105.67,2.24,49.76-10.08,99.38-17,139.62-6.79,39.67-28.3,148.46-28.3,148.46,24.11,20.56,57.14,31.24,89.5,36C1483.35,895.12,1501.33,641.37,1508,611.17Z"/><path class="cls-29" d="M1170.67,632.78s-.51-33.3-3.54-35.82-24.22-22.46-24.22-22.46-24.49-16.63-30.8-21.43-16.88-8.55-22.18-7.54-10.35,6-10.35,6-14.63-2.27-19.67,0-12.62,9.08-7.32,12.11,15.89,1.51,22.45,4.29,24,11.86,19.94,16.15-7.32-2.28-14.89-6.56-19.42-7.54-28-7.54-14.49,1.8-14,7.72,6.18,6.61,13.9,7.81,12.7,4.2,18.27,7.72,10.55,8.92,9.27,12-8.41.17-12.87-1.8a33.92,33.92,0,0,0-18.7-2.84c-7.72,1.12-12.7,2.84-13.13,7.3s3.35,5.83,7.29,6,18.37,3,22.35,5.84,26.81,25.31,33,32.08,20.93,13.56,28.74,15.79,23.42,9.35,23.42,9.35Z"/><path class="cls-6" d="M1170.67,636.57l-3.94-7.63-5.9-2.21s-31,.25-35.07,52.73l24.47,8.07Z"/><path class="cls-6" d="M1669.7,376l-8.12-14s-21.91,6.12-50.6,14.62c-43.54,12.89-77.82,43.28-77.82,43.28S1657.43,385.56,1669.7,376Z"/><path class="cls-8" d="M1533.16,419.88s65.38-24.43,87.62-31.49c25.56-8.11,48.92-17.2,48.92-17.2l18,22.26s3.08,26.32-41.21,40.94S1524.86,443,1524.86,443Z"/><path class="cls-27" d="M1166.73,628.94s-35.55,10.76-30.4,66c0,0,147.34,55.67,170.27,61.75s91.21-51,123-75.78,69.23-50.06,77.19-88.88-27.46-119.36-44.61-105.06-163.09,179.44-163.09,179.44Z"/><polygon class="cls-9" points="2163.16 1791.52 2040.23 1720.55 1970.02 1761.18 1969.01 1759.42 2040.23 1718.19 2163.16 1789.17 2282.92 1720.03 2221.64 1684.64 2222.65 1682.88 2286.99 1720.03 2163.16 1791.52"/><polygon class="cls-9" points="1709.79 2053.26 1621.96 2002.55 1622.98 2000.78 1709.79 2050.9 1825.6 1984.05 1703.09 1913.32 1766.83 1876.43 1767.85 1878.19 1707.16 1913.32 1829.67 1984.05 1709.79 2053.26"/><polygon class="cls-9" points="2167.11 1632.02 2166.08 1630.26 2310.15 1547.09 2158.19 1459.35 2159.21 1457.59 2314.22 1547.09 2167.11 1632.02"/><polygon class="cls-9" points="1446.72 2047.93 1291.54 1958.33 1292.56 1956.57 1446.72 2045.57 1520.19 2003.16 1521.21 2004.92 1446.72 2047.93"/><path class="cls-3" d="M2217,1400c4.5,2.6,4.55,6.84.08,9.43l-158.5,90.11c-4.47,2.59-11.83,2.59-16.32,0l-148.93-86.93c-4.49-2.6-4.52-6.86,0-9.45l158.51-90.1c4.46-2.59,11.79-2.58,16.3,0Z"/><path class="cls-9" d="M2049.66,1518.31a20.42,20.42,0,0,1-10-2.4L1866,1414.53c-2.87-1.65-4.45-3.93-4.45-6.4s1.56-4.73,4.39-6.38l184.85-105.06a20.11,20.11,0,0,1,10-2.4,20.45,20.45,0,0,1,10.06,2.42l173.66,101.36c2.88,1.66,4.47,3.94,4.47,6.42s-1.54,4.7-4.37,6.35l-184.85,105.07A20.28,20.28,0,0,1,2049.66,1518.31Zm11-222a18.07,18.07,0,0,0-8.94,2.12l-184.85,105.07c-2.18,1.26-3.38,2.9-3.38,4.6s1.23,3.37,3.45,4.66l173.66,101.37a20.12,20.12,0,0,0,18,0l184.85-105.08c2.16-1.26,3.35-2.88,3.35-4.58s-1.23-3.37-3.46-4.66l-173.66-101.36A18.42,18.42,0,0,0,2060.7,1296.33Z"/><path class="cls-4" d="M2217.1,1364.93,2058.6,1455c-4.47,2.59-11.83,2.59-16.32,0l-148.93-86.93c-2.26-1.3-3.39-3-3.38-4.76l0,16.59c0,1.73,1.12,3.46,3.39,4.76l148.92,86.93c4.49,2.59,11.85,2.59,16.32,0l158.51-90.1c2.21-1.28,3.31-3,3.32-4.67l0-16.59C2220.42,1362,2219.32,1363.65,2217.1,1364.93Z"/><path class="cls-6" d="M2217,1355.49c4.5,2.6,4.55,6.84.08,9.44L2058.6,1455c-4.47,2.59-11.83,2.59-16.32,0l-148.93-86.93c-4.49-2.59-4.52-6.85,0-9.45l158.51-90.09c4.46-2.6,11.79-2.59,16.3,0Z"/><path class="cls-3" d="M2034.51,1815c4.5,2.6,4.55,6.84.09,9.44l-158.51,90.1c-4.47,2.59-11.83,2.59-16.32,0l-148.92-86.93c-4.5-2.6-4.52-6.86-.06-9.45L1869.3,1728c4.46-2.59,11.8-2.58,16.3,0Z"/><path class="cls-9" d="M1867.15,1933.29a20.42,20.42,0,0,1-10-2.4l-173.67-101.37c-2.87-1.66-4.45-3.94-4.45-6.42s1.56-4.72,4.39-6.37l184.86-105.06a20,20,0,0,1,10-2.4,20.43,20.43,0,0,1,10.06,2.42l173.67,101.37c2.87,1.66,4.46,3.94,4.47,6.41s-1.56,4.7-4.38,6.35L1877.16,1930.9A20.36,20.36,0,0,1,1867.15,1933.29Zm11-222a18.07,18.07,0,0,0-8.94,2.12L1684.4,1818.5c-2.18,1.27-3.38,2.9-3.38,4.6s1.23,3.37,3.45,4.66l173.66,101.37a20.12,20.12,0,0,0,18,0L2061,1824.06c2.16-1.27,3.35-2.89,3.35-4.59s-1.23-3.37-3.46-4.65l-173.66-101.37A18.42,18.42,0,0,0,1878.19,1711.31Z"/><path class="cls-4" d="M2034.6,1779.91,1876.09,1870c-4.47,2.6-11.83,2.6-16.32,0l-148.92-86.93c-2.26-1.3-3.39-3-3.39-4.75l0,16.59c0,1.72,1.12,3.45,3.39,4.76l148.92,86.92c4.5,2.59,11.85,2.59,16.32,0l158.51-90.1c2.21-1.28,3.31-3,3.32-4.66l0-16.6C2037.91,1776.94,2036.81,1778.63,2034.6,1779.91Z"/><path class="cls-6" d="M2034.51,1770.48c4.5,2.59,4.55,6.84.09,9.43L1876.09,1870c-4.47,2.6-11.83,2.6-16.32,0l-148.92-86.93c-4.5-2.59-4.52-6.85-.06-9.45l158.51-90.09c4.46-2.6,11.8-2.58,16.3,0Z"/><path class="cls-3" d="M1354.61,1896.59c4.5,2.59,4.55,6.84.09,9.43l-158.51,90.1c-4.46,2.6-11.82,2.6-16.32,0L1031,1909.2c-4.5-2.6-4.52-6.86,0-9.46l158.5-90.09c4.46-2.6,11.8-2.58,16.3,0Z"/><path class="cls-9" d="M1187.25,2014.9a20.45,20.45,0,0,1-10-2.4l-173.66-101.38c-2.87-1.65-4.46-3.93-4.46-6.41s1.56-4.72,4.39-6.37l184.86-105.06a20.05,20.05,0,0,1,10-2.4,20.41,20.41,0,0,1,10,2.42L1382,1894.66c2.87,1.66,4.46,3.94,4.47,6.42s-1.55,4.7-4.38,6.34L1197.26,2012.5A20.22,20.22,0,0,1,1187.25,2014.9Zm11-222a18.09,18.09,0,0,0-9,2.12L1004.5,1900.11c-2.17,1.26-3.37,2.9-3.37,4.6s1.22,3.37,3.44,4.65l173.67,101.38a20.19,20.19,0,0,0,18,0l184.85-105.08c2.16-1.26,3.36-2.88,3.35-4.58s-1.23-3.38-3.46-4.66l-173.66-101.36A18.38,18.38,0,0,0,1198.3,1792.92Z"/><path class="cls-4" d="M1354.7,1861.52l-158.51,90.09c-4.46,2.6-11.82,2.6-16.32,0L1031,1864.69c-2.26-1.31-3.39-3-3.39-4.76l0,16.59c0,1.73,1.12,3.45,3.39,4.76l148.91,86.92c4.5,2.6,11.86,2.6,16.32,0l158.51-90.09c2.21-1.28,3.31-3,3.32-4.67l0-16.59C1358,1858.54,1356.91,1860.24,1354.7,1861.52Z"/><path class="cls-6" d="M1354.61,1852.08c4.5,2.6,4.55,6.84.09,9.44l-158.51,90.09c-4.46,2.6-11.82,2.6-16.32,0L1031,1864.69c-4.5-2.6-4.52-6.86,0-9.45l158.5-90.09c4.46-2.6,11.8-2.59,16.3,0Z"/><g class="cls-7"><path class="cls-8" d="M462.85,1329.84c4.49,2.6,4.55,6.84.08,9.44l-71.29,41.42c-4.47,2.6-11.83,2.6-16.32,0l-71.76-41.42c-4.5-2.6-4.52-6.86-.05-9.45l71.29-41.43c4.47-2.6,11.8-2.59,16.3,0Z"/></g><path class="cls-9" d="M383.55,1393.77a21.14,21.14,0,0,1-10.4-2.5l-86.81-50.12c-3-1.72-4.61-4.07-4.61-6.62s1.61-4.88,4.54-6.58l86.26-50.12a20.83,20.83,0,0,1,10.31-2.49,21.14,21.14,0,0,1,10.42,2.51L480.07,1328c3,1.72,4.62,4.07,4.63,6.63s-1.61,4.85-4.53,6.54l-86.25,50.13A21,21,0,0,1,383.55,1393.77Zm-.71-116.39a18.74,18.74,0,0,0-9.29,2.21l-86.26,50.12c-2.28,1.32-3.53,3-3.53,4.82s1.28,3.52,3.59,4.86l86.82,50.12a20.86,20.86,0,0,0,18.73,0l86.25-50.13c2.27-1.31,3.51-3,3.51-4.78s-1.28-3.53-3.61-4.87l-86.81-50.12A19.1,19.1,0,0,0,382.84,1277.38Z"/><path class="cls-4" d="M462.93,1294.77l-71.29,41.43c-4.47,2.6-11.83,2.6-16.32,0l-71.76-41.42c-2.26-1.32-3.39-3-3.39-4.77l0,16.59c0,1.73,1.12,3.46,3.39,4.76l71.75,41.43c4.5,2.6,11.86,2.6,16.32,0l71.29-41.43c2.22-1.28,3.32-3,3.32-4.67l.05-16.59C466.25,1291.79,465.14,1293.49,462.93,1294.77Z"/><path class="cls-6" d="M462.85,1285.33c4.49,2.6,4.55,6.85.08,9.44l-71.29,41.43c-4.47,2.6-11.83,2.6-16.32,0l-71.76-41.42c-4.5-2.6-4.52-6.87-.05-9.46l71.29-41.43c4.47-2.6,11.8-2.58,16.3,0Z"/><g class="cls-7"><path class="cls-8" d="M1649,1966.05c4.5,2.6,4.55,6.85.08,9.44l-71.29,41.43c-4.47,2.6-11.82,2.6-16.32,0l-71.76-41.43c-4.5-2.59-4.52-6.86,0-9.45l71.29-41.43c4.47-2.6,11.8-2.58,16.3,0Z"/></g><path class="cls-9" d="M1569.67,2030a21,21,0,0,1-10.4-2.5l-86.81-50.12c-3-1.71-4.61-4.07-4.61-6.62s1.61-4.88,4.54-6.58l86.26-50.12a20.84,20.84,0,0,1,10.32-2.48,21.2,21.2,0,0,1,10.41,2.5l86.81,50.12c3,1.72,4.63,4.08,4.63,6.63s-1.6,4.85-4.52,6.55L1580,2027.48A20.83,20.83,0,0,1,1569.67,2030Zm-.7-116.39a18.76,18.76,0,0,0-9.3,2.21l-86.25,50.13c-2.28,1.31-3.54,3-3.53,4.81s1.27,3.52,3.59,4.86l86.81,50.12a20.78,20.78,0,0,0,18.73,0l86.25-50.12c2.27-1.32,3.52-3,3.52-4.78s-1.29-3.53-3.61-4.88l-86.82-50.12A19.06,19.06,0,0,0,1569,1913.59Z"/><path class="cls-4" d="M1649.05,1931l-71.29,41.43c-4.47,2.6-11.82,2.6-16.32,0L1489.68,1931c-2.26-1.32-3.39-3-3.38-4.76l0,16.59c0,1.72,1.12,3.45,3.39,4.76l71.75,41.42c4.5,2.6,11.86,2.6,16.33,0l71.29-41.43c2.2-1.28,3.31-3,3.32-4.67l0-16.59C1652.37,1928,1651.27,1929.7,1649.05,1931Z"/><path class="cls-6" d="M1649,1921.55c4.5,2.59,4.55,6.84.08,9.43l-71.29,41.43c-4.47,2.6-11.82,2.6-16.32,0L1489.68,1931c-4.5-2.6-4.52-6.86,0-9.46l71.29-41.43c4.47-2.6,11.8-2.58,16.3,0Z"/><g class="cls-7"><path class="cls-8" d="M2245.47,1650c4.5,2.6,4.55,6.85.09,9.44l-71.3,41.43c-4.46,2.6-11.82,2.6-16.32,0l-71.76-41.42c-4.49-2.6-4.52-6.86,0-9.46l71.29-41.43c4.47-2.59,11.8-2.58,16.3,0Z"/></g><path class="cls-9" d="M2166.17,1713.94a21.07,21.07,0,0,1-10.39-2.5L2069,1661.32c-3-1.72-4.61-4.07-4.61-6.62s1.61-4.88,4.54-6.58l86.26-50.12a22.74,22.74,0,0,1,20.73,0l86.81,50.12c3,1.72,4.63,4.07,4.63,6.63s-1.6,4.85-4.52,6.54l-86.25,50.13A21,21,0,0,1,2166.17,1713.94Zm-.7-116.39a18.86,18.86,0,0,0-9.3,2.2l-86.25,50.13c-2.28,1.32-3.54,3-3.53,4.82s1.27,3.52,3.59,4.86l86.81,50.12a20.86,20.86,0,0,0,18.73,0l86.26-50.13c2.26-1.31,3.51-3,3.5-4.78s-1.28-3.53-3.61-4.87l-86.81-50.13A19.2,19.2,0,0,0,2165.47,1597.55Z"/><path class="cls-4" d="M2245.56,1614.94l-71.3,41.43c-4.46,2.6-11.82,2.6-16.32,0l-71.76-41.43c-2.26-1.31-3.39-3-3.38-4.76l-.05,16.59c0,1.73,1.12,3.45,3.39,4.76l71.75,41.43c4.5,2.6,11.86,2.6,16.33,0l71.29-41.43c2.21-1.28,3.31-3,3.32-4.67l0-16.59C2248.87,1612,2247.77,1613.66,2245.56,1614.94Z"/><path class="cls-6" d="M2245.47,1605.5c4.5,2.6,4.55,6.84.09,9.44l-71.3,41.43c-4.46,2.6-11.82,2.6-16.32,0l-71.76-41.43c-4.49-2.6-4.52-6.86,0-9.45l71.29-41.43c4.47-2.6,11.8-2.58,16.3,0Z"/><path class="cls-3" d="M769.65,1604.41l25.5-2.39-.06-11.9-25.57-2.4a26.67,26.67,0,0,0-5.39-7.45l15.09-12.19-14.54-8.4-21,8.79a79.53,79.53,0,0,0-12.87-3.1l-4.24-14.81H706.05l-4.06,14.8a79.17,79.17,0,0,0-12.86,3.11l-21-8.79-14.48,8.42,15.2,12.17a26.53,26.53,0,0,0-5.3,7.45l-25.54,2.4.1,11.88,25.56,2.41a27.8,27.8,0,0,0,5.37,7.47L653.94,1624l14.54,8.4,21-8.77a80.51,80.51,0,0,0,12.89,3.08l4.24,14.81h20.51l4.07-14.8a78.67,78.67,0,0,0,12.84-3.1l21.06,8.77,14.48-8.42-15.23-12.14A27,27,0,0,0,769.65,1604.41Zm-29.46,5.3c-13,7.53-34,7.52-47.07,0s-13.14-19.72-.18-27.26,34-7.53,47.1,0S753.15,1602.18,740.19,1609.71Z"/><polygon class="cls-4" points="779.22 1534.21 779.15 1556.95 764.06 1569.13 764.13 1546.4 779.22 1534.21"/><polygon class="cls-4" points="668.82 1546.4 668.76 1569.13 653.56 1556.96 653.62 1534.23 668.82 1546.4"/><path class="cls-4" d="M749.87,1562.3,749.8,1585c0-5-3.26-9.94-9.83-13.73-13.05-7.53-34.14-7.53-47.1,0-6.42,3.74-9.64,8.63-9.66,13.52l.07-22.73c0-4.9,3.23-9.78,9.66-13.52,13-7.53,34-7.53,47.1,0C746.6,1552.35,749.88,1557.33,749.87,1562.3Z"/><polygon class="cls-4" points="638.08 1568.13 638.01 1590.86 637.91 1578.98 637.98 1556.25 638.08 1568.13"/><polygon class="cls-4" points="795.15 1568.15 795.09 1590.87 769.58 1593.27 769.65 1570.54 795.15 1568.15"/><polygon class="cls-4" points="663.64 1570.54 663.57 1593.27 638.01 1590.86 638.08 1568.13 663.64 1570.54"/><path class="cls-4" d="M769.65,1570.54l-.07,22.73a26.52,26.52,0,0,1-5.33,7.45l.06-22.72A26.81,26.81,0,0,0,769.65,1570.54Z"/><path class="cls-34" d="M669,1578l-.08,22.72a28,28,0,0,1-5.36-7.45l.07-22.73A27.45,27.45,0,0,0,669,1578Z"/><path class="cls-4" d="M744,1589.81l-.07,22.72a79.46,79.46,0,0,1-12.84,3.1l.07-22.73A80.77,80.77,0,0,0,744,1589.81Z"/><path class="cls-34" d="M702.34,1592.89l-.06,22.72a82,82,0,0,1-12.9-3.08l.07-22.73A82.73,82.73,0,0,0,702.34,1592.89Z"/><polygon class="cls-4" points="779.54 1590.15 779.47 1612.88 764.99 1621.3 765.06 1598.58 779.54 1590.15"/><polygon class="cls-34" points="765.06 1598.58 764.99 1621.3 743.93 1612.53 744 1589.81 765.06 1598.58"/><polygon class="cls-4" points="689.45 1589.8 689.38 1612.53 668.41 1621.3 668.48 1598.57 689.45 1589.8"/><polygon class="cls-4" points="668.48 1598.57 668.41 1621.3 653.87 1612.9 653.94 1590.17 668.48 1598.57"/><polygon class="cls-4" points="731.16 1592.9 731.09 1615.63 727.02 1630.43 727.09 1607.7 731.16 1592.9"/><polygon class="cls-34" points="706.58 1607.68 706.51 1630.42 702.28 1615.61 702.34 1592.89 706.58 1607.68"/><path class="cls-6" d="M769.65,1570.54l25.5-2.39-.06-11.9-25.57-2.4a26.67,26.67,0,0,0-5.39-7.45l15.09-12.19-14.54-8.39-21,8.78a80.59,80.59,0,0,0-12.87-3.1l-4.24-14.8H706.05L702,1531.49a80.22,80.22,0,0,0-12.86,3.11l-21-8.78-14.48,8.42,15.2,12.16a26.53,26.53,0,0,0-5.3,7.45l-25.54,2.4.1,11.88,25.56,2.41A27.45,27.45,0,0,0,669,1578l-15.07,12.17,14.54,8.4,21-8.77a82.73,82.73,0,0,0,12.89,3.09l4.24,14.79,20.51,0,4.07-14.8a80.77,80.77,0,0,0,12.84-3.09l21.06,8.77,14.48-8.43L764.31,1578A26.81,26.81,0,0,0,769.65,1570.54Zm-29.46,5.3c-13,7.53-34,7.52-47.07,0s-13.14-19.74-.18-27.27,34-7.53,47.1,0S753.15,1568.31,740.19,1575.84Z"/><polygon class="cls-4" points="727.09 1607.7 727.02 1630.43 706.51 1630.42 706.58 1607.68 727.09 1607.7"/><path class="cls-3" d="M864.77,1776.9,891,1773l-1.84-11.83-27-1.16a53.5,53.5,0,0,0-3.8-8.11l22.33-8.82L872,1732.34l-26,4.25a88.81,88.81,0,0,0-8.36-6.87L853.3,1717l-14.54-8.39-21.9,9.16c-3.87-1.76-7.83-3.38-11.92-4.83l7.29-15.07-18.63-5-15.16,13c-4.63-.87-9.28-1.61-14-2.17L762.35,1688l-20.47-1-6.55,15.22q-7.27.11-14.45.69L709.7,1688.6l-19.78,3.06,2.8,15.58c-4.48,1-8.86,2.24-13.13,3.57l-19-11.23-16.74,6.82,11.83,14.12c-1.78.93-3.53,1.88-5.25,2.88s-3.36,2-4.94,3l-24.43-6.81-11.71,9.72,19.45,10.94a66.68,66.68,0,0,0-6.12,7.61l-26.89-1.57-5.24,11.47,24.68,6.43a42.82,42.82,0,0,0-1.17,8.37l-26.25,3.85,1.87,11.85,27,1.16a47.67,47.67,0,0,0,3.79,8.09l-22.32,8.83,8.72,10.77,26-4.26a91.25,91.25,0,0,0,8.37,6.89l-15.74,12.71,14.55,8.4,21.9-9.16c3.83,1.74,7.8,3.36,11.89,4.81l-7.27,15.09,18.63,5,15.17-13c4.59.88,9.28,1.61,14,2.17l2.09,15.63,20.43,1,6.58-15.2c4.82-.09,9.64-.33,14.43-.72l11.2,14.29,19.78-3.07-2.81-15.58q6.69-1.54,13.15-3.56l18.92,11.21,16.76-6.79L823.13,1829q2.7-1.37,5.26-2.87c1.72-1,3.36-2,5-3l24.43,6.81,11.67-9.74L850,1809.21a67.3,67.3,0,0,0,6.11-7.62l26.91,1.56,5.23-11.45-24.7-6.45A45.19,45.19,0,0,0,864.77,1776.9Zm-61.1,34.94c-35.24,20.48-92.58,20.49-128,0s-35.66-53.7-.42-74.18,92.58-20.48,128.06,0S838.92,1791.36,803.67,1811.84Z"/><polygon class="cls-4" points="692.72 1662.09 692.65 1684.81 689.85 1669.23 689.92 1646.51 692.72 1662.09"/><polygon class="cls-4" points="812.23 1652.7 812.17 1675.43 804.87 1690.5 804.94 1667.78 812.23 1652.7"/><polygon class="cls-4" points="655.73 1675.36 655.67 1698.09 643.84 1683.96 643.9 1661.23 655.73 1675.36"/><polygon class="cls-4" points="853.3 1671.85 853.24 1694.57 837.49 1707.29 837.55 1684.57 853.3 1671.85"/><polygon class="cls-4" points="628.85 1695.14 628.79 1717.87 609.34 1706.92 609.4 1684.19 628.85 1695.14"/><polygon class="cls-4" points="880.67 1697.95 880.61 1720.68 858.27 1729.51 858.34 1706.78 880.67 1697.95"/><polygon class="cls-4" points="615.28 1719.08 615.21 1741.81 590.54 1735.38 590.6 1712.66 615.28 1719.08"/><path class="cls-4" d="M830,1729.85l-.07,22.73c0-13.51-8.88-27-26.73-37.35-35.47-20.48-92.81-20.48-128.06,0-17.51,10.18-26.27,23.5-26.31,36.84l.07-22.74c0-13.33,8.8-26.65,26.31-36.82,35.25-20.49,92.58-20.49,128.06,0C821.1,1702.81,830,1716.34,830,1729.85Z"/><polygon class="cls-4" points="890.98 1727.88 890.91 1750.6 864.7 1754.46 864.76 1731.73 890.98 1727.88"/><path class="cls-4" d="M864.77,1731.73l-.07,22.73a46,46,0,0,1-1.19,8.36l.06-22.73A45.05,45.05,0,0,0,864.77,1731.73Z"/><polygon class="cls-4" points="589.73 1743.14 589.67 1765.87 587.81 1754.02 587.86 1731.3 589.73 1743.14"/><polygon class="cls-4" points="616.74 1744.3 616.67 1767.03 589.67 1765.87 589.73 1743.14 616.74 1744.3"/><path class="cls-4" d="M620.53,1752.41l-.06,22.73a47.55,47.55,0,0,1-3.8-8.11l.07-22.73A47.85,47.85,0,0,0,620.53,1752.41Z"/><polygon class="cls-34" points="883.04 1758 882.97 1780.73 856.07 1779.16 856.13 1756.43 883.04 1758"/><polygon class="cls-4" points="888.27 1746.54 888.2 1769.27 882.97 1780.73 883.04 1758 888.27 1746.54"/><path class="cls-4" d="M856.13,1756.43l-.06,22.73a67.41,67.41,0,0,1-6.12,7.62l.07-22.73A67.3,67.3,0,0,0,856.13,1756.43Z"/><polygon class="cls-4" points="606.93 1772.01 606.87 1794.73 598.14 1783.96 598.21 1761.24 606.93 1772.01"/><polygon class="cls-4" points="632.94 1767.74 632.88 1790.47 606.87 1794.73 606.93 1772.01 632.94 1767.74"/><path class="cls-34" d="M641.31,1774.62l-.06,22.73a89.75,89.75,0,0,1-8.38-6.88l.07-22.73A89.58,89.58,0,0,0,641.31,1774.62Z"/><path class="cls-4" d="M833.34,1777.9l-.06,22.73c-1.59,1-3.24,2-5,3l.07-22.73C830.11,1780,831.75,1778.94,833.34,1777.9Z"/><path class="cls-4" d="M828.39,1781l-.07,22.73c-1.71,1-3.45,2-5.24,2.88l0-22.72Q825.83,1782.45,828.39,1781Z"/><polygon class="cls-34" points="857.77 1784.71 857.7 1807.44 833.28 1800.63 833.34 1777.9 857.77 1784.71"/><polygon class="cls-4" points="869.44 1774.97 869.38 1797.71 857.7 1807.44 857.77 1784.71 869.44 1774.97"/><path class="cls-34" d="M673.91,1791.39l-.07,22.73c-4.09-1.45-8.06-3.07-11.89-4.82l.07-22.73Q667.77,1789.2,673.91,1791.39Z"/><polygon class="cls-4" points="662.01 1786.57 661.95 1809.3 640.05 1818.46 640.12 1795.73 662.01 1786.57"/><polygon class="cls-4" points="640.12 1795.73 640.05 1818.46 625.51 1810.07 625.57 1787.34 640.12 1795.73"/><path class="cls-4" d="M799.29,1793.53l-.07,22.73c-4.3,1.35-8.68,2.55-13.13,3.57l0-22.72Q792.83,1795.57,799.29,1793.53Z"/><path class="cls-34" d="M714.44,1800.71l-.07,22.73c-4.71-.56-9.41-1.27-14-2.16l.07-22.74C705,1799.45,709.72,1800.16,714.44,1800.71Z"/><path class="cls-4" d="M758,1801.46l-.07,22.74c-4.78.39-9.6.62-14.42.71l.06-22.73C748.36,1802.09,753.18,1801.86,758,1801.46Z"/><polygon class="cls-34" points="818.21 1804.76 818.14 1827.48 799.22 1816.26 799.29 1793.53 818.21 1804.76"/><polygon class="cls-4" points="834.97 1797.95 834.91 1820.68 818.14 1827.48 818.21 1804.76 834.97 1797.95"/><polygon class="cls-4" points="685.27 1811.5 685.21 1834.23 666.58 1829.21 666.64 1806.49 685.27 1811.5"/><polygon class="cls-4" points="700.44 1798.54 700.37 1821.28 685.21 1834.23 685.27 1811.5 700.44 1798.54"/><polygon class="cls-4" points="788.95 1812.69 788.89 1835.42 769.11 1838.48 769.17 1815.75 788.95 1812.69"/><polygon class="cls-34" points="769.17 1815.75 769.11 1838.48 757.9 1824.2 757.97 1801.46 769.17 1815.75"/><polygon class="cls-4" points="716.53 1816.35 716.47 1839.08 714.37 1823.44 714.44 1800.71 716.53 1816.35"/><polygon class="cls-4" points="736.96 1817.38 736.89 1840.11 716.47 1839.08 716.53 1816.35 736.96 1817.38"/><polygon class="cls-4" points="743.54 1802.18 743.48 1824.91 736.89 1840.11 736.96 1817.38 743.54 1802.18"/><path class="cls-6" d="M864.77,1731.73l26.21-3.85L889.14,1716l-27-1.16a53,53,0,0,0-3.8-8.1l22.33-8.83L872,1687.17l-26,4.26a88.75,88.75,0,0,0-8.36-6.86l15.75-12.72-14.54-8.4-21.9,9.16c-3.87-1.76-7.83-3.38-11.92-4.83l7.29-15.08-18.63-5-15.16,13c-4.63-.88-9.28-1.62-14-2.18l-2.08-15.64-20.47-1-6.55,15.2c-4.85.09-9.66.31-14.45.71l-11.18-14.27-19.78,3.07,2.8,15.58q-6.72,1.56-13.13,3.56l-19-11.23-16.74,6.81,11.83,14.13q-2.67,1.38-5.25,2.88c-1.71,1-3.36,2-4.94,3l-24.43-6.81-11.71,9.72,19.45,10.94a65.9,65.9,0,0,0-6.12,7.62l-26.89-1.58-5.24,11.48,24.68,6.42a42.82,42.82,0,0,0-1.17,8.37l-26.25,3.85,1.87,11.85,27,1.15a47.85,47.85,0,0,0,3.79,8.11l-22.32,8.83,8.72,10.77,26-4.27a89.58,89.58,0,0,0,8.37,6.88l-15.74,12.72,14.55,8.39,21.9-9.16q5.75,2.63,11.89,4.82l-7.27,15.1,18.63,5,15.17-13c4.59.91,9.28,1.62,14,2.17l2.09,15.64,20.43,1,6.58-15.21c4.82-.09,9.64-.32,14.43-.72l11.2,14.29,19.78-3.06-2.81-15.58q6.69-1.54,13.15-3.58l18.92,11.23L835,1798l-11.84-14.11q2.7-1.39,5.26-2.89c1.72-1,3.36-2,5-3l24.43,6.81,11.67-9.73L850,1764.05a67.3,67.3,0,0,0,6.11-7.62L883,1758l5.23-11.46-24.7-6.45A45.05,45.05,0,0,0,864.77,1731.73Zm-61.1,35c-35.24,20.48-92.58,20.48-128,0S640,1713,675.2,1692.51s92.58-20.49,128.06,0S838.92,1746.2,803.67,1766.68Z"/><path class="cls-3" d="M645.5,1524l25.51-2.39-.06-11.89-25.57-2.41a26.81,26.81,0,0,0-5.39-7.45l15.09-12.18-14.54-8.4-21,8.78a81.68,81.68,0,0,0-12.87-3.1l-4.24-14.8H581.91L577.85,1485A80.22,80.22,0,0,0,565,1488.1l-21-8.78-14.48,8.42,15.2,12.17a26.49,26.49,0,0,0-5.3,7.44l-25.54,2.41.1,11.88,25.56,2.4a27.19,27.19,0,0,0,5.36,7.46l-15.06,12.18,14.54,8.39,21-8.76a81.6,81.6,0,0,0,12.89,3.08l4.24,14.8H603l4.07-14.79a80.78,80.78,0,0,0,12.84-3.1l21.06,8.77,14.48-8.42-15.23-12.16A26.56,26.56,0,0,0,645.5,1524Zm-29.45,5.31c-13,7.53-34,7.51-47.07,0s-13.14-19.73-.18-27.26,34.05-7.54,47.09,0S629,1521.81,616.05,1529.35Z"/><polygon class="cls-4" points="655.08 1453.85 655.01 1476.58 639.93 1488.77 639.99 1466.03 655.08 1453.85"/><polygon class="cls-4" points="544.68 1466.04 544.62 1488.77 529.42 1476.59 529.48 1453.87 544.68 1466.04"/><path class="cls-4" d="M625.73,1481.93l-.07,22.73c0-5-3.26-10-9.83-13.74-13.05-7.53-34.14-7.53-47.1,0-6.43,3.74-9.64,8.63-9.66,13.52l.07-22.72c0-4.9,3.23-9.78,9.66-13.52,13-7.54,34.05-7.54,47.09,0C622.46,1472,625.74,1477,625.73,1481.93Z"/><polygon class="cls-4" points="513.94 1487.77 513.87 1510.5 513.77 1498.62 513.84 1475.89 513.94 1487.77"/><polygon class="cls-4" points="671.01 1487.78 670.95 1510.51 645.44 1512.9 645.5 1490.18 671.01 1487.78"/><polygon class="cls-4" points="539.5 1490.18 539.43 1512.9 513.87 1510.5 513.94 1487.77 539.5 1490.18"/><path class="cls-4" d="M645.5,1490.18l-.06,22.72a26.81,26.81,0,0,1-5.34,7.46l.07-22.73A26.67,26.67,0,0,0,645.5,1490.18Z"/><path class="cls-34" d="M544.86,1497.63l-.06,22.73a27.67,27.67,0,0,1-5.37-7.46l.07-22.72A27.3,27.3,0,0,0,544.86,1497.63Z"/><path class="cls-4" d="M619.86,1509.44l-.07,22.72a78.42,78.42,0,0,1-12.84,3.1l.07-22.72A80.78,80.78,0,0,0,619.86,1509.44Z"/><path class="cls-34" d="M578.2,1512.52l-.06,22.73a80.91,80.91,0,0,1-12.9-3.09l.07-22.72A81.6,81.6,0,0,0,578.2,1512.52Z"/><polygon class="cls-4" points="655.4 1509.79 655.33 1532.52 640.85 1540.93 640.92 1518.2 655.4 1509.79"/><polygon class="cls-34" points="640.92 1518.2 640.85 1540.93 619.79 1532.16 619.86 1509.44 640.92 1518.2"/><polygon class="cls-4" points="565.31 1509.44 565.24 1532.16 544.28 1540.93 544.34 1518.2 565.31 1509.44"/><polygon class="cls-4" points="544.34 1518.2 544.28 1540.93 529.73 1532.53 529.8 1509.81 544.34 1518.2"/><polygon class="cls-4" points="607.02 1512.54 606.96 1535.26 602.88 1550.06 602.95 1527.34 607.02 1512.54"/><polygon class="cls-34" points="582.45 1527.32 582.38 1550.05 578.14 1535.25 578.21 1512.52 582.45 1527.32"/><path class="cls-6" d="M645.5,1490.18l25.51-2.4-.06-11.89-25.57-2.41A26.81,26.81,0,0,0,640,1466l15.09-12.18-14.54-8.4-21,8.78a80.58,80.58,0,0,0-12.87-3.09l-4.24-14.8H581.91l-4.06,14.78a81.31,81.31,0,0,0-12.86,3.11l-21-8.78-14.48,8.42,15.2,12.17a26.49,26.49,0,0,0-5.3,7.44l-25.54,2.41.1,11.88,25.56,2.41a27.3,27.3,0,0,0,5.36,7.45L529.8,1509.8l14.54,8.4,21-8.76a81.6,81.6,0,0,0,12.89,3.08l4.24,14.8,20.51,0,4.07-14.8a80.78,80.78,0,0,0,12.84-3.1l21.06,8.76,14.48-8.41-15.23-12.16A26.67,26.67,0,0,0,645.5,1490.18Zm-29.45,5.3c-13,7.53-34,7.52-47.07,0s-13.14-19.73-.18-27.26,34.05-7.54,47.09,0S629,1487.94,616.05,1495.48Z"/><polygon class="cls-4" points="602.95 1527.34 602.88 1550.06 582.38 1550.05 582.45 1527.32 602.95 1527.34"/><path class="cls-3" d="M630.48,1686.47l26.93,1.59,5.26-11.48-25.29-6.52a51.2,51.2,0,0,0,.49-12.19l24.65-6.43L657.13,1640l-27.43,1.66a88,88,0,0,0-10.13-10.71l15.77-12.73-14.55-8.39-22.3,9.39c-5.74-2.43-11.83-4.43-18-6.36l2.64-15.59-19.83-3.08-11.18,14.62c-6.94-.44-13.94-.44-21-.32l-11.18-14.3-19.78,3.07,2.93,15.91c-6.27,1.62-12.35,3.61-18.44,5.83l-22-9.16-14.45,8.4,16.27,12.94a96.3,96.3,0,0,0-10.92,10.4L426.58,1640l-5.26,11.48L446.6,1658a51.62,51.62,0,0,0-.49,12.18l-24.65,6.44,5.38,11.48,27.48-1.68a83.94,83.94,0,0,0,10.09,10.72l-15.74,12.72,14.54,8.39,22.31-9.39a188.5,188.5,0,0,0,18,6.37l-2.65,15.59,19.84,3.08,11.2-14.63c6.92.45,13.92.45,21,.33l11.18,14.3,19.8-3.08-3-15.91c6.31-1.61,12.41-3.62,18.48-5.82l22,9.16,14.45-8.39-16.27-12.94A95.53,95.53,0,0,0,630.48,1686.47Zm-39.84,5.63c-26.68,15.5-70.1,15.49-96.95,0s-27-40.66-.35-56.16,70.13-15.5,97,0S617.32,1676.59,590.64,1692.1Z"/><polygon class="cls-4" points="583.13 1552.08 583.07 1574.8 580.42 1590.39 580.49 1567.67 583.13 1552.08"/><polygon class="cls-4" points="503.05 1567.97 502.98 1590.7 500.06 1574.79 500.12 1552.06 503.05 1567.97"/><polygon class="cls-4" points="635.34 1573.02 635.27 1595.75 619.51 1608.48 619.57 1585.76 635.34 1573.02"/><polygon class="cls-4" points="464.42 1585.98 464.36 1608.7 448.09 1595.77 448.15 1573.04 464.42 1585.98"/><polygon class="cls-4" points="662.52 1606.28 662.46 1629.01 637.81 1635.44 637.87 1612.71 662.52 1606.28"/><polygon class="cls-4" points="446.6 1612.8 446.54 1635.53 421.25 1629.01 421.32 1606.28 446.6 1612.8"/><path class="cls-4" d="M610.55,1619.05l-.06,22.72c0-10.23-6.72-20.48-20.24-28.28-26.85-15.51-70.29-15.51-97,0-13.25,7.7-19.88,17.77-19.9,27.87l.06-22.73c0-10.09,6.66-20.17,19.9-27.87,26.68-15.5,70.13-15.5,97,0C603.84,1598.56,610.58,1608.81,610.55,1619.05Z"/><path class="cls-4" d="M638,1617.41l-.06,22.73a42.68,42.68,0,0,1-.63,7.48l.06-22.72A41.93,41.93,0,0,0,638,1617.41Z"/><path class="cls-4" d="M445.91,1643l.07-22.73c0,1.56,0,3.12.13,4.7l-.06,22.72C446,1646.14,445.9,1644.58,445.91,1643Z"/><polygon class="cls-4" points="662.67 1631.42 662.6 1654.14 657.34 1665.62 657.41 1642.89 662.67 1631.42"/><polygon class="cls-34" points="657.41 1642.89 657.34 1665.62 630.41 1664.04 630.48 1641.31 657.41 1642.89"/><polygon class="cls-4" points="426.84 1642.9 426.79 1665.63 421.39 1654.14 421.46 1631.42 426.84 1642.9"/><polygon class="cls-4" points="454.31 1641.22 454.25 1663.95 426.79 1665.63 426.84 1642.9 454.31 1641.22"/><path class="cls-4" d="M630.48,1641.31l-.07,22.73a94.71,94.71,0,0,1-10.92,10.41l.07-22.73A95.53,95.53,0,0,0,630.48,1641.31Z"/><path class="cls-34" d="M464.41,1651.94l-.07,22.73A84.65,84.65,0,0,1,454.25,1664l.07-22.73A83.94,83.94,0,0,0,464.41,1651.94Z"/><path class="cls-4" d="M599.38,1663.89l-.07,22.73c-6.07,2.2-12.17,4.22-18.47,5.82l.06-22.73C587.21,1668.11,593.31,1666.09,599.38,1663.89Z"/><path class="cls-34" d="M503.5,1670l-.06,22.73a186,186,0,0,1-18-6.38l.07-22.72A185.79,185.79,0,0,0,503.5,1670Z"/><polygon class="cls-34" points="621.38 1673.05 621.31 1695.79 599.31 1686.62 599.38 1663.89 621.38 1673.05"/><polygon class="cls-4" points="635.83 1664.66 635.77 1687.38 621.31 1695.79 621.38 1673.05 635.83 1664.66"/><polygon class="cls-4" points="485.52 1663.66 485.45 1686.38 463.15 1695.79 463.21 1673.05 485.52 1663.66"/><polygon class="cls-4" points="463.21 1673.05 463.15 1695.79 448.6 1687.38 448.67 1664.66 463.21 1673.05"/><path class="cls-4" d="M552.9,1674.41l-.07,22.72c-7.09.13-14.09.13-21-.33l.07-22.73C538.81,1674.52,545.81,1674.52,552.9,1674.41Z"/><polygon class="cls-34" points="564.08 1688.7 564.02 1711.43 552.83 1697.13 552.9 1674.41 564.08 1688.7"/><polygon class="cls-4" points="583.88 1685.63 583.82 1708.35 564.02 1711.43 564.08 1688.7 583.88 1685.63"/><polygon class="cls-4" points="520.69 1688.7 520.62 1711.43 500.79 1708.35 500.85 1685.63 520.69 1688.7"/><path class="cls-6" d="M630.48,1641.31l26.93,1.58,5.26-11.47-25.29-6.52a51.18,51.18,0,0,0,.49-12.19l24.65-6.43-5.39-11.48-27.43,1.66a89.47,89.47,0,0,0-10.13-10.71L635.34,1573l-14.55-8.39-22.3,9.4c-5.74-2.44-11.83-4.44-18-6.36l2.64-15.59L563.3,1549l-11.18,14.62c-6.94-.43-13.94-.43-21-.32L519.9,1549l-19.78,3.07,2.93,15.91c-6.27,1.62-12.35,3.62-18.44,5.83l-22-9.16-14.45,8.4L464.42,1586a95.49,95.49,0,0,0-10.92,10.41l-26.92-1.59-5.26,11.48,25.28,6.52a51.71,51.71,0,0,0-.49,12.19l-24.65,6.43,5.38,11.48,27.48-1.68a83.94,83.94,0,0,0,10.09,10.72l-15.74,12.72,14.54,8.39,22.31-9.39a185.79,185.79,0,0,0,18,6.37l-2.65,15.6,19.84,3.07,11.2-14.63c6.92.45,13.92.45,21,.34l11.18,14.29,19.8-3.07-3-15.92c6.31-1.6,12.41-3.62,18.48-5.82l22,9.16,14.45-8.39-16.27-12.94A95.53,95.53,0,0,0,630.48,1641.31Zm-39.84,5.63c-26.68,15.5-70.1,15.48-96.95,0s-27-40.65-.35-56.16,70.13-15.5,97,0S617.32,1631.43,590.64,1646.94Z"/><polygon class="cls-4" points="531.89 1674.07 531.82 1696.8 520.62 1711.43 520.69 1688.7 531.89 1674.07"/></g></g></svg>