<svg id="Ñëîé_1" data-name="Ñëîé 1" xmlns="http://www.w3.org/2000/svg" xmlns:xlink="http://www.w3.org/1999/xlink" viewBox="0 0 394.44 400" width="650"><defs><style>.cls-1{mask:url(#mask);filter:url(#luminosity-noclip-9);}.cls-10,.cls-12,.cls-14,.cls-16,.cls-2,.cls-4,.cls-6,.cls-8{mix-blend-mode:multiply;}.cls-2{fill:url(#Áåçûìÿííûé_ãðàäèåíò_64);}.cls-3{mask:url(#mask-2);filter:url(#luminosity-noclip-14);}.cls-4{fill:url(#Áåçûìÿííûé_ãðàäèåíò_59);}.cls-5{mask:url(#mask-3);filter:url(#luminosity-noclip-15);}.cls-6{fill:url(#Áåçûìÿííûé_ãðàäèåíò_58);}.cls-7{mask:url(#mask-4);filter:url(#luminosity-noclip-16);}.cls-8{fill:url(#Áåçûìÿííûé_ãðàäèåíò_57);}.cls-9{mask:url(#mask-5);filter:url(#luminosity-noclip-10);}.cls-10{fill:url(#Áåçûìÿííûé_ãðàäèåíò_63);}.cls-11{mask:url(#mask-6);filter:url(#luminosity-noclip-11);}.cls-12{fill:url(#Áåçûìÿííûé_ãðàäèåíò_62);}.cls-13{mask:url(#mask-7);filter:url(#luminosity-noclip-12);}.cls-14{fill:url(#Áåçûìÿííûé_ãðàäèåíò_61);}.cls-15{mask:url(#mask-8);filter:url(#luminosity-noclip-13);}.cls-16{fill:url(#Áåçûìÿííûé_ãðàäèåíò_60);}.cls-17{fill:none;}.cls-18{fill:url(#Áåçûìÿííûé_ãðàäèåíò_295);}.cls-19{mask:url(#mask-9);}.cls-20,.cls-22,.cls-24,.cls-26,.cls-28,.cls-30,.cls-32,.cls-34{opacity:0.66;}.cls-20{fill:url(#Áåçûìÿííûé_ãðàäèåíò_32);}.cls-21{mask:url(#mask-10);}.cls-22{fill:url(#Áåçûìÿííûé_ãðàäèåíò_32-2);}.cls-23{mask:url(#mask-11);}.cls-24{fill:url(#Áåçûìÿííûé_ãðàäèåíò_32-3);}.cls-25{mask:url(#mask-12);}.cls-26{fill:url(#Áåçûìÿííûé_ãðàäèåíò_32-4);}.cls-27{mask:url(#mask-13);}.cls-28{fill:url(#Áåçûìÿííûé_ãðàäèåíò_32-5);}.cls-29{mask:url(#mask-14);}.cls-30{fill:url(#Áåçûìÿííûé_ãðàäèåíò_32-6);}.cls-31{mask:url(#mask-15);}.cls-32{fill:url(#Áåçûìÿííûé_ãðàäèåíò_32-7);}.cls-33{mask:url(#mask-16);}.cls-34{fill:url(#Áåçûìÿííûé_ãðàäèåíò_32-8);}.cls-35{fill:url(#Áåçûìÿííûé_ãðàäèåíò_20);}.cls-36{fill:url(#Áåçûìÿííûé_ãðàäèåíò_28);}.cls-37{fill:url(#Áåçûìÿííûé_ãðàäèåíò_29);}.cls-38{fill:#242993;}.cls-39{opacity:0.51;}.cls-40{fill:#4553c7;}.cls-41{fill:url(#Áåçûìÿííûé_ãðàäèåíò_29-2);}.cls-42{fill:url(#Áåçûìÿííûé_ãðàäèåíò_28-2);}.cls-43{fill:#2859cb;}.cls-44{fill:#adc8ff;}.cls-45{fill:#91afff;}.cls-46{fill:url(#Áåçûìÿííûé_ãðàäèåíò_28-3);}.cls-47{opacity:0.11;}.cls-48{clip-path:url(#clip-path);}.cls-49{fill:url(#Áåçûìÿííûé_ãðàäèåíò_28-4);}.cls-50{fill:url(#Áåçûìÿííûé_ãðàäèåíò_28-5);}.cls-51,.cls-52{fill:#42ffff;}.cls-52{opacity:0.5;}.cls-53{filter:url(#luminosity-noclip-8);}.cls-54{filter:url(#luminosity-noclip-7);}.cls-55{filter:url(#luminosity-noclip-6);}.cls-56{filter:url(#luminosity-noclip-5);}.cls-57{filter:url(#luminosity-noclip-4);}.cls-58{filter:url(#luminosity-noclip-3);}.cls-59{filter:url(#luminosity-noclip-2);}.cls-60{filter:url(#luminosity-noclip);}</style><filter id="luminosity-noclip" x="4.18" y="-8392" width="209.59" height="32766" filterUnits="userSpaceOnUse" color-interpolation-filters="sRGB"><feFlood flood-color="#fff" result="bg"/><feBlend in="SourceGraphic" in2="bg"/></filter><mask id="mask" x="4.18" y="-8392" width="209.59" height="32766" maskUnits="userSpaceOnUse"><g class="cls-60"/></mask><linearGradient id="Áåçûìÿííûé_ãðàäèåíò_64" x1="-669.09" y1="1882.63" x2="-669.09" y2="1678.29" gradientTransform="matrix(0.87, -0.5, 1, 0.58, -1084.97, -1057.72)" gradientUnits="userSpaceOnUse"><stop offset="0"/><stop offset="0.06" stop-color="#2a2a2a"/><stop offset="0.15" stop-color="#626262"/><stop offset="0.23" stop-color="#929292"/><stop offset="0.31" stop-color="#b6b6b6"/><stop offset="0.39" stop-color="#d1d1d1"/><stop offset="0.45" stop-color="#e0e0e0"/><stop offset="0.51" stop-color="#e6e6e6"/><stop offset="0.55" stop-color="#dedede"/><stop offset="0.62" stop-color="#c9c9c9"/><stop offset="0.71" stop-color="#a7a7a7"/><stop offset="0.8" stop-color="#787878"/><stop offset="0.91" stop-color="#3b3b3b"/><stop offset="1"/></linearGradient><filter id="luminosity-noclip-2" x="89.9" y="-8392" width="264.59" height="32766" filterUnits="userSpaceOnUse" color-interpolation-filters="sRGB"><feFlood flood-color="#fff" result="bg"/><feBlend in="SourceGraphic" in2="bg"/></filter><mask id="mask-2" x="89.9" y="-8392" width="264.59" height="32766" maskUnits="userSpaceOnUse"><g class="cls-59"/></mask><linearGradient id="Áåçûìÿííûé_ãðàäèåíò_59" x1="-461.05" y1="1842.53" x2="-461.05" y2="1583.03" xlink:href="#Áåçûìÿííûé_ãðàäèåíò_64"/><filter id="luminosity-noclip-3" x="93.49" y="-8392" width="225.76" height="32766" filterUnits="userSpaceOnUse" color-interpolation-filters="sRGB"><feFlood flood-color="#fff" result="bg"/><feBlend in="SourceGraphic" in2="bg"/></filter><mask id="mask-3" x="93.49" y="-8392" width="225.76" height="32766" maskUnits="userSpaceOnUse"><g class="cls-58"/></mask><linearGradient id="Áåçûìÿííûé_ãðàäèåíò_58" x1="-547.65" y1="1882.63" x2="-547.65" y2="1662.07" xlink:href="#Áåçûìÿííûé_ãðàäèåíò_64"/><filter id="luminosity-noclip-4" x="136.03" y="-8392" width="97.67" height="32766" filterUnits="userSpaceOnUse" color-interpolation-filters="sRGB"><feFlood flood-color="#fff" result="bg"/><feBlend in="SourceGraphic" in2="bg"/></filter><mask id="mask-4" x="136.03" y="-8392" width="97.67" height="32766" maskUnits="userSpaceOnUse"><g class="cls-57"/></mask><linearGradient id="Áåçûìÿííûé_ãðàäèåíò_57" x1="-517.29" y1="1770.36" x2="-517.29" y2="1678.29" xlink:href="#Áåçûìÿííûé_ãðàäèåíò_64"/><filter id="luminosity-noclip-5" x="79.33" y="-8392" width="112.04" height="32766" filterUnits="userSpaceOnUse" color-interpolation-filters="sRGB"><feFlood flood-color="#fff" result="bg"/><feBlend in="SourceGraphic" in2="bg"/></filter><mask id="mask-5" x="79.33" y="-8392" width="112.04" height="32766" maskUnits="userSpaceOnUse"><g class="cls-56"/></mask><linearGradient id="Áåçûìÿííûé_ãðàäèåíò_63" x1="-638.73" y1="1833.7" x2="-638.73" y2="1727.22" xlink:href="#Áåçûìÿííûé_ãðàäèåíò_64"/><filter id="luminosity-noclip-6" x="127.52" y="-8392" width="138.99" height="32766" filterUnits="userSpaceOnUse" color-interpolation-filters="sRGB"><feFlood flood-color="#fff" result="bg"/><feBlend in="SourceGraphic" in2="bg"/></filter><mask id="mask-6" x="127.52" y="-8392" width="138.99" height="32766" maskUnits="userSpaceOnUse"><g class="cls-55"/></mask><linearGradient id="Áåçûìÿííûé_ãðàäèåíò_62" x1="-608.37" y1="1882.63" x2="-608.37" y2="1749.11" xlink:href="#Áåçûìÿííûé_ãðàäèåíò_64"/><filter id="luminosity-noclip-7" x="28.29" y="-8392" width="264.59" height="32766" filterUnits="userSpaceOnUse" color-interpolation-filters="sRGB"><feFlood flood-color="#fff" result="bg"/><feBlend in="SourceGraphic" in2="bg"/></filter><mask id="mask-7" x="28.29" y="-8392" width="264.59" height="32766" maskUnits="userSpaceOnUse"><g class="cls-54"/></mask><linearGradient id="Áåçûìÿííûé_ãðàäèåíò_61" x1="-578.01" y1="1882.63" x2="-578.01" y2="1623.13" xlink:href="#Áåçûìÿííûé_ãðàäèåíò_64"/><filter id="luminosity-noclip-8" x="125.48" y="-8392" width="264.59" height="32766" filterUnits="userSpaceOnUse" color-interpolation-filters="sRGB"><feFlood flood-color="#fff" result="bg"/><feBlend in="SourceGraphic" in2="bg"/></filter><mask id="mask-8" x="125.48" y="-8392" width="264.59" height="32766" maskUnits="userSpaceOnUse"><g class="cls-53"/></mask><linearGradient id="Áåçûìÿííûé_ãðàäèåíò_60" x1="-490.12" y1="1903.54" x2="-490.12" y2="1644.04" xlink:href="#Áåçûìÿííûé_ãðàäèåíò_64"/><linearGradient id="Áåçûìÿííûé_ãðàäèåíò_295" x1="387.18" y1="47.67" x2="-130.42" y2="462.73" gradientUnits="userSpaceOnUse"><stop offset="0" stop-color="#4482cc"/><stop offset="0.04" stop-color="#447ecc"/><stop offset="0.47" stop-color="#4553c7"/><stop offset="0.6" stop-color="#3b44bc"/><stop offset="0.84" stop-color="#2b2dab"/><stop offset="1" stop-color="#2525a5"/></linearGradient><filter id="luminosity-noclip-9" x="4.18" y="249.76" width="209.59" height="122.33" filterUnits="userSpaceOnUse" color-interpolation-filters="sRGB"><feFlood flood-color="#fff" result="bg"/><feBlend in="SourceGraphic" in2="bg"/></filter><mask id="mask-9" x="4.18" y="249.76" width="209.59" height="122.33" maskUnits="userSpaceOnUse"><g class="cls-1"><path class="cls-2" d="M7.61,251.13l-1,.56c-3.61,2.06-3.18,5.7,1,8.12L196.29,370.06c4.15,2.43,10.44,2.72,14.06.66l1-.56c3.62-2.06,3.18-5.7-1-8.12L21.66,251.79C17.51,249.37,11.22,249.07,7.61,251.13Z"/></g></mask><linearGradient id="Áåçûìÿííûé_ãðàäèåíò_32" x1="-669.09" y1="1882.63" x2="-669.09" y2="1678.29" gradientTransform="matrix(0.87, -0.5, 1, 0.58, -1084.97, -1057.72)" gradientUnits="userSpaceOnUse"><stop offset="0" stop-color="#5778ff"/><stop offset="0.01" stop-color="#567cff"/><stop offset="0.13" stop-color="#4fabff"/><stop offset="0.24" stop-color="#49cfff"/><stop offset="0.34" stop-color="#45eaff"/><stop offset="0.43" stop-color="#43f9ff"/><stop offset="0.51" stop-color="#42ffff"/><stop offset="0.57" stop-color="#43f7ff"/><stop offset="0.67" stop-color="#46e3ff"/><stop offset="0.8" stop-color="#4cc0ff"/><stop offset="0.93" stop-color="#5391ff"/><stop offset="1" stop-color="#5778ff"/></linearGradient><filter id="luminosity-noclip-10" x="79.33" y="263.22" width="112.04" height="65.33" filterUnits="userSpaceOnUse" color-interpolation-filters="sRGB"><feFlood flood-color="#fff" result="bg"/><feBlend in="SourceGraphic" in2="bg"/></filter><mask id="mask-10" x="79.33" y="263.22" width="112.04" height="65.33" maskUnits="userSpaceOnUse"><g class="cls-9"><path class="cls-10" d="M82.75,264.59l-1,.56c-3.62,2.06-3.18,5.69,1,8.12l91.14,53.25c4.15,2.42,10.45,2.72,14.06.66l1-.56c3.61-2.06,3.18-5.7-1-8.12L96.81,265.25C92.66,262.82,86.37,262.53,82.75,264.59Z"/></g></mask><linearGradient id="Áåçûìÿííûé_ãðàäèåíò_32-2" x1="-638.73" y1="1833.7" x2="-638.73" y2="1727.22" xlink:href="#Áåçûìÿííûé_ãðàäèåíò_32"/><filter id="luminosity-noclip-11" x="127.52" y="260.93" width="138.99" height="81.08" filterUnits="userSpaceOnUse" color-interpolation-filters="sRGB"><feFlood flood-color="#fff" result="bg"/><feBlend in="SourceGraphic" in2="bg"/></filter><mask id="mask-11" x="127.52" y="260.93" width="138.99" height="81.08" maskUnits="userSpaceOnUse"><g class="cls-11"><path class="cls-12" d="M131,262.3l-1,.56c-3.61,2.06-3.18,5.69,1,8.12L249,340c4.15,2.42,10.44,2.71,14,.65l1-.55c3.61-2.07,3.18-5.7-1-8.13L145,263C140.86,260.53,134.56,260.24,131,262.3Z"/></g></mask><linearGradient id="Áåçûìÿííûé_ãðàäèåíò_32-3" x1="-608.37" y1="1882.63" x2="-608.37" y2="1749.11" xlink:href="#Áåçûìÿííûé_ãðàäèåíò_32"/><filter id="luminosity-noclip-12" x="28.29" y="172.5" width="264.59" height="154.47" filterUnits="userSpaceOnUse" color-interpolation-filters="sRGB"><feFlood flood-color="#fff" result="bg"/><feBlend in="SourceGraphic" in2="bg"/></filter><mask id="mask-12" x="28.29" y="172.5" width="264.59" height="154.47" maskUnits="userSpaceOnUse"><g class="cls-13"><path class="cls-14" d="M31.72,173.87l-1,.56c-3.61,2.06-3.18,5.69,1,8.12L275.4,324.93c4.15,2.43,10.44,2.72,14.05.66l1-.56c3.61-2.06,3.18-5.69-1-8.12L45.77,174.53C41.62,172.1,35.33,171.81,31.72,173.87Z"/></g></mask><linearGradient id="Áåçûìÿííûé_ãðàäèåíò_32-4" x1="-578.01" y1="1882.63" x2="-578.01" y2="1623.13" xlink:href="#Áåçûìÿííûé_ãðàäèåíò_32"/><filter id="luminosity-noclip-13" x="125.48" y="141.13" width="264.59" height="154.47" filterUnits="userSpaceOnUse" color-interpolation-filters="sRGB"><feFlood flood-color="#fff" result="bg"/><feBlend in="SourceGraphic" in2="bg"/></filter><mask id="mask-13" x="125.48" y="141.13" width="264.59" height="154.47" maskUnits="userSpaceOnUse"><g class="cls-15"><path class="cls-16" d="M128.9,142.5l-1,.56c-3.62,2.06-3.18,5.7,1,8.12l243.7,142.39c4.14,2.42,10.44,2.71,14.05.65l1-.56c3.61-2.06,3.18-5.69-1-8.12L143,143.16C138.81,140.73,132.52,140.44,128.9,142.5Z"/></g></mask><linearGradient id="Áåçûìÿííûé_ãðàäèåíò_32-5" x1="-490.12" y1="1903.54" x2="-490.12" y2="1644.04" xlink:href="#Áåçûìÿííûé_ãðàäèåíò_32"/><filter id="luminosity-noclip-14" x="89.9" y="91.19" width="264.59" height="154.47" filterUnits="userSpaceOnUse" color-interpolation-filters="sRGB"><feFlood flood-color="#fff" result="bg"/><feBlend in="SourceGraphic" in2="bg"/></filter><mask id="mask-14" x="89.9" y="91.19" width="264.59" height="154.47" maskUnits="userSpaceOnUse"><g class="cls-3"><path class="cls-4" d="M93.33,92.56l-1,.56c-3.61,2.06-3.18,5.69,1,8.12L337,243.62c4.15,2.43,10.44,2.72,14.06.66l1-.56c3.62-2.06,3.18-5.7-1-8.12L107.38,93.22C103.24,90.79,96.94,90.5,93.33,92.56Z"/></g></mask><linearGradient id="Áåçûìÿííûé_ãðàäèåíò_32-6" x1="-461.05" y1="1842.53" x2="-461.05" y2="1583.03" xlink:href="#Áåçûìÿííûé_ãðàäèåíò_32"/><filter id="luminosity-noclip-15" x="93.49" y="180.14" width="225.76" height="131.78" filterUnits="userSpaceOnUse" color-interpolation-filters="sRGB"><feFlood flood-color="#fff" result="bg"/><feBlend in="SourceGraphic" in2="bg"/></filter><mask id="mask-15" x="93.49" y="180.14" width="225.76" height="131.78" maskUnits="userSpaceOnUse"><g class="cls-5"><path class="cls-6" d="M96.92,181.51l-1,.56c-3.61,2.06-3.18,5.7,1,8.12l204.86,119.7c4.15,2.43,10.44,2.72,14.05.66l1-.56c3.61-2.06,3.18-5.7-1-8.12L111,182.17C106.82,179.75,100.53,179.45,96.92,181.51Z"/></g></mask><linearGradient id="Áåçûìÿííûé_ãðàäèåíò_32-7" x1="-547.65" y1="1882.63" x2="-547.65" y2="1662.07" xlink:href="#Áåçûìÿííûé_ãðàäèåíò_32"/><filter id="luminosity-noclip-16" x="136.03" y="174.55" width="97.67" height="56.94" filterUnits="userSpaceOnUse" color-interpolation-filters="sRGB"><feFlood flood-color="#fff" result="bg"/><feBlend in="SourceGraphic" in2="bg"/></filter><mask id="mask-16" x="136.03" y="174.55" width="97.67" height="56.94" maskUnits="userSpaceOnUse"><g class="cls-7"><path class="cls-8" d="M139.46,175.92l-1,.56c-3.61,2.06-3.18,5.69,1,8.12l76.77,44.85c4.14,2.43,10.44,2.72,14.05.66l1-.56c3.61-2.06,3.18-5.7-1-8.12l-76.77-44.85C149.36,174.15,143.07,173.86,139.46,175.92Z"/></g></mask><linearGradient id="Áåçûìÿííûé_ãðàäèåíò_32-8" x1="-517.29" y1="1770.36" x2="-517.29" y2="1678.29" xlink:href="#Áåçûìÿííûé_ãðàäèåíò_32"/><linearGradient id="Áåçûìÿííûé_ãðàäèåíò_20" x1="-1730.88" y1="310.24" x2="-1496.56" y2="310.24" gradientTransform="matrix(-1, 0, 0, 1, -1462.25, 0)" gradientUnits="userSpaceOnUse"><stop offset="0" stop-color="#42ffff"/><stop offset="0.15" stop-color="#43faff"/><stop offset="0.33" stop-color="#45ecff"/><stop offset="0.52" stop-color="#49d4ff"/><stop offset="0.72" stop-color="#4eb3ff"/><stop offset="0.93" stop-color="#5489ff"/><stop offset="1" stop-color="#5778ff"/></linearGradient><linearGradient id="Áåçûìÿííûé_ãðàäèåíò_28" x1="-1762.04" y1="197.77" x2="-1584.43" y2="197.77" gradientTransform="matrix(-1, 0, 0, 1, -1462.25, 0)" gradientUnits="userSpaceOnUse"><stop offset="0" stop-color="#c0d6ff"/><stop offset="0.3" stop-color="#c5dbff"/><stop offset="0.65" stop-color="#d3e9ff"/><stop offset="1" stop-color="#e9ffff"/></linearGradient><linearGradient id="Áåçûìÿííûé_ãðàäèåíò_29" x1="-1762.04" y1="243.32" x2="-1731.54" y2="243.32" gradientTransform="matrix(-1, 0, 0, 1, -1462.25, 0)" gradientUnits="userSpaceOnUse"><stop offset="0" stop-color="#5778ff"/><stop offset="0.18" stop-color="#5c7dff"/><stop offset="0.39" stop-color="#6a8aff"/><stop offset="0.61" stop-color="#82a0ff"/><stop offset="0.85" stop-color="#a3beff"/><stop offset="1" stop-color="#bcd5ff"/></linearGradient><linearGradient id="Áåçûìÿííûé_ãðàäèåíò_29-2" x1="-1738.25" y1="294.52" x2="-1487.4" y2="294.52" xlink:href="#Áåçûìÿííûé_ãðàäèåíò_29"/><linearGradient id="Áåçûìÿííûé_ãðàäèåíò_28-2" x1="-1653.96" y1="286.16" x2="-1402.97" y2="286.16" xlink:href="#Áåçûìÿííûé_ãðàäèåíò_28"/><linearGradient id="Áåçûìÿííûé_ãðàäèåíò_28-3" x1="-1611.46" y1="300.41" x2="-1547.21" y2="300.41" xlink:href="#Áåçûìÿííûé_ãðàäèåíò_28"/><clipPath id="clip-path"><polygon id="SVGID" class="cls-17" points="143.61 101.56 291.81 187.13 273.44 295.47 125.33 209.97 143.61 101.56"/></clipPath><linearGradient id="Áåçûìÿííûé_ãðàäèåíò_28-4" x1="-1749.85" y1="230.53" x2="-1498.87" y2="230.53" xlink:href="#Áåçûìÿííûé_ãðàäèåíò_28"/><linearGradient id="Áåçûìÿííûé_ãðàäèåíò_28-5" x1="-1766.37" y1="212.11" x2="-1702.13" y2="212.11" xlink:href="#Áåçûìÿííûé_ãðàäèåíò_28"/></defs><title>5</title><rect class="cls-18" width="394.44" height="400"/><g class="cls-19"><path class="cls-20" d="M7.61,251.13l-1,.56c-3.61,2.06-3.18,5.7,1,8.12L196.29,370.06c4.15,2.43,10.44,2.72,14.06.66l1-.56c3.62-2.06,3.18-5.7-1-8.12L21.66,251.79C17.51,249.37,11.22,249.07,7.61,251.13Z"/></g><g class="cls-21"><path class="cls-22" d="M82.75,264.59l-1,.56c-3.62,2.06-3.18,5.69,1,8.12l91.14,53.25c4.15,2.42,10.45,2.72,14.06.66l1-.56c3.61-2.06,3.18-5.7-1-8.12L96.81,265.25C92.66,262.82,86.37,262.53,82.75,264.59Z"/></g><g class="cls-23"><path class="cls-24" d="M131,262.3l-1,.56c-3.61,2.06-3.18,5.69,1,8.12L249,340c4.15,2.42,10.44,2.71,14,.65l1-.55c3.61-2.07,3.18-5.7-1-8.13L145,263C140.86,260.53,134.56,260.24,131,262.3Z"/></g><g class="cls-25"><path class="cls-26" d="M31.72,173.87l-1,.56c-3.61,2.06-3.18,5.69,1,8.12L275.4,324.93c4.15,2.43,10.44,2.72,14.05.66l1-.56c3.61-2.06,3.18-5.69-1-8.12L45.77,174.53C41.62,172.1,35.33,171.81,31.72,173.87Z"/></g><g class="cls-27"><path class="cls-28" d="M128.9,142.5l-1,.56c-3.62,2.06-3.18,5.7,1,8.12l243.7,142.39c4.14,2.42,10.44,2.71,14.05.65l1-.56c3.61-2.06,3.18-5.69-1-8.12L143,143.16C138.81,140.73,132.52,140.44,128.9,142.5Z"/></g><g class="cls-29"><path class="cls-30" d="M93.33,92.56l-1,.56c-3.61,2.06-3.18,5.69,1,8.12L337,243.62c4.15,2.43,10.44,2.72,14.06.66l1-.56c3.62-2.06,3.18-5.7-1-8.12L107.38,93.22C103.24,90.79,96.94,90.5,93.33,92.56Z"/></g><g class="cls-31"><path class="cls-32" d="M96.92,181.51l-1,.56c-3.61,2.06-3.18,5.7,1,8.12l204.86,119.7c4.15,2.43,10.44,2.72,14.05.66l1-.56c3.61-2.06,3.18-5.7-1-8.12L111,182.17C106.82,179.75,100.53,179.45,96.92,181.51Z"/></g><g class="cls-33"><path class="cls-34" d="M139.46,175.92l-1,.56c-3.61,2.06-3.18,5.69,1,8.12l76.77,44.85c4.14,2.43,10.44,2.72,14.05.66l1-.56c3.61-2.06,3.18-5.7-1-8.12l-76.77-44.85C149.36,174.15,143.07,173.86,139.46,175.92Z"/></g><path class="cls-35" d="M180.54,378.73A13,13,0,0,1,174,377L35.91,297.25a3.21,3.21,0,0,1,0-5.56l86.48-49.93.67.39,144,83.11a3.22,3.22,0,0,1,0,5.57L187.08,377A13,13,0,0,1,180.54,378.73ZM122.39,244.86,37.25,294a.54.54,0,0,0,0,.92l138.09,79.73a10.44,10.44,0,0,0,10.4,0l79.94-46.15a.52.52,0,0,0,.26-.46.5.5,0,0,0-.26-.46Z"/><path class="cls-36" d="M122.21,208.82,141.45,94.68,139.9,94l2.33-1.34v0a1.68,1.68,0,0,1,1.79.12L297.76,181.6a4.34,4.34,0,0,1,2,3.91l-19.39,115a1.43,1.43,0,0,1-.81,1.17h0L277.29,303l-.39-2.13.13,0L124.21,212.72A4.33,4.33,0,0,1,122.21,208.82Z"/><path class="cls-37" d="M296.91,184.72l2.53-1.12a3.5,3.5,0,0,1,.32,1.91l-19.39,115a1.43,1.43,0,0,1-.81,1.17h0L277.29,303l-.39-2.13.13,0-7.74-4.46Z"/><path class="cls-38" d="M121.79,214.11l153.76,88.76c1.18.69,2.2.29,2.41-.94l19.39-115a4.34,4.34,0,0,0-2-3.91L141.6,94.22c-1.19-.69-2.2-.29-2.41.94l-19.39,115A4.35,4.35,0,0,0,121.79,214.11Z"/><g class="cls-39"><polygon class="cls-40" points="143.61 101.56 291.81 187.13 273.44 295.47 125.33 209.97 143.61 101.56"/></g><path class="cls-41" d="M25.14,268.57l8.4,4.38,84.13-48.57a6.07,6.07,0,0,1,5.49.23l145.12,83.78c1.39-.78,7.72-3.83,7.72-3.83l-3.07,8h0a1.8,1.8,0,0,1-.86.95l-88.61,51.16a6.1,6.1,0,0,1-5.49-.23L29.45,278.71a2.67,2.67,0,0,1-1.24-1.33h0Z"/><path class="cls-42" d="M26.44,270l152.19,87.87a6.27,6.27,0,0,0,5.63.23l90.82-52.43c1.44-.84,1.26-2.29-.41-3.25L122.48,214.5a6.27,6.27,0,0,0-5.63-.23L26,266.7C24.6,267.53,24.78,269,26.44,270Z"/><path class="cls-43" d="M224.54,338.81v-1.67c0-.16-.1-.23-.22-.16l-5.89,3.4a.53.53,0,0,0-.21.41v1.67c0,.16.1.23.21.16l5.89-3.4A.51.51,0,0,0,224.54,338.81Z"/><path class="cls-43" d="M215.73,343.89v-1.67c0-.15-.09-.23-.21-.16l-5.89,3.4a.51.51,0,0,0-.21.41v1.67c0,.16.09.23.21.16l5.89-3.4A.49.49,0,0,0,215.73,343.89Z"/><path class="cls-44" d="M251.4,300.71l-126.47-73a2.7,2.7,0,0,0-2.72,0l-45,26.06a1,1,0,0,0,0,1.68l126.41,73a2.7,2.7,0,0,0,2.72,0l45.1-26A1,1,0,0,0,251.4,300.71Z"/><path class="cls-45" d="M251.4,302.39l-.45.26-126-72.75a2.7,2.7,0,0,0-2.72,0L77.62,255.69l-.45-.26a1,1,0,0,1,0-1.68l45-26.06a2.7,2.7,0,0,1,2.72,0l126.47,73A1,1,0,0,1,251.4,302.39Z"/><polygon class="cls-38" points="118.81 234.29 228.66 297.72 233.55 294.9 123.69 231.47 118.81 234.29"/><polygon class="cls-38" points="106.83 241.2 209.87 300.69 214.76 297.88 111.72 238.38 106.83 241.2"/><polygon class="cls-38" points="99.03 245.71 220.35 315.75 225.24 312.93 103.92 242.89 99.03 245.71"/><polygon class="cls-38" points="91.23 250.21 212.55 320.25 217.44 317.43 96.12 247.39 91.23 250.21"/><polygon class="cls-38" points="83.43 254.71 204.75 324.76 209.64 321.94 88.32 251.89 83.43 254.71"/><polygon class="cls-38" points="235.3 301.55 240.19 304.37 245.07 301.55 240.19 298.73 235.3 301.55"/><polygon class="cls-38" points="218.07 305.43 228.21 311.28 233.09 308.46 222.96 302.61 218.07 305.43"/><path class="cls-46" d="M120.06,318.38,86,298.69c-1.33-.77-1.33-2,0-2.79l23.32-13.46a5.34,5.34,0,0,1,4.83,0l34.1,19.69c1.33.77,1.33,2,0,2.78l-23.32,13.47A5.34,5.34,0,0,1,120.06,318.38Z"/><path class="cls-45" d="M148.21,303.27l-34.1-19.69a5.34,5.34,0,0,0-4.83,0L86,297a2.15,2.15,0,0,0-.84.83c-.35-.68-.08-1.44.84-2l23.32-13.46a5.34,5.34,0,0,1,4.83,0l34.1,19.69c.92.53,1.19,1.29.83,2A2,2,0,0,0,148.21,303.27Z"/><g class="cls-47"><g class="cls-48"><path class="cls-49" d="M122.33,214.32l152.19,87.87a6.27,6.27,0,0,0,5.63.23L371,250c1.44-.84,1.26-2.29-.41-3.25L218.37,158.87a6.25,6.25,0,0,0-5.62-.23l-90.82,52.43C120.49,211.9,120.67,213.36,122.33,214.32Z"/><path class="cls-50" d="M275,230.07l-34.1-19.68c-1.33-.77-1.33-2,0-2.79l23.32-13.46a5.34,5.34,0,0,1,4.83,0l34.1,19.68c1.33.77,1.33,2,0,2.79L279.8,230.07A5.34,5.34,0,0,1,275,230.07Z"/><path class="cls-45" d="M303.12,215,269,195.28a5.34,5.34,0,0,0-4.83,0l-23.32,13.46a2,2,0,0,0-.83.82c-.36-.67-.09-1.43.83-2l23.32-13.46a5.34,5.34,0,0,1,4.83,0l34.1,19.68c.92.54,1.19,1.3.84,2A2.15,2.15,0,0,0,303.12,215Z"/><path class="cls-44" d="M318.11,260.84l-126.47-73a2.7,2.7,0,0,0-2.72,0l-45,26a1,1,0,0,0,0,1.68l126.41,73a2.75,2.75,0,0,0,2.72,0l45.1-26A1,1,0,0,0,318.11,260.84Z"/><path class="cls-45" d="M318.11,262.52l-.45.27L191.64,190a2.7,2.7,0,0,0-2.72,0l-44.59,25.8-.45-.27a1,1,0,0,1,0-1.68l45-26a2.7,2.7,0,0,1,2.72,0l126.47,73A1,1,0,0,1,318.11,262.52Z"/><polygon class="cls-38" points="155.67 212.11 265.84 275.72 261.48 278.24 151.3 214.63 155.67 212.11"/><polygon class="cls-38" points="167.28 205.4 272 265.86 267.63 268.38 162.91 207.92 167.28 205.4"/><polygon class="cls-38" points="279.82 270.38 289.6 276.02 285.23 278.55 275.45 272.9 279.82 270.38"/><polygon class="cls-38" points="271.18 278.8 277.99 282.73 273.62 285.25 266.81 281.32 271.18 278.8"/><polygon class="cls-38" points="174.55 201.2 296.87 271.83 292.51 274.35 170.19 203.72 174.55 201.2"/><polygon class="cls-38" points="181.82 197 304.14 267.63 299.78 270.15 177.46 199.52 181.82 197"/><polygon class="cls-38" points="189.1 192.81 311.42 263.43 307.06 265.95 184.73 195.32 189.1 192.81"/></g></g><polygon class="cls-51" points="278.12 193.54 281.04 195.41 281.39 193.24 278.47 191.37 278.12 193.54"/><polygon class="cls-51" points="275.72 208.21 278.64 210.08 280.71 197.38 277.79 195.52 275.72 208.21"/><polygon class="cls-51" points="274.57 215.23 277.5 217.09 278.32 212.06 275.4 210.19 274.57 215.23"/><polygon class="cls-51" points="273.39 222.5 276.31 224.37 277.13 219.33 274.21 217.46 273.39 222.5"/><polygon class="cls-51" points="272.61 197.77 275.53 199.64 276.36 194.6 273.43 192.73 272.61 197.77"/><polygon class="cls-51" points="271.04 207.4 273.96 209.27 275.17 201.87 272.25 200 271.04 207.4"/><polygon class="cls-51" points="269.59 216.27 272.51 218.14 273.55 211.79 270.63 209.92 269.59 216.27"/><polygon class="cls-51" points="272.2 229.77 275.12 231.64 275.94 226.6 273.02 224.73 272.2 229.77"/><polygon class="cls-51" points="273.76 190.75 276.68 192.62 277.03 190.45 274.11 188.58 273.76 190.75"/><polygon class="cls-51" points="268.87 235.43 273.97 238.69 274.31 236.59 269.21 233.33 268.87 235.43"/><polygon class="cls-52" points="170.29 86.4 157.53 79.03 157.53 76.23 170.29 83.6 170.29 86.4"/><polygon class="cls-52" points="176.83 90.18 172.24 87.53 172.24 84.72 176.83 87.38 176.83 90.18"/><polygon class="cls-52" points="181.9 93.11 178.78 91.3 178.78 88.5 181.9 90.3 181.9 93.11"/><polygon class="cls-52" points="164.48 89.45 157.53 85.43 157.53 82.63 164.48 86.65 164.48 89.45"/><polygon class="cls-52" points="174.95 95.49 166.43 90.57 166.43 87.77 174.95 92.69 174.95 95.49"/><polygon class="cls-52" points="180.02 98.42 176.9 96.62 176.9 93.82 180.02 95.62 180.02 98.42"/><polygon class="cls-52" points="184.84 101.21 181.72 99.4 181.72 96.6 184.84 98.4 184.84 101.21"/><polygon class="cls-51" points="162.56 94.74 157.53 91.83 157.53 89.03 162.56 91.94 162.56 94.74"/><polygon class="cls-51" points="166.22 96.86 164.51 95.86 164.51 93.06 166.22 94.06 166.22 96.86"/><polygon class="cls-52" points="171.3 99.78 168.17 97.98 168.17 95.18 171.3 96.98 171.3 99.78"/><polygon class="cls-52" points="176.09 108.95 157.53 98.24 157.53 95.43 176.09 106.15 176.09 108.95"/><polygon class="cls-52" points="182.64 112.73 178.04 110.08 178.04 107.28 182.64 109.93 182.64 112.73"/><polygon class="cls-52" points="162.56 107.54 157.53 104.64 157.53 101.83 162.56 104.74 162.56 107.54"/><polygon class="cls-52" points="174.36 114.36 164.51 108.67 164.51 105.86 174.36 111.55 174.36 114.36"/><polygon class="cls-52" points="179.43 117.28 176.31 115.48 176.31 112.68 179.43 114.48 179.43 117.28"/><polygon class="cls-52" points="167.82 116.98 157.53 111.04 157.53 108.23 167.82 114.18 167.82 116.98"/><polygon class="cls-51" points="177.21 122.4 169.77 118.11 169.77 115.3 177.21 119.6 177.21 122.4"/><polygon class="cls-52" points="184.19 126.43 179.16 123.53 179.16 120.72 184.19 123.63 184.19 126.43"/><polygon class="cls-52" points="161 119.44 157.53 117.44 157.53 114.64 161 116.64 161 119.44"/><polygon class="cls-52" points="167.55 123.22 162.95 120.57 162.95 117.77 167.55 120.42 167.55 123.22"/><polygon class="cls-52" points="176.9 128.62 169.5 124.35 169.5 121.55 176.9 125.82 176.9 128.62"/><polygon class="cls-52" points="168.17 129.99 157.53 123.84 157.53 121.04 168.17 127.19 168.17 129.99"/><polygon class="cls-52" points="180.1 136.87 170.12 131.11 170.12 128.31 180.1 134.07 180.1 136.87"/><polygon class="cls-51" points="185.17 139.8 182.05 138 182.05 135.19 185.17 137 185.17 139.8"/><polygon class="cls-52" points="190.04 142.61 186.92 140.81 186.92 138 190.04 139.81 190.04 142.61"/><polygon class="cls-52" points="163.91 133.92 157.53 130.24 157.53 127.44 163.91 131.12 163.91 133.92"/><polygon class="cls-51" points="190.59 98.12 199.43 103.23 199.43 100.43 190.59 95.32 190.59 98.12"/><polygon class="cls-52" points="192.48 105.62 199.43 109.63 199.43 106.83 192.48 102.81 192.48 105.62"/><polygon class="cls-52" points="194.4 113.13 199.43 116.03 199.43 113.23 194.4 110.32 194.4 113.13"/><polygon class="cls-52" points="192.12 118.21 199.43 122.43 199.43 119.63 192.12 115.41 192.12 118.21"/><polygon class="cls-52" points="194.4 125.93 199.43 128.83 199.43 126.03 194.4 123.13 194.4 125.93"/><polygon class="cls-52" points="193.05 131.55 199.43 135.23 199.43 132.43 193.05 128.75 193.05 131.55"/><polygon class="cls-52" points="195.96 139.63 199.43 141.63 199.43 138.83 195.96 136.82 195.96 139.63"/><polygon class="cls-52" points="192.7 144.15 199.43 148.03 199.43 145.23 192.7 141.34 192.7 144.15"/><polygon class="cls-52" points="193.05 150.75 199.43 154.44 199.43 151.63 193.05 147.95 193.05 150.75"/><polygon class="cls-52" points="168.57 136.62 165.85 135.05 165.85 132.25 168.57 133.81 168.57 136.62"/><polygon class="cls-52" points="176.62 141.27 170.52 137.74 170.52 134.94 176.62 138.46 176.62 141.27"/><polygon class="cls-52" points="219.76 114.86 207 107.49 207 104.69 219.76 112.05 219.76 114.86"/><polygon class="cls-52" points="226.31 118.63 221.71 115.98 221.71 113.18 226.31 115.83 226.31 118.63"/><polygon class="cls-51" points="231.38 121.56 228.26 119.76 228.26 116.96 231.38 118.76 231.38 121.56"/><polygon class="cls-52" points="213.96 117.9 207 113.89 207 111.09 213.96 115.1 213.96 117.9"/><polygon class="cls-52" points="224.43 123.95 215.91 119.03 215.91 116.23 224.43 121.15 224.43 123.95"/><polygon class="cls-51" points="229.5 126.88 226.37 125.07 226.37 122.27 229.5 124.07 229.5 126.88"/><polygon class="cls-52" points="234.32 129.66 231.2 127.86 231.2 125.06 234.32 126.86 234.32 129.66"/><polygon class="cls-52" points="212.03 123.19 207 120.29 207 117.49 212.03 120.39 212.03 123.19"/><polygon class="cls-52" points="215.7 125.31 213.98 124.32 213.98 121.52 215.7 122.51 215.7 125.31"/><polygon class="cls-52" points="220.77 128.24 217.65 126.44 217.65 123.64 220.77 125.44 220.77 128.24"/><polygon class="cls-52" points="225.57 137.41 207 126.69 207 123.89 225.57 134.61 225.57 137.41"/><polygon class="cls-52" points="232.11 141.19 227.52 138.54 227.52 135.74 232.11 138.39 232.11 141.19"/><polygon class="cls-52" points="212.03 136 207 133.09 207 130.29 212.03 133.19 212.03 136"/><polygon class="cls-52" points="223.84 142.81 213.98 137.12 213.98 134.32 223.84 140.01 223.84 142.81"/><polygon class="cls-52" points="228.91 145.74 225.79 143.94 225.79 141.14 228.91 142.94 228.91 145.74"/><polygon class="cls-51" points="217.3 145.44 207 139.49 207 136.69 217.3 142.63 217.3 145.44"/><polygon class="cls-52" points="226.69 150.86 219.25 146.56 219.25 143.76 226.69 148.06 226.69 150.86"/><polygon class="cls-52" points="233.67 154.89 228.64 151.98 228.64 149.18 233.67 152.09 233.67 154.89"/><polygon class="cls-52" points="210.48 147.9 207 145.89 207 143.09 210.48 145.1 210.48 147.9"/><polygon class="cls-52" points="217.02 151.68 212.43 149.03 212.43 146.22 217.02 148.88 217.02 151.68"/><polygon class="cls-51" points="226.37 157.08 218.97 152.8 218.97 150 226.37 154.28 226.37 157.08"/><polygon class="cls-52" points="217.65 158.44 207 152.29 207 149.49 217.65 155.64 217.65 158.44"/><polygon class="cls-52" points="229.58 165.33 219.6 159.57 219.6 156.77 229.58 162.53 229.58 165.33"/><polygon class="cls-52" points="234.65 168.26 231.53 166.45 231.53 163.65 234.65 165.45 234.65 168.26"/><polygon class="cls-52" points="239.51 171.07 236.39 169.26 236.39 166.46 239.51 168.26 239.51 171.07"/><polygon class="cls-52" points="213.38 162.38 207 158.7 207 155.89 213.38 159.58 213.38 162.38"/><polygon class="cls-51" points="240.06 126.58 248.91 131.69 248.91 128.88 240.06 123.78 240.06 126.58"/><polygon class="cls-52" points="241.96 134.07 248.91 138.09 248.91 135.28 241.96 131.27 241.96 134.07"/><polygon class="cls-52" points="243.88 141.58 248.91 144.49 248.91 141.68 243.88 138.78 243.88 141.58"/><polygon class="cls-52" points="241.59 146.66 248.91 150.89 248.91 148.09 241.59 143.86 241.59 146.66"/><polygon class="cls-52" points="243.88 154.38 248.91 157.29 248.91 154.49 243.88 151.58 243.88 154.38"/><polygon class="cls-52" points="242.53 160 248.91 163.69 248.91 160.89 242.53 157.2 242.53 160"/><polygon class="cls-52" points="245.44 168.08 248.91 170.09 248.91 167.29 245.44 165.28 245.44 168.08"/><polygon class="cls-52" points="242.18 172.6 248.91 176.49 248.91 173.69 242.18 169.8 242.18 172.6"/><polygon class="cls-52" points="242.53 179.21 248.91 182.89 248.91 180.09 242.53 176.41 242.53 179.21"/><polygon class="cls-51" points="218.05 165.07 215.33 163.5 215.33 160.7 218.05 162.27 218.05 165.07"/><polygon class="cls-52" points="226.1 169.72 220 166.2 220 163.39 226.1 166.92 226.1 169.72"/><polygon class="cls-52" points="170.29 144.04 157.53 136.68 157.53 133.88 170.29 141.24 170.29 144.04"/><polygon class="cls-52" points="176.83 147.82 172.24 145.17 172.24 142.37 176.83 145.02 176.83 147.82"/><polygon class="cls-52" points="181.9 150.75 178.78 148.95 178.78 146.15 181.9 147.95 181.9 150.75"/><polygon class="cls-52" points="164.48 147.09 157.53 143.08 157.53 140.28 164.48 144.29 164.48 147.09"/><polygon class="cls-52" points="174.95 153.14 166.43 148.22 166.43 145.42 174.95 150.34 174.95 153.14"/><polygon class="cls-52" points="180.02 156.06 176.9 154.26 176.9 151.46 180.02 153.26 180.02 156.06"/><polygon class="cls-52" points="184.84 158.85 181.72 157.05 181.72 154.25 184.84 156.05 184.84 158.85"/><polygon class="cls-52" points="162.56 152.38 157.53 149.48 157.53 146.68 162.56 149.58 162.56 152.38"/><polygon class="cls-52" points="166.22 154.5 164.51 153.51 164.51 150.71 166.22 151.7 166.22 154.5"/><polygon class="cls-52" points="171.3 157.43 168.17 155.63 168.17 152.82 171.3 154.63 171.3 157.43"/><polygon class="cls-52" points="176.09 166.6 157.53 155.88 157.53 153.08 176.09 163.8 176.09 166.6"/><polygon class="cls-52" points="182.64 170.38 178.04 167.72 178.04 164.92 182.64 167.57 182.64 170.38"/><polygon class="cls-52" points="162.56 165.19 157.53 162.28 157.53 159.48 162.56 162.38 162.56 165.19"/><polygon class="cls-52" points="174.36 172 164.51 166.31 164.51 163.51 174.36 169.2 174.36 172"/><polygon class="cls-52" points="179.43 174.93 176.31 173.13 176.31 170.32 179.43 172.13 179.43 174.93"/><polygon class="cls-52" points="167.82 174.62 157.53 168.68 157.53 165.88 167.82 171.82 167.82 174.62"/><polygon class="cls-52" points="177.21 180.05 169.77 175.75 169.77 172.95 177.21 177.24 177.21 180.05"/><polygon class="cls-52" points="184.19 184.08 179.16 181.17 179.16 178.37 184.19 181.27 184.19 184.08"/><polygon class="cls-52" points="161 177.09 157.53 175.08 157.53 172.28 161 174.29 161 177.09"/><polygon class="cls-52" points="167.55 180.87 162.95 178.22 162.95 175.41 167.55 178.06 167.55 180.87"/><polygon class="cls-52" points="176.9 186.27 169.5 181.99 169.5 179.19 176.9 183.46 176.9 186.27"/><polygon class="cls-52" points="168.17 187.63 157.53 181.48 157.53 178.68 168.17 184.83 168.17 187.63"/><polygon class="cls-52" points="180.1 194.52 170.12 188.76 170.12 185.95 180.1 191.71 180.1 194.52"/><polygon class="cls-52" points="185.17 197.44 182.05 195.64 182.05 192.84 185.17 194.64 185.17 197.44"/><polygon class="cls-52" points="190.04 200.25 186.92 198.45 186.92 195.65 190.04 197.45 190.04 200.25"/><polygon class="cls-52" points="163.91 191.57 157.53 187.88 157.53 185.08 163.91 188.76 163.91 191.57"/><polygon class="cls-52" points="190.59 155.76 199.43 160.87 199.43 158.07 190.59 152.96 190.59 155.76"/><polygon class="cls-52" points="192.48 163.26 199.43 167.27 199.43 164.47 192.48 160.46 192.48 163.26"/><polygon class="cls-52" points="194.4 170.77 199.43 173.67 199.43 170.87 194.4 167.97 194.4 170.77"/><polygon class="cls-52" points="192.12 175.85 199.43 180.07 199.43 177.27 192.12 173.05 192.12 175.85"/><polygon class="cls-52" points="194.4 183.57 199.43 186.48 199.43 183.67 194.4 180.77 194.4 183.57"/><polygon class="cls-52" points="193.05 189.19 199.43 192.88 199.43 190.07 193.05 186.39 193.05 189.19"/><polygon class="cls-52" points="195.96 197.27 199.43 199.28 199.43 196.47 195.96 194.47 195.96 197.27"/><polygon class="cls-52" points="192.7 201.79 199.43 205.68 199.43 202.88 192.7 198.99 192.7 201.79"/><polygon class="cls-52" points="193.05 208.4 199.43 212.08 199.43 209.28 193.05 205.59 193.05 208.4"/><polygon class="cls-52" points="168.57 194.26 165.85 192.69 165.85 189.89 168.57 191.46 168.57 194.26"/><polygon class="cls-52" points="176.62 198.91 170.52 195.38 170.52 192.58 176.62 196.11 176.62 198.91"/><polygon class="cls-52" points="181.68 220.44 171.37 214.49 171.37 211.69 181.68 217.64 181.68 220.44"/><polygon class="cls-52" points="188.73 224.52 184.68 222.17 184.68 219.37 188.73 221.71 188.73 224.52"/><polygon class="cls-52" points="219.76 172.5 207 165.13 207 162.33 219.76 169.7 219.76 172.5"/><polygon class="cls-52" points="226.31 176.28 221.71 173.63 221.71 170.82 226.31 173.48 226.31 176.28"/><polygon class="cls-52" points="231.38 179.21 228.26 177.4 228.26 174.6 231.38 176.4 231.38 179.21"/><polygon class="cls-52" points="213.96 175.55 207 171.53 207 168.73 213.96 172.75 213.96 175.55"/><polygon class="cls-52" points="224.43 181.59 215.91 176.67 215.91 173.87 224.43 178.79 224.43 181.59"/><polygon class="cls-52" points="229.5 184.52 226.37 182.72 226.37 179.92 229.5 181.72 229.5 184.52"/><polygon class="cls-52" points="234.32 187.31 231.2 185.5 231.2 182.7 234.32 184.5 234.32 187.31"/><polygon class="cls-52" points="212.03 180.84 207 177.94 207 175.13 212.03 178.04 212.03 180.84"/><polygon class="cls-52" points="215.7 182.96 213.98 181.97 213.98 179.16 215.7 180.16 215.7 182.96"/><polygon class="cls-52" points="220.77 185.88 217.65 184.08 217.65 181.28 220.77 183.08 220.77 185.88"/><polygon class="cls-52" points="225.57 195.06 207 184.34 207 181.53 225.57 192.25 225.57 195.06"/><polygon class="cls-52" points="232.11 198.83 227.52 196.18 227.52 193.38 232.11 196.03 232.11 198.83"/><polygon class="cls-52" points="212.03 193.64 207 190.74 207 187.94 212.03 190.84 212.03 193.64"/><polygon class="cls-52" points="223.84 200.46 213.98 194.77 213.98 191.96 223.84 197.66 223.84 200.46"/><polygon class="cls-52" points="228.91 203.38 225.79 201.58 225.79 198.78 228.91 200.58 228.91 203.38"/><polygon class="cls-52" points="217.3 203.08 207 197.14 207 194.34 217.3 200.28 217.3 203.08"/><polygon class="cls-52" points="226.69 208.5 219.25 204.21 219.25 201.4 226.69 205.7 226.69 208.5"/><polygon class="cls-52" points="233.67 212.53 228.64 209.63 228.64 206.83 233.67 209.73 233.67 212.53"/><polygon class="cls-52" points="210.48 205.54 207 203.54 207 200.74 210.48 202.74 210.48 205.54"/><polygon class="cls-52" points="217.02 209.32 212.43 206.67 212.43 203.87 217.02 206.52 217.02 209.32"/><polygon class="cls-52" points="226.37 214.72 218.97 210.45 218.97 207.65 226.37 211.92 226.37 214.72"/><polygon class="cls-52" points="217.65 216.09 207 209.94 207 207.14 217.65 213.28 217.65 216.09"/><polygon class="cls-52" points="229.58 222.97 219.6 217.21 219.6 214.41 229.58 220.17 229.58 222.97"/><polygon class="cls-52" points="234.65 225.9 231.53 224.1 231.53 221.3 234.65 223.1 234.65 225.9"/><polygon class="cls-52" points="239.51 228.71 236.39 226.91 236.39 224.1 239.51 225.91 239.51 228.71"/><polygon class="cls-52" points="213.38 220.02 207 216.34 207 213.54 213.38 217.22 213.38 220.02"/><polygon class="cls-52" points="240.06 184.22 248.91 189.33 248.91 186.53 240.06 181.42 240.06 184.22"/><polygon class="cls-52" points="241.96 191.72 248.91 195.73 248.91 192.93 241.96 188.91 241.96 191.72"/><polygon class="cls-52" points="243.88 199.23 248.91 202.13 248.91 199.33 243.88 196.42 243.88 199.23"/><polygon class="cls-52" points="241.59 204.31 248.91 208.53 248.91 205.73 241.59 201.5 241.59 204.31"/><polygon class="cls-52" points="243.88 212.03 248.91 214.93 248.91 212.13 243.88 209.23 243.88 212.03"/><polygon class="cls-52" points="242.53 217.65 248.91 221.33 248.91 218.53 242.53 214.85 242.53 217.65"/><polygon class="cls-52" points="245.44 225.73 248.91 227.73 248.91 224.93 245.44 222.93 245.44 225.73"/><polygon class="cls-52" points="242.18 230.25 248.91 234.13 248.91 231.33 242.18 227.44 242.18 230.25"/><polygon class="cls-52" points="242.53 236.85 248.91 240.53 248.91 237.73 242.53 234.05 242.53 236.85"/><polygon class="cls-52" points="218.05 222.72 215.33 221.15 215.33 218.35 218.05 219.91 218.05 222.72"/><polygon class="cls-52" points="226.1 227.37 220 223.84 220 221.04 226.1 224.56 226.1 227.37"/><polygon class="cls-52" points="231.15 248.9 220.85 242.95 220.85 240.15 231.15 246.09 231.15 248.9"/><polygon class="cls-52" points="238.21 252.97 234.15 250.63 234.15 247.83 238.21 250.17 238.21 252.97"/></svg>