<svg id="Слой_1" data-name="Слой 1" xmlns="http://www.w3.org/2000/svg" viewBox="0 0 2994.8 1706.87"><defs><style>.cls-1{fill:#e7f3fe;}.cls-2{fill:#9ec8ff;}.cls-3{fill:#36a342;}.cls-13,.cls-4{fill:#99bbeb;}.cls-5{fill:#fff;}.cls-6{fill:#9bd6e8;}.cls-7{fill:#3a384d;}.cls-8{fill:#f09959;}.cls-9{fill:#e38540;}.cls-10{fill:#ed6b4d;}.cls-11{fill:#7a4e34;}.cls-12{fill:#d54a41;}.cls-13{opacity:0.2;}.cls-14{fill:#2e2d3d;}.cls-15{fill:#d5e1e8;}.cls-16{fill:#bdccd4;}.cls-17{fill:#ed6a23;}.cls-18{fill:#2e5b9a;}.cls-19{fill:#6791c9;}.cls-20{fill:#75a1de;}.cls-21{fill:#f2e5de;}.cls-22{fill:#303c60;}</style></defs><title>New page banner for zyclyx</title><path class="cls-1" d="M441.1,158.23C856.58,4,1278.85,140.35,1565.24,437.36s887.44-205,1206.2,91.52c217.54,202.36,117.9,722.64-180.39,948-405.43,306.3-1638.42,150.88-1905.13,98.75-307.28-60-531.92-242.25-623.19-463.39C-157.2,579.38,257.5,226.39,441.1,158.23Z"/><path class="cls-2" d="M1861.21,372.51a343.3,343.3,0,0,0,2.16-38.29c0-6.84-.23-13.61-.62-20.35l-63.28-20.47a278.39,278.39,0,0,0-22.41-75.82L1819,166a341.91,341.91,0,0,0-33.23-48.31l-63.29,20.65a281.66,281.66,0,0,0-62.65-48.16l3.6-66.49a339.2,339.2,0,0,0-55.24-19.57L1569.13,58a281.26,281.26,0,0,0-79-2.07L1454,0a338,338,0,0,0-56.21,16.61l.08,66.59A281,281,0,0,0,1332.71,128l-62.08-24a342.39,342.39,0,0,0-35.76,46.49l39.18,53.78a278.47,278.47,0,0,0-26.41,74.52l-64.26,17.1a343.61,343.61,0,0,0-2.16,38.3c0,6.83.23,13.61.62,20.34L1245.12,375a278.29,278.29,0,0,0,22.41,75.82l-42,51.63a341.34,341.34,0,0,0,33.23,48.31l63.29-20.65a281.06,281.06,0,0,0,62.65,48.16l-3.6,66.49a338.29,338.29,0,0,0,55.24,19.58l39.08-53.93a281.26,281.26,0,0,0,79,2.07l36.18,55.92a338,338,0,0,0,56.21-16.61l-.08-66.58a280.78,280.78,0,0,0,65.11-44.79L1774,564.4a342.3,342.3,0,0,0,35.76-46.48l-39.18-53.79A278.12,278.12,0,0,0,1797,389.61ZM1522.29,468a133.78,133.78,0,1,1,133.78-133.77A133.77,133.77,0,0,1,1522.29,468Z"/><path class="cls-3" d="M1704.75,486.79a5,5,0,0,1-3.84-8.2,226.33,226.33,0,0,0,39.88-218,5,5,0,1,1,9.45-3.25A236.3,236.3,0,0,1,1708.6,485,5,5,0,0,1,1704.75,486.79Z"/><path class="cls-3" d="M1685.38,171.05a5,5,0,0,1-3.42-1.36,224.62,224.62,0,0,0-77.79-47.93,5,5,0,0,1,3.41-9.4,234.49,234.49,0,0,1,81.23,50.05,5,5,0,0,1-3.43,8.64Z"/><path class="cls-3" d="M1470.41,115.29a5,5,0,0,1-1.22-9.85,237,237,0,0,1,57.92-7.16,5,5,0,0,1,0,10,227,227,0,0,0-55.48,6.86A5.15,5.15,0,0,1,1470.41,115.29Z"/><path class="cls-2" d="M786,1219.55a237.14,237.14,0,0,0,1.49-26.52c0-4.74-.15-9.43-.43-14.1l-43.83-14.18a192.45,192.45,0,0,0-15.51-52.51l29.06-35.76a237.24,237.24,0,0,0-23-33.47l-43.84,14.31A194.48,194.48,0,0,0,646.55,1024L649,977.91a234.65,234.65,0,0,0-38.26-13.56l-27.07,37.35a195.12,195.12,0,0,0-54.72-1.43l-25.06-38.74A234.06,234.06,0,0,0,465,973l.06,46.12a194.56,194.56,0,0,0-45.1,31l-43-16.59a236.45,236.45,0,0,0-24.77,32.2L379.33,1103a192.88,192.88,0,0,0-18.3,51.62l-44.51,11.84A239.59,239.59,0,0,0,315,1193c0,4.73.16,9.42.43,14.09l43.83,14.18a192.72,192.72,0,0,0,15.52,52.51l-29.06,35.76a237.24,237.24,0,0,0,23,33.47l43.83-14.31a194.77,194.77,0,0,0,43.4,33.36l-2.5,46.05a233.49,233.49,0,0,0,38.27,13.56l27.06-37.35a195.12,195.12,0,0,0,54.72,1.43l25.06,38.74A233.5,233.5,0,0,0,637.54,1413l0-46.12a194.56,194.56,0,0,0,45.1-31l43,16.59a236.38,236.38,0,0,0,24.76-32.2L723.22,1283a192.51,192.51,0,0,0,18.29-51.62Zm-234.75,66.13A92.66,92.66,0,1,1,643.93,1193,92.66,92.66,0,0,1,551.27,1285.68Z"/><path class="cls-3" d="M677.65,1300.24a5,5,0,0,1-3.84-8.2,155.28,155.28,0,0,0,27.35-149.5,5,5,0,1,1,9.45-3.26,165.28,165.28,0,0,1-29.11,159.16A5,5,0,0,1,677.65,1300.24Z"/><path class="cls-3" d="M664.23,1081.54a5,5,0,0,1-3.42-1.36,154.11,154.11,0,0,0-53.35-32.87,5,5,0,0,1,3.41-9.4,164,164,0,0,1,56.79,35,5,5,0,0,1-3.43,8.64Z"/><path class="cls-3" d="M515.33,1042.92a5,5,0,0,1-1.22-9.84,165.3,165.3,0,0,1,40.5-5,5,5,0,0,1,0,10,155.63,155.63,0,0,0-38.05,4.7A5.17,5.17,0,0,1,515.33,1042.92Z"/><path class="cls-2" d="M2065.46,627.28c0-2.59-.07-5.15-.21-7.71l32.84-26.36a175.69,175.69,0,0,0-11.93-37.73l-42.4-3.2a141.18,141.18,0,0,0-36.71-38.95l-.14-42.25a175.14,175.14,0,0,0-37.59-14.5l-29,31.18a144.18,144.18,0,0,0-15.21-.82,140.77,140.77,0,0,0-36.9,4.91L1855,465.53a176.27,176.27,0,0,0-35.15,20.39l6.29,41.89a140.71,140.71,0,0,0-29.6,43.19l-41.34,9.58a176.31,176.31,0,0,0-6.11,39.85l36.41,21.06a139.64,139.64,0,0,0,15.58,51.45l-18.23,38.18a177.63,177.63,0,0,0,26.79,29.15l39-15.3a139.52,139.52,0,0,0,51.48,20.43l18.4,37.89c2.19.08,4.39.13,6.61.13a177.07,177.07,0,0,0,32.28-3l12.41-40.13a140.11,140.11,0,0,0,48.44-28.12l41,9.22a176.54,176.54,0,0,0,21.86-32.29l-23.79-34.93A140,140,0,0,0,2065.46,627.28Zm-141.87,61.83A59.11,59.11,0,1,1,1982.7,630,59.12,59.12,0,0,1,1923.59,689.11Z"/><path class="cls-1" d="M2779.77,1598.7c-208-10.17-915.46,7-1130.63,13.77s-464.93-8.86-594.67-31.76-879.67,2-845.64,63.52,334.13,27.55,674.45,52.3,1105.7-3.09,1278.34,0,331-6.19,553.45-18.56S2900.33,1604.59,2779.77,1598.7Z"/><rect class="cls-4" x="219.28" y="311.03" width="434.74" height="712.57"/><rect class="cls-5" x="242.05" y="325.55" width="397.68" height="670.89"/><path class="cls-6" d="M361,594.58c15-32.2,40.3-42.51,81.9-42.51,49.54,0,75.26,17.94,82.55,44.07C436.74,597.35,361,594.58,361,594.58Z"/><path class="cls-7" d="M425.61,395.46c-21,5.88-20.05,17.66-27,28.6s-22.18,18.23-24,25.52,4.68,22.48-3,31-10.33,12.76-7.29,21.27,9.72,21.87,10.33,23.69,9.11,14.58,19.44,16.41,29.77,4.86,39.49,9.11,41-5.44,58.33-4.84S521,534,519.78,525.52s12.79-25.51,12.76-40.1c0-15.65-18.23-27.34-23.09-37.67s.61-28.55-17.62-39.35c-11.52-6.82-19.44-6.21-28.56-9.25S439,391.7,425.61,395.46Z"/><path class="cls-8" d="M451.12,577.77c-4.74,7-8.22,7.29-13.36,0-4.1-5.79-12.15-19-12.15-25.65v-66.7a12.18,12.18,0,0,1,12.15-12.15h13.36a12.18,12.18,0,0,1,12.15,12.15v66.7C463.27,558.81,455.38,571.5,451.12,577.77Z"/><path class="cls-9" d="M451.12,473.27H437.76a12.18,12.18,0,0,0-12.15,12.15v59.51c15,4.78,28.7-4.72,37.66-15.42V485.42A12.18,12.18,0,0,0,451.12,473.27Z"/><ellipse class="cls-8" cx="444.44" cy="473.95" rx="40.4" ry="55.05"/><path class="cls-7" d="M463.27,430.14C437.76,473.27,400.09,469,400.09,469s.91-57.11,30.83-60.15,47.54,9,53.62,28.79,0,32.88,0,32.88A52.5,52.5,0,0,1,470,450.79,142.6,142.6,0,0,1,463.27,430.14Z"/><ellipse class="cls-8" cx="398.57" cy="477.66" rx="10.63" ry="15.95" transform="translate(-166.38 217.18) rotate(-25.41)"/><path class="cls-8" d="M478.88,473.1c-3.77,8-2.54,16.45,2.77,19s12.66-1.89,16.44-9.85,2.55-16.45-2.76-19S482.66,465.14,478.88,473.1Z"/><path class="cls-5" d="M459.63,503.81s-6.8,8.81-15.19,8.81-15.19-8.81-15.19-8.81Z"/><path class="cls-4" d="M492.54,681.92h-102a11.87,11.87,0,0,1,0-23.73h102a11.87,11.87,0,0,1,0,23.73Z"/><path class="cls-4" d="M511.22,718.37H371.82a11.87,11.87,0,0,1,0-23.73h139.4a11.87,11.87,0,0,1,0,23.73Z"/><path class="cls-4" d="M611.06,849.46H272a6.89,6.89,0,0,1,0-13.77H611.06a6.89,6.89,0,0,1,0,13.77Z"/><path class="cls-4" d="M611.06,881.46H272a6.89,6.89,0,0,1,0-13.77H611.06a6.89,6.89,0,0,1,0,13.77Z"/><path class="cls-4" d="M611.06,913.46H272a6.89,6.89,0,0,1,0-13.77H611.06a6.89,6.89,0,0,1,0,13.77Z"/><path class="cls-4" d="M563.63,602.5H319.41a12.31,12.31,0,0,1-12.29-12.29V365.12a12.31,12.31,0,0,1,12.29-12.3H563.63a12.31,12.31,0,0,1,12.29,12.3V590.21A12.31,12.31,0,0,1,563.63,602.5ZM319.41,362.82a2.32,2.32,0,0,0-2.29,2.3V590.21a2.32,2.32,0,0,0,2.29,2.29H563.63a2.32,2.32,0,0,0,2.29-2.29V365.12a2.32,2.32,0,0,0-2.29-2.3Z"/><polygon class="cls-10" points="354.65 749.32 361.72 763.65 377.53 765.94 366.09 777.1 368.79 792.84 354.65 785.41 340.51 792.84 343.21 777.1 331.77 765.94 347.58 763.65 354.65 749.32"/><polygon class="cls-10" points="412.56 749.32 419.63 763.65 435.44 765.94 424 777.1 426.7 792.84 412.56 785.41 398.42 792.84 401.12 777.1 389.68 765.94 405.49 763.65 412.56 749.32"/><polygon class="cls-10" points="470.48 749.32 477.55 763.65 493.36 765.94 481.92 777.1 484.62 792.84 470.48 785.41 456.33 792.84 459.04 777.1 447.6 765.94 463.41 763.65 470.48 749.32"/><polygon class="cls-10" points="528.39 749.32 535.46 763.65 551.27 765.94 539.83 777.1 542.53 792.84 528.39 785.41 514.25 792.84 516.95 777.1 505.51 765.94 521.32 763.65 528.39 749.32"/><rect class="cls-4" x="1188.5" y="311.03" width="434.74" height="712.57"/><rect class="cls-5" x="1211.26" y="325.55" width="397.68" height="670.89"/><path class="cls-11" d="M1349.1,470.31c0,31.92,19.22,83.42,64.55,81.77s55.36-50.74,57.12-64.6S1349.1,470.31,1349.1,470.31Z"/><path class="cls-12" d="M1330.22,594.58c15-32.2,40.3-42.51,81.9-42.51,49.53,0,75.25,17.94,82.54,44.07C1406,597.35,1330.22,594.58,1330.22,594.58Z"/><path class="cls-8" d="M1420.34,577.77c-4.75,7-8.22,7.29-13.37,0-4.09-5.79-12.15-19-12.15-25.65v-66.7A12.19,12.19,0,0,1,1407,473.27h13.37a12.19,12.19,0,0,1,12.15,12.15v66.7C1432.49,558.81,1424.59,571.5,1420.34,577.77Z"/><path class="cls-9" d="M1420.34,473.27H1407a12.19,12.19,0,0,0-12.15,12.15v59.51c15,4.78,28.7-4.72,37.67-15.42V485.42A12.19,12.19,0,0,0,1420.34,473.27Z"/><ellipse class="cls-8" cx="1413.65" cy="473.95" rx="40.4" ry="55.05"/><path class="cls-11" d="M1435.86,432.1c-4.8,16.93-15.32,16.74-30,22.3s-21.68,11.15-26.48,22c-6.13,13.81,2.78,54.08,2.78,54.08S1345,502.66,1349.31,459s30.08-60.65,54.33-60.65,33.49,14.78,33.49,14.78,12.92.05,25.14,14.53c16.43,19.46,11.37,66.71,0,83.64s-19,22.24-18.7,21.48,10.61-39.63,5.06-63.68S1435.86,432.1,1435.86,432.1Z"/><path class="cls-5" d="M1428.84,503.81s-6.8,8.81-15.19,8.81-15.19-8.81-15.19-8.81Z"/><path class="cls-4" d="M1461.75,681.92h-102a11.87,11.87,0,1,1,0-23.73h102a11.87,11.87,0,0,1,0,23.73Z"/><path class="cls-4" d="M1480.43,718.37H1341a11.87,11.87,0,1,1,0-23.73h139.39a11.87,11.87,0,0,1,0,23.73Z"/><path class="cls-4" d="M1580.27,849.46H1241.2a6.89,6.89,0,1,1,0-13.77h339.07a6.89,6.89,0,1,1,0,13.77Z"/><path class="cls-4" d="M1580.27,881.46H1241.2a6.89,6.89,0,1,1,0-13.77h339.07a6.89,6.89,0,1,1,0,13.77Z"/><path class="cls-4" d="M1580.27,913.46H1241.2a6.89,6.89,0,1,1,0-13.77h339.07a6.89,6.89,0,1,1,0,13.77Z"/><path class="cls-4" d="M1532.85,602.5H1288.62a12.31,12.31,0,0,1-12.29-12.29V365.12a12.31,12.31,0,0,1,12.29-12.3h244.23a12.31,12.31,0,0,1,12.29,12.3V590.21A12.31,12.31,0,0,1,1532.85,602.5ZM1288.62,362.82a2.32,2.32,0,0,0-2.29,2.3V590.21a2.32,2.32,0,0,0,2.29,2.29h244.23a2.32,2.32,0,0,0,2.29-2.29V365.12a2.32,2.32,0,0,0-2.29-2.3Z"/><polygon class="cls-10" points="1323.86 749.32 1330.93 763.65 1346.74 765.94 1335.3 777.1 1338 792.84 1323.86 785.41 1309.72 792.84 1312.42 777.1 1300.98 765.94 1316.79 763.65 1323.86 749.32"/><polygon class="cls-10" points="1381.78 749.32 1388.85 763.65 1404.66 765.94 1393.22 777.1 1395.92 792.84 1381.78 785.41 1367.63 792.84 1370.34 777.1 1358.89 765.94 1374.71 763.65 1381.78 749.32"/><polygon class="cls-10" points="1439.69 749.32 1446.76 763.65 1462.57 765.94 1451.13 777.1 1453.83 792.84 1439.69 785.41 1425.55 792.84 1428.25 777.1 1416.81 765.94 1432.62 763.65 1439.69 749.32"/><polygon class="cls-10" points="1497.61 749.32 1504.68 763.65 1520.49 765.94 1509.05 777.1 1511.75 792.84 1497.61 785.41 1483.46 792.84 1486.16 777.1 1474.72 765.94 1490.53 763.65 1497.61 749.32"/><polygon class="cls-13" points="1237.37 1016.48 551.27 1016.48 599.8 313.68 1262.11 313.68 1237.37 1016.48"/><rect class="cls-4" x="623.34" y="180.69" width="593.79" height="973.26"/><rect class="cls-5" x="654.44" y="200.52" width="543.18" height="916.34"/><path class="cls-14" d="M875.41,393c-.38-1.14-9.89-55.72-11-76.95s34.12-24.26,34.12-24.26,28.8-15.54,49.65-7.58,35,21.36,44.51,38-8.33,68.66-8.33,68.66Z"/><path class="cls-15" d="M810.05,568.36c-.13-.89,2.44-22.37,2.53-23.24,4.8-45.24,60.56-58,116.19-58,65.37,0,109.72,12,116.8,59,.21,1.37,4,22.91,3.79,24.36C928.2,572.15,810.05,568.36,810.05,568.36Z"/><path class="cls-8" d="M940,522.27c-6.48,9.56-11.23,10-18.26,0-5.59-7.92-24.25-26-24.25-35.11l7.66-91a16.64,16.64,0,0,1,16.59-16.59H940a16.65,16.65,0,0,1,16.6,16.59l3.56,91C960.16,496.29,945.81,513.7,940,522.27Z"/><path class="cls-9" d="M940,379.54H921.74a16.64,16.64,0,0,0-16.59,16.59l-6.65,80.76c20.5,6.52,48.18-6.74,60.42-21.36l-2.32-59.4A16.65,16.65,0,0,0,940,379.54Z"/><path class="cls-16" d="M868.22,493.8l29.27,54.1s15.66-12.89,17.18-10.36S911.89,572,911.89,572s34.87.48,36.39-1-7.08-34.64-3.54-34.64,14.18,9.6,14.18,9.6L991.6,493.8l-7.18-1.75-53.55,28.81-57.26-28.18Z"/><polygon class="cls-12" points="901.69 518.73 923.43 533.31 916.69 572.02 946 570.39 938.68 535.17 956.7 518.73 948.24 510.75 910.15 510.75 901.69 518.73"/><path class="cls-15" d="M899,467.28l-26.88,25.59s27.39,48.71,28.9,48.71,23.25-26.86,23.25-26.86l13.91-.24,22,23.06,25.53-45.18-26-27.6s-22.24,43-26.28,44-4.07,1.51-7.34-1S899,467.28,899,467.28Z"/><ellipse class="cls-8" cx="930.87" cy="380.46" rx="55.18" ry="75.19"/><path class="cls-8" d="M881.34,379.3c5.16,10.87,3.47,22.47-3.78,25.91s-17.3-2.58-22.46-13.45-3.47-22.46,3.77-25.91S876.18,368.43,881.34,379.3Z"/><path class="cls-8" d="M977.92,379.3c-5.16,10.87-3.47,22.47,3.77,25.91s17.3-2.58,22.46-13.45,3.48-22.46-3.77-25.91S983.08,368.43,977.92,379.3Z"/><path class="cls-5" d="M955.35,411.31s-11,17.76-24.48,17.76-24.48-17.76-24.48-17.76Z"/><path class="cls-14" d="M898.5,329.31c22.74-15.92,33-13.27,50,12.89s37.53,26.61,37.53,26.61l2.65-27.12S963.3,292.54,929.19,299s-53.5,37.14-53.5,37.14-1.66,57.55,3.1,59.51,5.3-18.57,8.71-22.74-3.41-23.88,1.14-33S898.5,329.31,898.5,329.31Z"/><path class="cls-14" d="M971.65,358.88c7.94,8.69,4.93,43.21,9.1,42.83s5.69-33,4.55-36.39S971.65,358.88,971.65,358.88Z"/><path class="cls-4" d="M1053.62,687.26H800.14a16.21,16.21,0,0,1,0-32.41h253.48a16.21,16.21,0,1,1,0,32.41Z"/><path class="cls-4" d="M1022.08,737H831.69a16.21,16.21,0,1,1,0-32.41h190.39a16.21,16.21,0,0,1,0,32.41Z"/><path class="cls-4" d="M1158.45,916.1H695.32a9.41,9.41,0,0,1,0-18.81h463.13a9.41,9.41,0,0,1,0,18.81Z"/><path class="cls-4" d="M1158.45,959.8H695.32a9.4,9.4,0,0,1,0-18.8h463.13a9.4,9.4,0,0,1,0,18.8Z"/><path class="cls-4" d="M1158.45,1003.5H695.32a9.4,9.4,0,0,1,0-18.8h463.13a9.4,9.4,0,0,1,0,18.8Z"/><path class="cls-4" d="M1093.67,577H760.09a15,15,0,0,1-15-15V254.56a15,15,0,0,1,15-15h333.58a15,15,0,0,1,15,15V562A15,15,0,0,1,1093.67,577ZM760.09,249.6a5,5,0,0,0-5,5V562a5,5,0,0,0,5,5h333.58a5,5,0,0,0,5-5V254.56a5,5,0,0,0-5-5Z"/><polygon class="cls-17" points="768.05 779.32 777.71 798.89 799.3 802.02 783.68 817.26 787.37 838.76 768.05 828.61 748.74 838.76 752.42 817.26 736.8 802.02 758.39 798.89 768.05 779.32"/><polygon class="cls-17" points="847.15 779.32 856.81 798.89 878.4 802.02 862.78 817.26 866.47 838.76 847.15 828.61 827.84 838.76 831.53 817.26 815.9 802.02 837.5 798.89 847.15 779.32"/><polygon class="cls-17" points="926.25 779.32 935.91 798.89 957.51 802.02 941.88 817.26 945.57 838.76 926.25 828.61 906.94 838.76 910.63 817.26 895 802.02 916.6 798.89 926.25 779.32"/><polygon class="cls-17" points="1005.36 779.32 1015.01 798.89 1036.61 802.02 1020.98 817.26 1024.67 838.76 1005.36 828.61 986.04 838.76 989.73 817.26 974.1 802.02 995.7 798.89 1005.36 779.32"/><polygon class="cls-17" points="1085.71 779.32 1095.37 798.89 1116.97 802.02 1101.34 817.26 1105.03 838.76 1085.71 828.61 1066.4 838.76 1070.09 817.26 1054.46 802.02 1076.06 798.89 1085.71 779.32"/><rect class="cls-18" x="1400.54" y="1093.66" width="778.55" height="29.01" rx="8.29"/><path class="cls-8" d="M2367,704.84c10.32,36.4-14.89,73.91-42.67,81.79s-47.6-16.85-57.92-53.25,3.82-72.29,31.6-80.17S2356.66,668.45,2367,704.84Z"/><path class="cls-8" d="M2211.25,1410.15s71.19,110.56,80.81,115.37,33.65,6,24.63,24-12.62,88.94-21,92.54-80.52,12-69.71,0,17.47-6,22.93-27.64,13.13-62.5,2.91-70.91-72.71-84.13-72.71-84.13Z"/><path class="cls-8" d="M1853,1457.63s-86.53,142.62-102.56,155.45-68.91,32.05-25.64,35.25,64.1-14.42,91.34-22.43,60.9-12.82,48.08-33.66-7.5-66.31,20.14-95.16S1853,1457.63,1853,1457.63Z"/><path class="cls-19" d="M2294.56,1126.9s-214.22-5.6-299.15,64.1c-49.68,75.32-169.86,297.55-179.21,322,6.41,6.41,42.47,18,58.5,16.37,47.27-56.36,109.76-105.1,134.61-149.31,30.62-54.49,40.06-81.73,89.74-86.54s161.86-20.83,195.51-20.83S2294.56,1126.9,2294.56,1126.9Z"/><polygon class="cls-18" points="2481.37 1648.72 2470.14 1648.72 2389.62 1312.76 2414.32 1312.76 2481.37 1648.72"/><polygon class="cls-18" points="2144.99 1648.72 2156.22 1648.72 2248.62 1300.88 2223.92 1300.88 2144.99 1648.72"/><path class="cls-20" d="M2416.6,1112.23l-124.54,21.49s-165.51,1.52-241.16,15.62c-68.83,12.82-79,91,0,198.71,44.86,61.17,82.79,110,160.35,165,19.73-14.49,27.28-20,32.73-54.82-5.61-7.7-20.14-55.87-24.65-65.3-42.91-89.68-100.17-122.3-101-131.12,9.62-15.62,254.69,81.44,303.41,24.34C2468.3,1231.63,2416.6,1112.23,2416.6,1112.23Z"/><path class="cls-10" d="M2421.77,830.27c-32.8-4.61-66.2,1.63-97.45,24.25-27.3,27.83-58.19,73.72-56.3,149.43,2.4,96.14-14.88,102.32,3.15,128.76,75.19,31,203.78,164.45,173.5,21.43-21.93-103.55,48.09-180.74-8.39-295.62C2431.68,849.18,2425.93,840.11,2421.77,830.27Z"/><path class="cls-17" d="M2268,1040.13c-1.46,50.12-8.54,64.89-3.13,80.6,30.65,3.13,86.72,15.4,100.73,35,16,22.43,32.06,25.64,24.58,9.08s-27.25-40.07,3.2-120.73,44.87-135.14,15-191.23Z"/><path class="cls-8" d="M2421.77,830.27c-20.19-47.82-25.15-101.54-25.15-101.54l-52.89,15.62s30.05,67.3,1.21,91.34a272.45,272.45,0,0,0-20.62,18.83C2355.57,831.9,2389,825.66,2421.77,830.27Z"/><path class="cls-9" d="M2398.21,741.46c-3.13-2.79-7.05-6.27-11.17-9.9l-43.13,12.74-.09.23c1,2.39,12,28,13.47,52.68,12.85-7.8,26.93-20.51,43-42.72C2399.44,749.56,2398.75,745.16,2398.21,741.46Z"/><path class="cls-8" d="M2384.6,845.3c-54.47,19.05-48.43,76.43-98.55,161.05-26,43.79-50,43.14-50,43.14a1160,1160,0,0,1-134.43-8.51c-46.08-5.63-49,8.08-16.95,19.54,64.63,23.11,131.71,48,185.79,42s146.59-144,151.35-179.92C2428.37,872.9,2412,835.71,2384.6,845.3Z"/><path class="cls-18" d="M2356.55,1326.76c-3.39,0-6.85,0-10.41-.13-44.39-1.1-74.61-7.24-98.89-12.17-28.34-5.76-44-8.94-62.13-.25a14,14,0,0,1-12.07-25.27c26.63-12.72,48.93-8.19,79.78-1.92,23.2,4.72,52.08,10.58,94,11.62,46.92,1.17,75.52-5.79,90-21.87,12.92-14.33,16.7-38.4,11.9-75.76-1.64-12.78-3.29-23.41-4.74-32.8-4.09-26.46-6.8-44-3.45-71,3.11-25.1,11.42-58.54,30.68-123.37a14,14,0,0,1,26.84,8c-35.88,120.82-34.06,132.58-26.4,182.11,1.48,9.54,3.15,20.36,4.84,33.5,5.92,46.07-.07,77.23-18.87,98.08C2438.29,1317,2406.87,1326.76,2356.55,1326.76Z"/><path class="cls-12" d="M1858.83,1577.84c-57.41,28.08-88.32,44.17-106.73,42.64-4.34-.36-7.94-.81-11-1.28-20.48,12.1-53.17,26.41-16.39,29.13,43.27,3.21,64.1-14.42,91.34-22.43s60.9-12.82,48.08-33.66A43.84,43.84,0,0,1,1858.83,1577.84Z"/><path class="cls-12" d="M2298.32,1527.87c-1.41,45.46-7.66,90.51-35.46,99a46.84,46.84,0,0,1-20,1.79c-4.38,5.4-9.71,5.46-16.88,13.42-10.81,12,61.3,3.61,69.71,0s12-74.51,21-92.54C2324.1,1534.75,2309.2,1531.29,2298.32,1527.87Z"/><path class="cls-20" d="M2077.14,1097.63H1894.73a14,14,0,0,1-12.7-8.1l-73.71-158.65a14,14,0,0,1,25.39-11.8l70,150.55h173.48a14,14,0,0,1,0,28Z"/><path class="cls-8" d="M2115.31,1042.57c-36.86-.54-73.42-22.51-91.58-19.3s-77.45,44.34-70,45.94,54.49-22.76,56.09-23.13,11.76,16.87,36.86,23.21.18-18.82,78,4.68C2175.31,1089.26,2115.31,1042.57,2115.31,1042.57Z"/><path class="cls-21" d="M2416.35,786.63l5.42,43.64s-47.69,2.83-71.43,16.19-58.76,51.94-58.76,51.94l28.62-49.27,4.12-31.52Z"/><path class="cls-21" d="M2396.05,840.05c-35.42-6.64-51.81,25.1-74.78,76.92s-62.18,114.75-70,122.86-131.41,0-131.41,0-3.74,35.79,0,40.06,25.11,3.74,25.11,3.74,8.55,6.83,16.56,12.23,75.85,15.55,107.37,14,60.36-4.28,64.63-9.08,90.28-137.29,95.62-184.83S2414.13,843.44,2396.05,840.05Z"/><path class="cls-22" d="M2291.58,622.1c-67,3.21-56.49,104-56.49,104s17.4,5.38,53.86-.63c-2.8-10.82-1.6-38.46-1.6-38.46s4.23,22.43,9.61,36c7.71,3.54,16.43.4,31.25-3.18,7.62,32,29.12,45.56,43.85,50.19,16.28,5.12,33.5,11.22,52.73,1.6s8.66-107.9-1.56-127.67c-15.32-29.66-40.8-56.22-84.87-42.2C2316.26,608.84,2291.58,622.1,2291.58,622.1Z"/><path class="cls-22" d="M2408.1,741.81l27.39,40s-30.36,75.86,57.94,110.22c69.15,26.92,61,74.34,29.76,122s18.69,89.34,18.69,89.34,7.62-52.83,74.81-62.8c91.61-13.6,117.55-136.6,49.12-198.1-56.62-50.89-73.85-8.74-112.18-54.41S2443,773.28,2443,773.28l-26.52-38.68Z"/><path class="cls-22" d="M2697.33,966.41a2.35,2.35,0,0,1-1.17-.3,2.42,2.42,0,0,1-1-3.3c23-42.1,4.24-93.1-5.21-106.92-1-1.46-2-2.95-3-4.52-9.29-14.5-20.85-32.54-82.54-43.65-14.85-2.67-26.88-11.5-39.61-20.85-26.31-19.31-56.12-41.2-120.9-11.38a2.44,2.44,0,0,1-2-4.43c67.38-31,98.43-8.22,125.82,11.88,12.27,9,23.85,17.51,37.6,20,63.77,11.48,76,30.52,85.77,45.81,1,1.54,1.92,3,2.88,4.4,9.9,14.47,29.59,67.91,5.47,112A2.44,2.44,0,0,1,2697.33,966.41Z"/><path class="cls-22" d="M2393.47,782.81a95.73,95.73,0,0,1-14.23-1.15c-23.44-3.51-54.89-16.83-57.35-91.64a2.44,2.44,0,0,1,4.87-.16c1,30.84,7.13,53.65,18.18,67.81,8.39,10.76,19.52,16.85,35,19.18,21.7,3.24,36.08-.76,42.74-11.91a2.44,2.44,0,0,1,4.18,2.5C2420.77,777.66,2409.56,782.81,2393.47,782.81Z"/><polygon class="cls-18" points="1482.21 1648.72 1500.21 1648.72 1570.24 1113.41 1530.64 1113.41 1482.21 1648.72"/><polygon class="cls-18" points="2093.06 1648.72 2075.06 1648.72 2005.03 1113.41 2044.64 1113.41 2093.06 1648.72"/><rect class="cls-3" x="317.68" y="1496.41" width="55.73" height="50.16" rx="12.08" transform="translate(691.1 3042.98) rotate(180)"/><rect class="cls-3" x="216.35" y="1496.41" width="55.73" height="50.16" rx="12.08" transform="translate(488.44 3042.98) rotate(180)"/><rect class="cls-3" x="115.02" y="1496.41" width="55.73" height="50.16" rx="12.08" transform="translate(285.78 3042.98) rotate(180)"/><path class="cls-3" d="M2953.93,555h31.58a12.08,12.08,0,0,1,12.08,12.08v26a12.08,12.08,0,0,1-12.08,12.08h-31.58a12.08,12.08,0,0,1-12.08-12.08v-26A12.07,12.07,0,0,1,2953.93,555Z" transform="translate(3549.79 -2389.66) rotate(90)"/><path class="cls-3" d="M2953.93,656.32h31.58a12.08,12.08,0,0,1,12.08,12.08v26a12.08,12.08,0,0,1-12.08,12.08h-31.58a12.08,12.08,0,0,1-12.08-12.08v-26A12.07,12.07,0,0,1,2953.93,656.32Z" transform="translate(3651.12 -2288.33) rotate(90)"/><path class="cls-3" d="M2953.93,757.65h31.58a12.07,12.07,0,0,1,12.07,12.07v26a12.08,12.08,0,0,1-12.08,12.08h-31.58a12.07,12.07,0,0,1-12.07-12.07v-26A12.07,12.07,0,0,1,2953.93,757.65Z" transform="translate(3752.45 -2187) rotate(90)"/></svg>