<svg xmlns="http://www.w3.org/2000/svg" xmlns:xlink="http://www.w3.org/1999/xlink" viewBox="0 0 489.92 521.62" width="600"><defs><style>.cls-1{isolation:isolate;}.cls-2,.cls-3{opacity:0.14;}.cls-2,.cls-3,.cls-43,.cls-82,.cls-83,.cls-84,.cls-85,.cls-86,.cls-87,.cls-88,.cls-89,.cls-90,.cls-91,.cls-92,.cls-93,.cls-94,.cls-95,.cls-96,.cls-97,.cls-98,.cls-99{mix-blend-mode:screen;}.cls-2{fill:url(#linear-gradient);}.cls-3{fill:url(#_2);}.cls-4,.cls-5,.cls-68{fill:#1ed6fe;}.cls-4,.cls-51,.cls-82,.cls-83,.cls-84,.cls-85,.cls-86,.cls-87,.cls-88,.cls-89,.cls-90,.cls-91,.cls-92,.cls-93,.cls-94,.cls-95,.cls-96,.cls-97,.cls-98,.cls-99{opacity:0.3;}.cls-4,.cls-5{mix-blend-mode:color-dodge;}.cls-6{fill:#00258a;opacity:0.4;}.cls-7{fill:url(#linear-gradient-2);}.cls-8{fill:url(#linear-gradient-3);}.cls-9{fill:#3a2e52;}.cls-45,.cls-46,.cls-49,.cls-51,.cls-52,.cls-53,.cls-9{fill-rule:evenodd;}.cls-10{fill:#003c5f;}.cls-11{fill:url(#linear-gradient-4);}.cls-12{fill:url(#linear-gradient-5);}.cls-13{fill:url(#linear-gradient-6);}.cls-14{fill:url(#linear-gradient-7);}.cls-15{fill:#0a208f;}.cls-16{fill:url(#linear-gradient-8);}.cls-17{fill:url(#linear-gradient-9);}.cls-18{fill:url(#linear-gradient-10);}.cls-19{fill:url(#linear-gradient-11);}.cls-20{fill:#0f5578;}.cls-21{fill:url(#linear-gradient-12);}.cls-22{fill:url(#linear-gradient-13);}.cls-23{fill:url(#linear-gradient-14);}.cls-24{fill:url(#linear-gradient-15);}.cls-25{fill:url(#linear-gradient-16);}.cls-26{fill:url(#linear-gradient-17);}.cls-27{fill:#e1e8ec;}.cls-28{fill:#6392ad;}.cls-29{fill:#95c4df;}.cls-30{fill:#d4dbdf;}.cls-31{fill:url(#linear-gradient-18);}.cls-32{fill:url(#linear-gradient-19);}.cls-33{fill:url(#linear-gradient-20);}.cls-34{fill:#e8ebe8;}.cls-35{fill:url(#linear-gradient-21);}.cls-36,.cls-39{opacity:0.2;}.cls-36,.cls-39,.cls-44,.cls-51{mix-blend-mode:multiply;}.cls-37{fill:url(#linear-gradient-22);}.cls-38{fill:url(#linear-gradient-23);}.cls-39{fill:url(#linear-gradient-24);}.cls-40{fill:url(#linear-gradient-25);}.cls-41,.cls-48,.cls-71{fill:#fff;}.cls-41{opacity:0.61;}.cls-42{fill:url(#linear-gradient-26);}.cls-43{opacity:0.22;fill:url(#_2-2);}.cls-44{opacity:0.15;}.cls-45{fill:#ffcda8;}.cls-46{fill:#d9a782;}.cls-47{fill:#414e52;}.cls-48{opacity:0.5;}.cls-49,.cls-50,.cls-51{fill:#563317;}.cls-52{fill:#9d95fe;}.cls-53{fill:#847ce5;}.cls-54{fill:url(#linear-gradient-27);}.cls-55{fill:url(#linear-gradient-28);}.cls-56{fill:url(#linear-gradient-29);}.cls-57{fill:url(#linear-gradient-30);}.cls-58{fill:url(#linear-gradient-31);}.cls-59{fill:url(#linear-gradient-32);}.cls-60{fill:url(#linear-gradient-33);}.cls-61{fill:#444343;}.cls-62{fill:url(#linear-gradient-34);}.cls-63{fill:#a9d0e5;}.cls-64{fill:#f07;}.cls-65{fill:#73bde5;}.cls-66{fill:#07b3fa;}.cls-67{fill:#097abe;}.cls-69{fill:url(#linear-gradient-35);}.cls-70{fill:url(#linear-gradient-36);}.cls-72{fill:url(#linear-gradient-37);}.cls-73{fill:url(#linear-gradient-38);}.cls-74{fill:url(#linear-gradient-39);}.cls-75{fill:url(#linear-gradient-40);}.cls-76{fill:url(#linear-gradient-41);}.cls-77{fill:url(#linear-gradient-42);}.cls-78{fill:url(#linear-gradient-43);}.cls-79{fill:url(#linear-gradient-44);}.cls-80{fill:url(#linear-gradient-45);}.cls-81{fill:url(#linear-gradient-46);}.cls-82{fill:url(#linear-gradient-47);}.cls-83{fill:url(#linear-gradient-48);}.cls-84{fill:url(#linear-gradient-49);}.cls-85{fill:url(#linear-gradient-50);}.cls-86{fill:url(#linear-gradient-51);}.cls-87{fill:url(#linear-gradient-52);}.cls-88{fill:url(#linear-gradient-53);}.cls-89{fill:url(#linear-gradient-54);}.cls-90{fill:url(#linear-gradient-55);}.cls-91{fill:url(#linear-gradient-56);}.cls-92{fill:url(#linear-gradient-57);}.cls-93{fill:url(#linear-gradient-58);}.cls-94{fill:url(#linear-gradient-59);}.cls-95{fill:url(#linear-gradient-60);}.cls-96{fill:url(#linear-gradient-61);}.cls-97{fill:url(#linear-gradient-62);}.cls-98{fill:url(#linear-gradient-63);}.cls-99{fill:url(#linear-gradient-64);}.cls-100{fill:url(#linear-gradient-65);}.cls-101{fill:url(#linear-gradient-66);}.cls-102{fill:url(#linear-gradient-67);}.cls-103{fill:url(#linear-gradient-68);}.cls-104{fill:url(#linear-gradient-69);}.cls-105{fill:url(#linear-gradient-70);}.cls-106{fill:url(#linear-gradient-71);}.cls-107{fill:url(#linear-gradient-72);}</style><linearGradient id="linear-gradient" x1="244.96" y1="516.04" x2="244.96" y2="193.23" gradientUnits="userSpaceOnUse"><stop offset="0" stop-color="#1ed6fe"/><stop offset="1"/></linearGradient><linearGradient id="_2" x1="244.96" y1="512.81" x2="244.96" y2="208.1" gradientUnits="userSpaceOnUse"><stop offset="0" stop-color="#fff"/><stop offset="1"/></linearGradient><linearGradient id="linear-gradient-2" x1="328.46" y1="360.34" x2="336.68" y2="346.88" gradientUnits="userSpaceOnUse"><stop offset="0" stop-color="#328de0"/><stop offset="1" stop-color="#172d9c"/></linearGradient><linearGradient id="linear-gradient-3" x1="289.41" y1="501.66" x2="370.54" y2="260.63" xlink:href="#linear-gradient-2"/><linearGradient id="linear-gradient-4" x1="136.8" y1="438.54" x2="131.63" y2="447.5" xlink:href="#linear-gradient-2"/><linearGradient id="linear-gradient-5" x1="203.38" y1="434.35" x2="198.21" y2="443.31" xlink:href="#linear-gradient-2"/><linearGradient id="linear-gradient-6" x1="214.38" y1="394.37" x2="209.21" y2="403.33" xlink:href="#linear-gradient-2"/><linearGradient id="linear-gradient-7" x1="106.92" y1="404.59" x2="101.74" y2="413.56" xlink:href="#linear-gradient-2"/><linearGradient id="linear-gradient-8" x1="163.52" y1="414.32" x2="204.41" y2="414.32" xlink:href="#linear-gradient-2"/><linearGradient id="linear-gradient-9" x1="130.98" y1="416.93" x2="159" y2="416.93" xlink:href="#linear-gradient-2"/><linearGradient id="linear-gradient-10" x1="168.91" y1="391.45" x2="216.23" y2="391.45" xlink:href="#linear-gradient-2"/><linearGradient id="linear-gradient-11" x1="99.35" y1="397.2" x2="152.72" y2="397.2" xlink:href="#linear-gradient-2"/><linearGradient id="linear-gradient-12" x1="103.07" y1="350.96" x2="222.71" y2="350.96" xlink:href="#linear-gradient-2"/><linearGradient id="linear-gradient-13" x1="202.19" y1="343.96" x2="113.46" y2="381.32" xlink:href="#linear-gradient-2"/><linearGradient id="linear-gradient-14" x1="149.61" y1="323.61" x2="180.57" y2="371.85" xlink:href="#linear-gradient-2"/><linearGradient id="linear-gradient-15" x1="227.07" y1="221.26" x2="429.1" y2="595.73" xlink:href="#linear-gradient-2"/><linearGradient id="linear-gradient-16" x1="234.08" y1="423.51" x2="401.63" y2="242.94" gradientUnits="userSpaceOnUse"><stop offset="0" stop-color="#2580d3"/><stop offset="1" stop-color="#0a208f"/></linearGradient><linearGradient id="linear-gradient-17" x1="178.51" y1="402.17" x2="199.01" y2="248.28" xlink:href="#linear-gradient-16"/><linearGradient id="linear-gradient-18" x1="217.92" y1="203.5" x2="186.54" y2="254.08" xlink:href="#linear-gradient-16"/><linearGradient id="linear-gradient-19" x1="224.81" y1="207.78" x2="194.05" y2="257.36" xlink:href="#linear-gradient-2"/><linearGradient id="linear-gradient-20" x1="225.2" y1="207.22" x2="198.24" y2="253.55" gradientUnits="userSpaceOnUse"><stop offset="0" stop-color="#1873c6"/><stop offset="1" stop-color="#001382"/></linearGradient><linearGradient id="linear-gradient-21" x1="340.09" y1="284.2" x2="340.09" y2="270.71" gradientUnits="userSpaceOnUse"><stop offset="0" stop-color="#66c1ff"/><stop offset="1" stop-color="#d4dbdf"/></linearGradient><linearGradient id="linear-gradient-22" x1="337.84" y1="282.98" x2="337.84" y2="282.98" gradientUnits="userSpaceOnUse"><stop offset="0" stop-color="#dadada"/><stop offset="0.03" stop-color="#232323"/><stop offset="0.12" stop-color="#616161"/><stop offset="0.22" stop-color="#999"/><stop offset="0.31" stop-color="#c5c5c5"/><stop offset="0.39" stop-color="#e5e5e5"/><stop offset="0.45" stop-color="#f8f8f8"/><stop offset="0.5" stop-color="#fff"/><stop offset="0.9" stop-color="#c1c1c1"/><stop offset="1" stop-color="#8c8c8c"/></linearGradient><linearGradient id="linear-gradient-23" x1="337.84" y1="279.46" x2="343.41" y2="279.46" xlink:href="#linear-gradient-22"/><linearGradient id="linear-gradient-24" x1="342.05" y1="274.88" x2="338.93" y2="284.43" xlink:href="#linear-gradient-22"/><linearGradient id="linear-gradient-25" x1="338.88" y1="281.08" x2="319.36" y2="281.08" xlink:href="#linear-gradient-21"/><linearGradient id="linear-gradient-26" x1="338.67" y1="271.96" x2="320.49" y2="271.96" xlink:href="#linear-gradient-21"/><linearGradient id="_2-2" x1="338.68" y1="271.93" x2="316.05" y2="271.93" xlink:href="#_2"/><linearGradient id="linear-gradient-27" x1="96.61" y1="302.88" x2="142.63" y2="336.45" xlink:href="#linear-gradient-2"/><linearGradient id="linear-gradient-28" x1="119.37" y1="292.74" x2="130.99" y2="306.67" xlink:href="#linear-gradient-2"/><linearGradient id="linear-gradient-29" x1="86.66" y1="325.54" x2="155.69" y2="325.54" xlink:href="#linear-gradient-2"/><linearGradient id="linear-gradient-30" x1="124.29" y1="357.45" x2="124.29" y2="385.53" xlink:href="#linear-gradient-16"/><linearGradient id="linear-gradient-31" x1="120.52" y1="373.06" x2="116.83" y2="379.46" xlink:href="#linear-gradient-2"/><linearGradient id="linear-gradient-32" x1="187" y1="330.84" x2="183.97" y2="374.57" xlink:href="#linear-gradient-2"/><linearGradient id="linear-gradient-33" x1="249.61" y1="296.91" x2="314.65" y2="296.91" xlink:href="#linear-gradient-2"/><linearGradient id="linear-gradient-34" x1="273.74" y1="88.72" x2="273.74" y2="235.76" gradientUnits="userSpaceOnUse"><stop offset="0" stop-color="#258feb"/><stop offset="1" stop-color="#030b30"/></linearGradient><linearGradient id="linear-gradient-35" x1="923.46" y1="171.48" x2="930.02" y2="259.44" gradientTransform="matrix(-1, 0, 0, 1, 1291.88, 0)" gradientUnits="userSpaceOnUse"><stop offset="0" stop-color="#c100ff"/><stop offset="1" stop-color="#6e00ff"/></linearGradient><linearGradient id="linear-gradient-36" x1="920.14" y1="199.89" x2="911.68" y2="216.83" gradientTransform="matrix(-1, 0, 0, 1, 1291.88, 0)" gradientUnits="userSpaceOnUse"><stop offset="0" stop-color="#f532ff"/><stop offset="1" stop-color="#a232ff"/></linearGradient><linearGradient id="linear-gradient-37" x1="982.23" y1="20.9" x2="988.78" y2="108.86" gradientTransform="matrix(-1, 0, 0, 1, 1291.88, 0)" gradientUnits="userSpaceOnUse"><stop offset="0" stop-color="#ffe71f"/><stop offset="1" stop-color="#ff8602"/></linearGradient><linearGradient id="linear-gradient-38" x1="978.91" y1="49.31" x2="970.44" y2="66.25" gradientTransform="matrix(-1, 0, 0, 1, 1291.88, 0)" gradientUnits="userSpaceOnUse"><stop offset="0" stop-color="#fff78c"/><stop offset="1" stop-color="#e76008"/></linearGradient><linearGradient id="linear-gradient-39" x1="1043.36" y1="43.11" x2="1049.92" y2="131.07" xlink:href="#linear-gradient-35"/><linearGradient id="linear-gradient-40" x1="1040.04" y1="71.52" x2="1031.58" y2="88.46" xlink:href="#linear-gradient-36"/><linearGradient id="linear-gradient-41" x1="1128.22" y1="49.63" x2="1134.78" y2="137.59" gradientTransform="matrix(-1, 0, 0, 1, 1291.88, 0)" gradientUnits="userSpaceOnUse"><stop offset="0" stop-color="#00c855"/><stop offset="1" stop-color="#009ec8"/></linearGradient><linearGradient id="linear-gradient-42" x1="1124.91" y1="78.04" x2="1116.44" y2="94.98" gradientTransform="matrix(-1, 0, 0, 1, 1291.88, 0)" gradientUnits="userSpaceOnUse"><stop offset="0" stop-color="#38f687"/><stop offset="1" stop-color="#76eaff"/></linearGradient><linearGradient id="linear-gradient-43" x1="865.83" y1="225.5" x2="872.38" y2="313.46" gradientTransform="matrix(-1, 0, 0, 1, 1291.88, 0)" gradientUnits="userSpaceOnUse"><stop offset="0" stop-color="#2962ff"/><stop offset="1" stop-color="#29ffee"/></linearGradient><linearGradient id="linear-gradient-44" x1="862.51" y1="253.91" x2="854.04" y2="270.85" gradientTransform="matrix(-1, 0, 0, 1, 1291.88, 0)" gradientUnits="userSpaceOnUse"><stop offset="0" stop-color="#6d99fe"/><stop offset="1" stop-color="#98fffe"/></linearGradient><linearGradient id="linear-gradient-45" x1="1204.45" y1="110.62" x2="1211.01" y2="198.58" xlink:href="#linear-gradient-37"/><linearGradient id="linear-gradient-46" x1="1201.14" y1="139.03" x2="1192.67" y2="155.97" xlink:href="#linear-gradient-38"/><linearGradient id="linear-gradient-47" x1="1226" y1="182.26" x2="1229.89" y2="234.41" gradientTransform="matrix(-1, 0, 0, 1, 1291.88, 0)" gradientUnits="userSpaceOnUse"><stop offset="0" stop-color="#a9d0e5"/><stop offset="1"/></linearGradient><linearGradient id="linear-gradient-48" x1="1135.21" y1="139.55" x2="1137.25" y2="166.95" xlink:href="#linear-gradient-47"/><linearGradient id="linear-gradient-49" x1="1238.26" y1="78.25" x2="1240.3" y2="105.65" xlink:href="#linear-gradient-47"/><linearGradient id="linear-gradient-50" x1="1130.72" y1="13.61" x2="1132.76" y2="41" xlink:href="#linear-gradient-47"/><linearGradient id="linear-gradient-51" x1="1077.45" y1="-3.71" x2="1079.5" y2="23.69" xlink:href="#linear-gradient-47"/><linearGradient id="linear-gradient-52" x1="901.7" y1="78.25" x2="903.74" y2="105.65" xlink:href="#linear-gradient-47"/><linearGradient id="linear-gradient-53" x1="855.7" y1="77.23" x2="857.74" y2="104.63" xlink:href="#linear-gradient-47"/><linearGradient id="linear-gradient-54" x1="890.08" y1="35.92" x2="892.12" y2="63.31" xlink:href="#linear-gradient-47"/><linearGradient id="linear-gradient-55" x1="956.79" y1="138.18" x2="958.83" y2="165.58" xlink:href="#linear-gradient-47"/><linearGradient id="linear-gradient-56" x1="817.7" y1="171.42" x2="819.84" y2="200.16" xlink:href="#linear-gradient-47"/><linearGradient id="linear-gradient-57" x1="1248.75" y1="129.92" x2="1252.64" y2="182.07" xlink:href="#linear-gradient-47"/><linearGradient id="linear-gradient-58" x1="1093.33" y1="13.74" x2="1097.22" y2="65.89" xlink:href="#linear-gradient-47"/><linearGradient id="linear-gradient-59" x1="816.87" y1="241.46" x2="820.75" y2="293.61" xlink:href="#linear-gradient-47"/><linearGradient id="linear-gradient-60" x1="886.29" y1="348.77" x2="890.17" y2="400.92" xlink:href="#linear-gradient-47"/><linearGradient id="linear-gradient-61" x1="871.21" y1="106.72" x2="875.1" y2="158.87" xlink:href="#linear-gradient-47"/><linearGradient id="linear-gradient-62" x1="984.52" y1="90.78" x2="988.41" y2="142.93" xlink:href="#linear-gradient-47"/><linearGradient id="linear-gradient-63" x1="929.62" y1="19.66" x2="933.51" y2="71.81" xlink:href="#linear-gradient-47"/><linearGradient id="linear-gradient-64" x1="1020.63" y1="1.76" x2="1024.51" y2="53.91" xlink:href="#linear-gradient-47"/><linearGradient id="linear-gradient-65" x1="863.46" y1="149.38" x2="870.01" y2="237.34" gradientTransform="matrix(-1, 0, 0, 1, 1291.88, 0)" gradientUnits="userSpaceOnUse"><stop offset="0" stop-color="#fdb441"/><stop offset="1" stop-color="#ff20b3"/></linearGradient><linearGradient id="linear-gradient-66" x1="860.14" y1="177.79" x2="851.67" y2="194.72" gradientTransform="matrix(-1, 0, 0, 1, 1291.88, 0)" gradientUnits="userSpaceOnUse"><stop offset="0" stop-color="#ffce6d"/><stop offset="1" stop-color="#ca1b77"/></linearGradient><linearGradient id="linear-gradient-67" x1="921.48" y1="79.02" x2="928.03" y2="166.98" xlink:href="#linear-gradient-41"/><linearGradient id="linear-gradient-68" x1="918.16" y1="107.42" x2="909.69" y2="124.36" xlink:href="#linear-gradient-42"/><linearGradient id="linear-gradient-69" x1="871.23" y1="294.25" x2="877.78" y2="382.21" gradientTransform="matrix(-1, 0, 0, 1, 1291.88, 0)" gradientUnits="userSpaceOnUse"><stop offset="0" stop-color="#a9fb00"/><stop offset="1" stop-color="#12de13"/></linearGradient><linearGradient id="linear-gradient-70" x1="867.91" y1="322.66" x2="859.44" y2="339.59" gradientTransform="matrix(-1, 0, 0, 1, 1291.88, 0)" gradientUnits="userSpaceOnUse"><stop offset="0" stop-color="#d9ff89"/><stop offset="1" stop-color="#25ff26"/></linearGradient><linearGradient id="linear-gradient-71" x1="1192.29" y1="23.74" x2="1198.85" y2="111.7" xlink:href="#linear-gradient-43"/><linearGradient id="linear-gradient-72" x1="1188.97" y1="52.15" x2="1180.5" y2="69.09" xlink:href="#linear-gradient-44"/></defs><title>shutterstock_1085328731 [Converted]</title><g class="cls-1"><g id="_14_" data-name=" 14 ()"><path class="cls-2" d="M418.18,280.17c95.66,55.24,95.66,144.79,0,200s-250.77,55.23-346.43,0-95.67-144.78,0-200S322.51,224.94,418.18,280.17Z"/><path class="cls-3" d="M418.18,280.17c-95.67-55.23-250.77-55.23-346.44,0s-95.66,144.79,0,200,250.76,55.23,346.43,0S513.84,335.41,418.18,280.17Zm-1.82,199c-94.66,54.66-248.13,54.66-342.8,0s-94.66-143.27,0-197.92,248.14-54.65,342.8,0S511,424.49,416.36,479.14Z"/><path class="cls-4" d="M443.84,56.86a5.4,5.4,0,1,1-5.4-5.39A5.4,5.4,0,0,1,443.84,56.86Z"/><path class="cls-4" d="M441.9,56.86a3.46,3.46,0,1,1-3.46-3.45A3.46,3.46,0,0,1,441.9,56.86Z"/><path class="cls-5" d="M440.74,56.86a2.3,2.3,0,1,1-2.3-2.3A2.3,2.3,0,0,1,440.74,56.86Z"/><path class="cls-4" d="M46.67,35.64a5.4,5.4,0,1,1-5.41-5.39A5.4,5.4,0,0,1,46.67,35.64Z"/><path class="cls-4" d="M44.73,35.64a3.46,3.46,0,1,1-3.47-3.45A3.47,3.47,0,0,1,44.73,35.64Z"/><path class="cls-5" d="M43.57,35.64a2.3,2.3,0,1,1-2.31-2.3A2.3,2.3,0,0,1,43.57,35.64Z"/><path class="cls-4" d="M116.63,12a3.2,3.2,0,1,1-3.2-3.2A3.2,3.2,0,0,1,116.63,12Z"/><path class="cls-4" d="M115.48,12a2,2,0,1,1-2-2A2,2,0,0,1,115.48,12Z"/><path class="cls-5" d="M114.79,12a1.36,1.36,0,1,1-1.36-1.37A1.36,1.36,0,0,1,114.79,12Z"/><path class="cls-4" d="M106.67,118.06a3.2,3.2,0,1,1-3.2-3.19A3.2,3.2,0,0,1,106.67,118.06Z"/><path class="cls-4" d="M105.52,118.06a2.05,2.05,0,1,1-2-2A2,2,0,0,1,105.52,118.06Z"/><path class="cls-5" d="M104.83,118.06a1.37,1.37,0,1,1-1.36-1.36A1.36,1.36,0,0,1,104.83,118.06Z"/><path class="cls-4" d="M49.86,212.15a3.2,3.2,0,1,1-3.2-3.2A3.2,3.2,0,0,1,49.86,212.15Z"/><path class="cls-4" d="M48.72,212.15a2.05,2.05,0,1,1-2.06-2.05A2.06,2.06,0,0,1,48.72,212.15Z"/><path class="cls-5" d="M48,212.15a1.37,1.37,0,1,1-1.37-1.36A1.37,1.37,0,0,1,48,212.15Z"/><path class="cls-4" d="M382.8,168.57a3.2,3.2,0,1,1-3.2-3.2A3.2,3.2,0,0,1,382.8,168.57Z"/><path class="cls-4" d="M381.65,168.57a2,2,0,1,1-2-2A2.05,2.05,0,0,1,381.65,168.57Z"/><path class="cls-5" d="M381,168.57a1.36,1.36,0,1,1-1.36-1.37A1.36,1.36,0,0,1,381,168.57Z"/><path class="cls-4" d="M392.39,24a3.2,3.2,0,1,1-3.2-3.2A3.2,3.2,0,0,1,392.39,24Z"/><path class="cls-4" d="M391.25,24A2.05,2.05,0,1,1,389.19,22,2.05,2.05,0,0,1,391.25,24Z"/><path class="cls-5" d="M390.56,24a1.37,1.37,0,1,1-1.37-1.37A1.36,1.36,0,0,1,390.56,24Z"/><path class="cls-4" d="M333.63,25.36a3.2,3.2,0,1,1-3.2-3.2A3.2,3.2,0,0,1,333.63,25.36Z"/><path class="cls-4" d="M332.48,25.36a2.05,2.05,0,1,1-2.05-2A2.05,2.05,0,0,1,332.48,25.36Z"/><path class="cls-5" d="M331.8,25.36a1.37,1.37,0,1,1-2.73,0,1.37,1.37,0,0,1,2.73,0Z"/><path class="cls-6" d="M377.06,385,202.23,284.16l-96.18,56.22,44.84,25.88c-14,1.84-27.31,5.89-38.22,12.19-30.77,17.77-30.77,46.58,0,64.34s80.68,17.78,111.46,0c10.9-6.29,17.92-14,21.1-22.06l35.66,20.48Z"/><path class="cls-7" d="M373,286.13c0-5.34-3.78-7.52-8.41-4.85l-60.94,35.18v5.73l57.23-33c4.1-2.36,7.45-.43,7.45,4.31v72.33a16.55,16.55,0,0,1-7.46,12.91l-57.23,33v5.73l3.56,2.64,57.38-37.82c4.63-2.67,8.41-9.23,8.41-14.57Z"/><path class="cls-8" d="M376.54,288.77c0-5.34-3.79-7.52-8.41-4.85L307.19,319.1v5.73l57.23-33c4.1-2.36,7.45-.43,7.45,4.31v72.33a16.54,16.54,0,0,1-7.45,12.91l-57.23,33v5.73l60.94-35.18c4.63-2.67,8.41-9.23,8.41-14.57Z"/><path class="cls-9" d="M185.2,390.08l-.95,6.3s-.43,4.18,4.72,4.65,7.05-3,8.57-5.47,5.3-7.58,9.36-8.3,11.7-7.28,10-11.36c-1.46-3.54-10.17-4.8-18.73.87v2.28s0,5.63-4.72,8.06A30.31,30.31,0,0,1,185.2,390.08Z"/><path class="cls-10" d="M201.44,353.39c0-.33,0-.67,0-1-6.34,2.52-13.75,5.49-21.07,8.48L184.24,391s9.18,3.94,15.22-2.65a17.75,17.75,0,0,0,4.48-14.45S201.15,360.31,201.44,353.39Z"/><path class="cls-11" d="M138.59,439.4l-3.47-1.95a2.68,2.68,0,0,0-2.66.27,8.34,8.34,0,0,0-3.76,6.52,2.66,2.66,0,0,0,1.12,2.45l3.47,1.94a2.68,2.68,0,0,0,2.65-.27,8.32,8.32,0,0,0,3.77-6.52A2.63,2.63,0,0,0,138.59,439.4Z"/><path class="cls-12" d="M205.17,435.21l-3.47-1.94a2.65,2.65,0,0,0-2.66.27,8.3,8.3,0,0,0-3.76,6.51,2.66,2.66,0,0,0,1.11,2.45l3.48,1.94a2.63,2.63,0,0,0,2.65-.27,8.31,8.31,0,0,0,3.76-6.52A2.63,2.63,0,0,0,205.17,435.21Z"/><path class="cls-13" d="M216.17,395.23l-3.47-2a2.68,2.68,0,0,0-2.65.27,8.32,8.32,0,0,0-3.77,6.52,2.61,2.61,0,0,0,1.12,2.44l3.47,1.95a2.68,2.68,0,0,0,2.66-.27,8.34,8.34,0,0,0,3.76-6.52A2.64,2.64,0,0,0,216.17,395.23Z"/><path class="cls-14" d="M108.71,405.45l-3.48-1.95a2.68,2.68,0,0,0-2.65.27,8.33,8.33,0,0,0-3.76,6.53,2.63,2.63,0,0,0,1.11,2.44l3.48,1.94a2.64,2.64,0,0,0,2.65-.27,8.3,8.3,0,0,0,3.76-6.52A2.63,2.63,0,0,0,108.71,405.45Z"/><path class="cls-15" d="M217.5,388.91c-.14-2.67-1.16-4.1-2.05-4.65s-3.69,0-3.69,0l-42.85,12.53V387c0-1.2-.79-2.39-2.37-3.3a12.63,12.63,0,0,0-11.45,0c-1.58.91-2.37,2.1-2.37,3.3v11.28l-50.78-4.62s-2.22.31-2.73,1.78a26.74,26.74,0,0,0-1.44,6.84c-.07,2.32.89,3.68,3.56,4,2.24.28,36.23,3.91,46.9,5.06h0c-5.65,6.48-17.25,20.22-17.25,20.22a9.24,9.24,0,0,0-1.29,4.1c-.14,2.33-.34,5.74-.34,5.74s.61,1.78,3.28,1.64,4.16-1.64,7.2-4.68,19.72-21.18,19.72-21.18a.18.18,0,0,0,0-.05,12.87,12.87,0,0,0,6.22-.92,1.13,1.13,0,0,1,0,.12S195.11,434,199.8,436.5s6.48-.9,6.48-.9,0-3.48-.18-6a9.49,9.49,0,0,0-2-4.69s-22-13.51-27.44-16.46c-.41-.21-.79-.44-1.17-.67h0c8.73-2.49,30.88-8.8,34-9.72,4-1.16,7.93-2.81,7.93-2.81S217.64,391.57,217.5,388.91Z"/><path class="cls-16" d="M198.07,425c2.47,1.56,4.33,1.91,5.42,1.73a1.1,1.1,0,0,0,.79-1.63l-.16-.21s-22-13.51-27.44-16.46a22.41,22.41,0,0,1-7.77-6.6c-1.58,2.28-5.39,3.24-5.39,3.24,1.62,0,5.61,2.45,5.61,2.45S195.61,423.47,198.07,425Z"/><path class="cls-17" d="M159,405.38a12.54,12.54,0,0,0-2.8,2.41s-17.61,21-19,22.77a6.44,6.44,0,0,1-5,2.44,1.37,1.37,0,0,1-1.22-1.45s16.54-19.61,19.75-23a17,17,0,0,0,2-2.51v-5.17a9.87,9.87,0,0,0,2.86,2.95A21.37,21.37,0,0,0,159,405.38Z"/><path class="cls-18" d="M215.45,384.26c-.89-.55-3.69,0-3.69,0l-42.85,12.53v2.08l44.2-12s2.43-.7,3.12-1.85A3,3,0,0,0,215.45,384.26Z"/><path class="cls-19" d="M99.35,395.14c.81,1.12,3,1.38,3,1.38l50.39,4.26v-2.54l-50.78-4.62A3.89,3.89,0,0,0,99.35,395.14Z"/><path class="cls-9" d="M246.76,396.54c-5.86.08-10.94,3-17.23-1,0,0-4.6,5.08-15.66,5.66L212,405.4a19.8,19.8,0,0,0-1.54,8.25s2.15,5.07,9.05,4,8.71-3.28,17-2.49c7.27.69,17.89-2.91,20.8-9.49S253.21,396.46,246.76,396.54Z"/><path class="cls-20" d="M218.73,345.56A21.09,21.09,0,0,0,214.49,360c.61,8.83-2.86,41.76-4.9,50.37,0,0,17.12.89,24.45-3.52s4.49-8.63,4.49-8.63-1.65-11.72-.84-19.89,7-36.24,8.34-48.47c0,0,1.2-8.65-5.12-7.75S224.24,334,218.73,345.56Z"/><path class="cls-10" d="M222.24,356.69c-.32-9,2.41-13.59,2.41-13.59a20.1,20.1,0,0,1-5.92,2.46A21.09,21.09,0,0,0,214.49,360c.61,8.83-2.86,41.76-4.9,50.37a89.29,89.29,0,0,0,13.19-.44C224.25,392.67,222.5,364.08,222.24,356.69Z"/><path class="cls-21" d="M103.2,359.3s-1.39,6.77,4.84,12.7,21.09,15.62,31.1,17.54,30.48-2.84,40.79-7.54,33.72-19.32,37.72-22.7,5.69-7,4.84-10.28-7.39-5.42-9.54-6.12-22.55-10.46-28.78-15.24-12.24-9.08-14.24-11.31-7.31-6-17.24-3.69-24.71,9.39-35.87,22.62S103.2,359.3,103.2,359.3Z"/><path class="cls-22" d="M222.49,349a5.3,5.3,0,0,0-2.14-2.72,3.65,3.65,0,0,1-.16,3.45c-1.85,2.54-14.86,11.85-24.87,17s-28.09,17-46.33,17.86a100.82,100.82,0,0,1-27.82-10.4c-10.75-5.84-15.36-13.62-17.14-17.62a26.24,26.24,0,0,0-.83,2.7s-1.39,6.77,4.84,12.7,21.09,15.62,31.1,17.54,30.48-2.84,40.79-7.54,33.72-19.32,37.72-22.7S223.34,352.28,222.49,349Z"/><path class="cls-23" d="M146,377.12s6.92,2,17.62-1,29.86-13.85,36.95-17.88,15.08-10.08,15.78-11.47-.63-2.15-2.89-3.08-23-9.69-28.82-14.39S169.46,317.74,168,316.12s-6.77-4.7-14.47-2.46c0,0-27.63,9.39-36,26.63S133.75,375.17,146,377.12Z"/><path class="cls-20" d="M218.73,345.56s-21.86,8.52-41.64,16.64c-18.93,7.78-30.14,4.47-37.65-3.77-10.1-11-5.55-35.25-5.55-35.25l44-3.61s38.63-7.18,53.69-7.62,15.09,12.17,14.47,17.89C246,329.84,240.69,339.32,218.73,345.56Z"/><path class="cls-10" d="M139.44,358.43c-10.1-11-5.55-35.25-5.55-35.25l44-3.61s12.29-2.28,25.7-4.35c.51-7.5-.52-21.7-13.71-21.22-16.05.59-52,18.48-52,18.48l-13.68,3.68s-6.26,15.9-1,29.4c4.33,11.17,9.95,13.1,17.43,14.09C140.22,359.26,139.82,358.86,139.44,358.43Z"/><polygon class="cls-24" points="390.76 279.13 283.18 341.4 103.26 237.32 210.84 178.26 390.76 279.13"/><polygon class="cls-25" points="390.76 283.85 283.18 346.12 283.18 341.4 390.76 279.13 390.76 283.85"/><polygon class="cls-26" points="283.18 341.4 283.18 346.12 103.26 242.03 103.26 237.32 283.18 341.4"/><path class="cls-27" d="M249.69,291.59a2.14,2.14,0,0,1-1.91,0L170.51,247a.58.58,0,0,1,0-1.1L195,231.74a2.14,2.14,0,0,1,1.91,0l77.27,44.61a.59.59,0,0,1,0,1.11Z"/><path class="cls-28" d="M274.17,277.46l-24.48,14.13a2.14,2.14,0,0,1-1.91,0L170.51,247a.66.66,0,0,1-.4-.55h0v1.28a.66.66,0,0,0,.4.6l77.27,44.61a2.14,2.14,0,0,0,1.91,0l24.48-14.14a.67.67,0,0,0,.39-.55V277A.72.72,0,0,1,274.17,277.46Z"/><path class="cls-29" d="M190.82,239.68a.57.57,0,0,1-.48,0l-1.8-1a.14.14,0,0,1,0-.27l1.8-1a.51.51,0,0,1,.48,0l1.8,1a.14.14,0,0,1,0,.27Z"/><path class="cls-29" d="M193.92,241.47a.57.57,0,0,1-.48,0l-1.8-1a.14.14,0,0,1,0-.27l1.8-1a.51.51,0,0,1,.48,0l1.8,1a.14.14,0,0,1,0,.27Z"/><path class="cls-29" d="M197,243.26a.55.55,0,0,1-.47,0l-1.8-1a.15.15,0,0,1,0-.28l1.8-1a.51.51,0,0,1,.48,0l1.79,1c.14.08.14.2,0,.28Z"/><path class="cls-29" d="M200.12,245.05a.6.6,0,0,1-.49,0l-1.79-1a.15.15,0,0,1,0-.28l1.79-1a.6.6,0,0,1,.49,0l1.79,1a.15.15,0,0,1,0,.28Z"/><path class="cls-29" d="M203.21,246.84a.57.57,0,0,1-.48,0l-1.8-1c-.13-.08-.13-.21,0-.28l1.8-1a.57.57,0,0,1,.48,0l1.8,1c.13.07.13.2,0,.28Z"/><path class="cls-29" d="M206.31,248.62a.51.51,0,0,1-.48,0l-1.8-1a.14.14,0,0,1,0-.27l1.8-1a.51.51,0,0,1,.48,0l1.8,1a.14.14,0,0,1,0,.27Z"/><path class="cls-29" d="M209.41,250.41a.51.51,0,0,1-.48,0l-1.8-1a.14.14,0,0,1,0-.27l1.8-1a.51.51,0,0,1,.48,0l1.79,1a.14.14,0,0,1,0,.27Z"/><path class="cls-29" d="M212.5,252.2a.55.55,0,0,1-.47,0l-1.8-1a.15.15,0,0,1,0-.28l1.8-1a.49.49,0,0,1,.47,0l1.8,1a.15.15,0,0,1,0,.28Z"/><path class="cls-29" d="M215.6,254a.57.57,0,0,1-.48,0l-1.8-1a.15.15,0,0,1,0-.28l1.8-1a.57.57,0,0,1,.48,0l1.8,1a.15.15,0,0,1,0,.28Z"/><path class="cls-29" d="M218.7,255.78a.57.57,0,0,1-.48,0l-1.8-1a.15.15,0,0,1,0-.28l1.8-1a.57.57,0,0,1,.48,0l1.8,1a.15.15,0,0,1,0,.28Z"/><path class="cls-29" d="M221.8,257.56a.51.51,0,0,1-.48,0l-1.8-1a.15.15,0,0,1,0-.28l1.8-1a.57.57,0,0,1,.48,0l1.79,1a.15.15,0,0,1,0,.28Z"/><path class="cls-29" d="M253.26,275.73a.51.51,0,0,1-.48,0l-1.79-1c-.14-.08-.14-.21,0-.28l1.79-1a.57.57,0,0,1,.48,0l1.8,1c.13.07.13.2,0,.28Z"/><path class="cls-29" d="M256.36,277.52a.51.51,0,0,1-.48,0l-1.8-1a.14.14,0,0,1,0-.27l1.8-1a.51.51,0,0,1,.48,0l1.8,1a.14.14,0,0,1,0,.27Z"/><path class="cls-29" d="M259.46,279.31a.57.57,0,0,1-.48,0l-1.8-1c-.13-.08-.13-.2,0-.27l1.8-1a.51.51,0,0,1,.48,0l1.8,1c.13.07.13.19,0,.27Z"/><path class="cls-29" d="M262.55,281.1a.55.55,0,0,1-.47,0l-1.8-1a.15.15,0,0,1,0-.28l1.8-1a.49.49,0,0,1,.47,0l1.8,1a.15.15,0,0,1,0,.28Z"/><path class="cls-29" d="M250.12,277.55a.57.57,0,0,1-.48,0l-1.8-1a.15.15,0,0,1,0-.28l1.8-1a.51.51,0,0,1,.48,0l1.8,1a.15.15,0,0,1,0,.28Z"/><path class="cls-29" d="M253.22,279.34a.57.57,0,0,1-.48,0l-1.8-1c-.13-.08-.13-.21,0-.28l1.8-1a.57.57,0,0,1,.48,0l1.79,1c.14.07.14.2,0,.28Z"/><path class="cls-29" d="M256.31,281.12a.49.49,0,0,1-.47,0l-1.8-1c-.13-.07-.13-.19,0-.27l1.8-1a.49.49,0,0,1,.47,0l1.8,1c.13.08.13.2,0,.27Z"/><path class="cls-29" d="M247,279.36a.51.51,0,0,1-.48,0l-1.8-1c-.13-.08-.13-.2,0-.27l1.8-1a.51.51,0,0,1,.48,0l1.8,1c.13.07.13.19,0,.27Z"/><path class="cls-29" d="M250.07,281.15a.55.55,0,0,1-.47,0l-1.8-1c-.13-.07-.13-.2,0-.28l1.8-1a.49.49,0,0,1,.47,0l1.8,1c.13.08.13.21,0,.28Z"/><path class="cls-29" d="M253.17,282.94a.57.57,0,0,1-.48,0l-1.79-1a.15.15,0,0,1,0-.28l1.79-1a.51.51,0,0,1,.48,0l1.8,1a.15.15,0,0,1,0,.28Z"/><path class="cls-29" d="M256.27,284.73a.57.57,0,0,1-.48,0l-1.8-1a.15.15,0,0,1,0-.28l4.94-2.85a.51.51,0,0,1,.48,0l1.8,1a.14.14,0,0,1,0,.27Z"/><path class="cls-29" d="M243.84,281.18a.57.57,0,0,1-.48,0l-1.8-1a.15.15,0,0,1,0-.28l1.8-1a.57.57,0,0,1,.48,0l1.8,1a.15.15,0,0,1,0,.28Z"/><path class="cls-29" d="M246.93,283a.49.49,0,0,1-.47,0l-1.8-1c-.14-.07-.14-.2,0-.27l1.8-1a.49.49,0,0,1,.47,0l1.8,1c.13.07.13.2,0,.28Z"/><path class="cls-29" d="M250,284.75a.51.51,0,0,1-.48,0l-1.8-1a.15.15,0,0,1,0-.27l1.8-1a.51.51,0,0,1,.48,0l1.8,1a.14.14,0,0,1,0,.27Z"/><path class="cls-29" d="M243.73,284.74a.51.51,0,0,1-.48,0L238.42,282c-.13-.07-.13-.2,0-.28l1.8-1a.49.49,0,0,1,.47,0l4.83,2.79c.14.07.14.19,0,.27Z"/><path class="cls-29" d="M246.89,286.57a.57.57,0,0,1-.48,0l-1.8-1a.15.15,0,0,1,0-.28l1.8-1a.57.57,0,0,1,.48,0l1.8,1a.15.15,0,0,1,0,.28Z"/><path class="cls-29" d="M250,288.35a.51.51,0,0,1-.48,0l-1.8-1c-.13-.08-.13-.21,0-.28l4.94-2.85a.51.51,0,0,1,.48,0l1.8,1c.13.07.13.19,0,.27Z"/><path class="cls-29" d="M224.89,259.35a.51.51,0,0,1-.48,0l-1.79-1c-.14-.07-.14-.2,0-.27l1.79-1a.51.51,0,0,1,.48,0l1.8,1a.14.14,0,0,1,0,.27Z"/><path class="cls-29" d="M241,268.64a.51.51,0,0,1-.48,0l-1.8-1c-.13-.08-.13-.2,0-.27l1.8-1a.51.51,0,0,1,.48,0l1.8,1c.13.07.13.19,0,.27Z"/><path class="cls-29" d="M244.07,270.43a.49.49,0,0,1-.47,0l-1.8-1a.15.15,0,0,1,0-.28l1.8-1a.49.49,0,0,1,.47,0l1.8,1a.15.15,0,0,1,0,.28Z"/><path class="cls-29" d="M247.17,272.21a.49.49,0,0,1-.47,0l-1.8-1c-.14-.08-.14-.2,0-.28l1.8-1a.55.55,0,0,1,.47,0l1.8,1a.15.15,0,0,1,0,.28Z"/><path class="cls-29" d="M237.84,270.45a.51.51,0,0,1-.48,0l-1.8-1a.15.15,0,0,1,0-.28l1.8-1a.57.57,0,0,1,.48,0l1.79,1a.15.15,0,0,1,0,.28Z"/><path class="cls-29" d="M240.93,272.24a.51.51,0,0,1-.48,0l-1.79-1a.14.14,0,0,1,0-.27l1.79-1a.51.51,0,0,1,.48,0l1.8,1a.14.14,0,0,1,0,.27Z"/><path class="cls-29" d="M244,274a.51.51,0,0,1-.48,0l-1.8-1a.14.14,0,0,1,0-.27l1.8-1a.51.51,0,0,1,.48,0l1.8,1a.14.14,0,0,1,0,.27Z"/><path class="cls-29" d="M234.67,275.86a.51.51,0,0,1-.48,0l-1.8-1a.14.14,0,0,1,0-.27l1.8-1a.51.51,0,0,1,.48,0l1.79,1c.14.07.14.2,0,.27Z"/><path class="cls-29" d="M228.43,275.89a.57.57,0,0,1-.48,0l-1.8-1a.15.15,0,0,1,0-.28l1.8-1a.57.57,0,0,1,.48,0l1.79,1c.14.08.14.2,0,.28Z"/><path class="cls-29" d="M231.52,277.68a.57.57,0,0,1-.48,0l-1.79-1a.15.15,0,0,1,0-.28l1.79-1a.57.57,0,0,1,.48,0l1.8,1a.15.15,0,0,1,0,.28Z"/><path class="cls-29" d="M234.62,279.46a.51.51,0,0,1-.48,0l-1.79-1c-.14-.08-.14-.21,0-.28l1.79-1a.51.51,0,0,1,.48,0l1.8,1c.13.07.13.2,0,.28Z"/><path class="cls-29" d="M192.32,244.18a.55.55,0,0,1-.47,0l-1.8-1a.15.15,0,0,1,0-.28l1.8-1a.49.49,0,0,1,.47,0l1.8,1a.15.15,0,0,1,0,.28Z"/><path class="cls-29" d="M189.27,242.41a.51.51,0,0,1-.48,0l-3.39-1.95a.15.15,0,0,1,0-.28l1.8-1a.57.57,0,0,1,.48,0l3.39,2a.15.15,0,0,1,0,.28Z"/><path class="cls-29" d="M195.42,246a.51.51,0,0,1-.48,0l-1.79-1c-.14-.08-.14-.2,0-.28l1.79-1a.57.57,0,0,1,.48,0l1.8,1a.15.15,0,0,1,0,.28Z"/><path class="cls-29" d="M198.52,247.75a.51.51,0,0,1-.48,0l-1.8-1a.15.15,0,0,1,0-.28l1.8-1a.57.57,0,0,1,.48,0l1.8,1a.15.15,0,0,1,0,.28Z"/><path class="cls-29" d="M201.62,249.54a.51.51,0,0,1-.48,0l-1.8-1a.14.14,0,0,1,0-.27l1.8-1a.51.51,0,0,1,.48,0l1.8,1a.14.14,0,0,1,0,.27Z"/><path class="cls-29" d="M204.71,251.33a.49.49,0,0,1-.47,0l-1.8-1a.14.14,0,0,1,0-.27l1.8-1a.49.49,0,0,1,.47,0l1.8,1a.14.14,0,0,1,0,.27Z"/><path class="cls-29" d="M207.81,253.12a.57.57,0,0,1-.48,0l-1.8-1a.15.15,0,0,1,0-.28l1.8-1a.51.51,0,0,1,.48,0l1.8,1a.15.15,0,0,1,0,.28Z"/><path class="cls-29" d="M210.91,254.91a.57.57,0,0,1-.48,0l-1.8-1c-.13-.07-.13-.2,0-.28l1.8-1a.51.51,0,0,1,.48,0l1.8,1c.13.08.13.21,0,.28Z"/><path class="cls-29" d="M214,256.7a.57.57,0,0,1-.48,0l-1.8-1a.15.15,0,0,1,0-.28l1.8-1a.51.51,0,0,1,.48,0l1.8,1a.15.15,0,0,1,0,.28Z"/><path class="cls-29" d="M217.1,258.48a.49.49,0,0,1-.47,0l-1.8-1a.15.15,0,0,1,0-.28l1.8-1a.55.55,0,0,1,.47,0l1.8,1a.15.15,0,0,1,0,.28Z"/><path class="cls-29" d="M220.2,260.27a.51.51,0,0,1-.48,0l-1.79-1c-.14-.07-.14-.2,0-.27l1.79-1a.57.57,0,0,1,.48,0l1.8,1a.14.14,0,0,1,0,.27Z"/><path class="cls-29" d="M223.3,262.06a.51.51,0,0,1-.48,0l-1.8-1a.14.14,0,0,1,0-.27l1.8-1a.51.51,0,0,1,.48,0l1.8,1a.14.14,0,0,1,0,.27Z"/><path class="cls-29" d="M226.4,263.85a.57.57,0,0,1-.48,0l-1.8-1a.14.14,0,0,1,0-.27l1.8-1.05a.57.57,0,0,1,.48,0l1.8,1.05a.14.14,0,0,1,0,.27Z"/><path class="cls-29" d="M231.7,266.91a.51.51,0,0,1-.48,0l-4-2.28a.15.15,0,0,1,0-.28l1.8-1a.57.57,0,0,1,.48,0l4,2.29a.14.14,0,0,1,0,.27Z"/><path class="cls-29" d="M190.73,246.88a.54.54,0,0,1-.48,0l-1.79-1c-.14-.08-.14-.2,0-.28l1.79-1a.57.57,0,0,1,.48,0l1.8,1a.15.15,0,0,1,0,.28Z"/><path class="cls-29" d="M187.63,245.1a.55.55,0,0,1-.47,0l-4.84-2.79a.15.15,0,0,1,0-.28l1.8-1a.51.51,0,0,1,.48,0l4.83,2.78a.15.15,0,0,1,0,.28Z"/><path class="cls-29" d="M193.83,248.67a.51.51,0,0,1-.48,0l-1.8-1a.15.15,0,0,1,0-.28l1.8-1a.57.57,0,0,1,.48,0l1.8,1a.15.15,0,0,1,0,.28Z"/><path class="cls-29" d="M196.93,250.46a.51.51,0,0,1-.48,0l-1.8-1c-.13-.07-.13-.19,0-.27l1.8-1a.55.55,0,0,1,.47,0l1.8,1c.14.08.14.2,0,.27Z"/><path class="cls-29" d="M200,252.25a.51.51,0,0,1-.48,0l-1.8-1a.14.14,0,0,1,0-.27l1.8-1a.51.51,0,0,1,.48,0l1.79,1a.14.14,0,0,1,0,.27Z"/><path class="cls-29" d="M203.12,254a.51.51,0,0,1-.48,0l-1.8-1c-.13-.08-.13-.2,0-.27l1.8-1a.51.51,0,0,1,.48,0l1.8,1c.13.07.13.19,0,.27Z"/><path class="cls-29" d="M206.22,255.83a.57.57,0,0,1-.48,0l-1.8-1a.15.15,0,0,1,0-.28l1.8-1a.51.51,0,0,1,.48,0l1.79,1c.14.08.14.2,0,.28Z"/><path class="cls-29" d="M209.31,257.62a.55.55,0,0,1-.47,0l-1.8-1a.15.15,0,0,1,0-.28l1.8-1a.55.55,0,0,1,.47,0l1.8,1c.14.08.14.2,0,.28Z"/><path class="cls-29" d="M212.41,259.4a.49.49,0,0,1-.47,0l-1.8-1a.15.15,0,0,1,0-.28l1.8-1a.55.55,0,0,1,.47,0l1.8,1a.15.15,0,0,1,0,.28Z"/><path class="cls-29" d="M215.51,261.19a.51.51,0,0,1-.48,0l-1.8-1a.15.15,0,0,1,0-.28l1.8-1a.57.57,0,0,1,.48,0l1.8,1a.15.15,0,0,1,0,.28Z"/><path class="cls-29" d="M218.61,263a.51.51,0,0,1-.48,0l-1.8-1a.14.14,0,0,1,0-.27l1.8-1a.51.51,0,0,1,.48,0l1.8,1a.15.15,0,0,1,0,.27Z"/><path class="cls-29" d="M221.7,264.77a.49.49,0,0,1-.47,0l-1.8-1a.14.14,0,0,1,0-.27l1.8-1a.49.49,0,0,1,.47,0l1.8,1c.14.07.14.2,0,.27Z"/><path class="cls-29" d="M228.56,268.72a.51.51,0,0,1-.48,0l-5.46-3.15c-.14-.08-.14-.2,0-.27l1.79-1a.51.51,0,0,1,.48,0l5.47,3.15a.15.15,0,0,1,0,.28Z"/><path class="cls-29" d="M188.88,249.5a.57.57,0,0,1-.48,0l-1.8-1a.14.14,0,0,1,0-.27l1.8-1a.51.51,0,0,1,.48,0l1.8,1a.14.14,0,0,1,0,.27Z"/><path class="cls-29" d="M185.75,247.7a.55.55,0,0,1-.47,0l-6.08-3.51a.15.15,0,0,1,0-.28l1.8-1a.57.57,0,0,1,.48,0l6.07,3.51c.13.08.14.2,0,.28Z"/><path class="cls-29" d="M192,251.29a.57.57,0,0,1-.48,0l-1.8-1a.15.15,0,0,1,0-.28l1.8-1a.51.51,0,0,1,.48,0l1.8,1c.12.08.13.2,0,.28Z"/><path class="cls-29" d="M195.07,253.08a.55.55,0,0,1-.47,0l-1.8-1a.15.15,0,0,1,0-.28l1.8-1a.49.49,0,0,1,.47,0l1.8,1a.15.15,0,0,1,0,.28Z"/><path class="cls-29" d="M178.84,247.39a.57.57,0,0,1-.48,0L176,246a.15.15,0,0,1,0-.28l1.8-1a.51.51,0,0,1,.48,0l2.35,1.35c.13.07.13.2,0,.28Z"/><path class="cls-29" d="M182.49,249.49a.51.51,0,0,1-.48,0l-2.35-1.36c-.14-.07-.14-.2,0-.27l1.79-1a.51.51,0,0,1,.48,0l2.35,1.36a.14.14,0,0,1,0,.27Z"/><path class="cls-29" d="M186.13,251.59a.51.51,0,0,1-.48,0l-2.35-1.35a.15.15,0,0,1,0-.28l1.8-1a.57.57,0,0,1,.48,0l2.35,1.36a.15.15,0,0,1,0,.28Z"/><path class="cls-29" d="M207.61,264a.57.57,0,0,1-.48,0L187,252.34a.15.15,0,0,1,0-.28l1.8-1a.49.49,0,0,1,.47,0l20.19,11.65a.15.15,0,0,1,0,.28Z"/><path class="cls-29" d="M211.27,266.11a.49.49,0,0,1-.47,0l-2.35-1.36c-.14-.07-.13-.2,0-.27l1.79-1a.57.57,0,0,1,.48,0l2.35,1.36a.14.14,0,0,1,0,.27Z"/><path class="cls-29" d="M214.92,268.22a.57.57,0,0,1-.48,0l-2.35-1.36a.15.15,0,0,1,0-.28l1.8-1a.51.51,0,0,1,.48,0l2.35,1.35a.15.15,0,0,1,0,.28Z"/><path class="cls-29" d="M218.56,270.32a.49.49,0,0,1-.47,0L215.74,269a.14.14,0,0,1,0-.27l1.79-1a.51.51,0,0,1,.48,0l2.35,1.36a.14.14,0,0,1,0,.27Z"/><path class="cls-29" d="M222.21,272.43a.57.57,0,0,1-.48,0l-2.35-1.36a.15.15,0,0,1,0-.28l1.8-1a.57.57,0,0,1,.48,0l2.35,1.36a.15.15,0,0,1,0,.28Z"/><path class="cls-29" d="M198.17,254.87a.55.55,0,0,1-.47,0l-1.8-1c-.14-.08-.14-.2,0-.28l1.8-1a.55.55,0,0,1,.47,0l1.8,1a.15.15,0,0,1,0,.28Z"/><path class="cls-29" d="M201.27,256.66a.57.57,0,0,1-.48,0l-1.8-1.05c-.13-.07-.13-.19,0-.27l1.8-1a.57.57,0,0,1,.48,0l1.8,1c.13.08.13.2,0,.27Z"/><path class="cls-29" d="M204.37,258.44a.51.51,0,0,1-.48,0l-1.8-1a.14.14,0,0,1,0-.27l1.8-1a.51.51,0,0,1,.48,0l1.79,1a.14.14,0,0,1,0,.27Z"/><path class="cls-29" d="M207.46,260.23a.49.49,0,0,1-.47,0l-1.8-1a.14.14,0,0,1,0-.27l1.8-1a.49.49,0,0,1,.47,0l1.8,1a.14.14,0,0,1,0,.27Z"/><path class="cls-29" d="M210.56,262a.57.57,0,0,1-.48,0l-1.79-1c-.14-.07-.14-.2,0-.28l1.79-1a.51.51,0,0,1,.48,0l1.8,1c.13.08.13.21,0,.28Z"/><path class="cls-29" d="M213.66,263.81a.57.57,0,0,1-.48,0l-1.8-1a.15.15,0,0,1,0-.28l1.8-1a.54.54,0,0,1,.48,0l1.8,1a.15.15,0,0,1,0,.28Z"/><path class="cls-29" d="M216.76,265.59a.51.51,0,0,1-.48,0l-1.8-1a.15.15,0,0,1,0-.28l1.8-1a.57.57,0,0,1,.48,0l1.79,1a.15.15,0,0,1,0,.28Z"/><path class="cls-29" d="M225.37,270.57a.57.57,0,0,1-.48,0l-7.31-4.22a.15.15,0,0,1,0-.28l1.8-1a.51.51,0,0,1,.48,0l7.31,4.21a.15.15,0,0,1,0,.28Z"/><path class="cls-29" d="M228,261.14a.51.51,0,0,1-.48,0l-1.8-1a.14.14,0,0,1,0-.27l1.8-1a.51.51,0,0,1,.48,0l1.8,1a.14.14,0,0,1,0,.27Z"/><path class="cls-29" d="M195.76,236.83a.57.57,0,0,1-.48,0l-1.8-1a.14.14,0,0,1,0-.27l1.8-1a.51.51,0,0,1,.48,0l1.8,1a.14.14,0,0,1,0,.27Z"/><path class="cls-29" d="M202,240.41a.57.57,0,0,1-.48,0l-1.8-1a.15.15,0,0,1,0-.28l1.8-1a.57.57,0,0,1,.48,0l1.79,1a.15.15,0,0,1,0,.28Z"/><path class="cls-29" d="M205.05,242.2a.55.55,0,0,1-.47,0l-1.8-1c-.13-.08-.13-.21,0-.28l1.8-1a.55.55,0,0,1,.47,0l1.8,1c.13.07.13.2,0,.28Z"/><path class="cls-29" d="M208.15,244a.51.51,0,0,1-.48,0l-1.8-1a.14.14,0,0,1,0-.27l1.8-1a.51.51,0,0,1,.48,0l1.8,1a.14.14,0,0,1,0,.27Z"/><path class="cls-29" d="M211.25,245.77a.51.51,0,0,1-.48,0l-1.8-1a.14.14,0,0,1,0-.27l1.8-1a.51.51,0,0,1,.48,0l1.8,1a.14.14,0,0,1,0,.27Z"/><path class="cls-29" d="M216.3,248.69a.49.49,0,0,1-.47,0l-1.8-1c-.14-.07-.14-.2,0-.27l1.8-1a.49.49,0,0,1,.47,0l1.8,1a.14.14,0,0,1,0,.27Z"/><path class="cls-29" d="M219.4,250.48a.51.51,0,0,1-.48,0l-1.79-1c-.14-.07-.14-.2,0-.28l1.79-1a.51.51,0,0,1,.48,0l1.8,1c.13.08.13.21,0,.28Z"/><path class="cls-29" d="M222.5,252.27a.57.57,0,0,1-.48,0l-1.8-1a.15.15,0,0,1,0-.28l1.8-1a.51.51,0,0,1,.48,0l1.8,1a.15.15,0,0,1,0,.28Z"/><path class="cls-29" d="M225.6,254.06a.57.57,0,0,1-.48,0l-1.8-1a.15.15,0,0,1,0-.28l1.8-1a.57.57,0,0,1,.48,0l1.79,1c.14.08.14.2,0,.28Z"/><path class="cls-29" d="M230.55,256.92a.55.55,0,0,1-.47,0l-1.8-1a.15.15,0,0,1,0-.28l1.8-1a.49.49,0,0,1,.47,0l1.8,1c.14.08.14.2,0,.28Z"/><path class="cls-29" d="M233.65,258.71a.57.57,0,0,1-.48,0l-1.8-1a.15.15,0,0,1,0-.28l1.8-1a.57.57,0,0,1,.48,0l1.8,1a.15.15,0,0,1,0,.28Z"/><path class="cls-29" d="M236.75,260.5a.57.57,0,0,1-.48,0l-1.8-1.05c-.13-.07-.13-.19,0-.27l1.8-1a.57.57,0,0,1,.48,0l1.8,1c.13.08.13.2,0,.27Z"/><path class="cls-29" d="M239.84,262.28a.49.49,0,0,1-.47,0l-1.8-1c-.13-.07-.13-.19,0-.27l1.8-1a.49.49,0,0,1,.47,0l1.8,1c.13.08.13.2,0,.27Z"/><path class="cls-29" d="M261.3,274.67a.51.51,0,0,1-.48,0l-1.8-1c-.13-.07-.13-.2,0-.28l1.8-1a.51.51,0,0,1,.48,0l1.8,1c.13.08.13.21,0,.28Z"/><path class="cls-29" d="M264.39,276.46a.55.55,0,0,1-.47,0l-1.8-1a.15.15,0,0,1,0-.28l1.8-1a.49.49,0,0,1,.47,0l1.8,1a.15.15,0,0,1,0,.28Z"/><path class="cls-29" d="M267.49,278.24a.49.49,0,0,1-.47,0l-1.8-1a.15.15,0,0,1,0-.28l1.8-1a.55.55,0,0,1,.47,0l1.8,1a.15.15,0,0,1,0,.28Z"/><path class="cls-29" d="M234.91,265.13a.51.51,0,0,1-.48,0l-5.62-3.24a.14.14,0,0,1,0-.27l1.8-1a.51.51,0,0,1,.48,0l5.62,3.24c.12.08.12.2,0,.27Z"/><polygon class="cls-29" points="257.5 272.26 248.61 267.13 250.84 265.85 259.72 270.98 257.5 272.26"/><path class="cls-30" d="M216.45,203.29a2.92,2.92,0,0,1,2.64,0L230.76,210a.8.8,0,0,1,0,1.52l-26.37,15.27a2.94,2.94,0,0,1-2.65,0l-11.66-6.73a.81.81,0,0,1,0-1.53Z"/><path class="cls-29" d="M190.08,220.09l11.66,6.73a2.94,2.94,0,0,0,2.65,0l26.37-15.27a.93.93,0,0,0,.54-.74h0v1.81a.93.93,0,0,1-.54.77l-26.37,15.26a2.94,2.94,0,0,1-2.65,0l-11.66-6.73a.93.93,0,0,1-.55-.76v-1.83h0A.93.93,0,0,0,190.08,220.09Z"/><polygon class="cls-31" points="191.22 217.9 205.53 226.16 230.64 211.62 216.33 203.36 191.22 217.9"/><polygon class="cls-32" points="205.28 226.01 205.53 226.16 230.64 211.62 230.39 211.48 205.28 226.01"/><polygon class="cls-33" points="205.53 227.27 230.64 212.73 230.64 211.62 205.53 226.16 205.53 227.27"/><path class="cls-34" d="M336.76,282.43v0Z"/><path class="cls-35" d="M343.41,277.07a6.63,6.63,0,0,0-.45-2.39h0c-.72-2.59-3.63-2.43-4.49-2a5.58,5.58,0,0,0-1.71,1.48v2.44l1.08.56a4,4,0,0,1,2-2.37,1.54,1.54,0,0,1,.68-.18,4.15,4.15,0,0,1,.88,2.45c0,1.41-.92,5.15-3,6.21a2.93,2.93,0,0,1-.44.18h-.07c-1,.24-1.08-.84-1.08-1.05v2.92l1.08.56s.47.17,1.69-.54S343.54,280.85,343.41,277.07Z"/><g class="cls-36"><path class="cls-37" d="M337.84,283v0Z"/><path class="cls-38" d="M343.41,277.07c-.14-4.47-2.84-4.34-3.86-3.81a5.58,5.58,0,0,0-1.71,1.48v2.44a4,4,0,0,1,2-2.37c1.6-.83,2.62,1.42,2.64,2.83s-.92,5.15-3,6.21c-1.51.76-1.59-.62-1.59-.86v2.92s.47.17,1.69-.54S343.54,280.85,343.41,277.07Z"/></g><path class="cls-39" d="M339.43,283.85c2.09-1.06,3-4.8,3-6.21,0-1.2-.76-3-2-3a4.15,4.15,0,0,1,.88,2.45c0,1.41-.92,5.15-3,6.21a2.93,2.93,0,0,1-.44.18C338,283.9,338.4,284.37,339.43,283.85Z"/><path class="cls-40" d="M339.17,272c0-1.42-.94-2.84-2.81-3.92a15,15,0,0,0-13.6,0c-1.88,1.08-2.81,2.5-2.81,3.92V289.4a3.38,3.38,0,0,0,.4,1.59h0c.07.19.46,1,.56,1.16a6,6,0,0,0,2.2,2.05,14.28,14.28,0,0,0,12.9,0A5.68,5.68,0,0,0,338.3,292c.06-.12.51-1.05.56-1.18h0a3.36,3.36,0,0,0,.31-1.41Z"/><path class="cls-41" d="M329.56,266.41a14,14,0,0,0-6.8,1.63c-1.88,1.08-2.81,2.5-2.81,3.92s.93,2.84,2.81,3.93a15.08,15.08,0,0,0,13.6,0c1.87-1.09,2.81-2.51,2.81-3.93s-.94-2.84-2.81-3.92A14,14,0,0,0,329.56,266.41Z"/><path class="cls-34" d="M329.56,266.68a13.26,13.26,0,0,0-6.47,1.55c-1.79,1-2.68,2.38-2.68,3.73s.89,2.71,2.68,3.74a14.28,14.28,0,0,0,12.94,0c1.79-1,2.68-2.38,2.68-3.74s-.89-2.7-2.68-3.73A13.26,13.26,0,0,0,329.56,266.68Z"/><path class="cls-42" d="M329.56,266.68a13.26,13.26,0,0,0-6.47,1.55c-1.79,1-2.68,2.38-2.68,3.73s.89,2.71,2.68,3.74a14.28,14.28,0,0,0,12.94,0c1.79-1,2.68-2.38,2.68-3.74s-.89-2.7-2.68-3.73A13.26,13.26,0,0,0,329.56,266.68Z"/><path class="cls-15" d="M336,271.23a14.28,14.28,0,0,0-12.94,0,5.78,5.78,0,0,0-2.31,2.23,5.73,5.73,0,0,0,2.31,2.24,14.28,14.28,0,0,0,12.94,0,5.73,5.73,0,0,0,2.31-2.24A5.78,5.78,0,0,0,336,271.23Z"/><path class="cls-43" d="M323.09,272.65a14.28,14.28,0,0,1,12.94,0,6.52,6.52,0,0,1,1.84,1.52,4,4,0,0,0,.47-.71,5.78,5.78,0,0,0-2.31-2.23,14.28,14.28,0,0,0-12.94,0,5.78,5.78,0,0,0-2.31,2.23,4,4,0,0,0,.47.71A6.52,6.52,0,0,1,323.09,272.65Z"/><path class="cls-44" d="M336.36,293.33a15.08,15.08,0,0,1-13.6,0,6,6,0,0,1-2.41-2.34h0c.07.19.46,1,.56,1.16a6,6,0,0,0,2.2,2.05,14.28,14.28,0,0,0,12.9,0A5.68,5.68,0,0,0,338.3,292c.06-.12.51-1.05.56-1.18h0A5.89,5.89,0,0,1,336.36,293.33Z"/><path class="cls-45" d="M174.23,247.25s2.89-2.25,9.53-2.88,6.2-.42,11.84.33,10.63,1.68,11.51,2.55,4.11,1.51,2.79,2.82-4.08.32-7.33.82-9.15.62-8.53,2.63,7.65,1,9.28,2,3.39,2,0,2.63-13.41.63-17.43.63S174.23,247.25,174.23,247.25Z"/><path class="cls-46" d="M207.11,247.25c-.88-.87-5.87-1.8-11.51-2.55-5.45-.73-5.22-.94-11.17-.39.57,1.11,1.78,2.35,4.6,2.65,4.22.45,13,.21,18.49.6A2.31,2.31,0,0,1,207.11,247.25Z"/><path class="cls-47" d="M190.59,201.17c-.62-1.3-3.41-3.83-4.42-3.81a.62.62,0,0,0-.39.14c-.79.65-.55,5.24-.18,6.48s2.31,3.26,3.69,3.23h.15a1.35,1.35,0,0,0,.95-.82A6.78,6.78,0,0,0,190.59,201.17Zm-.92,4.82c-.17.31-.3.39-.34.39h-.06c-.88,0-2.59-1.67-2.88-2.65a15.85,15.85,0,0,1-.12-5.54,10.24,10.24,0,0,1,3.58,3.33A6,6,0,0,1,189.67,206Z"/><path class="cls-48" d="M189.85,201.53a10.24,10.24,0,0,0-3.58-3.33,15.85,15.85,0,0,0,.12,5.54c.29,1,2,2.67,2.88,2.65h.06s.17-.08.34-.39A6,6,0,0,0,189.85,201.53Z"/><path class="cls-45" d="M137.4,222.11s5.93-.08,9-3.85,2.75-11,1.9-14.5-.54-15.59,3.24-20.45,12.78-8.47,21.48-8.33,15.08,8.09,15.79,13.85,1.59,9,.11,10.87-1.64,3.22-1.93,5.71-4,8.88-5.12,11.26-3.72,3.73-6.37,4.81-6.57,1.17-7,6.05-3.44,12.14-3.44,12.14,2.81-.41-.08.52-16.9,5.21-24.62,0S137.4,222.11,137.4,222.11Z"/><path class="cls-46" d="M176.81,216.34s-.45.37-1.34-.15-1-3.27-.13-6.48a8.7,8.7,0,0,1,3-4.22,5.63,5.63,0,0,0-3.05.83c-2.41,1.42-7.75,9.82-9.49,10.87a2.16,2.16,0,0,1-.37.16c.77,8.09-2.6,18.57-4.64,24,2-.47,3.49-.94,4.25-1.18,2.89-.93.08-.52.08-.52s3-7.27,3.44-12.14,4.36-5,7-6.05l1.24-.53A21.16,21.16,0,0,1,176.81,216.34Z"/><path class="cls-49" d="M184.25,212.15a15.11,15.11,0,0,0-1.85.88c-.21.13-.69,1-2-.4-.81-.89-.37,3.52-.06,3.84s2.87-.92,3.55-1.91S184.91,212.23,184.25,212.15Z"/><polygon class="cls-47" points="190.61 202.01 179.86 205.54 179.59 206.09 190.79 203.05 190.61 202.01"/><path class="cls-50" d="M192,185c-.57-2.41-5.45-13.76-17.36-14.77s-22.52,3.67-26.82,10.57-3,15-2.26,21.23a33.7,33.7,0,0,0,3.14,10.71s1.15,4.07,9.23,4.64,6.64,2.22,10.53-3.12,6.77-8.19,7.57-8.75,2.74,0,2.74,0l.8.19c-.78,2-2.23,8.29-4.11,12.65-.86,2-2.82,3.07-3.06,4.08l-1.44.83c-.52,3.45,5.89,5.88,7.36,5.57,3.93-.83,4.95-7.49,4.75-10.58a2.31,2.31,0,0,0-1.15-1.56s-3.24-1.45-.24-10.49a2.09,2.09,0,0,0,1.13-1.27l-.9.21a11.75,11.75,0,0,1,1.92-4.49c1.53-1.83,2.5-.78,2.71-4s.21-5.42,1.31-6.27S192.56,187.39,192,185Z"/><path class="cls-51" d="M175,206.39a44.54,44.54,0,0,1-29.52-5c0,.2.05.4.07.59a33.7,33.7,0,0,0,3.14,10.71s1.15,4.07,9.23,4.64,6.64,2.22,10.53-3.12A62.81,62.81,0,0,1,175,206.39Z"/><path class="cls-52" d="M166.81,232.76s-12.72-2.38-19.4-4.6-4.7-7.23-4.7-7.23-11.76-2.57-15.26-1.29c-28.9,10.64-20,64.73-17.49,77.75s.55,26.38.55,26.38c28.26,20.53,58.29,24.94,63.67,14.94S166,311.32,166,311.32s.26-25.23,8.38-44.84c4.56-11,10.57-19.87,5-24.84C176,238.59,166.81,232.76,166.81,232.76Z"/><path class="cls-53" d="M175,265.09l-8.82-6.7a82,82,0,0,0-7,21.66c-1.81,11.49-7.9,8.38-19.53,10.67-7,1.37-14.39,22.53-18.56,40,24.77,14.48,48.38,16.78,53.09,8,5.38-10-8.17-27.39-8.17-27.39s.26-25.23,8.38-44.84C174.58,266,174.78,265.55,175,265.09Z"/><path class="cls-45" d="M215,281.18l8-5.41s5.14-4.23,8.6-4.6,16,.75,19.33,3.31,2.9,4.1.44,6.33-5.25,2.44-9.16,3.6,1.13.86-5,1.31-16.23,4-16.23,4Z"/><path class="cls-46" d="M251.67,275.08c-1.63,3.87-15.52,6.87-19.8,6.63-4.51-.26-10.12,2.46-10.12,2.46l-3.82,1.19,3.06,4.33s10.1-3.51,16.23-4,1.1-.16,5-1.31,6.69-1.37,9.16-3.6C253.64,278.76,254.2,277.29,251.67,275.08Z"/><path class="cls-52" d="M164,261.2c-1.88-5,.22-16.43,8.15-19.56,8.52-3.38,13.93,4.27,18.22,19,4.49,15.44,5.34,23.59,5.34,23.59l24.09-7.57s7,.35,7.57,11c0,0-28.61,16.37-38.32,19.19S168.74,273.8,164,261.2Z"/><path class="cls-54" d="M123.75,377.39s10,4.15,15.25,5.91,11.34,3,16.85-4.8,8.3-14.77,8.15-26.19-10.87-46.16-10.87-46.16-6.22-18.45-9.26-23.16-4.63-5-7.83-6.47-14.53-6.79-21.32-11.5-14.3-10.31-16.21-11.27-6.31,1.12-8.59,5.72-2.67,13.61-2.83,23.36-1.12,24.92.48,34.58a158.35,158.35,0,0,0,8.94,31.86c4,9.67,13.58,19.25,18.29,22.85A42.08,42.08,0,0,0,123.75,377.39Z"/><path class="cls-55" d="M156.8,377.12c4.88-7.28,7.34-14.07,7.2-24.81-.16-11.42-10.87-46.16-10.87-46.16s-6.22-18.45-9.26-23.16-4.63-5-7.83-6.47-14.53-6.79-21.32-11.5-14.3-10.31-16.21-11.27a2.46,2.46,0,0,0-.58-.17c-2.22,1.86-5.69,5-6.1,6.87a15.47,15.47,0,0,0,4.79,4.28c3.37,2,25,15.3,31.21,17.75s11.89,6.51,15.3,13.76c4,8.47,12.34,34.78,14.17,41.62,0,0,5.06,16.6,4.49,23.86C161.39,366.93,159.25,372.43,156.8,377.12Z"/><path class="cls-56" d="M155.45,353.91c-1-8.07-10.06-39.38-12.14-44.65s-7.83-15.57-9.9-17-12.94-5.91-20.21-10.06a237.78,237.78,0,0,1-21.8-14.94,3,3,0,0,0-3.41-.4,141,141,0,0,0-.9,16c-.17,9.74-1.12,24.92.48,34.58a158.35,158.35,0,0,0,8.94,31.86c4,9.67,13.58,19.25,18.29,22.85a42.08,42.08,0,0,0,9,5.27s10,4.15,15.25,5.91a23,23,0,0,0,5.94,1.3,10.34,10.34,0,0,0,5.88-4.74C154.41,373.71,156.41,362,155.45,353.91Z"/><path class="cls-57" d="M124.51,374.56l1.68,9.57s-2.61,1.45-3.6-2.84A6.94,6.94,0,0,1,124.51,374.56Z"/><path class="cls-58" d="M122.59,381.29a7,7,0,0,1,1.75-6.57c-1.14-.48-7.09-3-10.86-6.54a9.62,9.62,0,0,0-1.22,6.67c.64,4.06,2.62,4.61,2.62,4.61l9.19,4.55h0A4.35,4.35,0,0,1,122.59,381.29Z"/><path class="cls-59" d="M157.51,361.7s18.92-19.21,23.05-23.05,14-11.45,19.21-8.62,6.37,28.42,6.37,28.42,1.6,1.88,4.86.94,2.32-3.19,2.32-3.19.65-27.77-6.45-32.84-17-.14-24.71,5.66-21.39,19.42-21.39,19.42-3,4.2-3.69,8S157.51,361.7,157.51,361.7Z"/><path class="cls-60" d="M280.69,315.42a2.44,2.44,0,0,1-2.2,0L250.07,299a.67.67,0,0,1,0-1.27l33.5-19.34a2.44,2.44,0,0,1,2.2,0l28.43,16.41a.67.67,0,0,1,0,1.27Z"/><path class="cls-15" d="M288,296.12c-4.4,3.52-10.83,5.25-14.36,3.87s-3.1-7.22,1.3-10.73,11.11-3.39,14.65-2S292.35,292.6,288,296.12Z"/><path class="cls-15" d="M290.25,289l-.45-.7c.18-.11,17.45-11.19,21.1-13.59l.25-.17c2.51-1.65,6-3.91,6.09-6.42.06-1.15-.61-2.3-2-3.43-2.38-1.93-6.91-1.8-11.7-1.66-6,.18-12.87.37-17.35-3.44a4,4,0,0,1-1.57-2.77c-.17-2.34,2-4.82,4.35-7.45,2.71-3.08,5.79-6.56,5.21-10.11-.4-2.48-2.5-4.8-6.42-7.07l.42-.72c4.15,2.41,6.38,4.91,6.83,7.66.64,3.93-2.58,7.58-5.42,10.79-2.2,2.5-4.28,4.85-4.14,6.84a3.2,3.2,0,0,0,1.28,2.2c4.23,3.59,10.9,3.4,16.79,3.23,5-.14,9.63-.28,12.24,1.85,1.61,1.31,2.38,2.7,2.31,4.13-.15,2.93-3.8,5.32-6.46,7.07l-.26.17C307.7,277.85,290.43,288.93,290.25,289Z"/><path class="cls-27" d="M219.35,109.93c0-1.6,1.13-2.25,2.52-1.45l103.75,59.9a5.6,5.6,0,0,1,2.52,4.36v81.15c0,1.6-1.14,2.25-2.52,1.45l-103.75-59.9a5.57,5.57,0,0,1-2.52-4.36Z"/><polygon class="cls-61" points="219.35 183.96 219.35 110.9 328.14 173.71 328.13 246.76 219.35 183.96"/><polygon class="cls-62" points="220.79 183.12 220.8 113.41 326.69 174.54 326.69 244.25 220.79 183.12"/><path class="cls-29" d="M328.14,253.89V172.74a5.6,5.6,0,0,0-2.52-4.36l-103.75-59.9a1.76,1.76,0,0,0-1.77-.18h0l3.5-2a1.73,1.73,0,0,1,1.81.15l103.75,59.9a5.59,5.59,0,0,1,2.52,4.37v81.14a1.74,1.74,0,0,1-.79,1.66l-3.45,2h0A1.78,1.78,0,0,0,328.14,253.89Z"/><path class="cls-27" d="M235.56,237.65,254.9,229a21,21,0,0,0,9.3-9.06l21.61,12.47a27.27,27.27,0,0,1-6.58,10.76s-11.87,9.2-15,11.29a6.67,6.67,0,0,1-6.47.32l-22.21-13.35s-1.25-.59-1.53-1.51l-.07-.3C233.83,238.4,235.56,237.65,235.56,237.65Z"/><path class="cls-29" d="M235.56,241.38l22.21,13.35a6.67,6.67,0,0,0,6.47-.32c3.12-2.09,15-11.29,15-11.29a27.27,27.27,0,0,0,6.58-10.76l1.86,1.08a22.17,22.17,0,0,1-8.75,11.63c-13.35,9.58-14.78,10.36-14.78,10.36s-2.27,2-6.41,0-22.31-13.23-22.31-13.23-1.51-.81-1.51-1.6l.06-1.16C233.91,240.6,235.56,241.38,235.56,241.38Z"/><path class="cls-63" d="M264.2,219.89l21.61,12.47a26.32,26.32,0,0,1-5,9l-23.69-13.67A21.26,21.26,0,0,0,264.2,219.89Z"/><polygon class="cls-64" points="250.4 143.61 235.79 135.18 235.79 134.22 250.4 142.66 250.4 143.61"/><polygon class="cls-30" points="301.12 172.9 252.6 144.89 252.6 143.93 301.12 171.94 301.12 172.9"/><polygon class="cls-30" points="256.78 141.4 230.12 126.01 230.12 125.05 256.78 140.44 256.78 141.4"/><polygon class="cls-30" points="285.9 158.21 259.25 142.82 259.25 141.87 285.9 157.25 285.9 158.21"/><polygon class="cls-65" points="259.63 151.91 245.02 143.47 245.02 142.52 259.63 150.95 259.63 151.91"/><polygon class="cls-30" points="310.35 181.19 261.83 153.18 261.83 152.22 310.35 180.23 310.35 181.19"/><polygon class="cls-30" points="231.81 132.88 230.07 131.88 230.07 130.93 231.81 131.93 231.81 132.88"/><polygon class="cls-30" points="231.81 135.85 230.07 134.85 230.07 133.89 231.81 134.89 231.81 135.85"/><polygon class="cls-30" points="231.81 138.81 230.07 137.81 230.07 136.85 231.81 137.86 231.81 138.81"/><polygon class="cls-30" points="231.81 141.78 230.07 140.78 230.07 139.82 231.81 140.82 231.81 141.78"/><polygon class="cls-30" points="231.81 144.74 230.07 143.74 230.07 142.78 231.81 143.79 231.81 144.74"/><polygon class="cls-30" points="231.81 147.71 230.07 146.7 230.07 145.75 231.81 146.75 231.81 147.71"/><polygon class="cls-30" points="231.81 150.67 230.07 149.67 230.07 148.71 231.81 149.72 231.81 150.67"/><polygon class="cls-30" points="231.81 153.64 230.07 152.63 230.07 151.68 231.81 152.68 231.81 153.64"/><polygon class="cls-30" points="231.81 156.6 230.07 155.6 230.07 154.65 231.81 155.65 231.81 156.6"/><polygon class="cls-30" points="231.81 159.57 230.07 158.56 230.07 157.61 231.81 158.61 231.81 159.57"/><polygon class="cls-30" points="231.81 162.53 230.07 161.53 230.07 160.57 231.81 161.57 231.81 162.53"/><polygon class="cls-30" points="231.81 165.5 230.07 164.5 230.07 163.54 231.81 164.54 231.81 165.5"/><polygon class="cls-30" points="231.81 168.46 230.07 167.46 230.07 166.5 231.81 167.51 231.81 168.46"/><polygon class="cls-30" points="231.81 171.43 230.07 170.42 230.07 169.47 231.81 170.47 231.81 171.43"/><polygon class="cls-30" points="231.81 174.39 230.07 173.39 230.07 172.43 231.81 173.44 231.81 174.39"/><polygon class="cls-30" points="231.81 177.36 230.07 176.35 230.07 175.4 231.81 176.4 231.81 177.36"/><polygon class="cls-30" points="231.81 180.32 230.07 179.32 230.07 178.36 231.81 179.37 231.81 180.32"/><polygon class="cls-30" points="231.81 183.29 230.07 182.28 230.07 181.33 231.81 182.33 231.81 183.29"/><polygon class="cls-65" points="259.63 154.87 245.02 146.44 245.02 145.48 259.63 153.91 259.63 154.87"/><polygon class="cls-30" points="292.64 173.93 261.83 156.14 261.83 155.19 292.64 172.98 292.64 173.93"/><polygon class="cls-66" points="268.99 163.24 254.38 154.81 254.38 153.85 268.99 162.29 268.99 163.24"/><polygon class="cls-66" points="301.86 182.22 271.19 164.51 271.19 163.56 301.86 181.27 301.86 182.22"/><polygon class="cls-30" points="276.02 170.26 261.41 161.83 261.41 160.88 276.02 169.31 276.02 170.26"/><polygon class="cls-30" points="306.55 187.89 278.23 171.54 278.23 170.58 306.55 186.94 306.55 187.89"/><polygon class="cls-67" points="254.91 161.04 244.57 155.07 244.57 154.12 254.91 160.09 254.91 161.04"/><polygon class="cls-30" points="309.9 192.79 257.12 162.32 257.12 161.36 309.9 191.84 309.9 192.79"/><polygon class="cls-67" points="252.32 162.51 244.57 158.04 244.57 157.08 252.32 161.56 252.32 162.51"/><polygon class="cls-30" points="297.57 188.64 254.53 163.78 254.53 162.83 297.57 187.68 297.57 188.64"/><polygon class="cls-64" points="250.77 164.59 244.57 161 244.57 160.05 250.77 163.63 250.77 164.59"/><polygon class="cls-30" points="303.78 195.19 252.98 165.86 252.98 164.9 303.78 194.23 303.78 195.19"/><polygon class="cls-65" points="259.18 172.4 244.57 163.97 244.57 163.01 259.18 171.45 259.18 172.4"/><polygon class="cls-30" points="303.78 198.15 260.48 173.16 260.48 172.2 303.78 197.2 303.78 198.15"/><polygon class="cls-65" points="267.06 179.92 244.57 166.93 244.57 165.98 267.06 178.96 267.06 179.92"/><polygon class="cls-66" points="289.58 192.92 269.27 181.19 269.27 180.24 289.58 191.97 289.58 192.92"/><polygon class="cls-64" points="250.4 173.26 235.79 164.83 235.79 163.87 250.4 172.31 250.4 173.26"/><polygon class="cls-30" points="301.12 202.54 252.6 174.54 252.6 173.58 301.12 201.59 301.12 202.54"/><polygon class="cls-65" points="258.52 180.92 243.91 172.48 243.91 171.53 258.52 179.96 258.52 180.92"/><polygon class="cls-30" points="301.12 205.51 260.73 182.19 260.73 181.24 301.12 204.56 301.12 205.51"/><polygon class="cls-65" points="275.19 193.51 260.58 185.07 260.58 184.12 275.19 192.55 275.19 193.51"/><polygon class="cls-68" points="301.12 208.48 277.4 194.78 277.4 193.82 301.12 207.52 301.12 208.48"/><polygon class="cls-65" points="268.99 192.89 260.58 188.04 260.58 187.08 268.99 191.94 268.99 192.89"/><polygon class="cls-30" points="301.12 211.44 271.19 194.16 271.19 193.21 301.12 210.49 301.12 211.44"/><polygon class="cls-64" points="272.77 198.04 260.58 191 260.58 190.05 272.77 197.08 272.77 198.04"/><polygon class="cls-30" points="301.12 214.41 274.98 199.31 274.98 198.36 301.12 213.45 301.12 214.41"/><polygon class="cls-65" points="268.16 198.34 260.58 193.97 260.58 193.01 268.16 197.39 268.16 198.34"/><polygon class="cls-30" points="301.12 217.37 270.37 199.62 270.37 198.66 301.12 216.41 301.12 217.37"/><polygon class="cls-65" points="270.37 202.58 260.58 196.93 260.58 195.98 270.37 201.63 270.37 202.58"/><polygon class="cls-30" points="301.12 220.33 272.57 203.85 272.57 202.9 301.12 219.38 301.12 220.33"/><polygon class="cls-65" points="275.19 208.33 260.58 199.9 260.58 198.94 275.19 207.38 275.19 208.33"/><polygon class="cls-30" points="301.12 223.3 277.4 209.6 277.4 208.65 301.12 222.34 301.12 223.3"/><path class="cls-69" d="M346.09,216.71A15.29,15.29,0,0,0,353,228.62l24.61,14.2c3.79,2.19,6.88.4,6.88-4V210.44a15.26,15.26,0,0,0-6.88-11.92L353,184.32c-3.78-2.19-6.88-.4-6.88,4Z"/><path class="cls-70" d="M384.46,238.85V210.44a15.26,15.26,0,0,0-6.88-11.92L353,184.32a5.09,5.09,0,0,0-4.38-.7h0l4.14-2.54c1.26-.8,3-.73,5,.4l24.61,14.21a15.28,15.28,0,0,1,6.88,11.91V236c0,2.24-.81,3.8-2.11,4.49l-4.55,2.73h0C383.72,242.5,384.46,241,384.46,238.85Z"/><path class="cls-71" d="M353.62,209.45v-2.74a3,3,0,0,0,1.09.38.8.8,0,0,0,.64-.33,2,2,0,0,0,.36-1,14.84,14.84,0,0,0,.08-1.86,15.86,15.86,0,0,1,.18-3,1.51,1.51,0,0,1,.64-1,1.94,1.94,0,0,1,1.36-.05,8.18,8.18,0,0,1,1.9.89l.52.3v2.73a5.35,5.35,0,0,0-1.41-.67.44.44,0,0,0-.46.17,1.78,1.78,0,0,0-.14.91c0,.48,0,1.37-.1,2.68a6.29,6.29,0,0,1-.25,1.68,1.62,1.62,0,0,1-1.52,1.24,8.33,8.33,0,0,1,1,1.46,6.82,6.82,0,0,1,.57,1.59,12.48,12.48,0,0,1,.25,2.14c0,1.29.07,2.11.07,2.46a3.29,3.29,0,0,0,.16,1.14,2.56,2.56,0,0,0,.48.73,7,7,0,0,0,1.39.95V223l-.52-.31a11.82,11.82,0,0,1-2.05-1.42,6.24,6.24,0,0,1-1.2-1.51,5.52,5.52,0,0,1-.66-1.8,16.85,16.85,0,0,1-.17-2.74,15.49,15.49,0,0,0-.16-2.82,3.93,3.93,0,0,0-2-2.92Z"/><path class="cls-71" d="M376.4,222.6a2.86,2.86,0,0,0-1.09-.38.8.8,0,0,0-.63.33,2.35,2.35,0,0,0-.37,1,16.69,16.69,0,0,0-.08,1.84,17.33,17.33,0,0,1-.17,3,1.45,1.45,0,0,1-.64,1,1.88,1.88,0,0,1-1.36.06,8.59,8.59,0,0,1-1.9-.9l-.53-.3v-2.74a5.27,5.27,0,0,0,1.39.65.51.51,0,0,0,.48-.17,1.84,1.84,0,0,0,.16-.9c0-.46,0-1.33.08-2.61a6.1,6.1,0,0,1,.27-1.75,1.94,1.94,0,0,1,.58-.88,1.72,1.72,0,0,1,.92-.34,10.27,10.27,0,0,1-1.07-1.69,8,8,0,0,1-.63-2.28c-.07-.58-.12-1.78-.16-3.61a4.19,4.19,0,0,0-.13-1.22,2,2,0,0,0-.44-.7,7.76,7.76,0,0,0-1.45-1v-2.73l.53.31a12.23,12.23,0,0,1,2,1.42,6.06,6.06,0,0,1,1.19,1.51,5.46,5.46,0,0,1,.66,1.79,16.85,16.85,0,0,1,.18,2.75,16.05,16.05,0,0,0,.14,2.81,4.75,4.75,0,0,0,.67,1.7,4.55,4.55,0,0,0,1.35,1.23Z"/><path class="cls-72" d="M287.33,66.12A15.26,15.26,0,0,0,294.21,78l24.61,14.2c3.78,2.19,6.87.4,6.87-4V59.86a15.28,15.28,0,0,0-6.87-11.92l-24.61-14.2c-3.79-2.19-6.88-.4-6.88,4Z"/><path class="cls-73" d="M325.69,88.27V59.86a15.28,15.28,0,0,0-6.87-11.92l-24.61-14.2a5.12,5.12,0,0,0-4.39-.7h0L294,30.5c1.25-.8,3-.73,5,.4l24.61,14.21A15.25,15.25,0,0,1,330.43,57V85.44c0,2.24-.82,3.8-2.12,4.49l-4.55,2.73h0C325,91.91,325.69,90.4,325.69,88.27Z"/><path class="cls-71" d="M300.38,68.47,292.5,57.36V53.73l7.88-2V56l-5.5.85,5.5,7.34Z"/><path class="cls-71" d="M302.8,72.82l2.84-21.11,2.55,1.47-2.87,21.09Z"/><path class="cls-71" d="M310.28,74.2V70l5.5-1-5.5-7.28V57.5l7.89,11.08v3.6Z"/><path class="cls-74" d="M226.2,88.33a15.24,15.24,0,0,0,6.87,11.91l24.61,14.21c3.79,2.19,6.88.4,6.88-4V82.06a15.24,15.24,0,0,0-6.88-11.91L233.07,55.94c-3.78-2.18-6.87-.39-6.87,4Z"/><path class="cls-75" d="M264.56,110.48V82.06a15.24,15.24,0,0,0-6.88-11.91L233.07,55.94a5.12,5.12,0,0,0-4.38-.69h0l4.14-2.54c1.26-.8,3-.73,5,.4l24.61,14.21a15.28,15.28,0,0,1,6.88,11.91v28.42c0,2.24-.81,3.8-2.11,4.49l-4.55,2.73h0C263.82,114.12,264.56,112.61,264.56,110.48Z"/><path class="cls-71" d="M230.58,86.12V69.83L234.25,72A15.51,15.51,0,0,1,237,73.78a7.25,7.25,0,0,1,1.64,2.53,9.5,9.5,0,0,1,.65,3.55,5.67,5.67,0,0,1-.37,2.31,2.05,2.05,0,0,1-1,1,1.8,1.8,0,0,1-1.19.08,12.17,12.17,0,0,1-2.38-1.14l-1.49-.86v6.14Zm2.29-12.21v4.62l1.25.73a5.32,5.32,0,0,0,1.82.79.79.79,0,0,0,.71-.39,2,2,0,0,0,.26-1.11,4,4,0,0,0-.36-1.68,3.54,3.54,0,0,0-.92-1.25A13.27,13.27,0,0,0,234,74.55Z"/><path class="cls-71" d="M241.16,92.23V76l2.3,1.32v6.41L248,86.27V79.86l2.29,1.33V97.47L248,96.15V89l-4.49-2.59v7.11Z"/><path class="cls-71" d="M252.61,98.84V82.56l3.68,2.12A16.11,16.11,0,0,1,259,86.5,7.28,7.28,0,0,1,260.65,89a9.24,9.24,0,0,1,.66,3.55,5.4,5.4,0,0,1-.38,2.3,1.93,1.93,0,0,1-1,1,1.81,1.81,0,0,1-1.19.08,11.6,11.6,0,0,1-2.38-1.14L254.91,94v6.14Zm2.3-12.2v4.62l1.25.72a5.09,5.09,0,0,0,1.81.79.78.78,0,0,0,.72-.38,2.08,2.08,0,0,0,.26-1.12,3.89,3.89,0,0,0-.37-1.68,3.52,3.52,0,0,0-.91-1.25A14.58,14.58,0,0,0,256,87.27Z"/><path class="cls-76" d="M141.33,94.85a15.29,15.29,0,0,0,6.88,11.92L172.82,121c3.79,2.19,6.88.4,6.88-4V88.59a15.26,15.26,0,0,0-6.88-11.92l-24.61-14.2c-3.78-2.19-6.88-.4-6.88,4Z"/><path class="cls-77" d="M179.7,117V88.59a15.26,15.26,0,0,0-6.88-11.92l-24.61-14.2a5.13,5.13,0,0,0-4.38-.7h0L148,59.23c1.26-.8,3-.73,5,.4l24.61,14.21a15.28,15.28,0,0,1,6.88,11.91v28.42c0,2.24-.81,3.8-2.11,4.49l-4.55,2.73h0C179,120.64,179.7,119.13,179.7,117Z"/><path class="cls-71" d="M152.32,89.39l2.15,2.14c-.33,1.41-.88,2.28-1.64,2.61a3.27,3.27,0,0,1-2.91-.52,9.29,9.29,0,0,1-3.58-4.06,13.64,13.64,0,0,1-1.41-6.24q0-3.64,1.42-4.85c.94-.81,2.17-.76,3.71.12a8.7,8.7,0,0,1,3.26,3.47,11.57,11.57,0,0,1,1.12,3.34l-2.19-.57a6.11,6.11,0,0,0-.81-2.26,4.29,4.29,0,0,0-1.5-1.52,1.52,1.52,0,0,0-2,0c-.51.49-.76,1.6-.76,3.34a10.52,10.52,0,0,0,.75,4.38,4.94,4.94,0,0,0,1.94,2.3,1.4,1.4,0,0,0,1.51.12A2.56,2.56,0,0,0,152.32,89.39Z"/><path class="cls-71" d="M155.8,92,158,93a6.89,6.89,0,0,0,.79,2.57,4.41,4.41,0,0,0,1.6,1.61c.71.41,1.25.52,1.61.32a1.13,1.13,0,0,0,.54-1.1,2.29,2.29,0,0,0-.23-1,4.14,4.14,0,0,0-.79-1.09c-.26-.27-.85-.82-1.77-1.66a12.66,12.66,0,0,1-2.5-2.88,7.19,7.19,0,0,1-1-3.53,3.2,3.2,0,0,1,.47-1.81,1.52,1.52,0,0,1,1.37-.69,4.51,4.51,0,0,1,2.15.74,8.12,8.12,0,0,1,3.1,3,8,8,0,0,1,1.1,3.85l-2.21-1.15a5,5,0,0,0-.61-2,3.84,3.84,0,0,0-1.4-1.3,1.86,1.86,0,0,0-1.51-.34c-.23.09-.35.33-.35.71a2.11,2.11,0,0,0,.33,1.07,11.31,11.31,0,0,0,2,2.15,20,20,0,0,1,2.38,2.43,7.75,7.75,0,0,1,1.21,2.18,7.52,7.52,0,0,1,.44,2.58,3.65,3.65,0,0,1-.52,2,1.64,1.64,0,0,1-1.48.78,5.36,5.36,0,0,1-2.38-.85,8.39,8.39,0,0,1-3.19-3.12A10.74,10.74,0,0,1,155.8,92Z"/><path class="cls-71" d="M166,97.9l2.15,1a6.71,6.71,0,0,0,.79,2.58,4.31,4.31,0,0,0,1.6,1.6c.71.41,1.24.52,1.61.33a1.14,1.14,0,0,0,.54-1.1,2.44,2.44,0,0,0-.23-1,4.21,4.21,0,0,0-.79-1.09c-.26-.27-.85-.83-1.77-1.66a12.47,12.47,0,0,1-2.5-2.89,7.12,7.12,0,0,1-1-3.52,3.12,3.12,0,0,1,.47-1.81,1.52,1.52,0,0,1,1.37-.69,4.48,4.48,0,0,1,2.15.73,8.14,8.14,0,0,1,3.1,3,8,8,0,0,1,1.1,3.85L172.38,96a5,5,0,0,0-.61-2,3.92,3.92,0,0,0-1.4-1.3,1.82,1.82,0,0,0-1.51-.34c-.24.09-.35.32-.35.7a2.11,2.11,0,0,0,.33,1.08,11,11,0,0,0,2,2.15,20,20,0,0,1,2.38,2.42,7.81,7.81,0,0,1,1.21,2.19,7.43,7.43,0,0,1,.44,2.58,3.67,3.67,0,0,1-.53,2,1.59,1.59,0,0,1-1.47.77,5.17,5.17,0,0,1-2.38-.84,8.47,8.47,0,0,1-3.19-3.12A10.6,10.6,0,0,1,166,97.9Z"/><path class="cls-78" d="M403.73,270.72a15.25,15.25,0,0,0,6.88,11.91l24.61,14.21c3.78,2.18,6.88.4,6.88-4V264.45a15.25,15.25,0,0,0-6.88-11.91l-24.61-14.21c-3.78-2.18-6.88-.4-6.88,4Z"/><path class="cls-79" d="M442.1,292.87V264.45a15.25,15.25,0,0,0-6.88-11.91l-24.61-14.21a5.14,5.14,0,0,0-4.39-.69h0l4.15-2.54c1.26-.8,3-.73,5,.4L440,249.7a15.26,15.26,0,0,1,6.88,11.92V290c0,2.24-.81,3.81-2.11,4.5l-4.56,2.73h0C441.36,296.51,442.1,295,442.1,292.87Z"/><path class="cls-71" d="M417.29,256.08l2.59,1.5V267a9.39,9.39,0,0,1-.28,2.67,1.81,1.81,0,0,1-1.37,1.29,3.87,3.87,0,0,1-2.62-.72,7.64,7.64,0,0,1-2.93-2.93,8.47,8.47,0,0,1-1-4.21l2.45,1.09a5.91,5.91,0,0,0,.33,2,3,3,0,0,0,1.28,1.54c.58.34,1,.39,1.23.14a3.79,3.79,0,0,0,.36-2.17Z"/><path class="cls-71" d="M421.76,270.45l2.48,1a4,4,0,0,0,.64,1.63,4,4,0,0,0,1.35,1.21,2.18,2.18,0,0,0,1.44.43c.22-.07.32-.26.32-.58a1.35,1.35,0,0,0-.17-.63,4.09,4.09,0,0,0-.83-.86,26,26,0,0,1-3.78-3.57A5.15,5.15,0,0,1,422.1,266a1.74,1.74,0,0,1,1-1.81c.64-.26,1.63,0,3,.77a9.25,9.25,0,0,1,2.84,2.36,7.57,7.57,0,0,1,1.29,2.87l-2.33-.85a3.23,3.23,0,0,0-.57-1.28,3.59,3.59,0,0,0-1.19-1,2.57,2.57,0,0,0-1.39-.49c-.19,0-.29.18-.29.42a1.18,1.18,0,0,0,.25.65,17.69,17.69,0,0,0,2.31,2.14,14.28,14.28,0,0,1,2.75,2.85,4.73,4.73,0,0,1,.77,2.57,1.85,1.85,0,0,1-1.07,1.93c-.71.29-1.77,0-3.17-.77a9.65,9.65,0,0,1-3-2.63A8.31,8.31,0,0,1,421.76,270.45Z"/><path class="cls-80" d="M65.1,155.84A15.25,15.25,0,0,0,72,167.75L96.59,182c3.79,2.19,6.88.4,6.88-4V149.57a15.26,15.26,0,0,0-6.88-11.91L72,123.45c-3.78-2.18-6.88-.39-6.88,4Z"/><path class="cls-81" d="M103.47,178V149.57a15.26,15.26,0,0,0-6.88-11.91L72,123.45a5.12,5.12,0,0,0-4.38-.69h0l4.14-2.54c1.26-.8,3-.73,5,.4l24.61,14.21a15.28,15.28,0,0,1,6.88,11.91v28.42c0,2.24-.81,3.8-2.11,4.49l-4.55,2.73h0C102.73,181.63,103.47,180.12,103.47,178Z"/><path class="cls-71" d="M68.72,150V137.52l1.67,1v4.91l3.29,1.89v-4.91l1.68,1v12.48l-1.67-1v-5.45l-3.28-1.9V151Z"/><path class="cls-71" d="M79,155.91V145.54l-2.46-1.42V142l6.59,3.81v2.11l-2.45-1.42v10.37Z"/><path class="cls-71" d="M84.15,158.91V146.43l2.5,1.44,1.51,9.39,1.49-7.66,2.51,1.46v12.48l-1.55-.9v-9.83L89,161.69l-1.62-.94L85.7,150v9.83Z"/><path class="cls-71" d="M93.87,164.52V152.15l1.68,1v10.28l4.16,2.4v2.11Z"/><path class="cls-82" d="M52.64,209.07a9,9,0,0,0,4.08,7.06l14.59,8.42c2.24,1.3,4.07.24,4.07-2.35V205.35a9,9,0,0,0-4.07-7.06l-14.59-8.42c-2.25-1.3-4.08-.24-4.08,2.35Z"/><path class="cls-83" d="M149.72,153.63a4.73,4.73,0,0,0,2.14,3.71l7.66,4.43c1.18.68,2.15.12,2.15-1.24v-8.85a4.76,4.76,0,0,0-2.15-3.71l-7.66-4.42c-1.18-.68-2.14-.13-2.14,1.23Z"/><path class="cls-84" d="M46.67,92.34a4.75,4.75,0,0,0,2.14,3.71l7.66,4.42c1.18.68,2.15.13,2.15-1.23V90.39a4.76,4.76,0,0,0-2.15-3.72l-7.66-4.42c-1.18-.68-2.14-.12-2.14,1.24Z"/><path class="cls-85" d="M154.2,27.69a4.76,4.76,0,0,0,2.15,3.71L164,35.83c1.18.68,2.15.12,2.15-1.24V25.74A4.76,4.76,0,0,0,164,22l-7.66-4.43c-1.18-.68-2.15-.12-2.15,1.24Z"/><path class="cls-86" d="M207.47,10.38a4.75,4.75,0,0,0,2.14,3.71l7.67,4.42c1.18.68,2.14.13,2.14-1.23V8.43a4.75,4.75,0,0,0-2.14-3.71L209.61.29c-1.18-.68-2.14-.12-2.14,1.24Z"/><path class="cls-87" d="M383.22,92.34a4.77,4.77,0,0,0,2.14,3.71l7.67,4.42c1.18.68,2.14.13,2.14-1.24V90.39A4.75,4.75,0,0,0,393,86.67l-7.67-4.42c-1.17-.68-2.14-.13-2.14,1.24Z"/><path class="cls-88" d="M429.23,91.32A4.75,4.75,0,0,0,431.37,95L439,99.45c1.18.68,2.14.13,2.14-1.24V89.37A4.75,4.75,0,0,0,439,85.65l-7.66-4.42c-1.18-.68-2.14-.12-2.14,1.24Z"/><path class="cls-89" d="M394.85,50A4.75,4.75,0,0,0,397,53.71l7.66,4.43c1.18.68,2.15.12,2.15-1.24V48.05a4.76,4.76,0,0,0-2.15-3.71L397,39.91c-1.18-.68-2.14-.12-2.14,1.24Z"/><path class="cls-90" d="M328.14,152.27a4.75,4.75,0,0,0,2.14,3.71l7.66,4.42c1.18.68,2.15.13,2.15-1.23v-8.86a4.72,4.72,0,0,0-2.15-3.7l-7.66-4.43c-1.18-.68-2.14-.12-2.14,1.24Z"/><path class="cls-91" d="M466.88,186.2a5,5,0,0,0,2.25,3.89l8,4.64c1.24.72,2.25.13,2.25-1.29v-9.29a5,5,0,0,0-2.25-3.89l-8-4.64c-1.24-.72-2.25-.13-2.25,1.3Z"/><path class="cls-92" d="M29.89,156.73A9,9,0,0,0,34,163.79l14.59,8.42c2.25,1.3,4.08.24,4.08-2.35V153A9,9,0,0,0,48.56,146L34,137.53c-2.24-1.3-4.08-.24-4.08,2.35Z"/><path class="cls-93" d="M185.31,40.55a9.08,9.08,0,0,0,4.08,7.07L204,56c2.25,1.29,4.08.23,4.08-2.36V36.84A9,9,0,0,0,204,29.77l-14.59-8.42c-2.24-1.29-4.08-.23-4.08,2.36Z"/><path class="cls-94" d="M461.78,268.27a9,9,0,0,0,4.07,7.06l14.6,8.43c2.24,1.29,4.07.23,4.07-2.36V264.56a9.07,9.07,0,0,0-4.07-7.07l-14.6-8.42c-2.24-1.29-4.07-.24-4.07,2.35Z"/><path class="cls-95" d="M392.36,375.58a9,9,0,0,0,4.08,7.06L411,391.07c2.24,1.29,4.07.23,4.07-2.36V371.86A9,9,0,0,0,411,364.8l-14.59-8.42c-2.25-1.3-4.08-.24-4.08,2.35Z"/><path class="cls-96" d="M407.43,133.53a9,9,0,0,0,4.08,7.06L426.1,149c2.24,1.29,4.08.23,4.08-2.36V129.82a9.08,9.08,0,0,0-4.08-7.07l-14.59-8.42c-2.24-1.29-4.08-.23-4.08,2.35Z"/><path class="cls-97" d="M294.12,117.59a9.08,9.08,0,0,0,4.08,7.07l14.59,8.42c2.24,1.3,4.08.24,4.08-2.35V113.88a9,9,0,0,0-4.08-7.06L298.2,98.39c-2.24-1.29-4.08-.23-4.08,2.36Z"/><path class="cls-98" d="M349,46.47a9,9,0,0,0,4.08,7.06L367.69,62c2.24,1.29,4.08.23,4.08-2.36V42.75a9.06,9.06,0,0,0-4.08-7.06L353.1,27.27C350.85,26,349,27,349,29.62Z"/><path class="cls-99" d="M258,28.57a9.07,9.07,0,0,0,4.07,7.07l14.59,8.42c2.25,1.29,4.08.23,4.08-2.36V24.86a9,9,0,0,0-4.08-7.07L262.09,9.37c-2.24-1.29-4.07-.23-4.07,2.36Z"/><path class="cls-100" d="M406.1,194.6A15.23,15.23,0,0,0,413,206.51l24.61,14.21c3.78,2.18,6.88.4,6.88-4V188.33a15.25,15.25,0,0,0-6.88-11.91L413,162.21c-3.79-2.18-6.88-.4-6.88,4Z"/><path class="cls-101" d="M444.47,216.75V188.33a15.25,15.25,0,0,0-6.88-11.91L413,162.21a5.14,5.14,0,0,0-4.39-.69h0l4.15-2.54c1.25-.79,3-.72,5,.4l24.61,14.21a15.26,15.26,0,0,1,6.88,11.92v28.41c0,2.24-.81,3.8-2.12,4.5l-4.55,2.72h0C443.72,220.39,444.47,218.88,444.47,216.75Z"/><path class="cls-71" d="M418.53,192.09l2.27,2.36c-.34,1.64-.92,2.67-1.73,3.1a3.17,3.17,0,0,1-3.08-.44,9.78,9.78,0,0,1-3.8-4.49,16.5,16.5,0,0,1-1.48-7.13q0-4.2,1.49-5.67t3.93-.06a9,9,0,0,1,3.46,3.82,13.54,13.54,0,0,1,1.18,3.79l-2.32-.53a7.09,7.09,0,0,0-.85-2.57A4.5,4.5,0,0,0,416,182.6a1.52,1.52,0,0,0-2.09.14c-.53.58-.8,1.88-.8,3.89a12.8,12.8,0,0,0,.79,5,5.25,5.25,0,0,0,2,2.55,1.44,1.44,0,0,0,1.61.06A3.29,3.29,0,0,0,418.53,192.09Z"/><path class="cls-71" d="M425.34,199.79v-4.38l-3-1.75v-3l3,1.75V188l2,1.16v4.39l3.05,1.75v3l-3.05-1.76V201Z"/><path class="cls-71" d="M434.79,205.25v-4.38l-3-1.75v-3l3,1.75v-4.38l2,1.17V199l3,1.76v3l-3-1.75v4.38Z"/><path class="cls-102" d="M348.08,124.24A15.23,15.23,0,0,0,355,136.15l24.61,14.21c3.78,2.18,6.88.4,6.88-4V118a15.25,15.25,0,0,0-6.88-11.91L355,91.85c-3.78-2.19-6.88-.4-6.88,4Z"/><path class="cls-103" d="M386.45,146.39V118a15.25,15.25,0,0,0-6.88-11.91L355,91.85a5.14,5.14,0,0,0-4.39-.69h0l4.15-2.54c1.25-.79,3-.72,5,.4l24.62,14.21a15.28,15.28,0,0,1,6.87,11.92v28.41c0,2.24-.81,3.8-2.11,4.5l-4.56,2.72h0C385.71,150,386.45,148.52,386.45,146.39Z"/><path class="cls-71" d="M375.84,123.7l-1.34-.77a2.66,2.66,0,0,1-1.15-1.31c-.11-.41-.17-1.67.2-1.89l.95-.55c.38-.22.38-.92,0-1.58l-1.56-2.71c-.38-.65-1-1-1.37-.79l-.95.55a1,1,0,0,1-1.21-.2,5.48,5.48,0,0,1-1.09-2.23v-1.54a2.15,2.15,0,0,0-1-1.68l-2.22-1.28c-.53-.3-1,0-1,.56v1.55c0,.61-.25,1.07-.55,1a3.42,3.42,0,0,1-1.74-1.25l-.95-1.64c-.37-.65-1-1-1.37-.79l-1.57.9c-.37.22-.37.93,0,1.58l.94,1.65a2.37,2.37,0,0,1,.44,1.64c-.14.25-.85.76-1.38.46l-1.35-.78c-.53-.3-1-.05-1,.56v2.56a2.11,2.11,0,0,0,1,1.67l1.35.78a2.58,2.58,0,0,1,1.15,1.31c.11.41.17,1.67-.21,1.89l-.95.54c-.37.22-.37.93,0,1.58l1.56,2.72c.38.65,1,1,1.37.79l.95-.55a1,1,0,0,1,1.2.2,5.32,5.32,0,0,1,1.09,2.22v1.55a2.16,2.16,0,0,0,1,1.68l2.21,1.28c.54.3,1,0,1-.56v-1.55c0-.62.25-1.07.56-1a3.42,3.42,0,0,1,1.74,1.25l.95,1.64c.37.65,1,1,1.37.79l1.56-.9c.38-.22.38-.93,0-1.59l-.95-1.64a2.4,2.4,0,0,1-.43-1.64c.14-.25.85-.77,1.38-.46l1.34.77c.54.31,1,.06,1-.55v-2.56A2.13,2.13,0,0,0,375.84,123.7Zm-9.59,2.46a10.73,10.73,0,0,1-4.85-8.4c0-3.09,2.17-4.34,4.85-2.8a10.75,10.75,0,0,1,4.85,8.4C371.1,126.45,368.92,127.7,366.25,126.16Z"/><path class="cls-104" d="M398.33,339.47a15.23,15.23,0,0,0,6.88,11.91l24.61,14.21c3.78,2.18,6.88.4,6.88-4V333.2a15.25,15.25,0,0,0-6.88-11.91l-24.61-14.21c-3.79-2.18-6.88-.4-6.88,4Z"/><path class="cls-105" d="M436.7,361.62V333.2a15.25,15.25,0,0,0-6.88-11.91l-24.61-14.21a5.14,5.14,0,0,0-4.39-.69h0l4.15-2.55c1.25-.79,3-.72,5,.41l24.61,14.2a15.26,15.26,0,0,1,6.88,11.92v28.41c0,2.24-.81,3.81-2.12,4.5L434.76,366h0C436,365.26,436.7,363.75,436.7,361.62Z"/><path class="cls-71" d="M426.47,330.5l-1.36-2.35L422,330a25,25,0,0,1,1.53,2.27Z"/><path class="cls-71" d="M412.09,324.24,409,318.83l-1.36.78,3,5.14A4.55,4.55,0,0,1,412.09,324.24Z"/><path class="cls-71" d="M418,326.07v-5.43l-1.92-1.11V325a9,9,0,0,1,1,.44C417.37,325.59,417.68,325.85,418,326.07Z"/><path class="cls-71" d="M404.66,328.34l3.22,1.87a9.09,9.09,0,0,1,.31-2l-3.53-2Z"/><path class="cls-71" d="M425.88,338.38a14.35,14.35,0,0,1,.31,2.4l3.23,1.86v-2.22Z"/><path class="cls-71" d="M417,327.93c-3.87-2.23-7-.42-7,4.05a17.65,17.65,0,0,0,1.84,6.54c1,2.25,2.2,3.64,2.2,5.59v4.18a3.24,3.24,0,0,0,1.46,2.53l3,1.74c.8.46,1.46.08,1.46-.85v-4.17c0-2,1.25-1.92,2.2-3.06a6.25,6.25,0,0,0,1.85-4.4A15.52,15.52,0,0,0,417,327.93Zm3.78,11.65s.87-3.28-3.22-9.91A13.69,13.69,0,0,1,423,340.82Z"/><path class="cls-106" d="M77.27,69a15.26,15.26,0,0,0,6.88,11.92l24.61,14.21c3.78,2.18,6.87.39,6.87-4V62.7a15.28,15.28,0,0,0-6.87-11.92L84.15,36.58c-3.79-2.19-6.88-.4-6.88,4Z"/><path class="cls-107" d="M115.63,91.11V62.7a15.28,15.28,0,0,0-6.87-11.92L84.15,36.58a5.15,5.15,0,0,0-4.39-.7h0l4.15-2.54c1.25-.8,3-.72,5,.4L113.49,48a15.23,15.23,0,0,1,6.88,11.91V88.28c0,2.24-.82,3.8-2.12,4.49L113.7,95.5h0C114.89,94.75,115.63,93.25,115.63,91.11Z"/><path class="cls-71" d="M106,61.47c-3.49-6-9.12-9.28-12.6-7.27-3.26,1.88-3.43,7.72-.57,13.4l-1.49.86-.63-1.08-6.93,4,2.53,4.37,6.93-4-.63-1.08,1.49-.86c3.5,5.31,8.63,8.09,11.89,6.2C109.43,74,109.43,67.5,106,61.47Zm-1.62,11.75c-2.59,1.5-6.78-.92-9.37-5.41S92.38,58.49,95,57s6.78.93,9.37,5.41S106.93,71.73,104.34,73.22Z"/></g></g></svg>