<?xml version="1.0" encoding="utf-8"?>
<!-- Generator: Adobe Illustrator 24.0.1, SVG Export Plug-In . SVG Version: 6.00 Build 0)  -->
<svg version="1.1" xmlns="http://www.w3.org/2000/svg" xmlns:xlink="http://www.w3.org/1999/xlink" x="0px" y="0px"
	 viewBox="0 0 489.9 537" style="enable-background:new 0 0 489.9 537;" xml:space="preserve">
<style type="text/css">
	.st0{opacity:0.7;fill:url(#SVGID_1_);}
	.st1{opacity:0.14;fill:url(#SVGID_2_);}
	.st2{opacity:0.14;fill:url(#SVGID_3_);}
	.st3{opacity:0.7;fill:url(#SVGID_4_);}
	.st4{opacity:0.7;fill:url(#SVGID_5_);}
	.st5{opacity:0.7;fill:url(#SVGID_6_);}
	.st6{opacity:0.7;fill:url(#SVGID_7_);}
	.st7{opacity:0.3;fill:#1ED6FE;}
	.st8{fill:#1ED6FE;}
	.st9{opacity:0.4;fill:#00258A;}
	.st10{fill:url(#SVGID_8_);}
	.st11{fill:url(#SVGID_9_);}
	.st12{fill-rule:evenodd;clip-rule:evenodd;fill:#3A2E52;}
	.st13{fill:#003C5F;}
	.st14{fill:url(#SVGID_10_);}
	.st15{fill:url(#SVGID_11_);}
	.st16{fill:url(#SVGID_12_);}
	.st17{fill:url(#SVGID_13_);}
	.st18{fill:#0A208F;}
	.st19{fill:url(#SVGID_14_);}
	.st20{fill:url(#SVGID_15_);}
	.st21{fill:url(#SVGID_16_);}
	.st22{fill:url(#SVGID_17_);}
	.st23{fill:#0F5578;}
	.st24{fill:url(#SVGID_18_);}
	.st25{fill:url(#SVGID_19_);}
	.st26{fill:url(#SVGID_20_);}
	.st27{fill:url(#SVGID_21_);}
	.st28{fill:url(#SVGID_22_);}
	.st29{fill:url(#SVGID_23_);}
	.st30{fill:#E1E8EC;}
	.st31{fill:#6392AD;}
	.st32{fill:#95C4DF;}
	.st33{fill:#D4DBDF;}
	.st34{fill:url(#SVGID_24_);}
	.st35{fill:url(#SVGID_25_);}
	.st36{fill:url(#SVGID_26_);}
	.st37{fill:#E8EBE8;}
	.st38{fill:url(#SVGID_27_);}
	.st39{opacity:0.2;}
	.st40{fill:url(#SVGID_28_);}
	.st41{fill:url(#SVGID_29_);}
	.st42{opacity:0.2;fill:url(#SVGID_30_);}
	.st43{fill:url(#SVGID_31_);}
	.st44{opacity:0.61;fill:#FFFFFF;}
	.st45{fill:url(#SVGID_32_);}
	.st46{opacity:0.22;fill:url(#SVGID_33_);}
	.st47{opacity:0.15;}
	.st48{fill-rule:evenodd;clip-rule:evenodd;fill:#FFCDA8;}
	.st49{fill-rule:evenodd;clip-rule:evenodd;fill:#D9A782;}
	.st50{fill:#414E52;}
	.st51{opacity:0.5;fill:#FFFFFF;}
	.st52{fill-rule:evenodd;clip-rule:evenodd;fill:#563317;}
	.st53{fill:#563317;}
	.st54{opacity:0.3;fill-rule:evenodd;clip-rule:evenodd;fill:#563317;}
	.st55{fill-rule:evenodd;clip-rule:evenodd;fill:#9D95FE;}
	.st56{fill-rule:evenodd;clip-rule:evenodd;fill:#847CE5;}
	.st57{fill:url(#SVGID_34_);}
	.st58{fill:url(#SVGID_35_);}
	.st59{fill:url(#SVGID_36_);}
	.st60{fill:url(#SVGID_37_);}
	.st61{fill:url(#SVGID_38_);}
	.st62{fill:url(#SVGID_39_);}
	.st63{fill:url(#SVGID_40_);}
	.st64{fill:#444343;}
	.st65{fill:url(#SVGID_41_);}
	.st66{fill:#A9D0E5;}
	.st67{fill:#FF0077;}
	.st68{fill:#73BDE5;}
	.st69{fill:#07B3FA;}
	.st70{fill:#097ABE;}
	.st71{fill:url(#SVGID_42_);}
	.st72{fill:url(#SVGID_43_);}
	.st73{fill:#FFFFFF;}
	.st74{fill:url(#SVGID_44_);}
	.st75{fill:url(#SVGID_45_);}
	.st76{fill:url(#SVGID_46_);}
	.st77{fill:url(#SVGID_47_);}
	.st78{fill:url(#SVGID_48_);}
	.st79{fill:url(#SVGID_49_);}
	.st80{fill:url(#SVGID_50_);}
	.st81{fill:url(#SVGID_51_);}
	.st82{fill:url(#SVGID_52_);}
	.st83{fill:url(#SVGID_53_);}
	.st84{opacity:0.3;fill:url(#SVGID_54_);}
	.st85{opacity:0.3;fill:url(#SVGID_55_);}
	.st86{opacity:0.3;fill:url(#SVGID_56_);}
	.st87{opacity:0.3;fill:url(#SVGID_57_);}
	.st88{opacity:0.3;fill:url(#SVGID_58_);}
	.st89{opacity:0.3;fill:url(#SVGID_59_);}
	.st90{opacity:0.3;fill:url(#SVGID_60_);}
	.st91{opacity:0.3;fill:url(#SVGID_61_);}
	.st92{opacity:0.3;fill:url(#SVGID_62_);}
	.st93{opacity:0.3;fill:url(#SVGID_63_);}
	.st94{opacity:0.3;fill:url(#SVGID_64_);}
	.st95{opacity:0.3;fill:url(#SVGID_65_);}
	.st96{opacity:0.3;fill:url(#SVGID_66_);}
	.st97{opacity:0.3;fill:url(#SVGID_67_);}
	.st98{opacity:0.3;fill:url(#SVGID_68_);}
	.st99{opacity:0.3;fill:url(#SVGID_69_);}
	.st100{opacity:0.3;fill:url(#SVGID_70_);}
	.st101{opacity:0.3;fill:url(#SVGID_71_);}
	.st102{fill:url(#SVGID_72_);}
	.st103{fill:url(#SVGID_73_);}
	.st104{fill:url(#SVGID_74_);}
	.st105{fill:url(#SVGID_75_);}
	.st106{fill:url(#SVGID_76_);}
	.st107{fill:url(#SVGID_77_);}
	.st108{fill:url(#SVGID_78_);}
	.st109{fill:url(#SVGID_79_);}
</style>
<g id="_4">
</g>
<g id="_14__x28__x29_">
	<linearGradient id="SVGID_1_" gradientUnits="userSpaceOnUse" x1="473.1488" y1="216.9326" x2="473.1488" y2="41.644">
		<stop  offset="0" style="stop-color:#000000"/>
		<stop  offset="1" style="stop-color:#48D8F5"/>
	</linearGradient>
	<path class="st0" d="M473.1,52.3c-0.8,0-1.5,0.6-1.5,1.5v163.7h2.9V53.7C474.6,52.9,474,52.3,473.1,52.3z"/>
	<g>
		<g>
			<linearGradient id="SVGID_2_" gradientUnits="userSpaceOnUse" x1="244.9622" y1="531.4509" x2="244.9622" y2="208.6396">
				<stop  offset="0" style="stop-color:#1ED6FE"/>
				<stop  offset="1" style="stop-color:#000000"/>
			</linearGradient>
			<path class="st1" d="M418.2,295.6c95.7,55.2,95.7,144.8,0,200c-95.7,55.2-250.8,55.2-346.4,0c-95.7-55.2-95.7-144.8,0-200
				C167.4,240.4,322.5,240.4,418.2,295.6z"/>
			<linearGradient id="SVGID_3_" gradientUnits="userSpaceOnUse" x1="244.9622" y1="528.2277" x2="244.9622" y2="223.5114">
				<stop  offset="0" style="stop-color:#FFFFFF"/>
				<stop  offset="1" style="stop-color:#000000"/>
			</linearGradient>
			<path class="st2" d="M418.2,295.6c-95.7-55.2-250.8-55.2-346.4,0c-95.7,55.2-95.7,144.8,0,200c95.7,55.2,250.8,55.2,346.4,0
				C513.8,440.4,513.8,350.8,418.2,295.6z M416.4,494.6c-94.7,54.7-248.1,54.7-342.8,0c-94.7-54.7-94.7-143.3,0-197.9
				c94.7-54.7,248.1-54.7,342.8,0C511,351.3,511,439.9,416.4,494.6z"/>
		</g>
		<linearGradient id="SVGID_4_" gradientUnits="userSpaceOnUse" x1="18.2396" y1="357.601" x2="18.2396" y2="67.69">
			<stop  offset="0" style="stop-color:#000000"/>
			<stop  offset="1" style="stop-color:#48D8F5"/>
		</linearGradient>
		<path class="st3" d="M18.2,85.3c-2,0-3.6,1.6-3.6,3.6v269.6h7.1V88.8C21.8,86.8,20.2,85.3,18.2,85.3z"/>
		<linearGradient id="SVGID_5_" gradientUnits="userSpaceOnUse" x1="126.1928" y1="232.0784" x2="126.1928" y2="90.1051">
			<stop  offset="0" style="stop-color:#000000"/>
			<stop  offset="1" style="stop-color:#48D8F5"/>
		</linearGradient>
		<path class="st4" d="M126.2,98.7c-1,0-1.7,0.8-1.7,1.7v132h3.5v-132C127.9,99.5,127.2,98.7,126.2,98.7z"/>
		<linearGradient id="SVGID_6_" gradientUnits="userSpaceOnUse" x1="455.9842" y1="322.62" x2="455.9842" y2="0.4789">
			<stop  offset="0" style="stop-color:#000000"/>
			<stop  offset="1" style="stop-color:#48D8F5"/>
		</linearGradient>
		<path class="st5" d="M456,20c-1.5,0-2.7,1.2-2.7,2.7v300.8h5.3V22.7C458.7,21.2,457.5,20,456,20z"/>
		<linearGradient id="SVGID_7_" gradientUnits="userSpaceOnUse" x1="58.7834" y1="164.6675" x2="58.7834" y2="-10.6229">
			<stop  offset="0" style="stop-color:#000000"/>
			<stop  offset="1" style="stop-color:#48D8F5"/>
		</linearGradient>
		<path class="st6" d="M58.8,0c-0.8,0-1.5,0.7-1.5,1.5v163.7h2.9V1.5C60.2,0.7,59.6,0,58.8,0z"/>
		<g>
			<path class="st7" d="M443.8,72.3c0,3-2.4,5.4-5.4,5.4c-3,0-5.4-2.4-5.4-5.4c0-3,2.4-5.4,5.4-5.4
				C441.4,66.9,443.8,69.3,443.8,72.3z"/>
			<path class="st7" d="M441.9,72.3c0,1.9-1.6,3.5-3.5,3.5c-1.9,0-3.5-1.5-3.5-3.5c0-1.9,1.5-3.5,3.5-3.5
				C440.3,68.8,441.9,70.4,441.9,72.3z"/>
			<path class="st8" d="M440.7,72.3c0,1.3-1,2.3-2.3,2.3c-1.3,0-2.3-1-2.3-2.3c0-1.3,1-2.3,2.3-2.3C439.7,70,440.7,71,440.7,72.3z"
				/>
		</g>
		<g>
			<path class="st7" d="M46.7,51.1c0,3-2.4,5.4-5.4,5.4c-3,0-5.4-2.4-5.4-5.4c0-3,2.4-5.4,5.4-5.4C44.2,45.7,46.7,48.1,46.7,51.1z"
				/>
			<path class="st7" d="M44.7,51.1c0,1.9-1.6,3.5-3.5,3.5c-1.9,0-3.5-1.5-3.5-3.5c0-1.9,1.5-3.5,3.5-3.5
				C43.2,47.6,44.7,49.2,44.7,51.1z"/>
			<path class="st8" d="M43.6,51.1c0,1.3-1,2.3-2.3,2.3c-1.3,0-2.3-1-2.3-2.3c0-1.3,1-2.3,2.3-2.3C42.5,48.8,43.6,49.8,43.6,51.1z"
				/>
		</g>
		<g>
			<path class="st7" d="M116.6,27.4c0,1.8-1.4,3.2-3.2,3.2c-1.8,0-3.2-1.4-3.2-3.2c0-1.8,1.4-3.2,3.2-3.2
				C115.2,24.2,116.6,25.7,116.6,27.4z"/>
			<path class="st7" d="M115.5,27.4c0,1.1-0.9,2-2.1,2c-1.1,0-2-0.9-2-2c0-1.1,0.9-2,2-2C114.6,25.4,115.5,26.3,115.5,27.4z"/>
			<path class="st8" d="M114.8,27.4c0,0.8-0.6,1.4-1.4,1.4c-0.7,0-1.4-0.6-1.4-1.4c0-0.8,0.6-1.4,1.4-1.4
				C114.2,26.1,114.8,26.7,114.8,27.4z"/>
		</g>
		<g>
			<path class="st7" d="M106.7,133.5c0,1.8-1.4,3.2-3.2,3.2s-3.2-1.4-3.2-3.2c0-1.8,1.4-3.2,3.2-3.2S106.7,131.7,106.7,133.5z"/>
			<path class="st7" d="M105.5,133.5c0,1.1-0.9,2-2.1,2c-1.1,0-2-0.9-2-2c0-1.1,0.9-2,2-2C104.6,131.4,105.5,132.3,105.5,133.5z"/>
			<path class="st8" d="M104.8,133.5c0,0.8-0.6,1.4-1.4,1.4c-0.7,0-1.4-0.6-1.4-1.4c0-0.8,0.6-1.4,1.4-1.4
				C104.2,132.1,104.8,132.7,104.8,133.5z"/>
		</g>
		<g>
			<path class="st7" d="M49.9,227.6c0,1.8-1.4,3.2-3.2,3.2c-1.8,0-3.2-1.4-3.2-3.2c0-1.8,1.4-3.2,3.2-3.2
				C48.4,224.4,49.9,225.8,49.9,227.6z"/>
			<path class="st7" d="M48.7,227.6c0,1.1-0.9,2-2.1,2c-1.1,0-2-0.9-2-2c0-1.1,0.9-2,2-2C47.8,225.5,48.7,226.4,48.7,227.6z"/>
			<path class="st8" d="M48,227.6c0,0.8-0.6,1.4-1.4,1.4c-0.7,0-1.4-0.6-1.4-1.4c0-0.8,0.6-1.4,1.4-1.4
				C47.4,226.2,48,226.8,48,227.6z"/>
		</g>
		<g>
			<path class="st7" d="M382.8,184c0,1.8-1.4,3.2-3.2,3.2c-1.8,0-3.2-1.4-3.2-3.2c0-1.8,1.4-3.2,3.2-3.2
				C381.4,180.8,382.8,182.2,382.8,184z"/>
			<path class="st7" d="M381.7,184c0,1.1-0.9,2-2.1,2c-1.1,0-2-0.9-2-2c0-1.1,0.9-2,2-2C380.7,181.9,381.7,182.9,381.7,184z"/>
			<path class="st8" d="M381,184c0,0.8-0.6,1.4-1.4,1.4c-0.7,0-1.4-0.6-1.4-1.4c0-0.8,0.6-1.4,1.4-1.4
				C380.4,182.6,381,183.2,381,184z"/>
		</g>
		<g>
			<path class="st7" d="M392.4,39.4c0,1.8-1.4,3.2-3.2,3.2c-1.8,0-3.2-1.4-3.2-3.2c0-1.8,1.4-3.2,3.2-3.2
				C391,36.2,392.4,37.6,392.4,39.4z"/>
			<path class="st7" d="M391.2,39.4c0,1.1-0.9,2-2.1,2c-1.1,0-2-0.9-2-2c0-1.1,0.9-2,2-2C390.3,37.4,391.2,38.3,391.2,39.4z"/>
			<path class="st8" d="M390.6,39.4c0,0.8-0.6,1.4-1.4,1.4c-0.7,0-1.4-0.6-1.4-1.4c0-0.8,0.6-1.4,1.4-1.4
				C389.9,38,390.6,38.7,390.6,39.4z"/>
		</g>
		<g>
			<path class="st7" d="M333.6,40.8c0,1.8-1.4,3.2-3.2,3.2c-1.8,0-3.2-1.4-3.2-3.2c0-1.8,1.4-3.2,3.2-3.2
				C332.2,37.6,333.6,39,333.6,40.8z"/>
			<path class="st7" d="M332.5,40.8c0,1.1-0.9,2-2.1,2c-1.1,0-2-0.9-2-2c0-1.1,0.9-2,2-2C331.6,38.7,332.5,39.6,332.5,40.8z"/>
			<path class="st8" d="M331.8,40.8c0,0.8-0.6,1.4-1.4,1.4c-0.7,0-1.4-0.6-1.4-1.4c0-0.8,0.6-1.4,1.4-1.4
				C331.2,39.4,331.8,40,331.8,40.8z"/>
		</g>
		<g>
			<path class="st9" d="M377.1,400.4L202.2,299.6l-96.2,56.2l44.8,25.9c-14,1.8-27.3,5.9-38.2,12.2c-30.8,17.8-30.8,46.6,0,64.3
				c30.8,17.8,80.7,17.8,111.5,0c10.9-6.3,17.9-14,21.1-22.1l35.7,20.5L377.1,400.4z"/>
			<linearGradient id="SVGID_8_" gradientUnits="userSpaceOnUse" x1="328.458" y1="375.7501" x2="336.6815" y2="362.2936">
				<stop  offset="0" style="stop-color:#328DE0"/>
				<stop  offset="1" style="stop-color:#172D9C"/>
			</linearGradient>
			<path class="st10" d="M373,301.5c0-5.3-3.8-7.5-8.4-4.9l-60.9,35.2v5.7l57.2-33c4.1-2.4,7.5-0.4,7.5,4.3l0,72.3
				c0,4.7-3.4,10.5-7.5,12.9l-57.2,33v5.7l3.6,2.6l57.4-37.8c4.6-2.7,8.4-9.2,8.4-14.6L373,301.5z"/>
			<linearGradient id="SVGID_9_" gradientUnits="userSpaceOnUse" x1="289.4141" y1="517.0778" x2="370.5434" y2="276.0461">
				<stop  offset="0" style="stop-color:#328DE0"/>
				<stop  offset="1" style="stop-color:#172D9C"/>
			</linearGradient>
			<path class="st11" d="M376.5,304.2c0-5.3-3.8-7.5-8.4-4.9l-60.9,35.2v5.7l57.2-33c4.1-2.4,7.5-0.4,7.5,4.3l0,72.3
				c0,4.7-3.4,10.5-7.5,12.9l-57.2,33v5.7l60.9-35.2c4.6-2.7,8.4-9.2,8.4-14.6L376.5,304.2z"/>
			<g>
				<path class="st12" d="M185.2,405.5l-0.9,6.3c0,0-0.4,4.2,4.7,4.6c5.2,0.5,7-3,8.6-5.5c1.5-2.5,5.3-7.6,9.4-8.3
					c4.1-0.7,11.7-7.3,10-11.4c-1.5-3.5-10.2-4.8-18.7,0.9v2.3c0,0,0,5.6-4.7,8.1C188.8,404.9,185.2,405.5,185.2,405.5z"/>
				<path class="st13" d="M201.4,368.8c0-0.3,0-0.7,0-1c-6.3,2.5-13.7,5.5-21.1,8.5l3.8,30.2c0,0,9.2,3.9,15.2-2.7
					c6-6.6,4.5-14.4,4.5-14.4S201.1,375.7,201.4,368.8z"/>
			</g>
			<g>
				<g>
					<linearGradient id="SVGID_10_" gradientUnits="userSpaceOnUse" x1="136.8027" y1="453.9522" x2="131.6277" y2="462.9157">
						<stop  offset="0" style="stop-color:#328DE0"/>
						<stop  offset="1" style="stop-color:#172D9C"/>
					</linearGradient>
					<path class="st14" d="M138.6,454.8l-3.5-1.9c-0.7-0.4-1.6-0.3-2.7,0.3c-2.1,1.2-3.8,4.1-3.8,6.5c0,1.2,0.4,2.1,1.1,2.4l3.5,1.9
						c0.7,0.4,1.6,0.3,2.6-0.3c2.1-1.2,3.8-4.1,3.8-6.5C139.7,456,139.3,455.2,138.6,454.8z"/>
				</g>
				<g>
					<linearGradient id="SVGID_11_" gradientUnits="userSpaceOnUse" x1="203.3803" y1="449.7656" x2="198.2061" y2="458.7274">
						<stop  offset="0" style="stop-color:#328DE0"/>
						<stop  offset="1" style="stop-color:#172D9C"/>
					</linearGradient>
					<path class="st15" d="M205.2,450.6l-3.5-1.9c-0.7-0.4-1.6-0.3-2.7,0.3c-2.1,1.2-3.8,4.1-3.8,6.5c0,1.2,0.4,2.1,1.1,2.4l3.5,1.9
						c0.7,0.4,1.6,0.3,2.6-0.3c2.1-1.2,3.8-4.1,3.8-6.5C206.3,451.9,205.9,451,205.2,450.6z"/>
				</g>
				<g>
					<linearGradient id="SVGID_12_" gradientUnits="userSpaceOnUse" x1="214.3829" y1="409.785" x2="209.2112" y2="418.7427">
						<stop  offset="0" style="stop-color:#328DE0"/>
						<stop  offset="1" style="stop-color:#172D9C"/>
					</linearGradient>
					<path class="st16" d="M216.2,410.6l-3.5-1.9c-0.7-0.4-1.6-0.3-2.7,0.3c-2.1,1.2-3.8,4.1-3.8,6.5c0,1.2,0.4,2.1,1.1,2.4l3.5,1.9
						c0.7,0.4,1.6,0.3,2.7-0.3c2.1-1.2,3.8-4.1,3.8-6.5C217.3,411.9,216.9,411,216.2,410.6z"/>
				</g>
				<g>
					<linearGradient id="SVGID_13_" gradientUnits="userSpaceOnUse" x1="106.9191" y1="420.0055" x2="101.744" y2="428.9691">
						<stop  offset="0" style="stop-color:#328DE0"/>
						<stop  offset="1" style="stop-color:#172D9C"/>
					</linearGradient>
					<path class="st17" d="M108.7,420.9l-3.5-1.9c-0.7-0.4-1.6-0.3-2.7,0.3c-2.1,1.2-3.8,4.1-3.8,6.5c0,1.2,0.4,2.1,1.1,2.4l3.5,1.9
						c0.7,0.4,1.6,0.3,2.7-0.3c2.1-1.2,3.8-4.1,3.8-6.5C109.8,422.1,109.4,421.3,108.7,420.9z"/>
				</g>
				<path class="st18" d="M217.5,404.3c-0.1-2.7-1.2-4.1-2.1-4.6c-0.9-0.5-3.7,0-3.7,0l-42.9,12.5v-9.8c0-1.2-0.8-2.4-2.4-3.3
					c-3.2-1.8-8.3-1.8-11.4,0c-1.6,0.9-2.4,2.1-2.4,3.3v11.3l-50.8-4.6c0,0-2.2,0.3-2.7,1.8c-0.5,1.5-1.4,4.5-1.4,6.8
					c-0.1,2.3,0.9,3.7,3.6,4c2.2,0.3,36.2,3.9,46.9,5.1l0,0C142.6,433.2,131,447,131,447s-1.2,1.8-1.3,4.1c-0.1,2.3-0.3,5.7-0.3,5.7
					s0.6,1.8,3.3,1.6c2.7-0.1,4.2-1.6,7.2-4.7c3-3,19.7-21.2,19.7-21.2s0,0,0-0.1c2.2,0.2,4.4-0.1,6.2-0.9c0,0.1,0,0.1,0,0.1
					s29.4,17.7,34.1,20.2c4.7,2.5,6.5-0.9,6.5-0.9s0-3.5-0.2-6c-0.2-2.5-2-4.7-2-4.7s-22-13.5-27.4-16.5c-0.4-0.2-0.8-0.4-1.2-0.7
					c0,0,0,0,0,0c8.7-2.5,30.9-8.8,34-9.7c4-1.2,7.9-2.8,7.9-2.8S217.6,407,217.5,404.3z"/>
				<linearGradient id="SVGID_14_" gradientUnits="userSpaceOnUse" x1="163.5199" y1="429.7352" x2="204.4137" y2="429.7352">
					<stop  offset="0" style="stop-color:#328DE0"/>
					<stop  offset="1" style="stop-color:#172D9C"/>
				</linearGradient>
				<path class="st19" d="M198.1,440.4c2.5,1.6,4.3,1.9,5.4,1.7c1.1-0.2,1-1.3,0.8-1.6c-0.1-0.1-0.2-0.2-0.2-0.2s-22-13.5-27.4-16.5
					c-5.4-2.9-7.8-6.6-7.8-6.6c-1.6,2.3-5.4,3.2-5.4,3.2c1.6,0,5.6,2.5,5.6,2.5S195.6,438.9,198.1,440.4z"/>
				<linearGradient id="SVGID_15_" gradientUnits="userSpaceOnUse" x1="130.9833" y1="432.3488" x2="159.0047" y2="432.3488">
					<stop  offset="0" style="stop-color:#328DE0"/>
					<stop  offset="1" style="stop-color:#172D9C"/>
				</linearGradient>
				<path class="st20" d="M159,420.8c-1,0.4-2.8,2.4-2.8,2.4s-17.6,21-19,22.8c-1.3,1.7-3.8,2.6-5,2.4c-1.3-0.2-1.2-1.4-1.2-1.4
					s16.5-19.6,19.7-23c0.9-1,1.5-1.8,2-2.5v-5.2c0,0,1.2,2,2.9,2.9C157.3,420.2,159,420.8,159,420.8z"/>
				<linearGradient id="SVGID_16_" gradientUnits="userSpaceOnUse" x1="168.9092" y1="406.8591" x2="216.234" y2="406.8591">
					<stop  offset="0" style="stop-color:#328DE0"/>
					<stop  offset="1" style="stop-color:#172D9C"/>
				</linearGradient>
				<path class="st21" d="M215.4,399.7c-0.9-0.5-3.7,0-3.7,0l-42.9,12.5v2.1l44.2-12c0,0,2.4-0.7,3.1-1.9
					C216,400.1,215.7,399.8,215.4,399.7z"/>
				<linearGradient id="SVGID_17_" gradientUnits="userSpaceOnUse" x1="99.3463" y1="412.618" x2="152.7209" y2="412.618">
					<stop  offset="0" style="stop-color:#328DE0"/>
					<stop  offset="1" style="stop-color:#172D9C"/>
				</linearGradient>
				<path class="st22" d="M99.3,410.6c0.8,1.1,3,1.4,3,1.4l50.4,4.3v-2.5l-50.8-4.6C101.9,409,100,409.3,99.3,410.6z"/>
			</g>
			<g>
				<g>
					<path class="st12" d="M246.8,412c-5.9,0.1-10.9,3-17.2-1c0,0-4.6,5.1-15.7,5.7l-1.8,4.2c0,0-1.6,3.3-1.5,8.2c0,0,2.2,5.1,9.1,4
						c6.9-1.1,8.7-3.3,17-2.5c7.3,0.7,17.9-2.9,20.8-9.5C260.2,414.5,253.2,411.9,246.8,412z"/>
					<path class="st23" d="M218.7,361c0,0-4.8,5.6-4.2,14.4c0.6,8.8-2.9,41.8-4.9,50.4c0,0,17.1,0.9,24.4-3.5
						c7.3-4.4,4.5-8.6,4.5-8.6s-1.6-11.7-0.8-19.9c0.8-8.2,7-36.2,8.3-48.5c0,0,1.2-8.7-5.1-7.8C234.6,338.4,224.2,349.4,218.7,361z
						"/>
				</g>
				<path class="st13" d="M222.2,372.1c-0.3-9,2.4-13.6,2.4-13.6c-3,1.9-5.9,2.5-5.9,2.5s-4.8,5.6-4.2,14.4
					c0.6,8.8-2.9,41.8-4.9,50.4c0,0,6.5,0.3,13.2-0.4C224.2,408.1,222.5,379.5,222.2,372.1z"/>
			</g>
			<g>
				<linearGradient id="SVGID_18_" gradientUnits="userSpaceOnUse" x1="103.0653" y1="366.37" x2="222.7051" y2="366.37">
					<stop  offset="0" style="stop-color:#328DE0"/>
					<stop  offset="1" style="stop-color:#172D9C"/>
				</linearGradient>
				<path class="st24" d="M103.2,374.7c0,0-1.4,6.8,4.8,12.7c6.2,5.9,21.1,15.6,31.1,17.5c10,1.9,30.5-2.8,40.8-7.5
					c10.3-4.7,33.7-19.3,37.7-22.7c4-3.4,5.7-7,4.8-10.3c-0.8-3.3-7.4-5.4-9.5-6.1c-2.2-0.7-22.6-10.5-28.8-15.2
					c-6.2-4.8-12.2-9.1-14.2-11.3c-2-2.2-7.3-6-17.2-3.7c-9.9,2.3-24.7,9.4-35.9,22.6C105.7,363.9,103.2,374.7,103.2,374.7z"/>
				<linearGradient id="SVGID_19_" gradientUnits="userSpaceOnUse" x1="202.1911" y1="359.3713" x2="113.4617" y2="396.739">
					<stop  offset="0" style="stop-color:#328DE0"/>
					<stop  offset="1" style="stop-color:#172D9C"/>
				</linearGradient>
				<path class="st25" d="M222.5,364.4c-0.3-1-1.1-1.9-2.1-2.7c0.4,1.2,0.6,2.5-0.2,3.5c-1.8,2.5-14.9,11.9-24.9,17
					c-10,5.2-28.1,17-46.3,17.9c0,0-12.7-2.2-27.8-10.4c-10.8-5.8-15.4-13.6-17.1-17.6c-0.6,1.7-0.8,2.7-0.8,2.7s-1.4,6.8,4.8,12.7
					c6.2,5.9,21.1,15.6,31.1,17.5c10,1.9,30.5-2.8,40.8-7.5c10.3-4.7,33.7-19.3,37.7-22.7C221.6,371.3,223.3,367.7,222.5,364.4z"/>
				<linearGradient id="SVGID_20_" gradientUnits="userSpaceOnUse" x1="149.6055" y1="339.0235" x2="180.571" y2="387.2591">
					<stop  offset="0" style="stop-color:#328DE0"/>
					<stop  offset="1" style="stop-color:#172D9C"/>
				</linearGradient>
				<path class="st26" d="M146,392.5c0,0,6.9,2,17.6-1c10.7-3,29.9-13.8,36.9-17.9c7.1-4,15.1-10.1,15.8-11.5
					c0.7-1.4-0.6-2.2-2.9-3.1c-2.3-0.9-23-9.7-28.8-14.4c-5.8-4.7-15.2-11.5-16.6-13.2c-1.5-1.6-6.8-4.7-14.5-2.5
					c0,0-27.6,9.4-36,26.6C109.1,372.9,133.7,390.6,146,392.5z"/>
			</g>
			<path class="st23" d="M218.7,361c0,0-21.9,8.5-41.6,16.6c-18.9,7.8-30.1,4.5-37.7-3.8c-10.1-11-5.5-35.2-5.5-35.2l44-3.6
				c0,0,38.6-7.2,53.7-7.6c15.1-0.4,15.1,12.2,14.5,17.9C246,345.3,240.7,354.7,218.7,361z"/>
			<path class="st13" d="M139.4,373.8c-10.1-11-5.5-35.2-5.5-35.2l44-3.6c0,0,12.3-2.3,25.7-4.4c0.5-7.5-0.5-21.7-13.7-21.2
				c-16,0.6-52,18.5-52,18.5l-13.7,3.7c0,0-6.3,15.9-1,29.4c4.3,11.2,9.9,13.1,17.4,14.1C140.2,374.7,139.8,374.3,139.4,373.8z"/>
			<g>
				<linearGradient id="SVGID_21_" gradientUnits="userSpaceOnUse" x1="227.0677" y1="236.6755" x2="429.1033" y2="611.146">
					<stop  offset="0" style="stop-color:#328DE0"/>
					<stop  offset="1" style="stop-color:#172D9C"/>
				</linearGradient>
				<polygon class="st27" points="390.8,294.5 283.2,356.8 103.3,252.7 210.8,193.7 				"/>
				<linearGradient id="SVGID_22_" gradientUnits="userSpaceOnUse" x1="234.0799" y1="438.9191" x2="401.6284" y2="258.3572">
					<stop  offset="0" style="stop-color:#2580D3"/>
					<stop  offset="1" style="stop-color:#0A208F"/>
				</linearGradient>
				<polygon class="st28" points="390.8,299.3 283.2,361.5 283.2,356.8 390.8,294.5 				"/>
				<linearGradient id="SVGID_23_" gradientUnits="userSpaceOnUse" x1="178.5091" y1="417.5826" x2="199.0054" y2="263.6973">
					<stop  offset="0" style="stop-color:#2580D3"/>
					<stop  offset="1" style="stop-color:#0A208F"/>
				</linearGradient>
				<polygon class="st29" points="283.2,356.8 283.2,361.5 103.3,257.4 103.3,252.7 				"/>
			</g>
			<g>
				<path class="st30" d="M249.7,307c-0.5,0.3-1.4,0.3-1.9,0l-77.3-44.6c-0.5-0.3-0.5-0.8,0-1.1l24.5-14.1c0.5-0.3,1.4-0.3,1.9,0
					l77.3,44.6c0.5,0.3,0.5,0.8,0,1.1L249.7,307z"/>
				<path class="st31" d="M274.2,292.9L249.7,307c-0.5,0.3-1.4,0.3-1.9,0l-77.3-44.6c-0.3-0.2-0.4-0.4-0.4-0.6l0,0l0,1.3
					c0,0.2,0.1,0.4,0.4,0.6l77.3,44.6c0.5,0.3,1.4,0.3,1.9,0l24.5-14.1c0.3-0.1,0.4-0.4,0.4-0.6l0-1.3
					C274.5,292.5,274.4,292.7,274.2,292.9z"/>
				<g>
					<path class="st32" d="M190.8,255.1c-0.1,0.1-0.3,0.1-0.5,0l-1.8-1c-0.1-0.1-0.1-0.2,0-0.3l1.8-1c0.1-0.1,0.3-0.1,0.5,0l1.8,1
						c0.1,0.1,0.1,0.2,0,0.3L190.8,255.1z"/>
					<path class="st32" d="M193.9,256.9c-0.1,0.1-0.3,0.1-0.5,0l-1.8-1c-0.1-0.1-0.1-0.2,0-0.3l1.8-1c0.1-0.1,0.3-0.1,0.5,0l1.8,1
						c0.1,0.1,0.1,0.2,0,0.3L193.9,256.9z"/>
					<path class="st32" d="M197,258.7c-0.1,0.1-0.3,0.1-0.5,0l-1.8-1c-0.1-0.1-0.1-0.2,0-0.3l1.8-1c0.1-0.1,0.3-0.1,0.5,0l1.8,1
						c0.1,0.1,0.1,0.2,0,0.3L197,258.7z"/>
					<path class="st32" d="M200.1,260.5c-0.1,0.1-0.3,0.1-0.5,0l-1.8-1c-0.1-0.1-0.1-0.2,0-0.3l1.8-1c0.1-0.1,0.3-0.1,0.5,0l1.8,1
						c0.1,0.1,0.1,0.2,0,0.3L200.1,260.5z"/>
					<path class="st32" d="M203.2,262.2c-0.1,0.1-0.3,0.1-0.5,0l-1.8-1c-0.1-0.1-0.1-0.2,0-0.3l1.8-1c0.1-0.1,0.3-0.1,0.5,0l1.8,1
						c0.1,0.1,0.1,0.2,0,0.3L203.2,262.2z"/>
					<path class="st32" d="M206.3,264c-0.1,0.1-0.3,0.1-0.5,0l-1.8-1c-0.1-0.1-0.1-0.2,0-0.3l1.8-1c0.1-0.1,0.3-0.1,0.5,0l1.8,1
						c0.1,0.1,0.1,0.2,0,0.3L206.3,264z"/>
					<path class="st32" d="M209.4,265.8c-0.1,0.1-0.3,0.1-0.5,0l-1.8-1c-0.1-0.1-0.1-0.2,0-0.3l1.8-1c0.1-0.1,0.3-0.1,0.5,0l1.8,1
						c0.1,0.1,0.1,0.2,0,0.3L209.4,265.8z"/>
					<path class="st32" d="M212.5,267.6c-0.1,0.1-0.3,0.1-0.5,0l-1.8-1c-0.1-0.1-0.1-0.2,0-0.3l1.8-1c0.1-0.1,0.3-0.1,0.5,0l1.8,1
						c0.1,0.1,0.1,0.2,0,0.3L212.5,267.6z"/>
					<path class="st32" d="M215.6,269.4c-0.1,0.1-0.3,0.1-0.5,0l-1.8-1c-0.1-0.1-0.1-0.2,0-0.3l1.8-1c0.1-0.1,0.3-0.1,0.5,0l1.8,1
						c0.1,0.1,0.1,0.2,0,0.3L215.6,269.4z"/>
					<path class="st32" d="M218.7,271.2c-0.1,0.1-0.3,0.1-0.5,0l-1.8-1c-0.1-0.1-0.1-0.2,0-0.3l1.8-1c0.1-0.1,0.3-0.1,0.5,0l1.8,1
						c0.1,0.1,0.1,0.2,0,0.3L218.7,271.2z"/>
					<path class="st32" d="M221.8,273c-0.1,0.1-0.3,0.1-0.5,0l-1.8-1c-0.1-0.1-0.1-0.2,0-0.3l1.8-1c0.1-0.1,0.3-0.1,0.5,0l1.8,1
						c0.1,0.1,0.1,0.2,0,0.3L221.8,273z"/>
					<path class="st32" d="M253.3,291.1c-0.1,0.1-0.3,0.1-0.5,0l-1.8-1c-0.1-0.1-0.1-0.2,0-0.3l1.8-1c0.1-0.1,0.3-0.1,0.5,0l1.8,1
						c0.1,0.1,0.1,0.2,0,0.3L253.3,291.1z"/>
					<path class="st32" d="M256.4,292.9c-0.1,0.1-0.3,0.1-0.5,0l-1.8-1c-0.1-0.1-0.1-0.2,0-0.3l1.8-1c0.1-0.1,0.3-0.1,0.5,0l1.8,1
						c0.1,0.1,0.1,0.2,0,0.3L256.4,292.9z"/>
					<path class="st32" d="M259.5,294.7c-0.1,0.1-0.3,0.1-0.5,0l-1.8-1c-0.1-0.1-0.1-0.2,0-0.3l1.8-1c0.1-0.1,0.3-0.1,0.5,0l1.8,1
						c0.1,0.1,0.1,0.2,0,0.3L259.5,294.7z"/>
					<path class="st32" d="M262.6,296.5c-0.1,0.1-0.3,0.1-0.5,0l-1.8-1c-0.1-0.1-0.1-0.2,0-0.3l1.8-1c0.1-0.1,0.3-0.1,0.5,0l1.8,1
						c0.1,0.1,0.1,0.2,0,0.3L262.6,296.5z"/>
					<path class="st32" d="M250.1,293c-0.1,0.1-0.3,0.1-0.5,0l-1.8-1c-0.1-0.1-0.1-0.2,0-0.3l1.8-1c0.1-0.1,0.3-0.1,0.5,0l1.8,1
						c0.1,0.1,0.1,0.2,0,0.3L250.1,293z"/>
					<path class="st32" d="M253.2,294.7c-0.1,0.1-0.3,0.1-0.5,0l-1.8-1c-0.1-0.1-0.1-0.2,0-0.3l1.8-1c0.1-0.1,0.3-0.1,0.5,0l1.8,1
						c0.1,0.1,0.1,0.2,0,0.3L253.2,294.7z"/>
					<path class="st32" d="M256.3,296.5c-0.1,0.1-0.3,0.1-0.5,0l-1.8-1c-0.1-0.1-0.1-0.2,0-0.3l1.8-1c0.1-0.1,0.3-0.1,0.5,0l1.8,1
						c0.1,0.1,0.1,0.2,0,0.3L256.3,296.5z"/>
					<path class="st32" d="M247,294.8c-0.1,0.1-0.3,0.1-0.5,0l-1.8-1c-0.1-0.1-0.1-0.2,0-0.3l1.8-1c0.1-0.1,0.3-0.1,0.5,0l1.8,1
						c0.1,0.1,0.1,0.2,0,0.3L247,294.8z"/>
					<path class="st32" d="M250.1,296.6c-0.1,0.1-0.3,0.1-0.5,0l-1.8-1c-0.1-0.1-0.1-0.2,0-0.3l1.8-1c0.1-0.1,0.3-0.1,0.5,0l1.8,1
						c0.1,0.1,0.1,0.2,0,0.3L250.1,296.6z"/>
					<path class="st32" d="M253.2,298.4c-0.1,0.1-0.3,0.1-0.5,0l-1.8-1c-0.1-0.1-0.1-0.2,0-0.3l1.8-1c0.1-0.1,0.3-0.1,0.5,0l1.8,1
						c0.1,0.1,0.1,0.2,0,0.3L253.2,298.4z"/>
					<path class="st32" d="M256.3,300.1c-0.1,0.1-0.3,0.1-0.5,0l-1.8-1c-0.1-0.1-0.1-0.2,0-0.3l4.9-2.8c0.1-0.1,0.3-0.1,0.5,0l1.8,1
						c0.1,0.1,0.1,0.2,0,0.3L256.3,300.1z"/>
					<path class="st32" d="M243.8,296.6c-0.1,0.1-0.3,0.1-0.5,0l-1.8-1c-0.1-0.1-0.1-0.2,0-0.3l1.8-1c0.1-0.1,0.3-0.1,0.5,0l1.8,1
						c0.1,0.1,0.1,0.2,0,0.3L243.8,296.6z"/>
					<path class="st32" d="M246.9,298.4c-0.1,0.1-0.3,0.1-0.5,0l-1.8-1c-0.1-0.1-0.1-0.2,0-0.3l1.8-1c0.1-0.1,0.3-0.1,0.5,0l1.8,1
						c0.1,0.1,0.1,0.2,0,0.3L246.9,298.4z"/>
					<path class="st32" d="M250,300.2c-0.1,0.1-0.3,0.1-0.5,0l-1.8-1c-0.1-0.1-0.1-0.2,0-0.3l1.8-1c0.1-0.1,0.3-0.1,0.5,0l1.8,1
						c0.1,0.1,0.1,0.2,0,0.3L250,300.2z"/>
					<path class="st32" d="M243.7,300.2c-0.1,0.1-0.3,0.1-0.5,0l-4.8-2.8c-0.1-0.1-0.1-0.2,0-0.3l1.8-1c0.1-0.1,0.3-0.1,0.5,0
						l4.8,2.8c0.1,0.1,0.1,0.2,0,0.3L243.7,300.2z"/>
					<path class="st32" d="M246.9,302c-0.1,0.1-0.3,0.1-0.5,0l-1.8-1c-0.1-0.1-0.1-0.2,0-0.3l1.8-1c0.1-0.1,0.3-0.1,0.5,0l1.8,1
						c0.1,0.1,0.1,0.2,0,0.3L246.9,302z"/>
					<path class="st32" d="M250,303.8c-0.1,0.1-0.3,0.1-0.5,0l-1.8-1c-0.1-0.1-0.1-0.2,0-0.3l4.9-2.8c0.1-0.1,0.3-0.1,0.5,0l1.8,1
						c0.1,0.1,0.1,0.2,0,0.3L250,303.8z"/>
					<path class="st32" d="M224.9,274.8c-0.1,0.1-0.3,0.1-0.5,0l-1.8-1c-0.1-0.1-0.1-0.2,0-0.3l1.8-1c0.1-0.1,0.3-0.1,0.5,0l1.8,1
						c0.1,0.1,0.1,0.2,0,0.3L224.9,274.8z"/>
					<path class="st32" d="M241,284.1c-0.1,0.1-0.3,0.1-0.5,0l-1.8-1c-0.1-0.1-0.1-0.2,0-0.3l1.8-1c0.1-0.1,0.3-0.1,0.5,0l1.8,1
						c0.1,0.1,0.1,0.2,0,0.3L241,284.1z"/>
					<path class="st32" d="M244.1,285.8c-0.1,0.1-0.3,0.1-0.5,0l-1.8-1c-0.1-0.1-0.1-0.2,0-0.3l1.8-1c0.1-0.1,0.3-0.1,0.5,0l1.8,1
						c0.1,0.1,0.1,0.2,0,0.3L244.1,285.8z"/>
					<path class="st32" d="M247.2,287.6c-0.1,0.1-0.3,0.1-0.5,0l-1.8-1c-0.1-0.1-0.1-0.2,0-0.3l1.8-1c0.1-0.1,0.3-0.1,0.5,0l1.8,1
						c0.1,0.1,0.1,0.2,0,0.3L247.2,287.6z"/>
					<path class="st32" d="M237.8,285.9c-0.1,0.1-0.3,0.1-0.5,0l-1.8-1c-0.1-0.1-0.1-0.2,0-0.3l1.8-1c0.1-0.1,0.3-0.1,0.5,0l1.8,1
						c0.1,0.1,0.1,0.2,0,0.3L237.8,285.9z"/>
					<path class="st32" d="M240.9,287.7c-0.1,0.1-0.3,0.1-0.5,0l-1.8-1c-0.1-0.1-0.1-0.2,0-0.3l1.8-1c0.1-0.1,0.3-0.1,0.5,0l1.8,1
						c0.1,0.1,0.1,0.2,0,0.3L240.9,287.7z"/>
					<path class="st32" d="M244,289.4c-0.1,0.1-0.3,0.1-0.5,0l-1.8-1c-0.1-0.1-0.1-0.2,0-0.3l1.8-1c0.1-0.1,0.3-0.1,0.5,0l1.8,1
						c0.1,0.1,0.1,0.2,0,0.3L244,289.4z"/>
					<path class="st32" d="M234.7,291.3c-0.1,0.1-0.3,0.1-0.5,0l-1.8-1c-0.1-0.1-0.1-0.2,0-0.3l1.8-1c0.1-0.1,0.3-0.1,0.5,0l1.8,1
						c0.1,0.1,0.1,0.2,0,0.3L234.7,291.3z"/>
					<path class="st32" d="M228.4,291.3c-0.1,0.1-0.3,0.1-0.5,0l-1.8-1c-0.1-0.1-0.1-0.2,0-0.3l1.8-1c0.1-0.1,0.3-0.1,0.5,0l1.8,1
						c0.1,0.1,0.1,0.2,0,0.3L228.4,291.3z"/>
					<path class="st32" d="M231.5,293.1c-0.1,0.1-0.3,0.1-0.5,0l-1.8-1c-0.1-0.1-0.1-0.2,0-0.3l1.8-1c0.1-0.1,0.3-0.1,0.5,0l1.8,1
						c0.1,0.1,0.1,0.2,0,0.3L231.5,293.1z"/>
					<path class="st32" d="M234.6,294.9c-0.1,0.1-0.3,0.1-0.5,0l-1.8-1c-0.1-0.1-0.1-0.2,0-0.3l1.8-1c0.1-0.1,0.3-0.1,0.5,0l1.8,1
						c0.1,0.1,0.1,0.2,0,0.3L234.6,294.9z"/>
					<path class="st32" d="M192.3,259.6c-0.1,0.1-0.3,0.1-0.5,0l-1.8-1c-0.1-0.1-0.1-0.2,0-0.3l1.8-1c0.1-0.1,0.3-0.1,0.5,0l1.8,1
						c0.1,0.1,0.1,0.2,0,0.3L192.3,259.6z"/>
					<path class="st32" d="M189.3,257.8c-0.1,0.1-0.3,0.1-0.5,0l-3.4-2c-0.1-0.1-0.1-0.2,0-0.3l1.8-1c0.1-0.1,0.3-0.1,0.5,0l3.4,2
						c0.1,0.1,0.1,0.2,0,0.3L189.3,257.8z"/>
					<path class="st32" d="M195.4,261.4c-0.1,0.1-0.3,0.1-0.5,0l-1.8-1c-0.1-0.1-0.1-0.2,0-0.3l1.8-1c0.1-0.1,0.3-0.1,0.5,0l1.8,1
						c0.1,0.1,0.1,0.2,0,0.3L195.4,261.4z"/>
					<path class="st32" d="M198.5,263.2c-0.1,0.1-0.3,0.1-0.5,0l-1.8-1c-0.1-0.1-0.1-0.2,0-0.3l1.8-1c0.1-0.1,0.3-0.1,0.5,0l1.8,1
						c0.1,0.1,0.1,0.2,0,0.3L198.5,263.2z"/>
					<path class="st32" d="M201.6,265c-0.1,0.1-0.3,0.1-0.5,0l-1.8-1c-0.1-0.1-0.1-0.2,0-0.3l1.8-1c0.1-0.1,0.3-0.1,0.5,0l1.8,1
						c0.1,0.1,0.1,0.2,0,0.3L201.6,265z"/>
					<path class="st32" d="M204.7,266.7c-0.1,0.1-0.3,0.1-0.5,0l-1.8-1c-0.1-0.1-0.1-0.2,0-0.3l1.8-1c0.1-0.1,0.3-0.1,0.5,0l1.8,1
						c0.1,0.1,0.1,0.2,0,0.3L204.7,266.7z"/>
					<path class="st32" d="M207.8,268.5c-0.1,0.1-0.3,0.1-0.5,0l-1.8-1c-0.1-0.1-0.1-0.2,0-0.3l1.8-1c0.1-0.1,0.3-0.1,0.5,0l1.8,1
						c0.1,0.1,0.1,0.2,0,0.3L207.8,268.5z"/>
					<path class="st32" d="M210.9,270.3c-0.1,0.1-0.3,0.1-0.5,0l-1.8-1c-0.1-0.1-0.1-0.2,0-0.3l1.8-1c0.1-0.1,0.3-0.1,0.5,0l1.8,1
						c0.1,0.1,0.1,0.2,0,0.3L210.9,270.3z"/>
					<path class="st32" d="M214,272.1c-0.1,0.1-0.3,0.1-0.5,0l-1.8-1c-0.1-0.1-0.1-0.2,0-0.3l1.8-1c0.1-0.1,0.3-0.1,0.5,0l1.8,1
						c0.1,0.1,0.1,0.2,0,0.3L214,272.1z"/>
					<path class="st32" d="M217.1,273.9c-0.1,0.1-0.3,0.1-0.5,0l-1.8-1c-0.1-0.1-0.1-0.2,0-0.3l1.8-1c0.1-0.1,0.3-0.1,0.5,0l1.8,1
						c0.1,0.1,0.1,0.2,0,0.3L217.1,273.9z"/>
					<path class="st32" d="M220.2,275.7c-0.1,0.1-0.3,0.1-0.5,0l-1.8-1c-0.1-0.1-0.1-0.2,0-0.3l1.8-1c0.1-0.1,0.3-0.1,0.5,0l1.8,1
						c0.1,0.1,0.1,0.2,0,0.3L220.2,275.7z"/>
					<path class="st32" d="M223.3,277.5c-0.1,0.1-0.3,0.1-0.5,0l-1.8-1c-0.1-0.1-0.1-0.2,0-0.3l1.8-1c0.1-0.1,0.3-0.1,0.5,0l1.8,1
						c0.1,0.1,0.1,0.2,0,0.3L223.3,277.5z"/>
					<path class="st32" d="M226.4,279.3c-0.1,0.1-0.3,0.1-0.5,0l-1.8-1c-0.1-0.1-0.1-0.2,0-0.3l1.8-1c0.1-0.1,0.3-0.1,0.5,0l1.8,1
						c0.1,0.1,0.1,0.2,0,0.3L226.4,279.3z"/>
					<path class="st32" d="M231.7,282.3c-0.1,0.1-0.3,0.1-0.5,0l-4-2.3c-0.1-0.1-0.1-0.2,0-0.3l1.8-1c0.1-0.1,0.3-0.1,0.5,0l4,2.3
						c0.1,0.1,0.1,0.2,0,0.3L231.7,282.3z"/>
					<path class="st32" d="M190.7,262.3c-0.1,0.1-0.3,0.1-0.5,0l-1.8-1c-0.1-0.1-0.1-0.2,0-0.3l1.8-1c0.1-0.1,0.3-0.1,0.5,0l1.8,1
						c0.1,0.1,0.1,0.2,0,0.3L190.7,262.3z"/>
					<path class="st32" d="M187.6,260.5c-0.1,0.1-0.3,0.1-0.5,0l-4.8-2.8c-0.1-0.1-0.1-0.2,0-0.3l1.8-1c0.1-0.1,0.3-0.1,0.5,0
						l4.8,2.8c0.1,0.1,0.1,0.2,0,0.3L187.6,260.5z"/>
					<path class="st32" d="M193.8,264.1c-0.1,0.1-0.3,0.1-0.5,0l-1.8-1c-0.1-0.1-0.1-0.2,0-0.3l1.8-1c0.1-0.1,0.3-0.1,0.5,0l1.8,1
						c0.1,0.1,0.1,0.2,0,0.3L193.8,264.1z"/>
					<path class="st32" d="M196.9,265.9c-0.1,0.1-0.3,0.1-0.5,0l-1.8-1c-0.1-0.1-0.1-0.2,0-0.3l1.8-1c0.1-0.1,0.3-0.1,0.5,0l1.8,1
						c0.1,0.1,0.1,0.2,0,0.3L196.9,265.9z"/>
					<path class="st32" d="M200,267.7c-0.1,0.1-0.3,0.1-0.5,0l-1.8-1c-0.1-0.1-0.1-0.2,0-0.3l1.8-1c0.1-0.1,0.3-0.1,0.5,0l1.8,1
						c0.1,0.1,0.1,0.2,0,0.3L200,267.7z"/>
					<path class="st32" d="M203.1,269.5c-0.1,0.1-0.3,0.1-0.5,0l-1.8-1c-0.1-0.1-0.1-0.2,0-0.3l1.8-1c0.1-0.1,0.3-0.1,0.5,0l1.8,1
						c0.1,0.1,0.1,0.2,0,0.3L203.1,269.5z"/>
					<path class="st32" d="M206.2,271.2c-0.1,0.1-0.3,0.1-0.5,0l-1.8-1c-0.1-0.1-0.1-0.2,0-0.3l1.8-1c0.1-0.1,0.3-0.1,0.5,0l1.8,1
						c0.1,0.1,0.1,0.2,0,0.3L206.2,271.2z"/>
					<path class="st32" d="M209.3,273c-0.1,0.1-0.3,0.1-0.5,0l-1.8-1c-0.1-0.1-0.1-0.2,0-0.3l1.8-1c0.1-0.1,0.3-0.1,0.5,0l1.8,1
						c0.1,0.1,0.1,0.2,0,0.3L209.3,273z"/>
					<path class="st32" d="M212.4,274.8c-0.1,0.1-0.3,0.1-0.5,0l-1.8-1c-0.1-0.1-0.1-0.2,0-0.3l1.8-1c0.1-0.1,0.3-0.1,0.5,0l1.8,1
						c0.1,0.1,0.1,0.2,0,0.3L212.4,274.8z"/>
					<path class="st32" d="M215.5,276.6c-0.1,0.1-0.3,0.1-0.5,0l-1.8-1c-0.1-0.1-0.1-0.2,0-0.3l1.8-1c0.1-0.1,0.3-0.1,0.5,0l1.8,1
						c0.1,0.1,0.1,0.2,0,0.3L215.5,276.6z"/>
					<path class="st32" d="M218.6,278.4c-0.1,0.1-0.3,0.1-0.5,0l-1.8-1c-0.1-0.1-0.1-0.2,0-0.3l1.8-1c0.1-0.1,0.3-0.1,0.5,0l1.8,1
						c0.1,0.1,0.1,0.2,0,0.3L218.6,278.4z"/>
					<path class="st32" d="M221.7,280.2c-0.1,0.1-0.3,0.1-0.5,0l-1.8-1c-0.1-0.1-0.1-0.2,0-0.3l1.8-1c0.1-0.1,0.3-0.1,0.5,0l1.8,1
						c0.1,0.1,0.1,0.2,0,0.3L221.7,280.2z"/>
					<path class="st32" d="M228.6,284.1c-0.1,0.1-0.3,0.1-0.5,0l-5.5-3.2c-0.1-0.1-0.1-0.2,0-0.3l1.8-1c0.1-0.1,0.3-0.1,0.5,0
						l5.5,3.2c0.1,0.1,0.1,0.2,0,0.3L228.6,284.1z"/>
					<path class="st32" d="M188.9,264.9c-0.1,0.1-0.3,0.1-0.5,0l-1.8-1c-0.1-0.1-0.1-0.2,0-0.3l1.8-1c0.1-0.1,0.3-0.1,0.5,0l1.8,1
						c0.1,0.1,0.1,0.2,0,0.3L188.9,264.9z"/>
					<path class="st32" d="M185.8,263.1c-0.1,0.1-0.3,0.1-0.5,0l-6.1-3.5c-0.1-0.1-0.1-0.2,0-0.3l1.8-1c0.1-0.1,0.3-0.1,0.5,0
						l6.1,3.5c0.1,0.1,0.1,0.2,0,0.3L185.8,263.1z"/>
					<path class="st32" d="M192,266.7c-0.1,0.1-0.3,0.1-0.5,0l-1.8-1c-0.1-0.1-0.1-0.2,0-0.3l1.8-1c0.1-0.1,0.3-0.1,0.5,0l1.8,1
						c0.1,0.1,0.1,0.2,0,0.3L192,266.7z"/>
					<path class="st32" d="M195.1,268.5c-0.1,0.1-0.3,0.1-0.5,0l-1.8-1c-0.1-0.1-0.1-0.2,0-0.3l1.8-1c0.1-0.1,0.3-0.1,0.5,0l1.8,1
						c0.1,0.1,0.1,0.2,0,0.3L195.1,268.5z"/>
					<path class="st32" d="M178.8,262.8c-0.1,0.1-0.3,0.1-0.5,0l-2.4-1.4c-0.1-0.1-0.1-0.2,0-0.3l1.8-1c0.1-0.1,0.3-0.1,0.5,0
						l2.4,1.4c0.1,0.1,0.1,0.2,0,0.3L178.8,262.8z"/>
					<path class="st32" d="M182.5,264.9c-0.1,0.1-0.3,0.1-0.5,0l-2.4-1.4c-0.1-0.1-0.1-0.2,0-0.3l1.8-1c0.1-0.1,0.3-0.1,0.5,0
						l2.4,1.4c0.1,0.1,0.1,0.2,0,0.3L182.5,264.9z"/>
					<path class="st32" d="M186.1,267c-0.1,0.1-0.3,0.1-0.5,0l-2.3-1.4c-0.1-0.1-0.1-0.2,0-0.3l1.8-1c0.1-0.1,0.3-0.1,0.5,0l2.4,1.4
						c0.1,0.1,0.1,0.2,0,0.3L186.1,267z"/>
					<path class="st32" d="M207.6,279.4c-0.1,0.1-0.3,0.1-0.5,0l-20.2-11.7c-0.1-0.1-0.1-0.2,0-0.3l1.8-1c0.1-0.1,0.3-0.1,0.5,0
						l20.2,11.7c0.1,0.1,0.1,0.2,0,0.3L207.6,279.4z"/>
					<path class="st32" d="M211.3,281.5c-0.1,0.1-0.3,0.1-0.5,0l-2.3-1.4c-0.1-0.1-0.1-0.2,0-0.3l1.8-1c0.1-0.1,0.3-0.1,0.5,0
						l2.4,1.4c0.1,0.1,0.1,0.2,0,0.3L211.3,281.5z"/>
					<path class="st32" d="M214.9,283.6c-0.1,0.1-0.3,0.1-0.5,0l-2.4-1.4c-0.1-0.1-0.1-0.2,0-0.3l1.8-1c0.1-0.1,0.3-0.1,0.5,0
						l2.4,1.4c0.1,0.1,0.1,0.2,0,0.3L214.9,283.6z"/>
					<path class="st32" d="M218.6,285.7c-0.1,0.1-0.3,0.1-0.5,0l-2.4-1.4c-0.1-0.1-0.1-0.2,0-0.3l1.8-1c0.1-0.1,0.3-0.1,0.5,0
						l2.4,1.4c0.1,0.1,0.1,0.2,0,0.3L218.6,285.7z"/>
					<path class="st32" d="M222.2,287.8c-0.1,0.1-0.3,0.1-0.5,0l-2.4-1.4c-0.1-0.1-0.1-0.2,0-0.3l1.8-1c0.1-0.1,0.3-0.1,0.5,0
						l2.3,1.4c0.1,0.1,0.1,0.2,0,0.3L222.2,287.8z"/>
					<path class="st32" d="M198.2,270.3c-0.1,0.1-0.3,0.1-0.5,0l-1.8-1c-0.1-0.1-0.1-0.2,0-0.3l1.8-1c0.1-0.1,0.3-0.1,0.5,0l1.8,1
						c0.1,0.1,0.1,0.2,0,0.3L198.2,270.3z"/>
					<path class="st32" d="M201.3,272.1c-0.1,0.1-0.3,0.1-0.5,0l-1.8-1c-0.1-0.1-0.1-0.2,0-0.3l1.8-1c0.1-0.1,0.3-0.1,0.5,0l1.8,1
						c0.1,0.1,0.1,0.2,0,0.3L201.3,272.1z"/>
					<path class="st32" d="M204.4,273.9c-0.1,0.1-0.3,0.1-0.5,0l-1.8-1c-0.1-0.1-0.1-0.2,0-0.3l1.8-1c0.1-0.1,0.3-0.1,0.5,0l1.8,1
						c0.1,0.1,0.1,0.2,0,0.3L204.4,273.9z"/>
					<path class="st32" d="M207.5,275.6c-0.1,0.1-0.3,0.1-0.5,0l-1.8-1c-0.1-0.1-0.1-0.2,0-0.3l1.8-1c0.1-0.1,0.3-0.1,0.5,0l1.8,1
						c0.1,0.1,0.1,0.2,0,0.3L207.5,275.6z"/>
					<path class="st32" d="M210.6,277.4c-0.1,0.1-0.3,0.1-0.5,0l-1.8-1c-0.1-0.1-0.1-0.2,0-0.3l1.8-1c0.1-0.1,0.3-0.1,0.5,0l1.8,1
						c0.1,0.1,0.1,0.2,0,0.3L210.6,277.4z"/>
					<path class="st32" d="M213.7,279.2c-0.1,0.1-0.3,0.1-0.5,0l-1.8-1c-0.1-0.1-0.1-0.2,0-0.3l1.8-1c0.1-0.1,0.3-0.1,0.5,0l1.8,1
						c0.1,0.1,0.1,0.2,0,0.3L213.7,279.2z"/>
					<path class="st32" d="M216.8,281c-0.1,0.1-0.3,0.1-0.5,0l-1.8-1c-0.1-0.1-0.1-0.2,0-0.3l1.8-1c0.1-0.1,0.3-0.1,0.5,0l1.8,1
						c0.1,0.1,0.1,0.2,0,0.3L216.8,281z"/>
					<path class="st32" d="M225.4,286c-0.1,0.1-0.3,0.1-0.5,0l-7.3-4.2c-0.1-0.1-0.1-0.2,0-0.3l1.8-1c0.1-0.1,0.3-0.1,0.5,0l7.3,4.2
						c0.1,0.1,0.1,0.2,0,0.3L225.4,286z"/>
					<g>
						<path class="st32" d="M228,276.6c-0.1,0.1-0.3,0.1-0.5,0l-1.8-1c-0.1-0.1-0.1-0.2,0-0.3l1.8-1c0.1-0.1,0.3-0.1,0.5,0l1.8,1
							c0.1,0.1,0.1,0.2,0,0.3L228,276.6z"/>
					</g>
					<path class="st32" d="M195.8,252.2c-0.1,0.1-0.3,0.1-0.5,0l-1.8-1c-0.1-0.1-0.1-0.2,0-0.3l1.8-1c0.1-0.1,0.3-0.1,0.5,0l1.8,1
						c0.1,0.1,0.1,0.2,0,0.3L195.8,252.2z"/>
					<path class="st32" d="M202,255.8c-0.1,0.1-0.3,0.1-0.5,0l-1.8-1c-0.1-0.1-0.1-0.2,0-0.3l1.8-1c0.1-0.1,0.3-0.1,0.5,0l1.8,1
						c0.1,0.1,0.1,0.2,0,0.3L202,255.8z"/>
					<path class="st32" d="M205.1,257.6c-0.1,0.1-0.3,0.1-0.5,0l-1.8-1c-0.1-0.1-0.1-0.2,0-0.3l1.8-1c0.1-0.1,0.3-0.1,0.5,0l1.8,1
						c0.1,0.1,0.1,0.2,0,0.3L205.1,257.6z"/>
					<path class="st32" d="M208.2,259.4c-0.1,0.1-0.3,0.1-0.5,0l-1.8-1c-0.1-0.1-0.1-0.2,0-0.3l1.8-1c0.1-0.1,0.3-0.1,0.5,0l1.8,1
						c0.1,0.1,0.1,0.2,0,0.3L208.2,259.4z"/>
					<path class="st32" d="M211.2,261.2c-0.1,0.1-0.3,0.1-0.5,0l-1.8-1c-0.1-0.1-0.1-0.2,0-0.3l1.8-1c0.1-0.1,0.3-0.1,0.5,0l1.8,1
						c0.1,0.1,0.1,0.2,0,0.3L211.2,261.2z"/>
					<path class="st32" d="M216.3,264.1c-0.1,0.1-0.3,0.1-0.5,0l-1.8-1c-0.1-0.1-0.1-0.2,0-0.3l1.8-1c0.1-0.1,0.3-0.1,0.5,0l1.8,1
						c0.1,0.1,0.1,0.2,0,0.3L216.3,264.1z"/>
					<path class="st32" d="M219.4,265.9c-0.1,0.1-0.3,0.1-0.5,0l-1.8-1c-0.1-0.1-0.1-0.2,0-0.3l1.8-1c0.1-0.1,0.3-0.1,0.5,0l1.8,1
						c0.1,0.1,0.1,0.2,0,0.3L219.4,265.9z"/>
					<path class="st32" d="M222.5,267.7c-0.1,0.1-0.3,0.1-0.5,0l-1.8-1c-0.1-0.1-0.1-0.2,0-0.3l1.8-1c0.1-0.1,0.3-0.1,0.5,0l1.8,1
						c0.1,0.1,0.1,0.2,0,0.3L222.5,267.7z"/>
					<path class="st32" d="M225.6,269.5c-0.1,0.1-0.3,0.1-0.5,0l-1.8-1c-0.1-0.1-0.1-0.2,0-0.3l1.8-1c0.1-0.1,0.3-0.1,0.5,0l1.8,1
						c0.1,0.1,0.1,0.2,0,0.3L225.6,269.5z"/>
					<path class="st32" d="M230.6,272.3c-0.1,0.1-0.3,0.1-0.5,0l-1.8-1c-0.1-0.1-0.1-0.2,0-0.3l1.8-1c0.1-0.1,0.3-0.1,0.5,0l1.8,1
						c0.1,0.1,0.1,0.2,0,0.3L230.6,272.3z"/>
					<path class="st32" d="M233.6,274.1c-0.1,0.1-0.3,0.1-0.5,0l-1.8-1c-0.1-0.1-0.1-0.2,0-0.3l1.8-1c0.1-0.1,0.3-0.1,0.5,0l1.8,1
						c0.1,0.1,0.1,0.2,0,0.3L233.6,274.1z"/>
					<path class="st32" d="M236.7,275.9c-0.1,0.1-0.3,0.1-0.5,0l-1.8-1c-0.1-0.1-0.1-0.2,0-0.3l1.8-1c0.1-0.1,0.3-0.1,0.5,0l1.8,1
						c0.1,0.1,0.1,0.2,0,0.3L236.7,275.9z"/>
					<path class="st32" d="M239.8,277.7c-0.1,0.1-0.3,0.1-0.5,0l-1.8-1c-0.1-0.1-0.1-0.2,0-0.3l1.8-1c0.1-0.1,0.3-0.1,0.5,0l1.8,1
						c0.1,0.1,0.1,0.2,0,0.3L239.8,277.7z"/>
					<path class="st32" d="M261.3,290.1c-0.1,0.1-0.3,0.1-0.5,0l-1.8-1c-0.1-0.1-0.1-0.2,0-0.3l1.8-1c0.1-0.1,0.3-0.1,0.5,0l1.8,1
						c0.1,0.1,0.1,0.2,0,0.3L261.3,290.1z"/>
					<path class="st32" d="M264.4,291.9c-0.1,0.1-0.3,0.1-0.5,0l-1.8-1c-0.1-0.1-0.1-0.2,0-0.3l1.8-1c0.1-0.1,0.3-0.1,0.5,0l1.8,1
						c0.1,0.1,0.1,0.2,0,0.3L264.4,291.9z"/>
					<path class="st32" d="M267.5,293.7c-0.1,0.1-0.3,0.1-0.5,0l-1.8-1c-0.1-0.1-0.1-0.2,0-0.3l1.8-1c0.1-0.1,0.3-0.1,0.5,0l1.8,1
						c0.1,0.1,0.1,0.2,0,0.3L267.5,293.7z"/>
					<g>
						<path class="st32" d="M234.9,280.5c-0.1,0.1-0.3,0.1-0.5,0l-5.6-3.2c-0.1-0.1-0.1-0.2,0-0.3l1.8-1c0.1-0.1,0.3-0.1,0.5,0
							l5.6,3.2c0.1,0.1,0.1,0.2,0,0.3L234.9,280.5z"/>
					</g>
					<polygon class="st32" points="257.5,287.7 248.6,282.5 250.8,281.3 259.7,286.4 					"/>
				</g>
			</g>
			<g>
				<path class="st33" d="M216.4,218.7c0.7-0.4,1.9-0.4,2.6,0l11.7,6.7c0.7,0.4,0.7,1.1,0,1.5l-26.4,15.3c-0.7,0.4-1.9,0.4-2.6,0
					l-11.7-6.7c-0.7-0.4-0.7-1.1,0-1.5L216.4,218.7z"/>
				<path class="st32" d="M190.1,235.5l11.7,6.7c0.7,0.4,1.9,0.4,2.6,0l26.4-15.3c0.4-0.2,0.5-0.5,0.5-0.7h0v1.8
					c0,0.3-0.2,0.6-0.5,0.8l-26.4,15.3c-0.7,0.4-1.9,0.4-2.6,0l-11.7-6.7c-0.4-0.2-0.5-0.5-0.5-0.8v-1.8l0,0
					C189.5,235,189.7,235.3,190.1,235.5z"/>
				<linearGradient id="SVGID_24_" gradientUnits="userSpaceOnUse" x1="217.9165" y1="218.9161" x2="186.5389" y2="269.4939">
					<stop  offset="0" style="stop-color:#2580D3"/>
					<stop  offset="1" style="stop-color:#0A208F"/>
				</linearGradient>
				<polygon class="st34" points="191.2,233.3 205.5,241.6 230.6,227 216.3,218.8 				"/>
				<linearGradient id="SVGID_25_" gradientUnits="userSpaceOnUse" x1="224.8074" y1="223.1955" x2="194.0475" y2="272.7778">
					<stop  offset="0" style="stop-color:#328DE0"/>
					<stop  offset="1" style="stop-color:#172D9C"/>
				</linearGradient>
				<polygon class="st35" points="205.3,241.4 205.5,241.6 230.6,227 230.4,226.9 				"/>
				<linearGradient id="SVGID_26_" gradientUnits="userSpaceOnUse" x1="225.198" y1="222.6327" x2="198.2442" y2="268.9655">
					<stop  offset="0" style="stop-color:#1873C6"/>
					<stop  offset="1" style="stop-color:#001382"/>
				</linearGradient>
				<polygon class="st36" points="205.5,242.7 230.6,228.1 230.6,227 205.5,241.6 				"/>
			</g>
			<g>
				<g>
					<g>
						<path class="st37" d="M336.8,297.8L336.8,297.8C336.8,297.8,336.8,297.8,336.8,297.8z"/>
						<linearGradient id="SVGID_27_" gradientUnits="userSpaceOnUse" x1="340.0862" y1="299.6128" x2="340.0862" y2="286.1251">
							<stop  offset="0" style="stop-color:#66C1FF"/>
							<stop  offset="1" style="stop-color:#D4DBDF"/>
						</linearGradient>
						<path class="st38" d="M343.4,292.5c0-1-0.2-1.8-0.4-2.4c0,0,0,0,0,0c-0.7-2.6-3.6-2.4-4.5-2c-1,0.5-1.7,1.5-1.7,1.5v2.4
							l1.1,0.6c0,0,0.4-1.5,2-2.4c0.2-0.1,0.5-0.2,0.7-0.2c0.6,0.6,0.9,1.7,0.9,2.4c0,1.4-0.9,5.1-3,6.2c-0.2,0.1-0.3,0.1-0.4,0.2
							l-0.1,0c-1,0.2-1.1-0.8-1.1-1.1v2.9l1.1,0.6c0,0,0.5,0.2,1.7-0.5C340.7,300.1,343.5,296.3,343.4,292.5z"/>
					</g>
					<g class="st39">
						<linearGradient id="SVGID_28_" gradientUnits="userSpaceOnUse" x1="337.8363" y1="298.3903" x2="337.8363" y2="298.3903">
							<stop  offset="0" style="stop-color:#DADADA"/>
							<stop  offset="2.941180e-02" style="stop-color:#232323"/>
							<stop  offset="0.1238" style="stop-color:#616161"/>
							<stop  offset="0.2195" style="stop-color:#999999"/>
							<stop  offset="0.3083" style="stop-color:#C5C5C5"/>
							<stop  offset="0.3875" style="stop-color:#E5E5E5"/>
							<stop  offset="0.4541" style="stop-color:#F8F8F8"/>
							<stop  offset="0.5" style="stop-color:#FFFFFF"/>
							<stop  offset="0.9011" style="stop-color:#C1C1C1"/>
							<stop  offset="1" style="stop-color:#8C8C8C"/>
						</linearGradient>
						<path class="st40" d="M337.8,298.4L337.8,298.4C337.8,298.4,337.8,298.4,337.8,298.4z"/>
						<linearGradient id="SVGID_29_" gradientUnits="userSpaceOnUse" x1="337.8363" y1="294.8773" x2="343.4148" y2="294.8773">
							<stop  offset="0" style="stop-color:#DADADA"/>
							<stop  offset="2.941180e-02" style="stop-color:#232323"/>
							<stop  offset="0.1238" style="stop-color:#616161"/>
							<stop  offset="0.2195" style="stop-color:#999999"/>
							<stop  offset="0.3083" style="stop-color:#C5C5C5"/>
							<stop  offset="0.3875" style="stop-color:#E5E5E5"/>
							<stop  offset="0.4541" style="stop-color:#F8F8F8"/>
							<stop  offset="0.5" style="stop-color:#FFFFFF"/>
							<stop  offset="0.9011" style="stop-color:#C1C1C1"/>
							<stop  offset="1" style="stop-color:#8C8C8C"/>
						</linearGradient>
						<path class="st41" d="M343.4,292.5c-0.1-4.5-2.8-4.3-3.9-3.8c-1,0.5-1.7,1.5-1.7,1.5v2.4c0,0,0.4-1.5,2-2.4
							c1.6-0.8,2.6,1.4,2.6,2.8c0,1.4-0.9,5.1-3,6.2c-1.5,0.8-1.6-0.6-1.6-0.9v2.9c0,0,0.5,0.2,1.7-0.5
							C340.7,300.1,343.5,296.3,343.4,292.5z"/>
					</g>
					<linearGradient id="SVGID_30_" gradientUnits="userSpaceOnUse" x1="342.0527" y1="290.2982" x2="338.9286" y2="299.8485">
						<stop  offset="0" style="stop-color:#DADADA"/>
						<stop  offset="2.941180e-02" style="stop-color:#232323"/>
						<stop  offset="0.1238" style="stop-color:#616161"/>
						<stop  offset="0.2195" style="stop-color:#999999"/>
						<stop  offset="0.3083" style="stop-color:#C5C5C5"/>
						<stop  offset="0.3875" style="stop-color:#E5E5E5"/>
						<stop  offset="0.4541" style="stop-color:#F8F8F8"/>
						<stop  offset="0.5" style="stop-color:#FFFFFF"/>
						<stop  offset="0.9011" style="stop-color:#C1C1C1"/>
						<stop  offset="1" style="stop-color:#8C8C8C"/>
					</linearGradient>
					<path class="st42" d="M339.4,299.3c2.1-1.1,3-4.8,3-6.2c0-1.2-0.8-3-2-3c0.6,0.6,0.9,1.7,0.9,2.4c0,1.4-0.9,5.1-3,6.2
						c-0.2,0.1-0.3,0.1-0.4,0.2C338,299.3,338.4,299.8,339.4,299.3z"/>
				</g>
				<linearGradient id="SVGID_31_" gradientUnits="userSpaceOnUse" x1="338.8818" y1="296.4919" x2="319.3558" y2="296.4919">
					<stop  offset="0" style="stop-color:#66C1FF"/>
					<stop  offset="1" style="stop-color:#D4DBDF"/>
				</linearGradient>
				<path class="st43" d="M339.2,287.4c0-1.4-0.9-2.8-2.8-3.9c-1.9-1.1-4.3-1.6-6.8-1.6c-2.5,0-4.9,0.5-6.8,1.6
					c-1.9,1.1-2.8,2.5-2.8,3.9v17.4c0,0.5,0.1,1.1,0.4,1.6l0,0c0.1,0.2,0.5,1,0.6,1.2c0.4,0.7,1.2,1.5,2.2,2c1.8,1,4.1,1.5,6.4,1.5
					c2.3,0,4.7-0.5,6.4-1.5c1.1-0.6,1.9-1.4,2.3-2.2c0.1-0.1,0.5-1.1,0.6-1.2c0,0,0,0,0,0c0.2-0.5,0.3-0.9,0.3-1.4V287.4z"/>
				<path class="st44" d="M329.6,281.8c-2.5,0-4.9,0.5-6.8,1.6c-1.9,1.1-2.8,2.5-2.8,3.9c0,1.4,0.9,2.8,2.8,3.9
					c1.9,1.1,4.3,1.6,6.8,1.6c2.5,0,4.9-0.5,6.8-1.6c1.9-1.1,2.8-2.5,2.8-3.9c0-1.4-0.9-2.8-2.8-3.9
					C334.5,282.4,332,281.8,329.6,281.8z"/>
				<path class="st37" d="M329.6,282.1c-2.3,0-4.7,0.5-6.5,1.5c-1.8,1-2.7,2.4-2.7,3.7c0,1.4,0.9,2.7,2.7,3.7c1.8,1,4.1,1.5,6.5,1.5
					c2.3,0,4.7-0.5,6.5-1.5c1.8-1,2.7-2.4,2.7-3.7c0-1.4-0.9-2.7-2.7-3.7C334.2,282.6,331.9,282.1,329.6,282.1z"/>
				<g>
					<linearGradient id="SVGID_32_" gradientUnits="userSpaceOnUse" x1="338.6726" y1="287.3785" x2="320.4858" y2="287.3785">
						<stop  offset="0" style="stop-color:#66C1FF"/>
						<stop  offset="1" style="stop-color:#D4DBDF"/>
					</linearGradient>
					<path class="st45" d="M329.6,282.1c-2.3,0-4.7,0.5-6.5,1.5c-1.8,1-2.7,2.4-2.7,3.7c0,1.4,0.9,2.7,2.7,3.7
						c1.8,1,4.1,1.5,6.5,1.5c2.3,0,4.7-0.5,6.5-1.5c1.8-1,2.7-2.4,2.7-3.7c0-1.4-0.9-2.7-2.7-3.7
						C334.2,282.6,331.9,282.1,329.6,282.1z"/>
					<path class="st18" d="M336,286.6c-1.8-1-4.1-1.5-6.5-1.5c-2.3,0-4.7,0.5-6.5,1.5c-1.1,0.6-1.9,1.4-2.3,2.2
						c0.4,0.8,1.2,1.6,2.3,2.2c1.8,1,4.1,1.5,6.5,1.5c2.3,0,4.7-0.5,6.5-1.5c1.1-0.6,1.9-1.4,2.3-2.2
						C337.9,288.1,337.1,287.3,336,286.6z"/>
					<linearGradient id="SVGID_33_" gradientUnits="userSpaceOnUse" x1="338.6796" y1="287.3426" x2="316.0489" y2="287.3426">
						<stop  offset="0" style="stop-color:#FFFFFF"/>
						<stop  offset="1" style="stop-color:#000000"/>
					</linearGradient>
					<path class="st46" d="M323.1,288.1c1.8-1,4.1-1.5,6.5-1.5c2.3,0,4.7,0.5,6.5,1.5c0.8,0.5,1.4,1,1.8,1.5
						c0.2-0.2,0.3-0.5,0.5-0.7c-0.4-0.8-1.2-1.6-2.3-2.2c-1.8-1-4.1-1.5-6.5-1.5c-2.3,0-4.7,0.5-6.5,1.5c-1.1,0.6-1.9,1.4-2.3,2.2
						c0.1,0.2,0.3,0.5,0.5,0.7C321.7,289,322.3,288.5,323.1,288.1z"/>
				</g>
				<path class="st47" d="M336.4,308.7c-1.9,1.1-4.3,1.6-6.8,1.6c-2.5,0-4.9-0.5-6.8-1.6c-1.2-0.7-2-1.5-2.4-2.3l0,0
					c0.1,0.2,0.5,1,0.6,1.2c0.4,0.7,1.2,1.5,2.2,2c1.8,1,4.1,1.5,6.4,1.5c2.3,0,4.7-0.5,6.4-1.5c1.1-0.6,1.9-1.4,2.3-2.2
					c0.1-0.1,0.5-1.1,0.6-1.2c0,0,0,0,0,0C338.4,307.1,337.6,308,336.4,308.7z"/>
			</g>
			<g>
				<path class="st48" d="M174.2,262.7c0,0,2.9-2.3,9.5-2.9c6.6-0.6,6.2-0.4,11.8,0.3c5.6,0.8,10.6,1.7,11.5,2.5
					c0.9,0.9,4.1,1.5,2.8,2.8c-1.3,1.3-4.1,0.3-7.3,0.8c-3.3,0.5-9.2,0.6-8.5,2.6c0.6,2,7.6,1,9.3,2c1.6,1,3.4,2,0,2.6
					c-3.4,0.6-13.4,0.6-17.4,0.6C181.9,274.2,174.2,262.7,174.2,262.7z"/>
				<path class="st49" d="M207.1,262.7c-0.9-0.9-5.9-1.8-11.5-2.5c-5.4-0.7-5.2-0.9-11.2-0.4c0.6,1.1,1.8,2.3,4.6,2.7
					c4.2,0.5,13,0.2,18.5,0.6C207.4,262.9,207.2,262.8,207.1,262.7z"/>
			</g>
			<g>
				<path class="st50" d="M190.6,216.6c-0.6-1.3-3.4-3.8-4.4-3.8c-0.2,0-0.3,0.1-0.4,0.1c-0.8,0.6-0.5,5.2-0.2,6.5
					c0.4,1.2,2.3,3.3,3.7,3.2l0.1,0c0.4-0.1,0.7-0.3,1-0.8C191.1,220.6,191.3,218.1,190.6,216.6z M189.7,221.4
					c-0.2,0.3-0.3,0.4-0.3,0.4l-0.1,0c-0.9,0-2.6-1.7-2.9-2.6c-0.4-1.3-0.4-4.9-0.1-5.5c0.7,0.2,3,2.2,3.6,3.3
					C190.4,218.2,190.2,220.4,189.7,221.4z"/>
				<path class="st51" d="M189.8,216.9c-0.5-1.1-2.9-3.1-3.6-3.3c-0.3,0.7-0.3,4.2,0.1,5.5c0.3,1,2,2.7,2.9,2.6l0.1,0
					c0,0,0.2-0.1,0.3-0.4C190.2,220.4,190.4,218.2,189.8,216.9z"/>
				<path class="st48" d="M137.4,237.5c0,0,5.9-0.1,9-3.8c3.2-3.8,2.7-11,1.9-14.5c-0.8-3.5-0.5-15.6,3.2-20.4
					c3.8-4.9,12.8-8.5,21.5-8.3c8.7,0.1,15.1,8.1,15.8,13.9c0.7,5.8,1.6,9,0.1,10.9c-1.5,1.8-1.6,3.2-1.9,5.7
					c-0.3,2.5-3.9,8.9-5.1,11.3c-1.2,2.4-3.7,3.7-6.4,4.8c-2.7,1.1-6.6,1.2-7,6c-0.4,4.9-3.4,12.1-3.4,12.1s2.8-0.4-0.1,0.5
					c-2.9,0.9-16.9,5.2-24.6,0C132.7,250.4,137.4,237.5,137.4,237.5z"/>
				<path class="st49" d="M176.8,231.8c0,0-0.5,0.4-1.3-0.2c-0.9-0.5-1-3.3-0.1-6.5c0.6-2,2-3.4,3-4.2c-0.9,0-1.9,0.2-3,0.8
					c-2.4,1.4-7.8,9.8-9.5,10.9c-0.1,0.1-0.2,0.1-0.4,0.2c0.8,8.1-2.6,18.6-4.6,24c2-0.5,3.5-0.9,4.3-1.2c2.9-0.9,0.1-0.5,0.1-0.5
					s3-7.3,3.4-12.1c0.4-4.9,4.4-5,7-6c0.4-0.2,0.8-0.3,1.2-0.5C176.5,234.3,176.8,231.8,176.8,231.8z"/>
				<path class="st52" d="M184.2,227.6c0,0-1.1,0.4-1.8,0.9c-0.2,0.1-0.7,1-2-0.4c-0.8-0.9-0.4,3.5-0.1,3.8c0.4,0.5,2.9-0.9,3.6-1.9
					C184.6,229,184.9,227.6,184.2,227.6z"/>
				<polygon class="st50" points="190.6,217.4 179.9,221 179.6,221.5 190.8,218.5 				"/>
				<path class="st53" d="M192,200.4c-0.6-2.4-5.5-13.8-17.4-14.8c-11.9-1-22.5,3.7-26.8,10.6c-4.3,6.9-3,15-2.3,21.2
					c0.8,6.2,3.1,10.7,3.1,10.7s1.1,4.1,9.2,4.6c8.1,0.6,6.6,2.2,10.5-3.1c3.9-5.3,6.8-8.2,7.6-8.8c0.8-0.6,2.7,0,2.7,0l0.8,0.2
					c-0.8,2-2.2,8.3-4.1,12.7c-0.9,2-2.8,3.1-3.1,4.1l-1.4,0.8c-0.5,3.4,5.9,5.9,7.4,5.6c3.9-0.8,5-7.5,4.8-10.6
					c-0.1-0.9-1.1-1.6-1.1-1.6s-3.2-1.5-0.2-10.5c0.5-0.2,0.9-0.7,1.1-1.3l-0.9,0.2c0.3-1.2,0.9-3.3,1.9-4.5c1.5-1.8,2.5-0.8,2.7-4
					c0.2-3.2,0.2-5.4,1.3-6.3C188.9,204.9,192.6,202.8,192,200.4z"/>
				<path class="st54" d="M175,221.8c0,0-14.7,3.4-29.5-5c0,0.2,0,0.4,0.1,0.6c0.8,6.2,3.1,10.7,3.1,10.7s1.1,4.1,9.2,4.6
					c8.1,0.6,6.6,2.2,10.5-3.1C171.3,225.7,173.6,223.1,175,221.8z"/>
			</g>
			<path class="st55" d="M166.8,248.2c0,0-12.7-2.4-19.4-4.6c-6.7-2.2-4.7-7.2-4.7-7.2s-11.8-2.6-15.3-1.3
				c-28.9,10.6-20,64.7-17.5,77.7c2.5,13,0.5,26.4,0.5,26.4c28.3,20.5,58.3,24.9,63.7,14.9c5.4-10-8.2-27.4-8.2-27.4
				s0.3-25.2,8.4-44.8c4.6-11,10.6-19.9,5-24.8C176,254,166.8,248.2,166.8,248.2z"/>
			<path class="st56" d="M175,280.5l-8.8-6.7c0,0-5.2,10.2-7,21.7c-1.8,11.5-7.9,8.4-19.5,10.7c-6.9,1.4-14.4,22.5-18.6,40
				c24.8,14.5,48.4,16.8,53.1,8c5.4-10-8.2-27.4-8.2-27.4s0.3-25.2,8.4-44.8C174.6,281.4,174.8,281,175,280.5z"/>
			<g>
				<g>
					<path class="st48" d="M215,296.6l8-5.4c0,0,5.1-4.2,8.6-4.6c3.5-0.4,16,0.8,19.3,3.3c3.4,2.6,2.9,4.1,0.4,6.3
						c-2.5,2.2-5.2,2.4-9.2,3.6c-3.9,1.2,1.1,0.9-5,1.3c-6.1,0.5-16.2,4-16.2,4L215,296.6z"/>
					<path class="st49" d="M251.7,290.5c-1.6,3.9-15.5,6.9-19.8,6.6c-4.5-0.3-10.1,2.5-10.1,2.5l-3.8,1.2l3.1,4.3
						c0,0,10.1-3.5,16.2-4c6.1-0.5,1.1-0.2,5-1.3c3.9-1.2,6.7-1.4,9.2-3.6C253.6,294.2,254.2,292.7,251.7,290.5z"/>
				</g>
				<path class="st55" d="M164,276.6c-1.9-5,0.2-16.4,8.1-19.6c8.5-3.4,13.9,4.3,18.2,19c4.5,15.4,5.3,23.6,5.3,23.6l24.1-7.6
					c0,0,7,0.3,7.6,11c0,0-28.6,16.4-38.3,19.2C179.3,325.1,168.7,289.2,164,276.6z"/>
			</g>
			<g>
				<linearGradient id="SVGID_34_" gradientUnits="userSpaceOnUse" x1="96.6114" y1="318.2927" x2="142.6349" y2="351.86">
					<stop  offset="0" style="stop-color:#328DE0"/>
					<stop  offset="1" style="stop-color:#172D9C"/>
				</linearGradient>
				<path class="st57" d="M123.7,392.8c0,0,10,4.2,15.3,5.9c5.3,1.8,11.3,3,16.9-4.8c5.5-7.8,8.3-14.8,8.1-26.2
					c-0.2-11.4-10.9-46.2-10.9-46.2s-6.2-18.4-9.3-23.2c-3-4.7-4.6-5-7.8-6.5c-3.2-1.5-14.5-6.8-21.3-11.5
					c-6.8-4.7-14.3-10.3-16.2-11.3c-1.9-1-6.3,1.1-8.6,5.7c-2.3,4.6-2.7,13.6-2.8,23.4c-0.2,9.7-1.1,24.9,0.5,34.6
					c1.6,9.7,5,22.2,8.9,31.9c4,9.7,13.6,19.2,18.3,22.8C119.5,391.1,123.7,392.8,123.7,392.8z"/>
				<linearGradient id="SVGID_35_" gradientUnits="userSpaceOnUse" x1="119.3746" y1="308.1519" x2="130.9859" y2="322.0853">
					<stop  offset="0" style="stop-color:#328DE0"/>
					<stop  offset="1" style="stop-color:#172D9C"/>
				</linearGradient>
				<path class="st58" d="M156.8,392.5c4.9-7.3,7.3-14.1,7.2-24.8c-0.2-11.4-10.9-46.2-10.9-46.2s-6.2-18.4-9.3-23.2
					c-3-4.7-4.6-5-7.8-6.5c-3.2-1.5-14.5-6.8-21.3-11.5c-6.8-4.7-14.3-10.3-16.2-11.3c-0.2-0.1-0.4-0.1-0.6-0.2
					c-2.2,1.9-5.7,5-6.1,6.9c0,0,1.4,2.2,4.8,4.3c3.4,2,25,15.3,31.2,17.7c6.2,2.4,11.9,6.5,15.3,13.8c4,8.5,12.3,34.8,14.2,41.6
					c0,0,5.1,16.6,4.5,23.9C161.4,382.3,159.3,387.8,156.8,392.5z"/>
				<linearGradient id="SVGID_36_" gradientUnits="userSpaceOnUse" x1="86.655" y1="340.9544" x2="155.691" y2="340.9544">
					<stop  offset="0" style="stop-color:#328DE0"/>
					<stop  offset="1" style="stop-color:#172D9C"/>
				</linearGradient>
				<path class="st59" d="M155.5,369.3c-1-8.1-10.1-39.4-12.1-44.6c-2.1-5.3-7.8-15.6-9.9-17c-2.1-1.4-12.9-5.9-20.2-10.1
					c-7.3-4.2-20-13.3-21.8-14.9c-1-0.8-2.3-1-3.4-0.4c-0.6,4.5-0.8,10.1-0.9,16c-0.2,9.7-1.1,24.9,0.5,34.6
					c1.6,9.7,5,22.2,8.9,31.9c4,9.7,13.6,19.2,18.3,22.8c4.7,3.6,8.9,5.3,8.9,5.3s10,4.2,15.3,5.9c1.9,0.6,3.9,1.2,5.9,1.3
					c2-0.6,4.3-2,5.9-4.7C154.4,389.1,156.4,377.4,155.5,369.3z"/>
				<linearGradient id="SVGID_37_" gradientUnits="userSpaceOnUse" x1="124.291" y1="372.8621" x2="124.291" y2="400.9487">
					<stop  offset="0" style="stop-color:#2580D3"/>
					<stop  offset="1" style="stop-color:#0A208F"/>
				</linearGradient>
				<path class="st60" d="M124.5,390l1.7,9.6c0,0-2.6,1.4-3.6-2.8C121.6,392.4,124.5,390,124.5,390z"/>
				<linearGradient id="SVGID_38_" gradientUnits="userSpaceOnUse" x1="120.5236" y1="388.4746" x2="116.8333" y2="394.8712">
					<stop  offset="0" style="stop-color:#328DE0"/>
					<stop  offset="1" style="stop-color:#172D9C"/>
				</linearGradient>
				<path class="st61" d="M122.6,396.7c-0.8-3.7,1.2-6,1.7-6.6c-1.1-0.5-7.1-3-10.9-6.5c0,0-1.9,2.6-1.2,6.7
					c0.6,4.1,2.6,4.6,2.6,4.6l9.2,4.5v0C123.5,399,122.9,398.2,122.6,396.7z"/>
				<linearGradient id="SVGID_39_" gradientUnits="userSpaceOnUse" x1="187.0033" y1="346.2571" x2="183.971" y2="389.9848">
					<stop  offset="0" style="stop-color:#328DE0"/>
					<stop  offset="1" style="stop-color:#172D9C"/>
				</linearGradient>
				<path class="st62" d="M157.5,377.1c0,0,18.9-19.2,23-23c4.1-3.8,14-11.5,19.2-8.6c5.2,2.8,6.4,28.4,6.4,28.4s1.6,1.9,4.9,0.9
					c3.3-0.9,2.3-3.2,2.3-3.2s0.7-27.8-6.5-32.8c-7.1-5.1-17-0.1-24.7,5.7c-7.8,5.8-21.4,19.4-21.4,19.4s-3,4.2-3.7,8
					C156.4,375.6,157.5,377.1,157.5,377.1z"/>
			</g>
			<linearGradient id="SVGID_40_" gradientUnits="userSpaceOnUse" x1="249.6116" y1="312.3217" x2="314.6518" y2="312.3217">
				<stop  offset="0" style="stop-color:#328DE0"/>
				<stop  offset="1" style="stop-color:#172D9C"/>
			</linearGradient>
			<path class="st63" d="M280.7,330.8c-0.6,0.3-1.6,0.3-2.2,0l-28.4-16.4c-0.6-0.3-0.6-0.9,0-1.3l33.5-19.3c0.6-0.4,1.6-0.4,2.2,0
				l28.4,16.4c0.6,0.3,0.6,0.9,0,1.3L280.7,330.8z"/>
			<path class="st18" d="M288,311.5c-4.4,3.5-10.8,5.2-14.4,3.9c-3.5-1.4-3.1-7.2,1.3-10.7c4.4-3.5,11.1-3.4,14.6-2
				C293.1,304,292.4,308,288,311.5z"/>
			<g>
				<path class="st18" d="M290.3,304.5l-0.5-0.7c0.2-0.1,17.4-11.2,21.1-13.6l0.3-0.2c2.5-1.6,6-3.9,6.1-6.4c0.1-1.1-0.6-2.3-2-3.4
					c-2.4-1.9-6.9-1.8-11.7-1.7c-6,0.2-12.9,0.4-17.4-3.4c-1-0.8-1.5-1.8-1.6-2.8c-0.2-2.3,2-4.8,4.3-7.4c2.7-3.1,5.8-6.6,5.2-10.1
					c-0.4-2.5-2.5-4.8-6.4-7.1l0.4-0.7c4.1,2.4,6.4,4.9,6.8,7.7c0.6,3.9-2.6,7.6-5.4,10.8c-2.2,2.5-4.3,4.9-4.1,6.8
					c0.1,0.8,0.5,1.5,1.3,2.2c4.2,3.6,10.9,3.4,16.8,3.2c5-0.1,9.6-0.3,12.2,1.9c1.6,1.3,2.4,2.7,2.3,4.1c-0.2,2.9-3.8,5.3-6.5,7.1
					l-0.3,0.2C307.7,293.3,290.4,304.3,290.3,304.5z"/>
			</g>
			<g>
				<g>
					<path class="st30" d="M219.3,125.3c0-1.6,1.1-2.3,2.5-1.5l103.7,59.9c1.4,0.8,2.5,2.8,2.5,4.4l0,81.1c0,1.6-1.1,2.3-2.5,1.5
						l-103.8-59.9c-1.4-0.8-2.5-2.8-2.5-4.4L219.3,125.3z"/>
					<polygon class="st64" points="219.3,199.4 219.3,126.3 328.1,189.1 328.1,262.2 					"/>
					<linearGradient id="SVGID_41_" gradientUnits="userSpaceOnUse" x1="273.7416" y1="104.1291" x2="273.7416" y2="251.1732">
						<stop  offset="0" style="stop-color:#258FEB"/>
						<stop  offset="1" style="stop-color:#030B30"/>
					</linearGradient>
					<polygon class="st65" points="220.8,198.5 220.8,128.8 326.7,190 326.7,259.7 					"/>
					<path class="st32" d="M328.1,269.3l0-81.1c0-1.6-1.1-3.6-2.5-4.4l-103.7-59.9c-0.7-0.4-1.3-0.4-1.8-0.2v0l3.5-2
						c0.5-0.3,1.1-0.3,1.8,0.2l103.7,59.9c1.4,0.8,2.5,2.8,2.5,4.4v81.1c0,0.8-0.3,1.4-0.8,1.7l-3.4,2v0
						C327.9,270.6,328.1,270.1,328.1,269.3z"/>
					<path class="st30" d="M235.6,253.1l19.3-8.7c4.3-2.1,7.4-5.5,9.3-9.1l21.6,12.5c-1.9,6.3-6.6,10.8-6.6,10.8s-11.9,9.2-15,11.3
						c-3.1,2.1-6.5,0.3-6.5,0.3l-22.2-13.3c0,0-1.2-0.6-1.5-1.5L234,255C233.8,253.8,235.6,253.1,235.6,253.1z"/>
					<path class="st32" d="M235.6,256.8l22.2,13.3c0,0,3.3,1.8,6.5-0.3c3.1-2.1,15-11.3,15-11.3s4.7-4.5,6.6-10.8l1.9,1.1
						c-1.2,4.2-4.1,8.3-8.8,11.6c-13.4,9.6-14.8,10.4-14.8,10.4s-2.3,2-6.4,0c-4.1-2-22.3-13.2-22.3-13.2s-1.5-0.8-1.5-1.6l0.1-1.2
						C233.9,256,235.6,256.8,235.6,256.8z"/>
					<path class="st66" d="M264.2,235.3l21.6,12.5c-1.2,3.9-3.4,7.1-5,9l-23.7-13.7C260.3,241,262.7,238.2,264.2,235.3z"/>
				</g>
				<g>
					<polygon class="st67" points="250.4,159 235.8,150.6 235.8,149.6 250.4,158.1 					"/>
					<polygon class="st33" points="301.1,188.3 252.6,160.3 252.6,159.3 301.1,187.4 					"/>
					<polygon class="st33" points="256.8,156.8 230.1,141.4 230.1,140.5 256.8,155.9 					"/>
					<polygon class="st33" points="285.9,173.6 259.2,158.2 259.2,157.3 285.9,172.7 					"/>
					<polygon class="st68" points="259.6,167.3 245,158.9 245,157.9 259.6,166.4 					"/>
					<polygon class="st33" points="310.3,196.6 261.8,168.6 261.8,167.6 310.3,195.6 					"/>
					<polygon class="st33" points="231.8,148.3 230.1,147.3 230.1,146.3 231.8,147.3 					"/>
					<polygon class="st33" points="231.8,151.3 230.1,150.3 230.1,149.3 231.8,150.3 					"/>
					<polygon class="st33" points="231.8,154.2 230.1,153.2 230.1,152.3 231.8,153.3 					"/>
					<polygon class="st33" points="231.8,157.2 230.1,156.2 230.1,155.2 231.8,156.2 					"/>
					<polygon class="st33" points="231.8,160.2 230.1,159.2 230.1,158.2 231.8,159.2 					"/>
					<polygon class="st33" points="231.8,163.1 230.1,162.1 230.1,161.2 231.8,162.2 					"/>
					<polygon class="st33" points="231.8,166.1 230.1,165.1 230.1,164.1 231.8,165.1 					"/>
					<polygon class="st33" points="231.8,169.1 230.1,168 230.1,167.1 231.8,168.1 					"/>
					<polygon class="st33" points="231.8,172 230.1,171 230.1,170.1 231.8,171.1 					"/>
					<polygon class="st33" points="231.8,175 230.1,174 230.1,173 231.8,174 					"/>
					<polygon class="st33" points="231.8,177.9 230.1,176.9 230.1,176 231.8,177 					"/>
					<polygon class="st33" points="231.8,180.9 230.1,179.9 230.1,179 231.8,180 					"/>
					<polygon class="st33" points="231.8,183.9 230.1,182.9 230.1,181.9 231.8,182.9 					"/>
					<polygon class="st33" points="231.8,186.8 230.1,185.8 230.1,184.9 231.8,185.9 					"/>
					<polygon class="st33" points="231.8,189.8 230.1,188.8 230.1,187.8 231.8,188.8 					"/>
					<polygon class="st33" points="231.8,192.8 230.1,191.8 230.1,190.8 231.8,191.8 					"/>
					<polygon class="st33" points="231.8,195.7 230.1,194.7 230.1,193.8 231.8,194.8 					"/>
					<polygon class="st33" points="231.8,198.7 230.1,197.7 230.1,196.7 231.8,197.7 					"/>
					<polygon class="st68" points="259.6,170.3 245,161.8 245,160.9 259.6,169.3 					"/>
					<polygon class="st33" points="292.6,189.3 261.8,171.6 261.8,170.6 292.6,188.4 					"/>
					<polygon class="st69" points="269,178.7 254.4,170.2 254.4,169.3 269,177.7 					"/>
					<polygon class="st69" points="301.9,197.6 271.2,179.9 271.2,179 301.9,196.7 					"/>
					<polygon class="st33" points="276,185.7 261.4,177.2 261.4,176.3 276,184.7 					"/>
					<polygon class="st33" points="306.5,203.3 278.2,187 278.2,186 306.5,202.3 					"/>
					<polygon class="st70" points="254.9,176.5 244.6,170.5 244.6,169.5 254.9,175.5 					"/>
					<polygon class="st33" points="309.9,208.2 257.1,177.7 257.1,176.8 309.9,207.2 					"/>
					<polygon class="st70" points="252.3,177.9 244.6,173.5 244.6,172.5 252.3,177 					"/>
					<polygon class="st33" points="297.6,204.1 254.5,179.2 254.5,178.2 297.6,203.1 					"/>
					<polygon class="st67" points="250.8,180 244.6,176.4 244.6,175.5 250.8,179 					"/>
					<polygon class="st33" points="303.8,210.6 253,181.3 253,180.3 303.8,209.6 					"/>
					<polygon class="st68" points="259.2,187.8 244.6,179.4 244.6,178.4 259.2,186.9 					"/>
					<polygon class="st33" points="303.8,213.6 260.5,188.6 260.5,187.6 303.8,212.6 					"/>
					<polygon class="st68" points="267.1,195.3 244.6,182.3 244.6,181.4 267.1,194.4 					"/>
					<polygon class="st69" points="289.6,208.3 269.3,196.6 269.3,195.6 289.6,207.4 					"/>
					<polygon class="st67" points="250.4,188.7 235.8,180.2 235.8,179.3 250.4,187.7 					"/>
					<polygon class="st33" points="301.1,218 252.6,190 252.6,189 301.1,217 					"/>
					<polygon class="st68" points="258.5,196.3 243.9,187.9 243.9,186.9 258.5,195.4 					"/>
					<polygon class="st33" points="301.1,220.9 260.7,197.6 260.7,196.7 301.1,220 					"/>
					<polygon class="st68" points="275.2,208.9 260.6,200.5 260.6,199.5 275.2,208 					"/>
					<polygon class="st8" points="301.1,223.9 277.4,210.2 277.4,209.2 301.1,222.9 					"/>
					<polygon class="st68" points="269,208.3 260.6,203.5 260.6,202.5 269,207.3 					"/>
					<polygon class="st33" points="301.1,226.9 271.2,209.6 271.2,208.6 301.1,225.9 					"/>
					<polygon class="st67" points="272.8,213.5 260.6,206.4 260.6,205.5 272.8,212.5 					"/>
					<polygon class="st33" points="301.1,229.8 275,214.7 275,213.8 301.1,228.9 					"/>
					<polygon class="st68" points="268.2,213.8 260.6,209.4 260.6,208.4 268.2,212.8 					"/>
					<polygon class="st33" points="301.1,232.8 270.4,215 270.4,214.1 301.1,231.8 					"/>
					<polygon class="st68" points="270.4,218 260.6,212.3 260.6,211.4 270.4,217 					"/>
					<polygon class="st33" points="301.1,235.7 272.6,219.3 272.6,218.3 301.1,234.8 					"/>
					<polygon class="st68" points="275.2,223.7 260.6,215.3 260.6,214.4 275.2,222.8 					"/>
					<polygon class="st33" points="301.1,238.7 277.4,225 277.4,224.1 301.1,237.8 					"/>
				</g>
			</g>
		</g>
		<g>
			<g>
				
					<linearGradient id="SVGID_42_" gradientUnits="userSpaceOnUse" x1="923.462" y1="186.8959" x2="930.0174" y2="274.858" gradientTransform="matrix(-1 0 0 1 1291.8766 0)">
					<stop  offset="0" style="stop-color:#C100FF"/>
					<stop  offset="1" style="stop-color:#6E00FF"/>
				</linearGradient>
				<path class="st71" d="M346.1,232.1c0,4.4,3.1,9.7,6.9,11.9l24.6,14.2c3.8,2.2,6.9,0.4,6.9-4v-28.4c0-4.4-3.1-9.7-6.9-11.9
					L353,199.7c-3.8-2.2-6.9-0.4-6.9,4V232.1z"/>
				
					<linearGradient id="SVGID_43_" gradientUnits="userSpaceOnUse" x1="920.1447" y1="215.3055" x2="911.6767" y2="232.2428" gradientTransform="matrix(-1 0 0 1 1291.8766 0)">
					<stop  offset="0" style="stop-color:#F532FF"/>
					<stop  offset="1" style="stop-color:#A232FF"/>
				</linearGradient>
				<path class="st72" d="M384.5,254.3v-28.4c0-4.4-3.1-9.7-6.9-11.9L353,199.7c-1.7-1-3.2-1.2-4.4-0.7v0l4.1-2.5
					c1.3-0.8,3-0.7,5,0.4l24.6,14.2c3.8,2.2,6.9,7.5,6.9,11.9l0,28.4c0,2.2-0.8,3.8-2.1,4.5l-4.6,2.7v0
					C383.7,257.9,384.5,256.4,384.5,254.3z"/>
			</g>
			<g>
				<path class="st73" d="M353.6,224.9v-2.7c0.5,0.2,0.8,0.4,1.1,0.4c0.2,0,0.5-0.1,0.6-0.3c0.2-0.2,0.3-0.6,0.4-1
					c0.1-0.3,0.1-1,0.1-1.9c0-1.5,0.1-2.5,0.2-3c0.1-0.5,0.3-0.9,0.6-1c0.3-0.2,0.8-0.2,1.4-0.1c0.4,0.1,1,0.4,1.9,0.9l0.5,0.3v2.7
					c-0.7-0.4-1.2-0.6-1.4-0.7c-0.2,0-0.4,0-0.5,0.2c-0.1,0.1-0.1,0.4-0.1,0.9c0,0.5,0,1.4-0.1,2.7c0,0.7-0.1,1.3-0.3,1.7
					c-0.1,0.4-0.3,0.7-0.5,0.9c-0.2,0.2-0.5,0.3-1,0.4c0.4,0.5,0.7,1,1,1.5c0.2,0.5,0.4,1,0.6,1.6c0.1,0.6,0.2,1.3,0.3,2.1
					c0,1.3,0.1,2.1,0.1,2.5c0,0.5,0.1,0.9,0.2,1.1c0.1,0.3,0.3,0.5,0.5,0.7c0.2,0.2,0.7,0.5,1.4,1v2.7l-0.5-0.3
					c-0.9-0.5-1.6-1-2-1.4c-0.5-0.4-0.9-0.9-1.2-1.5c-0.3-0.6-0.5-1.2-0.7-1.8c-0.1-0.6-0.2-1.5-0.2-2.7c0-1.4-0.1-2.3-0.2-2.8
					c-0.1-0.7-0.4-1.3-0.7-1.7C354.7,225.7,354.2,225.3,353.6,224.9z"/>
				<path class="st73" d="M376.4,238c-0.5-0.2-0.8-0.4-1.1-0.4c-0.2,0-0.5,0.1-0.6,0.3c-0.2,0.2-0.3,0.6-0.4,1
					c-0.1,0.3-0.1,1-0.1,1.8c0,1.5-0.1,2.5-0.2,3c-0.1,0.5-0.3,0.9-0.6,1c-0.3,0.2-0.8,0.2-1.4,0.1c-0.4-0.1-1-0.4-1.9-0.9l-0.5-0.3
					V241c0.7,0.4,1.2,0.6,1.4,0.6c0.2,0,0.4,0,0.5-0.2c0.1-0.1,0.2-0.4,0.2-0.9c0-0.5,0-1.3,0.1-2.6c0-0.8,0.1-1.4,0.3-1.7
					c0.1-0.4,0.3-0.7,0.6-0.9c0.2-0.2,0.5-0.3,0.9-0.3c-0.5-0.6-0.8-1.2-1.1-1.7c-0.3-0.7-0.5-1.4-0.6-2.3c-0.1-0.6-0.1-1.8-0.2-3.6
					c0-0.6,0-1-0.1-1.2c-0.1-0.2-0.2-0.5-0.4-0.7c-0.2-0.2-0.7-0.6-1.4-1v-2.7l0.5,0.3c0.9,0.5,1.6,1,2,1.4c0.5,0.4,0.9,0.9,1.2,1.5
					c0.3,0.6,0.5,1.2,0.7,1.8c0.1,0.6,0.2,1.5,0.2,2.7c0,1.4,0,2.3,0.1,2.8c0.1,0.7,0.4,1.3,0.7,1.7c0.3,0.4,0.7,0.8,1.4,1.2V238z"
					/>
			</g>
		</g>
		<g>
			<g>
				
					<linearGradient id="SVGID_44_" gradientUnits="userSpaceOnUse" x1="982.2286" y1="36.3153" x2="988.784" y2="124.2778" gradientTransform="matrix(-1 0 0 1 1291.8766 0)">
					<stop  offset="0" style="stop-color:#FFE71F"/>
					<stop  offset="1" style="stop-color:#FF8602"/>
				</linearGradient>
				<path class="st74" d="M287.3,81.5c0,4.4,3.1,9.7,6.9,11.9l24.6,14.2c3.8,2.2,6.9,0.4,6.9-4V75.3c0-4.4-3.1-9.7-6.9-11.9
					l-24.6-14.2c-3.8-2.2-6.9-0.4-6.9,4V81.5z"/>
				
					<linearGradient id="SVGID_45_" gradientUnits="userSpaceOnUse" x1="978.9109" y1="64.7255" x2="970.4429" y2="81.6627" gradientTransform="matrix(-1 0 0 1 1291.8766 0)">
					<stop  offset="0" style="stop-color:#FFF78C"/>
					<stop  offset="1" style="stop-color:#E76008"/>
				</linearGradient>
				<path class="st75" d="M325.7,103.7V75.3c0-4.4-3.1-9.7-6.9-11.9l-24.6-14.2c-1.7-1-3.2-1.2-4.4-0.7v0l4.1-2.5
					c1.3-0.8,3-0.7,5,0.4l24.6,14.2c3.8,2.2,6.9,7.5,6.9,11.9l0,28.4c0,2.2-0.8,3.8-2.1,4.5l-4.6,2.7v0
					C325,107.3,325.7,105.8,325.7,103.7z"/>
			</g>
			<g>
				<path class="st73" d="M300.4,83.9l-7.9-11.1v-3.6l7.9-2v4.3l-5.5,0.8l5.5,7.3V83.9z"/>
				<path class="st73" d="M302.8,88.2l2.8-21.1l2.6,1.5l-2.9,21.1L302.8,88.2z"/>
				<path class="st73" d="M310.3,89.6v-4.2l5.5-1l-5.5-7.3v-4.2l7.9,11.1l0,3.6L310.3,89.6z"/>
			</g>
		</g>
		<g>
			<g>
				
					<linearGradient id="SVGID_46_" gradientUnits="userSpaceOnUse" x1="1043.3612" y1="58.5229" x2="1049.9166" y2="146.4846" gradientTransform="matrix(-1 0 0 1 1291.8766 0)">
					<stop  offset="0" style="stop-color:#C100FF"/>
					<stop  offset="1" style="stop-color:#6E00FF"/>
				</linearGradient>
				<path class="st76" d="M226.2,103.7c0,4.4,3.1,9.7,6.9,11.9l24.6,14.2c3.8,2.2,6.9,0.4,6.9-4V97.5c0-4.4-3.1-9.7-6.9-11.9
					l-24.6-14.2c-3.8-2.2-6.9-0.4-6.9,4V103.7z"/>
				
					<linearGradient id="SVGID_47_" gradientUnits="userSpaceOnUse" x1="1040.0444" y1="86.9326" x2="1031.5764" y2="103.8701" gradientTransform="matrix(-1 0 0 1 1291.8766 0)">
					<stop  offset="0" style="stop-color:#F532FF"/>
					<stop  offset="1" style="stop-color:#A232FF"/>
				</linearGradient>
				<path class="st77" d="M264.6,125.9V97.5c0-4.4-3.1-9.7-6.9-11.9l-24.6-14.2c-1.7-1-3.2-1.2-4.4-0.7v0l4.1-2.5
					c1.3-0.8,3-0.7,5,0.4l24.6,14.2c3.8,2.2,6.9,7.5,6.9,11.9l0,28.4c0,2.2-0.8,3.8-2.1,4.5l-4.6,2.7v0
					C263.8,129.5,264.6,128,264.6,125.9z"/>
			</g>
			<g>
				<path class="st73" d="M230.6,101.5V85.2l3.7,2.1c1.4,0.8,2.3,1.4,2.7,1.8c0.6,0.6,1.2,1.5,1.6,2.5c0.4,1.1,0.7,2.3,0.7,3.5
					c0,1-0.1,1.8-0.4,2.3c-0.3,0.5-0.6,0.9-1,1c-0.4,0.2-0.8,0.2-1.2,0.1c-0.5-0.2-1.3-0.5-2.4-1.1l-1.5-0.9v6.1L230.6,101.5z
					 M232.9,89.3v4.6l1.3,0.7c0.9,0.5,1.5,0.8,1.8,0.8c0.3,0,0.5-0.1,0.7-0.4c0.2-0.3,0.3-0.6,0.3-1.1c0-0.6-0.1-1.2-0.4-1.7
					c-0.2-0.5-0.6-0.9-0.9-1.3c-0.3-0.2-0.8-0.6-1.7-1.1L232.9,89.3z"/>
				<path class="st73" d="M241.2,107.6V91.4l2.3,1.3l0,6.4l4.5,2.6l0-6.4l2.3,1.3l0,16.3l-2.3-1.3l0-7.1l-4.5-2.6v7.1L241.2,107.6z"
					/>
				<path class="st73" d="M252.6,114.3V98l3.7,2.1c1.4,0.8,2.3,1.4,2.7,1.8c0.6,0.6,1.2,1.5,1.6,2.5c0.4,1.1,0.7,2.3,0.7,3.6
					c0,1-0.1,1.8-0.4,2.3c-0.3,0.5-0.6,0.9-1,1c-0.4,0.2-0.8,0.2-1.2,0.1c-0.5-0.2-1.3-0.5-2.4-1.1l-1.5-0.9v6.1L252.6,114.3z
					 M254.9,102.1v4.6l1.3,0.7c0.9,0.5,1.5,0.8,1.8,0.8c0.3,0,0.5-0.1,0.7-0.4c0.2-0.3,0.3-0.6,0.3-1.1c0-0.6-0.1-1.2-0.4-1.7
					c-0.2-0.5-0.5-0.9-0.9-1.3c-0.3-0.2-0.8-0.6-1.7-1.1L254.9,102.1z"/>
			</g>
		</g>
		<g>
			<g>
				
					<linearGradient id="SVGID_48_" gradientUnits="userSpaceOnUse" x1="1128.2234" y1="65.0464" x2="1134.7787" y2="153.0076" gradientTransform="matrix(-1 0 0 1 1291.8766 0)">
					<stop  offset="0" style="stop-color:#00C855"/>
					<stop  offset="1" style="stop-color:#009EC8"/>
				</linearGradient>
				<path class="st78" d="M141.3,110.3c0,4.4,3.1,9.7,6.9,11.9l24.6,14.2c3.8,2.2,6.9,0.4,6.9-4l0-28.4c0-4.4-3.1-9.7-6.9-11.9
					l-24.6-14.2c-3.8-2.2-6.9-0.4-6.9,4V110.3z"/>
				
					<linearGradient id="SVGID_49_" gradientUnits="userSpaceOnUse" x1="1124.906" y1="93.4558" x2="1116.438" y2="110.3932" gradientTransform="matrix(-1 0 0 1 1291.8766 0)">
					<stop  offset="0" style="stop-color:#38F687"/>
					<stop  offset="1" style="stop-color:#76EAFF"/>
				</linearGradient>
				<path class="st79" d="M179.7,132.4l0-28.4c0-4.4-3.1-9.7-6.9-11.9l-24.6-14.2c-1.7-1-3.2-1.2-4.4-0.7v0l4.1-2.5
					c1.3-0.8,3-0.7,5,0.4l24.6,14.2c3.8,2.2,6.9,7.5,6.9,11.9l0,28.4c0,2.2-0.8,3.8-2.1,4.5l-4.6,2.7v0
					C179,136.1,179.7,134.5,179.7,132.4z"/>
			</g>
			<g>
				<path class="st73" d="M152.3,104.8l2.1,2.1c-0.3,1.4-0.9,2.3-1.6,2.6c-0.8,0.3-1.7,0.2-2.9-0.5c-1.5-0.8-2.6-2.2-3.6-4.1
					c-0.9-1.9-1.4-3.9-1.4-6.2c0-2.4,0.5-4,1.4-4.9c0.9-0.8,2.2-0.8,3.7,0.1c1.3,0.8,2.4,1.9,3.3,3.5c0.5,0.9,0.9,2,1.1,3.3
					l-2.2-0.6c-0.1-0.8-0.4-1.6-0.8-2.3c-0.4-0.7-0.9-1.2-1.5-1.5c-0.8-0.5-1.5-0.5-2,0c-0.5,0.5-0.8,1.6-0.8,3.3
					c0,1.8,0.2,3.3,0.7,4.4c0.5,1.1,1.1,1.8,1.9,2.3c0.6,0.3,1.1,0.4,1.5,0.1C151.8,106.4,152.1,105.8,152.3,104.8z"/>
				<path class="st73" d="M155.8,107.4l2.1,1c0.1,1,0.4,1.9,0.8,2.6c0.4,0.7,0.9,1.2,1.6,1.6c0.7,0.4,1.2,0.5,1.6,0.3
					c0.4-0.2,0.5-0.6,0.5-1.1c0-0.3-0.1-0.7-0.2-1c-0.2-0.3-0.4-0.7-0.8-1.1c-0.3-0.3-0.9-0.8-1.8-1.7c-1.2-1.1-2-2-2.5-2.9
					c-0.7-1.2-1-2.4-1-3.5c0-0.7,0.2-1.4,0.5-1.8c0.3-0.5,0.8-0.7,1.4-0.7c0.6,0,1.3,0.2,2.2,0.7c1.4,0.8,2.4,1.8,3.1,3
					c0.7,1.2,1.1,2.5,1.1,3.9l-2.2-1.1c-0.1-0.8-0.3-1.5-0.6-2c-0.3-0.5-0.8-0.9-1.4-1.3c-0.6-0.4-1.1-0.5-1.5-0.3
					c-0.2,0.1-0.4,0.3-0.4,0.7c0,0.3,0.1,0.7,0.3,1.1c0.3,0.5,1,1.2,2,2.1c1.1,1,1.9,1.8,2.4,2.4c0.5,0.7,0.9,1.4,1.2,2.2
					c0.3,0.8,0.4,1.7,0.4,2.6c0,0.8-0.2,1.5-0.5,2c-0.3,0.5-0.8,0.8-1.5,0.8c-0.6,0-1.4-0.3-2.4-0.8c-1.4-0.8-2.4-1.8-3.2-3.1
					C156.4,110.6,155.9,109.1,155.8,107.4z"/>
				<path class="st73" d="M166,113.3l2.2,1c0.1,1,0.4,1.9,0.8,2.6c0.4,0.7,0.9,1.2,1.6,1.6c0.7,0.4,1.2,0.5,1.6,0.3
					c0.4-0.2,0.5-0.6,0.5-1.1c0-0.3-0.1-0.7-0.2-1c-0.2-0.3-0.4-0.7-0.8-1.1c-0.3-0.3-0.9-0.8-1.8-1.7c-1.2-1.1-2-2-2.5-2.9
					c-0.7-1.2-1-2.4-1-3.5c0-0.7,0.2-1.3,0.5-1.8c0.3-0.5,0.8-0.7,1.4-0.7c0.6,0,1.3,0.2,2.2,0.7c1.4,0.8,2.4,1.8,3.1,3
					c0.7,1.2,1.1,2.5,1.1,3.9l-2.2-1.1c-0.1-0.8-0.3-1.5-0.6-2c-0.3-0.5-0.8-0.9-1.4-1.3c-0.6-0.4-1.1-0.5-1.5-0.3
					c-0.2,0.1-0.4,0.3-0.4,0.7c0,0.3,0.1,0.7,0.3,1.1c0.3,0.5,1,1.2,2,2.1c1.1,1,1.9,1.8,2.4,2.4c0.5,0.7,0.9,1.4,1.2,2.2
					c0.3,0.8,0.4,1.7,0.4,2.6c0,0.8-0.2,1.5-0.5,2c-0.3,0.5-0.8,0.8-1.5,0.8c-0.6,0-1.4-0.3-2.4-0.8c-1.4-0.8-2.4-1.8-3.2-3.1
					C166.6,116.5,166.1,115,166,113.3z"/>
			</g>
		</g>
		<g>
			<g>
				
					<linearGradient id="SVGID_50_" gradientUnits="userSpaceOnUse" x1="865.8256" y1="240.9123" x2="872.381" y2="328.8737" gradientTransform="matrix(-1 0 0 1 1291.8766 0)">
					<stop  offset="0" style="stop-color:#2962FF"/>
					<stop  offset="1" style="stop-color:#29FFEE"/>
				</linearGradient>
				<path class="st80" d="M403.7,286.1c0,4.4,3.1,9.7,6.9,11.9l24.6,14.2c3.8,2.2,6.9,0.4,6.9-4l0-28.4c0-4.4-3.1-9.7-6.9-11.9
					l-24.6-14.2c-3.8-2.2-6.9-0.4-6.9,4V286.1z"/>
				
					<linearGradient id="SVGID_51_" gradientUnits="userSpaceOnUse" x1="862.5085" y1="269.3221" x2="854.0405" y2="286.2596" gradientTransform="matrix(-1 0 0 1 1291.8766 0)">
					<stop  offset="0" style="stop-color:#6D99FE"/>
					<stop  offset="1" style="stop-color:#98FFFE"/>
				</linearGradient>
				<path class="st81" d="M442.1,308.3l0-28.4c0-4.4-3.1-9.7-6.9-11.9l-24.6-14.2c-1.7-1-3.2-1.2-4.4-0.7v0l4.1-2.5
					c1.3-0.8,3-0.7,5,0.4l24.6,14.2c3.8,2.2,6.9,7.5,6.9,11.9l0,28.4c0,2.2-0.8,3.8-2.1,4.5l-4.6,2.7v0
					C441.4,311.9,442.1,310.4,442.1,308.3z"/>
			</g>
			<g>
				<path class="st73" d="M417.3,271.5l2.6,1.5v9.4c0,1.2-0.1,2.1-0.3,2.7c-0.3,0.7-0.7,1.2-1.4,1.3c-0.7,0.1-1.5-0.1-2.6-0.7
					c-1.3-0.7-2.2-1.7-2.9-2.9c-0.7-1.2-1-2.6-1-4.2l2.4,1.1c0,0.9,0.1,1.5,0.3,2c0.3,0.7,0.7,1.2,1.3,1.5c0.6,0.3,1,0.4,1.2,0.1
					c0.2-0.2,0.4-1,0.4-2.2V271.5z"/>
				<path class="st73" d="M421.8,285.9l2.5,1c0.1,0.6,0.3,1.2,0.6,1.6c0.3,0.5,0.8,0.9,1.4,1.2c0.6,0.4,1.1,0.5,1.4,0.4
					c0.2-0.1,0.3-0.3,0.3-0.6c0-0.2-0.1-0.4-0.2-0.6c-0.1-0.2-0.4-0.5-0.8-0.9c-2-1.7-3.3-2.8-3.8-3.6c-0.7-1-1.1-2-1.1-3.1
					c0-0.9,0.3-1.5,1-1.8c0.6-0.3,1.6,0,3,0.8c1.3,0.7,2.2,1.5,2.8,2.4c0.6,0.8,1,1.8,1.3,2.9l-2.3-0.8c-0.1-0.5-0.3-0.9-0.6-1.3
					c-0.3-0.4-0.7-0.7-1.2-1c-0.6-0.4-1.1-0.5-1.4-0.5c-0.2,0-0.3,0.2-0.3,0.4c0,0.2,0.1,0.4,0.2,0.7c0.2,0.3,1,1,2.3,2.1
					c1.3,1.1,2.2,2.1,2.8,2.9c0.5,0.8,0.8,1.7,0.8,2.6c0,1-0.4,1.6-1.1,1.9c-0.7,0.3-1.8,0-3.2-0.8c-1.3-0.7-2.3-1.6-3-2.6
					C422.5,288.1,422,287,421.8,285.9z"/>
			</g>
		</g>
		<g>
			<g>
				
					<linearGradient id="SVGID_52_" gradientUnits="userSpaceOnUse" x1="1204.4541" y1="126.034" x2="1211.0094" y2="213.9959" gradientTransform="matrix(-1 0 0 1 1291.8766 0)">
					<stop  offset="0" style="stop-color:#FFE71F"/>
					<stop  offset="1" style="stop-color:#FF8602"/>
				</linearGradient>
				<path class="st82" d="M65.1,171.3c0,4.4,3.1,9.7,6.9,11.9l24.6,14.2c3.8,2.2,6.9,0.4,6.9-4l0-28.4c0-4.4-3.1-9.7-6.9-11.9
					L72,138.9c-3.8-2.2-6.9-0.4-6.9,4V171.3z"/>
				
					<linearGradient id="SVGID_53_" gradientUnits="userSpaceOnUse" x1="1201.1357" y1="154.4431" x2="1192.6677" y2="171.3805" gradientTransform="matrix(-1 0 0 1 1291.8766 0)">
					<stop  offset="0" style="stop-color:#FFF78C"/>
					<stop  offset="1" style="stop-color:#E76008"/>
				</linearGradient>
				<path class="st83" d="M103.5,193.4l0-28.4c0-4.4-3.1-9.7-6.9-11.9L72,138.9c-1.7-1-3.2-1.2-4.4-0.7v0l4.1-2.5
					c1.3-0.8,3-0.7,5,0.4l24.6,14.2c3.8,2.2,6.9,7.5,6.9,11.9l0,28.4c0,2.2-0.8,3.8-2.1,4.5l-4.6,2.7v0
					C102.7,197,103.5,195.5,103.5,193.4z"/>
			</g>
			<g>
				<path class="st73" d="M68.7,165.4v-12.5l1.7,1v4.9l3.3,1.9l0-4.9l1.7,1v12.5l-1.7-1l0-5.5l-3.3-1.9v5.5L68.7,165.4z"/>
				<path class="st73" d="M79,171.3V161l-2.5-1.4v-2.1l6.6,3.8v2.1l-2.5-1.4v10.4L79,171.3z"/>
				<path class="st73" d="M84.1,174.3v-12.5l2.5,1.4l1.5,9.4l1.5-7.7l2.5,1.5l0,12.5l-1.6-0.9v-9.8l-1.6,8.9l-1.6-0.9l-1.6-10.8
					l0,9.8L84.1,174.3z"/>
				<path class="st73" d="M93.9,179.9v-12.4l1.7,1v10.3l4.2,2.4v2.1L93.9,179.9z"/>
			</g>
		</g>
		
			<linearGradient id="SVGID_54_" gradientUnits="userSpaceOnUse" x1="1226.0043" y1="197.6729" x2="1229.8905" y2="249.8194" gradientTransform="matrix(-1 0 0 1 1291.8766 0)">
			<stop  offset="0" style="stop-color:#A9D0E5"/>
			<stop  offset="1" style="stop-color:#000000"/>
		</linearGradient>
		<path class="st84" d="M52.6,224.5c0,2.6,1.8,5.8,4.1,7.1l14.6,8.4c2.2,1.3,4.1,0.2,4.1-2.4v-16.8c0-2.6-1.8-5.8-4.1-7.1l-14.6-8.4
			c-2.2-1.3-4.1-0.2-4.1,2.4V224.5z"/>
		
			<linearGradient id="SVGID_55_" gradientUnits="userSpaceOnUse" x1="1135.2085" y1="154.9625" x2="1137.2504" y2="182.3604" gradientTransform="matrix(-1 0 0 1 1291.8766 0)">
			<stop  offset="0" style="stop-color:#A9D0E5"/>
			<stop  offset="1" style="stop-color:#000000"/>
		</linearGradient>
		<path class="st85" d="M149.7,169c0,1.4,1,3,2.1,3.7l7.7,4.4c1.2,0.7,2.1,0.1,2.1-1.2v-8.9c0-1.4-1-3-2.1-3.7l-7.7-4.4
			c-1.2-0.7-2.1-0.1-2.1,1.2V169z"/>
		
			<linearGradient id="SVGID_56_" gradientUnits="userSpaceOnUse" x1="1238.2593" y1="93.6662" x2="1240.301" y2="121.0631" gradientTransform="matrix(-1 0 0 1 1291.8766 0)">
			<stop  offset="0" style="stop-color:#A9D0E5"/>
			<stop  offset="1" style="stop-color:#000000"/>
		</linearGradient>
		<path class="st86" d="M46.7,107.8c0,1.4,1,3,2.1,3.7l7.7,4.4c1.2,0.7,2.1,0.1,2.1-1.2v-8.8c0-1.4-1-3-2.1-3.7l-7.7-4.4
			c-1.2-0.7-2.1-0.1-2.1,1.2V107.8z"/>
		
			<linearGradient id="SVGID_57_" gradientUnits="userSpaceOnUse" x1="1130.7198" y1="29.0207" x2="1132.7616" y2="56.4178" gradientTransform="matrix(-1 0 0 1 1291.8766 0)">
			<stop  offset="0" style="stop-color:#A9D0E5"/>
			<stop  offset="1" style="stop-color:#000000"/>
		</linearGradient>
		<path class="st87" d="M154.2,43.1c0,1.4,1,3,2.1,3.7l7.7,4.4c1.2,0.7,2.1,0.1,2.1-1.2v-8.9c0-1.4-1-3-2.1-3.7l-7.7-4.4
			c-1.2-0.7-2.1-0.1-2.1,1.2V43.1z"/>
		
			<linearGradient id="SVGID_58_" gradientUnits="userSpaceOnUse" x1="1077.454" y1="11.7072" x2="1079.4957" y2="39.1047" gradientTransform="matrix(-1 0 0 1 1291.8766 0)">
			<stop  offset="0" style="stop-color:#A9D0E5"/>
			<stop  offset="1" style="stop-color:#000000"/>
		</linearGradient>
		<path class="st88" d="M207.5,25.8c0,1.4,1,3,2.1,3.7l7.7,4.4c1.2,0.7,2.1,0.1,2.1-1.2v-8.9c0-1.4-1-3-2.1-3.7l-7.7-4.4
			c-1.2-0.7-2.1-0.1-2.1,1.2V25.8z"/>
		
			<linearGradient id="SVGID_59_" gradientUnits="userSpaceOnUse" x1="901.7015" y1="93.6657" x2="903.7433" y2="121.0626" gradientTransform="matrix(-1 0 0 1 1291.8766 0)">
			<stop  offset="0" style="stop-color:#A9D0E5"/>
			<stop  offset="1" style="stop-color:#000000"/>
		</linearGradient>
		<path class="st89" d="M383.2,107.8c0,1.4,1,3,2.1,3.7l7.7,4.4c1.2,0.7,2.1,0.1,2.1-1.2v-8.8c0-1.4-1-3-2.1-3.7l-7.7-4.4
			c-1.2-0.7-2.1-0.1-2.1,1.2V107.8z"/>
		
			<linearGradient id="SVGID_60_" gradientUnits="userSpaceOnUse" x1="855.6998" y1="92.6458" x2="857.7415" y2="120.0429" gradientTransform="matrix(-1 0 0 1 1291.8766 0)">
			<stop  offset="0" style="stop-color:#A9D0E5"/>
			<stop  offset="1" style="stop-color:#000000"/>
		</linearGradient>
		<path class="st90" d="M429.2,106.7c0,1.4,1,3,2.1,3.7l7.7,4.4c1.2,0.7,2.1,0.1,2.1-1.2v-8.8c0-1.4-1-3-2.1-3.7l-7.7-4.4
			c-1.2-0.7-2.1-0.1-2.1,1.2V106.7z"/>
		
			<linearGradient id="SVGID_61_" gradientUnits="userSpaceOnUse" x1="890.0783" y1="51.3311" x2="892.1201" y2="78.7288" gradientTransform="matrix(-1 0 0 1 1291.8766 0)">
			<stop  offset="0" style="stop-color:#A9D0E5"/>
			<stop  offset="1" style="stop-color:#000000"/>
		</linearGradient>
		<path class="st91" d="M394.8,65.4c0,1.4,1,3,2.1,3.7l7.7,4.4c1.2,0.7,2.1,0.1,2.1-1.2v-8.9c0-1.4-1-3-2.1-3.7l-7.7-4.4
			c-1.2-0.7-2.1-0.1-2.1,1.2V65.4z"/>
		
			<linearGradient id="SVGID_62_" gradientUnits="userSpaceOnUse" x1="956.7874" y1="153.5956" x2="958.8292" y2="180.9927" gradientTransform="matrix(-1 0 0 1 1291.8766 0)">
			<stop  offset="0" style="stop-color:#A9D0E5"/>
			<stop  offset="1" style="stop-color:#000000"/>
		</linearGradient>
		<path class="st92" d="M328.1,167.7c0,1.4,1,3,2.1,3.7l7.7,4.4c1.2,0.7,2.1,0.1,2.1-1.2v-8.9c0-1.4-1-3-2.1-3.7l-7.7-4.4
			c-1.2-0.7-2.1-0.1-2.1,1.2V167.7z"/>
		
			<linearGradient id="SVGID_63_" gradientUnits="userSpaceOnUse" x1="817.7023" y1="186.8375" x2="819.8443" y2="215.5788" gradientTransform="matrix(-1 0 0 1 1291.8766 0)">
			<stop  offset="0" style="stop-color:#A9D0E5"/>
			<stop  offset="1" style="stop-color:#000000"/>
		</linearGradient>
		<path class="st93" d="M466.9,201.6c0,1.4,1,3.2,2.2,3.9l8,4.6c1.2,0.7,2.2,0.1,2.2-1.3v-9.3c0-1.4-1-3.2-2.2-3.9l-8-4.6
			c-1.2-0.7-2.2-0.1-2.2,1.3V201.6z"/>
		
			<linearGradient id="SVGID_64_" gradientUnits="userSpaceOnUse" x1="1248.7493" y1="145.3334" x2="1252.6355" y2="197.4793" gradientTransform="matrix(-1 0 0 1 1291.8766 0)">
			<stop  offset="0" style="stop-color:#A9D0E5"/>
			<stop  offset="1" style="stop-color:#000000"/>
		</linearGradient>
		<path class="st94" d="M29.9,172.1c0,2.6,1.8,5.8,4.1,7.1l14.6,8.4c2.2,1.3,4.1,0.2,4.1-2.4v-16.8c0-2.6-1.8-5.8-4.1-7.1L34,152.9
			c-2.2-1.3-4.1-0.2-4.1,2.4V172.1z"/>
		
			<linearGradient id="SVGID_65_" gradientUnits="userSpaceOnUse" x1="1093.3306" y1="29.158" x2="1097.2167" y2="81.3042" gradientTransform="matrix(-1 0 0 1 1291.8766 0)">
			<stop  offset="0" style="stop-color:#A9D0E5"/>
			<stop  offset="1" style="stop-color:#000000"/>
		</linearGradient>
		<path class="st95" d="M185.3,56c0,2.6,1.8,5.8,4.1,7.1l14.6,8.4c2.2,1.3,4.1,0.2,4.1-2.4V52.3c0-2.6-1.8-5.8-4.1-7.1l-14.6-8.4
			c-2.2-1.3-4.1-0.2-4.1,2.4V56z"/>
		
			<linearGradient id="SVGID_66_" gradientUnits="userSpaceOnUse" x1="816.8678" y1="256.8762" x2="820.7541" y2="309.0243" gradientTransform="matrix(-1 0 0 1 1291.8766 0)">
			<stop  offset="0" style="stop-color:#A9D0E5"/>
			<stop  offset="1" style="stop-color:#000000"/>
		</linearGradient>
		<path class="st96" d="M461.8,283.7c0,2.6,1.8,5.8,4.1,7.1l14.6,8.4c2.2,1.3,4.1,0.2,4.1-2.4V280c0-2.6-1.8-5.8-4.1-7.1l-14.6-8.4
			c-2.2-1.3-4.1-0.2-4.1,2.4V283.7z"/>
		
			<linearGradient id="SVGID_67_" gradientUnits="userSpaceOnUse" x1="886.2861" y1="364.1838" x2="890.1724" y2="416.3316" gradientTransform="matrix(-1 0 0 1 1291.8766 0)">
			<stop  offset="0" style="stop-color:#A9D0E5"/>
			<stop  offset="1" style="stop-color:#000000"/>
		</linearGradient>
		<path class="st97" d="M392.4,391c0,2.6,1.8,5.8,4.1,7.1l14.6,8.4c2.2,1.3,4.1,0.2,4.1-2.4v-16.8c0-2.6-1.8-5.8-4.1-7.1l-14.6-8.4
			c-2.2-1.3-4.1-0.2-4.1,2.4V391z"/>
		
			<linearGradient id="SVGID_68_" gradientUnits="userSpaceOnUse" x1="871.2128" y1="122.1367" x2="875.0991" y2="174.2847" gradientTransform="matrix(-1 0 0 1 1291.8766 0)">
			<stop  offset="0" style="stop-color:#A9D0E5"/>
			<stop  offset="1" style="stop-color:#000000"/>
		</linearGradient>
		<path class="st98" d="M407.4,148.9c0,2.6,1.8,5.8,4.1,7.1l14.6,8.4c2.2,1.3,4.1,0.2,4.1-2.4v-16.8c0-2.6-1.8-5.8-4.1-7.1
			l-14.6-8.4c-2.2-1.3-4.1-0.2-4.1,2.4V148.9z"/>
		
			<linearGradient id="SVGID_69_" gradientUnits="userSpaceOnUse" x1="984.5217" y1="106.1987" x2="988.4081" y2="158.3471" gradientTransform="matrix(-1 0 0 1 1291.8766 0)">
			<stop  offset="0" style="stop-color:#A9D0E5"/>
			<stop  offset="1" style="stop-color:#000000"/>
		</linearGradient>
		<path class="st99" d="M294.1,133c0,2.6,1.8,5.8,4.1,7.1l14.6,8.4c2.2,1.3,4.1,0.2,4.1-2.4v-16.8c0-2.6-1.8-5.8-4.1-7.1l-14.6-8.4
			c-2.2-1.3-4.1-0.2-4.1,2.4V133z"/>
		
			<linearGradient id="SVGID_70_" gradientUnits="userSpaceOnUse" x1="929.6242" y1="35.074" x2="933.5106" y2="87.2223" gradientTransform="matrix(-1 0 0 1 1291.8766 0)">
			<stop  offset="0" style="stop-color:#A9D0E5"/>
			<stop  offset="1" style="stop-color:#000000"/>
		</linearGradient>
		<path class="st100" d="M349,61.9c0,2.6,1.8,5.8,4.1,7.1l14.6,8.4c2.2,1.3,4.1,0.2,4.1-2.4V58.2c0-2.6-1.8-5.8-4.1-7.1l-14.6-8.4
			c-2.2-1.3-4.1-0.2-4.1,2.4V61.9z"/>
		
			<linearGradient id="SVGID_71_" gradientUnits="userSpaceOnUse" x1="1020.6272" y1="17.1779" x2="1024.5135" y2="69.3257" gradientTransform="matrix(-1 0 0 1 1291.8766 0)">
			<stop  offset="0" style="stop-color:#A9D0E5"/>
			<stop  offset="1" style="stop-color:#000000"/>
		</linearGradient>
		<path class="st101" d="M258,44c0,2.6,1.8,5.8,4.1,7.1l14.6,8.4c2.2,1.3,4.1,0.2,4.1-2.4V40.3c0-2.6-1.8-5.8-4.1-7.1l-14.6-8.4
			c-2.2-1.3-4.1-0.2-4.1,2.4V44z"/>
		<g>
			<g>
				
					<linearGradient id="SVGID_72_" gradientUnits="userSpaceOnUse" x1="863.457" y1="164.7909" x2="870.0123" y2="252.7525" gradientTransform="matrix(-1 0 0 1 1291.8766 0)">
					<stop  offset="0" style="stop-color:#FDB441"/>
					<stop  offset="1" style="stop-color:#FF20B3"/>
				</linearGradient>
				<path class="st102" d="M406.1,210c0,4.4,3.1,9.7,6.9,11.9l24.6,14.2c3.8,2.2,6.9,0.4,6.9-4v-28.4c0-4.4-3.1-9.7-6.9-11.9
					L413,177.6c-3.8-2.2-6.9-0.4-6.9,4V210z"/>
				
					<linearGradient id="SVGID_73_" gradientUnits="userSpaceOnUse" x1="860.1401" y1="193.1997" x2="851.6719" y2="210.1373" gradientTransform="matrix(-1 0 0 1 1291.8766 0)">
					<stop  offset="0" style="stop-color:#FFCE6D"/>
					<stop  offset="1" style="stop-color:#CA1B77"/>
				</linearGradient>
				<path class="st103" d="M444.5,232.2v-28.4c0-4.4-3.1-9.7-6.9-11.9L413,177.6c-1.7-1-3.2-1.2-4.4-0.7v0l4.1-2.5
					c1.3-0.8,3-0.7,5,0.4l24.6,14.2c3.8,2.2,6.9,7.5,6.9,11.9l0,28.4c0,2.2-0.8,3.8-2.1,4.5l-4.6,2.7v0
					C443.7,235.8,444.5,234.3,444.5,232.2z"/>
			</g>
			<g>
				<path class="st73" d="M418.5,207.5l2.3,2.4c-0.3,1.6-0.9,2.7-1.7,3.1c-0.8,0.4-1.8,0.3-3.1-0.4c-1.5-0.9-2.8-2.4-3.8-4.5
					c-1-2.1-1.5-4.5-1.5-7.1c0-2.8,0.5-4.7,1.5-5.7c1-1,2.3-1,3.9-0.1c1.4,0.8,2.6,2.1,3.5,3.8c0.5,1,0.9,2.3,1.2,3.8l-2.3-0.5
					c-0.1-1-0.4-1.8-0.9-2.6c-0.4-0.8-1-1.3-1.6-1.7c-0.9-0.5-1.6-0.4-2.1,0.1c-0.5,0.6-0.8,1.9-0.8,3.9c0,2.1,0.3,3.8,0.8,5
					c0.5,1.2,1.2,2.1,2.1,2.5c0.6,0.4,1.2,0.4,1.6,0.1C418,209.3,418.3,208.6,418.5,207.5z"/>
				<path class="st73" d="M425.3,215.2v-4.4l-3-1.8v-3l3,1.8v-4.4l2,1.2v4.4l3,1.8l0,3l-3-1.8l0,4.4L425.3,215.2z"/>
				<path class="st73" d="M434.8,220.7v-4.4l-3-1.8v-3l3,1.8v-4.4l2,1.2v4.4l3,1.8v3l-3-1.8l0,4.4L434.8,220.7z"/>
			</g>
		</g>
		<g>
			<g>
				
					<linearGradient id="SVGID_74_" gradientUnits="userSpaceOnUse" x1="921.4752" y1="94.4297" x2="928.0306" y2="182.3917" gradientTransform="matrix(-1 0 0 1 1291.8766 0)">
					<stop  offset="0" style="stop-color:#00C855"/>
					<stop  offset="1" style="stop-color:#009EC8"/>
				</linearGradient>
				<path class="st104" d="M348.1,139.7c0,4.4,3.1,9.7,6.9,11.9l24.6,14.2c3.8,2.2,6.9,0.4,6.9-4v-28.4c0-4.4-3.1-9.7-6.9-11.9
					L355,107.3c-3.8-2.2-6.9-0.4-6.9,4V139.7z"/>
				
					<linearGradient id="SVGID_75_" gradientUnits="userSpaceOnUse" x1="918.1588" y1="122.8388" x2="909.6906" y2="139.7765" gradientTransform="matrix(-1 0 0 1 1291.8766 0)">
					<stop  offset="0" style="stop-color:#38F687"/>
					<stop  offset="1" style="stop-color:#76EAFF"/>
				</linearGradient>
				<path class="st105" d="M386.4,161.8v-28.4c0-4.4-3.1-9.7-6.9-11.9L355,107.3c-1.7-1-3.2-1.2-4.4-0.7v0l4.1-2.5
					c1.3-0.8,3-0.7,5,0.4l24.6,14.2c3.8,2.2,6.9,7.5,6.9,11.9l0,28.4c0,2.2-0.8,3.8-2.1,4.5l-4.6,2.7v0
					C385.7,165.4,386.4,163.9,386.4,161.8z"/>
			</g>
			<path class="st73" d="M375.8,139.1l-1.3-0.8c-0.5-0.3-1.1-0.9-1.2-1.3c-0.1-0.4-0.2-1.7,0.2-1.9l0.9-0.5c0.4-0.2,0.4-0.9,0-1.6
				l-1.6-2.7c-0.4-0.7-1-1-1.4-0.8l-0.9,0.5c-0.4,0.2-0.9,0.1-1.2-0.2c-0.3-0.3-1.1-1.6-1.1-2.2v-1.5c0-0.6-0.4-1.4-1-1.7l-2.2-1.3
				c-0.5-0.3-1-0.1-1,0.6l0,1.5c0,0.6-0.2,1.1-0.6,1c-0.3-0.1-1.4-0.6-1.7-1.2l-0.9-1.6c-0.4-0.7-1-1-1.4-0.8l-1.6,0.9
				c-0.4,0.2-0.4,0.9,0,1.6l0.9,1.6c0.4,0.7,0.6,1.4,0.4,1.6c-0.1,0.3-0.9,0.8-1.4,0.5l-1.3-0.8c-0.5-0.3-1-0.1-1,0.6v2.6
				c0,0.6,0.4,1.4,1,1.7l1.3,0.8c0.5,0.3,1.1,0.9,1.2,1.3c0.1,0.4,0.2,1.7-0.2,1.9l-1,0.5c-0.4,0.2-0.4,0.9,0,1.6l1.6,2.7
				c0.4,0.6,1,1,1.4,0.8l0.9-0.5c0.4-0.2,0.9-0.1,1.2,0.2c0.3,0.3,1.1,1.6,1.1,2.2v1.6c0,0.6,0.4,1.4,1,1.7l2.2,1.3
				c0.5,0.3,1,0.1,1-0.6v-1.5c0-0.6,0.2-1.1,0.6-1c0.3,0.1,1.4,0.6,1.7,1.2l0.9,1.6c0.4,0.7,1,1,1.4,0.8l1.6-0.9
				c0.4-0.2,0.4-0.9,0-1.6l-0.9-1.6c-0.4-0.7-0.6-1.4-0.4-1.6c0.1-0.3,0.9-0.8,1.4-0.5l1.3,0.8c0.5,0.3,1,0.1,1-0.6v-2.6
				C376.8,140.2,376.4,139.4,375.8,139.1z M366.2,141.6c-2.7-1.5-4.8-5.3-4.8-8.4c0-3.1,2.2-4.3,4.8-2.8c2.7,1.5,4.9,5.3,4.9,8.4
				C371.1,141.9,368.9,143.1,366.2,141.6z"/>
		</g>
		<g>
			<g>
				
					<linearGradient id="SVGID_76_" gradientUnits="userSpaceOnUse" x1="871.2267" y1="309.662" x2="877.782" y2="397.6239" gradientTransform="matrix(-1 0 0 1 1291.8766 0)">
					<stop  offset="0" style="stop-color:#A9FB00"/>
					<stop  offset="1" style="stop-color:#12DE13"/>
				</linearGradient>
				<path class="st106" d="M398.3,354.9c0,4.4,3.1,9.7,6.9,11.9l24.6,14.2c3.8,2.2,6.9,0.4,6.9-4l0-28.4c0-4.4-3.1-9.7-6.9-11.9
					l-24.6-14.2c-3.8-2.2-6.9-0.4-6.9,4V354.9z"/>
				
					<linearGradient id="SVGID_77_" gradientUnits="userSpaceOnUse" x1="867.91" y1="338.0713" x2="859.4418" y2="355.009" gradientTransform="matrix(-1 0 0 1 1291.8766 0)">
					<stop  offset="0" style="stop-color:#D9FF89"/>
					<stop  offset="1" style="stop-color:#25FF26"/>
				</linearGradient>
				<path class="st107" d="M436.7,377l0-28.4c0-4.4-3.1-9.7-6.9-11.9l-24.6-14.2c-1.7-1-3.2-1.2-4.4-0.7v0l4.1-2.5
					c1.3-0.8,3-0.7,5,0.4l24.6,14.2c3.8,2.2,6.9,7.5,6.9,11.9l0,28.4c0,2.2-0.8,3.8-2.1,4.5l-4.6,2.7v0
					C436,380.7,436.7,379.2,436.7,377z"/>
			</g>
			<g>
				<path class="st73" d="M426.5,345.9l-1.4-2.4l-3.1,1.8c0.6,0.7,1.1,1.5,1.5,2.3L426.5,345.9z"/>
				<path class="st73" d="M412.1,339.7l-3.1-5.4l-1.4,0.8l3,5.1C411,339.9,411.5,339.7,412.1,339.7z"/>
				<path class="st73" d="M418,341.5v-5.4l-1.9-1.1v5.4c0.3,0.1,0.6,0.3,1,0.4C417.4,341,417.7,341.3,418,341.5z"/>
				<path class="st73" d="M404.7,343.8l3.2,1.9c0-0.7,0.1-1.4,0.3-2l-3.5-2V343.8z"/>
				<path class="st73" d="M425.9,353.8c0.2,0.8,0.3,1.6,0.3,2.4l3.2,1.9v-2.2L425.9,353.8z"/>
				<path class="st73" d="M417,343.3c-3.9-2.2-7-0.4-7,4c0,2.1,0.9,4.4,1.8,6.5c1,2.2,2.2,3.6,2.2,5.6c0,1.3,0,4.2,0,4.2
					c0,0.9,0.7,2.1,1.5,2.5l3,1.7c0.8,0.5,1.5,0.1,1.5-0.8c0,0,0-2.9,0-4.2c0-2,1.2-1.9,2.2-3.1c0.9-1.1,1.8-2.3,1.8-4.4
					C424,351,420.9,345.6,417,343.3z M420.8,355c0,0,0.9-3.3-3.2-9.9c0,0,5.5,3.8,5.4,11.1L420.8,355z"/>
			</g>
		</g>
		<g>
			<g>
				
					<linearGradient id="SVGID_78_" gradientUnits="userSpaceOnUse" x1="1192.2898" y1="39.1567" x2="1198.8452" y2="127.1186" gradientTransform="matrix(-1 0 0 1 1291.8766 0)">
					<stop  offset="0" style="stop-color:#2962FF"/>
					<stop  offset="1" style="stop-color:#29FFEE"/>
				</linearGradient>
				<path class="st108" d="M77.3,84.4c0,4.4,3.1,9.7,6.9,11.9l24.6,14.2c3.8,2.2,6.9,0.4,6.9-4V78.1c0-4.4-3.1-9.7-6.9-11.9L84.1,52
					c-3.8-2.2-6.9-0.4-6.9,4V84.4z"/>
				
					<linearGradient id="SVGID_79_" gradientUnits="userSpaceOnUse" x1="1188.9722" y1="67.5655" x2="1180.5042" y2="84.5031" gradientTransform="matrix(-1 0 0 1 1291.8766 0)">
					<stop  offset="0" style="stop-color:#6D99FE"/>
					<stop  offset="1" style="stop-color:#98FFFE"/>
				</linearGradient>
				<path class="st109" d="M115.6,106.5V78.1c0-4.4-3.1-9.7-6.9-11.9L84.1,52c-1.7-1-3.2-1.2-4.4-0.7v0l4.1-2.5c1.3-0.8,3-0.7,5,0.4
					l24.6,14.2c3.8,2.2,6.9,7.5,6.9,11.9l0,28.4c0,2.2-0.8,3.8-2.1,4.5l-4.6,2.7v0C114.9,110.2,115.6,108.7,115.6,106.5z"/>
			</g>
			<path class="st73" d="M106,76.9c-3.5-6-9.1-9.3-12.6-7.3c-3.3,1.9-3.4,7.7-0.6,13.4l-1.5,0.9l-0.6-1.1l-6.9,4l2.5,4.4l6.9-4
				l-0.6-1.1l1.5-0.9c3.5,5.3,8.6,8.1,11.9,6.2C109.4,89.4,109.4,82.9,106,76.9z M104.3,88.6c-2.6,1.5-6.8-0.9-9.4-5.4
				c-2.6-4.5-2.6-9.3,0-10.8c2.6-1.5,6.8,0.9,9.4,5.4C106.9,82.3,106.9,87.1,104.3,88.6z"/>
		</g>
	</g>
</g>
</svg>
