<?xml version="1.0" encoding="utf-8"?>
<!DOCTYPE svg PUBLIC "-//W3C//DTD SVG 1.1//EN" "http://www.w3.org/Graphics/SVG/1.1/DTD/svg11.dtd">
<svg xmlns="http://www.w3.org/2000/svg" xmlns:xlink="http://www.w3.org/1999/xlink" version="1.1" baseProfile="full" width="522.667" height="585.333" viewBox="0 0 522.67 585.33" enable-background="new 0 0 522.67 585.33" xml:space="preserve">
	<path fill="#B1E6F9" fill-opacity="1" stroke-linejoin="round" d="M 200.833,464.243L 200.833,50.2106C 200.833,49.843 200.536,49.5449 200.168,49.5449C 199.8,49.5449 199.503,49.843 199.503,50.2106L 199.503,464.243C 199.503,464.611 199.8,464.909 200.168,464.909C 200.536,464.909 200.833,464.611 200.833,464.243 Z "/>
	<path fill="#B1E6F9" fill-opacity="1" stroke-linejoin="round" d="M 97.4637,356.425L 97.4637,134.917C 97.4637,134.549 97.1657,134.252 96.7981,134.252C 96.4305,134.252 96.1325,134.549 96.1325,134.917L 96.1325,356.425C 96.1325,356.793 96.4305,357.091 96.7981,357.091C 97.1657,357.091 97.4637,356.793 97.4637,356.425 Z "/>
	<path fill="#B1E6F9" fill-opacity="1" stroke-linejoin="round" d="M 224.053,408.917L 224.053,80.2848C 224.053,79.9172 223.756,79.6192 223.388,79.6192C 223.02,79.6192 222.723,79.9172 222.723,80.2848L 222.723,408.917C 222.723,409.285 223.02,409.583 223.388,409.583C 223.756,409.583 224.053,409.285 224.053,408.917 Z "/>
	<path fill="#B1E6F9" fill-opacity="1" stroke-linejoin="round" d="M 322.82,408.917L 322.82,83.8056C 322.82,83.438 322.523,83.14 322.155,83.14C 321.788,83.14 321.489,83.438 321.489,83.8056L 321.489,408.917C 321.489,409.285 321.788,409.583 322.155,409.583C 322.523,409.583 322.82,409.285 322.82,408.917 Z "/>
	<path fill="#B1E6F9" fill-opacity="1" stroke-linejoin="round" d="M 418.888,471.948L 418.888,91.5088C 418.888,91.1411 418.591,90.8431 418.223,90.8431C 417.855,90.8431 417.557,91.1411 417.557,91.5088L 417.557,471.948C 417.557,472.315 417.855,472.613 418.223,472.613C 418.591,472.613 418.888,472.315 418.888,471.948 Z "/>
	<path fill="#B1E6F9" fill-opacity="1" stroke-linejoin="round" d="M 100.319,131.397L 99.6533,131.397C 99.6505,132.973 98.3743,134.249 96.7981,134.252C 95.2207,134.249 93.9459,132.973 93.9429,131.397C 93.9459,129.821 95.2208,128.544 96.7981,128.542C 98.3741,128.544 99.6505,129.821 99.6533,131.397L 100.319,131.397L 100.985,131.397C 100.984,129.085 99.1103,127.211 96.7981,127.21C 94.4849,127.211 92.6121,129.085 92.6117,131.397C 92.612,133.709 94.4851,135.583 96.7981,135.583C 99.11,135.583 100.984,133.709 100.985,131.397L 100.319,131.397 Z "/>
	<path fill="#B1E6F9" fill-opacity="1" stroke-linejoin="round" d="M 203.688,46.6898L 203.021,46.6898C 203.019,48.2661 201.744,49.5421 200.168,49.5449C 198.591,49.5421 197.316,48.266 197.313,46.6898C 197.316,45.1128 198.591,43.8373 200.168,43.8345C 201.744,43.8373 203.019,45.1127 203.021,46.6898L 203.688,46.6898L 204.353,46.6898C 204.353,44.3774 202.48,42.5038 200.168,42.5034C 197.855,42.5036 195.981,44.3774 195.981,46.6898C 195.981,49.0015 197.855,50.8757 200.168,50.8763C 202.48,50.8757 204.353,49.0015 204.353,46.6898L 203.688,46.6898 Z "/>
	<path fill="#B1E6F9" fill-opacity="1" stroke-linejoin="round" d="M 226.908,76.764L 226.241,76.764C 226.239,78.3411 224.964,79.6163 223.388,79.6192C 221.811,79.6163 220.536,78.341 220.533,76.764C 220.536,75.187 221.811,73.9116 223.388,73.9088C 224.964,73.9116 226.239,75.187 226.241,76.764L 226.908,76.764L 227.573,76.764C 227.573,74.4518 225.7,72.5779 223.388,72.5775C 221.075,72.5779 219.201,74.4516 219.201,76.764C 219.201,79.0763 221.075,80.9501 223.388,80.9504C 225.7,80.95 227.573,79.0763 227.573,76.764L 226.908,76.764 Z "/>
	<path fill="#B1E6F9" fill-opacity="1" stroke-linejoin="round" d="M 421.744,87.3264L 421.077,87.3264C 421.075,88.9024 419.799,90.1782 418.223,90.1811C 416.647,90.1782 415.371,88.9024 415.368,87.3264C 415.371,85.7497 416.647,84.4742 418.223,84.4712C 419.799,84.4742 421.075,85.7497 421.077,87.3264L 421.744,87.3264L 422.409,87.3264C 422.408,85.0139 420.535,83.1404 418.223,83.14C 415.911,83.1404 414.036,85.0139 414.036,87.3264C 414.037,89.6385 415.911,91.5117 418.223,91.5123C 420.535,91.5117 422.408,89.6385 422.409,87.3264L 421.744,87.3264 Z "/>
	<path fill="#B1E6F9" fill-opacity="1" stroke-linejoin="round" d="M 464.247,260.117L 464.247,116.916C 464.247,116.549 463.948,116.251 463.581,116.251C 463.213,116.251 462.915,116.549 462.915,116.916L 462.915,260.117C 462.915,260.485 463.213,260.783 463.581,260.783C 463.948,260.783 464.247,260.485 464.247,260.117 Z "/>
	<path fill="#B1E6F9" fill-opacity="1" stroke-linejoin="round" d="M 467.101,112.854L 466.436,112.854C 466.433,114.431 465.157,115.707 463.581,115.71C 462.004,115.707 460.728,114.431 460.725,112.854C 460.728,111.278 462.004,110.002 463.581,109.999C 465.157,110.002 466.433,111.278 466.436,112.854L 467.101,112.854L 467.767,112.854C 467.767,110.542 465.892,108.668 463.581,108.668C 461.269,108.668 459.395,110.542 459.395,112.854C 459.395,115.167 461.269,117.04 463.581,117.041C 465.892,117.04 467.767,115.167 467.767,112.854L 467.101,112.854 Z "/>
	<path fill="#B1E6F9" fill-opacity="1" stroke-linejoin="round" d="M 519.299,408.783L 519.299,209.977C 519.299,209.609 519,209.312 518.633,209.312C 518.265,209.312 517.967,209.609 517.967,209.977L 517.967,408.783C 517.967,409.149 518.265,409.448 518.633,409.448C 519,409.448 519.299,409.149 519.299,408.783 Z "/>
	<path fill="#B1E6F9" fill-opacity="1" stroke-linejoin="round" d="M 522.153,205.916L 521.488,205.916C 521.485,207.492 520.209,208.768 518.633,208.771C 517.055,208.768 515.78,207.492 515.777,205.916C 515.78,204.339 517.055,203.064 518.633,203.061C 520.209,203.064 521.485,204.34 521.488,205.916L 522.153,205.916L 522.819,205.916C 522.819,203.604 520.944,201.731 518.633,201.729C 516.32,201.731 514.447,203.604 514.447,205.916C 514.447,208.228 516.32,210.101 518.633,210.103C 520.944,210.101 522.819,208.228 522.819,205.916L 522.153,205.916 Z "/>
	<path fill="#B1E6F9" fill-opacity="1" stroke-linejoin="round" d="M 46.5511,399.343L 46.5511,200.539C 46.5511,200.171 46.2531,199.873 45.8855,199.873C 45.5177,199.873 45.2197,200.171 45.2197,200.539L 45.2197,399.343C 45.2197,399.709 45.5177,400.008 45.8855,400.008C 46.2531,400.008 46.5511,399.709 46.5511,399.343 Z "/>
	<path fill="#B1E6F9" fill-opacity="1" stroke-linejoin="round" d="M 49.4063,196.477L 48.7407,196.477C 48.7377,198.053 47.4629,199.329 45.8855,199.332C 44.3093,199.329 43.0331,198.053 43.0303,196.477C 43.0331,194.9 44.3093,193.624 45.8855,193.621C 47.4629,193.624 48.7377,194.9 48.7407,196.477L 49.4063,196.477L 50.0719,196.477C 50.0716,194.164 48.1985,192.291 45.8855,192.291C 43.5735,192.291 41.6995,194.164 41.6989,196.477C 41.6995,198.789 43.5735,200.663 45.8855,200.663C 48.1985,200.663 50.0716,198.789 50.0719,196.477L 49.4063,196.477 Z "/>
	<path fill="#B1E6F9" fill-opacity="1" stroke-linejoin="round" d="M 325.676,80.2848L 325.011,80.2848C 325.007,81.8618 323.732,83.1372 322.155,83.14C 320.579,83.1372 319.303,81.8615 319.3,80.2848C 319.303,78.7082 320.579,77.4324 322.155,77.4296C 323.732,77.4324 325.007,78.7077 325.011,80.2848L 325.676,80.2848L 326.341,80.2848C 326.341,77.9726 324.468,76.0987 322.155,76.0984C 319.843,76.0988 317.969,77.9721 317.968,80.2848C 317.969,82.5975 319.843,84.4708 322.155,84.4712C 324.468,84.471 326.341,82.5971 326.341,80.2848L 325.676,80.2848 Z "/>
	<path fill="#81B5CA" fill-opacity="1" stroke-linejoin="round" d="M 375.272,316.627L 375.207,315.965C 373.029,316.18 370.873,316.285 368.741,316.285C 351.251,316.285 335.423,309.199 323.96,297.736C 312.497,286.273 305.411,270.445 305.411,252.955C 305.411,250.823 305.516,248.665 305.732,246.489C 308.663,216.86 332.648,192.875 362.277,189.945C 364.453,189.729 366.611,189.624 368.741,189.624C 386.232,189.625 402.06,196.712 413.523,208.173C 424.984,219.636 432.071,235.464 432.071,252.955C 432.071,255.087 431.965,257.243 431.751,259.419C 428.821,289.048 404.836,313.033 375.207,315.965L 375.272,316.627L 375.337,317.289C 405.609,314.287 430.075,289.821 433.075,259.549C 433.295,257.329 433.403,255.129 433.403,252.955C 433.401,217.243 404.453,188.293 368.741,188.293C 366.567,188.293 364.367,188.4 362.147,188.62C 331.875,191.621 307.411,216.087 304.407,246.357C 304.187,248.579 304.079,250.779 304.079,252.955C 304.08,288.667 333.029,317.616 368.741,317.617C 370.917,317.617 373.117,317.509 375.337,317.289L 375.272,316.627 Z M 497.616,273.249L 498.281,273.249L 498.281,232.661C 498.281,228.649 495.168,225.327 491.165,225.065L 473.176,223.891L 473.133,224.555L 473.775,224.38C 471.329,215.365 467.751,206.824 463.207,198.9L 462.629,199.232L 463.129,199.671L 475.029,186.108C 476.292,184.669 476.92,182.875 476.919,181.089C 476.92,179.139 476.169,177.187 474.689,175.707L 445.989,147.007C 444.509,145.527 442.557,144.776 440.607,144.777C 438.82,144.776 437.025,145.404 435.587,146.667L 422.024,158.567L 422.464,159.067L 422.795,158.489C 414.873,153.945 406.331,150.367 397.315,147.92L 397.14,148.563L 397.805,148.52L 396.631,130.531C 396.369,126.528 393.047,123.416 389.035,123.415L 348.447,123.415C 344.436,123.416 341.113,126.528 340.852,130.531L 339.677,148.52L 340.341,148.563L 340.167,147.92C 331.153,150.367 322.609,153.945 314.687,158.489L 315.019,159.067L 315.457,158.567L 301.895,146.667C 300.456,145.404 298.661,144.776 296.876,144.777C 294.924,144.776 292.972,145.527 291.493,147.007L 262.792,175.707C 261.312,177.187 260.563,179.139 260.563,181.089C 260.563,182.875 261.189,184.669 262.453,186.108L 274.352,199.671L 274.853,199.232L 274.276,198.9C 269.732,206.824 266.152,215.365 263.707,224.38L 264.349,224.555L 264.305,223.891L 246.316,225.065C 242.313,225.327 239.201,228.649 239.201,232.661L 239.201,273.249C 239.201,277.261 242.313,280.583 246.316,280.845L 264.305,282.019L 264.349,281.355L 263.707,281.529C 266.152,290.544 269.732,299.087 274.276,307.009L 274.853,306.679L 274.352,306.239L 262.453,319.801C 261.189,321.24 260.563,323.035 260.563,324.82C 260.563,326.771 261.312,328.723 262.792,330.204L 291.493,358.904C 292.972,360.384 294.924,361.135 296.876,361.133C 298.661,361.133 300.456,360.507 301.895,359.244L 315.457,347.344L 315.019,346.844L 314.687,347.421C 322.609,351.964 331.152,355.544 340.167,357.989L 340.341,357.347L 339.677,357.391L 340.852,375.38C 341.113,379.383 344.436,382.495 348.447,382.495L 389.035,382.495C 393.047,382.495 396.369,379.383 396.631,375.38L 397.805,357.391L 397.14,357.347L 397.315,357.989C 406.331,355.544 414.873,351.964 422.795,347.421L 422.464,346.844L 422.024,347.344L 435.587,359.244C 437.025,360.507 438.82,361.135 440.605,361.133C 442.557,361.135 444.509,360.384 445.989,358.904L 474.689,330.204C 476.169,328.724 476.92,326.771 476.919,324.82C 476.92,323.035 476.292,321.24 475.029,319.801L 463.129,306.239L 462.629,306.679L 463.207,307.009C 467.751,299.087 471.329,290.544 473.775,281.529L 473.133,281.355L 473.176,282.019L 491.165,280.845C 495.168,280.583 498.281,277.261 498.281,273.249L 497.616,273.249L 496.951,273.249C 496.951,276.559 494.381,279.301 491.079,279.516L 472.615,280.721L 472.491,281.181C 470.075,290.083 466.54,298.521 462.052,306.347L 461.815,306.76L 474.028,320.68C 475.072,321.869 475.587,323.344 475.588,324.82C 475.587,326.433 474.972,328.039 473.748,329.263L 445.048,357.963C 443.824,359.185 442.22,359.801 440.605,359.803C 439.129,359.801 437.655,359.287 436.465,358.243L 422.545,346.029L 422.132,346.265C 414.307,350.753 405.871,354.289 396.967,356.705L 396.507,356.829L 395.301,375.293C 395.087,378.596 392.344,381.164 389.035,381.164L 348.447,381.164C 345.137,381.164 342.395,378.596 342.18,375.293L 340.975,356.829L 340.516,356.705C 331.613,354.289 323.175,350.753 315.349,346.265L 314.937,346.029L 301.016,358.243C 299.827,359.287 298.352,359.801 296.876,359.803C 295.261,359.801 293.657,359.185 292.435,357.963L 263.733,329.263C 262.511,328.039 261.895,326.433 261.893,324.82C 261.895,323.344 262.409,321.869 263.453,320.68L 275.667,306.76L 275.431,306.347C 270.943,298.521 267.407,290.083 264.991,281.181L 264.867,280.721L 246.403,279.516C 243.101,279.3 240.532,276.559 240.533,273.249L 240.533,232.661C 240.532,229.351 243.101,226.609 246.403,226.395L 264.867,225.188L 264.991,224.729C 267.407,215.827 270.943,207.389 275.431,199.563L 275.667,199.149L 263.453,185.231C 262.409,184.04 261.895,182.567 261.893,181.089C 261.895,179.476 262.511,177.871 263.733,176.648L 292.435,147.948C 293.657,146.724 295.261,146.109 296.876,146.108C 298.352,146.109 299.827,146.624 301.016,147.668L 314.937,159.881L 315.349,159.644C 323.175,155.156 331.613,151.621 340.516,149.205L 340.975,149.08L 342.18,130.617C 342.395,127.315 345.137,124.746 348.447,124.747L 389.035,124.747C 392.344,124.746 395.087,127.315 395.301,130.617L 396.507,149.08L 396.967,149.205C 405.871,151.621 414.307,155.156 422.132,159.644L 422.545,159.881L 436.465,147.668C 437.655,146.624 439.129,146.109 440.607,146.108C 442.22,146.109 443.824,146.725 445.048,147.948L 473.748,176.648C 474.971,177.871 475.587,179.476 475.588,181.089C 475.587,182.567 475.072,184.04 474.028,185.231L 461.815,199.149L 462.052,199.563C 466.541,207.389 470.075,215.827 472.491,224.729L 472.615,225.188L 491.079,226.395C 494.381,226.609 496.951,229.351 496.951,232.661L 496.951,273.249L 497.616,273.249 Z "/>
	<path fill="#81B5CA" fill-opacity="1" stroke-linejoin="round" d="M 151.383,353.548L 151.317,352.885C 149.837,353.032 148.371,353.104 146.923,353.104C 135.035,353.103 124.278,348.287 116.487,340.497C 108.697,332.705 103.881,321.949 103.88,310.061C 103.88,308.613 103.952,307.147 104.099,305.667C 106.089,285.533 122.395,269.228 142.529,267.239C 144.008,267.092 145.473,267.02 146.923,267.02C 158.811,267.02 169.567,271.836 177.357,279.627C 185.148,287.417 189.964,298.173 189.964,310.061C 189.964,311.511 189.893,312.976 189.747,314.455C 187.756,334.589 171.452,350.895 151.317,352.885L 151.383,353.548L 151.448,354.211C 172.225,352.148 189.009,335.363 191.071,314.587C 191.221,313.063 191.296,311.555 191.296,310.061C 191.295,285.555 171.429,265.689 146.923,265.689C 145.431,265.689 143.921,265.763 142.397,265.913C 121.621,267.975 104.836,284.759 102.774,305.536C 102.623,307.059 102.549,308.569 102.549,310.061C 102.549,334.568 122.415,354.435 146.923,354.435C 148.415,354.435 149.925,354.361 151.448,354.211L 151.383,353.548 Z M 234.94,323.923L 235.605,323.923L 235.605,296.201C 235.605,293.351 233.393,290.991 230.548,290.804L 218.263,290.001L 218.219,290.665L 218.861,290.491C 217.185,284.316 214.735,278.465 211.623,273.039L 211.045,273.371L 211.545,273.809L 219.672,264.547C 220.569,263.524 221.016,262.248 221.015,260.98C 221.016,259.593 220.483,258.205 219.432,257.155L 199.829,237.553C 198.779,236.501 197.391,235.968 196.004,235.968C 194.736,235.968 193.459,236.415 192.437,237.312L 183.175,245.439L 183.613,245.939L 183.944,245.361C 178.519,242.249 172.668,239.799 166.493,238.123L 166.319,238.764L 166.983,238.721L 166.181,226.436C 165.993,223.591 163.633,221.379 160.783,221.379L 133.063,221.379C 130.212,221.379 127.85,223.591 127.664,226.436L 126.862,238.721L 127.526,238.764L 127.352,238.123C 121.177,239.799 115.327,242.249 109.899,245.361L 110.231,245.939L 110.669,245.439L 101.408,237.312C 100.385,236.415 99.1085,235.968 97.8401,235.968C 96.4537,235.968 95.0657,236.501 94.0148,237.553L 74.4135,257.153C 73.3615,258.205 72.8279,259.593 72.8287,260.98C 72.828,262.248 73.2744,263.524 74.1715,264.547L 82.2991,273.809L 82.7995,273.371L 82.2221,273.039C 79.1097,278.465 76.6592,284.316 74.9827,290.491L 75.6249,290.665L 75.5816,290.001L 63.2964,290.804C 60.4516,290.991 58.2396,293.351 58.2393,296.201L 58.2393,323.923C 58.2397,326.772 60.4513,329.135 63.2965,329.32L 75.5816,330.123L 75.6249,329.459L 74.9827,329.632C 76.6592,335.807 79.1097,341.657 82.2221,347.084L 82.7995,346.753L 82.2991,346.315L 74.1716,355.576C 73.2744,356.599 72.828,357.875 72.8287,359.144C 72.8279,360.529 73.3615,361.919 74.4136,362.969L 94.0151,382.571C 95.066,383.623 96.454,384.156 97.8405,384.156C 99.1089,384.156 100.385,383.709 101.407,382.813L 110.669,374.685L 110.231,374.184L 109.899,374.761C 115.327,377.875 121.177,380.325 127.352,382.001L 127.526,381.359L 126.862,381.403L 127.664,393.688C 127.85,396.532 130.212,398.744 133.063,398.745L 160.783,398.745C 163.633,398.744 165.993,396.532 166.181,393.688L 166.983,381.403L 166.319,381.359L 166.493,382.001C 172.668,380.325 178.519,377.875 183.944,374.761L 183.613,374.184L 183.175,374.685L 192.437,382.812C 193.459,383.709 194.735,384.156 196.004,384.156C 197.391,384.156 198.779,383.623 199.829,382.571L 219.432,362.969C 220.483,361.919 221.016,360.531 221.015,359.144C 221.016,357.876 220.569,356.599 219.672,355.576L 211.545,346.315L 211.045,346.753L 211.623,347.084C 214.735,341.657 217.185,335.807 218.861,329.632L 218.219,329.459L 218.263,330.123L 230.548,329.32C 233.393,329.135 235.605,326.772 235.605,323.923L 234.94,323.923L 234.275,323.923C 234.275,326.071 232.607,327.852 230.461,327.992L 217.701,328.824L 217.576,329.284C 215.932,335.347 213.525,341.092 210.468,346.423L 210.232,346.835L 218.672,356.455C 219.349,357.228 219.684,358.185 219.684,359.144C 219.684,360.192 219.284,361.233 218.491,362.028L 198.888,381.629C 198.093,382.424 197.052,382.824 196.004,382.824C 195.044,382.824 194.088,382.489 193.315,381.812L 183.695,373.371L 183.283,373.607C 177.953,376.664 172.208,379.071 166.144,380.716L 165.685,380.841L 164.853,393.601C 164.712,395.745 162.932,397.413 160.783,397.413L 133.063,397.413C 130.913,397.413 129.132,395.745 128.992,393.601L 128.159,380.841L 127.7,380.716C 121.638,379.071 115.892,376.664 110.562,373.607L 110.149,373.371L 100.53,381.812C 99.7561,382.489 98.7996,382.824 97.8405,382.824C 96.7919,382.824 95.7511,382.424 94.9565,381.629L 75.3548,362.028C 74.5599,361.233 74.1604,360.192 74.1599,359.144C 74.1604,358.184 74.4943,357.228 75.1724,356.455L 83.6135,346.835L 83.3769,346.423C 80.32,341.092 77.9137,335.347 76.2673,329.284L 76.1428,328.824L 63.3832,327.992C 61.2387,327.852 59.5701,326.071 59.5707,323.923L 59.5707,296.201C 59.5703,294.052 61.2385,292.272 63.3832,292.132L 76.1428,291.299L 76.2673,290.84C 77.9137,284.776 80.32,279.031 83.3769,273.701L 83.6135,273.288L 75.1721,263.668C 74.4943,262.896 74.1604,261.94 74.1599,260.98C 74.1604,259.932 74.5599,258.891 75.3547,258.095L 94.9563,238.495C 95.7509,237.7 96.7916,237.3 97.8401,237.3C 98.7992,237.3 99.7559,237.635 100.53,238.312L 110.149,246.753L 110.562,246.516C 115.892,243.46 121.638,241.053 127.7,239.407L 128.159,239.283L 128.992,226.523C 129.132,224.379 130.913,222.709 133.063,222.711L 160.783,222.711C 162.932,222.709 164.712,224.379 164.853,226.523L 165.685,239.283L 166.144,239.407C 172.208,241.053 177.953,243.46 183.283,246.516L 183.695,246.753L 193.315,238.312C 194.088,237.635 195.045,237.3 196.004,237.3C 197.052,237.3 198.093,237.7 198.888,238.495L 218.491,258.095C 219.284,258.889 219.684,259.931 219.684,260.98C 219.684,261.939 219.349,262.896 218.672,263.669L 210.232,273.288L 210.468,273.701C 213.525,279.031 215.932,284.776 217.576,290.839L 217.701,291.299L 230.461,292.132C 232.607,292.272 234.275,294.052 234.275,296.201L 234.275,323.923L 234.94,323.923 Z "/>
	<path fill="#CEE6ED" fill-opacity="1" stroke-linejoin="round" d="M 506.208,535.836L 45.8855,535.836L 135.525,466.019L 416.569,466.019L 506.208,535.836 Z "/>
	<rect x="135.525" y="260.117" fill="#9AC6EB" fill-opacity="1" stroke-linejoin="round" width="281.044" height="163.301"/>
	<rect x="143.808" y="264.931" fill="#486781" fill-opacity="1" stroke-linejoin="round" width="264.479" height="153.675"/>
	<path fill="#6FCB8C" fill-opacity="1" stroke-linejoin="round" d="M 219.445,298.355L 160.129,298.355C 158.916,298.355 157.923,297.363 157.923,296.149C 157.923,294.936 158.916,293.944 160.129,293.944L 219.445,293.944C 220.659,293.944 221.651,294.936 221.651,296.149C 221.651,297.363 220.659,298.355 219.445,298.355 Z "/>
	<path fill="#6FCB8C" fill-opacity="1" stroke-linejoin="round" d="M 289.225,298.355L 229.909,298.355C 228.696,298.355 227.703,297.363 227.703,296.149C 227.703,294.936 228.696,293.944 229.909,293.944L 289.225,293.944C 290.439,293.944 291.431,294.936 291.431,296.149C 291.431,297.363 290.439,298.355 289.225,298.355 Z "/>
	<path fill="#7DA2DA" fill-opacity="1" stroke-linejoin="round" d="M 317.293,298.355L 301.021,298.355C 299.808,298.355 298.815,297.363 298.815,296.149C 298.815,294.936 299.808,293.944 301.021,293.944L 317.293,293.944C 318.507,293.944 319.499,294.936 319.499,296.149C 319.499,297.363 318.507,298.355 317.293,298.355 Z "/>
	<path fill="#6FCB8C" fill-opacity="1" stroke-linejoin="round" d="M 238.489,340.092L 160.129,340.092C 158.916,340.092 157.923,339.1 157.923,337.887C 157.923,336.675 158.916,335.681 160.129,335.681L 238.489,335.681C 239.703,335.681 240.695,336.675 240.695,337.887C 240.695,339.1 239.703,340.092 238.489,340.092 Z "/>
	<path fill="#7DA2DA" fill-opacity="1" stroke-linejoin="round" d="M 297.213,340.092L 250.481,340.092C 249.268,340.092 248.276,339.1 248.276,337.887C 248.276,336.675 249.268,335.681 250.481,335.681L 297.213,335.681C 298.425,335.681 299.419,336.675 299.419,337.887C 299.419,339.1 298.425,340.092 297.213,340.092 Z "/>
	<path fill="#7DA2DA" fill-opacity="1" stroke-linejoin="round" d="M 188.791,312.267L 160.129,312.267C 158.916,312.267 157.923,311.275 157.923,310.063C 157.923,308.848 158.916,307.856 160.129,307.856L 188.791,307.856C 190.003,307.856 190.995,308.848 190.995,310.063C 190.995,311.275 190.003,312.267 188.791,312.267 Z "/>
	<path fill="#6FCB8C" fill-opacity="1" stroke-linejoin="round" d="M 247.513,312.267L 196.837,312.267C 195.625,312.267 194.632,311.275 194.632,310.063C 194.632,308.848 195.625,307.856 196.837,307.856L 247.513,307.856C 248.727,307.856 249.719,308.848 249.719,310.063C 249.719,311.275 248.727,312.267 247.513,312.267 Z "/>
	<path fill="#6FCB8C" fill-opacity="1" stroke-linejoin="round" d="M 212.381,284.443L 160.129,284.443C 158.916,284.443 157.923,283.449 157.923,282.236C 157.923,281.024 158.916,280.032 160.129,280.032L 212.381,280.032C 213.593,280.032 214.587,281.024 214.587,282.236C 214.587,283.449 213.593,284.443 212.381,284.443 Z "/>
	<path fill="#7DA2DA" fill-opacity="1" stroke-linejoin="round" d="M 345.137,284.443L 223.369,284.443C 222.156,284.443 221.164,283.449 221.164,282.236C 221.164,281.024 222.156,280.032 223.369,280.032L 345.137,280.032C 346.352,280.032 347.344,281.024 347.344,282.236C 347.344,283.449 346.352,284.443 345.137,284.443 Z "/>
	<path fill="#7DA2DA" fill-opacity="1" stroke-linejoin="round" d="M 317.293,326.179L 291.307,326.179C 290.093,326.179 289.101,325.187 289.101,323.975C 289.101,322.761 290.093,321.769 291.307,321.769L 317.293,321.769C 318.507,321.769 319.499,322.761 319.499,323.975C 319.499,325.187 318.507,326.179 317.293,326.179 Z "/>
	<path fill="#6FCB8C" fill-opacity="1" stroke-linejoin="round" d="M 281.899,326.179L 160.129,326.179C 158.916,326.179 157.923,325.187 157.923,323.975C 157.923,322.761 158.916,321.769 160.129,321.769L 281.899,321.769C 283.111,321.769 284.103,322.761 284.103,323.975C 284.103,325.187 283.111,326.179 281.899,326.179 Z "/>
	<path fill="#6FCB8C" fill-opacity="1" stroke-linejoin="round" d="M 219.445,367.916L 160.129,367.916C 158.916,367.916 157.923,366.924 157.923,365.712C 157.923,364.499 158.916,363.507 160.129,363.507L 219.445,363.507C 220.659,363.507 221.651,364.499 221.651,365.712C 221.651,366.924 220.659,367.916 219.445,367.916 Z "/>
	<path fill="#6FCB8C" fill-opacity="1" stroke-linejoin="round" d="M 289.225,367.916L 229.909,367.916C 228.696,367.916 227.703,366.924 227.703,365.712C 227.703,364.499 228.696,363.507 229.909,363.507L 289.225,363.507C 290.439,363.507 291.431,364.499 291.431,365.712C 291.431,366.924 290.439,367.916 289.225,367.916 Z "/>
	<path fill="#7DA2DA" fill-opacity="1" stroke-linejoin="round" d="M 317.293,367.916L 301.021,367.916C 299.808,367.916 298.815,366.924 298.815,365.712C 298.815,364.499 299.808,363.507 301.021,363.507L 317.293,363.507C 318.507,363.507 319.499,364.499 319.499,365.712C 319.499,366.924 318.507,367.916 317.293,367.916 Z "/>
	<path fill="#6FCB8C" fill-opacity="1" stroke-linejoin="round" d="M 238.489,409.655L 160.129,409.655C 158.916,409.655 157.923,408.663 157.923,407.449C 157.923,406.236 158.916,405.243 160.129,405.243L 238.489,405.243C 239.703,405.243 240.695,406.236 240.695,407.449C 240.695,408.663 239.703,409.655 238.489,409.655 Z "/>
	<path fill="#7DA2DA" fill-opacity="1" stroke-linejoin="round" d="M 297.213,409.655L 250.481,409.655C 249.268,409.655 248.276,408.663 248.276,407.449C 248.276,406.236 249.268,405.243 250.481,405.243L 297.213,405.243C 298.425,405.243 299.419,406.236 299.419,407.449C 299.419,408.663 298.425,409.655 297.213,409.655 Z "/>
	<path fill="#7DA2DA" fill-opacity="1" stroke-linejoin="round" d="M 188.791,381.829L 160.129,381.829C 158.916,381.829 157.923,380.837 157.923,379.624C 157.923,378.411 158.916,377.419 160.129,377.419L 188.791,377.419C 190.003,377.419 190.995,378.411 190.995,379.624C 190.995,380.837 190.003,381.829 188.791,381.829 Z "/>
	<path fill="#6FCB8C" fill-opacity="1" stroke-linejoin="round" d="M 247.513,381.829L 196.837,381.829C 195.625,381.829 194.632,380.837 194.632,379.625C 194.632,378.411 195.625,377.419 196.837,377.419L 247.513,377.419C 248.727,377.419 249.719,378.411 249.719,379.625C 249.719,380.837 248.727,381.829 247.513,381.829 Z "/>
	<path fill="#6FCB8C" fill-opacity="1" stroke-linejoin="round" d="M 212.381,354.005L 160.129,354.005C 158.916,354.005 157.923,353.012 157.923,351.799C 157.923,350.587 158.916,349.593 160.129,349.593L 212.381,349.593C 213.593,349.593 214.587,350.587 214.587,351.799C 214.587,353.012 213.593,354.005 212.381,354.005 Z "/>
	<path fill="#7DA2DA" fill-opacity="1" stroke-linejoin="round" d="M 332.972,354.005L 223.259,354.005C 222.107,354.005 221.164,353.063 221.164,351.909L 221.164,351.689C 221.164,350.536 222.107,349.593 223.259,349.593L 332.972,349.593C 334.124,349.593 335.067,350.536 335.067,351.689L 335.067,351.909C 335.067,353.063 334.124,354.005 332.972,354.005 Z "/>
	<path fill="#7DA2DA" fill-opacity="1" stroke-linejoin="round" d="M 317.293,395.741L 291.307,395.741C 290.093,395.741 289.101,394.749 289.101,393.536C 289.101,392.324 290.093,391.332 291.307,391.332L 317.293,391.332C 318.507,391.332 319.499,392.324 319.499,393.536C 319.499,394.749 318.507,395.741 317.293,395.741 Z "/>
	<path fill="#6FCB8C" fill-opacity="1" stroke-linejoin="round" d="M 281.899,395.741L 160.129,395.741C 158.916,395.741 157.923,394.749 157.923,393.536C 157.923,392.324 158.916,391.332 160.129,391.332L 281.899,391.332C 283.111,391.332 284.103,392.324 284.103,393.536C 284.103,394.749 283.111,395.741 281.899,395.741 Z "/>
	<path fill="#ABD1EF" fill-opacity="1" stroke-linejoin="round" d="M 506.208,493.235L 45.8855,493.235L 135.525,423.419L 416.569,423.419L 506.208,493.235 Z "/>
	<path fill="#81B5CA" fill-opacity="1" stroke-linejoin="round" d="M 115.682,428.303L 128.05,418.981C 128.344,418.76 128.403,418.343 128.181,418.049C 127.96,417.756 127.543,417.697 127.249,417.919L 114.881,427.239C 114.587,427.46 114.528,427.877 114.75,428.171C 114.971,428.464 115.388,428.523 115.682,428.303 Z "/>
	<path fill="#81B5CA" fill-opacity="1" stroke-linejoin="round" d="M 71.2104,461.805L 111.204,431.675C 111.497,431.453 111.556,431.036 111.335,430.743C 111.114,430.449 110.696,430.391 110.403,430.611L 70.4093,460.743C 70.1157,460.964 70.0571,461.381 70.2783,461.675C 70.4995,461.968 70.9168,462.027 71.2104,461.805 Z "/>
	<path fill="#81B5CA" fill-opacity="1" stroke-linejoin="round" d="M 93.276,507.691L 34.9063,507.691C 32.3599,507.688 30.3247,506.668 28.8923,505.117C 27.4625,503.568 26.6577,501.476 26.6588,499.372C 26.6639,496.996 27.6624,494.619 29.9539,492.888L 42.7651,483.236C 43.0587,483.015 43.1175,482.597 42.8961,482.304C 42.6749,482.009 42.2576,481.951 41.964,482.172L 29.1528,491.825C 26.5237,493.8 25.3225,496.62 25.3276,499.372C 25.3287,501.813 26.2511,504.215 27.9132,506.02C 29.5725,507.825 31.9937,509.025 34.9063,509.023L 93.276,509.023C 93.6436,509.023 93.9416,508.724 93.9416,508.356C 93.9416,507.989 93.6436,507.691 93.276,507.691 Z "/>
	<path fill="#81B5CA" fill-opacity="1" stroke-linejoin="round" d="M 339.724,507.691L 135.525,507.691C 135.157,507.691 134.859,507.989 134.859,508.356C 134.859,508.724 135.157,509.023 135.525,509.023L 339.724,509.023C 340.092,509.023 340.389,508.724 340.389,508.356C 340.389,507.989 340.092,507.691 339.724,507.691 Z "/>
	<path fill="#81B5CA" fill-opacity="1" stroke-linejoin="round" d="M 475.311,507.691L 376.684,507.691C 376.316,507.691 376.017,507.989 376.017,508.356C 376.017,508.724 376.316,509.023 376.684,509.023L 475.311,509.023C 475.679,509.023 475.977,508.724 475.977,508.356C 475.977,507.989 475.679,507.691 475.311,507.691 Z "/>
	<path fill="#81B5CA" fill-opacity="1" stroke-linejoin="round" d="M 471.384,455.985L 489.044,469.291C 489.337,469.512 489.755,469.453 489.976,469.159C 490.197,468.865 490.139,468.448 489.844,468.227L 472.185,454.923C 471.892,454.701 471.475,454.76 471.253,455.053C 471.032,455.347 471.091,455.764 471.384,455.985 Z "/>
	<path fill="#81B5CA" fill-opacity="1" stroke-linejoin="round" d="M 434.101,427.896L 467.884,453.349C 468.179,453.571 468.596,453.512 468.817,453.217C 469.037,452.924 468.979,452.507 468.685,452.285L 434.901,426.832C 434.608,426.612 434.191,426.671 433.969,426.964C 433.748,427.257 433.807,427.675 434.101,427.896 Z "/>
	<path fill="#64829B" fill-opacity="1" stroke-linejoin="round" d="M 164.208,429.96L 148.909,429.96L 154.491,425.577L 169.12,425.577L 164.208,429.96 Z "/>
	<path fill="#64829B" fill-opacity="1" stroke-linejoin="round" d="M 155.471,438.107L 138.532,438.107L 145.04,432.997L 161.176,432.997L 155.471,438.107 Z "/>
	<path fill="#64829B" fill-opacity="1" stroke-linejoin="round" d="M 181.279,438.107L 164.341,438.107L 169.628,432.997L 185.764,432.997L 181.279,438.107 Z "/>
	<path fill="#64829B" fill-opacity="1" stroke-linejoin="round" d="M 207.088,438.107L 190.151,438.107L 194.216,432.997L 210.352,432.997L 207.088,438.107 Z "/>
	<path fill="#64829B" fill-opacity="1" stroke-linejoin="round" d="M 232.897,438.107L 215.96,438.107L 218.804,432.997L 234.94,432.997L 232.897,438.107 Z "/>
	<path fill="#64829B" fill-opacity="1" stroke-linejoin="round" d="M 258.707,438.107L 241.769,438.107L 243.392,432.997L 259.528,432.997L 258.707,438.107 Z "/>
	<path fill="#64829B" fill-opacity="1" stroke-linejoin="round" d="M 284.516,438.107L 267.579,438.107L 267.979,432.997L 284.115,432.997L 284.516,438.107 Z "/>
	<path fill="#64829B" fill-opacity="1" stroke-linejoin="round" d="M 310.325,438.107L 293.388,438.107L 292.568,432.997L 308.703,432.997L 310.325,438.107 Z "/>
	<path fill="#64829B" fill-opacity="1" stroke-linejoin="round" d="M 336.135,438.107L 319.196,438.107L 317.155,432.997L 333.291,432.997L 336.135,438.107 Z "/>
	<path fill="#64829B" fill-opacity="1" stroke-linejoin="round" d="M 361.944,438.107L 345.007,438.107L 341.744,432.997L 357.879,432.997L 361.944,438.107 Z "/>
	<path fill="#64829B" fill-opacity="1" stroke-linejoin="round" d="M 387.752,438.107L 370.815,438.107L 366.331,432.997L 382.467,432.997L 387.752,438.107 Z "/>
	<path fill="#64829B" fill-opacity="1" stroke-linejoin="round" d="M 413.563,438.107L 396.625,438.107L 390.917,432.997L 407.055,432.997L 413.563,438.107 Z "/>
	<path fill="#64829B" fill-opacity="1" stroke-linejoin="round" d="M 145.928,446.649L 127.65,446.649L 135.2,440.723L 152.548,440.723L 145.928,446.649 Z "/>
	<path fill="#64829B" fill-opacity="1" stroke-linejoin="round" d="M 173.78,446.649L 155.501,446.649L 161.636,440.723L 178.983,440.723L 173.78,446.649 Z "/>
	<path fill="#64829B" fill-opacity="1" stroke-linejoin="round" d="M 201.632,446.649L 183.355,446.649L 188.071,440.723L 205.417,440.723L 201.632,446.649 Z "/>
	<path fill="#64829B" fill-opacity="1" stroke-linejoin="round" d="M 229.483,446.649L 211.205,446.649L 214.504,440.723L 231.852,440.723L 229.483,446.649 Z "/>
	<path fill="#64829B" fill-opacity="1" stroke-linejoin="round" d="M 257.335,446.649L 239.057,446.649L 240.939,440.723L 258.287,440.723L 257.335,446.649 Z "/>
	<path fill="#64829B" fill-opacity="1" stroke-linejoin="round" d="M 285.187,446.649L 266.909,446.649L 267.373,440.723L 284.721,440.723L 285.187,446.649 Z "/>
	<path fill="#64829B" fill-opacity="1" stroke-linejoin="round" d="M 313.037,446.649L 294.76,446.649L 293.808,440.723L 311.156,440.723L 313.037,446.649 Z "/>
	<path fill="#64829B" fill-opacity="1" stroke-linejoin="round" d="M 340.889,446.649L 322.612,446.649L 320.243,440.723L 337.589,440.723L 340.889,446.649 Z "/>
	<path fill="#64829B" fill-opacity="1" stroke-linejoin="round" d="M 368.741,446.649L 350.464,446.649L 346.677,440.723L 364.025,440.723L 368.741,446.649 Z "/>
	<path fill="#64829B" fill-opacity="1" stroke-linejoin="round" d="M 396.592,446.649L 378.315,446.649L 373.112,440.723L 390.46,440.723L 396.592,446.649 Z "/>
	<path fill="#64829B" fill-opacity="1" stroke-linejoin="round" d="M 424.444,446.649L 406.167,446.649L 399.545,440.723L 416.895,440.723L 424.444,446.649 Z "/>
	<path fill="#64829B" fill-opacity="1" stroke-linejoin="round" d="M 134.156,457.188L 114.225,457.188L 123.163,450.173L 141.992,450.173L 134.156,457.188 Z "/>
	<path fill="#64829B" fill-opacity="1" stroke-linejoin="round" d="M 164.528,457.188L 144.596,457.188L 151.857,450.173L 170.687,450.173L 164.528,457.188 Z "/>
	<path fill="#64829B" fill-opacity="1" stroke-linejoin="round" d="M 346.281,457.188L 174.968,457.188L 180.551,450.173L 342.403,450.173L 346.281,457.188 Z "/>
	<path fill="#64829B" fill-opacity="1" stroke-linejoin="round" d="M 377.127,457.188L 357.195,457.188L 352.713,450.173L 371.544,450.173L 377.127,457.188 Z "/>
	<path fill="#64829B" fill-opacity="1" stroke-linejoin="round" d="M 407.499,457.188L 387.567,457.188L 381.408,450.173L 400.239,450.173L 407.499,457.188 Z "/>
	<path fill="#64829B" fill-opacity="1" stroke-linejoin="round" d="M 437.869,457.188L 417.939,457.188L 410.101,450.173L 428.932,450.173L 437.869,457.188 Z "/>
	<path fill="#64829B" fill-opacity="1" stroke-linejoin="round" d="M 195.173,429.96L 179.873,429.96L 184.096,425.577L 198.725,425.577L 195.173,429.96 Z "/>
	<path fill="#64829B" fill-opacity="1" stroke-linejoin="round" d="M 217.031,429.96L 201.731,429.96L 204.995,425.577L 219.623,425.577L 217.031,429.96 Z "/>
	<path fill="#64829B" fill-opacity="1" stroke-linejoin="round" d="M 238.889,429.96L 223.588,429.96L 225.892,425.577L 240.521,425.577L 238.889,429.96 Z "/>
	<path fill="#64829B" fill-opacity="1" stroke-linejoin="round" d="M 260.748,429.96L 245.447,429.96L 246.791,425.577L 261.419,425.577L 260.748,429.96 Z "/>
	<path fill="#64829B" fill-opacity="1" stroke-linejoin="round" d="M 282.604,429.96L 267.305,429.96L 267.688,425.577L 282.316,425.577L 282.604,429.96 Z "/>
	<path fill="#64829B" fill-opacity="1" stroke-linejoin="round" d="M 304.463,429.96L 289.161,429.96L 288.585,425.577L 303.215,425.577L 304.463,429.96 Z "/>
	<path fill="#64829B" fill-opacity="1" stroke-linejoin="round" d="M 327.048,429.96L 311.749,429.96L 310.181,425.577L 324.808,425.577L 327.048,429.96 Z "/>
	<path fill="#64829B" fill-opacity="1" stroke-linejoin="round" d="M 361.656,429.96L 346.357,429.96L 343.269,425.577L 357.897,425.577L 361.656,429.96 Z "/>
	<path fill="#64829B" fill-opacity="1" stroke-linejoin="round" d="M 382.421,429.96L 367.121,429.96L 363.123,425.577L 377.751,425.577L 382.421,429.96 Z "/>
	<path fill="#64829B" fill-opacity="1" stroke-linejoin="round" d="M 403.187,429.96L 387.885,429.96L 382.975,425.577L 397.604,425.577L 403.187,429.96 Z "/>
	<path fill="#7CA8D4" fill-opacity="1" stroke-linejoin="round" d="M 328.525,483.769L 223.571,483.769L 231.852,464.243L 320.243,464.243L 328.525,483.769 Z "/>
	<path fill="#8DBDE7" fill-opacity="1" stroke-linejoin="round" d="M 499.388,500.927L 52.7057,500.927C 48.9401,500.927 45.8855,497.873 45.8855,494.107L 45.8855,493.235L 506.208,493.235L 506.208,494.107C 506.208,497.873 503.155,500.927 499.388,500.927 Z "/>
	<path fill="#9CA8DB" fill-opacity="1" stroke-linejoin="round" d="M 339.724,260.117L 335.067,260.117L 335.067,199.344C 336.579,198.388 338.131,197.495 339.724,196.668L 339.724,260.117 Z M 222.723,260.117L 220.947,260.117C 220.772,259.031 220.264,257.987 219.432,257.155L 218.731,256.453L 218.731,175.992C 218.731,174.012 220.336,172.405 222.317,172.405L 222.723,172.405L 222.723,260.117 Z M 219.592,260.117L 218.731,260.117L 218.731,258.357C 219.169,258.879 219.456,259.484 219.592,260.117 Z M 335.067,197.775L 335.067,180.296L 322.82,180.296L 322.82,172.405L 336.137,172.405C 338.117,172.405 339.724,174.012 339.724,175.992L 339.724,195.172C 338.135,195.976 336.579,196.845 335.067,197.775 Z M 321.489,180.296L 261.944,180.296C 262.113,178.959 262.712,177.671 263.733,176.648L 267.976,172.405L 321.489,172.405L 321.489,180.296 Z M 260.604,180.296L 224.053,180.296L 224.053,172.405L 266.093,172.405L 262.792,175.707C 261.513,176.985 260.779,178.617 260.604,180.296 Z "/>
	<path fill="#93A5DA" fill-opacity="1" stroke-linejoin="round" d="M 223.388,260.117L 222.723,260.117L 222.723,172.405L 224.053,172.405L 224.053,180.296L 223.388,180.296L 223.388,260.117 Z "/>
	<rect x="321.489" y="172.405" fill="#93A5DA" fill-opacity="1" stroke-linejoin="round" width="1.33066" height="7.89063"/>
	<path fill="#8B9ED7" fill-opacity="1" stroke-linejoin="round" d="M 335.067,199.344L 335.067,197.775C 336.579,196.845 338.135,195.976 339.724,195.172L 339.724,196.668C 338.131,197.495 336.579,198.388 335.067,199.344 Z M 261.944,180.296L 260.604,180.296C 260.779,178.617 261.513,176.985 262.792,175.707L 266.093,172.405L 267.976,172.405L 263.733,176.648C 262.712,177.671 262.113,178.959 261.944,180.296 Z "/>
	<path fill="#8B9ED7" fill-opacity="1" stroke-linejoin="round" d="M 220.947,260.117L 219.592,260.117C 219.456,259.484 219.169,258.879 218.731,258.357L 218.731,256.453L 219.432,257.155C 220.264,257.987 220.772,259.031 220.947,260.117 Z "/>
	<path fill="#90A1D9" fill-opacity="1" stroke-linejoin="round" d="M 339.724,264.931L 335.067,264.931L 335.067,260.117L 339.724,260.117L 339.724,264.931 Z M 223.388,264.931L 218.731,264.931L 218.731,260.117L 219.592,260.117L 220.947,260.117L 222.723,260.117L 223.388,260.117L 223.388,264.931 Z "/>
	<path fill="#8294D2" fill-opacity="1" stroke-linejoin="round" d="M 336.137,377.419L 247.513,377.419L 222.317,377.419C 220.336,377.419 218.731,375.812 218.731,373.832L 218.731,367.916L 219.445,367.916C 220.659,367.916 221.651,366.924 221.651,365.712C 221.651,364.499 220.659,363.507 219.445,363.507L 218.731,363.507L 218.731,340.092L 223.388,340.092L 223.388,349.593L 223.259,349.593C 222.107,349.593 221.164,350.536 221.164,351.689L 221.164,351.909C 221.164,353.063 222.107,354.005 223.259,354.005L 332.972,354.005C 334.124,354.005 335.067,353.063 335.067,351.909L 335.067,351.799L 335.067,284.443L 339.724,284.443L 339.724,373.832C 339.724,375.812 338.117,377.419 336.137,377.419 Z M 273.072,367.916C 274.168,370.213 276.512,371.8 279.227,371.8C 281.941,371.8 284.287,370.213 285.383,367.916L 289.225,367.916C 290.439,367.916 291.431,366.924 291.431,365.712C 291.431,364.499 290.439,363.507 289.225,363.507L 285.881,363.507C 285.207,360.453 282.483,358.171 279.227,358.171C 275.972,358.171 273.248,360.453 272.572,363.507L 229.909,363.507C 228.696,363.507 227.703,364.499 227.703,365.712C 227.703,366.924 228.696,367.916 229.909,367.916L 273.072,367.916 Z M 301.021,363.507C 299.808,363.507 298.815,364.499 298.815,365.712C 298.815,366.924 299.808,367.916 301.021,367.916L 317.293,367.916C 318.507,367.916 319.499,366.924 319.499,365.712C 319.499,364.499 318.507,363.507 317.293,363.507L 301.021,363.507 Z M 223.388,335.681L 218.731,335.681L 218.731,326.179L 223.388,326.179L 223.388,335.681 Z M 223.388,321.769L 218.731,321.769L 218.731,312.267L 223.388,312.267L 223.388,321.769 Z M 223.388,307.856L 218.731,307.856L 218.731,298.355L 219.445,298.355C 220.659,298.355 221.651,297.363 221.651,296.149C 221.651,294.936 220.659,293.944 219.445,293.944L 218.731,293.944L 218.731,264.931L 223.388,264.931L 223.388,280.032L 223.369,280.032C 222.156,280.032 221.164,281.024 221.164,282.236C 221.164,283.449 222.156,284.443 223.369,284.443L 223.388,284.443L 223.388,307.856 Z M 339.724,280.032L 335.067,280.032L 335.067,264.931L 339.724,264.931L 339.724,280.032 Z "/>
	<path fill="#86AADE" fill-opacity="1" stroke-linejoin="round" d="M 219.445,298.355L 218.731,298.355L 218.731,293.944L 219.445,293.944C 220.659,293.944 221.651,294.936 221.651,296.149C 221.651,297.363 220.659,298.355 219.445,298.355 Z "/>
	<rect x="218.731" y="335.681" fill="#86AADE" fill-opacity="1" stroke-linejoin="round" width="4.65733" height="4.41071"/>
	<rect x="218.731" y="307.856" fill="#86AADE" fill-opacity="1" stroke-linejoin="round" width="4.65733" height="4.41068"/>
	<path fill="#8A9DD6" fill-opacity="1" stroke-linejoin="round" d="M 339.724,284.443L 335.067,284.443L 335.067,280.032L 339.724,280.032L 339.724,284.443 Z M 223.388,284.443L 223.369,284.443C 222.156,284.443 221.164,283.449 221.164,282.236C 221.164,281.024 222.156,280.032 223.369,280.032L 223.388,280.032L 223.388,284.443 Z "/>
	<rect x="218.731" y="321.769" fill="#86AADE" fill-opacity="1" stroke-linejoin="round" width="4.65733" height="4.40933"/>
	<path fill="#86AADE" fill-opacity="1" stroke-linejoin="round" d="M 219.445,367.916L 218.731,367.916L 218.731,363.507L 219.445,363.507C 220.659,363.507 221.651,364.499 221.651,365.712C 221.651,366.924 220.659,367.916 219.445,367.916 Z "/>
	<path fill="#86AADE" fill-opacity="1" stroke-linejoin="round" d="M 289.225,367.916L 285.383,367.916C 285.805,367.028 286.043,366.035 286.043,364.985C 286.043,364.477 285.988,363.983 285.881,363.507L 289.225,363.507C 290.439,363.507 291.431,364.499 291.431,365.712C 291.431,366.924 290.439,367.916 289.225,367.916 Z M 273.072,367.916L 229.909,367.916C 228.696,367.916 227.703,366.924 227.703,365.712C 227.703,364.499 228.696,363.507 229.909,363.507L 272.572,363.507C 272.467,363.983 272.412,364.477 272.412,364.985C 272.412,366.035 272.648,367.028 273.072,367.916 Z "/>
	<path fill="#8A9DD6" fill-opacity="1" stroke-linejoin="round" d="M 317.293,367.916L 301.021,367.916C 299.808,367.916 298.815,366.924 298.815,365.712C 298.815,364.499 299.808,363.507 301.021,363.507L 317.293,363.507C 318.507,363.507 319.499,364.499 319.499,365.712C 319.499,366.924 318.507,367.916 317.293,367.916 Z "/>
	<path fill="#8A9DD6" fill-opacity="1" stroke-linejoin="round" d="M 332.972,354.005L 223.259,354.005C 222.107,354.005 221.164,353.063 221.164,351.909L 221.164,351.689C 221.164,350.536 222.107,349.593 223.259,349.593L 223.388,349.593L 223.388,351.799L 335.067,351.799L 335.067,351.909C 335.067,353.063 334.124,354.005 332.972,354.005 Z "/>
	<path fill="#C0E2F6" fill-opacity="1" stroke-linejoin="round" d="M 335.067,260.117L 322.82,260.117L 322.82,209.408C 326.464,205.571 330.579,202.183 335.067,199.344L 335.067,260.117 Z M 321.489,260.117L 305.811,260.117C 305.547,257.767 305.411,255.377 305.411,252.955C 305.411,250.823 305.516,248.665 305.732,246.489C 307.072,232.939 312.816,220.569 321.489,210.855L 321.489,260.117 Z M 304.472,260.117L 240.533,260.117L 240.533,232.661C 240.532,229.351 243.101,226.609 246.403,226.395L 264.867,225.188L 264.991,224.729C 267.407,215.827 270.943,207.389 275.431,199.563L 275.667,199.149L 263.453,185.231C 262.409,184.04 261.895,182.567 261.893,181.089C 261.893,180.824 261.911,180.559 261.944,180.296L 321.489,180.296L 321.489,208.879C 312.081,218.953 305.831,232.001 304.407,246.357C 304.187,248.579 304.079,250.779 304.079,252.955C 304.079,255.376 304.212,257.765 304.472,260.117 Z M 239.201,260.117L 224.053,260.117L 224.053,180.296L 260.604,180.296C 260.576,180.56 260.563,180.825 260.563,181.089C 260.563,182.875 261.189,184.669 262.453,186.108L 274.04,199.313C 269.685,206.985 266.231,215.232 263.832,223.921L 246.316,225.065C 242.313,225.327 239.201,228.649 239.201,232.661L 239.201,260.117 Z M 322.82,207.495L 322.82,180.296L 335.067,180.296L 335.067,197.775C 330.604,200.517 326.491,203.788 322.82,207.495 Z "/>
	<rect x="223.388" y="180.296" fill="#B6DFF6" fill-opacity="1" stroke-linejoin="round" width="0.665329" height="79.8214"/>
	<path fill="#B6DFF6" fill-opacity="1" stroke-linejoin="round" d="M 322.82,260.117L 321.489,260.117L 321.489,210.855C 321.925,210.365 322.369,209.884 322.82,209.408L 322.82,260.117 Z M 321.489,208.879L 321.489,180.296L 322.82,180.296L 322.82,207.495C 322.369,207.949 321.927,208.411 321.489,208.879 Z "/>
	<path fill="#AFD9F3" fill-opacity="1" stroke-linejoin="round" d="M 305.811,260.117L 304.472,260.117C 304.212,257.765 304.079,255.376 304.079,252.955C 304.079,250.779 304.187,248.579 304.407,246.357C 305.831,232.001 312.081,218.953 321.489,208.879C 321.927,208.411 322.369,207.949 322.82,207.495C 326.491,203.788 330.604,200.517 335.067,197.775L 335.067,199.344C 330.579,202.183 326.464,205.571 322.82,209.408C 322.369,209.884 321.925,210.365 321.489,210.855C 312.816,220.569 307.072,232.939 305.732,246.489C 305.516,248.665 305.411,250.823 305.411,252.955C 305.411,255.377 305.547,257.767 305.811,260.117 Z M 240.533,260.117L 239.201,260.117L 239.201,232.661C 239.201,228.649 242.313,225.327 246.316,225.065L 263.832,223.921C 266.231,215.232 269.685,206.985 274.04,199.313L 262.453,186.108C 261.189,184.669 260.563,182.875 260.563,181.089C 260.563,180.825 260.576,180.56 260.604,180.296L 261.944,180.296C 261.911,180.559 261.893,180.824 261.893,181.089C 261.895,182.567 262.409,184.04 263.453,185.231L 275.667,199.149L 275.431,199.563C 270.943,207.389 267.407,215.827 264.991,224.729L 264.867,225.188L 246.403,226.395C 243.101,226.609 240.532,229.351 240.533,232.661L 240.533,260.117 Z "/>
	<path fill="#B3DBF4" fill-opacity="1" stroke-linejoin="round" d="M 335.067,264.931L 223.388,264.931L 223.388,260.117L 224.053,260.117L 239.201,260.117L 240.533,260.117L 304.472,260.117L 305.811,260.117L 321.489,260.117L 322.82,260.117L 335.067,260.117L 335.067,264.931 Z "/>
	<path fill="#A4CBE7" fill-opacity="1" stroke-linejoin="round" d="M 335.067,351.799L 335.067,351.689C 335.067,350.536 334.124,349.593 332.972,349.593L 223.388,349.593L 223.388,340.092L 238.489,340.092C 239.703,340.092 240.695,339.1 240.695,337.887C 240.695,336.675 239.703,335.681 238.489,335.681L 223.388,335.681L 223.388,326.179L 281.899,326.179C 283.111,326.179 284.103,325.187 284.103,323.975C 284.103,322.761 283.111,321.769 281.899,321.769L 223.388,321.769L 223.388,312.267L 247.513,312.267C 248.727,312.267 249.719,311.275 249.719,310.063C 249.719,308.848 248.727,307.856 247.513,307.856L 223.388,307.856L 223.388,284.443L 335.067,284.443L 335.067,351.799 Z M 250.481,335.681C 249.268,335.681 248.276,336.675 248.276,337.887C 248.276,339.1 249.268,340.092 250.481,340.092L 297.213,340.092C 298.425,340.092 299.419,339.1 299.419,337.887C 299.419,336.675 298.425,335.681 297.213,335.681L 250.481,335.681 Z M 291.307,321.769C 290.093,321.769 289.101,322.761 289.101,323.975C 289.101,325.187 290.093,326.179 291.307,326.179L 317.293,326.179C 318.507,326.179 319.499,325.187 319.499,323.975C 319.499,322.761 318.507,321.769 317.293,321.769L 291.307,321.769 Z M 301.021,293.944C 299.808,293.944 298.815,294.936 298.815,296.149C 298.815,297.363 299.808,298.355 301.021,298.355L 317.293,298.355C 318.507,298.355 319.499,297.363 319.499,296.149C 319.499,294.936 318.507,293.944 317.293,293.944L 301.021,293.944 Z M 229.909,293.944C 228.696,293.944 227.703,294.936 227.703,296.149C 227.703,297.363 228.696,298.355 229.909,298.355L 289.225,298.355C 290.439,298.355 291.431,297.363 291.431,296.149C 291.431,294.936 290.439,293.944 289.225,293.944L 229.909,293.944 Z M 335.067,280.032L 223.388,280.032L 223.388,264.931L 335.067,264.931L 335.067,280.032 Z "/>
	<path fill="#A9E2E9" fill-opacity="1" stroke-linejoin="round" d="M 289.225,298.355L 229.909,298.355C 228.696,298.355 227.703,297.363 227.703,296.149C 227.703,294.936 228.696,293.944 229.909,293.944L 289.225,293.944C 290.439,293.944 291.431,294.936 291.431,296.149C 291.431,297.363 290.439,298.355 289.225,298.355 Z "/>
	<path fill="#AED6F2" fill-opacity="1" stroke-linejoin="round" d="M 317.293,298.355L 301.021,298.355C 299.808,298.355 298.815,297.363 298.815,296.149C 298.815,294.936 299.808,293.944 301.021,293.944L 317.293,293.944C 318.507,293.944 319.499,294.936 319.499,296.149C 319.499,297.363 318.507,298.355 317.293,298.355 Z "/>
	<path fill="#A9E2E9" fill-opacity="1" stroke-linejoin="round" d="M 238.489,340.092L 223.388,340.092L 223.388,335.681L 238.489,335.681C 239.703,335.681 240.695,336.675 240.695,337.887C 240.695,339.1 239.703,340.092 238.489,340.092 Z "/>
	<path fill="#AED6F2" fill-opacity="1" stroke-linejoin="round" d="M 297.213,340.092L 250.481,340.092C 249.268,340.092 248.276,339.1 248.276,337.887C 248.276,336.675 249.268,335.681 250.481,335.681L 297.213,335.681C 298.425,335.681 299.419,336.675 299.419,337.887C 299.419,339.1 298.425,340.092 297.213,340.092 Z "/>
	<path fill="#A9E2E9" fill-opacity="1" stroke-linejoin="round" d="M 247.513,312.267L 223.388,312.267L 223.388,307.856L 247.513,307.856C 248.727,307.856 249.719,308.848 249.719,310.063C 249.719,311.275 248.727,312.267 247.513,312.267 Z "/>
	<rect x="223.388" y="280.032" fill="#AED6F2" fill-opacity="1" stroke-linejoin="round" width="111.679" height="4.41068"/>
	<path fill="#AED6F2" fill-opacity="1" stroke-linejoin="round" d="M 317.293,326.179L 291.307,326.179C 290.093,326.179 289.101,325.187 289.101,323.975C 289.101,322.761 290.093,321.769 291.307,321.769L 317.293,321.769C 318.507,321.769 319.499,322.761 319.499,323.975C 319.499,325.187 318.507,326.179 317.293,326.179 Z "/>
	<path fill="#A9E2E9" fill-opacity="1" stroke-linejoin="round" d="M 281.899,326.179L 223.388,326.179L 223.388,321.769L 281.899,321.769C 283.111,321.769 284.103,322.761 284.103,323.975C 284.103,325.187 283.111,326.179 281.899,326.179 Z "/>
	<path fill="#AED6F2" fill-opacity="1" stroke-linejoin="round" d="M 335.067,351.799L 223.388,351.799L 223.388,349.593L 332.972,349.593C 334.124,349.593 335.067,350.536 335.067,351.689L 335.067,351.799 Z "/>
	<path fill="#A4CBE7" fill-opacity="1" stroke-linejoin="round" d="M 279.227,371.8C 276.512,371.8 274.168,370.213 273.072,367.916L 285.383,367.916C 284.287,370.213 281.941,371.8 279.227,371.8 Z M 285.881,363.507L 272.572,363.507C 273.248,360.453 275.972,358.171 279.227,358.171C 282.483,358.171 285.207,360.453 285.881,363.507 Z "/>
	<path fill="#A9E2E9" fill-opacity="1" stroke-linejoin="round" d="M 285.383,367.916L 273.072,367.916C 272.648,367.028 272.412,366.035 272.412,364.985C 272.412,364.477 272.467,363.983 272.572,363.507L 285.881,363.507C 285.988,363.983 286.043,364.477 286.043,364.985C 286.043,366.035 285.805,367.028 285.383,367.916 Z "/>
	<path fill="#8980C7" fill-opacity="1" stroke-linejoin="round" d="M 135.405,284.832L 87.1836,284.832C 78.7695,284.832 71.9479,278.011 71.9479,269.596L 71.9479,221.375C 71.9479,212.96 78.7695,206.14 87.1836,206.14L 135.405,206.14C 143.819,206.14 150.64,212.96 150.64,221.375L 150.64,269.596C 150.64,278.011 143.819,284.832 135.405,284.832 Z "/>
	<path fill="#8980C7" fill-opacity="1" stroke-linejoin="round" d="M 138.26,289.491L 138.26,288.825L 84.3295,288.825C 79.8053,288.824 75.7159,286.993 72.7505,284.029C 69.7864,281.064 67.9551,276.975 67.9547,272.452L 67.9547,218.52C 67.9551,213.997 69.7864,209.908 72.7507,206.943C 75.7159,203.979 79.8053,202.147 84.3295,202.147L 138.26,202.147C 142.784,202.147 146.873,203.979 149.839,206.943C 152.803,209.908 154.633,213.997 154.633,218.52L 154.633,272.452C 154.633,276.975 152.803,281.064 149.839,284.029C 146.873,286.993 142.784,288.824 138.26,288.825L 138.26,289.491L 138.26,290.156C 148.039,290.156 155.964,282.231 155.965,272.452L 155.965,218.52C 155.964,208.741 148.039,200.816 138.26,200.815L 84.3295,200.815C 74.5501,200.816 66.6239,208.741 66.6235,218.52L 66.6235,272.452C 66.6239,282.231 74.5501,290.156 84.3295,290.156L 138.26,290.156L 138.26,289.491 Z "/>
	<path fill="#DAF3FC" fill-opacity="1" stroke-linejoin="round" d="M 87.7683,244.499L 90.8867,244.499C 92.5352,244.499 94.1836,243.929 94.1836,241.949C 94.1836,239.761 91.9648,239.461 90.1653,239.461L 87.7683,239.461M 83.0899,235.504L 90.9752,235.504C 95.3828,235.504 99.0404,236.913 99.0404,241.949C 99.0404,246.928 95.6536,248.456 91.1861,248.456L 87.7683,248.456L 87.7683,256.732L 83.0899,256.732L 83.0899,235.504 Z "/>
	<path fill="#DAF3FC" fill-opacity="1" stroke-linejoin="round" d="M 101.978,235.504L 106.656,235.504L 106.656,243.419L 115.742,243.419L 115.742,235.504L 120.418,235.504L 120.418,256.732L 115.742,256.732L 115.742,247.556L 106.656,247.556L 106.656,256.732L 101.978,256.732L 101.978,235.504 Z "/>
	<path fill="#DAF3FC" fill-opacity="1" stroke-linejoin="round" d="M 129.415,244.499L 132.534,244.499C 134.183,244.499 135.831,243.929 135.831,241.949C 135.831,239.761 133.612,239.461 131.813,239.461L 129.415,239.461M 124.737,235.504L 132.621,235.504C 137.029,235.504 140.688,236.913 140.688,241.949C 140.688,246.928 137.3,248.456 132.833,248.456L 129.415,248.456L 129.415,256.732L 124.737,256.732L 124.737,235.504 Z "/>
	<path fill="#6B8ED0" fill-opacity="1" stroke-linejoin="round" d="M 456.555,388.94L 408.333,388.94C 399.919,388.94 393.097,382.12 393.097,373.704L 393.097,325.483C 393.097,317.068 399.919,310.247 408.333,310.247L 456.555,310.247C 464.969,310.247 471.791,317.068 471.791,325.483L 471.791,373.704C 471.791,382.12 464.969,388.94 456.555,388.94 Z "/>
	<path fill="#7DA2DA" fill-opacity="1" stroke-linejoin="round" d="M 459.411,393.599L 459.411,392.933L 405.479,392.933C 400.955,392.932 396.865,391.101 393.9,388.137C 390.936,385.172 389.105,381.083 389.104,376.56L 389.104,322.628C 389.105,318.104 390.936,314.015 393.9,311.049C 396.865,308.085 400.955,306.255 405.479,306.253L 459.411,306.253C 463.933,306.255 468.023,308.085 470.988,311.049C 473.952,314.015 475.783,318.104 475.784,322.628L 475.784,376.56C 475.783,381.083 473.952,385.172 470.988,388.137C 468.023,391.101 463.933,392.932 459.411,392.933L 459.411,393.599L 459.411,394.264C 469.188,394.264 477.115,386.337 477.115,376.56L 477.115,322.628C 477.115,312.849 469.188,304.923 459.411,304.923L 405.479,304.923C 395.7,304.923 387.773,312.849 387.773,322.628L 387.773,376.56C 387.773,386.337 395.7,394.264 405.479,394.264L 459.411,394.264L 459.411,393.599 Z "/>
	<path fill="#DAF3FC" fill-opacity="1" stroke-linejoin="round" d="M 419.364,341.631C 418.392,340.471 416.983,339.813 415.164,339.813C 411.468,339.813 408.741,342.821 408.741,346.957C 408.741,351.095 411.468,354.103 415.008,354.103C 416.983,354.103 418.581,353.227 419.584,351.721L 423.656,354.761C 421.808,357.395 418.675,358.616 415.635,358.616C 408.709,358.616 403.665,354.071 403.665,346.957C 403.665,339.845 408.709,335.301 415.635,335.301C 418.111,335.301 421.244,336.147 423.124,338.56L 419.364,341.631 Z "/>
	<path fill="#DAF3FC" fill-opacity="1" stroke-linejoin="round" d="M 425.916,346.583L 432.527,346.583L 432.527,339.969L 436.475,339.969L 436.475,346.583L 443.085,346.583L 443.085,350.529L 436.475,350.529L 436.475,357.143L 432.527,357.143L 432.527,350.529L 425.916,350.529L 425.916,346.583 Z "/>
	<path fill="#DAF3FC" fill-opacity="1" stroke-linejoin="round" d="M 446.785,346.583L 453.396,346.583L 453.396,339.969L 457.345,339.969L 457.345,346.583L 463.956,346.583L 463.956,350.529L 457.345,350.529L 457.345,357.143L 453.396,357.143L 453.396,350.529L 446.785,350.529L 446.785,346.583 Z "/>
	<path fill="#F58A3D" fill-opacity="1" stroke-linejoin="round" d="M 414.593,281.139L 380.407,281.139C 374.441,281.139 369.605,276.303 369.605,270.337L 369.605,236.149C 369.605,230.184 374.441,225.348 380.407,225.348L 414.593,225.348C 420.56,225.348 425.396,230.184 425.396,236.149L 425.396,270.337C 425.396,276.303 420.56,281.139 414.593,281.139 Z "/>
	<path fill="#F58A3D" fill-opacity="1" stroke-linejoin="round" d="M 416.619,284.443L 416.619,283.777L 378.383,283.777C 375.228,283.776 372.379,282.5 370.311,280.433C 368.244,278.365 366.968,275.516 366.968,272.361L 366.968,234.125C 366.968,230.971 368.244,228.121 370.311,226.053C 372.379,223.987 375.228,222.711 378.383,222.711L 416.619,222.711C 419.773,222.711 422.623,223.987 424.691,226.053C 426.757,228.121 428.033,230.971 428.033,234.125L 428.033,272.361C 428.033,275.516 426.757,278.365 424.691,280.433C 422.623,282.5 419.773,283.776 416.619,283.777L 416.619,284.443L 416.619,285.108C 423.659,285.108 429.364,279.401 429.365,272.361L 429.365,234.125C 429.364,227.085 423.659,221.38 416.619,221.379L 378.383,221.379C 371.343,221.38 365.637,227.085 365.636,234.125L 365.636,272.361C 365.637,279.401 371.343,285.108 378.383,285.108L 416.619,285.108L 416.619,284.443 Z "/>
	<path fill="#DAF3FC" fill-opacity="1" stroke-linejoin="round" d="M 376.832,246.997L 379.409,246.997L 379.409,251.357L 384.412,251.357L 384.412,246.997L 386.988,246.997L 386.988,258.689L 384.412,258.689L 384.412,253.636L 379.409,253.636L 379.409,258.689L 376.832,258.689L 376.832,246.997 Z "/>
	<path fill="#DAF3FC" fill-opacity="1" stroke-linejoin="round" d="M 391.633,249.276L 388.297,249.276L 388.297,246.997L 397.545,246.997L 397.545,249.276L 394.209,249.276L 394.209,258.689L 391.633,258.689L 391.633,249.276 Z "/>
	<path fill="#DAF3FC" fill-opacity="1" stroke-linejoin="round" d="M 398.853,246.997L 402.751,246.997L 405.443,254.627L 405.475,254.627L 408.185,246.997L 412.064,246.997L 412.064,258.689L 409.488,258.689L 409.488,249.723L 409.456,249.723L 406.384,258.689L 404.419,258.689L 401.464,249.723L 401.429,249.723L 401.429,258.689L 398.853,258.689L 398.853,246.997 Z "/>
	<path fill="#DAF3FC" fill-opacity="1" stroke-linejoin="round" d="M 414.548,246.997L 417.124,246.997L 417.124,256.311L 421.897,256.311L 421.897,258.689L 414.548,258.689L 414.548,246.997 Z "/>
	<path fill="#F4774C" fill-opacity="1" stroke-linejoin="round" d="M 228.023,197.241L 179.803,197.241C 171.387,197.241 164.567,190.421 164.567,182.007L 164.567,133.785C 164.567,125.371 171.387,118.55 179.803,118.55L 228.023,118.55C 236.437,118.55 243.257,125.371 243.257,133.785L 243.257,182.007C 243.257,190.421 236.437,197.241 228.023,197.241 Z "/>
	<path fill="#F4774C" fill-opacity="1" stroke-linejoin="round" d="M 230.877,201.901L 230.877,201.235L 176.947,201.235C 172.423,201.235 168.333,199.404 165.368,196.439C 162.404,193.473 160.572,189.385 160.572,184.861L 160.572,130.929C 160.572,126.406 162.404,122.317 165.368,119.352C 168.333,116.388 172.423,114.556 176.947,114.556L 230.877,114.556C 235.401,114.556 239.491,116.388 242.456,119.352C 245.42,122.317 247.252,126.406 247.252,130.929L 247.252,184.861C 247.252,189.384 245.42,193.473 242.456,196.439C 239.491,199.404 235.401,201.235 230.877,201.235L 230.877,201.901L 230.877,202.567C 240.656,202.565 248.583,194.64 248.584,184.861L 248.584,130.929C 248.583,121.151 240.656,113.225 230.877,113.225L 176.947,113.225C 167.167,113.225 159.241,121.151 159.24,130.929L 159.24,184.861C 159.241,194.64 167.167,202.565 176.947,202.567L 230.877,202.567L 230.877,201.901 Z "/>
	<path fill="#DAF3FC" fill-opacity="1" stroke-linejoin="round" d="M 185.619,160.021C 185.619,162.991 184.849,165.803 180.496,165.803C 177.957,165.803 176.097,164.624 175.577,162.063L 178.819,161.269C 178.909,162.04 179.636,162.675 180.405,162.675C 182.06,162.675 182.083,160.839 182.083,159.636L 182.083,149.344L 185.619,149.344L 185.619,160.021 Z "/>
	<path fill="#DAF3FC" fill-opacity="1" stroke-linejoin="round" d="M 195.303,154.015L 193.352,159.001L 197.272,159.001M 193.94,149.344L 196.864,149.344L 203.848,165.395L 199.857,165.395L 198.473,161.995L 192.241,161.995L 190.903,165.395L 187.004,165.395L 193.94,149.344 Z "/>
	<path fill="#DAF3FC" fill-opacity="1" stroke-linejoin="round" d="M 202.468,149.344L 206.503,149.344L 210.471,159.864L 210.516,159.864L 214.551,149.344L 218.337,149.344L 211.717,165.395L 208.883,165.395L 202.468,149.344 Z "/>
	<path fill="#DAF3FC" fill-opacity="1" stroke-linejoin="round" d="M 225.252,154.015L 223.304,159.001L 227.224,159.001M 223.892,149.344L 226.816,149.344L 233.799,165.395L 229.808,165.395L 228.424,161.995L 222.192,161.995L 220.855,165.395L 216.956,165.395L 223.892,149.344 Z "/>
	<path fill="#F5B531" fill-opacity="1" stroke-linejoin="round" d="M 173.115,385.497L 137.485,385.497C 131.268,385.497 126.228,380.457 126.228,374.24L 126.228,338.612C 126.228,332.395 131.268,327.353 137.485,327.353L 173.115,327.353C 179.332,327.353 184.371,332.395 184.371,338.612L 184.371,374.24C 184.371,380.457 179.332,385.497 173.115,385.497 Z "/>
	<path fill="#F5B531" fill-opacity="1" stroke-linejoin="round" d="M 175.224,388.94L 175.224,388.275L 135.376,388.275C 132.081,388.273 129.104,386.94 126.943,384.781C 124.784,382.621 123.451,379.645 123.451,376.349L 123.451,336.503C 123.451,333.207 124.784,330.229 126.943,328.069C 129.104,325.911 132.081,324.577 135.376,324.577L 175.224,324.577C 178.519,324.577 181.496,325.911 183.656,328.069C 185.815,330.229 187.148,333.207 187.148,336.503L 187.148,376.349C 187.148,379.645 185.815,382.621 183.656,384.781C 181.496,386.94 178.519,388.273 175.224,388.275L 175.224,388.94L 175.224,389.605C 182.545,389.605 188.479,383.671 188.48,376.349L 188.48,336.503C 188.479,329.18 182.545,323.245 175.224,323.245L 135.376,323.245C 128.054,323.245 122.12,329.18 122.119,336.503L 122.119,376.349C 122.12,383.671 128.054,389.605 135.376,389.605L 175.224,389.605L 175.224,388.94 Z "/>
	<path fill="#DAF3FC" fill-opacity="1" stroke-linejoin="round" d="M 151.445,358.791C 151.445,362.957 150.363,366.904 144.253,366.904C 140.691,366.904 138.081,365.249 137.349,361.655L 141.899,360.54C 142.027,361.623 143.044,362.513 144.128,362.513C 146.449,362.513 146.481,359.936 146.481,358.249L 146.481,343.803L 151.445,343.803L 151.445,358.791 Z "/>
	<path fill="#DAF3FC" fill-opacity="1" stroke-linejoin="round" d="M 166.841,349.308C 166.045,348.291 164.456,347.813 163.247,347.813C 161.847,347.813 159.905,348.449 159.905,350.135C 159.905,354.24 170.277,351.6 170.277,359.491C 170.277,364.517 166.237,366.904 161.591,366.904C 158.695,366.904 156.151,366.045 154.019,364.072L 157.551,360.189C 158.569,361.527 160.224,362.323 161.877,362.323C 163.5,362.323 165.315,361.559 165.315,359.967C 165.315,355.832 154.751,358.059 154.751,350.549C 154.751,345.744 158.919,343.232 163.341,343.232C 165.887,343.232 168.337,343.9 170.247,345.585L 166.841,349.308 Z "/>
	<path fill="#8DBDE7" fill-opacity="1" stroke-linejoin="round" d="M 478.832,408.764L 477.944,408.764C 477.941,410.219 476.765,411.395 475.311,411.397C 473.857,411.395 472.68,410.219 472.677,408.764C 472.68,407.311 473.857,406.133 475.311,406.131C 476.764,406.133 477.941,407.311 477.944,408.764L 478.832,408.764L 479.72,408.764C 479.719,406.329 477.745,404.356 475.311,404.356C 472.876,404.356 470.904,406.329 470.903,408.764C 470.904,411.2 472.877,413.172 475.311,413.172C 477.745,413.172 479.719,411.2 479.72,408.764L 478.832,408.764 Z "/>
	<path fill="#8DBDE7" fill-opacity="1" stroke-linejoin="round" d="M 427.965,180.296L 427.077,180.296C 427.075,181.749 425.897,182.927 424.444,182.929C 422.991,182.927 421.813,181.749 421.811,180.296C 421.813,178.843 422.991,177.665 424.444,177.663C 425.897,177.665 427.075,178.843 427.077,180.296L 427.965,180.296L 428.852,180.296C 428.852,177.861 426.879,175.889 424.444,175.888C 422.009,175.889 420.036,177.861 420.036,180.296C 420.036,182.731 422.009,184.704 424.444,184.704C 426.879,184.704 428.852,182.731 428.852,180.296L 427.965,180.296 Z "/>
	<path fill="#F4774C" fill-opacity="1" stroke-linejoin="round" d="M 455.371,266.048C 455.371,267.308 454.349,268.329 453.088,268.329C 451.828,268.329 450.805,267.308 450.805,266.048C 450.805,264.788 451.828,263.765 453.088,263.765C 454.349,263.765 455.371,264.788 455.371,266.048 Z "/>
	<path fill="#F4774C" fill-opacity="1" stroke-linejoin="round" d="M 106.535,398.079C 106.535,399.34 105.513,400.361 104.253,400.361C 102.992,400.361 101.97,399.34 101.97,398.079C 101.97,396.819 102.992,395.796 104.253,395.796C 105.513,395.796 106.535,396.819 106.535,398.079 Z "/>
	<path fill="#F4774C" fill-opacity="1" stroke-linejoin="round" d="M 134.993,180.296C 134.993,181.557 133.972,182.579 132.712,182.579C 131.452,182.579 130.43,181.557 130.43,180.296C 130.43,179.036 131.452,178.013 132.712,178.013C 133.972,178.013 134.993,179.036 134.993,180.296 Z "/>
	<path fill="#F4774C" fill-opacity="1" stroke-linejoin="round" d="M 440.152,416.696C 440.152,417.957 439.131,418.977 437.869,418.977C 436.609,418.977 435.587,417.957 435.587,416.696C 435.587,415.436 436.609,414.413 437.869,414.413C 439.131,414.413 440.152,415.436 440.152,416.696 Z "/>
	<path fill="#8DBDE7" fill-opacity="1" stroke-linejoin="round" d="M 194.516,218.524L 193.628,218.524C 193.625,219.979 192.449,221.155 190.995,221.157C 189.541,221.155 188.364,219.977 188.361,218.524C 188.364,217.069 189.541,215.893 190.995,215.891C 192.449,215.893 193.625,217.069 193.628,218.524L 194.516,218.524L 195.403,218.524C 195.403,216.089 193.431,214.116 190.995,214.116C 188.56,214.116 186.587,216.088 186.587,218.524C 186.587,220.959 188.56,222.932 190.995,222.932C 193.431,222.932 195.403,220.959 195.403,218.524L 194.516,218.524 Z "/>
	<path fill="#8DBDE7" fill-opacity="1" stroke-linejoin="round" d="M 70.8099,407.449L 69.9224,407.449C 69.9197,408.903 68.7424,410.08 67.2891,410.083C 65.8357,410.08 64.6584,408.903 64.6557,407.449C 64.6584,405.996 65.8357,404.819 67.2891,404.816C 68.7424,404.819 69.9197,405.996 69.9224,407.449L 70.8099,407.449L 71.6973,407.449C 71.6967,405.015 69.7237,403.041 67.2891,403.04C 64.8544,403.041 62.8815,405.015 62.8807,407.449C 62.8815,409.884 64.8543,411.856 67.2891,411.857C 69.7237,411.856 71.6967,409.884 71.6973,407.449L 70.8099,407.449 Z "/>
	<path fill="#8DBDE7" fill-opacity="1" stroke-linejoin="round" d="M 111.294,180.296L 110.407,180.296C 110.404,181.751 109.228,182.927 107.773,182.929C 106.32,182.927 105.143,181.749 105.14,180.296C 105.143,178.843 106.32,177.665 107.773,177.663C 109.228,177.665 110.404,178.843 110.407,180.296L 111.294,180.296L 112.182,180.296C 112.181,177.861 110.209,175.888 107.773,175.888C 105.339,175.889 103.366,177.861 103.365,180.296C 103.366,182.731 105.339,184.704 107.773,184.704C 110.209,184.704 112.181,182.731 112.182,180.296L 111.294,180.296 Z "/>
	<path fill="#7CA8D4" fill-opacity="1" stroke-linejoin="round" d="M 335.079,582.124C 334.751,582.124 334.472,582.02 334.233,581.808C 333.996,581.6 333.876,581.303 333.876,580.92C 333.876,580.599 333.991,580.321 334.217,580.091C 334.447,579.859 334.724,579.741 335.057,579.741C 335.388,579.741 335.671,579.859 335.911,580.085C 336.141,580.315 336.26,580.596 336.26,580.92C 336.26,581.297 336.141,581.593 335.911,581.803C 335.671,582.02 335.393,582.124 335.079,582.124 Z "/>
	<path fill="#7CA8D4" fill-opacity="1" stroke-linejoin="round" d="M 271.172,568.929C 271.589,568.929 271.899,568.963 272.251,569.021L 272.352,568.387C 272.352,568.387 271.376,568.087 270.092,568.191L 269.992,567.845C 270.391,567.761 270.691,567.407 270.691,566.984C 270.691,566.499 270.296,566.105 269.809,566.105C 269.323,566.105 268.929,566.499 268.929,566.984C 268.929,567.407 269.228,567.761 269.627,567.845L 269.737,568.232C 268.376,568.417 267.292,568.951 267.292,568.951L 267.484,569.537C 268.308,569.263 269.023,569.096 269.671,569.025C 270.305,568.959 270.783,568.929 271.172,568.929 Z "/>
</svg>
