<svg width="639" height="572" viewBox="0 0 639 572" fill="none" xmlns="http://www.w3.org/2000/svg">
<g clip-path="url(#clip0)">
<g opacity="0.53">
<g opacity="0.53">
<g opacity="0.53">
<path opacity="0.53" d="M286.286 209.205C182.372 181.311 134.774 180.439 91.5348 210.251C-8.02018 279.114 -24.4093 430.09 32.2551 482.216C70.4382 517.433 123.441 544.629 89.4426 571.826H638.826V95.7111C509.631 72.8729 505.795 268.13 286.286 209.205Z" fill="url(#paint0_radial)"/>
</g>
</g>
</g>
<g opacity="0.15">
<g opacity="0.15">
<path opacity="0.15" d="M395.256 211.297L449.828 179.567L502.308 209.902L447.736 241.631L395.256 211.297Z" fill="#6B99D1"/>
</g>
</g>
<path d="M447.736 171.373L447.562 231.694L395.082 201.534L395.256 141.039L447.736 171.373Z" fill="#C8E2FF"/>
<path d="M447.736 171.373L502.308 139.644L502.134 200.139L447.562 231.694L447.736 171.373Z" fill="#A5CBFA"/>
<path d="M395.256 141.039L449.828 109.309L502.308 139.644L447.736 171.373L395.256 141.039Z" fill="#DCEEFF"/>
<path d="M466.043 151.15C456.628 156.555 441.285 156.555 431.87 151.15C422.455 145.746 422.455 136.855 431.87 131.45C441.285 126.046 456.628 126.046 466.043 131.45C475.458 136.855 475.458 145.746 466.043 151.15Z" fill="#FFBE1D"/>
<path d="M466.043 147.838C456.628 153.242 441.285 153.242 431.87 147.838C422.455 142.433 422.455 133.542 431.87 128.138C441.285 122.733 456.628 122.733 466.043 128.138C475.458 133.542 475.458 142.259 466.043 147.838Z" fill="#FFCF59"/>
<path d="M448.956 150.104C442.854 150.104 436.926 148.71 432.742 146.269C428.731 144.002 426.465 141.039 426.465 137.901C426.465 134.937 428.731 131.799 432.742 129.533C436.926 127.092 442.854 125.697 448.956 125.697C455.059 125.697 460.987 127.092 465.171 129.533C469.181 131.799 471.448 134.763 471.448 137.901C471.448 140.864 469.181 144.002 465.171 146.269C460.812 148.71 455.059 150.104 448.956 150.104Z" fill="#FFE045"/>
<path d="M442.331 142.956L439.367 144.874L437.275 143.479L440.064 141.562C438.147 140.167 437.1 138.598 437.1 137.378L440.936 136.157C441.11 137.203 441.808 138.424 443.203 139.47L447.038 136.855C445.295 135.286 443.726 133.542 446.69 131.625C448.956 130.23 452.269 129.707 455.93 130.927L458.023 129.532L460.289 130.404L458.197 131.799C459.766 132.671 461.161 133.542 461.858 134.763L458.023 136.157C457.325 135.111 456.454 134.414 455.407 133.717L451.746 136.157C453.838 137.726 455.93 139.818 452.618 142.259C450.526 144.177 446.341 144.7 442.331 142.956ZM450.526 134.763L453.49 132.845C452.095 132.496 451.049 132.671 450.351 133.194C449.654 133.542 449.828 134.065 450.526 134.763ZM448.782 140.341C449.654 139.818 449.305 139.121 448.782 138.424L445.469 140.69C446.864 141.039 448.085 140.864 448.782 140.341Z" fill="#F2A803"/>
<path d="M466.043 146.617C456.628 152.022 441.285 152.022 431.87 146.617C422.455 141.213 422.455 132.322 431.87 126.917C441.285 121.513 456.628 121.513 466.043 126.917C475.458 132.322 475.458 141.213 466.043 146.617Z" fill="#FFBE1D"/>
<path d="M466.043 143.131C456.628 148.535 441.285 148.535 431.87 143.131C422.455 137.726 422.455 128.835 431.87 123.431C441.285 118.026 456.628 118.026 466.043 123.431C475.458 129.009 475.458 137.726 466.043 143.131Z" fill="#FFCF59"/>
<path d="M448.956 145.572C442.854 145.572 436.926 144.177 432.742 141.736C428.731 139.47 426.465 136.506 426.465 133.368C426.465 130.404 428.731 127.266 432.742 125C436.926 122.559 442.854 121.164 448.956 121.164C455.059 121.164 460.987 122.559 465.171 125C469.181 127.266 471.448 130.23 471.448 133.368C471.448 136.332 469.181 139.47 465.171 141.736C460.812 144.177 455.059 145.572 448.956 145.572Z" fill="#FFE045"/>
<path d="M442.331 138.249L439.367 140.167L437.275 138.772L440.064 136.855C438.147 135.46 437.1 133.891 437.1 132.67L440.936 131.45C441.11 132.496 441.808 133.717 443.203 134.763L447.038 132.147C445.295 130.578 443.726 128.835 446.69 126.917C448.956 125.523 452.269 125 455.93 126.22L458.023 124.825L460.289 125.697L458.197 127.092C459.766 127.963 461.161 128.835 461.858 130.055L458.023 131.45C457.325 130.404 456.454 129.707 455.407 129.009L451.746 131.45C453.838 133.019 455.93 135.111 452.618 137.552C450.526 139.644 446.341 140.167 442.331 138.249ZM450.526 130.055L453.49 128.138C452.095 127.789 451.049 127.963 450.351 128.486C449.654 129.009 449.828 129.532 450.526 130.055ZM448.782 135.809C449.654 135.286 449.305 134.588 448.782 133.891L445.469 136.157C446.864 136.506 448.085 136.332 448.782 135.809Z" fill="#F2A803"/>
<path d="M466.043 142.085C456.628 147.489 441.285 147.489 431.87 142.085C422.455 136.68 422.455 127.789 431.87 122.385C441.285 116.98 456.628 116.98 466.043 122.385C475.458 127.789 475.458 136.506 466.043 142.085Z" fill="#FFBE1D"/>
<path d="M466.043 138.598C456.628 144.002 441.285 144.002 431.87 138.598C422.455 133.194 422.455 124.302 431.87 118.898C441.285 113.493 456.628 113.493 466.043 118.898C475.458 124.302 475.458 133.194 466.043 138.598Z" fill="#FFCF59"/>
<path d="M448.956 141.039C442.854 141.039 436.926 139.644 432.742 137.203C428.731 134.937 426.465 131.973 426.465 128.835C426.465 125.871 428.731 122.733 432.742 120.467C436.926 118.026 442.854 116.632 448.956 116.632C455.059 116.632 460.987 118.026 465.171 120.467C469.181 122.733 471.448 125.697 471.448 128.835C471.448 131.799 469.181 134.937 465.171 137.203C460.812 139.47 455.059 141.039 448.956 141.039Z" fill="#FFE045"/>
<path d="M442.331 133.717L439.367 135.634L437.275 134.24L440.064 132.322C438.147 130.927 437.1 129.358 437.1 128.138L440.936 126.917C441.11 127.963 441.808 129.184 443.203 130.23L447.038 127.615C445.295 126.046 443.726 124.302 446.69 122.385C448.956 120.99 452.269 120.467 455.93 121.687L458.023 120.293L460.289 121.164L458.197 122.559C459.766 123.431 461.161 124.302 461.858 125.523L458.023 126.917C457.325 125.871 456.454 125.174 455.407 124.477L451.746 126.917C453.838 128.486 455.93 130.578 452.618 133.019C450.526 134.937 446.341 135.634 442.331 133.717ZM450.526 125.523L453.49 123.605C452.095 123.256 451.049 123.431 450.351 123.954C449.654 124.302 449.828 124.825 450.526 125.523ZM448.782 131.276C449.654 130.753 449.305 130.055 448.782 129.358L445.469 131.625C446.864 131.973 448.085 131.799 448.782 131.276Z" fill="#F2A803"/>
<path d="M466.043 137.378C456.628 142.782 441.285 142.782 431.87 137.378C422.455 131.973 422.455 123.082 431.87 117.678C441.285 112.273 456.628 112.273 466.043 117.678C475.458 123.256 475.458 131.973 466.043 137.378Z" fill="#FFBE1D"/>
<path d="M466.043 134.065C456.628 139.47 441.285 139.47 431.87 134.065C422.455 128.661 422.455 119.77 431.87 114.365C441.285 108.961 456.628 108.961 466.043 114.365C475.458 119.77 475.458 128.661 466.043 134.065Z" fill="#FFCF59"/>
<path d="M448.956 136.332C442.854 136.332 436.926 134.937 432.742 132.496C428.731 130.23 426.465 127.266 426.465 124.128C426.465 121.164 428.731 118.026 432.742 115.76C436.926 113.319 442.854 111.924 448.956 111.924C455.059 111.924 460.987 113.319 465.171 115.76C469.181 118.026 471.448 120.99 471.448 124.128C471.448 127.092 469.181 130.23 465.171 132.496C460.812 134.937 455.059 136.332 448.956 136.332Z" fill="#FFE045"/>
<path d="M442.331 129.184L439.367 131.101L437.275 129.707L440.064 127.789C438.147 126.394 437.1 124.825 437.1 123.605L440.936 122.385C441.11 123.431 441.808 124.651 443.203 125.697L447.038 123.082C445.295 121.513 443.726 119.77 446.69 117.852C448.956 116.457 452.269 115.934 455.93 117.155L458.023 115.76L460.289 116.632L458.197 118.026C459.766 118.898 461.161 119.77 461.858 120.99L458.023 122.385C457.325 121.339 456.454 120.641 455.407 119.944L451.746 122.385C453.838 123.954 455.93 126.046 452.618 128.486C450.526 130.404 446.341 130.927 442.331 129.184ZM450.526 120.99L453.49 119.072C452.095 118.724 451.049 118.898 450.351 119.421C449.654 119.77 449.828 120.293 450.526 120.99ZM448.782 126.743C449.654 126.22 449.305 125.523 448.782 124.825L445.469 127.092C446.864 127.44 448.085 127.266 448.782 126.743Z" fill="#F2A803"/>
<path d="M466.043 132.845C456.628 138.249 441.285 138.249 431.87 132.845C422.455 127.44 422.455 118.549 431.87 113.145C441.285 107.74 456.628 107.74 466.043 113.145C475.458 118.549 475.458 127.44 466.043 132.845Z" fill="#FFBE1D"/>
<path d="M466.043 129.532C456.628 134.937 441.285 134.937 431.87 129.532C422.455 124.128 422.455 115.237 431.87 109.832C441.285 104.428 456.628 104.428 466.043 109.832C475.458 115.237 475.458 123.954 466.043 129.532Z" fill="#FFCF59"/>
<path d="M448.956 131.799C442.854 131.799 436.926 130.404 432.742 127.963C428.731 125.697 426.465 122.733 426.465 119.595C426.465 116.632 428.731 113.493 432.742 111.227C436.926 108.786 442.854 107.392 448.956 107.392C455.059 107.392 460.987 108.786 465.171 111.227C469.181 113.493 471.448 116.457 471.448 119.595C471.448 122.559 469.181 125.697 465.171 127.963C460.812 130.404 455.059 131.799 448.956 131.799Z" fill="#FFE045"/>
<path d="M442.331 124.651L439.367 126.569L437.275 125.174L440.064 123.256C438.147 121.862 437.1 120.293 437.1 119.072L440.936 117.852C441.11 118.898 441.808 120.118 443.203 121.164L447.038 118.549C445.295 116.98 443.726 115.237 446.69 113.319C448.956 111.924 452.269 111.401 455.93 112.622L458.023 111.227L460.289 112.099L458.197 113.493C459.766 114.365 461.161 115.237 461.858 116.457L458.023 117.852C457.325 116.806 456.454 116.108 455.407 115.411L451.746 117.852C453.838 119.421 455.93 121.513 452.618 123.954C450.526 125.871 446.341 126.394 442.331 124.651ZM450.526 116.457L453.49 114.539C452.095 114.191 451.049 114.365 450.351 114.888C449.654 115.237 449.828 115.76 450.526 116.457ZM448.782 122.036C449.654 121.513 449.305 120.816 448.782 120.118L445.469 122.385C446.864 122.733 448.085 122.559 448.782 122.036Z" fill="#F2A803"/>
<path d="M466.043 128.312C456.628 133.717 441.285 133.717 431.87 128.312C422.455 122.908 422.455 114.017 431.87 108.612C441.285 103.208 456.628 103.208 466.043 108.612C475.458 114.017 475.458 122.908 466.043 128.312Z" fill="#FFBE1D"/>
<path d="M466.043 124.825C456.628 130.23 441.285 130.23 431.87 124.825C422.455 119.421 422.455 110.53 431.87 105.125C441.285 99.7208 456.628 99.7208 466.043 105.125C475.458 110.704 475.458 119.421 466.043 124.825Z" fill="#FFCF59"/>
<path d="M448.956 127.266C442.854 127.266 436.926 125.871 432.742 123.431C428.731 121.164 426.465 118.201 426.465 115.063C426.465 112.099 428.731 108.961 432.742 106.694C436.926 104.254 442.854 102.859 448.956 102.859C455.059 102.859 460.987 104.254 465.171 106.694C469.181 108.961 471.448 111.924 471.448 115.063C471.448 118.026 469.181 121.164 465.171 123.431C460.812 125.871 455.059 127.266 448.956 127.266Z" fill="#FFE045"/>
<path d="M442.331 119.944L439.367 122.036L437.275 120.641L440.064 118.724C438.147 117.329 437.1 115.76 437.1 114.54L440.936 113.319C441.11 114.365 441.808 115.586 443.203 116.632L447.038 114.016C445.295 112.447 443.726 110.704 446.69 108.786C448.956 107.392 452.269 106.869 455.93 108.089L458.023 106.694L460.289 107.566L458.197 108.961C459.766 109.832 461.161 110.704 461.858 111.924L458.023 113.319C457.325 112.273 456.454 111.576 455.407 110.878L451.746 113.319C453.838 114.888 455.93 116.98 452.618 119.421C450.526 121.339 446.341 121.862 442.331 119.944ZM450.526 111.75L453.49 109.832C452.095 109.484 451.049 109.658 450.351 110.181C449.654 110.704 449.828 111.227 450.526 111.75ZM448.782 117.503C449.654 116.98 449.305 116.283 448.782 115.586L445.469 117.852C446.864 118.201 448.085 118.026 448.782 117.503Z" fill="#F2A803"/>
<path d="M466.043 123.779C456.628 129.184 441.285 129.184 431.87 123.779C422.455 118.375 422.455 109.484 431.87 104.079C441.285 98.6748 456.628 98.6748 466.043 104.079C475.458 109.484 475.458 118.201 466.043 123.779Z" fill="#FFBE1D"/>
<path d="M466.043 120.293C456.628 125.697 441.285 125.697 431.87 120.293C422.455 114.888 422.455 105.997 431.87 100.593C441.285 95.1881 456.628 95.1881 466.043 100.593C475.458 105.997 475.458 114.888 466.043 120.293Z" fill="#FFCF59"/>
<path d="M448.956 122.733C442.854 122.733 436.926 121.339 432.742 118.898C428.731 116.632 426.465 113.668 426.465 110.53C426.465 107.566 428.731 104.428 432.742 102.162C436.926 99.7209 442.854 98.3262 448.956 98.3262C455.059 98.3262 460.987 99.7209 465.171 102.162C469.181 104.428 471.448 107.392 471.448 110.53C471.448 113.493 469.181 116.632 465.171 118.898C460.812 121.164 455.059 122.733 448.956 122.733Z" fill="#FFE045"/>
<path d="M442.331 115.411L439.367 117.329L437.275 115.934L440.064 114.016C438.147 112.622 437.1 111.053 437.1 109.832L440.936 108.612C441.11 109.658 441.808 110.878 443.203 111.924L447.038 109.309C445.295 107.74 443.726 105.997 446.69 104.079C448.956 102.685 452.269 102.162 455.93 103.382L458.023 101.987L460.289 102.859L458.197 104.254C459.766 105.125 461.161 105.997 461.858 107.217L458.023 108.612C457.325 107.566 456.454 106.869 455.407 106.171L451.746 108.612C453.838 110.181 455.93 112.273 452.618 114.714C450.526 116.632 446.341 117.329 442.331 115.411ZM450.526 107.217L453.49 105.3C452.095 104.951 451.049 105.125 450.351 105.648C449.654 105.997 449.828 106.52 450.526 107.217ZM448.782 112.97C449.654 112.447 449.305 111.75 448.782 111.053L445.469 113.319C446.864 113.668 448.085 113.493 448.782 112.97Z" fill="#F2A803"/>
<path d="M466.043 119.072C456.628 124.477 441.285 124.477 431.87 119.072C422.455 113.668 422.455 104.777 431.87 99.3722C441.285 93.9677 456.628 93.9677 466.043 99.3722C475.458 104.951 475.458 113.668 466.043 119.072Z" fill="#FFBE1D"/>
<path d="M466.043 115.76C456.628 121.164 441.285 121.164 431.87 115.76C422.455 110.355 422.455 101.464 431.87 96.0597C441.285 90.6553 456.628 90.6553 466.043 96.0597C475.458 101.464 475.458 110.355 466.043 115.76Z" fill="#FFCF59"/>
<path d="M448.956 118.026C442.854 118.026 436.926 116.632 432.742 114.191C428.731 111.924 426.465 108.961 426.465 105.823C426.465 102.859 428.731 99.7208 432.742 97.4544C436.926 95.0137 442.854 93.619 448.956 93.619C455.059 93.619 460.987 95.0137 465.171 97.4544C469.181 99.7208 471.448 102.685 471.448 105.823C471.448 108.786 469.181 111.924 465.171 114.191C460.812 116.632 455.059 118.026 448.956 118.026Z" fill="#FFE045"/>
<path d="M442.331 110.878L439.367 112.796L437.275 111.401L440.064 109.484C438.147 108.089 437.1 106.52 437.1 105.3L440.936 104.079C441.11 105.125 441.808 106.346 443.203 107.392L447.038 104.777C445.295 103.208 443.726 101.464 446.69 99.5465C448.956 98.1518 452.269 97.6288 455.93 98.8492L458.023 97.4545L460.289 98.3262L458.197 99.7208C459.766 100.593 461.161 101.464 461.858 102.685L458.023 104.079C457.325 103.033 456.454 102.336 455.407 101.639L451.746 104.079C453.838 105.648 455.93 107.74 452.618 110.181C450.526 112.099 446.341 112.622 442.331 110.878ZM450.526 102.685L453.49 100.767C452.095 100.418 451.049 100.593 450.351 101.116C449.654 101.464 449.828 101.987 450.526 102.685ZM448.782 108.438C449.654 107.915 449.305 107.217 448.782 106.52L445.469 108.786C446.864 109.135 448.085 108.961 448.782 108.438Z" fill="#F2A803"/>
<path d="M466.043 114.539C456.628 119.944 441.285 119.944 431.87 114.539C422.455 109.135 422.455 100.244 431.87 94.8394C441.285 89.435 456.628 89.435 466.043 94.8394C475.458 100.244 475.458 109.135 466.043 114.539Z" fill="#FFBE1D"/>
<path d="M466.043 111.227C456.628 116.632 441.285 116.632 431.87 111.227C422.455 105.823 422.455 96.9314 431.87 91.527C441.285 86.1225 456.628 86.1225 466.043 91.527C475.458 96.9314 475.458 105.648 466.043 111.227Z" fill="#FFCF59"/>
<path d="M448.956 113.493C442.854 113.493 436.926 112.099 432.742 109.658C428.731 107.392 426.465 104.428 426.465 101.29C426.465 98.3261 428.731 95.188 432.742 92.9217C436.926 90.4809 442.854 89.0862 448.956 89.0862C455.059 89.0862 460.987 90.4809 465.171 92.9217C469.181 95.188 471.448 98.1518 471.448 101.29C471.448 104.254 469.181 107.392 465.171 109.658C460.812 112.099 455.059 113.493 448.956 113.493Z" fill="#FFE045"/>
<path d="M442.331 106.346L439.367 108.263L437.275 106.869L440.064 104.951C438.147 103.556 437.1 101.987 437.1 100.767L440.936 99.5465C441.11 100.593 441.808 101.813 443.203 102.859L447.038 100.244C445.295 98.6748 443.726 96.9314 446.69 95.0137C448.956 93.619 452.269 93.096 455.93 94.3164L458.023 92.9217L460.289 93.7934L458.197 95.1881C459.766 96.0598 461.161 96.9314 461.858 98.1518L458.023 99.5465C457.325 98.5005 456.454 97.8031 455.407 97.1058L451.746 99.5465C453.838 101.116 455.93 103.208 452.618 105.648C450.526 107.566 446.341 108.089 442.331 106.346ZM450.526 98.1518L453.49 96.2341C452.095 95.8854 451.049 96.0598 450.351 96.5828C449.654 96.9314 449.828 97.4545 450.526 98.1518ZM448.782 103.731C449.654 103.208 449.305 102.51 448.782 101.813L445.469 104.079C446.864 104.428 448.085 104.254 448.782 103.731Z" fill="#F2A803"/>
<path d="M466.043 110.007C456.628 115.411 441.285 115.411 431.87 110.007C422.455 104.602 422.455 95.7111 431.87 90.3066C441.285 84.9022 456.628 84.9022 466.043 90.3066C475.458 95.7111 475.458 104.602 466.043 110.007Z" fill="#FFBE1D"/>
<path d="M466.043 106.52C456.628 111.924 441.285 111.924 431.87 106.52C422.455 101.116 422.455 92.2243 431.87 86.8199C441.285 81.4154 456.628 81.4154 466.043 86.8199C475.458 92.3987 475.458 101.116 466.043 106.52Z" fill="#FFCF59"/>
<path d="M448.956 108.961C442.854 108.961 436.926 107.566 432.742 105.125C428.731 102.859 426.465 99.8952 426.465 96.7571C426.465 93.7934 428.731 90.6553 432.742 88.3889C436.926 85.9482 442.854 84.5535 448.956 84.5535C455.059 84.5535 460.987 85.9482 465.171 88.3889C469.181 90.6553 471.448 93.6191 471.448 96.7571C471.448 99.7209 469.181 102.859 465.171 105.125C460.812 107.566 455.059 108.961 448.956 108.961Z" fill="#FFE045"/>
<path d="M442.331 101.639L439.367 103.556L437.275 102.162L440.064 100.244C438.147 98.8492 437.1 97.2801 437.1 96.0598L440.936 94.8394C441.11 95.8854 441.808 97.1058 443.203 98.1518L447.038 95.5368C445.295 93.9677 443.726 92.2244 446.69 90.3066C448.956 88.9119 452.269 88.3889 455.93 89.6093L458.023 88.2146L460.289 89.0863L458.197 90.481C459.766 91.3527 461.161 92.2244 461.858 93.4447L458.023 94.8394C457.325 93.7934 456.454 93.096 455.407 92.3987L451.746 94.8394C453.838 96.4085 455.93 98.5005 452.618 100.941C450.526 103.033 446.341 103.556 442.331 101.639ZM450.526 93.4447L453.49 91.527C452.095 91.1783 451.049 91.3527 450.351 91.8757C449.654 92.3987 449.828 92.9217 450.526 93.4447ZM448.782 99.1978C449.654 98.6748 449.305 97.9775 448.782 97.2801L445.469 99.5465C446.864 99.8952 448.085 99.7209 448.782 99.1978Z" fill="#F2A803"/>
<path opacity="0.15" d="M483.304 322.872H475.284V325.662L329.177 241.283C327.956 240.585 326.561 240.585 325.341 241.283L202.074 312.412V307.531H197.889V316.945C197.889 318.165 198.587 319.56 199.807 320.257L352.365 408.472C353.586 409.169 354.981 409.169 356.201 408.472L481.386 335.773C482.606 335.076 483.304 333.681 483.304 332.461V322.872Z" fill="#6B99D1"/>
<path d="M483.304 314.155H475.284V316.945L329.177 232.566C327.956 231.868 326.561 231.868 325.341 232.566L202.074 303.695V298.814H197.889V308.228C197.889 309.448 198.587 310.843 199.807 311.54L352.365 399.755C353.586 400.452 354.981 400.452 356.201 399.755L481.386 327.056C482.606 326.359 483.304 324.964 483.304 323.744V314.155Z" fill="#5C77D1"/>
<path d="M352.365 390.515L199.807 302.301C197.192 300.906 197.192 297.245 199.807 295.676L325.341 223.151C326.561 222.454 327.956 222.454 329.177 223.151L481.386 311.017C484.001 312.412 484.001 316.073 481.386 317.642L356.201 390.515C354.981 391.038 353.586 391.212 352.365 390.515Z" fill="#6D8EF9"/>
<path d="M419.142 267.084C415.132 263.075 410.25 259.065 404.322 255.752C369.103 235.355 311.916 235.355 276.697 255.752C270.769 259.239 265.712 263.075 261.877 267.084H250.369V292.538C250.369 305.787 259.261 319.211 276.871 329.323C312.09 349.72 369.277 349.72 404.497 329.323C422.106 319.211 430.998 305.787 430.998 292.538V267.084H419.142Z" fill="url(#paint1_linear)"/>
<path d="M276.697 233.437C241.477 253.835 241.477 286.785 276.697 307.182C311.916 327.579 369.103 327.579 404.322 307.182C439.541 286.785 439.541 253.835 404.322 233.437C369.103 213.04 311.916 213.04 276.697 233.437Z" fill="#BFCFFF"/>
<path d="M305.465 78.103C259.61 97.4544 237.99 150.279 257.169 196.129C276.522 241.98 329.351 263.598 375.205 244.421C421.06 225.069 442.68 172.245 423.501 126.394C404.322 80.3694 351.494 58.7516 305.465 78.103Z" fill="#A2D4FF"/>
<path d="M275.302 111.401C279.486 115.411 282.625 95.5367 289.424 101.116C279.138 109.309 278.614 124.651 287.506 129.532C296.398 134.24 301.803 129.358 301.803 133.194C303.896 140.167 299.188 145.397 295.178 149.233C284.717 160.564 293.783 163.354 292.563 172.419C291.342 182.531 286.112 199.442 286.46 209.553C286.46 213.214 291.168 214.609 293.26 211.645C299.537 202.928 303.547 198.919 314.008 190.55C323.597 183.054 329.874 175.557 331.617 164.923C332.664 151.848 298.142 150.976 310.172 135.809C314.182 132.148 323.423 124.128 314.008 117.852C306.336 112.796 306.511 131.799 299.711 122.385C295.527 112.447 305.988 106.694 314.357 105.125C314.705 105.125 315.054 105.125 315.403 105.125C322.9 105.648 328.653 112.447 337.022 111.053C343.125 110.53 340.509 97.2801 344.345 97.4544C352.191 93.7934 361.257 98.6748 363.873 86.4712C364.396 82.9845 362.826 79.3234 361.432 75.488C360.909 74.2676 359.862 73.3959 358.642 73.0473C333.535 67.9915 307.557 73.7446 287.332 88.7376C286.809 89.0863 286.286 89.6093 286.112 90.3066C283.671 96.2341 271.292 107.566 275.302 111.401Z" fill="#6CFFE6"/>
<path d="M422.629 126.743C420.886 126.046 419.316 125.174 417.747 124.128C415.655 122.733 412.865 123.605 412.168 126.046C410.25 132.148 407.461 137.726 399.44 137.203C396.999 137.029 394.907 139.295 395.605 141.736C395.779 142.259 395.953 142.608 396.302 142.782C402.23 149.93 402.753 159.867 398.046 161.262C390.374 164.574 386.015 163.877 381.831 167.887C379.564 169.979 380.959 173.814 384.097 174.163C392.989 175.209 402.056 177.301 410.948 175.034C411.645 174.86 412.342 174.337 412.865 173.814C413.563 172.942 414.609 172.071 415.481 171.199C417.224 169.63 419.84 169.804 421.234 171.722C421.583 172.071 421.757 172.594 421.932 172.942C422.28 173.64 422.28 174.337 422.28 174.86C420.537 190.55 402.579 184.972 390.548 186.192C379.216 187.238 384.969 205.718 380.959 218.096C380.262 220.188 381.656 222.28 383.749 222.803C387.933 223.674 391.943 222.977 396.128 222.454C398.743 222.105 401.01 224.546 400.312 227.161C400.138 228.033 399.963 228.73 399.789 229.602C407.984 222.454 415.132 213.912 420.537 203.626C433.439 179.567 434.311 152.371 425.244 128.835C424.373 127.963 423.501 127.092 422.629 126.743Z" fill="#6CFFE6"/>
<path d="M423.675 126.394C416.701 109.658 405.194 96.2341 391.246 86.8199C395.605 92.573 399.44 99.0235 402.23 106.171C421.583 152.022 399.963 205.02 353.935 224.198C324.643 236.575 292.563 232.217 268.153 215.655C292.388 247.907 336.325 260.983 375.205 244.595C421.409 225.069 443.028 172.245 423.675 126.394Z" fill="#A2D4FF"/>
<path opacity="0.59" d="M319.627 134.694C331.096 119.827 332.42 101.626 322.585 94.0392C312.749 86.4527 295.479 92.3542 284.01 107.22C272.541 122.087 271.217 140.288 281.052 147.875C290.888 155.461 308.158 149.56 319.627 134.694Z" fill="#DAFFFF"/>
<path opacity="0.5" d="M430.649 269.002V48.6401H250.195V271.269H250.369C250.893 284.169 259.61 297.07 276.697 307.008C311.916 327.405 369.103 327.405 404.322 307.008C422.455 296.547 431.347 282.775 430.649 269.002Z" fill="url(#paint2_linear)"/>
<path d="M250.544 48.4657C248.277 63.2844 256.995 78.4517 276.697 89.7836" stroke="#7CF9FE" stroke-miterlimit="10"/>
<path d="M276.697 16.2134C268.153 21.0948 261.528 26.8479 257.169 32.9497" stroke="#7CF9FE" stroke-miterlimit="10"/>
<path d="M340.509 0.871704C325.166 0.871704 309.649 3.13809 295.875 7.67085" stroke="#7CF9FE" stroke-miterlimit="10"/>
<path d="M430.301 48.2914C428.383 36.6108 419.84 25.1046 404.322 16.2134C392.641 9.58858 378.693 5.05581 363.873 2.78943" stroke="#7CF9FE" stroke-miterlimit="10"/>
<path d="M412.691 84.3792C420.188 78.626 425.419 72.1756 428.208 65.3764" stroke="#7CF9FE" stroke-miterlimit="10"/>
<path d="M305.988 101.116C334.407 107.915 367.534 105.997 393.164 95.3624" stroke="#7CF9FE" stroke-miterlimit="10"/>
<path opacity="0.15" d="M20.5735 462.516L159.358 382.321C160.229 381.798 161.624 381.798 162.322 382.321L166.332 384.762C167.204 385.285 167.204 385.982 166.332 386.505L27.3733 466.7C26.5015 467.223 25.1067 467.223 24.4093 466.7L20.3992 464.434C19.7018 463.737 19.7018 463.039 20.5735 462.516Z" fill="#6B99D1"/>
<path d="M168.947 354.776L35.3935 431.833L29.6398 435.145L22.8401 431.136C21.9684 430.613 21.2709 429.392 21.2709 428.521V288.179C21.2709 287.656 21.4453 286.959 21.794 286.436C22.1427 285.913 22.4914 285.39 23.0145 285.041L159.009 206.415C159.881 205.892 161.276 205.892 161.973 206.415L168.773 210.425L168.947 354.776Z" fill="#5C77D1"/>
<path d="M35.5678 294.455V431.833L29.8142 435.145L23.0145 431.136C22.1427 430.613 21.4453 429.392 21.4453 428.521V288.179C21.4453 287.656 21.6196 286.959 21.9684 286.436L35.5678 294.455Z" fill="#5C77D1"/>
<path d="M32.9525 287.656L165.809 210.948C168.25 209.553 170.342 210.599 170.342 213.563V350.418C170.342 353.381 168.25 356.868 165.809 358.263L32.9525 434.971C30.5116 436.366 28.4194 435.32 28.4194 432.356V295.676C28.4194 292.712 30.5116 289.225 32.9525 287.656Z" fill="#6D8EF9"/>
<path d="M77.761 389.469L55.0952 402.719V376.568L77.761 363.493V389.469Z" fill="#EACAB9"/>
<path d="M77.761 346.756V389.469L100.252 376.568V333.681L77.761 346.756Z" fill="#C8E2FF"/>
<path d="M100.252 310.32V376.568L122.744 363.667L122.918 297.245L100.252 310.32Z" fill="#A2D4FF"/>
<path d="M122.918 279.985L122.744 363.667L145.584 350.418V267.084L122.918 279.985Z" fill="#7CF9FE"/>
<path d="M55.0952 350.941L66.6025 310.669L84.0377 320.78L99.3806 275.801L111.585 285.564L126.928 258.193" stroke="#FFE045" stroke-width="2" stroke-miterlimit="10"/>
<path d="M134.077 262.377L118.559 253.835L134.425 244.595L134.077 262.377Z" fill="#FFE045"/>
<path d="M55.0952 290.271C55.0952 291.666 56.3157 292.015 57.8849 291.143L82.9915 276.673C84.5607 275.801 85.7812 273.884 85.7812 272.489C85.7812 271.094 84.5607 270.746 82.9915 271.617L57.8849 286.087C56.3157 286.959 55.0952 288.877 55.0952 290.271Z" fill="#7CF9FE"/>
<path opacity="0.15" d="M215.325 447.175C215.325 453.276 202.946 458.332 187.428 458.332C172.085 458.332 159.532 453.276 159.532 447.175C159.532 441.073 171.911 436.017 187.428 436.017C202.946 436.017 215.325 441.073 215.325 447.175Z" fill="#6B99D1"/>
<g opacity="0.15">
<g opacity="0.15">
<path opacity="0.15" d="M496.031 264.121L550.604 232.391L603.083 262.726L548.511 294.455L496.031 264.121Z" fill="#6B99D1"/>
</g>
</g>
<path d="M548.511 224.198L548.337 284.518L495.857 254.183L496.031 193.863L548.511 224.198Z" fill="#C8E2FF"/>
<path d="M548.511 224.197L603.083 192.468L602.909 252.789L548.337 284.518L548.511 224.197Z" fill="#A5CBFA"/>
<path d="M496.031 193.863L550.604 162.133L603.083 192.468L548.511 224.198L496.031 193.863Z" fill="#DCEEFF"/>
<path d="M566.818 203.974C557.403 209.379 542.06 209.379 532.645 203.974C523.23 198.57 523.23 189.679 532.645 184.274C542.06 178.87 557.403 178.87 566.818 184.274C576.233 189.679 576.233 198.396 566.818 203.974Z" fill="#FFBE1D"/>
<path d="M566.818 200.488C557.403 205.892 542.06 205.892 532.645 200.488C523.23 195.083 523.23 186.192 532.645 180.788C542.06 175.383 557.403 175.383 566.818 180.788C576.233 186.192 576.233 195.083 566.818 200.488Z" fill="#FFCF59"/>
<path d="M549.732 202.928C543.629 202.928 537.702 201.534 533.517 199.093C529.507 196.827 527.24 193.863 527.24 190.725C527.24 187.761 529.507 184.623 533.517 182.357C537.702 179.916 543.629 178.521 549.732 178.521C555.834 178.521 561.762 179.916 565.947 182.357C569.957 184.623 572.223 187.587 572.223 190.725C572.223 193.689 569.957 196.827 565.947 199.093C561.588 201.534 555.66 202.928 549.732 202.928Z" fill="#FFE045"/>
<path d="M543.106 195.606L540.142 197.524L538.05 196.129L540.84 194.212C538.922 192.817 537.876 191.248 537.876 190.027L541.712 188.807C541.886 189.853 542.583 191.073 543.978 192.12L547.814 189.504C546.07 187.935 544.501 186.192 547.465 184.274C549.732 182.88 553.044 182.357 556.706 183.577L558.798 182.182L561.065 183.054L558.972 184.449C560.542 185.32 561.936 186.192 562.634 187.412L558.798 188.807C558.101 187.761 557.229 187.064 556.183 186.366L552.521 188.807C554.614 190.376 556.706 192.468 553.393 194.909C551.127 196.827 547.117 197.524 543.106 195.606ZM551.127 187.412L554.091 185.495C552.696 185.146 551.65 185.32 550.952 185.843C550.255 186.192 550.604 186.889 551.127 187.412ZM549.557 193.166C550.429 192.643 550.081 191.945 549.557 191.248L546.245 193.514C547.64 193.863 548.86 193.689 549.557 193.166Z" fill="#F2A803"/>
<path d="M566.818 199.267C557.403 204.672 542.06 204.672 532.645 199.267C523.23 193.863 523.23 184.972 532.645 179.567C542.06 174.163 557.403 174.163 566.818 179.567C576.233 185.146 576.233 193.863 566.818 199.267Z" fill="#FFBE1D"/>
<path d="M566.818 195.955C557.403 201.359 542.06 201.359 532.645 195.955C523.23 190.55 523.23 181.659 532.645 176.255C542.06 170.85 557.403 170.85 566.818 176.255C576.233 181.659 576.233 190.55 566.818 195.955Z" fill="#FFCF59"/>
<path d="M549.732 198.221C543.629 198.221 537.702 196.827 533.517 194.386C529.507 192.119 527.24 189.156 527.24 186.018C527.24 183.054 529.507 179.916 533.517 177.65C537.702 175.209 543.629 173.814 549.732 173.814C555.834 173.814 561.762 175.209 565.947 177.65C569.957 179.916 572.223 182.88 572.223 186.018C572.223 188.981 569.957 192.119 565.947 194.386C561.588 196.827 555.66 198.221 549.732 198.221Z" fill="#FFE045"/>
<path d="M543.106 191.074L540.142 192.991L538.05 191.597L540.84 189.679C538.922 188.284 537.876 186.715 537.876 185.495L541.712 184.274C541.886 185.32 542.583 186.541 543.978 187.587L547.814 184.972C546.07 183.403 544.501 181.659 547.465 179.742C549.732 178.347 553.044 177.824 556.706 179.044L558.798 177.65L561.065 178.521L558.972 179.916C560.542 180.788 561.936 181.659 562.634 182.88L558.798 184.274C558.101 183.228 557.229 182.531 556.183 181.834L552.521 184.274C554.614 185.843 556.706 187.935 553.393 190.376C551.127 192.294 547.117 192.817 543.106 191.074ZM551.127 182.88L554.091 180.962C552.696 180.613 551.65 180.788 550.952 181.311C550.255 181.659 550.604 182.182 551.127 182.88ZM549.557 188.633C550.429 188.11 550.081 187.412 549.557 186.715L546.245 188.981C547.64 189.33 548.86 189.156 549.557 188.633Z" fill="#F2A803"/>
<path d="M566.818 194.735C557.403 200.139 542.06 200.139 532.645 194.735C523.23 189.33 523.23 180.439 532.645 175.034C542.06 169.63 557.403 169.63 566.818 175.034C576.233 180.439 576.233 189.33 566.818 194.735Z" fill="#FFBE1D"/>
<path d="M566.818 191.422C557.403 196.827 542.06 196.827 532.645 191.422C523.23 186.018 523.23 177.126 532.645 171.722C542.06 166.318 557.403 166.318 566.818 171.722C576.233 177.126 576.233 185.843 566.818 191.422Z" fill="#FFCF59"/>
<path d="M549.732 193.689C543.629 193.689 537.702 192.294 533.517 189.853C529.507 187.587 527.24 184.623 527.24 181.485C527.24 178.521 529.507 175.383 533.517 173.117C537.702 170.676 543.629 169.281 549.732 169.281C555.834 169.281 561.762 170.676 565.947 173.117C569.957 175.383 572.223 178.347 572.223 181.485C572.223 184.449 569.957 187.587 565.947 189.853C561.588 192.294 555.66 193.689 549.732 193.689Z" fill="#FFE045"/>
<path d="M543.106 186.541L540.142 188.458L538.05 187.064L540.84 185.146C538.922 183.751 537.876 182.182 537.876 180.962L541.712 179.742C541.886 180.788 542.583 182.008 543.978 183.054L547.814 180.439C546.07 178.87 544.501 177.126 547.465 175.209C549.732 173.814 553.044 173.291 556.706 174.511L558.798 173.117L561.065 173.988L558.972 175.383C560.542 176.255 561.936 177.126 562.634 178.347L558.798 179.742C558.101 178.695 557.229 177.998 556.183 177.301L552.521 179.742C554.614 181.311 556.706 183.403 553.393 185.843C551.127 187.761 547.117 188.284 543.106 186.541ZM551.127 178.347L554.091 176.429C552.696 176.08 551.65 176.255 550.952 176.778C550.255 177.126 550.604 177.649 551.127 178.347ZM549.557 183.926C550.429 183.403 550.081 182.705 549.557 182.008L546.245 184.274C547.64 184.623 548.86 184.449 549.557 183.926Z" fill="#F2A803"/>
<path d="M566.818 190.202C557.403 195.606 542.06 195.606 532.645 190.202C523.23 184.797 523.23 175.906 532.645 170.502C542.06 165.097 557.403 165.097 566.818 170.502C576.233 175.906 576.233 184.797 566.818 190.202Z" fill="#FFBE1D"/>
<path d="M566.818 186.715C557.403 192.12 542.06 192.12 532.645 186.715C523.23 181.311 523.23 172.419 532.645 167.015C542.06 161.611 557.403 161.611 566.818 167.015C576.233 172.594 576.233 181.311 566.818 186.715Z" fill="#FFCF59"/>
<path d="M549.732 189.156C543.629 189.156 537.702 187.761 533.517 185.32C529.507 183.054 527.24 180.09 527.24 176.952C527.24 173.988 529.507 170.85 533.517 168.584C537.702 166.143 543.629 164.749 549.732 164.749C555.834 164.749 561.762 166.143 565.947 168.584C569.957 170.85 572.223 173.814 572.223 176.952C572.223 179.916 569.957 183.054 565.947 185.32C561.588 187.761 555.66 189.156 549.732 189.156Z" fill="#FFE045"/>
<path d="M543.106 181.834L540.142 183.751L538.05 182.357L540.84 180.439C538.922 179.044 537.876 177.475 537.876 176.255L541.712 175.034C541.886 176.08 542.583 177.301 543.978 178.347L547.814 175.732C546.07 174.163 544.501 172.419 547.465 170.502C549.732 169.107 553.044 168.584 556.706 169.804L558.798 168.41L561.065 169.281L558.972 170.676C560.542 171.548 561.936 172.419 562.634 173.64L558.798 175.034C558.101 173.988 557.229 173.291 556.183 172.594L552.521 175.034C554.614 176.604 556.706 178.696 553.393 181.136C551.127 183.228 547.117 183.751 543.106 181.834ZM551.127 173.64L554.091 171.722C552.696 171.373 551.65 171.548 550.952 172.071C550.255 172.594 550.604 173.117 551.127 173.64ZM549.557 179.393C550.429 178.87 550.081 178.173 549.557 177.475L546.245 179.742C547.64 180.09 548.86 179.916 549.557 179.393Z" fill="#F2A803"/>
<path d="M566.818 185.669C557.403 191.073 542.06 191.073 532.645 185.669C523.23 180.265 523.23 171.373 532.645 165.969C542.06 160.564 557.403 160.564 566.818 165.969C576.233 171.373 576.233 180.09 566.818 185.669Z" fill="#FFBE1D"/>
<path d="M566.818 182.182C557.403 187.587 542.06 187.587 532.645 182.182C523.23 176.778 523.23 167.887 532.645 162.482C542.06 157.078 557.403 157.078 566.818 162.482C576.233 167.887 576.233 176.778 566.818 182.182Z" fill="#FFCF59"/>
<path d="M549.732 184.623C543.629 184.623 537.702 183.228 533.517 180.788C529.507 178.521 527.24 175.557 527.24 172.419C527.24 169.456 529.507 166.318 533.517 164.051C537.702 161.611 543.629 160.216 549.732 160.216C555.834 160.216 561.762 161.611 565.947 164.051C569.957 166.318 572.223 169.281 572.223 172.419C572.223 175.383 569.957 178.521 565.947 180.788C561.588 183.228 555.66 184.623 549.732 184.623Z" fill="#FFE045"/>
<path d="M543.106 177.301L540.142 179.219L538.05 177.824L540.84 175.906C538.922 174.511 537.876 172.942 537.876 171.722L541.712 170.502C541.886 171.548 542.583 172.768 543.978 173.814L547.814 171.199C546.07 169.63 544.501 167.887 547.465 165.969C549.732 164.574 553.044 164.051 556.706 165.272L558.798 163.877L561.065 164.749L558.972 166.143C560.542 167.015 561.936 167.887 562.634 169.107L558.798 170.502C558.101 169.456 557.229 168.758 556.183 168.061L552.521 170.502C554.614 172.071 556.706 174.163 553.393 176.603C551.127 178.521 547.117 179.218 543.106 177.301ZM551.127 169.107L554.091 167.189C552.696 166.841 551.65 167.015 550.952 167.538C550.255 167.887 550.604 168.584 551.127 169.107ZM549.557 174.86C550.429 174.337 550.081 173.64 549.557 172.942L546.245 175.209C547.64 175.557 548.86 175.383 549.557 174.86Z" fill="#F2A803"/>
<path d="M566.818 180.962C557.403 186.366 542.06 186.366 532.645 180.962C523.23 175.557 523.23 166.666 532.645 161.262C542.06 155.857 557.403 155.857 566.818 161.262C576.233 166.841 576.233 175.557 566.818 180.962Z" fill="#FFBE1D"/>
<path d="M566.818 177.65C557.403 183.054 542.06 183.054 532.645 177.65C523.23 172.245 523.23 163.354 532.645 157.949C542.06 152.545 557.403 152.545 566.818 157.949C576.233 163.354 576.233 172.245 566.818 177.65Z" fill="#FFCF59"/>
<path d="M549.732 179.916C543.629 179.916 537.702 178.521 533.517 176.081C529.507 173.814 527.24 170.85 527.24 167.712C527.24 164.749 529.507 161.611 533.517 159.344C537.702 156.903 543.629 155.509 549.732 155.509C555.834 155.509 561.762 156.903 565.947 159.344C569.957 161.611 572.223 164.574 572.223 167.712C572.223 170.676 569.957 173.814 565.947 176.081C561.588 178.521 555.66 179.916 549.732 179.916Z" fill="#FFE045"/>
<path d="M543.106 172.768L540.142 174.686L538.05 173.291L540.84 171.373C538.922 169.979 537.876 168.41 537.876 167.189L541.712 165.969C541.886 167.015 542.583 168.235 543.978 169.281L547.814 166.666C546.07 165.097 544.501 163.354 547.465 161.436C549.732 160.041 553.044 159.518 556.706 160.739L558.798 159.344L561.065 160.216L558.972 161.61C560.542 162.482 561.936 163.354 562.634 164.574L558.798 165.969C558.101 164.923 557.229 164.226 556.183 163.528L552.521 165.969C554.614 167.538 556.706 169.63 553.393 172.071C551.127 173.988 547.117 174.511 543.106 172.768ZM551.127 164.574L554.091 162.657C552.696 162.308 551.65 162.482 550.952 163.005C550.255 163.354 550.604 163.877 551.127 164.574ZM549.557 170.327C550.429 169.804 550.081 169.107 549.557 168.41L546.245 170.676C547.64 171.025 548.86 170.85 549.557 170.327Z" fill="#F2A803"/>
<path d="M566.818 176.429C557.403 181.834 542.06 181.834 532.645 176.429C523.23 171.025 523.23 162.134 532.645 156.729C542.06 151.325 557.403 151.325 566.818 156.729C576.233 162.134 576.233 171.025 566.818 176.429Z" fill="#FFBE1D"/>
<path d="M566.818 173.117C557.403 178.521 542.06 178.521 532.645 173.117C523.23 167.712 523.23 158.821 532.645 153.417C542.06 148.012 557.403 148.012 566.818 153.417C576.233 158.821 576.233 167.538 566.818 173.117Z" fill="#FFCF59"/>
<path d="M549.732 175.383C543.629 175.383 537.702 173.988 533.517 171.548C529.507 169.281 527.24 166.318 527.24 163.18C527.24 160.216 529.507 157.078 533.517 154.811C537.702 152.371 543.629 150.976 549.732 150.976C555.834 150.976 561.762 152.371 565.947 154.811C569.957 157.078 572.223 160.041 572.223 163.18C572.223 166.143 569.957 169.281 565.947 171.548C561.588 173.988 555.66 175.383 549.732 175.383Z" fill="#FFE045"/>
<path d="M543.106 168.235L540.142 170.153L538.05 168.758L540.84 166.841C538.922 165.446 537.876 163.877 537.876 162.657L541.712 161.436C541.886 162.482 542.583 163.703 543.978 164.749L547.814 162.134C546.07 160.565 544.501 158.821 547.465 156.903C549.732 155.509 553.044 154.986 556.706 156.206L558.798 154.811L561.065 155.683L558.972 157.078C560.542 157.949 561.936 158.821 562.634 160.042L558.798 161.436C558.101 160.39 557.229 159.693 556.183 158.995L552.521 161.436C554.614 163.005 556.706 165.097 553.393 167.538C551.127 169.456 547.117 169.979 543.106 168.235ZM551.127 160.042L554.091 158.124C552.696 157.775 551.65 157.949 550.952 158.472C550.255 158.821 550.604 159.344 551.127 160.042ZM549.557 165.62C550.429 165.097 550.081 164.4 549.557 163.703L546.245 165.969C547.64 166.318 548.86 166.143 549.557 165.62Z" fill="#F2A803"/>
<path d="M566.818 171.896C557.403 177.301 542.06 177.301 532.645 171.896C523.23 166.492 523.23 157.601 532.645 152.196C542.06 146.792 557.403 146.792 566.818 152.196C576.233 157.601 576.233 166.492 566.818 171.896Z" fill="#FFBE1D"/>
<path d="M566.818 168.41C557.403 173.814 542.06 173.814 532.645 168.41C523.23 163.005 523.23 154.114 532.645 148.71C542.06 143.305 557.403 143.305 566.818 148.71C576.233 154.288 576.233 163.005 566.818 168.41Z" fill="#FFCF59"/>
<path d="M549.732 170.85C543.629 170.85 537.702 169.456 533.517 167.015C529.507 164.749 527.24 161.785 527.24 158.647C527.24 155.683 529.507 152.545 533.517 150.279C537.702 147.838 543.629 146.443 549.732 146.443C555.834 146.443 561.762 147.838 565.947 150.279C569.957 152.545 572.223 155.509 572.223 158.647C572.223 161.611 569.957 164.749 565.947 167.015C561.588 169.456 555.66 170.85 549.732 170.85Z" fill="#FFE045"/>
<path d="M543.106 163.528L540.142 165.446L538.05 164.051L540.84 162.134C538.922 160.739 537.876 159.17 537.876 157.949L541.712 156.729C541.886 157.775 542.583 158.995 543.978 160.041L547.814 157.426C546.07 155.857 544.501 154.114 547.465 152.196C549.732 150.802 553.044 150.279 556.706 151.499L558.798 150.104L561.065 150.976L558.972 152.371C560.542 153.242 561.936 154.114 562.634 155.334L558.798 156.729C558.101 155.683 557.229 154.986 556.183 154.288L552.521 156.729C554.614 158.298 556.706 160.39 553.393 162.831C551.127 164.923 547.117 165.446 543.106 163.528ZM551.127 155.334L554.091 153.417C552.696 153.068 551.65 153.242 550.952 153.765C550.255 154.288 550.604 154.811 551.127 155.334ZM549.557 161.087C550.429 160.564 550.081 159.867 549.557 159.17L546.245 161.436C547.64 161.785 548.86 161.61 549.557 161.087Z" fill="#F2A803"/>
<path d="M566.818 167.364C557.403 172.768 542.06 172.768 532.645 167.364C523.23 161.959 523.23 153.068 532.645 147.664C542.06 142.259 557.403 142.259 566.818 147.664C576.233 153.068 576.233 161.785 566.818 167.364Z" fill="#FFBE1D"/>
<path d="M566.818 163.877C557.403 169.281 542.06 169.281 532.645 163.877C523.23 158.472 523.23 149.581 532.645 144.177C542.06 138.772 557.403 138.772 566.818 144.177C576.233 149.581 576.233 158.472 566.818 163.877Z" fill="#FFCF59"/>
<path d="M549.732 166.318C543.629 166.318 537.702 164.923 533.517 162.482C529.507 160.216 527.24 157.252 527.24 154.114C527.24 151.15 529.507 148.012 533.517 145.746C537.702 143.305 543.629 141.91 549.732 141.91C555.834 141.91 561.762 143.305 565.947 145.746C569.957 148.012 572.223 150.976 572.223 154.114C572.223 157.078 569.957 160.216 565.947 162.482C561.588 164.923 555.66 166.318 549.732 166.318Z" fill="#FFE045"/>
<path d="M543.106 158.995L540.142 160.913L538.05 159.518L540.84 157.601C538.922 156.206 537.876 154.637 537.876 153.417L541.712 152.196C541.886 153.242 542.583 154.463 543.978 155.509L547.814 152.894C546.07 151.325 544.501 149.581 547.465 147.664C549.732 146.269 553.044 145.746 556.706 146.966L558.798 145.571L561.413 146.443L559.321 147.838C560.89 148.71 562.285 149.581 562.983 150.802L559.147 152.196C558.449 151.15 557.578 150.453 556.532 149.756L552.87 152.196C554.962 153.765 557.055 155.857 553.742 158.298C551.127 160.216 547.117 160.913 543.106 158.995ZM551.127 150.802L554.091 148.884C552.696 148.535 551.65 148.71 550.952 149.233C550.255 149.581 550.604 150.279 551.127 150.802ZM549.557 156.555C550.429 156.032 550.081 155.334 549.557 154.637L546.245 156.903C547.64 157.252 548.86 157.078 549.557 156.555Z" fill="#F2A803"/>
<path d="M566.818 162.657C557.403 168.061 542.06 168.061 532.645 162.657C523.23 157.252 523.23 148.361 532.645 142.956C542.06 137.552 557.403 137.552 566.818 142.956C576.233 148.535 576.233 157.252 566.818 162.657Z" fill="#FFBE1D"/>
<path d="M566.818 159.344C557.403 164.749 542.06 164.749 532.645 159.344C523.23 153.94 523.23 145.048 532.645 139.644C542.06 134.24 557.403 134.24 566.818 139.644C576.233 145.048 576.233 153.94 566.818 159.344Z" fill="#FFCF59"/>
<path d="M549.732 161.611C543.629 161.611 537.702 160.216 533.517 157.775C529.507 155.509 527.24 152.545 527.24 149.407C527.24 146.443 529.507 143.305 533.517 141.039C537.702 138.598 543.629 137.203 549.732 137.203C555.834 137.203 561.762 138.598 565.947 141.039C569.957 143.305 572.223 146.269 572.223 149.407C572.223 152.371 569.957 155.509 565.947 157.775C561.588 160.216 555.66 161.611 549.732 161.611Z" fill="#FFE045"/>
<path d="M543.106 154.463L540.142 156.38L538.05 154.986L540.84 153.068C538.922 151.673 537.876 150.104 537.876 148.884L541.712 147.663C541.886 148.71 542.583 149.93 543.978 150.976L547.814 148.361C546.07 146.792 544.501 145.048 547.465 143.131C549.732 141.736 553.044 141.213 556.706 142.433L558.798 141.039L561.065 141.91L558.972 143.305C560.542 144.177 561.936 145.048 562.634 146.269L558.798 147.663C558.101 146.617 557.229 145.92 556.183 145.223L552.521 147.663C554.614 149.233 556.706 151.325 553.393 153.765C551.127 155.683 547.117 156.206 543.106 154.463ZM551.127 146.269L554.091 144.351C552.696 144.002 551.65 144.177 550.952 144.7C550.255 145.048 550.604 145.571 551.127 146.269ZM549.557 152.022C550.429 151.499 550.081 150.802 549.557 150.104L546.245 152.371C547.64 152.719 548.86 152.545 549.557 152.022Z" fill="#F2A803"/>
<path opacity="0.15" d="M356.027 501.394C354.806 499.301 352.191 498.43 348.704 498.43C350.099 497.035 349.75 495.117 347.658 493.897L307.208 470.536C304.767 469.141 300.583 469.141 298.142 470.536L257.692 493.897C255.251 495.292 255.251 497.732 257.692 499.127L298.142 522.488C300.583 523.883 304.767 523.883 307.208 522.488L308.777 521.617C307.208 524.58 306.685 527.195 307.906 529.287C311.044 534.692 324.295 532.774 337.545 525.103C350.796 517.433 359.165 506.798 356.027 501.394Z" fill="#6B99D1"/>
<path d="M347.658 443.862L307.208 420.501C304.767 419.106 300.583 419.106 298.142 420.501L257.692 443.862C255.251 445.257 255.251 447.698 257.692 449.092L298.142 472.454C300.583 473.848 304.767 473.848 307.208 472.454L347.658 449.092C350.273 447.523 350.273 445.257 347.658 443.862Z" fill="#DCEEFF"/>
<path d="M349.576 487.272C349.576 488.318 348.878 489.19 347.658 489.887L307.208 513.248C305.988 513.946 304.593 514.294 302.675 514.294V473.325C304.419 473.325 305.988 472.977 307.208 472.279L347.658 448.918C348.704 448.395 349.576 447.523 349.576 446.303V487.272Z" fill="#A5CBFA"/>
<path d="M255.774 487.272C255.774 488.318 256.472 489.19 257.692 489.887L298.142 513.248C299.362 513.946 300.757 514.294 302.675 514.294V473.325C300.932 473.325 299.362 472.977 298.142 472.279L257.692 448.918C256.646 448.395 255.774 447.523 255.774 446.303V487.272Z" fill="#C8E2FF"/>
<path opacity="0.15" d="M465.869 537.656L604.653 457.46C605.524 456.937 606.919 456.937 607.617 457.46L611.627 459.901C612.498 460.424 612.498 461.122 611.627 461.645L472.668 541.84C471.796 542.363 470.402 542.363 469.704 541.84L465.694 539.573C464.997 538.876 464.997 538.004 465.869 537.656Z" fill="#6B99D1"/>
<path d="M509.631 432.356C496.38 440.027 485.57 433.925 485.57 418.583C485.57 403.416 496.206 384.762 509.456 377.091C522.707 369.42 533.517 375.522 533.691 390.864C533.691 406.031 522.882 424.685 509.631 432.356ZM514.164 349.372L504.575 354.95C503.877 355.299 503.354 356.345 503.354 357.042V363.144C500.565 365.236 497.775 367.851 495.16 370.466L492.544 366.805C492.37 366.457 491.847 366.457 491.498 366.631C491.324 366.805 491.149 366.98 490.801 367.154L482.432 377.44C481.909 378.137 481.56 379.183 481.909 379.706L484.524 383.367C482.258 386.68 480.34 390.166 478.422 393.827L473.714 393.479C473.54 393.479 473.366 393.479 473.017 393.653C472.668 393.828 472.145 394.351 471.971 395.048L467.263 407.426C466.915 408.297 467.089 408.995 467.786 408.995L472.319 409.344C471.273 413.005 470.576 416.491 470.227 420.152L464.822 423.29C464.125 423.639 463.602 424.685 463.602 425.383V436.366C463.602 437.237 464.125 437.412 464.822 437.063L470.227 433.925C470.75 436.889 471.448 439.853 472.494 442.119L467.961 447.698C467.438 448.395 467.089 449.441 467.438 449.964L472.319 456.763C472.494 457.112 473.017 457.112 473.366 456.938C473.54 456.763 473.714 456.589 473.889 456.414L478.422 450.661C480.165 452.23 482.258 453.276 484.524 454.148L481.909 460.947C481.56 461.819 481.735 462.516 482.432 462.691L490.801 463.388C490.975 463.388 491.149 463.388 491.498 463.214C491.847 463.039 492.37 462.516 492.544 461.819L495.16 455.02C497.775 454.671 500.564 453.974 503.528 452.753V458.855C503.528 459.727 504.052 459.901 504.749 459.553L514.338 453.974C515.036 453.625 515.559 452.579 515.559 451.882V445.78C518.523 443.688 521.138 441.073 523.753 438.458L526.369 442.293C526.543 442.642 527.066 442.642 527.415 442.468C527.589 442.293 527.763 442.119 528.112 441.945L536.481 431.659C537.004 430.961 537.353 429.915 537.004 429.392L534.389 425.557C536.655 422.244 538.573 418.758 540.491 415.097L545.199 415.445C545.373 415.445 545.547 415.445 545.722 415.271C546.245 415.097 546.593 414.574 546.768 413.876L551.475 401.498C551.824 400.627 551.65 399.929 550.952 399.929L546.419 399.581C547.465 395.92 548.163 392.433 548.511 388.772L553.916 385.634C554.614 385.285 555.137 384.239 555.137 383.542V372.558C555.137 371.687 554.614 371.512 553.916 371.861L548.511 374.999C547.988 372.035 547.291 369.246 546.245 366.805L550.778 361.226C551.301 360.529 551.65 359.483 551.301 358.96L546.419 352.161C546.245 351.812 545.722 351.812 545.373 351.987C545.199 352.161 545.024 352.335 544.676 352.51L540.142 358.263C538.399 356.694 536.307 355.648 534.04 354.776L536.655 347.977C537.004 347.105 536.83 346.233 536.132 346.233L527.763 345.536C527.589 345.536 527.415 345.536 527.066 345.71C526.717 345.885 526.194 346.408 526.02 347.105L523.405 353.904C520.789 354.253 518 354.95 515.036 356.171V350.069C515.559 349.372 514.861 349.023 514.164 349.372Z" fill="#3B8BCC"/>
<path d="M522.359 352.335L515.036 349.372L503.703 355.996L510.851 359.134L522.359 352.335Z" fill="#3B8BCC"/>
<path d="M534.563 349.023L527.763 345.71L536.655 346.408L544.153 349.546L534.563 349.023Z" fill="#3B8BCC"/>
<path d="M546.245 351.987L553.568 354.95L547.64 361.401L541.014 357.565L546.245 351.987Z" fill="#3B8BCC"/>
<path d="M498.995 369.595L492.196 366.631L482.258 377.963L489.755 380.578L498.995 369.595Z" fill="#3B8BCC"/>
<path d="M467.786 408.995L475.109 411.959L477.027 406.031L469.007 403.939L467.786 408.995Z" fill="#3B8BCC"/>
<path d="M471.622 440.375L464.299 437.412L463.951 431.484L471.273 433.402L471.622 440.375Z" fill="#3B8BCC"/>
<path d="M472.843 457.46L480.165 460.424L477.724 453.799L472.494 453.451L472.843 457.46Z" fill="#3B8BCC"/>
<path d="M489.755 465.829L482.432 462.865L483.652 459.901L491.498 462.516L489.755 465.829Z" fill="#3B8BCC"/>
<path d="M511.549 463.039L504.052 460.076L504.749 458.507L512.072 455.891L511.549 463.039Z" fill="#3B8BCC"/>
<path d="M561.936 374.825L554.788 371.861L550.604 373.953L556.706 379.532L561.936 374.825Z" fill="#3B8BCC"/>
<path d="M534.214 445.78L526.892 442.816L530.03 437.935L537.178 443.165L534.214 445.78Z" fill="#3B8BCC"/>
<path d="M558.798 403.416L551.475 400.278L549.034 405.159L557.752 406.205L558.798 403.416Z" fill="#3B8BCC"/>
<path d="M516.954 435.32C503.703 442.991 492.893 436.889 492.893 421.547C492.893 406.38 503.529 387.726 516.779 380.055C530.03 372.384 540.84 378.486 541.014 393.828C541.014 408.995 530.204 427.649 516.954 435.32ZM521.487 352.335L511.897 357.914C511.2 358.263 510.677 359.309 510.677 360.006V366.108C507.887 368.2 505.098 370.815 502.482 373.43L499.867 369.769C499.693 369.42 499.17 369.42 498.821 369.595C498.647 369.769 498.472 369.943 498.124 370.118L489.755 380.404C489.232 381.101 488.883 382.147 489.232 382.67L491.847 386.331C489.58 389.643 487.663 393.13 485.745 396.791L481.037 396.443C480.863 396.443 480.688 396.443 480.34 396.617C479.991 396.791 479.468 397.314 479.294 398.012L474.586 410.39C474.237 411.261 474.412 411.959 475.109 411.959L479.642 412.307C478.596 415.968 477.899 419.455 477.55 423.116L472.145 426.254C471.448 426.603 470.925 427.649 470.925 428.346V439.329C470.925 440.201 471.448 440.376 472.145 440.027L477.55 436.889C478.073 439.853 478.771 442.816 479.817 445.083L475.284 450.661C474.76 451.359 474.412 452.405 474.76 452.928L479.642 459.727C479.817 460.076 480.34 460.076 480.688 459.901C480.863 459.727 481.037 459.553 481.211 459.378L485.745 453.625C487.488 455.194 489.58 456.24 491.847 457.112L489.232 463.911C488.883 464.783 489.057 465.48 489.755 465.654L498.124 466.352C498.298 466.352 498.472 466.352 498.821 466.177C499.17 466.003 499.693 465.48 499.867 464.783L502.482 457.984C505.098 457.635 507.887 456.938 510.851 455.717V461.819C510.851 462.691 511.374 462.865 512.072 462.516L521.661 456.938C522.359 456.589 522.882 455.543 522.882 454.845V448.744C525.671 446.652 528.461 444.037 531.076 441.422L533.691 445.257C533.866 445.606 534.389 445.606 534.738 445.431C534.912 445.257 535.086 445.083 535.435 444.908L543.804 434.622C544.327 433.925 544.676 432.879 544.327 432.356L541.712 428.521C543.978 425.208 545.896 421.721 547.814 418.06L552.521 418.409C552.696 418.409 552.87 418.409 553.045 418.235C553.568 418.06 553.916 417.537 554.091 416.84L558.798 404.462C559.147 403.59 558.973 402.893 558.275 402.893L553.742 402.544C554.788 398.883 555.485 395.397 555.834 391.735L561.239 388.597C561.936 388.249 562.46 387.203 562.46 386.505V375.522C562.46 374.65 561.936 374.476 561.239 374.825L555.834 377.963C555.311 374.999 554.614 372.21 553.568 369.769L558.101 364.19C558.624 363.493 558.972 362.447 558.624 361.924L553.742 355.125C553.568 354.776 553.045 354.776 552.696 354.95C552.521 355.125 552.347 355.299 551.998 355.473L547.465 361.226C545.722 359.657 543.63 358.611 541.363 357.74L543.978 350.941C544.327 350.069 544.153 349.197 543.455 349.197L535.086 348.5C534.912 348.5 534.738 348.5 534.389 348.674C534.04 348.849 533.517 349.372 533.343 350.069L530.727 356.868C528.112 357.217 525.323 357.914 522.359 359.134V353.033C522.882 352.335 522.184 351.987 521.487 352.335Z" fill="#67BAFF"/>
<path d="M577.454 446.477C568.039 451.882 560.367 447.523 560.367 436.714C560.367 425.906 567.864 412.656 577.454 407.251C586.869 401.847 594.54 406.205 594.54 417.014C594.54 427.823 586.869 441.073 577.454 446.477ZM580.766 387.551L573.967 391.561C573.444 391.91 573.095 392.433 573.095 393.13V397.489C571.003 399.058 569.085 400.801 567.167 402.719L565.249 400.104C565.075 399.929 564.726 399.929 564.552 400.104C564.377 400.104 564.203 400.278 564.029 400.452L558.101 407.774C557.752 408.297 557.578 408.995 557.752 409.344L559.67 411.959C558.101 414.399 556.706 416.84 555.311 419.455L551.998 419.281C551.824 419.281 551.65 419.281 551.475 419.455C551.127 419.629 550.952 419.978 550.778 420.327L547.291 429.044C547.116 429.567 547.291 430.264 547.64 430.264L550.952 430.613C550.255 433.228 549.732 435.668 549.383 438.283L545.547 440.55C545.024 440.899 544.676 441.422 544.676 442.119V449.964C544.676 450.487 545.024 450.836 545.547 450.487L549.383 448.221C549.732 450.313 550.255 452.405 550.952 454.148L547.64 458.158C547.291 458.681 547.116 459.378 547.291 459.727L550.778 464.608C550.952 464.783 551.301 464.783 551.65 464.608C551.824 464.608 551.998 464.434 551.998 464.26L555.311 460.25C556.531 461.296 558.101 462.168 559.67 462.691L557.752 467.572C557.578 468.269 557.578 468.792 558.101 468.792L564.029 469.316C564.203 469.316 564.377 469.316 564.552 469.141C564.9 468.967 565.075 468.618 565.249 468.269L567.167 463.388C569.085 463.214 571.003 462.691 573.095 461.819V466.177C573.095 466.7 573.444 467.049 573.967 466.7L580.766 462.691C581.289 462.342 581.638 461.819 581.638 461.122V456.763C583.73 455.194 585.648 453.451 587.566 451.533L589.484 454.148C589.658 454.323 590.007 454.323 590.181 454.148C590.356 454.148 590.53 453.974 590.704 453.799L596.632 446.477C596.981 445.954 597.156 445.257 596.981 444.908L595.063 442.293C596.632 439.853 598.027 437.412 599.422 434.797L602.735 435.145C602.909 435.145 603.083 435.145 603.083 434.971C603.432 434.797 603.781 434.448 603.955 433.925L607.442 425.208C607.617 424.685 607.442 423.988 607.094 423.988L603.781 423.639C604.478 421.024 605.001 418.583 605.35 415.968L609.186 413.702C609.709 413.353 610.058 412.83 610.058 412.133V404.288C610.058 403.765 609.709 403.416 609.186 403.765L605.35 406.031C605.001 403.939 604.478 401.847 603.781 400.104L607.094 396.094C607.442 395.571 607.617 394.874 607.442 394.525L603.955 389.643C603.781 389.469 603.432 389.469 603.258 389.643C603.083 389.643 602.909 389.818 602.735 389.992L599.422 394.002C598.202 392.956 596.632 392.084 595.063 391.561L596.981 386.68C597.156 385.982 597.156 385.459 596.632 385.459L590.704 384.936C590.53 384.936 590.356 384.936 590.181 385.111C589.833 385.285 589.658 385.634 589.484 385.982L587.566 390.864C585.648 391.212 583.73 391.735 581.638 392.433V388.074C581.638 387.551 581.115 387.203 580.766 387.551Z" fill="#3B8BCC"/>
<path d="M586.52 389.643L581.289 387.551L573.269 392.258L578.326 394.525L586.52 389.643Z" fill="#3B8BCC"/>
<path d="M595.063 387.377L590.356 384.936L596.632 385.459L601.863 387.551L595.063 387.377Z" fill="#3B8BCC"/>
<path d="M603.432 389.295L608.663 391.387L604.478 396.094L599.771 393.479L603.432 389.295Z" fill="#3B8BCC"/>
<path d="M569.957 401.847L564.9 399.755L557.926 407.774L563.331 409.692L569.957 401.847Z" fill="#3B8BCC"/>
<path d="M547.64 429.915L552.87 432.007L554.265 427.823L548.511 426.254L547.64 429.915Z" fill="#3B8BCC"/>
<path d="M550.429 452.23L545.199 450.138L544.85 445.954L550.081 447.349L550.429 452.23Z" fill="#3B8BCC"/>
<path d="M551.301 464.26L556.531 466.526L554.788 461.819L550.952 461.47L551.301 464.26Z" fill="#3B8BCC"/>
<path d="M563.331 470.361L558.101 468.269L558.972 466.177L564.552 467.921L563.331 470.361Z" fill="#3B8BCC"/>
<path d="M578.849 468.444L573.444 466.177L573.967 465.131L579.197 463.214L578.849 468.444Z" fill="#3B8BCC"/>
<path d="M614.591 405.682L609.535 403.59L606.57 404.985L610.929 408.995L614.591 405.682Z" fill="#3B8BCC"/>
<path d="M594.889 456.066L589.833 453.974L591.925 450.487L596.981 454.148L594.889 456.066Z" fill="#3B8BCC"/>
<path d="M612.324 425.906L607.094 423.813L605.35 427.126L611.627 427.823L612.324 425.906Z" fill="#3B8BCC"/>
<path d="M582.684 448.569C573.269 453.974 565.598 449.615 565.598 438.806C565.598 427.998 573.095 414.748 582.684 409.344C592.099 403.939 599.771 408.297 599.771 419.106C599.771 429.915 592.099 443.165 582.684 448.569ZM585.823 389.643L579.023 393.653C578.5 394.002 578.151 394.525 578.151 395.222V399.581C576.059 401.15 574.141 402.893 572.223 404.811L570.305 402.196C570.131 402.021 569.782 402.021 569.608 402.196C569.434 402.196 569.259 402.37 569.085 402.544L563.157 409.867C562.808 410.39 562.634 411.087 562.808 411.436L564.726 414.051C563.157 416.491 561.762 418.932 560.367 421.547L557.055 421.373C556.88 421.373 556.706 421.373 556.532 421.547C556.183 421.721 556.008 422.07 555.834 422.419L552.347 431.136C552.173 431.659 552.347 432.356 552.696 432.356L556.008 432.705C555.311 435.32 554.788 437.76 554.439 440.376L550.604 442.642C550.08 442.991 549.732 443.514 549.732 444.211V452.056C549.732 452.579 550.08 452.928 550.604 452.579L554.439 450.313C554.788 452.405 555.311 454.497 556.008 456.24L552.696 460.25C552.347 460.773 552.173 461.47 552.347 461.819L555.834 466.7C556.008 466.875 556.357 466.875 556.706 466.7C556.88 466.7 557.055 466.526 557.055 466.352L560.367 462.342C561.588 463.388 563.157 464.26 564.726 464.783L562.808 469.664C562.634 470.361 562.634 470.885 563.157 470.885L569.085 471.408C569.259 471.408 569.434 471.407 569.608 471.233C569.957 471.059 570.131 470.71 570.305 470.361L572.223 465.48C574.141 465.306 576.059 464.783 578.151 463.911V468.269C578.151 468.792 578.5 469.141 579.023 468.792L585.823 464.783C586.346 464.434 586.694 463.911 586.694 463.214V458.855C588.787 457.286 590.704 455.543 592.622 453.625L594.54 456.24C594.715 456.415 595.063 456.415 595.238 456.24C595.412 456.24 595.586 456.066 595.761 455.892L601.689 448.569C602.037 448.046 602.212 447.349 602.037 447L600.12 444.385C601.689 441.945 603.084 439.504 604.478 436.889L607.791 437.237C607.965 437.237 608.14 437.237 608.14 437.063C608.488 436.889 608.837 436.54 609.011 436.017L612.498 427.3C612.673 426.777 612.499 426.08 612.15 426.08L608.837 425.731C609.535 423.116 610.058 420.675 610.406 418.06L614.242 415.794C614.765 415.445 615.114 414.922 615.114 414.225V406.38C615.114 405.857 614.765 405.508 614.242 405.857L610.406 408.123C610.058 406.031 609.535 403.939 608.837 402.196L612.15 398.186C612.499 397.663 612.673 396.966 612.498 396.617L609.011 391.735C608.837 391.561 608.488 391.561 608.314 391.735C608.14 391.735 607.965 391.91 607.791 392.084L604.478 396.094C603.258 395.048 601.689 394.176 600.12 393.653L602.037 388.772C602.212 388.074 602.212 387.551 601.689 387.551L595.761 387.028C595.586 387.028 595.412 387.028 595.238 387.203C594.889 387.377 594.715 387.726 594.54 388.074L592.622 392.956C590.704 393.305 588.787 393.828 586.694 394.525V390.166C586.869 389.643 586.346 389.469 585.823 389.643Z" fill="#67BAFF"/>
</g>
<defs>
<radialGradient id="paint0_radial" cx="0" cy="0" r="1" gradientUnits="userSpaceOnUse" gradientTransform="translate(194.212 205.708) scale(942.776 942.696)">
<stop stop-color="#D0F8FF"/>
<stop offset="0.1202" stop-color="#CBF8FF"/>
<stop offset="0.2589" stop-color="#BDF7FF"/>
<stop offset="0.4068" stop-color="#A6F6FF"/>
<stop offset="0.5612" stop-color="#86F4FF"/>
<stop offset="0.7206" stop-color="#5CF2FF"/>
<stop offset="0.8818" stop-color="#2AEFFF"/>
<stop offset="1" stop-color="#00EDFF"/>
</radialGradient>
<linearGradient id="paint1_linear" x1="250.258" y1="292.569" x2="430.756" y2="292.569" gradientUnits="userSpaceOnUse">
<stop stop-color="#89A1FA"/>
<stop offset="0.3678" stop-color="#8CA4FA"/>
<stop offset="0.6752" stop-color="#97ADFC"/>
<stop offset="0.9601" stop-color="#A8BBFF"/>
<stop offset="1" stop-color="#ABBEFF"/>
</linearGradient>
<linearGradient id="paint2_linear" x1="340.437" y1="154.517" x2="340.437" y2="278.831" gradientUnits="userSpaceOnUse">
<stop stop-color="#7CF9FE" stop-opacity="0"/>
<stop offset="1" stop-color="#7CF9FE"/>
</linearGradient>
<clipPath id="clip0">
<rect width="639" height="572" fill="white"/>
</clipPath>
</defs>
</svg>
