<svg id="Layer_1" width="550"  data-name="Layer 1" xmlns="http://www.w3.org/2000/svg" xmlns:xlink="http://www.w3.org/1999/xlink" viewBox="0 0 623.73 567.55"><defs><style>.cls-1,.cls-21,.cls-24{fill:none;}.cls-2{fill:#93c2e5;opacity:0.2;}.cls-3{clip-path:url(#clip-path);}.cls-4,.cls-5{opacity:0.15;}.cls-5{fill:#6b99d1;}.cls-19,.cls-20,.cls-5{isolation:isolate;}.cls-6{fill:#c8e2ff;}.cls-7{fill:#a5cbfa;}.cls-8{fill:#dceeff;}.cls-9{fill:#ffbe1d;}.cls-10{fill:#ffcf59;}.cls-11{fill:#ffe045;}.cls-12{fill:#f2a803;}.cls-13{fill:#5c77d1;}.cls-14{fill:#6d8ef9;}.cls-15{fill:url(#linear-gradient);}.cls-16{fill:#bfcfff;}.cls-17{fill:#a2d4ff;}.cls-18{fill:#6cffe6;}.cls-19{fill:#daffff;opacity:0.59;}.cls-20{opacity:0.5;fill:url(#linear-gradient-2);}.cls-21{stroke:#7cf9fe;}.cls-21,.cls-24{stroke-miterlimit:10;}.cls-22{fill:#eacab9;}.cls-23{fill:#7cf9fe;}.cls-24{stroke:#ffe045;stroke-width:2px;}.cls-25{fill:#3b8bcc;}.cls-26{fill:#67baff;}</style><clipPath id="clip-path" transform="translate(-3.26 -0.37)"><rect class="cls-1" width="639" height="572"/></clipPath><linearGradient id="linear-gradient" x1="-36.63" y1="415.33" x2="144" y2="415.33" gradientTransform="matrix(1, 0, 0, -1, 287, 707.87)" gradientUnits="userSpaceOnUse"><stop offset="0" stop-color="#89a1fa"/><stop offset="0.37" stop-color="#8ca4fa"/><stop offset="0.68" stop-color="#97adfc"/><stop offset="0.96" stop-color="#a8bbff"/><stop offset="1" stop-color="#abbeff"/></linearGradient><linearGradient id="linear-gradient-2" x1="53.44" y1="553.35" x2="53.44" y2="429.04" gradientTransform="matrix(1, 0, 0, -1, 287, 707.87)" gradientUnits="userSpaceOnUse"><stop offset="0" stop-color="#7cf9fe" stop-opacity="0"/><stop offset="1" stop-color="#7cf9fe"/></linearGradient></defs><title>Untitled-3</title><path class="cls-2" d="M54.38,264.14c74.89-63.81,173.18-62.6,255.29-15.69S479,140.19,567.85,184.71C628.47,215.11,647.08,339.31,602,411c-61.27,97.38-329.88,148.59-389.38,155.5-68.56,7.95-129.13-17.41-164.88-60.85C-38.38,400.91,21.29,292.35,54.38,264.14Z" transform="translate(-3.26 -0.37)"/><g class="cls-3"><g class="cls-4"><g class="cls-4"><path class="cls-5" d="M395.26,211.3l54.57-31.73,52.48,30.33-54.57,31.73Z" transform="translate(-3.26 -0.37)"/></g></g><path class="cls-6" d="M447.74,171.37l-.18,60.32-52.48-30.16.18-60.49Z" transform="translate(-3.26 -0.37)"/><path class="cls-7" d="M447.74,171.37l54.57-31.73-.18,60.5-54.57,31.55Z" transform="translate(-3.26 -0.37)"/><path class="cls-8" d="M395.26,141l54.57-31.73,52.48,30.33-54.57,31.73Z" transform="translate(-3.26 -0.37)"/><path class="cls-9" d="M466,151.15c-9.41,5.4-24.75,5.4-34.17,0s-9.42-14.3,0-19.7,24.76-5.4,34.17,0S475.46,145.75,466,151.15Z" transform="translate(-3.26 -0.37)"/><path class="cls-10" d="M466,147.84c-9.41,5.4-24.75,5.4-34.17,0s-9.42-14.3,0-19.7,24.76-5.41,34.17,0S475.46,142.26,466,147.84Z" transform="translate(-3.26 -0.37)"/><path class="cls-11" d="M449,150.1c-6.11,0-12-1.39-16.22-3.83-4-2.27-6.28-5.23-6.28-8.37,0-3,2.27-6.1,6.28-8.37,4.19-2.44,10.11-3.83,16.22-3.83s12,1.39,16.21,3.83c4,2.27,6.28,5.23,6.28,8.37,0,3-2.27,6.1-6.28,8.37A33.76,33.76,0,0,1,449,150.1Z" transform="translate(-3.26 -0.37)"/><path class="cls-12" d="M442.33,143l-3,1.91-2.1-1.39,2.79-1.92c-1.91-1.39-3-3-3-4.18l3.84-1.22a5.45,5.45,0,0,0,2.26,3.31l3.84-2.62c-1.74-1.56-3.31-3.31-.35-5.22a11,11,0,0,1,9.24-.7l2.09-1.4,2.27.87-2.09,1.4a9.12,9.12,0,0,1,3.66,3l-3.84,1.4a8.57,8.57,0,0,0-2.61-2.44l-3.66,2.44c2.09,1.57,4.18,3.66.87,6.1C450.53,144.18,446.34,144.7,442.33,143Zm8.2-8.2,3-1.91a3.65,3.65,0,0,0-3.14.34C449.65,133.54,449.83,134.07,450.53,134.76Zm-1.75,5.58c.87-.52.52-1.22,0-1.92l-3.31,2.27A4,4,0,0,0,448.78,140.34Z" transform="translate(-3.26 -0.37)"/><path class="cls-9" d="M466,146.62c-9.41,5.4-24.75,5.4-34.17,0s-9.42-14.3,0-19.7,24.76-5.41,34.17,0S475.46,141.21,466,146.62Z" transform="translate(-3.26 -0.37)"/><path class="cls-10" d="M466,143.13c-9.41,5.41-24.75,5.41-34.17,0s-9.42-14.29,0-19.7,24.76-5.4,34.17,0C475.46,129,475.46,137.73,466,143.13Z" transform="translate(-3.26 -0.37)"/><path class="cls-11" d="M449,145.57c-6.11,0-12-1.39-16.22-3.83-4-2.27-6.28-5.23-6.28-8.37,0-3,2.27-6.1,6.28-8.37,4.19-2.44,10.11-3.84,16.22-3.84s12,1.4,16.21,3.84c4,2.27,6.28,5.23,6.28,8.37,0,3-2.27,6.1-6.28,8.37A33.76,33.76,0,0,1,449,145.57Z" transform="translate(-3.26 -0.37)"/><path class="cls-12" d="M442.33,138.25l-3,1.92-2.1-1.4,2.79-1.92c-1.91-1.39-3-3-3-4.18l3.84-1.22a5.4,5.4,0,0,0,2.26,3.31l3.84-2.61c-1.74-1.57-3.31-3.31-.35-5.23a11,11,0,0,1,9.24-.7l2.09-1.4,2.27.88-2.09,1.39a9.21,9.21,0,0,1,3.66,3l-3.84,1.4a8.69,8.69,0,0,0-2.61-2.44l-3.66,2.44c2.09,1.57,4.18,3.66.87,6.1C450.53,139.64,446.34,140.17,442.33,138.25Zm8.2-8.2,3-1.91a3.62,3.62,0,0,0-3.14.35C449.65,129,449.83,129.53,450.53,130.05Zm-1.75,5.76c.87-.52.52-1.22,0-1.92l-3.31,2.27A4,4,0,0,0,448.78,135.81Z" transform="translate(-3.26 -0.37)"/><path class="cls-9" d="M466,142.09c-9.41,5.4-24.75,5.4-34.17,0s-9.42-14.3,0-19.7,24.76-5.41,34.17,0S475.46,136.51,466,142.09Z" transform="translate(-3.26 -0.37)"/><path class="cls-10" d="M466,138.6c-9.41,5.4-24.75,5.4-34.17,0s-9.42-14.3,0-19.7,24.76-5.41,34.17,0S475.46,133.19,466,138.6Z" transform="translate(-3.26 -0.37)"/><path class="cls-11" d="M449,141c-6.11,0-12-1.4-16.22-3.84-4-2.26-6.28-5.23-6.28-8.36,0-3,2.27-6.11,6.28-8.37,4.19-2.44,10.11-3.84,16.22-3.84s12,1.4,16.21,3.84c4,2.26,6.28,5.23,6.28,8.37,0,3-2.27,6.1-6.28,8.36A35.84,35.84,0,0,1,449,141Z" transform="translate(-3.26 -0.37)"/><path class="cls-12" d="M442.33,133.72l-3,1.91-2.1-1.39,2.79-1.92c-1.91-1.39-3-3-3-4.18l3.84-1.22a5.45,5.45,0,0,0,2.26,3.31l3.84-2.62c-1.74-1.56-3.31-3.31-.35-5.22a11,11,0,0,1,9.24-.7l2.09-1.4,2.27.87-2.09,1.4a9.12,9.12,0,0,1,3.66,3l-3.84,1.4a8.57,8.57,0,0,0-2.61-2.44l-3.66,2.44c2.09,1.57,4.18,3.66.87,6.1C450.53,134.94,446.34,135.63,442.33,133.72Zm8.2-8.2,3-1.91a3.65,3.65,0,0,0-3.14.34C449.65,124.3,449.83,124.82,450.53,125.52Zm-1.75,5.76c.87-.53.52-1.23,0-1.92l-3.31,2.27A4.09,4.09,0,0,0,448.78,131.28Z" transform="translate(-3.26 -0.37)"/><path class="cls-9" d="M466,137.38c-9.41,5.4-24.75,5.4-34.17,0s-9.42-14.3,0-19.7,24.76-5.41,34.17,0C475.46,123.26,475.46,132,466,137.38Z" transform="translate(-3.26 -0.37)"/><path class="cls-10" d="M466,134.07c-9.41,5.4-24.75,5.4-34.17,0s-9.42-14.3,0-19.71,24.76-5.4,34.17,0S475.46,128.66,466,134.07Z" transform="translate(-3.26 -0.37)"/><path class="cls-11" d="M449,136.33c-6.11,0-12-1.39-16.22-3.83-4-2.27-6.28-5.23-6.28-8.37,0-3,2.27-6.1,6.28-8.37,4.19-2.44,10.11-3.84,16.22-3.84s12,1.4,16.21,3.84c4,2.27,6.28,5.23,6.28,8.37,0,3-2.27,6.1-6.28,8.37A33.76,33.76,0,0,1,449,136.33Z" transform="translate(-3.26 -0.37)"/><path class="cls-12" d="M442.33,129.18l-3,1.92-2.1-1.39,2.79-1.92c-1.91-1.4-3-3-3-4.18l3.84-1.22a5.45,5.45,0,0,0,2.26,3.31l3.84-2.62c-1.74-1.57-3.31-3.31-.35-5.23a11,11,0,0,1,9.24-.7l2.09-1.39,2.27.87L458.2,118a9.12,9.12,0,0,1,3.66,3l-3.84,1.4a8.73,8.73,0,0,0-2.61-2.45l-3.66,2.45c2.09,1.56,4.18,3.66.87,6.1C450.53,130.4,446.34,130.93,442.33,129.18Zm8.2-8.19,3-1.92a3.65,3.65,0,0,0-3.14.35C449.65,119.77,449.83,120.29,450.53,121Zm-1.75,5.75c.87-.52.52-1.22,0-1.92l-3.31,2.27A4,4,0,0,0,448.78,126.74Z" transform="translate(-3.26 -0.37)"/><path class="cls-9" d="M466,132.85c-9.41,5.4-24.75,5.4-34.17,0s-9.42-14.3,0-19.71,24.76-5.4,34.17,0S475.46,127.44,466,132.85Z" transform="translate(-3.26 -0.37)"/><path class="cls-10" d="M466,129.53c-9.41,5.41-24.75,5.41-34.17,0s-9.42-14.29,0-19.7,24.76-5.4,34.17,0S475.46,124,466,129.53Z" transform="translate(-3.26 -0.37)"/><path class="cls-11" d="M449,131.8c-6.11,0-12-1.4-16.22-3.84-4-2.26-6.28-5.23-6.28-8.36,0-3,2.27-6.11,6.28-8.37,4.19-2.44,10.11-3.84,16.22-3.84s12,1.4,16.21,3.84c4,2.26,6.28,5.23,6.28,8.37,0,3-2.27,6.1-6.28,8.36A33.77,33.77,0,0,1,449,131.8Z" transform="translate(-3.26 -0.37)"/><path class="cls-12" d="M442.33,124.65l-3,1.92-2.1-1.4,2.79-1.91c-1.91-1.4-3-3-3-4.19l3.84-1.22a5.4,5.4,0,0,0,2.26,3.31l3.84-2.61c-1.74-1.57-3.31-3.31-.35-5.23a11,11,0,0,1,9.24-.7l2.09-1.39,2.27.87-2.09,1.39a9.14,9.14,0,0,1,3.66,3L458,117.85a8.82,8.82,0,0,0-2.61-2.44l-3.66,2.44c2.09,1.57,4.18,3.66.87,6.1C450.53,125.87,446.34,126.39,442.33,124.65Zm8.2-8.19,3-1.92a3.62,3.62,0,0,0-3.14.35C449.65,115.24,449.83,115.76,450.53,116.46ZM448.78,122c.87-.53.52-1.22,0-1.92l-3.31,2.27A4.09,4.09,0,0,0,448.78,122Z" transform="translate(-3.26 -0.37)"/><path class="cls-9" d="M466,128.31c-9.41,5.41-24.75,5.41-34.17,0s-9.42-14.29,0-19.7,24.76-5.4,34.17,0S475.46,122.91,466,128.31Z" transform="translate(-3.26 -0.37)"/><path class="cls-10" d="M466,124.82c-9.41,5.41-24.75,5.41-34.17,0s-9.42-14.29,0-19.69,24.76-5.41,34.17,0C475.46,110.7,475.46,119.42,466,124.82Z" transform="translate(-3.26 -0.37)"/><path class="cls-11" d="M449,127.27c-6.11,0-12-1.4-16.22-3.84-4-2.27-6.28-5.23-6.28-8.37,0-3,2.27-6.1,6.28-8.37,4.19-2.44,10.11-3.83,16.22-3.83s12,1.39,16.21,3.83c4,2.27,6.28,5.23,6.28,8.37,0,3-2.27,6.1-6.28,8.37A33.77,33.77,0,0,1,449,127.27Z" transform="translate(-3.26 -0.37)"/><path class="cls-12" d="M442.33,119.94l-3,2.1-2.1-1.4,2.79-1.92c-1.91-1.39-3-3-3-4.18l3.84-1.22a5.42,5.42,0,0,0,2.26,3.31L447,114c-1.74-1.57-3.31-3.32-.35-5.23a11,11,0,0,1,9.24-.7l2.09-1.4,2.27.88L458.2,109a9.12,9.12,0,0,1,3.66,3l-3.84,1.4a8.69,8.69,0,0,0-2.61-2.44l-3.66,2.44c2.09,1.57,4.18,3.66.87,6.1C450.53,121.34,446.34,121.86,442.33,119.94Zm8.2-8.19,3-1.92a3.65,3.65,0,0,0-3.14.35C449.65,110.7,449.83,111.23,450.53,111.75Zm-1.75,5.75c.87-.52.52-1.22,0-1.91l-3.31,2.26A4,4,0,0,0,448.78,117.5Z" transform="translate(-3.26 -0.37)"/><path class="cls-9" d="M466,123.78c-9.41,5.4-24.75,5.4-34.17,0s-9.42-14.3,0-19.7,24.76-5.41,34.17,0S475.46,118.2,466,123.78Z" transform="translate(-3.26 -0.37)"/><path class="cls-10" d="M466,120.29c-9.41,5.41-24.75,5.41-34.17,0s-9.42-14.29,0-19.7,24.76-5.4,34.17,0S475.46,114.89,466,120.29Z" transform="translate(-3.26 -0.37)"/><path class="cls-11" d="M449,122.73c-6.11,0-12-1.39-16.22-3.83-4-2.27-6.28-5.23-6.28-8.37,0-3,2.27-6.1,6.28-8.37,4.19-2.44,10.11-3.83,16.22-3.83s12,1.39,16.21,3.83c4,2.27,6.28,5.23,6.28,8.37,0,3-2.27,6.1-6.28,8.37A36,36,0,0,1,449,122.73Z" transform="translate(-3.26 -0.37)"/><path class="cls-12" d="M442.33,115.41l-3,1.92-2.1-1.4,2.79-1.91c-1.91-1.4-3-3-3-4.19l3.84-1.22a5.4,5.4,0,0,0,2.26,3.31l3.84-2.61c-1.74-1.57-3.31-3.31-.35-5.23a11,11,0,0,1,9.24-.7L458,102l2.27.87-2.09,1.39a9.22,9.22,0,0,1,3.66,3L458,108.61a8.82,8.82,0,0,0-2.61-2.44l-3.66,2.44c2.09,1.57,4.18,3.66.87,6.1C450.53,116.63,446.34,117.33,442.33,115.41Zm8.2-8.19,3-1.92a3.65,3.65,0,0,0-3.14.35C449.65,106,449.83,106.52,450.53,107.22ZM448.78,113c.87-.52.52-1.22,0-1.92l-3.31,2.27A4,4,0,0,0,448.78,113Z" transform="translate(-3.26 -0.37)"/><path class="cls-9" d="M466,119.07c-9.41,5.41-24.75,5.41-34.17,0s-9.42-14.29,0-19.7,24.76-5.4,34.17,0C475.46,105,475.46,113.67,466,119.07Z" transform="translate(-3.26 -0.37)"/><path class="cls-10" d="M466,115.76c-9.41,5.4-24.75,5.4-34.17,0s-9.42-14.3,0-19.7,24.76-5.4,34.17,0S475.46,110.36,466,115.76Z" transform="translate(-3.26 -0.37)"/><path class="cls-11" d="M449,118c-6.11,0-12-1.4-16.22-3.84-4-2.27-6.28-5.23-6.28-8.37,0-3,2.27-6.1,6.28-8.37,4.19-2.44,10.11-3.83,16.22-3.83s12,1.39,16.21,3.83c4,2.27,6.28,5.23,6.28,8.37,0,3-2.27,6.1-6.28,8.37A33.77,33.77,0,0,1,449,118Z" transform="translate(-3.26 -0.37)"/><path class="cls-12" d="M442.33,110.88l-3,1.92-2.1-1.4,2.79-1.92c-1.91-1.39-3-3-3-4.18l3.84-1.22a5.4,5.4,0,0,0,2.26,3.31l3.84-2.61c-1.74-1.57-3.31-3.32-.35-5.23a11,11,0,0,1,9.24-.7l2.09-1.4,2.27.88-2.09,1.39a9.12,9.12,0,0,1,3.66,3l-3.84,1.4a8.69,8.69,0,0,0-2.61-2.44l-3.66,2.44c2.09,1.57,4.18,3.66.87,6.1C450.53,112.1,446.34,112.62,442.33,110.88Zm8.2-8.2,3-1.91a3.62,3.62,0,0,0-3.14.35C449.65,101.46,449.83,102,450.53,102.68Zm-1.75,5.76c.87-.52.52-1.22,0-1.92l-3.31,2.27A4,4,0,0,0,448.78,108.44Z" transform="translate(-3.26 -0.37)"/><path class="cls-9" d="M466,114.54c-9.41,5.4-24.75,5.4-34.17,0s-9.42-14.3,0-19.7,24.76-5.41,34.17,0S475.46,109.14,466,114.54Z" transform="translate(-3.26 -0.37)"/><path class="cls-10" d="M466,111.23c-9.41,5.4-24.75,5.4-34.17,0s-9.42-14.3,0-19.7,24.76-5.41,34.17,0S475.46,105.65,466,111.23Z" transform="translate(-3.26 -0.37)"/><path class="cls-11" d="M449,113.49c-6.11,0-12-1.39-16.22-3.83-4-2.27-6.28-5.23-6.28-8.37,0-3,2.27-6.1,6.28-8.37,4.19-2.44,10.11-3.83,16.22-3.83s12,1.39,16.21,3.83c4,2.27,6.28,5.23,6.28,8.37,0,3-2.27,6.1-6.28,8.37A33.76,33.76,0,0,1,449,113.49Z" transform="translate(-3.26 -0.37)"/><path class="cls-12" d="M442.33,106.35l-3,1.91-2.1-1.39,2.79-1.92c-1.91-1.39-3-3-3-4.18l3.84-1.22a5.45,5.45,0,0,0,2.26,3.31l3.84-2.62c-1.74-1.57-3.31-3.31-.35-5.23a11,11,0,0,1,9.24-.69l2.09-1.4,2.27.87-2.09,1.4a9.12,9.12,0,0,1,3.66,3L458,99.55a8.57,8.57,0,0,0-2.61-2.44l-3.66,2.44c2.09,1.57,4.18,3.66.87,6.1C450.53,107.57,446.34,108.09,442.33,106.35Zm8.2-8.2,3-1.92a3.68,3.68,0,0,0-3.14.35C449.65,96.93,449.83,97.45,450.53,98.15Zm-1.75,5.58c.87-.52.52-1.22,0-1.92l-3.31,2.27A4,4,0,0,0,448.78,103.73Z" transform="translate(-3.26 -0.37)"/><path class="cls-9" d="M466,110c-9.41,5.4-24.75,5.4-34.17,0s-9.42-14.3,0-19.7,24.76-5.41,34.17,0S475.46,104.6,466,110Z" transform="translate(-3.26 -0.37)"/><path class="cls-10" d="M466,106.52c-9.41,5.4-24.75,5.4-34.17,0s-9.42-14.3,0-19.7,24.76-5.4,34.17,0C475.46,92.4,475.46,101.12,466,106.52Z" transform="translate(-3.26 -0.37)"/><path class="cls-11" d="M449,109c-6.11,0-12-1.39-16.22-3.83-4-2.27-6.28-5.23-6.28-8.37,0-3,2.27-6.1,6.28-8.37,4.19-2.44,10.11-3.84,16.22-3.84s12,1.4,16.21,3.84c4,2.27,6.28,5.23,6.28,8.37,0,3-2.27,6.1-6.28,8.37A33.76,33.76,0,0,1,449,109Z" transform="translate(-3.26 -0.37)"/><path class="cls-12" d="M442.33,101.64l-3,1.92-2.1-1.4,2.79-1.92c-1.91-1.39-3-3-3-4.18l3.84-1.22a5.4,5.4,0,0,0,2.26,3.31L447,95.54c-1.74-1.57-3.31-3.32-.35-5.23a11,11,0,0,1,9.24-.7l2.09-1.4,2.27.88-2.09,1.39a9.12,9.12,0,0,1,3.66,3L458,94.84a8.69,8.69,0,0,0-2.61-2.44l-3.66,2.44c2.09,1.57,4.18,3.66.87,6.1C450.53,103,446.34,103.56,442.33,101.64Zm8.2-8.2,3-1.91a3.62,3.62,0,0,0-3.14.35C449.65,92.4,449.83,92.92,450.53,93.44Zm-1.75,5.76c.87-.53.52-1.22,0-1.92l-3.31,2.27A4,4,0,0,0,448.78,99.2Z" transform="translate(-3.26 -0.37)"/><path class="cls-5" d="M483.3,322.87h-8v2.79l-146.1-84.38a3.82,3.82,0,0,0-3.84,0L202.07,312.41v-4.88h-4.18V317a4,4,0,0,0,1.92,3.31l152.55,88.21a3.77,3.77,0,0,0,3.84,0l125.19-72.7a3.93,3.93,0,0,0,1.91-3.31Z" transform="translate(-3.26 -0.37)"/><path class="cls-13" d="M483.3,314.15h-8V317l-146.1-84.38a3.77,3.77,0,0,0-3.84,0L202.07,303.7v-4.89h-4.18v9.42a4,4,0,0,0,1.92,3.31l152.55,88.22a3.82,3.82,0,0,0,3.84,0l125.19-72.7a4,4,0,0,0,1.91-3.32Z" transform="translate(-3.26 -0.37)"/><path class="cls-14" d="M352.36,390.52,199.81,302.3a3.77,3.77,0,0,1,0-6.62l125.53-72.53a3.77,3.77,0,0,1,3.84,0L481.39,311a3.78,3.78,0,0,1,0,6.62L356.2,390.52A4.29,4.29,0,0,1,352.36,390.52Z" transform="translate(-3.26 -0.37)"/><path class="cls-15" d="M419.14,267.08a68.17,68.17,0,0,0-14.82-11.33c-35.22-20.4-92.4-20.4-127.62,0a69.13,69.13,0,0,0-14.82,11.33H250.37v25.46c0,13.25,8.89,26.67,26.5,36.78,35.22,20.4,92.41,20.4,127.63,0,17.61-10.11,26.5-23.53,26.5-36.78V267.08Z" transform="translate(-3.26 -0.37)"/><path class="cls-16" d="M276.7,233.44c-35.22,20.4-35.22,53.35,0,73.74s92.4,20.4,127.62,0,35.22-53.34,0-73.74S311.92,213,276.7,233.44Z" transform="translate(-3.26 -0.37)"/><path class="cls-17" d="M305.46,78.1a90.17,90.17,0,1,0,118,48.29A90.36,90.36,0,0,0,305.46,78.1Z" transform="translate(-3.26 -0.37)"/><path class="cls-18" d="M275.3,111.4c4.19,4,7.33-15.86,14.12-10.28-10.28,8.19-10.81,23.53-1.91,28.41,8.89,4.71,14.29-.17,14.29,3.66,2.1,7-2.61,12.21-6.62,16-10.46,11.33-1.4,14.12-2.62,23.19-1.22,10.11-6.45,27-6.1,37.13a3.73,3.73,0,0,0,6.8,2.1c6.28-8.72,10.29-12.73,20.75-21.1,9.59-7.5,15.86-15,17.61-25.63,1-13.07-33.48-13.94-21.45-29.11,4-3.66,13.25-11.68,3.84-18-7.67-5-7.5,14-14.3,4.54-4.18-9.94,6.28-15.7,14.65-17.26h1c7.5.52,13.25,7.32,21.62,5.92,6.11-.52,3.49-13.77,7.33-13.6,7.84-3.66,16.91,1.22,19.52-11,.53-3.49-1-7.15-2.44-11a4.31,4.31,0,0,0-2.79-2.44,90,90,0,0,0-71.31,15.69,2.82,2.82,0,0,0-1.22,1.57C283.67,96.23,271.29,107.57,275.3,111.4Z" transform="translate(-3.26 -0.37)"/><path class="cls-18" d="M422.63,126.74a26.33,26.33,0,0,1-4.88-2.61,3.6,3.6,0,0,0-5.58,1.92c-1.92,6.1-4.71,11.68-12.73,11.15a3.64,3.64,0,0,0-3.83,4.54c.17.52.34.87.69,1,5.93,7.15,6.45,17.09,1.75,18.48-7.68,3.31-12,2.62-16.22,6.63a3.67,3.67,0,0,0,2.27,6.27c8.89,1.05,18,3.14,26.85.87a4.41,4.41,0,0,0,1.91-1.22c.7-.87,1.75-1.74,2.62-2.61a3.83,3.83,0,0,1,5.75.52,4.24,4.24,0,0,1,.7,1.22,4.09,4.09,0,0,1,.35,1.92c-1.74,15.69-19.7,10.11-31.73,11.33-11.33,1.05-5.58,19.53-9.59,31.91a3.71,3.71,0,0,0,2.79,4.7c4.18.87,8.19.18,12.38-.35a3.81,3.81,0,0,1,4.18,4.71c-.17.87-.35,1.57-.52,2.44a90.53,90.53,0,0,0,25.45-100.76A9.09,9.09,0,0,0,422.63,126.74Z" transform="translate(-3.26 -0.37)"/><path class="cls-17" d="M423.67,126.39a88.81,88.81,0,0,0-32.42-39.57,80.6,80.6,0,0,1,11,19.35A90.3,90.3,0,0,1,268.15,215.65,90.25,90.25,0,0,0,375.2,244.6C421.41,225.07,443,172.24,423.67,126.39Z" transform="translate(-3.26 -0.37)"/><path class="cls-19" d="M319.63,134.69c11.47-14.86,12.79-33.06,2.95-40.65s-27.1-1.69-38.57,13.18-12.79,33.07-3,40.66S308.16,149.56,319.63,134.69Z" transform="translate(-3.26 -0.37)"/><path class="cls-20" d="M430.65,269V48.64H250.2V271.27h.17c.52,12.9,9.24,25.8,26.33,35.74,35.22,20.39,92.4,20.39,127.62,0C422.45,296.55,431.35,282.77,430.65,269Z" transform="translate(-3.26 -0.37)"/><path class="cls-21" d="M250.54,48.47c-2.26,14.81,6.45,30,26.16,41.31" transform="translate(-3.26 -0.37)"/><path class="cls-21" d="M276.7,16.21c-8.55,4.88-15.17,10.64-19.53,16.74" transform="translate(-3.26 -0.37)"/><path class="cls-21" d="M340.51.87a145,145,0,0,0-44.63,6.8" transform="translate(-3.26 -0.37)"/><path class="cls-21" d="M430.3,48.29c-1.92-11.68-10.46-23.19-26-32.08C392.64,9.59,378.69,5.06,363.87,2.79" transform="translate(-3.26 -0.37)"/><path class="cls-21" d="M412.69,84.38c7.5-5.75,12.73-12.2,15.52-19" transform="translate(-3.26 -0.37)"/><path class="cls-21" d="M306,101.12c28.42,6.8,61.54,4.88,87.17-5.76" transform="translate(-3.26 -0.37)"/><path class="cls-5" d="M20.57,462.52l138.79-80.2a3,3,0,0,1,3,0l4,2.44c.87.53.87,1.22,0,1.75l-139,80.19a3,3,0,0,1-3,0l-4-2.27C19.7,463.74,19.7,463,20.57,462.52Z" transform="translate(-3.26 -0.37)"/><path class="cls-13" d="M169,354.78,35.39,431.83l-5.75,3.31-6.8-4a3.54,3.54,0,0,1-1.57-2.62V288.18a3.43,3.43,0,0,1,.52-1.74A4.71,4.71,0,0,1,23,285l136-78.63a3,3,0,0,1,3,0l6.8,4Z" transform="translate(-3.26 -0.37)"/><path class="cls-13" d="M35.57,294.45V431.83l-5.76,3.31-6.8-4a3.53,3.53,0,0,1-1.56-2.62V288.18a3.34,3.34,0,0,1,.52-1.74Z" transform="translate(-3.26 -0.37)"/><path class="cls-14" d="M33,287.66,165.81,211c2.44-1.4,4.53-.35,4.53,2.61V350.42a10,10,0,0,1-4.53,7.84L33,435c-2.44,1.4-4.53.35-4.53-2.61V295.68A10.58,10.58,0,0,1,33,287.66Z" transform="translate(-3.26 -0.37)"/><path class="cls-22" d="M77.76,389.47,55.1,402.72V376.57l22.66-13.08Z" transform="translate(-3.26 -0.37)"/><path class="cls-6" d="M77.76,346.76v42.71l22.49-12.9V333.68Z" transform="translate(-3.26 -0.37)"/><path class="cls-17" d="M100.25,310.32v66.25l22.49-12.9.18-66.43Z" transform="translate(-3.26 -0.37)"/><path class="cls-23" d="M122.92,280l-.18,83.69,22.84-13.25V267.08Z" transform="translate(-3.26 -0.37)"/><path class="cls-24" d="M55.1,350.94l11.5-40.27L84,320.78l15.34-45,12.2,9.76,15.35-27.37" transform="translate(-3.26 -0.37)"/><path class="cls-11" d="M134.08,262.38l-15.52-8.54,15.87-9.24Z" transform="translate(-3.26 -0.37)"/><path class="cls-23" d="M55.1,290.27c0,1.4,1.22,1.75,2.78.87L83,276.67a5.56,5.56,0,0,0,2.79-4.18c0-1.4-1.22-1.74-2.79-.87L57.88,286.09A5.57,5.57,0,0,0,55.1,290.27Z" transform="translate(-3.26 -0.37)"/><path class="cls-5" d="M215.32,447.17c0,6.11-12.37,11.16-27.89,11.16-15.34,0-27.9-5.05-27.9-11.16S171.91,436,187.43,436,215.32,441.07,215.32,447.17Z" transform="translate(-3.26 -0.37)"/><g class="cls-4"><g class="cls-4"><path class="cls-5" d="M496,264.12l54.57-31.73,52.48,30.34-54.57,31.72Z" transform="translate(-3.26 -0.37)"/></g></g><path class="cls-6" d="M548.51,224.2l-.17,60.32-52.48-30.34.17-60.32Z" transform="translate(-3.26 -0.37)"/><path class="cls-7" d="M548.51,224.2l54.57-31.73-.17,60.32-54.57,31.73Z" transform="translate(-3.26 -0.37)"/><path class="cls-8" d="M496,193.86l54.57-31.73,52.48,30.34L548.51,224.2Z" transform="translate(-3.26 -0.37)"/><path class="cls-9" d="M566.82,204c-9.42,5.41-24.76,5.41-34.17,0s-9.42-14.29,0-19.7,24.75-5.4,34.17,0S576.23,198.4,566.82,204Z" transform="translate(-3.26 -0.37)"/><path class="cls-10" d="M566.82,200.49c-9.42,5.4-24.76,5.4-34.17,0s-9.42-14.3,0-19.7,24.75-5.41,34.17,0S576.23,195.08,566.82,200.49Z" transform="translate(-3.26 -0.37)"/><path class="cls-11" d="M549.73,202.93c-6.1,0-12-1.4-16.21-3.84-4-2.26-6.28-5.23-6.28-8.36,0-3,2.27-6.11,6.28-8.37,4.18-2.44,10.11-3.84,16.21-3.84s12,1.4,16.22,3.84c4,2.26,6.27,5.23,6.27,8.37,0,3-2.26,6.1-6.27,8.36A34.3,34.3,0,0,1,549.73,202.93Z" transform="translate(-3.26 -0.37)"/><path class="cls-12" d="M543.11,195.61l-3,1.91-2.09-1.39,2.79-1.92c-1.92-1.39-3-3-3-4.18l3.83-1.22a5.47,5.47,0,0,0,2.27,3.31l3.83-2.62c-1.74-1.57-3.31-3.31-.34-5.23a11,11,0,0,1,9.24-.69l2.09-1.4,2.27.87-2.1,1.4a9.05,9.05,0,0,1,3.66,3l-3.83,1.4a8.61,8.61,0,0,0-2.62-2.44l-3.66,2.44c2.09,1.57,4.19,3.66.87,6.1C551.13,196.83,547.12,197.52,543.11,195.61Zm8-8.2,3-1.92a3.68,3.68,0,0,0-3.14.35C550.26,186.19,550.6,186.89,551.13,187.41Zm-1.57,5.76c.87-.53.52-1.22,0-1.92l-3.32,2.26A4.07,4.07,0,0,0,549.56,193.17Z" transform="translate(-3.26 -0.37)"/><path class="cls-9" d="M566.82,199.27c-9.42,5.4-24.76,5.4-34.17,0s-9.42-14.3,0-19.7,24.75-5.41,34.17,0C576.23,185.15,576.23,193.86,566.82,199.27Z" transform="translate(-3.26 -0.37)"/><path class="cls-10" d="M566.82,196c-9.42,5.4-24.76,5.4-34.17,0s-9.42-14.3,0-19.7,24.75-5.41,34.17,0S576.23,190.55,566.82,196Z" transform="translate(-3.26 -0.37)"/><path class="cls-11" d="M549.73,198.22c-6.1,0-12-1.39-16.21-3.83-4-2.27-6.28-5.23-6.28-8.37,0-3,2.27-6.1,6.28-8.37,4.18-2.44,10.11-3.84,16.21-3.84s12,1.4,16.22,3.84c4,2.27,6.27,5.23,6.27,8.37,0,3-2.26,6.1-6.27,8.37A34.3,34.3,0,0,1,549.73,198.22Z" transform="translate(-3.26 -0.37)"/><path class="cls-12" d="M543.11,191.07l-3,1.92-2.09-1.39,2.79-1.92c-1.92-1.4-3-3-3-4.19l3.83-1.22a5.46,5.46,0,0,0,2.27,3.32l3.83-2.62c-1.74-1.57-3.31-3.31-.34-5.23a11,11,0,0,1,9.24-.7l2.09-1.39,2.27.87-2.1,1.4a9.05,9.05,0,0,1,3.66,3l-3.83,1.39a8.86,8.86,0,0,0-2.62-2.44l-3.66,2.44c2.09,1.57,4.19,3.66.87,6.11C551.13,192.29,547.12,192.82,543.11,191.07Zm8-8.19,3-1.92a3.65,3.65,0,0,0-3.14.35C550.26,181.66,550.6,182.18,551.13,182.88Zm-1.57,5.75c.87-.52.52-1.22,0-1.92L546.24,189A4,4,0,0,0,549.56,188.63Z" transform="translate(-3.26 -0.37)"/><path class="cls-9" d="M566.82,194.74c-9.42,5.4-24.76,5.4-34.17,0s-9.42-14.3,0-19.71,24.75-5.4,34.17,0S576.23,189.33,566.82,194.74Z" transform="translate(-3.26 -0.37)"/><path class="cls-10" d="M566.82,191.42c-9.42,5.41-24.76,5.41-34.17,0s-9.42-14.29,0-19.7,24.75-5.4,34.17,0S576.23,185.84,566.82,191.42Z" transform="translate(-3.26 -0.37)"/><path class="cls-11" d="M549.73,193.69c-6.1,0-12-1.4-16.21-3.84-4-2.26-6.28-5.23-6.28-8.36,0-3,2.27-6.11,6.28-8.37,4.18-2.44,10.11-3.84,16.21-3.84s12,1.4,16.22,3.84c4,2.26,6.27,5.23,6.27,8.37,0,3-2.26,6.1-6.27,8.36A34.3,34.3,0,0,1,549.73,193.69Z" transform="translate(-3.26 -0.37)"/><path class="cls-12" d="M543.11,186.54l-3,1.92-2.09-1.4,2.79-1.91c-1.92-1.4-3-3-3-4.19l3.83-1.22a5.42,5.42,0,0,0,2.27,3.31l3.83-2.61c-1.74-1.57-3.31-3.31-.34-5.23a11,11,0,0,1,9.24-.7l2.09-1.39,2.27.87-2.1,1.39a9.15,9.15,0,0,1,3.66,3l-3.83,1.39a8.86,8.86,0,0,0-2.62-2.44l-3.66,2.44c2.09,1.57,4.19,3.66.87,6.1C551.13,187.76,547.12,188.28,543.11,186.54Zm8-8.19,3-1.92a3.65,3.65,0,0,0-3.14.35C550.26,177.13,550.6,177.65,551.13,178.35Zm-1.57,5.58c.87-.53.52-1.22,0-1.92l-3.32,2.26A4.07,4.07,0,0,0,549.56,183.93Z" transform="translate(-3.26 -0.37)"/><path class="cls-9" d="M566.82,190.2c-9.42,5.41-24.76,5.41-34.17,0s-9.42-14.29,0-19.7,24.75-5.4,34.17,0S576.23,184.8,566.82,190.2Z" transform="translate(-3.26 -0.37)"/><path class="cls-10" d="M566.82,186.71c-9.42,5.41-24.76,5.41-34.17,0s-9.42-14.29,0-19.7,24.75-5.4,34.17,0C576.23,172.59,576.23,181.31,566.82,186.71Z" transform="translate(-3.26 -0.37)"/><path class="cls-11" d="M549.73,189.16c-6.1,0-12-1.4-16.21-3.84-4-2.27-6.28-5.23-6.28-8.37,0-3,2.27-6.1,6.28-8.37,4.18-2.44,10.11-3.83,16.21-3.83s12,1.39,16.22,3.83c4,2.27,6.27,5.23,6.27,8.37,0,3-2.26,6.1-6.27,8.37A34.3,34.3,0,0,1,549.73,189.16Z" transform="translate(-3.26 -0.37)"/><path class="cls-12" d="M543.11,181.83l-3,1.92-2.09-1.39,2.79-1.92c-1.92-1.4-3-3-3-4.18l3.83-1.23a5.46,5.46,0,0,0,2.27,3.32l3.83-2.62c-1.74-1.57-3.31-3.31-.34-5.23a11,11,0,0,1,9.24-.7l2.09-1.39,2.27.87-2.1,1.4a9.05,9.05,0,0,1,3.66,3L558.8,175a8.86,8.86,0,0,0-2.62-2.44L552.52,175c2.09,1.57,4.19,3.67.87,6.11C551.13,183.23,547.12,183.75,543.11,181.83Zm8-8.19,3-1.92a3.65,3.65,0,0,0-3.14.35C550.26,172.59,550.6,173.12,551.13,173.64Zm-1.57,5.75c.87-.52.52-1.22,0-1.91l-3.32,2.26A4,4,0,0,0,549.56,179.39Z" transform="translate(-3.26 -0.37)"/><path class="cls-9" d="M566.82,185.67c-9.42,5.4-24.76,5.4-34.17,0s-9.42-14.3,0-19.7,24.75-5.41,34.17,0S576.23,180.09,566.82,185.67Z" transform="translate(-3.26 -0.37)"/><path class="cls-10" d="M566.82,182.18c-9.42,5.41-24.76,5.41-34.17,0s-9.42-14.29,0-19.7,24.75-5.4,34.17,0S576.23,176.78,566.82,182.18Z" transform="translate(-3.26 -0.37)"/><path class="cls-11" d="M549.73,184.62c-6.1,0-12-1.39-16.21-3.83-4-2.27-6.28-5.23-6.28-8.37,0-3,2.27-6.1,6.28-8.37,4.18-2.44,10.11-3.83,16.21-3.83s12,1.39,16.22,3.83c4,2.27,6.27,5.23,6.27,8.37,0,3-2.26,6.1-6.27,8.37A34.3,34.3,0,0,1,549.73,184.62Z" transform="translate(-3.26 -0.37)"/><path class="cls-12" d="M543.11,177.3l-3,1.92-2.09-1.4,2.79-1.91c-1.92-1.4-3-3-3-4.19l3.83-1.22a5.42,5.42,0,0,0,2.27,3.31l3.83-2.61c-1.74-1.57-3.31-3.31-.34-5.23a11,11,0,0,1,9.24-.7l2.09-1.39,2.27.87-2.1,1.39a9.07,9.07,0,0,1,3.66,3l-3.83,1.39a8.86,8.86,0,0,0-2.62-2.44l-3.66,2.44c2.09,1.57,4.19,3.66.87,6.1C551.13,178.52,547.12,179.22,543.11,177.3Zm8-8.19,3-1.92a3.62,3.62,0,0,0-3.14.35C550.26,167.89,550.6,168.58,551.13,169.11Zm-1.57,5.75c.87-.52.52-1.22,0-1.92l-3.32,2.27A4.07,4.07,0,0,0,549.56,174.86Z" transform="translate(-3.26 -0.37)"/><path class="cls-9" d="M566.82,181c-9.42,5.41-24.76,5.41-34.17,0s-9.42-14.29,0-19.7,24.75-5.4,34.17,0C576.23,166.84,576.23,175.56,566.82,181Z" transform="translate(-3.26 -0.37)"/><path class="cls-10" d="M566.82,177.65c-9.42,5.4-24.76,5.4-34.17,0s-9.42-14.3,0-19.7,24.75-5.41,34.17,0S576.23,172.24,566.82,177.65Z" transform="translate(-3.26 -0.37)"/><path class="cls-11" d="M549.73,179.92c-6.1,0-12-1.4-16.21-3.84-4-2.27-6.28-5.23-6.28-8.37,0-3,2.27-6.1,6.28-8.37,4.18-2.44,10.11-3.83,16.21-3.83s12,1.39,16.22,3.83c4,2.27,6.27,5.23,6.27,8.37,0,3-2.26,6.1-6.27,8.37A34.3,34.3,0,0,1,549.73,179.92Z" transform="translate(-3.26 -0.37)"/><path class="cls-12" d="M543.11,172.77l-3,1.92-2.09-1.4,2.79-1.92c-1.92-1.39-3-3-3-4.18l3.83-1.22a5.44,5.44,0,0,0,2.27,3.31l3.83-2.61c-1.74-1.57-3.31-3.32-.34-5.23a11,11,0,0,1,9.24-.7l2.09-1.4,2.27.88-2.1,1.39a9.05,9.05,0,0,1,3.66,3L558.8,166a8.73,8.73,0,0,0-2.62-2.44L552.52,166c2.09,1.57,4.19,3.66.87,6.1C551.13,174,547.12,174.51,543.11,172.77Zm8-8.2,3-1.91A3.62,3.62,0,0,0,551,163C550.26,163.35,550.6,163.88,551.13,164.57Zm-1.57,5.76c.87-.53.52-1.22,0-1.92l-3.32,2.27A4.11,4.11,0,0,0,549.56,170.33Z" transform="translate(-3.26 -0.37)"/><path class="cls-9" d="M566.82,176.43c-9.42,5.4-24.76,5.4-34.17,0s-9.42-14.3,0-19.7,24.75-5.41,34.17,0S576.23,171,566.82,176.43Z" transform="translate(-3.26 -0.37)"/><path class="cls-10" d="M566.82,173.12c-9.42,5.4-24.76,5.4-34.17,0s-9.42-14.3,0-19.7,24.75-5.41,34.17,0S576.23,167.54,566.82,173.12Z" transform="translate(-3.26 -0.37)"/><path class="cls-11" d="M549.73,175.38c-6.1,0-12-1.39-16.21-3.83-4-2.27-6.28-5.23-6.28-8.37,0-3,2.27-6.1,6.28-8.37,4.18-2.44,10.11-3.83,16.21-3.83s12,1.39,16.22,3.83c4,2.27,6.27,5.23,6.27,8.37,0,3-2.26,6.1-6.27,8.37A34.3,34.3,0,0,1,549.73,175.38Z" transform="translate(-3.26 -0.37)"/><path class="cls-12" d="M543.11,168.24l-3,1.91-2.09-1.39,2.79-1.92c-1.92-1.39-3-3-3-4.18l3.83-1.22a5.47,5.47,0,0,0,2.27,3.31l3.83-2.62c-1.74-1.56-3.31-3.31-.34-5.23a11,11,0,0,1,9.24-.69l2.09-1.4,2.27.87-2.1,1.4a9.05,9.05,0,0,1,3.66,3l-3.83,1.4a8.76,8.76,0,0,0-2.62-2.45l-3.66,2.45c2.09,1.57,4.19,3.66.87,6.1C551.13,169.46,547.12,170,543.11,168.24Zm8-8.2,3-1.92a3.65,3.65,0,0,0-3.14.35C550.26,158.82,550.6,159.34,551.13,160Zm-1.57,5.58c.87-.52.52-1.22,0-1.92L546.24,166A4.07,4.07,0,0,0,549.56,165.62Z" transform="translate(-3.26 -0.37)"/><path class="cls-9" d="M566.82,171.9c-9.42,5.4-24.76,5.4-34.17,0s-9.42-14.3,0-19.7,24.75-5.41,34.17,0S576.23,166.49,566.82,171.9Z" transform="translate(-3.26 -0.37)"/><path class="cls-10" d="M566.82,168.41c-9.42,5.4-24.76,5.4-34.17,0s-9.42-14.3,0-19.7,24.75-5.41,34.17,0C576.23,154.29,576.23,163,566.82,168.41Z" transform="translate(-3.26 -0.37)"/><path class="cls-11" d="M549.73,170.85c-6.1,0-12-1.39-16.21-3.84-4-2.26-6.28-5.22-6.28-8.36,0-3,2.27-6.11,6.28-8.37,4.18-2.44,10.11-3.84,16.21-3.84s12,1.4,16.22,3.84c4,2.26,6.27,5.23,6.27,8.37,0,3-2.26,6.1-6.27,8.36A34.18,34.18,0,0,1,549.73,170.85Z" transform="translate(-3.26 -0.37)"/><path class="cls-12" d="M543.11,163.53l-3,1.92-2.09-1.4,2.79-1.92c-1.92-1.39-3-3-3-4.18l3.83-1.22A5.47,5.47,0,0,0,544,160l3.83-2.61c-1.74-1.57-3.31-3.32-.34-5.23a11,11,0,0,1,9.24-.7l2.09-1.4,2.27.88-2.1,1.39a9.05,9.05,0,0,1,3.66,3l-3.83,1.4a8.73,8.73,0,0,0-2.62-2.44l-3.66,2.44c2.09,1.57,4.19,3.66.87,6.1C551.13,164.92,547.12,165.45,543.11,163.53Zm8-8.2,3-1.91a3.65,3.65,0,0,0-3.14.34C550.26,154.29,550.6,154.81,551.13,155.33Zm-1.57,5.76c.87-.53.52-1.22,0-1.92l-3.32,2.27A4.07,4.07,0,0,0,549.56,161.09Z" transform="translate(-3.26 -0.37)"/><path class="cls-9" d="M566.82,167.36c-9.42,5.41-24.76,5.41-34.17,0s-9.42-14.29,0-19.7,24.75-5.4,34.17,0S576.23,161.79,566.82,167.36Z" transform="translate(-3.26 -0.37)"/><path class="cls-10" d="M566.82,163.88c-9.42,5.4-24.76,5.4-34.17,0s-9.42-14.3,0-19.7,24.75-5.41,34.17,0S576.23,158.47,566.82,163.88Z" transform="translate(-3.26 -0.37)"/><path class="cls-11" d="M549.73,166.32c-6.1,0-12-1.4-16.21-3.84-4-2.26-6.28-5.23-6.28-8.37,0-3,2.27-6.1,6.28-8.36,4.18-2.45,10.11-3.84,16.21-3.84s12,1.39,16.22,3.84c4,2.26,6.27,5.23,6.27,8.36,0,3-2.26,6.11-6.27,8.37A34.3,34.3,0,0,1,549.73,166.32Z" transform="translate(-3.26 -0.37)"/><path class="cls-12" d="M543.11,159l-3,1.92-2.09-1.39,2.79-1.92c-1.92-1.39-3-3-3-4.18l3.83-1.22a5.47,5.47,0,0,0,2.27,3.31l3.83-2.62c-1.74-1.57-3.31-3.31-.34-5.23a11,11,0,0,1,9.24-.69l2.09-1.4,2.61.87-2.09,1.4a9.12,9.12,0,0,1,3.66,3l-3.83,1.4a8.61,8.61,0,0,0-2.62-2.44l-3.66,2.44c2.09,1.56,4.18,3.66.87,6.1A10.32,10.32,0,0,1,543.11,159Zm8-8.19,3-1.92a3.68,3.68,0,0,0-3.14.35C550.26,149.58,550.6,150.28,551.13,150.8Zm-1.57,5.75c.87-.52.52-1.22,0-1.91l-3.32,2.26A4,4,0,0,0,549.56,156.55Z" transform="translate(-3.26 -0.37)"/><path class="cls-9" d="M566.82,162.66c-9.42,5.4-24.76,5.4-34.17,0s-9.42-14.3,0-19.7,24.75-5.41,34.17,0C576.23,148.54,576.23,157.25,566.82,162.66Z" transform="translate(-3.26 -0.37)"/><path class="cls-10" d="M566.82,159.34c-9.42,5.41-24.76,5.41-34.17,0s-9.42-14.29,0-19.7,24.75-5.4,34.17,0S576.23,153.94,566.82,159.34Z" transform="translate(-3.26 -0.37)"/><path class="cls-11" d="M549.73,161.61c-6.1,0-12-1.39-16.21-3.84-4-2.26-6.28-5.23-6.28-8.36,0-3,2.27-6.11,6.28-8.37,4.18-2.44,10.11-3.84,16.21-3.84s12,1.4,16.22,3.84c4,2.26,6.27,5.23,6.27,8.37,0,3-2.26,6.1-6.27,8.36A34.18,34.18,0,0,1,549.73,161.61Z" transform="translate(-3.26 -0.37)"/><path class="cls-12" d="M543.11,154.46l-3,1.92L538.05,155l2.79-1.92c-1.92-1.4-3-3-3-4.19l3.83-1.22A5.46,5.46,0,0,0,544,151l3.83-2.62c-1.74-1.57-3.31-3.31-.34-5.23a11,11,0,0,1,9.24-.7L558.8,141l2.27.87L559,143.3a9.15,9.15,0,0,1,3.66,3l-3.83,1.39a8.86,8.86,0,0,0-2.62-2.44l-3.66,2.44c2.09,1.57,4.19,3.66.87,6.1C551.13,155.68,547.12,156.21,543.11,154.46Zm8-8.19,3-1.92a3.65,3.65,0,0,0-3.14.35C550.26,145.05,550.6,145.57,551.13,146.27ZM549.56,152c.87-.52.52-1.22,0-1.92l-3.32,2.27A4.07,4.07,0,0,0,549.56,152Z" transform="translate(-3.26 -0.37)"/><path class="cls-5" d="M356,501.39c-1.22-2.09-3.84-3-7.33-3,1.4-1.39,1.05-3.31-1-4.53l-40.45-23.36a10.32,10.32,0,0,0-9.07,0L257.69,493.9c-2.44,1.39-2.44,3.83,0,5.23l40.45,23.36a10.39,10.39,0,0,0,9.07,0l1.57-.87c-1.57,3-2.1,5.58-.87,7.67,3.13,5.4,16.39,3.48,29.64-4.19S359.17,506.8,356,501.39Z" transform="translate(-3.26 -0.37)"/><path class="cls-8" d="M347.66,443.86,307.21,420.5a10.39,10.39,0,0,0-9.07,0l-40.45,23.36c-2.44,1.4-2.44,3.84,0,5.23l40.45,23.36a10.32,10.32,0,0,0,9.07,0l40.45-23.36C350.27,447.52,350.27,445.26,347.66,443.86Z" transform="translate(-3.26 -0.37)"/><path class="cls-7" d="M349.58,487.27a3.15,3.15,0,0,1-1.92,2.62l-40.45,23.36a8.72,8.72,0,0,1-4.54,1v-41a9.15,9.15,0,0,0,4.54-1.05l40.45-23.36a3.05,3.05,0,0,0,1.92-2.62Z" transform="translate(-3.26 -0.37)"/><path class="cls-6" d="M255.77,487.27a3.15,3.15,0,0,0,1.92,2.62l40.45,23.36a8.71,8.71,0,0,0,4.53,1v-41a9.14,9.14,0,0,1-4.53-1.05l-40.45-23.36a3.05,3.05,0,0,1-1.92-2.62Z" transform="translate(-3.26 -0.37)"/><path class="cls-5" d="M465.87,537.66l138.78-80.2a3,3,0,0,1,3,0l4,2.44c.87.52.87,1.22,0,1.74l-139,80.2a3,3,0,0,1-3,0l-4-2.27C465,538.88,465,538,465.87,537.66Z" transform="translate(-3.26 -0.37)"/><path class="cls-25" d="M509.63,432.36c-13.25,7.67-24.06,1.56-24.06-13.78,0-15.16,10.64-33.82,23.89-41.49s24.06-1.57,24.23,13.77C533.69,406,522.88,424.68,509.63,432.36Zm4.53-83L504.58,355a2.67,2.67,0,0,0-1.23,2.09v6.1a80.48,80.48,0,0,0-8.19,7.33l-2.62-3.67c-.17-.34-.69-.34-1-.17a2.49,2.49,0,0,1-.7.52l-8.37,10.29c-.52.7-.87,1.74-.52,2.27l2.61,3.66a104.06,104.06,0,0,0-6.1,10.46l-4.71-.35a1.33,1.33,0,0,0-.69.17,2.29,2.29,0,0,0-1,1.4l-4.71,12.38c-.34.87-.17,1.56.53,1.56l4.53.35a59.08,59.08,0,0,0-2.09,10.81l-5.41,3.14a2.67,2.67,0,0,0-1.22,2.09v11c0,.87.53,1,1.22.69l5.41-3.14a35.14,35.14,0,0,0,2.26,8.2L468,447.7c-.52.69-.87,1.74-.52,2.26l4.88,6.8c.17.35.7.35,1.05.18l.52-.53,4.53-5.75a19.28,19.28,0,0,0,6.1,3.49l-2.61,6.8c-.35.87-.18,1.57.52,1.74l8.37.7a1.28,1.28,0,0,0,.7-.18,2.23,2.23,0,0,0,1-1.39l2.62-6.8a33.69,33.69,0,0,0,8.37-2.27v6.11c0,.87.52,1,1.22.69l9.59-5.58a2.63,2.63,0,0,0,1.22-2.09v-6.1a64.89,64.89,0,0,0,8.19-7.32l2.62,3.83c.17.35.7.35,1,.18a2.31,2.31,0,0,1,.7-.52l8.37-10.29c.52-.7.87-1.74.52-2.27l-2.61-3.83a103.27,103.27,0,0,0,6.1-10.46l4.71.35a.62.62,0,0,0,.52-.18,1.83,1.83,0,0,0,1-1.39l4.7-12.38c.35-.87.18-1.57-.52-1.57l-4.53-.35a58.92,58.92,0,0,0,2.09-10.81l5.41-3.14a2.66,2.66,0,0,0,1.22-2.09v-11c0-.87-.53-1.05-1.22-.7L548.51,375a37.39,37.39,0,0,0-2.27-8.2l4.54-5.57c.52-.7.87-1.75.52-2.27l-4.88-6.8c-.18-.35-.7-.35-1-.17a2.62,2.62,0,0,1-.69.52l-4.54,5.75a19,19,0,0,0-6.1-3.48l2.62-6.8c.34-.87.17-1.75-.53-1.75l-8.37-.69a1.31,1.31,0,0,0-.69.17,2.29,2.29,0,0,0-1.05,1.4l-2.61,6.79a33.46,33.46,0,0,0-8.37,2.27v-6.1C515.56,349.37,514.86,349,514.16,349.37Z" transform="translate(-3.26 -0.37)"/><path class="cls-25" d="M522.36,352.33l-7.32-3L503.7,356l7.15,3.13Z" transform="translate(-3.26 -0.37)"/><path class="cls-25" d="M534.56,349l-6.8-3.31,8.9.7,7.49,3.14Z" transform="translate(-3.26 -0.37)"/><path class="cls-25" d="M546.24,352l7.33,3-5.93,6.45L541,357.57Z" transform="translate(-3.26 -0.37)"/><path class="cls-25" d="M499,369.6l-6.79-3L482.26,378l7.5,2.62Z" transform="translate(-3.26 -0.37)"/><path class="cls-25" d="M467.79,409l7.32,3L477,406l-8-2.09Z" transform="translate(-3.26 -0.37)"/><path class="cls-25" d="M471.62,440.38l-7.32-3-.35-5.93,7.32,1.92Z" transform="translate(-3.26 -0.37)"/><path class="cls-25" d="M472.84,457.46l7.33,3-2.45-6.62-5.23-.35Z" transform="translate(-3.26 -0.37)"/><path class="cls-25" d="M489.76,465.83l-7.33-3,1.22-3,7.85,2.62Z" transform="translate(-3.26 -0.37)"/><path class="cls-25" d="M511.55,463l-7.5-3,.7-1.57,7.32-2.62Z" transform="translate(-3.26 -0.37)"/><path class="cls-25" d="M561.94,374.83l-7.15-3L550.6,374l6.11,5.58Z" transform="translate(-3.26 -0.37)"/><path class="cls-25" d="M534.21,445.78l-7.32-3,3.14-4.89,7.15,5.24Z" transform="translate(-3.26 -0.37)"/><path class="cls-25" d="M558.8,403.42l-7.33-3.14L549,405.16l8.72,1Z" transform="translate(-3.26 -0.37)"/><path class="cls-26" d="M517,435.32c-13.25,7.67-24.06,1.57-24.06-13.77,0-15.17,10.64-33.82,23.89-41.5s24.06-1.56,24.23,13.78C541,409,530.2,427.65,517,435.32Zm4.54-83-9.59,5.58a2.66,2.66,0,0,0-1.22,2.1v6.1a80.44,80.44,0,0,0-8.2,7.32l-2.61-3.66c-.18-.35-.7-.35-1.05-.17a2.53,2.53,0,0,1-.7.52l-8.36,10.28c-.53.7-.88,1.75-.53,2.27l2.62,3.66a102.25,102.25,0,0,0-6.11,10.46l-4.7-.35a1.28,1.28,0,0,0-.7.18,2.27,2.27,0,0,0-1,1.39l-4.7,12.38c-.35.87-.18,1.57.52,1.57l4.53.35a59.6,59.6,0,0,0-2.09,10.81l-5.41,3.13a2.69,2.69,0,0,0-1.22,2.1v11c0,.87.53,1.05,1.22.7l5.41-3.14a34.56,34.56,0,0,0,2.27,8.19l-4.54,5.58c-.52.7-.87,1.74-.52,2.27l4.88,6.8c.18.35.7.35,1.05.17l.52-.52,4.53-5.75a19.39,19.39,0,0,0,6.11,3.48l-2.62,6.8c-.35.87-.17,1.57.53,1.74l8.36.7a1.35,1.35,0,0,0,.7-.17,2.32,2.32,0,0,0,1.05-1.4l2.61-6.8a33,33,0,0,0,8.37-2.26v6.1c0,.87.52,1,1.22.7l9.59-5.58a2.66,2.66,0,0,0,1.22-2.09v-6.11a79.26,79.26,0,0,0,8.2-7.32l2.61,3.84c.18.35.7.35,1,.17a2.42,2.42,0,0,1,.69-.52l8.37-10.29c.53-.7.88-1.74.53-2.26l-2.62-3.84a100.38,100.38,0,0,0,6.1-10.46l4.71.35a.61.61,0,0,0,.52-.18,1.77,1.77,0,0,0,1.05-1.39l4.71-12.38c.35-.87.17-1.57-.52-1.57l-4.54-.35a58.76,58.76,0,0,0,2.09-10.81l5.41-3.13a2.66,2.66,0,0,0,1.22-2.09v-11c0-.87-.52-1-1.22-.69L555.83,378a37.7,37.7,0,0,0-2.26-8.19l4.53-5.58c.52-.7.87-1.74.52-2.27l-4.88-6.79c-.17-.35-.7-.35-1-.18a2.31,2.31,0,0,1-.7.52l-4.53,5.76a19.22,19.22,0,0,0-6.11-3.49l2.62-6.8c.35-.87.17-1.74-.52-1.74l-8.37-.7a1.35,1.35,0,0,0-.7.17,2.32,2.32,0,0,0-1,1.4l-2.61,6.8a33.41,33.41,0,0,0-8.37,2.26V353C522.88,352.33,522.18,352,521.49,352.33Z" transform="translate(-3.26 -0.37)"/><path class="cls-25" d="M577.45,446.48c-9.41,5.4-17.08,1-17.08-9.77s7.49-24,17.08-29.46c9.42-5.4,17.09-1.05,17.09,9.76S586.87,441.07,577.45,446.48Zm3.32-58.93-6.8,4a1.82,1.82,0,0,0-.88,1.57v4.36a55.55,55.55,0,0,0-5.92,5.23l-1.92-2.62a.54.54,0,0,0-.7,0c-.17,0-.35.18-.52.35l-5.93,7.32a1.9,1.9,0,0,0-.35,1.57l1.92,2.62c-1.57,2.44-3,4.88-4.36,7.49l-3.31-.17a.67.67,0,0,0-.53.17,1.79,1.79,0,0,0-.69.88L547.29,429c-.17.53,0,1.22.35,1.22l3.31.35a61.77,61.77,0,0,0-1.57,7.67l-3.83,2.27a1.81,1.81,0,0,0-.87,1.57V450c0,.53.34.88.87.53l3.83-2.27a30.23,30.23,0,0,0,1.57,5.93l-3.31,4a1.89,1.89,0,0,0-.35,1.57l3.49,4.88a.79.79,0,0,0,.87,0,.38.38,0,0,0,.35-.35l3.31-4a13.25,13.25,0,0,0,4.36,2.44l-1.92,4.88c-.17.7-.17,1.22.35,1.22l5.93.53a.62.62,0,0,0,.52-.18,1.69,1.69,0,0,0,.7-.87l1.92-4.88a20.14,20.14,0,0,0,5.92-1.57v4.36c0,.52.35.87.88.52l6.8-4a1.84,1.84,0,0,0,.87-1.57v-4.36a55.64,55.64,0,0,0,5.93-5.23l1.91,2.62a.54.54,0,0,0,.7,0c.18,0,.35-.18.52-.35l5.93-7.32a1.86,1.86,0,0,0,.35-1.57l-1.92-2.62c1.57-2.44,3-4.88,4.36-7.49l3.31.34c.18,0,.35,0,.35-.17a1.78,1.78,0,0,0,.88-1.05l3.48-8.71c.18-.53,0-1.22-.35-1.22l-3.31-.35a60,60,0,0,0,1.57-7.67l3.84-2.27a1.84,1.84,0,0,0,.87-1.57v-7.84c0-.52-.35-.87-.87-.52L605.35,406a29.54,29.54,0,0,0-1.57-5.93l3.31-4a1.86,1.86,0,0,0,.35-1.57L604,389.64a.54.54,0,0,0-.7,0c-.18,0-.35.18-.53.35l-3.31,4a13.44,13.44,0,0,0-4.36-2.44l1.92-4.88c.18-.7.18-1.22-.35-1.22l-5.93-.52a.66.66,0,0,0-.52.17,1.78,1.78,0,0,0-.7.87l-1.91,4.88a42.56,42.56,0,0,0-5.93,1.57v-4.36C581.64,387.55,581.11,387.2,580.77,387.55Z" transform="translate(-3.26 -0.37)"/><path class="cls-25" d="M586.52,389.64l-5.23-2.09-8,4.71,5.06,2.26Z" transform="translate(-3.26 -0.37)"/><path class="cls-25" d="M595.06,387.38l-4.7-2.44,6.27.52,5.23,2.09Z" transform="translate(-3.26 -0.37)"/><path class="cls-25" d="M603.43,389.3l5.23,2.09-4.18,4.7-4.71-2.61Z" transform="translate(-3.26 -0.37)"/><path class="cls-25" d="M570,401.85l-5.06-2.09-7,8,5.4,1.92Z" transform="translate(-3.26 -0.37)"/><path class="cls-25" d="M547.64,429.92l5.23,2.09,1.4-4.19-5.76-1.57Z" transform="translate(-3.26 -0.37)"/><path class="cls-25" d="M550.43,452.23l-5.23-2.09-.35-4.19,5.23,1.4Z" transform="translate(-3.26 -0.37)"/><path class="cls-25" d="M551.3,464.26l5.23,2.27-1.74-4.71-3.84-.35Z" transform="translate(-3.26 -0.37)"/><path class="cls-25" d="M563.33,470.36l-5.23-2.09.87-2.09,5.58,1.74Z" transform="translate(-3.26 -0.37)"/><path class="cls-25" d="M578.85,468.44l-5.41-2.26.53-1.05,5.23-1.92Z" transform="translate(-3.26 -0.37)"/><path class="cls-25" d="M614.59,405.68l-5.06-2.09-3,1.39,4.36,4Z" transform="translate(-3.26 -0.37)"/><path class="cls-25" d="M594.89,456.07l-5.06-2.1,2.09-3.48,5.06,3.66Z" transform="translate(-3.26 -0.37)"/><path class="cls-25" d="M612.32,425.91l-5.23-2.1-1.74,3.32,6.28.69Z" transform="translate(-3.26 -0.37)"/><path class="cls-26" d="M582.68,448.57c-9.41,5.4-17.08,1-17.08-9.76s7.49-24.06,17.08-29.47c9.42-5.4,17.09-1,17.09,9.77S592.1,443.17,582.68,448.57Zm3.14-58.93-6.8,4a1.84,1.84,0,0,0-.87,1.57v4.36a55.64,55.64,0,0,0-5.93,5.23l-1.92-2.61a.51.51,0,0,0-.69,0c-.18,0-.35.17-.52.34l-5.93,7.33a1.86,1.86,0,0,0-.35,1.57l1.92,2.61c-1.57,2.44-3,4.88-4.36,7.5l-3.32-.18a.63.63,0,0,0-.52.18,1.74,1.74,0,0,0-.7.87l-3.48,8.72c-.18.52,0,1.22.35,1.22l3.31.34a59.79,59.79,0,0,0-1.57,7.68l-3.84,2.26a1.84,1.84,0,0,0-.87,1.57v7.85c0,.52.35.87.87.52l3.84-2.27a29.37,29.37,0,0,0,1.57,5.93l-3.31,4a1.86,1.86,0,0,0-.35,1.57l3.48,4.88a.77.77,0,0,0,.88,0,.37.37,0,0,0,.34-.35l3.32-4a13.25,13.25,0,0,0,4.36,2.44l-1.92,4.88c-.18.7-.18,1.23.35,1.23l5.93.52a.63.63,0,0,0,.52-.18,1.67,1.67,0,0,0,.69-.87l1.92-4.88a19.89,19.89,0,0,0,5.93-1.57v4.36c0,.52.35.87.87.52l6.8-4a1.81,1.81,0,0,0,.87-1.57v-4.35a55.78,55.78,0,0,0,5.93-5.23l1.92,2.61a.52.52,0,0,0,.7,0c.17,0,.35-.17.52-.35l5.93-7.32A1.89,1.89,0,0,0,602,447l-1.92-2.61c1.57-2.44,3-4.89,4.36-7.5l3.31.35c.18,0,.35,0,.35-.18a1.75,1.75,0,0,0,.87-1l3.49-8.72c.17-.52,0-1.22-.35-1.22l-3.31-.35a61.4,61.4,0,0,0,1.57-7.67l3.83-2.27a1.8,1.8,0,0,0,.87-1.56v-7.85c0-.52-.34-.87-.87-.52l-3.83,2.26a29.94,29.94,0,0,0-1.57-5.92l3.31-4a1.9,1.9,0,0,0,.35-1.57L609,391.73a.54.54,0,0,0-.7,0c-.17,0-.34.18-.52.35l-3.31,4a13.62,13.62,0,0,0-4.36-2.44l1.92-4.88c.17-.7.17-1.22-.35-1.22l-5.93-.52a.64.64,0,0,0-.52.17,1.83,1.83,0,0,0-.7.87L592.62,393a42.83,42.83,0,0,0-5.93,1.56v-4.35C586.87,389.64,586.35,389.47,585.82,389.64Z" transform="translate(-3.26 -0.37)"/></g></svg>