 <svg id="Layer_1" width="550" data-name="Layer 1" xmlns="http://www.w3.org/2000/svg" viewBox="0 0 623.73 567.55"><defs><style>.cls-21{fill:none}.cls-4,.cls-5{opacity:.15}.cls-5{fill:#6b99d1;isolation:isolate}.cls-6{fill:#c8e2ff}.cls-7{fill:#a5cbfa}.cls-8{fill:#dceeff}.cls-9{fill:#ffbe1d}.cls-10{fill:#ffcf59}.cls-11{fill:#ffe045}.cls-12{fill:#f2a803}.cls-13{fill:#5c77d1}.cls-14{fill:#6d8ef9}.cls-17{fill:#a2d4ff}.cls-18{fill:#6cffe6}.cls-21{stroke:#7cf9fe;stroke-miterlimit:10}.cls-23{fill:#7cf9fe}.cls-25{fill:#3b8bcc}.cls-26{fill:#67baff}</style><clipPath id="clip-path" transform="translate(-3.26 -.37)"><path fill="none" d="M0 0h639v572H0z"/></clipPath><linearGradient id="linear-gradient" x1="-36.63" y1="415.33" x2="144" y2="415.33" gradientTransform="matrix(1 0 0 -1 287 707.87)" gradientUnits="userSpaceOnUse"><stop offset="0" stop-color="#89a1fa"/><stop offset=".37" stop-color="#8ca4fa"/><stop offset=".68" stop-color="#97adfc"/><stop offset=".96" stop-color="#a8bbff"/><stop offset="1" stop-color="#abbeff"/></linearGradient><linearGradient id="linear-gradient-2" x1="53.44" y1="553.35" x2="53.44" y2="429.04" gradientTransform="matrix(1 0 0 -1 287 707.87)" gradientUnits="userSpaceOnUse"><stop offset="0" stop-color="#7cf9fe" stop-opacity="0"/><stop offset="1" stop-color="#7cf9fe"/></linearGradient></defs><path d="M54.38 264.14c74.89-63.81 173.18-62.6 255.29-15.69S479 140.19 567.85 184.71c60.62 30.4 79.23 154.6 34.15 226.29-61.27 97.38-329.88 148.59-389.38 155.5-68.56 7.95-129.13-17.41-164.88-60.85-86.12-104.74-26.45-213.3 6.64-241.51z" transform="translate(-3.26 -.37)" fill="#93c2e5" opacity=".2"/><g clip-path="url(#clip-path)"><g class="cls-4"><g class="cls-4"><path class="cls-5" d="M395.26 211.3l54.57-31.73 52.48 30.33-54.57 31.73z" transform="translate(-3.26 -.37)"/></g></g><path class="cls-6" d="M447.74 171.37l-.18 60.32-52.48-30.16.18-60.49z" transform="translate(-3.26 -.37)"/><path class="cls-7" d="M447.74 171.37l54.57-31.73-.18 60.5-54.57 31.55z" transform="translate(-3.26 -.37)"/><path class="cls-8" d="M395.26 141l54.57-31.73 52.48 30.33-54.57 31.73z" transform="translate(-3.26 -.37)"/><path class="cls-9" d="M466 151.15c-9.41 5.4-24.75 5.4-34.17 0s-9.42-14.3 0-19.7 24.76-5.4 34.17 0 9.46 14.3 0 19.7z" transform="translate(-3.26 -.37)"/><path class="cls-10" d="M466 147.84c-9.41 5.4-24.75 5.4-34.17 0s-9.42-14.3 0-19.7 24.76-5.41 34.17 0 9.46 14.12 0 19.7z" transform="translate(-3.26 -.37)"/><path class="cls-11" d="M449 150.1c-6.11 0-12-1.39-16.22-3.83-4-2.27-6.28-5.23-6.28-8.37 0-3 2.27-6.1 6.28-8.37 4.19-2.44 10.11-3.83 16.22-3.83s12 1.39 16.21 3.83c4 2.27 6.28 5.23 6.28 8.37 0 3-2.27 6.1-6.28 8.37A33.76 33.76 0 0 1 449 150.1z" transform="translate(-3.26 -.37)"/><path class="cls-12" d="M442.33 143l-3 1.91-2.1-1.39 2.79-1.92c-1.91-1.39-3-3-3-4.18l3.84-1.22a5.45 5.45 0 0 0 2.26 3.31l3.84-2.62c-1.74-1.56-3.31-3.31-.35-5.22a11 11 0 0 1 9.24-.7l2.09-1.4 2.27.87-2.09 1.4a9.12 9.12 0 0 1 3.66 3l-3.84 1.4a8.57 8.57 0 0 0-2.61-2.44l-3.66 2.44c2.09 1.57 4.18 3.66.87 6.1-2.01 1.84-6.2 2.36-10.21.66zm8.2-8.2l3-1.91a3.65 3.65 0 0 0-3.14.34c-.74.31-.56.84.14 1.53zm-1.75 5.58c.87-.52.52-1.22 0-1.92l-3.31 2.27a4 4 0 0 0 3.31-.39z" transform="translate(-3.26 -.37)"/><path class="cls-9" d="M466 146.62c-9.41 5.4-24.75 5.4-34.17 0s-9.42-14.3 0-19.7 24.76-5.41 34.17 0 9.46 14.29 0 19.7z" transform="translate(-3.26 -.37)"/><path class="cls-10" d="M466 143.13c-9.41 5.41-24.75 5.41-34.17 0s-9.42-14.29 0-19.7 24.76-5.4 34.17 0c9.46 5.57 9.46 14.3 0 19.7z" transform="translate(-3.26 -.37)"/><path class="cls-11" d="M449 145.57c-6.11 0-12-1.39-16.22-3.83-4-2.27-6.28-5.23-6.28-8.37 0-3 2.27-6.1 6.28-8.37 4.19-2.44 10.11-3.84 16.22-3.84s12 1.4 16.21 3.84c4 2.27 6.28 5.23 6.28 8.37 0 3-2.27 6.1-6.28 8.37a33.76 33.76 0 0 1-16.21 3.83z" transform="translate(-3.26 -.37)"/><path class="cls-12" d="M442.33 138.25l-3 1.92-2.1-1.4 2.79-1.92c-1.91-1.39-3-3-3-4.18l3.84-1.22a5.4 5.4 0 0 0 2.26 3.31l3.84-2.61c-1.74-1.57-3.31-3.31-.35-5.23a11 11 0 0 1 9.24-.7l2.09-1.4 2.27.88-2.09 1.39a9.21 9.21 0 0 1 3.66 3l-3.84 1.4a8.69 8.69 0 0 0-2.61-2.44l-3.66 2.44c2.09 1.57 4.18 3.66.87 6.1-2.01 2.05-6.2 2.58-10.21.66zm8.2-8.2l3-1.91a3.62 3.62 0 0 0-3.14.35c-.74.51-.56 1.04.14 1.56zm-1.75 5.76c.87-.52.52-1.22 0-1.92l-3.31 2.27a4 4 0 0 0 3.31-.35z" transform="translate(-3.26 -.37)"/><path class="cls-9" d="M466 142.09c-9.41 5.4-24.75 5.4-34.17 0s-9.42-14.3 0-19.7 24.76-5.41 34.17 0 9.46 14.12 0 19.7z" transform="translate(-3.26 -.37)"/><path class="cls-10" d="M466 138.6c-9.41 5.4-24.75 5.4-34.17 0s-9.42-14.3 0-19.7 24.76-5.41 34.17 0 9.46 14.29 0 19.7z" transform="translate(-3.26 -.37)"/><path class="cls-11" d="M449 141c-6.11 0-12-1.4-16.22-3.84-4-2.26-6.28-5.23-6.28-8.36 0-3 2.27-6.11 6.28-8.37 4.19-2.44 10.11-3.84 16.22-3.84s12 1.4 16.21 3.84c4 2.26 6.28 5.23 6.28 8.37 0 3-2.27 6.1-6.28 8.36A35.84 35.84 0 0 1 449 141z" transform="translate(-3.26 -.37)"/><path class="cls-12" d="M442.33 133.72l-3 1.91-2.1-1.39 2.79-1.92c-1.91-1.39-3-3-3-4.18l3.84-1.22a5.45 5.45 0 0 0 2.26 3.31l3.84-2.62c-1.74-1.56-3.31-3.31-.35-5.22a11 11 0 0 1 9.24-.7l2.09-1.4 2.27.87-2.09 1.4a9.12 9.12 0 0 1 3.66 3l-3.84 1.4a8.57 8.57 0 0 0-2.61-2.44l-3.66 2.44c2.09 1.57 4.18 3.66.87 6.1-2.01 1.88-6.2 2.57-10.21.66zm8.2-8.2l3-1.91a3.65 3.65 0 0 0-3.14.34c-.74.35-.56.87.14 1.57zm-1.75 5.76c.87-.53.52-1.23 0-1.92l-3.31 2.27a4.09 4.09 0 0 0 3.31-.35z" transform="translate(-3.26 -.37)"/><path class="cls-9" d="M466 137.38c-9.41 5.4-24.75 5.4-34.17 0s-9.42-14.3 0-19.7 24.76-5.41 34.17 0c9.46 5.58 9.46 14.32 0 19.7z" transform="translate(-3.26 -.37)"/><path class="cls-10" d="M466 134.07c-9.41 5.4-24.75 5.4-34.17 0s-9.42-14.3 0-19.71 24.76-5.4 34.17 0 9.46 14.3 0 19.71z" transform="translate(-3.26 -.37)"/><path class="cls-11" d="M449 136.33c-6.11 0-12-1.39-16.22-3.83-4-2.27-6.28-5.23-6.28-8.37 0-3 2.27-6.1 6.28-8.37 4.19-2.44 10.11-3.84 16.22-3.84s12 1.4 16.21 3.84c4 2.27 6.28 5.23 6.28 8.37 0 3-2.27 6.1-6.28 8.37a33.76 33.76 0 0 1-16.21 3.83z" transform="translate(-3.26 -.37)"/><path class="cls-12" d="M442.33 129.18l-3 1.92-2.1-1.39 2.79-1.92c-1.91-1.4-3-3-3-4.18l3.84-1.22a5.45 5.45 0 0 0 2.26 3.31l3.84-2.62c-1.74-1.57-3.31-3.31-.35-5.23a11 11 0 0 1 9.24-.7l2.09-1.39 2.27.87-2.01 1.37a9.12 9.12 0 0 1 3.66 3l-3.84 1.4a8.73 8.73 0 0 0-2.61-2.45l-3.66 2.45c2.09 1.56 4.18 3.66.87 6.1-2.09 1.9-6.28 2.43-10.29.68zm8.2-8.19l3-1.92a3.65 3.65 0 0 0-3.14.35c-.74.35-.56.87.14 1.58zm-1.75 5.75c.87-.52.52-1.22 0-1.92l-3.31 2.27a4 4 0 0 0 3.31-.35z" transform="translate(-3.26 -.37)"/><path class="cls-9" d="M466 132.85c-9.41 5.4-24.75 5.4-34.17 0s-9.42-14.3 0-19.71 24.76-5.4 34.17 0 9.46 14.3 0 19.71z" transform="translate(-3.26 -.37)"/><path class="cls-10" d="M466 129.53c-9.41 5.41-24.75 5.41-34.17 0s-9.42-14.29 0-19.7 24.76-5.4 34.17 0 9.46 14.17 0 19.7z" transform="translate(-3.26 -.37)"/><path class="cls-11" d="M449 131.8c-6.11 0-12-1.4-16.22-3.84-4-2.26-6.28-5.23-6.28-8.36 0-3 2.27-6.11 6.28-8.37 4.19-2.44 10.11-3.84 16.22-3.84s12 1.4 16.21 3.84c4 2.26 6.28 5.23 6.28 8.37 0 3-2.27 6.1-6.28 8.36A33.77 33.77 0 0 1 449 131.8z" transform="translate(-3.26 -.37)"/><path class="cls-12" d="M442.33 124.65l-3 1.92-2.1-1.4 2.79-1.91c-1.91-1.4-3-3-3-4.19l3.84-1.22a5.4 5.4 0 0 0 2.26 3.31l3.84-2.61c-1.74-1.57-3.31-3.31-.35-5.23a11 11 0 0 1 9.24-.7l2.09-1.39 2.27.87-2.09 1.39a9.14 9.14 0 0 1 3.66 3l-3.78 1.36a8.82 8.82 0 0 0-2.61-2.44l-3.66 2.44c2.09 1.57 4.18 3.66.87 6.1-2.07 1.92-6.26 2.44-10.27.7zm8.2-8.19l3-1.92a3.62 3.62 0 0 0-3.14.35c-.74.35-.56.87.14 1.57zm-1.75 5.54c.87-.53.52-1.22 0-1.92l-3.31 2.27a4.09 4.09 0 0 0 3.31-.35z" transform="translate(-3.26 -.37)"/><path class="cls-9" d="M466 128.31c-9.41 5.41-24.75 5.41-34.17 0s-9.42-14.29 0-19.7 24.76-5.4 34.17 0 9.46 14.3 0 19.7z" transform="translate(-3.26 -.37)"/><path class="cls-10" d="M466 124.82c-9.41 5.41-24.75 5.41-34.17 0s-9.42-14.29 0-19.69 24.76-5.41 34.17 0c9.46 5.57 9.46 14.29 0 19.69z" transform="translate(-3.26 -.37)"/><path class="cls-11" d="M449 127.27c-6.11 0-12-1.4-16.22-3.84-4-2.27-6.28-5.23-6.28-8.37 0-3 2.27-6.1 6.28-8.37 4.19-2.44 10.11-3.83 16.22-3.83s12 1.39 16.21 3.83c4 2.27 6.28 5.23 6.28 8.37 0 3-2.27 6.1-6.28 8.37a33.77 33.77 0 0 1-16.21 3.84z" transform="translate(-3.26 -.37)"/><path class="cls-12" d="M442.33 119.94l-3 2.1-2.1-1.4 2.79-1.92c-1.91-1.39-3-3-3-4.18l3.84-1.22a5.42 5.42 0 0 0 2.26 3.31L447 114c-1.74-1.57-3.31-3.32-.35-5.23a11 11 0 0 1 9.24-.7l2.09-1.4 2.27.88-2.05 1.45a9.12 9.12 0 0 1 3.66 3l-3.84 1.4a8.69 8.69 0 0 0-2.61-2.44l-3.66 2.44c2.09 1.57 4.18 3.66.87 6.1-2.09 1.84-6.28 2.36-10.29.44zm8.2-8.19l3-1.92a3.65 3.65 0 0 0-3.14.35c-.74.52-.56 1.05.14 1.57zm-1.75 5.75c.87-.52.52-1.22 0-1.91l-3.31 2.26a4 4 0 0 0 3.31-.35z" transform="translate(-3.26 -.37)"/><path class="cls-9" d="M466 123.78c-9.41 5.4-24.75 5.4-34.17 0s-9.42-14.3 0-19.7 24.76-5.41 34.17 0 9.46 14.12 0 19.7z" transform="translate(-3.26 -.37)"/><path class="cls-10" d="M466 120.29c-9.41 5.41-24.75 5.41-34.17 0s-9.42-14.29 0-19.7 24.76-5.4 34.17 0 9.46 14.3 0 19.7z" transform="translate(-3.26 -.37)"/><path class="cls-11" d="M449 122.73c-6.11 0-12-1.39-16.22-3.83-4-2.27-6.28-5.23-6.28-8.37 0-3 2.27-6.1 6.28-8.37 4.19-2.44 10.11-3.83 16.22-3.83s12 1.39 16.21 3.83c4 2.27 6.28 5.23 6.28 8.37 0 3-2.27 6.1-6.28 8.37a36 36 0 0 1-16.21 3.83z" transform="translate(-3.26 -.37)"/><path class="cls-12" d="M442.33 115.41l-3 1.92-2.1-1.4 2.79-1.91c-1.91-1.4-3-3-3-4.19l3.84-1.22a5.4 5.4 0 0 0 2.26 3.31l3.84-2.61c-1.74-1.57-3.31-3.31-.35-5.23a11 11 0 0 1 9.24-.7L458 102l2.27.87-2.09 1.39a9.22 9.22 0 0 1 3.66 3l-3.84 1.35a8.82 8.82 0 0 0-2.61-2.44l-3.66 2.44c2.09 1.57 4.18 3.66.87 6.1-2.07 1.92-6.26 2.62-10.27.7zm8.2-8.19l3-1.92a3.65 3.65 0 0 0-3.14.35c-.74.35-.56.87.14 1.57zm-1.75 5.78c.87-.52.52-1.22 0-1.92l-3.31 2.27a4 4 0 0 0 3.31-.35z" transform="translate(-3.26 -.37)"/><path class="cls-9" d="M466 119.07c-9.41 5.41-24.75 5.41-34.17 0s-9.42-14.29 0-19.7 24.76-5.4 34.17 0c9.46 5.63 9.46 14.3 0 19.7z" transform="translate(-3.26 -.37)"/><path class="cls-10" d="M466 115.76c-9.41 5.4-24.75 5.4-34.17 0s-9.42-14.3 0-19.7 24.76-5.4 34.17 0 9.46 14.3 0 19.7z" transform="translate(-3.26 -.37)"/><path class="cls-11" d="M449 118c-6.11 0-12-1.4-16.22-3.84-4-2.27-6.28-5.23-6.28-8.37 0-3 2.27-6.1 6.28-8.37 4.19-2.44 10.11-3.83 16.22-3.83s12 1.39 16.21 3.83c4 2.27 6.28 5.23 6.28 8.37 0 3-2.27 6.1-6.28 8.37A33.77 33.77 0 0 1 449 118z" transform="translate(-3.26 -.37)"/><path class="cls-12" d="M442.33 110.88l-3 1.92-2.1-1.4 2.79-1.92c-1.91-1.39-3-3-3-4.18l3.84-1.22a5.4 5.4 0 0 0 2.26 3.31l3.84-2.61c-1.74-1.57-3.31-3.32-.35-5.23a11 11 0 0 1 9.24-.7l2.09-1.4 2.27.88-2.09 1.39a9.12 9.12 0 0 1 3.66 3l-3.84 1.4a8.69 8.69 0 0 0-2.61-2.44l-3.66 2.44c2.09 1.57 4.18 3.66.87 6.1-2.01 1.88-6.2 2.4-10.21.66zm8.2-8.2l3-1.91a3.62 3.62 0 0 0-3.14.35c-.74.34-.56.88.14 1.56zm-1.75 5.76c.87-.52.52-1.22 0-1.92l-3.31 2.27a4 4 0 0 0 3.31-.35z" transform="translate(-3.26 -.37)"/><path class="cls-9" d="M466 114.54c-9.41 5.4-24.75 5.4-34.17 0s-9.42-14.3 0-19.7 24.76-5.41 34.17 0 9.46 14.3 0 19.7z" transform="translate(-3.26 -.37)"/><path class="cls-10" d="M466 111.23c-9.41 5.4-24.75 5.4-34.17 0s-9.42-14.3 0-19.7 24.76-5.41 34.17 0 9.46 14.12 0 19.7z" transform="translate(-3.26 -.37)"/><path class="cls-11" d="M449 113.49c-6.11 0-12-1.39-16.22-3.83-4-2.27-6.28-5.23-6.28-8.37 0-3 2.27-6.1 6.28-8.37 4.19-2.44 10.11-3.83 16.22-3.83s12 1.39 16.21 3.83c4 2.27 6.28 5.23 6.28 8.37 0 3-2.27 6.1-6.28 8.37a33.76 33.76 0 0 1-16.21 3.83z" transform="translate(-3.26 -.37)"/><path class="cls-12" d="M442.33 106.35l-3 1.91-2.1-1.39 2.79-1.92c-1.91-1.39-3-3-3-4.18l3.84-1.22a5.45 5.45 0 0 0 2.26 3.31l3.84-2.62c-1.74-1.57-3.31-3.31-.35-5.23a11 11 0 0 1 9.24-.69l2.09-1.4 2.27.87-2.09 1.4a9.12 9.12 0 0 1 3.66 3L458 99.55a8.57 8.57 0 0 0-2.61-2.44l-3.66 2.44c2.09 1.57 4.18 3.66.87 6.1-2.07 1.92-6.26 2.44-10.27.7zm8.2-8.2l3-1.92a3.68 3.68 0 0 0-3.14.35c-.74.35-.56.87.14 1.57zm-1.75 5.58c.87-.52.52-1.22 0-1.92l-3.31 2.27a4 4 0 0 0 3.31-.35z" transform="translate(-3.26 -.37)"/><path class="cls-9" d="M466 110c-9.41 5.4-24.75 5.4-34.17 0s-9.42-14.3 0-19.7 24.76-5.41 34.17 0 9.46 14.3 0 19.7z" transform="translate(-3.26 -.37)"/><path class="cls-10" d="M466 106.52c-9.41 5.4-24.75 5.4-34.17 0s-9.42-14.3 0-19.7 24.76-5.4 34.17 0c9.46 5.58 9.46 14.3 0 19.7z" transform="translate(-3.26 -.37)"/><path class="cls-11" d="M449 109c-6.11 0-12-1.39-16.22-3.83-4-2.27-6.28-5.23-6.28-8.37 0-3 2.27-6.1 6.28-8.37 4.19-2.44 10.11-3.84 16.22-3.84s12 1.4 16.21 3.84c4 2.27 6.28 5.23 6.28 8.37 0 3-2.27 6.1-6.28 8.37A33.76 33.76 0 0 1 449 109z" transform="translate(-3.26 -.37)"/><path class="cls-12" d="M442.33 101.64l-3 1.92-2.1-1.4 2.79-1.92c-1.91-1.39-3-3-3-4.18l3.84-1.22a5.4 5.4 0 0 0 2.26 3.31l3.88-2.61c-1.74-1.57-3.31-3.32-.35-5.23a11 11 0 0 1 9.24-.7l2.09-1.4 2.27.88-2.09 1.39a9.12 9.12 0 0 1 3.66 3L458 94.84a8.69 8.69 0 0 0-2.61-2.44l-3.66 2.44c2.09 1.57 4.18 3.66.87 6.1-2.07 2.06-6.26 2.62-10.27.7zm8.2-8.2l3-1.91a3.62 3.62 0 0 0-3.14.35c-.74.52-.56 1.04.14 1.56zm-1.75 5.76c.87-.53.52-1.22 0-1.92l-3.31 2.27a4 4 0 0 0 3.31-.35z" transform="translate(-3.26 -.37)"/><path class="cls-5" d="M483.3 322.87h-8v2.79l-146.1-84.38a3.82 3.82 0 0 0-3.84 0l-123.29 71.13v-4.88h-4.18V317a4 4 0 0 0 1.92 3.31l152.55 88.21a3.77 3.77 0 0 0 3.84 0l125.19-72.7a3.93 3.93 0 0 0 1.91-3.31z" transform="translate(-3.26 -.37)"/><path class="cls-13" d="M483.3 314.15h-8V317l-146.1-84.38a3.77 3.77 0 0 0-3.84 0L202.07 303.7v-4.89h-4.18v9.42a4 4 0 0 0 1.92 3.31l152.55 88.22a3.82 3.82 0 0 0 3.84 0l125.19-72.7a4 4 0 0 0 1.91-3.32z" transform="translate(-3.26 -.37)"/><path class="cls-14" d="M352.36 390.52L199.81 302.3a3.77 3.77 0 0 1 0-6.62l125.53-72.53a3.77 3.77 0 0 1 3.84 0L481.39 311a3.78 3.78 0 0 1 0 6.62l-125.19 72.9a4.29 4.29 0 0 1-3.84 0z" transform="translate(-3.26 -.37)"/><path d="M419.14 267.08a68.17 68.17 0 0 0-14.82-11.33c-35.22-20.4-92.4-20.4-127.62 0a69.13 69.13 0 0 0-14.82 11.33h-11.51v25.46c0 13.25 8.89 26.67 26.5 36.78 35.22 20.4 92.41 20.4 127.63 0 17.61-10.11 26.5-23.53 26.5-36.78v-25.46z" transform="translate(-3.26 -.37)" fill="url(#linear-gradient)"/><path d="M276.7 233.44c-35.22 20.4-35.22 53.35 0 73.74s92.4 20.4 127.62 0 35.22-53.34 0-73.74-92.4-20.44-127.62 0z" transform="translate(-3.26 -.37)" fill="#bfcfff"/><path class="cls-17" d="M305.46 78.1a90.17 90.17 0 1 0 118 48.29 90.36 90.36 0 0 0-118-48.29z" transform="translate(-3.26 -.37)"/><path class="cls-18" d="M275.3 111.4c4.19 4 7.33-15.86 14.12-10.28-10.28 8.19-10.81 23.53-1.91 28.41 8.89 4.71 14.29-.17 14.29 3.66 2.1 7-2.61 12.21-6.62 16-10.46 11.33-1.4 14.12-2.62 23.19-1.22 10.11-6.45 27-6.1 37.13a3.73 3.73 0 0 0 6.8 2.1c6.28-8.72 10.29-12.73 20.75-21.1 9.59-7.5 15.86-15 17.61-25.63 1-13.07-33.48-13.94-21.45-29.11 4-3.66 13.25-11.68 3.84-18-7.67-5-7.5 14-14.3 4.54-4.18-9.94 6.28-15.7 14.65-17.26h1c7.5.52 13.25 7.32 21.62 5.92 6.11-.52 3.49-13.77 7.33-13.6 7.84-3.66 16.91 1.22 19.52-11 .53-3.49-1-7.15-2.44-11a4.31 4.31 0 0 0-2.79-2.44 90 90 0 0 0-71.31 15.69 2.82 2.82 0 0 0-1.22 1.57c-2.4 6.04-14.78 17.38-10.77 21.21zM422.63 126.74a26.33 26.33 0 0 1-4.88-2.61 3.6 3.6 0 0 0-5.58 1.92c-1.92 6.1-4.71 11.68-12.73 11.15a3.64 3.64 0 0 0-3.83 4.54c.17.52.34.87.69 1 5.93 7.15 6.45 17.09 1.75 18.48-7.68 3.31-12 2.62-16.22 6.63a3.67 3.67 0 0 0 2.27 6.27c8.89 1.05 18 3.14 26.85.87a4.41 4.41 0 0 0 1.91-1.22c.7-.87 1.75-1.74 2.62-2.61a3.83 3.83 0 0 1 5.75.52 4.24 4.24 0 0 1 .7 1.22 4.09 4.09 0 0 1 .35 1.92c-1.74 15.69-19.7 10.11-31.73 11.33-11.33 1.05-5.58 19.53-9.59 31.91a3.71 3.71 0 0 0 2.79 4.7c4.18.87 8.19.18 12.38-.35a3.81 3.81 0 0 1 4.18 4.71c-.17.87-.35 1.57-.52 2.44a90.53 90.53 0 0 0 25.45-100.76 9.09 9.09 0 0 0-2.61-2.06z" transform="translate(-3.26 -.37)"/><path class="cls-17" d="M423.67 126.39a88.81 88.81 0 0 0-32.42-39.57 80.6 80.6 0 0 1 11 19.35 90.3 90.3 0 0 1-134.1 109.48A90.25 90.25 0 0 0 375.2 244.6c46.21-19.53 67.8-72.36 48.47-118.21z" transform="translate(-3.26 -.37)"/><path d="M319.63 134.69c11.47-14.86 12.79-33.06 2.95-40.65s-27.1-1.69-38.57 13.18-12.79 33.07-3 40.66 27.15 1.68 38.62-13.19z" transform="translate(-3.26 -.37)" style="isolation:isolate" fill="#daffff" opacity=".59"/><path d="M430.65 269V48.64H250.2v222.63h.17c.52 12.9 9.24 25.8 26.33 35.74 35.22 20.39 92.4 20.39 127.62 0 18.13-10.46 27.03-24.24 26.33-38.01z" transform="translate(-3.26 -.37)" style="isolation:isolate" opacity=".5" fill="url(#linear-gradient-2)"/><path class="cls-21" d="M250.54 48.47c-2.26 14.81 6.45 30 26.16 41.31M276.7 16.21c-8.55 4.88-15.17 10.64-19.53 16.74M340.51.87a145 145 0 0 0-44.63 6.8M430.3 48.29c-1.92-11.68-10.46-23.19-26-32.08-11.66-6.62-25.61-11.15-40.43-13.42M412.69 84.38c7.5-5.75 12.73-12.2 15.52-19M306 101.12c28.42 6.8 61.54 4.88 87.17-5.76" transform="translate(-3.26 -.37)"/><path class="cls-5" d="M20.57 462.52l138.79-80.2a3 3 0 0 1 3 0l4 2.44c.87.53.87 1.22 0 1.75l-139 80.19a3 3 0 0 1-3 0l-4-2.27c-.66-.69-.66-1.43.21-1.91z" transform="translate(-3.26 -.37)"/><path class="cls-13" d="M169 354.78L35.39 431.83l-5.75 3.31-6.8-4a3.54 3.54 0 0 1-1.57-2.62V288.18a3.43 3.43 0 0 1 .52-1.74A4.71 4.71 0 0 1 23 285l136-78.63a3 3 0 0 1 3 0l6.8 4z" transform="translate(-3.26 -.37)"/><path class="cls-13" d="M35.57 294.45v137.38l-5.76 3.31-6.8-4a3.53 3.53 0 0 1-1.56-2.62V288.18a3.34 3.34 0 0 1 .52-1.74z" transform="translate(-3.26 -.37)"/><path class="cls-14" d="M33 287.66L165.81 211c2.44-1.4 4.53-.35 4.53 2.61v136.81a10 10 0 0 1-4.53 7.84L33 435c-2.44 1.4-4.53.35-4.53-2.61V295.68a10.58 10.58 0 0 1 4.53-8.02z" transform="translate(-3.26 -.37)"/><path d="M77.76 389.47L55.1 402.72v-26.15l22.66-13.08z" transform="translate(-3.26 -.37)" fill="#eacab9"/><path class="cls-6" d="M77.76 346.76v42.71l22.49-12.9v-42.89z" transform="translate(-3.26 -.37)"/><path class="cls-17" d="M100.25 310.32v66.25l22.49-12.9.18-66.43z" transform="translate(-3.26 -.37)"/><path class="cls-23" d="M122.92 280l-.18 83.69 22.84-13.25v-83.36z" transform="translate(-3.26 -.37)"/><path d="M51.84 350.57l11.5-40.27 17.4 10.11 15.34-45 12.2 9.76 15.35-27.37" stroke="#ffe045" stroke-width="2" stroke-miterlimit="10" fill="none"/><path class="cls-11" d="M134.08 262.38l-15.52-8.54 15.87-9.24z" transform="translate(-3.26 -.37)"/><path class="cls-23" d="M55.1 290.27c0 1.4 1.22 1.75 2.78.87L83 276.67a5.56 5.56 0 0 0 2.79-4.18c0-1.4-1.22-1.74-2.79-.87l-25.12 14.47a5.57 5.57 0 0 0-2.78 4.18z" transform="translate(-3.26 -.37)"/><path class="cls-5" d="M215.32 447.17c0 6.11-12.37 11.16-27.89 11.16-15.34 0-27.9-5.05-27.9-11.16S171.91 436 187.43 436s27.89 5.07 27.89 11.17z" transform="translate(-3.26 -.37)"/><g class="cls-4"><g class="cls-4"><path class="cls-5" d="M496 264.12l54.57-31.73 52.48 30.34-54.57 31.72z" transform="translate(-3.26 -.37)"/></g></g><path class="cls-6" d="M548.51 224.2l-.17 60.32-52.48-30.34.17-60.32z" transform="translate(-3.26 -.37)"/><path class="cls-7" d="M548.51 224.2l54.57-31.73-.17 60.32-54.57 31.73z" transform="translate(-3.26 -.37)"/><path class="cls-8" d="M496 193.86l54.57-31.73 52.48 30.34-54.54 31.73z" transform="translate(-3.26 -.37)"/><path class="cls-9" d="M566.82 204c-9.42 5.41-24.76 5.41-34.17 0s-9.42-14.29 0-19.7 24.75-5.4 34.17 0 9.41 14.1 0 19.7z" transform="translate(-3.26 -.37)"/><path class="cls-10" d="M566.82 200.49c-9.42 5.4-24.76 5.4-34.17 0s-9.42-14.3 0-19.7 24.75-5.41 34.17 0 9.41 14.29 0 19.7z" transform="translate(-3.26 -.37)"/><path class="cls-11" d="M549.73 202.93c-6.1 0-12-1.4-16.21-3.84-4-2.26-6.28-5.23-6.28-8.36 0-3 2.27-6.11 6.28-8.37 4.18-2.44 10.11-3.84 16.21-3.84s12 1.4 16.22 3.84c4 2.26 6.27 5.23 6.27 8.37 0 3-2.26 6.1-6.27 8.36a34.3 34.3 0 0 1-16.22 3.84z" transform="translate(-3.26 -.37)"/><path class="cls-12" d="M543.11 195.61l-3 1.91-2.09-1.39 2.79-1.92c-1.92-1.39-3-3-3-4.18l3.83-1.22a5.47 5.47 0 0 0 2.27 3.31l3.83-2.62c-1.74-1.57-3.31-3.31-.34-5.23a11 11 0 0 1 9.24-.69l2.09-1.4 2.27.87-2.1 1.4a9.05 9.05 0 0 1 3.66 3l-3.83 1.4a8.61 8.61 0 0 0-2.62-2.44l-3.66 2.44c2.09 1.57 4.19 3.66.87 6.1-2.19 1.88-6.2 2.57-10.21.66zm8-8.2l3-1.92a3.68 3.68 0 0 0-3.14.35c-.71.35-.37 1.05.16 1.57zm-1.57 5.76c.87-.53.52-1.22 0-1.92l-3.32 2.26a4.07 4.07 0 0 0 3.34-.34z" transform="translate(-3.26 -.37)"/><path class="cls-9" d="M566.82 199.27c-9.42 5.4-24.76 5.4-34.17 0s-9.42-14.3 0-19.7 24.75-5.41 34.17 0c9.41 5.58 9.41 14.29 0 19.7z" transform="translate(-3.26 -.37)"/><path class="cls-10" d="M566.82 196c-9.42 5.4-24.76 5.4-34.17 0s-9.42-14.3 0-19.7 24.75-5.41 34.17 0 9.41 14.25 0 19.7z" transform="translate(-3.26 -.37)"/><path class="cls-11" d="M549.73 198.22c-6.1 0-12-1.39-16.21-3.83-4-2.27-6.28-5.23-6.28-8.37 0-3 2.27-6.1 6.28-8.37 4.18-2.44 10.11-3.84 16.21-3.84s12 1.4 16.22 3.84c4 2.27 6.27 5.23 6.27 8.37 0 3-2.26 6.1-6.27 8.37a34.3 34.3 0 0 1-16.22 3.83z" transform="translate(-3.26 -.37)"/><path class="cls-12" d="M543.11 191.07l-3 1.92-2.09-1.39 2.79-1.92c-1.92-1.4-3-3-3-4.19l3.83-1.22a5.46 5.46 0 0 0 2.27 3.32l3.83-2.62c-1.74-1.57-3.31-3.31-.34-5.23a11 11 0 0 1 9.24-.7l2.09-1.39 2.27.87-2.1 1.4a9.05 9.05 0 0 1 3.66 3l-3.83 1.39a8.86 8.86 0 0 0-2.62-2.44l-3.66 2.44c2.09 1.57 4.19 3.66.87 6.11-2.19 1.87-6.2 2.4-10.21.65zm8-8.19l3-1.92a3.65 3.65 0 0 0-3.14.35c-.71.35-.37.87.16 1.57zm-1.57 5.75c.87-.52.52-1.22 0-1.92l-3.3 2.29a4 4 0 0 0 3.32-.37z" transform="translate(-3.26 -.37)"/><path class="cls-9" d="M566.82 194.74c-9.42 5.4-24.76 5.4-34.17 0s-9.42-14.3 0-19.71 24.75-5.4 34.17 0 9.41 14.3 0 19.71z" transform="translate(-3.26 -.37)"/><path class="cls-10" d="M566.82 191.42c-9.42 5.41-24.76 5.41-34.17 0s-9.42-14.29 0-19.7 24.75-5.4 34.17 0 9.41 14.12 0 19.7z" transform="translate(-3.26 -.37)"/><path class="cls-11" d="M549.73 193.69c-6.1 0-12-1.4-16.21-3.84-4-2.26-6.28-5.23-6.28-8.36 0-3 2.27-6.11 6.28-8.37 4.18-2.44 10.11-3.84 16.21-3.84s12 1.4 16.22 3.84c4 2.26 6.27 5.23 6.27 8.37 0 3-2.26 6.1-6.27 8.36a34.3 34.3 0 0 1-16.22 3.84z" transform="translate(-3.26 -.37)"/><path class="cls-12" d="M543.11 186.54l-3 1.92-2.09-1.4 2.79-1.91c-1.92-1.4-3-3-3-4.19l3.83-1.22a5.42 5.42 0 0 0 2.27 3.31l3.83-2.61c-1.74-1.57-3.31-3.31-.34-5.23a11 11 0 0 1 9.24-.7l2.09-1.39 2.27.87-2.1 1.39a9.15 9.15 0 0 1 3.66 3l-3.83 1.39a8.86 8.86 0 0 0-2.62-2.44l-3.66 2.44c2.09 1.57 4.19 3.66.87 6.1-2.19 1.89-6.2 2.41-10.21.67zm8-8.19l3-1.92a3.65 3.65 0 0 0-3.14.35c-.71.35-.37.87.16 1.57zm-1.57 5.58c.87-.53.52-1.22 0-1.92l-3.32 2.26a4.07 4.07 0 0 0 3.34-.34z" transform="translate(-3.26 -.37)"/><path class="cls-9" d="M566.82 190.2c-9.42 5.41-24.76 5.41-34.17 0s-9.42-14.29 0-19.7 24.75-5.4 34.17 0 9.41 14.3 0 19.7z" transform="translate(-3.26 -.37)"/><path class="cls-10" d="M566.82 186.71c-9.42 5.41-24.76 5.41-34.17 0s-9.42-14.29 0-19.7 24.75-5.4 34.17 0c9.41 5.58 9.41 14.3 0 19.7z" transform="translate(-3.26 -.37)"/><path class="cls-11" d="M549.73 189.16c-6.1 0-12-1.4-16.21-3.84-4-2.27-6.28-5.23-6.28-8.37 0-3 2.27-6.1 6.28-8.37 4.18-2.44 10.11-3.83 16.21-3.83s12 1.39 16.22 3.83c4 2.27 6.27 5.23 6.27 8.37 0 3-2.26 6.1-6.27 8.37a34.3 34.3 0 0 1-16.22 3.84z" transform="translate(-3.26 -.37)"/><path class="cls-12" d="M543.11 181.83l-3 1.92-2.09-1.39 2.79-1.92c-1.92-1.4-3-3-3-4.18l3.83-1.23a5.46 5.46 0 0 0 2.27 3.32l3.83-2.62c-1.74-1.57-3.31-3.31-.34-5.23a11 11 0 0 1 9.24-.7l2.09-1.39 2.27.87-2.1 1.4a9.05 9.05 0 0 1 3.66 3L558.8 175a8.86 8.86 0 0 0-2.62-2.44l-3.66 2.44c2.09 1.57 4.19 3.67.87 6.11-2.26 2.12-6.27 2.64-10.28.72zm8-8.19l3-1.92a3.65 3.65 0 0 0-3.14.35c-.71.52-.37 1.05.16 1.57zm-1.57 5.75c.87-.52.52-1.22 0-1.91l-3.32 2.26a4 4 0 0 0 3.34-.35z" transform="translate(-3.26 -.37)"/><path class="cls-9" d="M566.82 185.67c-9.42 5.4-24.76 5.4-34.17 0s-9.42-14.3 0-19.7 24.75-5.41 34.17 0 9.41 14.12 0 19.7z" transform="translate(-3.26 -.37)"/><path class="cls-10" d="M566.82 182.18c-9.42 5.41-24.76 5.41-34.17 0s-9.42-14.29 0-19.7 24.75-5.4 34.17 0 9.41 14.3 0 19.7z" transform="translate(-3.26 -.37)"/><path class="cls-11" d="M549.73 184.62c-6.1 0-12-1.39-16.21-3.83-4-2.27-6.28-5.23-6.28-8.37 0-3 2.27-6.1 6.28-8.37 4.18-2.44 10.11-3.83 16.21-3.83s12 1.39 16.22 3.83c4 2.27 6.27 5.23 6.27 8.37 0 3-2.26 6.1-6.27 8.37a34.3 34.3 0 0 1-16.22 3.83z" transform="translate(-3.26 -.37)"/><path class="cls-12" d="M543.11 177.3l-3 1.92-2.09-1.4 2.79-1.91c-1.92-1.4-3-3-3-4.19l3.83-1.22a5.42 5.42 0 0 0 2.27 3.31l3.83-2.61c-1.74-1.57-3.31-3.31-.34-5.23a11 11 0 0 1 9.24-.7l2.09-1.39 2.27.87-2.1 1.39a9.07 9.07 0 0 1 3.66 3l-3.83 1.39a8.86 8.86 0 0 0-2.62-2.44l-3.66 2.44c2.09 1.57 4.19 3.66.87 6.1-2.19 1.89-6.2 2.59-10.21.67zm8-8.19l3-1.92a3.62 3.62 0 0 0-3.14.35c-.71.35-.37 1.04.16 1.57zm-1.57 5.75c.87-.52.52-1.22 0-1.92l-3.32 2.27a4.07 4.07 0 0 0 3.34-.35z" transform="translate(-3.26 -.37)"/><path class="cls-9" d="M566.82 181c-9.42 5.41-24.76 5.41-34.17 0s-9.42-14.29 0-19.7 24.75-5.4 34.17 0c9.41 5.54 9.41 14.26 0 19.7z" transform="translate(-3.26 -.37)"/><path class="cls-10" d="M566.82 177.65c-9.42 5.4-24.76 5.4-34.17 0s-9.42-14.3 0-19.7 24.75-5.41 34.17 0 9.41 14.29 0 19.7z" transform="translate(-3.26 -.37)"/><path class="cls-11" d="M549.73 179.92c-6.1 0-12-1.4-16.21-3.84-4-2.27-6.28-5.23-6.28-8.37 0-3 2.27-6.1 6.28-8.37 4.18-2.44 10.11-3.83 16.21-3.83s12 1.39 16.22 3.83c4 2.27 6.27 5.23 6.27 8.37 0 3-2.26 6.1-6.27 8.37a34.3 34.3 0 0 1-16.22 3.84z" transform="translate(-3.26 -.37)"/><path class="cls-12" d="M543.11 172.77l-3 1.92-2.09-1.4 2.79-1.92c-1.92-1.39-3-3-3-4.18l3.83-1.22a5.44 5.44 0 0 0 2.27 3.31l3.83-2.61c-1.74-1.57-3.31-3.32-.34-5.23a11 11 0 0 1 9.24-.7l2.09-1.4 2.27.88-2.1 1.39a9.05 9.05 0 0 1 3.66 3L558.8 166a8.73 8.73 0 0 0-2.62-2.44l-3.66 2.44c2.09 1.57 4.19 3.66.87 6.1-2.26 1.9-6.27 2.41-10.28.67zm8-8.2l3-1.91a3.62 3.62 0 0 0-3.11.34c-.74.35-.4.88.13 1.57zm-1.57 5.76c.87-.53.52-1.22 0-1.92l-3.32 2.27a4.11 4.11 0 0 0 3.34-.35z" transform="translate(-3.26 -.37)"/><path class="cls-9" d="M566.82 176.43c-9.42 5.4-24.76 5.4-34.17 0s-9.42-14.3 0-19.7 24.75-5.41 34.17 0 9.41 14.27 0 19.7z" transform="translate(-3.26 -.37)"/><path class="cls-10" d="M566.82 173.12c-9.42 5.4-24.76 5.4-34.17 0s-9.42-14.3 0-19.7 24.75-5.41 34.17 0 9.41 14.12 0 19.7z" transform="translate(-3.26 -.37)"/><path class="cls-11" d="M549.73 175.38c-6.1 0-12-1.39-16.21-3.83-4-2.27-6.28-5.23-6.28-8.37 0-3 2.27-6.1 6.28-8.37 4.18-2.44 10.11-3.83 16.21-3.83s12 1.39 16.22 3.83c4 2.27 6.27 5.23 6.27 8.37 0 3-2.26 6.1-6.27 8.37a34.3 34.3 0 0 1-16.22 3.83z" transform="translate(-3.26 -.37)"/><path class="cls-12" d="M543.11 168.24l-3 1.91-2.09-1.39 2.79-1.92c-1.92-1.39-3-3-3-4.18l3.83-1.22a5.47 5.47 0 0 0 2.27 3.31l3.83-2.62c-1.74-1.56-3.31-3.31-.34-5.23a11 11 0 0 1 9.24-.69l2.09-1.4 2.27.87-2.1 1.4a9.05 9.05 0 0 1 3.66 3l-3.83 1.4a8.76 8.76 0 0 0-2.62-2.45l-3.66 2.45c2.09 1.57 4.19 3.66.87 6.1-2.19 1.88-6.2 2.42-10.21.66zm8-8.2l3-1.92a3.65 3.65 0 0 0-3.14.35c-.71.35-.37.87.16 1.53zm-1.57 5.58c.87-.52.52-1.22 0-1.92l-3.3 2.3a4.07 4.07 0 0 0 3.32-.38z" transform="translate(-3.26 -.37)"/><path class="cls-9" d="M566.82 171.9c-9.42 5.4-24.76 5.4-34.17 0s-9.42-14.3 0-19.7 24.75-5.41 34.17 0 9.41 14.29 0 19.7z" transform="translate(-3.26 -.37)"/><path class="cls-10" d="M566.82 168.41c-9.42 5.4-24.76 5.4-34.17 0s-9.42-14.3 0-19.7 24.75-5.41 34.17 0c9.41 5.58 9.41 14.29 0 19.7z" transform="translate(-3.26 -.37)"/><path class="cls-11" d="M549.73 170.85c-6.1 0-12-1.39-16.21-3.84-4-2.26-6.28-5.22-6.28-8.36 0-3 2.27-6.11 6.28-8.37 4.18-2.44 10.11-3.84 16.21-3.84s12 1.4 16.22 3.84c4 2.26 6.27 5.23 6.27 8.37 0 3-2.26 6.1-6.27 8.36a34.18 34.18 0 0 1-16.22 3.84z" transform="translate(-3.26 -.37)"/><path class="cls-12" d="M543.11 163.53l-3 1.92-2.09-1.4 2.79-1.92c-1.92-1.39-3-3-3-4.18l3.83-1.22A5.47 5.47 0 0 0 544 160l3.83-2.61c-1.74-1.57-3.31-3.32-.34-5.23a11 11 0 0 1 9.24-.7l2.09-1.4 2.27.88-2.1 1.39a9.05 9.05 0 0 1 3.66 3l-3.83 1.4a8.73 8.73 0 0 0-2.62-2.44l-3.66 2.44c2.09 1.57 4.19 3.66.87 6.1-2.28 2.09-6.29 2.62-10.3.7zm8-8.2l3-1.91a3.65 3.65 0 0 0-3.14.34c-.71.53-.37 1.05.16 1.57zm-1.57 5.76c.87-.53.52-1.22 0-1.92l-3.32 2.27a4.07 4.07 0 0 0 3.34-.35z" transform="translate(-3.26 -.37)"/><path class="cls-9" d="M566.82 167.36c-9.42 5.41-24.76 5.41-34.17 0s-9.42-14.29 0-19.7 24.75-5.4 34.17 0 9.41 14.13 0 19.7z" transform="translate(-3.26 -.37)"/><path class="cls-10" d="M566.82 163.88c-9.42 5.4-24.76 5.4-34.17 0s-9.42-14.3 0-19.7 24.75-5.41 34.17 0 9.41 14.29 0 19.7z" transform="translate(-3.26 -.37)"/><path class="cls-11" d="M549.73 166.32c-6.1 0-12-1.4-16.21-3.84-4-2.26-6.28-5.23-6.28-8.37 0-3 2.27-6.1 6.28-8.36 4.18-2.45 10.11-3.84 16.21-3.84s12 1.39 16.22 3.84c4 2.26 6.27 5.23 6.27 8.36 0 3-2.26 6.11-6.27 8.37a34.3 34.3 0 0 1-16.22 3.84z" transform="translate(-3.26 -.37)"/><path class="cls-12" d="M543.11 159l-3 1.92-2.09-1.39 2.79-1.92c-1.92-1.39-3-3-3-4.18l3.83-1.22a5.47 5.47 0 0 0 2.27 3.31l3.83-2.62c-1.74-1.57-3.31-3.31-.34-5.23a11 11 0 0 1 9.24-.69l2.09-1.4 2.61.87-2.09 1.4a9.12 9.12 0 0 1 3.66 3l-3.83 1.4a8.61 8.61 0 0 0-2.62-2.44l-3.66 2.44c2.09 1.56 4.18 3.66.87 6.1a10.32 10.32 0 0 1-10.56.65zm8-8.19l3-1.92a3.68 3.68 0 0 0-3.14.35c-.71.34-.37 1.04.16 1.56zm-1.57 5.75c.87-.52.52-1.22 0-1.91l-3.32 2.26a4 4 0 0 0 3.34-.36z" transform="translate(-3.26 -.37)"/><path class="cls-9" d="M566.82 162.66c-9.42 5.4-24.76 5.4-34.17 0s-9.42-14.3 0-19.7 24.75-5.41 34.17 0c9.41 5.58 9.41 14.29 0 19.7z" transform="translate(-3.26 -.37)"/><path class="cls-10" d="M566.82 159.34c-9.42 5.41-24.76 5.41-34.17 0s-9.42-14.29 0-19.7 24.75-5.4 34.17 0 9.41 14.3 0 19.7z" transform="translate(-3.26 -.37)"/><path class="cls-11" d="M549.73 161.61c-6.1 0-12-1.39-16.21-3.84-4-2.26-6.28-5.23-6.28-8.36 0-3 2.27-6.11 6.28-8.37 4.18-2.44 10.11-3.84 16.21-3.84s12 1.4 16.22 3.84c4 2.26 6.27 5.23 6.27 8.37 0 3-2.26 6.1-6.27 8.36a34.18 34.18 0 0 1-16.22 3.84z" transform="translate(-3.26 -.37)"/><path class="cls-12" d="M543.11 154.46l-3 1.92-2.06-1.38 2.79-1.92c-1.92-1.4-3-3-3-4.19l3.83-1.22A5.46 5.46 0 0 0 544 151l3.83-2.62c-1.74-1.57-3.31-3.31-.34-5.23a11 11 0 0 1 9.24-.7l2.07-1.45 2.27.87-2.07 1.43a9.15 9.15 0 0 1 3.66 3l-3.83 1.39a8.86 8.86 0 0 0-2.62-2.44l-3.66 2.44c2.09 1.57 4.19 3.66.87 6.1-2.29 1.89-6.3 2.42-10.31.67zm8-8.19l3-1.92a3.65 3.65 0 0 0-3.14.35c-.71.35-.37.87.16 1.57zm-1.55 5.73c.87-.52.52-1.22 0-1.92l-3.32 2.27a4.07 4.07 0 0 0 3.32-.35z" transform="translate(-3.26 -.37)"/><path class="cls-5" d="M356 501.39c-1.22-2.09-3.84-3-7.33-3 1.4-1.39 1.05-3.31-1-4.53l-40.45-23.36a10.32 10.32 0 0 0-9.07 0l-40.46 23.4c-2.44 1.39-2.44 3.83 0 5.23l40.45 23.36a10.39 10.39 0 0 0 9.07 0l1.57-.87c-1.57 3-2.1 5.58-.87 7.67 3.13 5.4 16.39 3.48 29.64-4.19s21.62-18.3 18.45-23.71z" transform="translate(-3.26 -.37)"/><path class="cls-8" d="M347.66 443.86l-40.45-23.36a10.39 10.39 0 0 0-9.07 0l-40.45 23.36c-2.44 1.4-2.44 3.84 0 5.23l40.45 23.36a10.32 10.32 0 0 0 9.07 0l40.45-23.36c2.61-1.57 2.61-3.83 0-5.23z" transform="translate(-3.26 -.37)"/><path class="cls-7" d="M349.58 487.27a3.15 3.15 0 0 1-1.92 2.62l-40.45 23.36a8.72 8.72 0 0 1-4.54 1v-41a9.15 9.15 0 0 0 4.54-1.05l40.45-23.36a3.05 3.05 0 0 0 1.92-2.62z" transform="translate(-3.26 -.37)"/><path class="cls-6" d="M255.77 487.27a3.15 3.15 0 0 0 1.92 2.62l40.45 23.36a8.71 8.71 0 0 0 4.53 1v-41a9.14 9.14 0 0 1-4.53-1.05l-40.45-23.36a3.05 3.05 0 0 1-1.92-2.62z" transform="translate(-3.26 -.37)"/><path class="cls-5" d="M465.87 537.66l138.78-80.2a3 3 0 0 1 3 0l4 2.44c.87.52.87 1.22 0 1.74l-139 80.2a3 3 0 0 1-3 0l-4-2.27c-.65-.69-.65-1.57.22-1.91z" transform="translate(-3.26 -.37)"/><path class="cls-25" d="M509.63 432.36c-13.25 7.67-24.06 1.56-24.06-13.78 0-15.16 10.64-33.82 23.89-41.49s24.06-1.57 24.23 13.77c0 15.14-10.81 33.82-24.06 41.5zm4.53-83l-9.58 5.64a2.67 2.67 0 0 0-1.23 2.09v6.1a80.48 80.48 0 0 0-8.19 7.33l-2.62-3.67c-.17-.34-.69-.34-1-.17a2.49 2.49 0 0 1-.7.52l-8.37 10.29c-.52.7-.87 1.74-.52 2.27l2.61 3.66a104.06 104.06 0 0 0-6.1 10.46l-4.71-.35a1.33 1.33 0 0 0-.69.17 2.29 2.29 0 0 0-1 1.4l-4.71 12.38c-.34.87-.17 1.56.53 1.56l4.53.35a59.08 59.08 0 0 0-2.09 10.81l-5.41 3.14a2.67 2.67 0 0 0-1.22 2.09v11c0 .87.53 1 1.22.69l5.41-3.14a35.14 35.14 0 0 0 2.26 8.2L468 447.7c-.52.69-.87 1.74-.52 2.26l4.88 6.8c.17.35.7.35 1.05.18l.52-.53 4.53-5.75a19.28 19.28 0 0 0 6.1 3.49l-2.61 6.8c-.35.87-.18 1.57.52 1.74l8.37.7a1.28 1.28 0 0 0 .7-.18 2.23 2.23 0 0 0 1-1.39l2.62-6.8a33.69 33.69 0 0 0 8.37-2.27v6.11c0 .87.52 1 1.22.69l9.59-5.58a2.63 2.63 0 0 0 1.22-2.09v-6.1a64.89 64.89 0 0 0 8.19-7.32l2.62 3.83c.17.35.7.35 1 .18a2.31 2.31 0 0 1 .7-.52l8.37-10.29c.52-.7.87-1.74.52-2.27l-2.61-3.83a103.27 103.27 0 0 0 6.1-10.46l4.71.35a.62.62 0 0 0 .52-.18 1.83 1.83 0 0 0 1-1.39l4.7-12.38c.35-.87.18-1.57-.52-1.57l-4.53-.35a58.92 58.92 0 0 0 2.09-10.81l5.41-3.14a2.66 2.66 0 0 0 1.22-2.09v-11c0-.87-.53-1.05-1.22-.7l-5.32 3.16a37.39 37.39 0 0 0-2.27-8.2l4.54-5.57c.52-.7.87-1.75.52-2.27l-4.88-6.8c-.18-.35-.7-.35-1-.17a2.62 2.62 0 0 1-.69.52l-4.54 5.75a19 19 0 0 0-6.1-3.48l2.62-6.8c.34-.87.17-1.75-.53-1.75l-8.37-.69a1.31 1.31 0 0 0-.69.17 2.29 2.29 0 0 0-1.05 1.4l-2.61 6.79a33.46 33.46 0 0 0-8.37 2.27v-6.1c.47-.7-.23-1.07-.93-.7z" transform="translate(-3.26 -.37)"/><path class="cls-25" d="M522.36 352.33l-7.32-3L503.7 356l7.15 3.13zM534.56 349l-6.8-3.31 8.9.7 7.49 3.14zM546.24 352l7.33 3-5.93 6.45-6.64-3.88zM499 369.6l-6.79-3-9.95 11.4 7.5 2.62zM467.79 409l7.32 3 1.89-6-8-2.09zM471.62 440.38l-7.32-3-.35-5.93 7.32 1.92zM472.84 457.46l7.33 3-2.45-6.62-5.23-.35zM489.76 465.83l-7.33-3 1.22-3 7.85 2.62zM511.55 463l-7.5-3 .7-1.57 7.32-2.62zM561.94 374.83l-7.15-3-4.19 2.17 6.11 5.58zM534.21 445.78l-7.32-3 3.14-4.89 7.15 5.24zM558.8 403.42l-7.33-3.14-2.47 4.88 8.72 1z" transform="translate(-3.26 -.37)"/><path class="cls-26" d="M517 435.32c-13.25 7.67-24.06 1.57-24.06-13.77 0-15.17 10.64-33.82 23.89-41.5s24.06-1.56 24.23 13.78C541 409 530.2 427.65 517 435.32zm4.54-83l-9.59 5.58a2.66 2.66 0 0 0-1.22 2.1v6.1a80.44 80.44 0 0 0-8.2 7.32l-2.61-3.66c-.18-.35-.7-.35-1.05-.17a2.53 2.53 0 0 1-.7.52l-8.36 10.28c-.53.7-.88 1.75-.53 2.27l2.62 3.66a102.25 102.25 0 0 0-6.11 10.46l-4.7-.35a1.28 1.28 0 0 0-.7.18 2.27 2.27 0 0 0-1 1.39l-4.7 12.38c-.35.87-.18 1.57.52 1.57l4.53.35a59.6 59.6 0 0 0-2.09 10.81l-5.41 3.13a2.69 2.69 0 0 0-1.22 2.1v11c0 .87.53 1.05 1.22.7l5.41-3.14a34.56 34.56 0 0 0 2.27 8.19l-4.54 5.58c-.52.7-.87 1.74-.52 2.27l4.88 6.8c.18.35.7.35 1.05.17l.52-.52 4.53-5.75a19.39 19.39 0 0 0 6.11 3.48l-2.62 6.8c-.35.87-.17 1.57.53 1.74l8.36.7a1.35 1.35 0 0 0 .7-.17 2.32 2.32 0 0 0 1.05-1.4l2.61-6.8a33 33 0 0 0 8.37-2.26v6.1c0 .87.52 1 1.22.7l9.59-5.58a2.66 2.66 0 0 0 1.22-2.09v-6.11a79.26 79.26 0 0 0 8.2-7.32l2.61 3.84c.18.35.7.35 1 .17a2.42 2.42 0 0 1 .69-.52l8.37-10.29c.53-.7.88-1.74.53-2.26l-2.62-3.84a100.38 100.38 0 0 0 6.1-10.46l4.71.35a.61.61 0 0 0 .52-.18 1.77 1.77 0 0 0 1.05-1.39l4.71-12.38c.35-.87.17-1.57-.52-1.57l-4.54-.35a58.76 58.76 0 0 0 2.09-10.81l5.41-3.13a2.66 2.66 0 0 0 1.22-2.09v-11c0-.87-.52-1-1.22-.69l-5.46 3.17a37.7 37.7 0 0 0-2.26-8.19l4.53-5.58c.52-.7.87-1.74.52-2.27l-4.88-6.79c-.17-.35-.7-.35-1-.18a2.31 2.31 0 0 1-.7.52l-4.53 5.76a19.22 19.22 0 0 0-6.11-3.49l2.62-6.8c.35-.87.17-1.74-.52-1.74l-8.37-.7a1.35 1.35 0 0 0-.7.17 2.32 2.32 0 0 0-1 1.4l-2.61 6.8a33.41 33.41 0 0 0-8.37 2.26V353c.43-.67-.27-1-.96-.67z" transform="translate(-3.26 -.37)"/><path class="cls-25" d="M577.45 446.48c-9.41 5.4-17.08 1-17.08-9.77s7.49-24 17.08-29.46c9.42-5.4 17.09-1.05 17.09 9.76s-7.67 24.06-17.09 29.47zm3.32-58.93l-6.8 4a1.82 1.82 0 0 0-.88 1.57v4.36a55.55 55.55 0 0 0-5.92 5.23l-1.92-2.62a.54.54 0 0 0-.7 0c-.17 0-.35.18-.52.35l-5.93 7.32a1.9 1.9 0 0 0-.35 1.57l1.92 2.62c-1.57 2.44-3 4.88-4.36 7.49l-3.31-.17a.67.67 0 0 0-.53.17 1.79 1.79 0 0 0-.69.88l-3.49 8.68c-.17.53 0 1.22.35 1.22l3.31.35a61.77 61.77 0 0 0-1.57 7.67l-3.83 2.27a1.81 1.81 0 0 0-.87 1.57V450c0 .53.34.88.87.53l3.83-2.27a30.23 30.23 0 0 0 1.57 5.93l-3.31 4a1.89 1.89 0 0 0-.35 1.57l3.49 4.88a.79.79 0 0 0 .87 0 .38.38 0 0 0 .35-.35l3.31-4a13.25 13.25 0 0 0 4.36 2.44l-1.92 4.88c-.17.7-.17 1.22.35 1.22l5.93.53a.62.62 0 0 0 .52-.18 1.69 1.69 0 0 0 .7-.87l1.92-4.88a20.14 20.14 0 0 0 5.92-1.57v4.36c0 .52.35.87.88.52l6.8-4a1.84 1.84 0 0 0 .87-1.57v-4.36a55.64 55.64 0 0 0 5.93-5.23l1.91 2.62a.54.54 0 0 0 .7 0c.18 0 .35-.18.52-.35l5.93-7.32a1.86 1.86 0 0 0 .35-1.57l-1.92-2.62c1.57-2.44 3-4.88 4.36-7.49l3.31.34c.18 0 .35 0 .35-.17a1.78 1.78 0 0 0 .88-1.05l3.48-8.71c.18-.53 0-1.22-.35-1.22l-3.31-.35a60 60 0 0 0 1.57-7.67l3.84-2.27a1.84 1.84 0 0 0 .87-1.57v-7.84c0-.52-.35-.87-.87-.52l-3.84 2.18a29.54 29.54 0 0 0-1.57-5.93l3.31-4a1.86 1.86 0 0 0 .35-1.57l-3.44-4.86a.54.54 0 0 0-.7 0c-.18 0-.35.18-.53.35l-3.31 4a13.44 13.44 0 0 0-4.36-2.44l1.92-4.88c.18-.7.18-1.22-.35-1.22l-5.93-.52a.66.66 0 0 0-.52.17 1.78 1.78 0 0 0-.7.87l-1.91 4.88a42.56 42.56 0 0 0-5.93 1.57v-4.36c-.04-.51-.57-.86-.91-.51z" transform="translate(-3.26 -.37)"/><path class="cls-25" d="M586.52 389.64l-5.23-2.09-8 4.71 5.06 2.26zM595.06 387.38l-4.7-2.44 6.27.52 5.23 2.09zM603.43 389.3l5.23 2.09-4.18 4.7-4.71-2.61zM570 401.85l-5.06-2.09-7 8 5.4 1.92zM547.64 429.92l5.23 2.09 1.4-4.19-5.76-1.57zM550.43 452.23l-5.23-2.09-.35-4.19 5.23 1.4zM551.3 464.26l5.23 2.27-1.74-4.71-3.84-.35zM563.33 470.36l-5.23-2.09.87-2.09 5.58 1.74zM578.85 468.44l-5.41-2.26.53-1.05 5.23-1.92zM614.59 405.68l-5.06-2.09-3 1.39 4.36 4zM594.89 456.07l-5.06-2.1 2.09-3.48 5.06 3.66zM612.32 425.91l-5.23-2.1-1.74 3.32 6.28.69z" transform="translate(-3.26 -.37)"/><path class="cls-26" d="M582.68 448.57c-9.41 5.4-17.08 1-17.08-9.76s7.49-24.06 17.08-29.47c9.42-5.4 17.09-1 17.09 9.77s-7.67 24.06-17.09 29.46zm3.14-58.93l-6.8 4a1.84 1.84 0 0 0-.87 1.57v4.36a55.64 55.64 0 0 0-5.93 5.23l-1.92-2.61a.51.51 0 0 0-.69 0c-.18 0-.35.17-.52.34l-5.93 7.33a1.86 1.86 0 0 0-.35 1.57l1.92 2.61c-1.57 2.44-3 4.88-4.36 7.5l-3.32-.18a.63.63 0 0 0-.52.18 1.74 1.74 0 0 0-.7.87l-3.48 8.72c-.18.52 0 1.22.35 1.22l3.31.34a59.79 59.79 0 0 0-1.57 7.68l-3.84 2.26a1.84 1.84 0 0 0-.87 1.57v7.85c0 .52.35.87.87.52l3.84-2.27a29.37 29.37 0 0 0 1.57 5.93l-3.31 4a1.86 1.86 0 0 0-.35 1.57l3.48 4.88a.77.77 0 0 0 .88 0 .37.37 0 0 0 .34-.35l3.32-4a13.25 13.25 0 0 0 4.36 2.44l-1.92 4.88c-.18.7-.18 1.23.35 1.23l5.93.52a.63.63 0 0 0 .52-.18 1.67 1.67 0 0 0 .69-.87l1.92-4.88a19.89 19.89 0 0 0 5.93-1.57v4.36c0 .52.35.87.87.52l6.8-4a1.81 1.81 0 0 0 .87-1.57v-4.35a55.78 55.78 0 0 0 5.93-5.23l1.92 2.61a.52.52 0 0 0 .7 0c.17 0 .35-.17.52-.35l5.93-7.32A1.89 1.89 0 0 0 602 447l-1.92-2.61c1.57-2.44 3-4.89 4.36-7.5l3.31.35c.18 0 .35 0 .35-.18a1.75 1.75 0 0 0 .87-1l3.49-8.72c.17-.52 0-1.22-.35-1.22l-3.31-.35a61.4 61.4 0 0 0 1.57-7.67l3.83-2.27a1.8 1.8 0 0 0 .87-1.56v-7.85c0-.52-.34-.87-.87-.52l-3.83 2.26a29.94 29.94 0 0 0-1.57-5.92l3.31-4a1.9 1.9 0 0 0 .35-1.57l-3.46-4.94a.54.54 0 0 0-.7 0c-.17 0-.34.18-.52.35l-3.31 4a13.62 13.62 0 0 0-4.36-2.44l1.92-4.88c.17-.7.17-1.22-.35-1.22l-5.93-.52a.64.64 0 0 0-.52.17 1.83 1.83 0 0 0-.7.87l-1.91 4.94a42.83 42.83 0 0 0-5.93 1.56v-4.35c.18-.57-.34-.74-.87-.57z" transform="translate(-3.26 -.37)"/></g></svg>