<svg xmlns="http://www.w3.org/2000/svg" x="0px" y="0px"
width="50" height="50"
viewBox="0 0 172 172"
style=" fill:#000000;"><g fill="none" fill-rule="nonzero" stroke="none" stroke-width="1" stroke-linecap="butt" stroke-linejoin="miter" stroke-miterlimit="10" stroke-dasharray="" stroke-dashoffset="0" font-family="none" font-weight="none" font-size="none" text-anchor="none" style="mix-blend-mode: normal"><path d="M0,172v-172h172v172z" fill="none"></path><g fill="#0c314b"><path d="M81.17594,6.88c-1.66625,-0.01344 -3.10406,1.1825 -3.39969,2.82188l-1.88125,10.29312c-1.6125,0.52406 -3.17125,1.15563 -4.70312,1.90813l-8.45219,-6.10063c-1.35719,-0.98094 -3.23844,-0.84656 -4.42094,0.34938l-7.35031,7.22937c-1.1825,1.1825 -1.35719,3.03688 -0.40312,4.4075l5.93937,8.6c-0.77937,1.51844 -1.43781,3.07719 -1.96187,4.67625l-10.30656,1.66625c-1.65281,0.25531 -2.87562,1.67969 -2.88906,3.37281l-0.06719,10.32c-0.01344,1.66625 1.1825,3.10406 2.82188,3.39969l10.33344,1.88125c0.51062,1.59906 1.15562,3.14438 1.90812,4.66281l-6.14094,8.4925c-0.98094,1.35719 -0.84656,3.23844 0.33594,4.43437l7.25625,7.33688c1.16906,1.1825 3.02344,1.35719 4.39406,0.40312l8.7075,-5.99312c1.505,0.76594 3.05031,1.3975 4.63594,1.92156l1.77375,10.4275c0.28219,1.65281 1.69313,2.86219 3.37281,2.87562l10.30656,0.05375c1.69312,0.01344 3.13094,-1.20937 3.41312,-2.86219l1.76031,-10.41406c1.57219,-0.51062 3.10406,-1.12875 4.59563,-1.88125l8.64031,6.14094c1.37063,0.9675 3.225,0.80625 4.4075,-0.36281l7.35031,-7.24281c1.19594,-1.1825 1.35719,-3.06375 0.37625,-4.44781l-6.1275,-8.6c0.76594,-1.49156 1.41094,-3.01 1.935,-4.56875l10.46781,-1.77375c1.63937,-0.28219 2.84875,-1.70656 2.86219,-3.38625l0.05375,-10.30656c0.01344,-1.67969 -1.19594,-3.1175 -2.86219,-3.39969l-10.37375,-1.76031c-0.51063,-1.58562 -1.14219,-3.13094 -1.88125,-4.64937l6.10062,-8.61344c0.98094,-1.35719 0.83313,-3.21156 -0.34937,-4.4075l-7.25625,-7.33688c-1.1825,-1.1825 -3.06375,-1.35719 -4.43438,-0.37625l-8.51937,6.04688c-1.505,-0.76594 -3.03688,-1.41094 -4.60906,-1.935l-1.66625,-10.34688c-0.26875,-1.66625 -1.69312,-2.88906 -3.38625,-2.9025zM84.02469,13.77344l4.515,0.02688l1.49156,9.29875c0.215,1.35719 1.22281,2.44562 2.53969,2.78156c2.52625,0.645 4.95844,1.67969 7.24281,3.06375c1.16906,0.72562 2.66063,0.67187 3.77594,-0.12094l7.67281,-5.44219l3.17125,3.19813l-5.52281,7.74c-0.77937,1.11531 -0.84656,2.58 -0.14781,3.74906c1.35719,2.29781 2.35156,4.74344 2.94281,7.25625c0.3225,1.34375 1.41094,2.365 2.78156,2.60688l9.33906,1.57219l-0.02688,4.50156l-9.43312,1.58562c-1.34375,0.22844 -2.43219,1.23625 -2.76813,2.55313c-0.63156,2.49937 -1.63937,4.91812 -3.02344,7.17562c-0.71219,1.1825 -0.65844,2.67406 0.14781,3.78938l5.49594,7.75344l-3.18469,3.15781l-7.80719,-5.53625c-1.11531,-0.79281 -2.58,-0.84656 -3.74906,-0.14781c-2.28438,1.35719 -4.70313,2.32469 -7.21594,2.94281c-1.34375,0.3225 -2.35156,1.41094 -2.58,2.76812l-1.58563,9.37938l-4.48812,-0.04031l-1.58563,-9.40625c-0.22844,-1.34375 -1.23625,-2.43219 -2.58,-2.75469c-2.48594,-0.61813 -4.93156,-1.63938 -7.21594,-3.01c-1.15563,-0.69875 -2.62031,-0.65844 -3.73563,0.12094l-7.83406,5.40188l-3.17125,-3.21156l5.52281,-7.6325c0.80625,-1.11531 0.87344,-2.60688 0.16125,-3.78938c-1.35719,-2.29781 -2.35156,-4.74344 -2.96969,-7.26969c-0.3225,-1.31687 -1.38406,-2.32469 -2.72781,-2.58l-9.29875,-1.67969l0.04031,-4.515l9.25844,-1.49156c1.35719,-0.215 2.45906,-1.22281 2.795,-2.55312c0.645,-2.53969 1.65281,-4.98531 3.05031,-7.26969c0.71219,-1.15562 0.67188,-2.63375 -0.1075,-3.74906l-5.33469,-7.74l3.19812,-3.17125l7.60563,5.4825c1.10187,0.80625 2.58,0.87344 3.7625,0.18812c2.31125,-1.38406 4.77031,-2.365 7.31,-2.98312c1.33031,-0.30906 2.33812,-1.38406 2.58,-2.71438zM85.95969,34.52094c-4.42094,-0.02687 -8.85531,1.62594 -12.22812,4.97188c-6.74563,6.665 -6.79938,17.64344 -0.13438,24.4025c6.665,6.74562 17.65688,6.79937 24.4025,0.13437c6.74563,-6.665 6.79938,-17.65687 0.13438,-24.4025c-3.3325,-3.37281 -7.75344,-5.07937 -12.17438,-5.10625zM85.93281,41.36063c2.64719,0.01344 5.28094,1.04812 7.31,3.10406c4.05812,4.09844 4.01781,10.61563 -0.08063,14.66031c-4.09844,4.05813 -10.61562,4.03125 -14.67375,-0.06719c-4.05812,-4.11188 -4.01781,-10.62906 0.08063,-14.67375c2.05594,-2.02906 4.70312,-3.03688 7.36375,-3.02344zM49.61125,96.32c-8.97625,0 -13.115,2.15 -17.57625,3.87c0,0.01344 0,0.01344 0,0.01344c-8.55969,3.3325 -23.20656,10.23938 -23.20656,10.23938c-1.72,0.80625 -2.45906,2.86219 -1.65281,4.58219c0.81969,1.72 2.87562,2.45906 4.59562,1.65281c0,0 14.74094,-6.94719 22.74969,-10.06469c4.945,-1.92156 7.095,-3.41313 15.09031,-3.41313c17.64344,0 16.93125,7.65938 24.37563,12.04c0.1075,0.06719 0.22844,0.13438 0.34937,0.17469c9.23156,4.13875 19.14844,4.98531 27.14375,4.98531c3.53406,0 5.76469,0.81969 6.97406,1.73344c1.19594,0.92719 1.62594,1.88125 1.62594,3.42656c0,1.81406 -0.45687,2.67406 -1.65281,3.5475c-1.1825,0.86 -3.46687,1.6125 -6.94719,1.6125h-18.06c-7.57875,0 -20.62656,-3.3325 -20.62656,-3.3325c-1.1825,-0.3225 -2.45906,0.02688 -3.3325,0.90031c-0.87344,0.87344 -1.20937,2.15 -0.88687,3.3325c0.33594,1.19594 1.27656,2.12312 2.4725,2.43219c0,0 12.94031,3.5475 22.37344,3.5475h18.06c3.50719,0 6.5575,-0.57781 9.11063,-1.84094c0.33594,-0.09406 0.65844,-0.24188 0.94062,-0.44344l32.62625,-21.40594c4.90469,-2.83531 8.25063,-3.62812 10.2125,-3.60125c1.96188,0.04031 2.63375,0.63156 3.225,1.38406c0.87344,1.12875 0.92719,1.55875 0.36281,2.86219c-0.57781,1.31688 -2.2575,3.34594 -5.28094,5.44219c0,0 0,0 -0.01344,0c-3.73562,2.60687 -45.51281,29.83125 -50.33687,32.5725c-3.64156,2.06937 -6.53063,4.24625 -9.82281,5.17344c-3.29219,0.91375 -7.17562,0.91375 -13.59875,-2.15c-4.28656,-2.05594 -22.53469,-11.40844 -28.44719,-14.405c-3.29219,-1.66625 -6.10063,-2.60688 -8.96281,-2.44563c-2.87562,0.16125 -5.30781,1.38406 -7.82062,2.96969c-0.01344,0 -0.02688,0.01344 -0.02688,0.02687l-8.51937,5.44219c-1.075,0.645 -1.70656,1.8275 -1.66625,3.07719c0.04031,1.24969 0.76594,2.37844 1.88125,2.94281c1.12875,0.56438 2.45906,0.48375 3.49375,-0.22844l8.47906,-5.42875c2.19031,-1.37062 3.42656,-1.86781 4.55531,-1.935c1.12875,-0.06719 2.67406,0.29563 5.4825,1.72c5.85875,2.96969 23.82469,12.18781 28.595,14.45875c7.48469,3.58781 13.545,3.92375 18.39594,2.58c4.85094,-1.35719 8.30438,-4.07156 11.38156,-5.81844c6.63813,-3.77594 46.07719,-29.57594 50.87438,-32.90844c3.64156,-2.53969 6.31562,-5.18688 7.67281,-8.35813c1.35719,-3.17125 0.91375,-7.04125 -1.24969,-9.80937c0,0 0,0 0,-0.01344c-1.70656,-2.17687 -4.73,-3.95062 -8.53281,-4.03125c-2.16344,-0.04031 -4.56875,0.45688 -7.24281,1.43781c-0.49719,-0.65844 -1.24969,-1.51844 -2.28438,-2.27094c-2.00219,-1.49156 -5.18687,-2.83531 -9.51375,-2.83531c-2.21719,0 -4.03125,0.51063 -5.4825,1.11531c-2.06937,-1.97531 -5.73781,-4.48813 -11.0725,-4.48813c-4.32687,0 -8.385,1.45125 -11.20687,3.1175c-0.52406,0.30906 -1.78719,1.10188 -3.93719,2.44563c-2.15,1.34375 -4.95844,3.07719 -7.72656,4.81062c-4.42094,2.75469 -7.16219,4.47469 -8.74781,5.46906c-3.37281,-0.67187 -6.74563,-1.62594 -9.93031,-3.02344c-2.71437,-1.74688 -7.94156,-12.88656 -27.735,-12.88656zM118.895,103.26719c2.17688,0 3.73563,0.55094 4.8375,1.19594l-15.91,9.86312c-1.89469,-0.5375 -4.01781,-0.80625 -6.3425,-0.80625c-0.99437,0 -2.08281,-0.06719 -3.1175,-0.1075c0.645,-0.40312 0.645,-0.40312 1.30344,-0.80625c2.76813,-1.73344 5.56313,-3.48031 7.72656,-4.82406c2.15,-1.33031 3.91031,-2.41875 3.78938,-2.35156c1.62594,-0.9675 5.16,-2.16344 7.71312,-2.16344zM135.45,106.64c2.795,0 4.3,0.71219 5.21375,1.34375c-0.05375,0.02688 -0.09406,0.05375 -0.14781,0.09406l-23.77094,15.5875c-0.3225,-1.92156 -1.11531,-3.7625 -2.37844,-5.29438l16.62219,-10.30656l0.01344,-0.02688c0.13438,-0.06719 3.01,-1.3975 4.44781,-1.3975z"></path></g></g></svg>