 <svg xmlns="http://www.w3.org/2000/svg" width="64" height="64" viewBox="0 0 172 172"><defs><linearGradient x1="29.563" y1="81.52" x2="29.563" y2="137.965" gradientUnits="userSpaceOnUse" id="a"><stop offset="0" stop-color="#2d4787"/><stop offset="1" stop-color="#2d4787"/></linearGradient><linearGradient x1="112.875" y1="22.701" x2="112.875" y2="156.845" gradientUnits="userSpaceOnUse" id="b"><stop offset="0" stop-color="#111b33"/><stop offset="1" stop-color="#111b33"/></linearGradient><linearGradient x1="86" y1="22.701" x2="86" y2="156.845" gradientUnits="userSpaceOnUse" id="c"><stop offset="0" stop-color="#111b33"/><stop offset="1" stop-color="#111b33"/></linearGradient><linearGradient x1="112.875" y1="22.701" x2="112.875" y2="156.845" gradientUnits="userSpaceOnUse" id="d"><stop offset="0" stop-color="#111b33"/><stop offset="1" stop-color="#111b33"/></linearGradient><linearGradient x1="51.006" y1="15.453" x2="51.006" y2="61.159" gradientUnits="userSpaceOnUse" id="e"><stop offset="0" stop-color="#2d4787"/><stop offset="1" stop-color="#2d4787"/></linearGradient></defs><g fill="none" stroke-miterlimit="10" font-family="none" font-weight="none" font-size="none" text-anchor="none" style="mix-blend-mode:normal"><path d="M0 172V0h172v172z"/><path transform="scale(2.6875)" fill="url(#a)" d="M8 31h6v19H8z"/><path d="M112.875 75.25c8.893 0 16.125-7.232 16.125-16.125S121.768 43 112.875 43 96.75 50.232 96.75 59.125s7.232 16.125 16.125 16.125zm0-26.875c5.929 0 10.75 4.821 10.75 10.75s-4.821 10.75-10.75 10.75-10.75-4.821-10.75-10.75 4.821-10.75 10.75-10.75z" fill="url(#b)"/><path d="M151.648 104.315c-2.519-1.862-5.88-2.405-9.232-1.478l-41.09 11.36a10.71 10.71 0 0 0 .799-4.034c0-5.915-4.821-10.726-10.75-10.726h-25.2c-1.79-2.687-6.349-10.75-12.425-10.75H43V86c0-4.445-3.617-8.063-8.063-8.063h-10.75c-4.445 0-8.062 3.618-8.062 8.063v45.688c0 4.445 3.617 8.062 8.062 8.062h10.75c4.446 0 8.063-3.615 8.063-8.063v-2.02l32.624 22.042a24.31 24.31 0 0 0 13.639 4.166c4.412 0 8.833-1.188 12.744-3.577l48.84-29.834a10.552 10.552 0 0 0 5.028-8.957v-.842c0-3.308-1.54-6.35-4.227-8.35zM37.625 131.688a2.69 2.69 0 0 1-2.688 2.687H32.25v-10.75h-5.375v10.75h-2.688a2.69 2.69 0 0 1-2.687-2.688V86a2.69 2.69 0 0 1 2.688-2.688h10.75A2.692 2.692 0 0 1 37.624 86zM150.5 113.507c0 1.773-.94 3.448-2.454 4.372l-48.84 29.831c-6.356 3.878-14.429 3.704-20.57-.454L43 123.182v-29.12h10.75c2.846 0 6.635 5.467 8.299 9.162l.715 1.588h28.611c2.964 0 5.375 2.4 5.375 5.349 0 2.977-2.41 5.401-5.375 5.401H64.5v5.375h32.25l47.096-12.918c1.722-.479 3.44-.25 4.595.615 1.31.97 2.059 2.44 2.059 4.031z" fill="url(#c)"/><path d="M86 69.875h.924l-.653.653a10.668 10.668 0 0 0-3.15 7.6c0 2.87 1.119 5.569 3.15 7.6a10.677 10.677 0 0 0 7.6 3.15c2.874 0 5.572-1.118 7.6-3.15l.654-.652V86c0 5.929 4.821 10.75 10.75 10.75s10.75-4.821 10.75-10.75v-.924l.653.653a10.668 10.668 0 0 0 7.6 3.15c2.87 0 5.569-1.119 7.6-3.15a10.677 10.677 0 0 0 3.15-7.6c0-2.874-1.118-5.572-3.15-7.6l-.653-.654h.925c5.929 0 10.75-4.821 10.75-10.75s-4.821-10.75-10.75-10.75h-.925l.654-.653a10.668 10.668 0 0 0 3.15-7.6c0-2.87-1.119-5.569-3.15-7.6-4.067-4.067-11.146-4.061-15.2 0l-.654.652v-.924c0-5.929-4.821-10.75-10.75-10.75s-10.75 4.821-10.75 10.75v.924l-.653-.653c-4.056-4.06-11.14-4.066-15.2 0a10.677 10.677 0 0 0-3.15 7.6c0 2.874 1.118 5.572 3.15 7.6l.652.654H86c-5.929 0-10.75 4.821-10.75 10.75s4.821 10.75 10.75 10.75zm11.672 12.053c-2.032 2.032-5.569 2.032-7.6 0a5.338 5.338 0 0 1-1.575-3.8c0-1.435.559-2.784 1.575-3.8l.405-.406a26.66 26.66 0 0 0 7.6 7.6zm38.006 0c-2.031 2.032-5.568 2.032-7.6 0l-.406-.405a26.66 26.66 0 0 0 7.6-7.6l.406.405a5.338 5.338 0 0 1 1.575 3.8 5.338 5.338 0 0 1-1.575 3.8zm-7.6-45.606c2.032-2.032 5.569-2.032 7.6 0a5.338 5.338 0 0 1 1.575 3.8 5.338 5.338 0 0 1-1.575 3.8l-.405.406a26.66 26.66 0 0 0-7.6-7.6zm-38.006 0c2.031-2.032 5.568-2.032 7.6 0l.406.405a26.66 26.66 0 0 0-7.6 7.6l-.406-.405a5.338 5.338 0 0 1-1.575-3.8c0-1.435.559-2.785 1.575-3.8zM86 53.75h5.993l.632-1.793a21.39 21.39 0 0 1 13.08-13.08l1.795-.634V32.25a5.38 5.38 0 0 1 5.375-5.375 5.38 5.38 0 0 1 5.375 5.375v5.993l1.793.632a21.39 21.39 0 0 1 13.08 13.08l.634 1.795h5.993a5.38 5.38 0 0 1 5.375 5.375 5.38 5.38 0 0 1-5.375 5.375h-5.993l-.632 1.793a21.39 21.39 0 0 1-13.08 13.08l-1.795.634V86a5.38 5.38 0 0 1-5.375 5.375A5.38 5.38 0 0 1 107.5 86v-5.993l-1.793-.632a21.39 21.39 0 0 1-13.08-13.08l-.634-1.795H86a5.38 5.38 0 0 1-5.375-5.375A5.38 5.38 0 0 1 86 53.75z" fill="url(#d)"/><path d="M68.475 32.25h-.565c-1.45 0-2.176-1.747-1.155-2.768l.403-.403c1.586-1.586 1.586-4.139 0-5.698l-1.908-1.908c-1.559-1.585-4.112-1.585-5.698 0l-.403.403c-1.021 1.022-2.768.296-2.768-1.155v-.565c0-2.23-1.8-4.031-4.031-4.031h-2.688c-2.23 0-4.03 1.8-4.03 4.031v.565c0 1.45-1.748 2.177-2.77 1.155l-.402-.403c-1.586-1.585-4.139-1.585-5.698 0l-1.908 1.908c-1.585 1.559-1.585 4.112 0 5.698l.403.403c1.022 1.021.296 2.768-1.155 2.768h-.565c-2.23 0-4.03 1.8-4.03 4.031v2.688c0 2.23 1.8 4.031 4.03 4.031h.565c1.45 0 2.177 1.747 1.155 2.768l-.403.403c-1.585 1.586-1.585 4.139 0 5.698l1.908 1.908c1.56 1.586 4.112 1.586 5.698 0l.403-.403c1.021-1.021 2.768-.296 2.768 1.155v.565c0 2.23 1.8 4.031 4.031 4.031h2.688c2.23 0 4.031-1.8 4.031-4.031v-.565c0-1.45 1.747-2.176 2.768-1.155l.403.403c1.586 1.586 4.14 1.586 5.698 0l1.908-1.908c1.586-1.559 1.586-4.112 0-5.698l-.403-.403C65.734 44.747 66.459 43 67.91 43h.565c2.23 0 4.031-1.8 4.031-4.031V36.28c0-2.23-1.8-4.031-4.031-4.031zM51.006 45.688a8.052 8.052 0 0 1-8.062-8.063 8.052 8.052 0 0 1 8.062-8.063 8.052 8.052 0 0 1 8.063 8.063 8.052 8.052 0 0 1-8.063 8.063z" fill="url(#e)"/></g></svg>