 <svg width="736" height="435" fill="none" xmlns="http://www.w3.org/2000/svg"><path d="M112.366 40.305C218.208 1.02 325.782 35.77 398.712 111.44c72.955 75.668 226.05-52.23 307.259 23.312 55.404 51.566 30.033 184.1-45.954 241.526-103.269 78.038-417.355 38.446-485.292 25.172-78.28-15.312-135.492-61.732-158.75-118.063-56.015-135.769 49.622-225.705 96.391-243.08z" fill="#1E3448"/><path d="M474.112 94.904c.356-3.21.56-6.446.56-9.758 0-1.733-.051-3.465-.153-5.172l-16.124-5.223a70.555 70.555 0 0 0-5.706-19.312l10.698-13.146a87.016 87.016 0 0 0-8.457-12.306l-16.124 5.248a72.146 72.146 0 0 0-15.947-12.28l.917-16.942a88.537 88.537 0 0 0-14.061-4.994l-10.011 13.758a70.788 70.788 0 0 0-11.921-.994c-2.777 0-5.503.153-8.203.459L370.359 0a84.28 84.28 0 0 0-14.316 4.23l.025 16.967c-6.062 3.007-11.641 6.88-16.583 11.414l-15.819-6.114a87.721 87.721 0 0 0-9.119 11.847l9.985 13.706a71.032 71.032 0 0 0-6.725 18.981l-16.379 4.357a87.969 87.969 0 0 0-.56 9.758c0 1.732.051 3.465.153 5.172l16.124 5.223a70.567 70.567 0 0 0 5.706 19.312l-10.699 13.146a87.08 87.08 0 0 0 8.457 12.306l16.125-5.249a72.115 72.115 0 0 0 15.946 12.28l-.917 16.943a88.582 88.582 0 0 0 14.062 4.994l9.96-13.733c3.872.663 7.871.994 11.921.994a72.69 72.69 0 0 0 8.203-.459l9.221 14.242a84.306 84.306 0 0 0 14.316-4.229l-.026-16.968c6.063-3.007 11.642-6.879 16.584-11.414l15.818 6.114a87.578 87.578 0 0 0 9.12-11.847l-9.986-13.706a70.973 70.973 0 0 0 6.725-18.981l16.431-4.382zm-86.329 24.331c-18.825 0-34.084-15.261-34.084-34.09 0-18.827 15.259-34.088 34.084-34.088 18.824 0 34.083 15.26 34.083 34.089 0 18.828-15.259 34.089-34.083 34.089z" fill="#9EC8FF"/><path d="M434.271 124.024c-.28 0-.586-.101-.815-.305a1.26 1.26 0 0 1-.153-1.784c8.559-10.293 13.272-23.363 13.272-36.79 0-6.42-1.045-12.738-3.134-18.75a1.29 1.29 0 0 1 .79-1.631 1.29 1.29 0 0 1 1.63.79 59.975 59.975 0 0 1 3.261 19.592 60.257 60.257 0 0 1-13.858 38.42c-.28.306-.636.458-.993.458zM429.33 43.566c-.306 0-.637-.127-.866-.356a57.06 57.06 0 0 0-19.819-12.204c-.662-.23-.993-.968-.764-1.63.229-.663.968-.994 1.63-.765a59.789 59.789 0 0 1 20.685 12.739c.509.484.535 1.3.051 1.809-.255.28-.586.407-.917.407zM374.562 29.376c-.56 0-1.095-.383-1.222-.969a1.268 1.268 0 0 1 .917-1.554 59.674 59.674 0 0 1 14.749-1.834c.713 0 1.273.56 1.273 1.274 0 .713-.56 1.274-1.273 1.274-4.789 0-9.527.586-14.138 1.758a1.28 1.28 0 0 1-.306.05z" fill="#fff"/><path d="M200.223 310.698a59.24 59.24 0 0 0 .382-6.751c0-1.198-.051-2.395-.102-3.593l-11.157-3.618a49.192 49.192 0 0 0-3.949-13.375l7.413-9.121a61.036 61.036 0 0 0-5.859-8.535l-11.157 3.643a49.993 49.993 0 0 0-11.055-8.509l.636-11.745c-3.107-1.427-6.368-2.574-9.756-3.465l-6.903 9.528a49.046 49.046 0 0 0-8.254-.688c-1.91 0-3.821.102-5.68.332l-6.394-9.86a59.144 59.144 0 0 0-9.909 2.93l.025 11.745a49.748 49.748 0 0 0-11.488 7.898l-10.954-4.229a63.804 63.804 0 0 0-6.317 8.203l6.903 9.503a49.543 49.543 0 0 0-4.661 13.147l-11.336 3.006a59.327 59.327 0 0 0-.382 6.752c0 1.197.051 2.395.102 3.592l11.157 3.618a49.202 49.202 0 0 0 3.949 13.375l-7.413 9.121a60.976 60.976 0 0 0 5.859 8.535l11.157-3.643a49.997 49.997 0 0 0 11.055 8.51l-.636 11.745c3.107 1.426 6.368 2.573 9.756 3.465l6.903-9.529c2.7.459 5.451.688 8.254.688 1.91 0 3.821-.102 5.68-.331l6.394 9.86a59.238 59.238 0 0 0 9.909-2.93l-.025-11.745a49.783 49.783 0 0 0 11.488-7.899l10.953 4.23a63.807 63.807 0 0 0 6.318-8.204l-6.903-9.503a49.558 49.558 0 0 0 4.661-13.146l11.336-3.007zm-59.786 16.866c-13.042 0-23.614-10.573-23.614-23.617 0-13.045 10.572-23.618 23.614-23.618 13.042 0 23.614 10.573 23.614 23.618 0 13.044-10.597 23.617-23.614 23.617z" fill="#9EC8FF"/><path d="M172.609 331.258c-.28 0-.586-.101-.815-.305a1.259 1.259 0 0 1-.153-1.784c5.884-7.057 9.119-16.025 9.119-25.222 0-4.408-.713-8.739-2.139-12.867a1.288 1.288 0 0 1 .789-1.63 1.29 1.29 0 0 1 1.631.79c1.503 4.407 2.292 8.993 2.292 13.681 0 9.809-3.439 19.338-9.705 26.853-.28.332-.637.484-1.019.484zM169.197 275.539c-.306 0-.637-.127-.867-.357a39.502 39.502 0 0 0-13.577-8.382c-.662-.229-.993-.968-.764-1.63.229-.663.968-.994 1.63-.765 5.401 1.962 10.266 4.969 14.469 8.918.51.484.535 1.299.051 1.808a1.234 1.234 0 0 1-.942.408zM131.267 265.705c-.561 0-1.096-.382-1.223-.968a1.268 1.268 0 0 1 .917-1.554 42.52 42.52 0 0 1 10.317-1.274c.713 0 1.273.56 1.273 1.274a1.26 1.26 0 0 1-1.273 1.273c-3.287 0-6.547.408-9.68 1.198-.128.051-.23.051-.331.051z" fill="#fff"/><path d="M526.154 159.82c0-.662-.025-1.324-.051-1.961l8.355-6.726a44.848 44.848 0 0 0-3.031-9.605l-10.801-.816a35.735 35.735 0 0 0-9.348-9.911l-.026-10.777a44.406 44.406 0 0 0-9.578-3.694l-7.387 7.949a39.132 39.132 0 0 0-3.872-.204c-3.261 0-6.394.434-9.4 1.249l-8.457-6.701a44.038 44.038 0 0 0-8.941 5.198l1.605 10.675a35.706 35.706 0 0 0-7.54 11.006l-10.521 2.446a44.602 44.602 0 0 0-1.554 10.14l9.273 5.376a35.921 35.921 0 0 0 3.974 13.121l-4.637 9.732a43.87 43.87 0 0 0 6.827 7.414l9.935-3.898a35.171 35.171 0 0 0 13.119 5.197l4.687 9.656c.56.026 1.12.026 1.681.026 2.802 0 5.553-.255 8.228-.765l3.158-10.216c4.611-1.554 8.789-4 12.33-7.159l10.444 2.344a45.446 45.446 0 0 0 5.578-8.23l-6.062-8.891c1.273-3.771 2.012-7.796 2.012-11.975zm-36.147 15.745c-8.304 0-15.054-6.751-15.054-15.057 0-8.305 6.75-15.057 15.054-15.057 8.305 0 15.055 6.752 15.055 15.057 0 8.306-6.75 15.057-15.055 15.057z" fill="#9EC8FF"/><path opacity=".8" d="M665.341 73.07h-12.94c-4.993 0-9.068-4.077-9.068-9.07V51.057c0-4.994 4.075-9.07 9.068-9.07h12.94c4.993 0 9.069 4.076 9.069 9.07V64c-.025 4.993-4.076 9.07-9.069 9.07zm-12.94-27.516a5.512 5.512 0 0 0-5.502 5.503V64a5.512 5.512 0 0 0 5.502 5.503h12.94A5.512 5.512 0 0 0 670.844 64V51.057a5.513 5.513 0 0 0-5.503-5.503h-12.94zM604.435 73.07h-12.941c-4.992 0-9.068-4.077-9.068-9.07V51.057c0-4.994 4.076-9.07 9.068-9.07h12.941c4.992 0 9.068 4.076 9.068 9.07V64c0 4.993-4.076 9.07-9.068 9.07zm-12.941-27.516a5.512 5.512 0 0 0-5.502 5.503V64a5.512 5.512 0 0 0 5.502 5.503h12.941A5.512 5.512 0 0 0 609.937 64V51.057a5.512 5.512 0 0 0-5.502-5.503h-12.941z" fill="#9EC8FF"/><path d="M598.78 65.528h-.077a1.54 1.54 0 0 1-1.146-.586l-9.298-12.127a1.536 1.536 0 0 1 .28-2.14 1.535 1.535 0 0 1 2.14.28l8.203 10.7L620.305 38.7c.586-.611 1.554-.662 2.165-.076.611.586.662 1.554.076 2.165l-22.645 24.28c-.306.28-.714.46-1.121.46z" fill="#F37168"/><path d="M708.11 407.309c-52.984-2.599-233.208 1.809-288.001 3.516-54.818 1.707-118.425-2.268-151.489-8.102-33.039-5.834-224.09.484-215.403 16.178 8.661 15.694 85.107 7.006 171.792 13.325 86.686 6.318 281.659-.79 325.626 0 43.967.79 84.316-1.58 140.969-4.739 56.652-3.159 47.202-18.675 16.506-20.178z" fill="#CCE2FF"/><path d="M166.599 79.235H55.867v181.553h110.732V79.235z" fill="#99BBEB"/><path d="M162.982 82.955H61.674v170.928h101.308V82.955z" fill="#fff" fill-opacity=".7"/><path d="M125.46 173.731H99.477a3.039 3.039 0 0 1-3.031-3.032 3.039 3.039 0 0 1 3.031-3.032h25.983a3.039 3.039 0 0 1 3.031 3.032 3.022 3.022 0 0 1-3.031 3.032zM130.223 183.03h-35.51a3.038 3.038 0 0 1-3.03-3.031 3.038 3.038 0 0 1 3.03-3.032h35.51a3.04 3.04 0 0 1 3.032 3.032c0 1.656-1.376 3.031-3.032 3.031zM155.671 216.431h-86.38a1.76 1.76 0 0 1-1.758-1.758c0-.968.79-1.758 1.758-1.758h86.38c.968 0 1.758.79 1.758 1.758 0 .969-.816 1.758-1.758 1.758zM155.671 224.584h-86.38c-.968 0-1.758-.79-1.758-1.758s.79-1.758 1.758-1.758h86.38c.968 0 1.758.79 1.758 1.758-.026.968-.816 1.758-1.758 1.758zM155.671 232.737h-86.38c-.968 0-1.758-.79-1.758-1.758s.79-1.758 1.758-1.758h86.38c.968 0 1.758.79 1.758 1.758-.026.968-.816 1.758-1.758 1.758zM143.571 153.502H81.366a3.131 3.131 0 0 1-3.134-3.134v-57.35a3.131 3.131 0 0 1 3.134-3.133h62.205a3.131 3.131 0 0 1 3.134 3.133v57.35a3.131 3.131 0 0 1-3.134 3.134zm-62.205-61.07a.593.593 0 0 0-.586.586v57.35c0 .306.254.586.586.586h62.205a.593.593 0 0 0 .586-.586v-57.35a.592.592 0 0 0-.586-.586H81.366zM90.332 190.903l1.808 3.643 4.025.586-2.904 2.854.688 4-3.617-1.886-3.592 1.886.688-4-2.904-2.854 4.025-.586 1.783-3.643zM105.106 190.903l1.783 3.643 4.025.586-2.904 2.854.688 4-3.592-1.886-3.617 1.886.688-4-2.904-2.854 4.025-.586 1.808-3.643zM119.855 190.903l1.783 3.643 4.05.586-2.929 2.854.688 4-3.592-1.886-3.617 1.886.687-4-2.904-2.854 4.025-.586 1.809-3.643zM134.604 190.903l1.809 3.643 4.025.586-2.93 2.854.688 4-3.592-1.886-3.617 1.886.713-4-2.929-2.854 4.025-.586 1.808-3.643zM413.486 79.235H302.754v181.553h110.732V79.235z" fill="#99BBEB"/><path d="M409.869 82.955H308.562v170.928h101.307V82.955z" fill="#fff" fill-opacity=".7"/><path d="M372.348 173.731h-25.983a3.04 3.04 0 0 1-3.032-3.032 3.04 3.04 0 0 1 3.032-3.032h25.983a3.04 3.04 0 0 1 3.031 3.032 3.022 3.022 0 0 1-3.031 3.032zM377.11 183.03h-35.509a3.039 3.039 0 0 1-3.032-3.031 3.038 3.038 0 0 1 3.032-3.032h35.509a3.04 3.04 0 0 1 3.032 3.032 3.038 3.038 0 0 1-3.032 3.031zM402.559 216.431h-86.38c-.968 0-1.758-.79-1.758-1.758s.79-1.758 1.758-1.758h86.38c.968 0 1.757.79 1.757 1.758a1.76 1.76 0 0 1-1.757 1.758zM402.559 224.584h-86.38c-.968 0-1.758-.79-1.758-1.758s.79-1.758 1.758-1.758h86.38c.968 0 1.757.79 1.757 1.758a1.76 1.76 0 0 1-1.757 1.758zM402.559 232.737h-86.38c-.968 0-1.758-.79-1.758-1.758s.79-1.758 1.758-1.758h86.38c.968 0 1.757.79 1.757 1.758a1.76 1.76 0 0 1-1.757 1.758zM390.459 153.502h-62.206a3.131 3.131 0 0 1-3.133-3.134v-57.35a3.131 3.131 0 0 1 3.133-3.133h62.206a3.131 3.131 0 0 1 3.133 3.133v57.35a3.131 3.131 0 0 1-3.133 3.134zm-62.206-61.07a.593.593 0 0 0-.586.586v57.35c0 .306.255.586.586.586h62.206a.593.593 0 0 0 .586-.586v-57.35a.593.593 0 0 0-.586-.586h-62.206zM337.245 190.903l1.783 3.643 4.024.586-2.904 2.854.688 3.999-3.591-1.885-3.618 1.885.688-3.999-2.904-2.854 4.025-.586 1.809-3.643zM351.994 190.903l1.783 3.643 4.05.586-2.929 2.854.688 3.999-3.592-1.885-3.617 1.885.688-3.999-2.904-2.854 4.024-.586 1.809-3.643zM366.743 190.903l1.808 3.643 4.025.586-2.929 2.854.687 3.999-3.591-1.885-3.618 1.885.714-3.999-2.93-2.854 4.025-.586 1.809-3.643zM381.492 190.903l1.809 3.643 4.024.586-2.929 2.854.688 3.999-3.592-1.885-3.592 1.885.688-3.999-2.929-2.854 4.024-.586 1.809-3.643z" fill="#99BBEB"/><path opacity=".2" d="M315.21 258.979H140.438l12.355-179.056h168.709l-6.292 179.056z" fill="#99BBEB"/><path d="M310.039 46.038h-151.26V294.01h151.26V46.038z" fill="#99BBEB"/><path d="M305.073 51.082H166.702v233.451h138.371V51.083z" fill="#fff" fill-opacity=".7"/><path d="M268.391 175.107h-64.574a4.142 4.142 0 0 1-4.127-4.128 4.142 4.142 0 0 1 4.127-4.127h64.574a4.142 4.142 0 0 1 4.127 4.127 4.142 4.142 0 0 1-4.127 4.128zM260.367 187.769h-48.501a4.143 4.143 0 0 1-4.127-4.127 4.143 4.143 0 0 1 4.127-4.128h48.501a4.143 4.143 0 0 1 4.127 4.128 4.126 4.126 0 0 1-4.127 4.127zM295.087 233.399H177.121a2.392 2.392 0 0 1-2.395-2.394 2.392 2.392 0 0 1 2.395-2.395h117.966a2.392 2.392 0 0 1 2.395 2.395 2.392 2.392 0 0 1-2.395 2.394zM295.087 244.533H177.121a2.392 2.392 0 0 1-2.395-2.395 2.392 2.392 0 0 1 2.395-2.395h117.966a2.392 2.392 0 0 1 2.395 2.395 2.392 2.392 0 0 1-2.395 2.395zM295.087 255.667H177.121a2.392 2.392 0 0 1-2.395-2.395 2.392 2.392 0 0 1 2.395-2.395h117.966a2.392 2.392 0 0 1 2.395 2.395 2.392 2.392 0 0 1-2.395 2.395zM278.606 147.005h-84.979a3.832 3.832 0 0 1-3.821-3.821V64.866a3.833 3.833 0 0 1 3.821-3.822h84.979a3.832 3.832 0 0 1 3.821 3.822v78.318c-.025 2.089-1.732 3.821-3.821 3.821zm-84.979-83.413c-.688 0-1.274.56-1.274 1.274v78.318c0 .687.561 1.273 1.274 1.273h84.979c.688 0 1.274-.56 1.274-1.273V64.866c0-.688-.561-1.274-1.274-1.274h-84.979zM195.665 198.546l2.445 4.994 5.503.79-3.974 3.898.942 5.477-4.916-2.598-4.942 2.598.943-5.477-3.974-3.898 5.502-.79 2.471-4.994zM215.815 198.546l2.445 4.994 5.503.79-3.974 3.898.942 5.477-4.916-2.598-4.942 2.598.943-5.477-3.974-3.898 5.502-.79 2.471-4.994zM235.964 198.546l2.445 4.994 5.503.79-3.974 3.898.942 5.477-4.916-2.598-4.942 2.598.943-5.477-3.974-3.898 5.502-.79 2.471-4.994zM256.113 198.546l2.446 4.994 5.502.79-3.974 3.898.943 5.477-4.917-2.598-4.942 2.598.943-5.477-3.974-3.898 5.502-.79 2.471-4.994zM276.568 198.546l2.471 4.994 5.502.79-3.999 3.898.943 5.477-4.917-2.598-4.916 2.598.942-5.477-3.973-3.898 5.502-.79 2.445-4.994z" fill="#99BBEB"/><path d="M552.978 286.036H358.872a2.11 2.11 0 0 1-2.115-2.115v-3.159a2.11 2.11 0 0 1 2.115-2.115h194.106a2.11 2.11 0 0 1 2.114 2.115v3.159a2.11 2.11 0 0 1-2.114 2.115zM632.098 420.048h-2.878l-20.506-85.579h6.292l17.092 85.579zM546.407 420.047h2.853l23.537-88.61h-6.292l-20.098 88.61z" fill="#2E5B9A"/><path d="M600.282 338.035c-.866 0-1.757 0-2.649-.025-11.31-.28-19.003-1.834-25.193-3.108-7.209-1.478-11.208-2.268-15.819-.077a3.582 3.582 0 0 1-4.764-1.681c-.866-1.784-.101-3.898 1.682-4.765 6.776-3.235 12.456-2.089 20.327-.484 5.91 1.198 13.272 2.701 23.945 2.956 11.947.305 19.233-1.478 22.926-5.58 3.286-3.643 4.254-9.783 3.032-19.312-.408-3.261-.841-5.962-1.198-8.356-1.044-6.752-1.732-11.211-.866-18.089.79-6.395 2.904-14.905 7.821-31.44a3.563 3.563 0 0 1 6.827 2.039c-9.145 30.776-8.687 33.783-6.725 46.394.382 2.42.789 5.197 1.222 8.535 1.503 11.745-.025 19.669-4.814 24.993-4.917 5.504-12.915 8-25.754 8z" fill="#2E5B9A"/><path d="M529.11 279.641h-46.463a3.597 3.597 0 0 1-3.235-2.064l-18.774-40.432c-.841-1.784-.051-3.898 1.732-4.739 1.783-.841 3.897-.051 4.738 1.732l17.831 38.344h44.196a3.577 3.577 0 0 1 3.567 3.567 3.605 3.605 0 0 1-3.592 3.592z" fill="#75A1DE"/><path d="M377.57 420.048h4.585l17.831-136.381h-10.087L377.57 420.048zM533.185 420.048H528.6l-17.857-136.381h10.088l12.354 136.381z" fill="#2E5B9A"/><path d="M84.014 389.959h8.05a3.077 3.077 0 0 0 3.082-3.083v-6.624a3.077 3.077 0 0 0-3.082-3.083h-8.05a3.077 3.077 0 0 0-3.082 3.083v6.624a3.077 3.077 0 0 0 3.082 3.083zM58.185 389.959h8.05a3.077 3.077 0 0 0 3.082-3.083v-6.624a3.077 3.077 0 0 0-3.082-3.083h-8.05a3.077 3.077 0 0 0-3.082 3.083v6.624c.026 1.707 1.401 3.083 3.082 3.083zM32.38 389.959h8.05a3.077 3.077 0 0 0 3.082-3.083v-6.624a3.077 3.077 0 0 0-3.082-3.083h-8.05a3.077 3.077 0 0 0-3.082 3.083v6.624a3.077 3.077 0 0 0 3.082 3.083zM667.608 151.82v-8.05a3.077 3.077 0 0 0-3.082-3.083h-6.623a3.077 3.077 0 0 0-3.082 3.083v8.05a3.077 3.077 0 0 0 3.082 3.083h6.623c1.707-.025 3.082-1.401 3.082-3.083zM667.608 177.629v-8.051a3.077 3.077 0 0 0-3.082-3.083h-6.623a3.077 3.077 0 0 0-3.082 3.083v8.051a3.077 3.077 0 0 0 3.082 3.083h6.623a3.077 3.077 0 0 0 3.082-3.083zM667.608 203.438v-8.051a3.077 3.077 0 0 0-3.082-3.083h-6.623a3.077 3.077 0 0 0-3.082 3.083v8.051a3.077 3.077 0 0 0 3.082 3.083h6.623a3.077 3.077 0 0 0 3.082-3.083z" fill="#9EC8FF"/></svg>