<svg width="736" height="435" viewBox="0 0 736 435" fill="none" xmlns="http://www.w3.org/2000/svg">
<path d="M112.366 40.3054C218.208 1.01912 325.782 35.7704 398.712 111.439C471.667 187.107 624.762 59.2097 705.971 134.751C761.375 186.317 736.004 318.851 660.017 376.277C556.748 454.315 242.662 414.723 174.725 401.449C96.4456 386.137 39.2325 339.717 15.9754 283.386C-40.0404 147.617 65.5974 57.6811 112.366 40.3054Z" fill="#1E3448"/>
<path d="M474.112 94.9037C474.468 91.6935 474.672 88.4579 474.672 85.1458C474.672 83.4133 474.621 81.6809 474.519 79.9739L458.395 74.751C457.401 67.9485 455.465 61.4772 452.689 55.439L463.387 42.2927C460.916 37.936 458.089 33.8341 454.93 29.987L438.806 35.2354C434.118 30.4456 428.744 26.2928 422.859 22.9552L423.776 6.01269C419.268 3.97449 414.58 2.29298 409.715 1.0191L399.704 14.777C395.832 14.1145 391.833 13.7833 387.783 13.7833C385.006 13.7833 382.28 13.9362 379.58 14.2419L370.359 0C365.417 0.993623 360.628 2.42036 356.043 4.22927L356.068 21.1973C350.006 24.2036 344.427 28.0762 339.485 32.6112L323.666 26.4966C320.304 30.1654 317.247 34.1399 314.547 38.3436L324.532 52.0505C321.45 57.9358 319.158 64.3052 317.807 71.0313L301.428 75.3879C301.071 78.5981 300.868 81.8337 300.868 85.1458C300.868 86.8783 300.919 88.6107 301.021 90.3177L317.145 95.5406C318.139 102.343 320.075 108.814 322.851 114.853L312.152 127.999C314.623 132.356 317.451 136.458 320.609 140.305L336.734 135.056C341.421 139.846 346.796 143.999 352.68 147.336L351.763 164.279C356.272 166.317 360.959 167.999 365.825 169.273L375.785 155.54C379.657 156.203 383.656 156.534 387.706 156.534C390.483 156.534 393.208 156.381 395.909 156.075L405.13 170.317C410.072 169.323 414.861 167.897 419.446 166.088L419.42 149.12C425.483 146.113 431.062 142.241 436.004 137.706L451.822 143.82C455.185 140.152 458.242 136.177 460.942 131.973L450.956 118.267C454.039 112.381 456.331 106.012 457.681 99.2858L474.112 94.9037ZM387.783 119.235C368.958 119.235 353.699 103.974 353.699 85.1458C353.699 66.3179 368.958 51.0569 387.783 51.0569C406.607 51.0569 421.866 66.3179 421.866 85.1458C421.866 103.974 406.607 119.235 387.783 119.235Z" fill="#9EC8FF"/>
<path d="M434.271 124.024C433.991 124.024 433.685 123.923 433.456 123.719C432.921 123.26 432.845 122.47 433.303 121.935C441.862 111.642 446.575 98.5724 446.575 85.1458C446.575 78.7254 445.53 72.407 443.441 66.3943C443.212 65.7319 443.569 64.9931 444.231 64.7638C444.893 64.5345 445.632 64.8912 445.861 65.5536C448.027 71.8465 449.122 78.4197 449.122 85.1458C449.122 99.1584 444.206 112.789 435.264 123.566C434.984 123.872 434.628 124.024 434.271 124.024Z" fill="white"/>
<path d="M429.33 43.5665C429.024 43.5665 428.693 43.4391 428.464 43.2098C422.707 37.7831 416.033 33.6812 408.645 31.0061C407.983 30.7768 407.652 30.0379 407.881 29.3755C408.11 28.7131 408.849 28.3819 409.511 28.6112C417.23 31.4137 424.184 35.694 430.196 41.35C430.705 41.834 430.731 42.6493 430.247 43.1589C429.992 43.4391 429.661 43.5665 429.33 43.5665Z" fill="white"/>
<path d="M374.562 29.3756C374.002 29.3756 373.467 28.9934 373.34 28.4074C373.161 27.7195 373.569 27.0316 374.257 26.8533C379.046 25.6304 384.013 25.0189 389.006 25.0189C389.719 25.0189 390.279 25.5794 390.279 26.2928C390.279 27.0062 389.719 27.5667 389.006 27.5667C384.217 27.5667 379.479 28.1527 374.868 29.3246C374.766 29.3501 374.664 29.3756 374.562 29.3756Z" fill="white"/>
<path d="M200.223 310.698C200.478 308.482 200.605 306.214 200.605 303.947C200.605 302.749 200.554 301.552 200.503 300.354L189.346 296.736C188.658 292.023 187.308 287.539 185.397 283.361L192.81 274.24C191.103 271.234 189.142 268.38 186.951 265.705L175.794 269.348C172.533 266.011 168.814 263.157 164.739 260.839L165.375 249.094C162.268 247.667 159.007 246.52 155.619 245.629L148.716 255.157C146.041 254.699 143.265 254.469 140.462 254.469C138.552 254.469 136.641 254.571 134.782 254.801L128.388 244.941C124.975 245.629 121.663 246.622 118.479 247.871L118.504 259.616C114.301 261.705 110.429 264.38 107.016 267.514L96.0625 263.285C93.7444 265.832 91.6301 268.584 89.7451 271.488L96.6484 280.991C94.5086 285.068 92.9293 289.501 91.9868 294.138L80.6511 297.144C80.3964 299.361 80.269 301.628 80.269 303.896C80.269 305.093 80.32 306.291 80.3709 307.488L91.5282 311.106C92.216 315.819 93.5661 320.303 95.4766 324.481L88.0639 333.602C89.7706 336.609 91.732 339.462 93.9227 342.137L105.08 338.494C108.341 341.832 112.06 344.685 116.135 347.004L115.499 358.749C118.606 360.175 121.867 361.322 125.255 362.214L132.158 352.685C134.858 353.144 137.609 353.373 140.412 353.373C142.322 353.373 144.233 353.271 146.092 353.042L152.486 362.902C155.899 362.214 159.211 361.22 162.395 359.972L162.37 348.227C166.573 346.137 170.445 343.462 173.858 340.328L184.811 344.558C187.13 342.01 189.244 339.258 191.129 336.354L184.226 326.851C186.365 322.774 187.945 318.341 188.887 313.705L200.223 310.698ZM140.437 327.564C127.395 327.564 116.823 316.991 116.823 303.947C116.823 290.902 127.395 280.329 140.437 280.329C153.479 280.329 164.051 290.902 164.051 303.947C164.051 316.991 153.454 327.564 140.437 327.564Z" fill="#9EC8FF"/>
<path d="M172.609 331.258C172.329 331.258 172.023 331.157 171.794 330.953C171.259 330.494 171.182 329.704 171.641 329.169C177.525 322.112 180.76 313.144 180.76 303.947C180.76 299.539 180.047 295.208 178.621 291.08C178.391 290.418 178.748 289.679 179.41 289.45C180.073 289.221 180.811 289.577 181.041 290.24C182.544 294.647 183.333 299.233 183.333 303.921C183.333 313.73 179.894 323.259 173.628 330.774C173.348 331.106 172.991 331.258 172.609 331.258Z" fill="white"/>
<path d="M169.197 275.539C168.891 275.539 168.56 275.412 168.33 275.182C164.382 271.463 159.822 268.66 154.753 266.8C154.091 266.571 153.76 265.832 153.989 265.17C154.218 264.507 154.957 264.176 155.619 264.405C161.02 266.367 165.885 269.374 170.088 273.323C170.598 273.807 170.623 274.622 170.139 275.131C169.884 275.412 169.553 275.539 169.197 275.539Z" fill="white"/>
<path d="M131.267 265.705C130.706 265.705 130.171 265.323 130.044 264.737C129.865 264.049 130.273 263.361 130.961 263.183C134.323 262.342 137.788 261.909 141.278 261.909C141.991 261.909 142.551 262.469 142.551 263.183C142.551 263.896 141.991 264.456 141.278 264.456C137.991 264.456 134.731 264.864 131.598 265.654C131.47 265.705 131.368 265.705 131.267 265.705Z" fill="white"/>
<path d="M526.154 159.82C526.154 159.158 526.129 158.496 526.103 157.859L534.458 151.133C533.796 147.769 532.777 144.559 531.427 141.528L520.626 140.712C518.181 136.84 514.997 133.477 511.278 130.801L511.252 120.024C508.246 118.445 505.037 117.196 501.674 116.33L494.287 124.279C493.013 124.152 491.714 124.075 490.415 124.075C487.154 124.075 484.021 124.509 481.015 125.324L472.558 118.623C469.374 119.999 466.368 121.757 463.617 123.821L465.222 134.496C462.063 137.629 459.49 141.375 457.682 145.502L447.161 147.948C446.27 151.209 445.735 154.597 445.607 158.088L454.88 163.464C455.364 168.151 456.739 172.585 458.854 176.585L454.217 186.317C456.204 189.043 458.497 191.54 461.044 193.731L470.979 189.833C474.876 192.381 479.334 194.189 484.098 195.03L488.785 204.686C489.345 204.712 489.905 204.712 490.466 204.712C493.268 204.712 496.019 204.457 498.694 203.947L501.852 193.731C506.463 192.177 510.641 189.731 514.182 186.572L524.626 188.916C526.765 186.393 528.65 183.642 530.204 180.686L524.142 171.795C525.415 168.024 526.154 163.999 526.154 159.82ZM490.007 175.565C481.703 175.565 474.953 168.814 474.953 160.508C474.953 152.203 481.703 145.451 490.007 145.451C498.312 145.451 505.062 152.203 505.062 160.508C505.062 168.814 498.312 175.565 490.007 175.565Z" fill="#9EC8FF"/>
<g opacity="0.8">
<path opacity="0.8" d="M665.341 73.0695H652.401C647.408 73.0695 643.333 68.9931 643.333 63.9996V51.057C643.333 46.0634 647.408 41.987 652.401 41.987H665.341C670.334 41.987 674.41 46.0634 674.41 51.057V63.9996C674.385 68.9931 670.334 73.0695 665.341 73.0695ZM652.401 45.5538C649.37 45.5538 646.899 48.0252 646.899 51.057V63.9996C646.899 67.0314 649.37 69.5027 652.401 69.5027H665.341C668.373 69.5027 670.844 67.0314 670.844 63.9996V51.057C670.844 48.0252 668.373 45.5538 665.341 45.5538H652.401Z" fill="#9EC8FF"/>
</g>
<g opacity="0.8">
<path opacity="0.8" d="M604.435 73.0695H591.494C586.502 73.0695 582.426 68.9931 582.426 63.9996V51.057C582.426 46.0634 586.502 41.987 591.494 41.987H604.435C609.427 41.987 613.503 46.0634 613.503 51.057V63.9996C613.503 68.9931 609.427 73.0695 604.435 73.0695ZM591.494 45.5538C588.463 45.5538 585.992 48.0252 585.992 51.057V63.9996C585.992 67.0314 588.463 69.5027 591.494 69.5027H604.435C607.466 69.5027 609.937 67.0314 609.937 63.9996V51.057C609.937 48.0252 607.466 45.5538 604.435 45.5538H591.494Z" fill="#9EC8FF"/>
</g>
<path d="M598.78 65.5282C598.754 65.5282 598.729 65.5282 598.703 65.5282C598.245 65.5027 597.837 65.2989 597.557 64.9422L588.259 52.8149C587.75 52.1525 587.877 51.1844 588.539 50.6748C589.202 50.1653 590.17 50.2926 590.679 50.9551L598.882 61.6556L620.305 38.7004C620.891 38.0889 621.859 38.038 622.47 38.6239C623.081 39.2099 623.132 40.1781 622.546 40.7895L599.901 65.0696C599.595 65.3499 599.187 65.5282 598.78 65.5282Z" fill="#F37168"/>
<path d="M708.11 407.309C655.126 404.71 474.902 409.118 420.109 410.825C365.291 412.532 301.684 408.557 268.62 402.723C235.581 396.889 44.5309 403.207 53.2173 418.901C61.8782 434.595 138.324 425.907 225.009 432.226C311.695 438.544 506.668 431.436 550.635 432.226C594.602 433.016 634.951 430.646 691.604 427.487C748.256 424.328 738.806 408.812 708.11 407.309Z" fill="#CCE2FF"/>
<path d="M166.599 79.235H55.8667V260.788H166.599V79.235Z" fill="#99BBEB"/>
<path d="M162.982 82.9547H61.6743V253.883H162.982V82.9547Z" fill="white" fill-opacity="0.7"/>
<path d="M125.46 173.731H99.4771C97.8214 173.731 96.4458 172.381 96.4458 170.699C96.4458 169.043 97.7959 167.667 99.4771 167.667H125.46C127.116 167.667 128.491 169.018 128.491 170.699C128.491 172.381 127.141 173.731 125.46 173.731Z" fill="#99BBEB"/>
<path d="M130.223 183.03H94.7134C93.0577 183.03 91.6821 181.68 91.6821 179.999C91.6821 178.342 93.0322 176.967 94.7134 176.967H130.223C131.879 176.967 133.255 178.317 133.255 179.999C133.255 181.655 131.879 183.03 130.223 183.03Z" fill="#99BBEB"/>
<path d="M155.671 216.431H69.2909C68.3229 216.431 67.5332 215.642 67.5332 214.673C67.5332 213.705 68.3229 212.915 69.2909 212.915H155.671C156.639 212.915 157.429 213.705 157.429 214.673C157.429 215.642 156.613 216.431 155.671 216.431Z" fill="#99BBEB"/>
<path d="M155.671 224.584H69.2909C68.3229 224.584 67.5332 223.794 67.5332 222.826C67.5332 221.858 68.3229 221.068 69.2909 221.068H155.671C156.639 221.068 157.429 221.858 157.429 222.826C157.403 223.794 156.613 224.584 155.671 224.584Z" fill="#99BBEB"/>
<path d="M155.671 232.737H69.2909C68.3229 232.737 67.5332 231.947 67.5332 230.979C67.5332 230.011 68.3229 229.221 69.2909 229.221H155.671C156.639 229.221 157.429 230.011 157.429 230.979C157.403 231.947 156.613 232.737 155.671 232.737Z" fill="#99BBEB"/>
<path d="M143.571 153.502H81.3656C79.6335 153.502 78.2324 152.101 78.2324 150.368V93.0183C78.2324 91.2858 79.6335 89.8846 81.3656 89.8846H143.571C145.304 89.8846 146.705 91.2858 146.705 93.0183V150.368C146.705 152.101 145.304 153.502 143.571 153.502ZM81.3656 92.4323C81.06 92.4323 80.7798 92.6871 80.7798 93.0183V150.368C80.7798 150.674 81.0345 150.954 81.3656 150.954H143.571C143.877 150.954 144.157 150.699 144.157 150.368V93.0183C144.157 92.7126 143.903 92.4323 143.571 92.4323H81.3656Z" fill="#99BBEB"/>
<path d="M90.3318 190.903L92.1404 194.546L96.1652 195.132L93.2613 197.986L93.949 201.986L90.3318 200.1L86.7401 201.986L87.4279 197.986L84.5239 195.132L88.5487 194.546L90.3318 190.903Z" fill="#99BBEB"/>
<path d="M105.106 190.903L106.889 194.546L110.914 195.132L108.01 197.986L108.698 201.986L105.106 200.1L101.489 201.986L102.177 197.986L99.2729 195.132L103.298 194.546L105.106 190.903Z" fill="#99BBEB"/>
<path d="M119.855 190.903L121.638 194.546L125.688 195.132L122.759 197.986L123.447 201.986L119.855 200.1L116.238 201.986L116.925 197.986L114.021 195.132L118.046 194.546L119.855 190.903Z" fill="#99BBEB"/>
<path d="M134.604 190.903L136.413 194.546L140.438 195.132L137.508 197.986L138.196 201.986L134.604 200.1L130.987 201.986L131.7 197.986L128.771 195.132L132.796 194.546L134.604 190.903Z" fill="#99BBEB"/>
<path d="M413.486 79.235H302.754V260.788H413.486V79.235Z" fill="#99BBEB"/>
<path d="M409.869 82.9547H308.562V253.883H409.869V82.9547Z" fill="white" fill-opacity="0.7"/>
<path d="M372.348 173.731H346.365C344.709 173.731 343.333 172.381 343.333 170.699C343.333 169.043 344.684 167.667 346.365 167.667H372.348C374.003 167.667 375.379 169.018 375.379 170.699C375.379 172.381 374.029 173.731 372.348 173.731Z" fill="#99BBEB"/>
<path d="M377.11 183.03H341.601C339.945 183.03 338.569 181.68 338.569 179.999C338.569 178.342 339.919 176.967 341.601 176.967H377.11C378.766 176.967 380.142 178.317 380.142 179.999C380.142 181.655 378.792 183.03 377.11 183.03Z" fill="#99BBEB"/>
<path d="M402.559 216.431H316.179C315.211 216.431 314.421 215.641 314.421 214.673C314.421 213.705 315.211 212.915 316.179 212.915H402.559C403.527 212.915 404.316 213.705 404.316 214.673C404.316 215.641 403.527 216.431 402.559 216.431Z" fill="#99BBEB"/>
<path d="M402.559 224.584H316.179C315.211 224.584 314.421 223.794 314.421 222.826C314.421 221.858 315.211 221.068 316.179 221.068H402.559C403.527 221.068 404.316 221.858 404.316 222.826C404.316 223.794 403.527 224.584 402.559 224.584Z" fill="#99BBEB"/>
<path d="M402.559 232.737H316.179C315.211 232.737 314.421 231.947 314.421 230.979C314.421 230.011 315.211 229.221 316.179 229.221H402.559C403.527 229.221 404.316 230.011 404.316 230.979C404.316 231.947 403.527 232.737 402.559 232.737Z" fill="#99BBEB"/>
<path d="M390.459 153.502H328.253C326.521 153.502 325.12 152.101 325.12 150.368V93.0183C325.12 91.2858 326.521 89.8845 328.253 89.8845H390.459C392.191 89.8845 393.592 91.2858 393.592 93.0183V150.368C393.592 152.101 392.191 153.502 390.459 153.502ZM328.253 92.4323C327.948 92.4323 327.667 92.6871 327.667 93.0183V150.368C327.667 150.674 327.922 150.954 328.253 150.954H390.459C390.765 150.954 391.045 150.699 391.045 150.368V93.0183C391.045 92.7125 390.79 92.4323 390.459 92.4323H328.253Z" fill="#99BBEB"/>
<path d="M337.245 190.903L339.028 194.546L343.052 195.132L340.148 197.986L340.836 201.985L337.245 200.1L333.627 201.985L334.315 197.986L331.411 195.132L335.436 194.546L337.245 190.903Z" fill="#99BBEB"/>
<path d="M351.994 190.903L353.777 194.546L357.827 195.132L354.898 197.986L355.586 201.985L351.994 200.1L348.377 201.985L349.065 197.986L346.161 195.132L350.185 194.546L351.994 190.903Z" fill="#99BBEB"/>
<path d="M366.743 190.903L368.551 194.546L372.576 195.132L369.647 197.986L370.334 201.985L366.743 200.1L363.125 201.985L363.839 197.986L360.909 195.132L364.934 194.546L366.743 190.903Z" fill="#99BBEB"/>
<path d="M381.492 190.903L383.301 194.546L387.325 195.132L384.396 197.986L385.084 201.985L381.492 200.1L377.9 201.985L378.588 197.986L375.659 195.132L379.683 194.546L381.492 190.903Z" fill="#99BBEB"/>
<path opacity="0.2" d="M315.21 258.979H140.438L152.793 79.9229H321.502L315.21 258.979Z" fill="#99BBEB"/>
<path d="M310.039 46.0378H158.779V294.01H310.039V46.0378Z" fill="#99BBEB"/>
<path d="M305.073 51.0823H166.702V284.533H305.073V51.0823Z" fill="white" fill-opacity="0.7"/>
<path d="M268.391 175.107H203.817C201.549 175.107 199.69 173.247 199.69 170.979C199.69 168.712 201.549 166.852 203.817 166.852H268.391C270.659 166.852 272.518 168.712 272.518 170.979C272.518 173.247 270.659 175.107 268.391 175.107Z" fill="#99BBEB"/>
<path d="M260.367 187.769H211.866C209.599 187.769 207.739 185.909 207.739 183.642C207.739 181.374 209.599 179.514 211.866 179.514H260.367C262.634 179.514 264.494 181.374 264.494 183.642C264.494 185.935 262.634 187.769 260.367 187.769Z" fill="#99BBEB"/>
<path d="M295.087 233.399H177.121C175.796 233.399 174.726 232.329 174.726 231.005C174.726 229.68 175.796 228.61 177.121 228.61H295.087C296.412 228.61 297.482 229.68 297.482 231.005C297.482 232.329 296.412 233.399 295.087 233.399Z" fill="#99BBEB"/>
<path d="M295.087 244.533H177.121C175.796 244.533 174.726 243.463 174.726 242.138C174.726 240.813 175.796 239.743 177.121 239.743H295.087C296.412 239.743 297.482 240.813 297.482 242.138C297.482 243.463 296.412 244.533 295.087 244.533Z" fill="#99BBEB"/>
<path d="M295.087 255.667H177.121C175.796 255.667 174.726 254.597 174.726 253.272C174.726 251.947 175.796 250.877 177.121 250.877H295.087C296.412 250.877 297.482 251.947 297.482 253.272C297.482 254.597 296.412 255.667 295.087 255.667Z" fill="#99BBEB"/>
<path d="M278.606 147.005H193.627C191.538 147.005 189.806 145.298 189.806 143.184V64.8657C189.806 62.7765 191.513 61.0441 193.627 61.0441H278.606C280.695 61.0441 282.427 62.7511 282.427 64.8657V143.184C282.402 145.273 280.695 147.005 278.606 147.005ZM193.627 63.5918C192.939 63.5918 192.353 64.1523 192.353 64.8657V143.184C192.353 143.871 192.914 144.457 193.627 144.457H278.606C279.294 144.457 279.88 143.897 279.88 143.184V64.8657C279.88 64.1778 279.319 63.5918 278.606 63.5918H193.627Z" fill="#99BBEB"/>
<path d="M195.665 198.546L198.11 203.54L203.613 204.33L199.639 208.228L200.581 213.705L195.665 211.107L190.723 213.705L191.666 208.228L187.692 204.33L193.194 203.54L195.665 198.546Z" fill="#99BBEB"/>
<path d="M215.815 198.546L218.26 203.54L223.763 204.33L219.789 208.228L220.731 213.705L215.815 211.107L210.873 213.705L211.816 208.228L207.842 204.33L213.344 203.54L215.815 198.546Z" fill="#99BBEB"/>
<path d="M235.964 198.546L238.409 203.54L243.912 204.33L239.938 208.228L240.88 213.705L235.964 211.107L231.022 213.705L231.965 208.228L227.991 204.33L233.493 203.54L235.964 198.546Z" fill="#99BBEB"/>
<path d="M256.113 198.546L258.559 203.54L264.061 204.33L260.087 208.228L261.03 213.705L256.113 211.107L251.171 213.705L252.114 208.228L248.14 204.33L253.642 203.54L256.113 198.546Z" fill="#99BBEB"/>
<path d="M276.568 198.546L279.039 203.54L284.541 204.33L280.542 208.228L281.485 213.705L276.568 211.107L271.652 213.705L272.594 208.228L268.621 204.33L274.123 203.54L276.568 198.546Z" fill="#99BBEB"/>
<path d="M552.978 286.036H358.872C357.7 286.036 356.757 285.093 356.757 283.921V280.762C356.757 279.59 357.7 278.647 358.872 278.647H552.978C554.15 278.647 555.092 279.59 555.092 280.762V283.921C555.092 285.093 554.15 286.036 552.978 286.036Z" fill="#2E5B9A"/>
<path d="M632.098 420.048H629.22L608.714 334.469H615.006L632.098 420.048Z" fill="#2E5B9A"/>
<path d="M546.407 420.047H549.26L572.797 331.437H566.505L546.407 420.047Z" fill="#2E5B9A"/>
<path d="M600.282 338.035C599.416 338.035 598.525 338.035 597.633 338.01C586.323 337.73 578.63 336.176 572.44 334.902C565.231 333.424 561.232 332.634 556.621 334.825C554.838 335.666 552.724 334.927 551.857 333.144C550.991 331.36 551.756 329.246 553.539 328.379C560.315 325.144 565.995 326.29 573.866 327.895C579.776 329.093 587.138 330.596 597.811 330.851C609.758 331.156 617.044 329.373 620.737 325.271C624.023 321.628 624.991 315.488 623.769 305.959C623.361 302.698 622.928 299.997 622.571 297.603C621.527 290.851 620.839 286.392 621.705 279.514C622.495 273.119 624.609 264.609 629.526 248.074C630.086 246.189 632.073 245.119 633.958 245.679C635.843 246.24 636.913 248.227 636.353 250.113C627.208 280.889 627.666 283.896 629.628 296.507C630.01 298.927 630.417 301.704 630.85 305.042C632.353 316.787 630.825 324.711 626.036 330.035C621.119 335.539 613.121 338.035 600.282 338.035Z" fill="#2E5B9A"/>
<path d="M529.11 279.641H482.647C481.271 279.641 479.997 278.826 479.412 277.577L460.638 237.145C459.797 235.361 460.587 233.247 462.37 232.406C464.153 231.565 466.267 232.355 467.108 234.138L484.939 272.482H529.135C531.097 272.482 532.702 274.087 532.702 276.049C532.702 278.01 531.097 279.641 529.11 279.641Z" fill="#75A1DE"/>
<path d="M377.57 420.048H382.155L399.986 283.667H389.899L377.57 420.048Z" fill="#2E5B9A"/>
<path d="M533.185 420.048H528.6L510.743 283.667H520.831L533.185 420.048Z" fill="#2E5B9A"/>
<path d="M84.0144 389.959H92.064C93.7707 389.959 95.1462 388.583 95.1462 386.876V380.252C95.1462 378.545 93.7707 377.169 92.064 377.169H84.0144C82.3077 377.169 80.9321 378.545 80.9321 380.252V386.876C80.9321 388.583 82.3077 389.959 84.0144 389.959Z" fill="#9EC8FF"/>
<path d="M58.1853 389.959H66.2349C67.9416 389.959 69.3171 388.583 69.3171 386.876V380.252C69.3171 378.545 67.9416 377.169 66.2349 377.169H58.1853C56.4786 377.169 55.103 378.545 55.103 380.252V386.876C55.1285 388.583 56.5041 389.959 58.1853 389.959Z" fill="#9EC8FF"/>
<path d="M32.3801 389.959H40.4297C42.1364 389.959 43.512 388.583 43.512 386.876V380.252C43.512 378.545 42.1364 377.169 40.4297 377.169H32.3801C30.6734 377.169 29.2979 378.545 29.2979 380.252V386.876C29.2979 388.583 30.6734 389.959 32.3801 389.959Z" fill="#9EC8FF"/>
<path d="M667.608 151.82V143.77C667.608 142.063 666.233 140.687 664.526 140.687H657.903C656.196 140.687 654.821 142.063 654.821 143.77V151.82C654.821 153.527 656.196 154.903 657.903 154.903H664.526C666.233 154.878 667.608 153.502 667.608 151.82Z" fill="#9EC8FF"/>
<path d="M667.608 177.629V169.578C667.608 167.871 666.233 166.495 664.526 166.495H657.903C656.196 166.495 654.821 167.871 654.821 169.578V177.629C654.821 179.336 656.196 180.712 657.903 180.712H664.526C666.233 180.712 667.608 179.336 667.608 177.629Z" fill="#9EC8FF"/>
<path d="M667.608 203.438V195.387C667.608 193.68 666.233 192.304 664.526 192.304H657.903C656.196 192.304 654.821 193.68 654.821 195.387V203.438C654.821 205.145 656.196 206.521 657.903 206.521H664.526C666.233 206.521 667.608 205.145 667.608 203.438Z" fill="#9EC8FF"/>
</svg>
