<svg xmlns="http://www.w3.org/2000/svg" xmlns:xlink="http://www.w3.org/1999/xlink" viewBox="0 0 523.35 390.73"><defs><style>.cls-1{fill:url(#radial-gradient);}.cls-2{fill:url(#radial-gradient-2);}.cls-3{fill:url(#radial-gradient-3);}.cls-4{fill:url(#radial-gradient-4);}.cls-5{fill:url(#radial-gradient-5);}.cls-6{fill:url(#radial-gradient-6);}.cls-7{fill:url(#radial-gradient-7);}.cls-8{isolation:isolate;}.cls-9{opacity:0.2;}.cls-10{opacity:0.9;}.cls-11,.cls-13{fill:#3e6271;}.cls-12{mask:url(#mask);}.cls-13,.cls-18,.cls-21,.cls-23{opacity:0.33;mix-blend-mode:multiply;}.cls-14{mask:url(#mask-2);}.cls-15{mask:url(#mask-3);}.cls-16{mask:url(#mask-4);}.cls-17{mask:url(#mask-5);}.cls-18{fill:url(#linear-gradient);}.cls-19,.cls-23{fill:#0e3b4e;}.cls-20{mask:url(#mask-6);}.cls-21{fill:url(#linear-gradient-2);}.cls-22{mask:url(#mask-7);}</style><radialGradient id="radial-gradient" cx="444.95" cy="905.25" r="58.53" gradientTransform="translate(107.37 175.05) scale(0.83 0.09)" gradientUnits="userSpaceOnUse"><stop offset="0" stop-color="#fff"/><stop offset="1" stop-color="#14130a"/></radialGradient><radialGradient id="radial-gradient-2" cx="276.14" cy="905.25" r="58.53" xlink:href="#radial-gradient"/><radialGradient id="radial-gradient-3" cx="97.4" cy="905.25" r="58.53" xlink:href="#radial-gradient"/><radialGradient id="radial-gradient-4" cx="-71.41" cy="905.25" r="58.53" xlink:href="#radial-gradient"/><radialGradient id="radial-gradient-5" cx="181.52" cy="2282.25" r="132.96" xlink:href="#radial-gradient"/><radialGradient id="radial-gradient-6" cx="339.69" cy="1576.65" r="86.72" xlink:href="#radial-gradient"/><radialGradient id="radial-gradient-7" cx="30.04" cy="1576.65" r="86.72" xlink:href="#radial-gradient"/><mask id="mask" x="426.61" y="250.66" width="96.74" height="10.45" maskUnits="userSpaceOnUse"><path class="cls-1" d="M523.35,255.89c0,2.89-21.65,5.23-48.37,5.23s-48.37-2.34-48.37-5.23,21.66-5.23,48.37-5.23S523.35,253,523.35,255.89Z"/></mask><mask id="mask-2" x="287.15" y="250.66" width="96.74" height="10.45" maskUnits="userSpaceOnUse"><path class="cls-2" d="M383.89,255.89c0,2.89-21.66,5.23-48.37,5.23s-48.37-2.34-48.37-5.23,21.65-5.23,48.37-5.23S383.89,253,383.89,255.89Z"/></mask><mask id="mask-3" x="139.47" y="250.66" width="96.74" height="10.45" maskUnits="userSpaceOnUse"><path class="cls-3" d="M236.21,255.89c0,2.89-21.66,5.23-48.37,5.23s-48.37-2.34-48.37-5.23,21.65-5.23,48.37-5.23S236.21,253,236.21,255.89Z"/></mask><mask id="mask-4" x="0" y="250.66" width="96.74" height="10.45" maskUnits="userSpaceOnUse"><path class="cls-4" d="M96.74,255.89c0,2.89-21.66,5.23-48.37,5.23S0,258.78,0,255.89s21.65-5.23,48.37-5.23S96.74,253,96.74,255.89Z"/></mask><mask id="mask-5" x="147.46" y="366.98" width="219.74" height="23.74" maskUnits="userSpaceOnUse"><path class="cls-5" d="M367.21,378.86c0,6.56-49.2,11.87-109.87,11.87s-109.88-5.31-109.88-11.87S196.65,367,257.34,367,367.21,372.29,367.21,378.86Z"/></mask><linearGradient id="linear-gradient" x1="257.37" y1="390.7" x2="257.3" y2="367.18" gradientUnits="userSpaceOnUse"><stop offset="0" stop-color="#4d4848"/><stop offset="0.35" stop-color="#14130a"/><stop offset="1" stop-color="#14130a"/></linearGradient><mask id="mask-6" x="316.36" y="308.1" width="143.32" height="15.49" maskUnits="userSpaceOnUse"><path class="cls-6" d="M459.68,315.85c0,4.28-32.09,7.74-71.66,7.74s-71.66-3.46-71.66-7.74,32.08-7.75,71.66-7.75S459.68,311.57,459.68,315.85Z"/></mask><linearGradient id="linear-gradient-2" x1="527.42" y1="245.32" x2="405.82" y2="306.84" xlink:href="#linear-gradient"/><mask id="mask-7" x="60.53" y="308.1" width="143.32" height="15.49" maskUnits="userSpaceOnUse"><path class="cls-7" d="M203.85,315.85c0,4.28-32.09,7.74-71.66,7.74s-71.66-3.46-71.66-7.74,32.08-7.75,71.66-7.75S203.85,311.57,203.85,315.85Z"/></mask></defs><title>Come join us</title><g class="cls-8"><g id="Objects"><g class="cls-9"><g class="cls-10"><path class="cls-11" d="M475,108.66a19.12,19.12,0,1,0-19.11-19.12A19.15,19.15,0,0,0,475,108.66Z"/><path class="cls-11" d="M517,168.4a2.26,2.26,0,0,0,.06-1.1l-8.77-46.49a8.88,8.88,0,0,0-8.79-7.51h-49a8.86,8.86,0,0,0-8.78,7.45l-8.78,46.55a2.26,2.26,0,0,0,.06,1.1,8.92,8.92,0,0,0,17.61,2.81l5.53-34.58L456.06,247a8.93,8.93,0,0,0,17.86,0V192.35h2.13V247a8.93,8.93,0,1,0,17.85,0l-.06-110.33,5.53,34.63a8.92,8.92,0,0,0,17.7-1.61A7.53,7.53,0,0,0,517,168.4Z"/><g class="cls-12"><path class="cls-13" d="M523.35,255.89c0,2.89-21.65,5.23-48.37,5.23s-48.37-2.34-48.37-5.23,21.66-5.23,48.37-5.23S523.35,253,523.35,255.89Z"/></g></g><g class="cls-10"><path class="cls-11" d="M335.51,108.66A19.12,19.12,0,1,0,316.4,89.54,19.14,19.14,0,0,0,335.51,108.66Z"/><path class="cls-11" d="M377.5,168.4a2.26,2.26,0,0,0,.06-1.1l-8.76-46.49A8.89,8.89,0,0,0,360,113.3H311a8.86,8.86,0,0,0-8.78,7.45l-8.77,46.55a2.26,2.26,0,0,0,.06,1.1,7.61,7.61,0,0,0-.1,1.25,8.92,8.92,0,0,0,17.7,1.56l5.53-34.58L316.59,247a8.93,8.93,0,0,0,17.86,0V192.35h2.13V247a8.93,8.93,0,0,0,17.86,0l-.07-110.33,5.53,34.63a8.92,8.92,0,0,0,17.7-1.61A7.53,7.53,0,0,0,377.5,168.4Z"/><g class="cls-14"><path class="cls-13" d="M383.89,255.89c0,2.89-21.66,5.23-48.37,5.23s-48.37-2.34-48.37-5.23,21.65-5.23,48.37-5.23S383.89,253,383.89,255.89Z"/></g></g><g class="cls-10"><path class="cls-11" d="M187.84,108.66a19.12,19.12,0,1,0-19.12-19.12A19.14,19.14,0,0,0,187.84,108.66Z"/><path class="cls-11" d="M229.82,168.4a2.26,2.26,0,0,0,.06-1.1l-8.76-46.49a8.89,8.89,0,0,0-8.79-7.51h-49a8.87,8.87,0,0,0-8.79,7.45l-8.77,46.55a2.26,2.26,0,0,0,.06,1.1,7.61,7.61,0,0,0-.1,1.25,8.92,8.92,0,0,0,17.7,1.56L169,136.63,168.91,247a8.93,8.93,0,0,0,17.86,0V192.35h2.13V247a8.93,8.93,0,1,0,17.86,0l-.07-110.33,5.54,34.63a8.92,8.92,0,0,0,17.7-1.61A8.79,8.79,0,0,0,229.82,168.4Z"/><g class="cls-15"><path class="cls-13" d="M236.21,255.89c0,2.89-21.66,5.23-48.37,5.23s-48.37-2.34-48.37-5.23,21.65-5.23,48.37-5.23S236.21,253,236.21,255.89Z"/></g></g><g class="cls-10"><path class="cls-11" d="M48.37,108.66A19.12,19.12,0,1,0,29.26,89.54,19.15,19.15,0,0,0,48.37,108.66Z"/><path class="cls-11" d="M90.36,168.4a2.39,2.39,0,0,0,.06-1.1l-8.77-46.49a8.88,8.88,0,0,0-8.79-7.51h-49a8.86,8.86,0,0,0-8.78,7.45L6.32,167.3a2.26,2.26,0,0,0,.06,1.1,7.61,7.61,0,0,0-.1,1.25A8.92,8.92,0,0,0,24,171.21l5.53-34.58L29.44,247a8.93,8.93,0,0,0,17.86,0V192.35h2.14V247a8.93,8.93,0,1,0,17.85,0l-.07-110.33,5.54,34.63a8.92,8.92,0,0,0,17.7-1.61A7.53,7.53,0,0,0,90.36,168.4Z"/><g class="cls-16"><path class="cls-13" d="M96.74,255.89c0,2.89-21.66,5.23-48.37,5.23S0,258.78,0,255.89s21.65-5.23,48.37-5.23S96.74,253,96.74,255.89Z"/></g></g><g class="cls-17"><path class="cls-18" d="M367.21,378.86c0,6.56-49.2,11.87-109.87,11.87s-109.88-5.31-109.88-11.87S196.65,367,257.34,367,367.21,372.29,367.21,378.86Z"/></g><path class="cls-19" d="M388,97.72A28.32,28.32,0,1,0,359.7,69.4,28.36,28.36,0,0,0,388,97.72Z"/><path class="cls-19" d="M450.22,186.23a3.39,3.39,0,0,0,.09-1.62l-13-68.88a13.15,13.15,0,0,0-13-11.12H351.73a13.13,13.13,0,0,0-13,11l-13,69a3.39,3.39,0,0,0,.09,1.62,11.73,11.73,0,0,0-.15,1.85,13.22,13.22,0,0,0,26.23,2.31l8.19-51.22L360,302.62a13.23,13.23,0,0,0,26.46,0v-80.9h3.15v80.9a13.23,13.23,0,0,0,26.46,0l-.11-163.45,8.21,51.3a13.22,13.22,0,0,0,26.22-2.39A11.73,11.73,0,0,0,450.22,186.23Z"/><g class="cls-20"><path class="cls-21" d="M459.68,315.85c0,4.28-32.09,7.74-71.66,7.74s-71.66-3.46-71.66-7.74,32.08-7.75,71.66-7.75S459.68,311.57,459.68,315.85Z"/></g><path class="cls-19" d="M132.19,97.72A28.32,28.32,0,1,0,103.87,69.4,28.35,28.35,0,0,0,132.19,97.72Z"/><path class="cls-19" d="M194.39,186.23a3.39,3.39,0,0,0,.09-1.62l-13-68.88a13.15,13.15,0,0,0-13-11.12H95.9a13.13,13.13,0,0,0-13,11l-13,69a3.39,3.39,0,0,0,.09,1.62,11.73,11.73,0,0,0-.15,1.85,13.22,13.22,0,0,0,26.23,2.31l8.2-51.22-.11,163.45a13.23,13.23,0,0,0,26.46,0v-80.9h3.16v80.9a13.23,13.23,0,0,0,26.45,0l-.1-163.45,8.2,51.3a13.22,13.22,0,0,0,26.22-2.39A11.73,11.73,0,0,0,194.39,186.23Z"/><g class="cls-22"><path class="cls-23" d="M203.85,315.85c0,4.28-32.09,7.74-71.66,7.74s-71.66-3.46-71.66-7.74,32.08-7.75,71.66-7.75S203.85,311.57,203.85,315.85Z"/></g><path class="cls-19" d="M260.38,77.39a38.7,38.7,0,1,0-38.69-38.7A38.74,38.74,0,0,0,260.38,77.39Z"/><path class="cls-19" d="M345.38,198.33a4.57,4.57,0,0,0,.12-2.21L327.76,102A18,18,0,0,0,310,86.8H210.8A17.94,17.94,0,0,0,193,101.87l-17.76,94.25a4.57,4.57,0,0,0,.12,2.21,15.67,15.67,0,0,0-.21,2.52A18.06,18.06,0,0,0,211,204l11.19-70-.14,223.35a18.08,18.08,0,0,0,36.16,0V246.82h4.31V357.38a18.08,18.08,0,0,0,36.15,0L298.55,134l11.21,70.09a18.06,18.06,0,0,0,35.83-3.27A16.8,16.8,0,0,0,345.38,198.33Z"/></g></g></g></svg>