 <svg xmlns="http://www.w3.org/2000/svg" xmlns:xlink="http://www.w3.org/1999/xlink" viewBox="0 0 523.35 390.73"><defs><style>.cls-10{opacity:.9}.cls-11,.cls-13{fill:#3e6271}.cls-13{opacity:.33;mix-blend-mode:multiply}.cls-19{fill:#0e3b4e}</style><radialGradient id="radial-gradient" cx="444.95" cy="905.25" r="58.53" gradientTransform="matrix(.83 0 0 .09 107.37 175.05)" gradientUnits="userSpaceOnUse"><stop offset="0" stop-color="#fff"/><stop offset="1" stop-color="#14130a"/></radialGradient><radialGradient id="radial-gradient-2" cx="276.14" cy="905.25" r="58.53" xlink:href="#radial-gradient"/><radialGradient id="radial-gradient-3" cx="97.4" cy="905.25" r="58.53" xlink:href="#radial-gradient"/><radialGradient id="radial-gradient-4" cx="-71.41" cy="905.25" r="58.53" xlink:href="#radial-gradient"/><radialGradient id="radial-gradient-5" cx="181.52" cy="2282.25" r="132.96" xlink:href="#radial-gradient"/><radialGradient id="radial-gradient-6" cx="339.69" cy="1576.65" r="86.72" xlink:href="#radial-gradient"/><radialGradient id="radial-gradient-7" cx="30.04" cy="1576.65" r="86.72" xlink:href="#radial-gradient"/><mask id="mask" x="426.61" y="250.66" width="96.74" height="10.45" maskUnits="userSpaceOnUse"><path d="M523.35 255.89c0 2.89-21.65 5.23-48.37 5.23s-48.37-2.34-48.37-5.23 21.66-5.23 48.37-5.23 48.37 2.34 48.37 5.23z" fill="url(#radial-gradient)"/></mask><mask id="mask-2" x="287.15" y="250.66" width="96.74" height="10.45" maskUnits="userSpaceOnUse"><path d="M383.89 255.89c0 2.89-21.66 5.23-48.37 5.23s-48.37-2.34-48.37-5.23 21.65-5.23 48.37-5.23 48.37 2.34 48.37 5.23z" fill="url(#radial-gradient-2)"/></mask><mask id="mask-3" x="139.47" y="250.66" width="96.74" height="10.45" maskUnits="userSpaceOnUse"><path d="M236.21 255.89c0 2.89-21.66 5.23-48.37 5.23s-48.37-2.34-48.37-5.23 21.65-5.23 48.37-5.23 48.37 2.34 48.37 5.23z" fill="url(#radial-gradient-3)"/></mask><mask id="mask-4" x="0" y="250.66" width="96.74" height="10.45" maskUnits="userSpaceOnUse"><path d="M96.74 255.89c0 2.89-21.66 5.23-48.37 5.23S0 258.78 0 255.89s21.65-5.23 48.37-5.23 48.37 2.34 48.37 5.23z" fill="url(#radial-gradient-4)"/></mask><mask id="mask-5" x="147.46" y="366.98" width="219.74" height="23.74" maskUnits="userSpaceOnUse"><path d="M367.21 378.86c0 6.56-49.2 11.87-109.87 11.87s-109.88-5.31-109.88-11.87S196.65 367 257.34 367s109.87 5.29 109.87 11.86z" fill="url(#radial-gradient-5)"/></mask><linearGradient id="linear-gradient" x1="257.37" y1="390.7" x2="257.3" y2="367.18" gradientUnits="userSpaceOnUse"><stop offset="0" stop-color="#4d4848"/><stop offset=".35" stop-color="#14130a"/><stop offset="1" stop-color="#14130a"/></linearGradient><mask id="mask-6" x="316.36" y="308.1" width="143.32" height="15.49" maskUnits="userSpaceOnUse"><path d="M459.68 315.85c0 4.28-32.09 7.74-71.66 7.74s-71.66-3.46-71.66-7.74 32.08-7.75 71.66-7.75 71.66 3.47 71.66 7.75z" fill="url(#radial-gradient-6)"/></mask><linearGradient id="linear-gradient-2" x1="527.42" y1="245.32" x2="405.82" y2="306.84" xlink:href="#linear-gradient"/><mask id="mask-7" x="60.53" y="308.1" width="143.32" height="15.49" maskUnits="userSpaceOnUse"><path d="M203.85 315.85c0 4.28-32.09 7.74-71.66 7.74s-71.66-3.46-71.66-7.74 32.08-7.75 71.66-7.75 71.66 3.47 71.66 7.75z" fill="url(#radial-gradient-7)"/></mask></defs><g style="isolation:isolate"><g opacity=".2" id="Objects"><g class="cls-10"><path class="cls-11" d="M475 108.66a19.12 19.12 0 1 0-19.11-19.12A19.15 19.15 0 0 0 475 108.66zM517 168.4a2.26 2.26 0 0 0 .06-1.1l-8.77-46.49a8.88 8.88 0 0 0-8.79-7.51h-49a8.86 8.86 0 0 0-8.78 7.45l-8.78 46.55a2.26 2.26 0 0 0 .06 1.1 8.92 8.92 0 0 0 17.61 2.81l5.53-34.58-.08 110.37a8.93 8.93 0 0 0 17.86 0v-54.65h2.13V247a8.93 8.93 0 1 0 17.85 0l-.06-110.33 5.53 34.63a8.92 8.92 0 0 0 17.7-1.61 7.53 7.53 0 0 0-.07-1.29z"/><g mask="url(#mask)"><path class="cls-13" d="M523.35 255.89c0 2.89-21.65 5.23-48.37 5.23s-48.37-2.34-48.37-5.23 21.66-5.23 48.37-5.23 48.37 2.34 48.37 5.23z"/></g></g><g class="cls-10"><path class="cls-11" d="M335.51 108.66a19.12 19.12 0 1 0-19.11-19.12 19.14 19.14 0 0 0 19.11 19.12zM377.5 168.4a2.26 2.26 0 0 0 .06-1.1l-8.76-46.49a8.89 8.89 0 0 0-8.8-7.51h-49a8.86 8.86 0 0 0-8.78 7.45l-8.77 46.55a2.26 2.26 0 0 0 .06 1.1 7.61 7.61 0 0 0-.1 1.25 8.92 8.92 0 0 0 17.7 1.56l5.53-34.58-.05 110.37a8.93 8.93 0 0 0 17.86 0v-54.65h2.13V247a8.93 8.93 0 0 0 17.86 0l-.07-110.33 5.53 34.63a8.92 8.92 0 0 0 17.7-1.61 7.53 7.53 0 0 0-.1-1.29z"/><g mask="url(#mask-2)"><path class="cls-13" d="M383.89 255.89c0 2.89-21.66 5.23-48.37 5.23s-48.37-2.34-48.37-5.23 21.65-5.23 48.37-5.23 48.37 2.34 48.37 5.23z"/></g></g><g class="cls-10"><path class="cls-11" d="M187.84 108.66a19.12 19.12 0 1 0-19.12-19.12 19.14 19.14 0 0 0 19.12 19.12zM229.82 168.4a2.26 2.26 0 0 0 .06-1.1l-8.76-46.49a8.89 8.89 0 0 0-8.79-7.51h-49a8.87 8.87 0 0 0-8.79 7.45l-8.77 46.55a2.26 2.26 0 0 0 .06 1.1 7.61 7.61 0 0 0-.1 1.25 8.92 8.92 0 0 0 17.7 1.56l5.57-34.58-.09 110.37a8.93 8.93 0 0 0 17.86 0v-54.65h2.13V247a8.93 8.93 0 1 0 17.86 0l-.07-110.33 5.54 34.63a8.92 8.92 0 0 0 17.7-1.61 8.79 8.79 0 0 0-.11-1.29z"/><g mask="url(#mask-3)"><path class="cls-13" d="M236.21 255.89c0 2.89-21.66 5.23-48.37 5.23s-48.37-2.34-48.37-5.23 21.65-5.23 48.37-5.23 48.37 2.34 48.37 5.23z"/></g></g><g class="cls-10"><path class="cls-11" d="M48.37 108.66a19.12 19.12 0 1 0-19.11-19.12 19.15 19.15 0 0 0 19.11 19.12zM90.36 168.4a2.39 2.39 0 0 0 .06-1.1l-8.77-46.49a8.88 8.88 0 0 0-8.79-7.51h-49a8.86 8.86 0 0 0-8.78 7.45L6.32 167.3a2.26 2.26 0 0 0 .06 1.1 7.61 7.61 0 0 0-.1 1.25A8.92 8.92 0 0 0 24 171.21l5.53-34.58L29.44 247a8.93 8.93 0 0 0 17.86 0v-54.65h2.14V247a8.93 8.93 0 1 0 17.85 0l-.07-110.33 5.54 34.63a8.92 8.92 0 0 0 17.7-1.61 7.53 7.53 0 0 0-.1-1.29z"/><g mask="url(#mask-4)"><path class="cls-13" d="M96.74 255.89c0 2.89-21.66 5.23-48.37 5.23S0 258.78 0 255.89s21.65-5.23 48.37-5.23 48.37 2.34 48.37 5.23z"/></g></g><g mask="url(#mask-5)"><path d="M367.21 378.86c0 6.56-49.2 11.87-109.87 11.87s-109.88-5.31-109.88-11.87S196.65 367 257.34 367s109.87 5.29 109.87 11.86z" style="mix-blend-mode:multiply" fill="url(#linear-gradient)" opacity=".33"/></g><path class="cls-19" d="M388 97.72a28.32 28.32 0 1 0-28.3-28.32A28.36 28.36 0 0 0 388 97.72zM450.22 186.23a3.39 3.39 0 0 0 .09-1.62l-13-68.88a13.15 13.15 0 0 0-13-11.12h-72.58a13.13 13.13 0 0 0-13 11l-13 69a3.39 3.39 0 0 0 .09 1.62 11.73 11.73 0 0 0-.15 1.85 13.22 13.22 0 0 0 26.23 2.31l8.19-51.22-.09 163.45a13.23 13.23 0 0 0 26.46 0v-80.9h3.15v80.9a13.23 13.23 0 0 0 26.46 0l-.11-163.45 8.21 51.3a13.22 13.22 0 0 0 26.22-2.39 11.73 11.73 0 0 0-.17-1.85z"/><g mask="url(#mask-6)"><path d="M459.68 315.85c0 4.28-32.09 7.74-71.66 7.74s-71.66-3.46-71.66-7.74 32.08-7.75 71.66-7.75 71.66 3.47 71.66 7.75z" style="mix-blend-mode:multiply" fill="url(#linear-gradient-2)" opacity=".33"/></g><path class="cls-19" d="M132.19 97.72a28.32 28.32 0 1 0-28.32-28.32 28.35 28.35 0 0 0 28.32 28.32zM194.39 186.23a3.39 3.39 0 0 0 .09-1.62l-13-68.88a13.15 13.15 0 0 0-13-11.12H95.9a13.13 13.13 0 0 0-13 11l-13 69a3.39 3.39 0 0 0 .09 1.62 11.73 11.73 0 0 0-.15 1.85 13.22 13.22 0 0 0 26.23 2.31l8.2-51.22-.11 163.45a13.23 13.23 0 0 0 26.46 0v-80.9h3.16v80.9a13.23 13.23 0 0 0 26.45 0l-.1-163.45 8.2 51.3a13.22 13.22 0 0 0 26.22-2.39 11.73 11.73 0 0 0-.16-1.85z"/><g mask="url(#mask-7)"><path d="M203.85 315.85c0 4.28-32.09 7.74-71.66 7.74s-71.66-3.46-71.66-7.74 32.08-7.75 71.66-7.75 71.66 3.47 71.66 7.75z" style="mix-blend-mode:multiply" fill="#0e3b4e" opacity=".33"/></g><path class="cls-19" d="M260.38 77.39a38.7 38.7 0 1 0-38.69-38.7 38.74 38.74 0 0 0 38.69 38.7zM345.38 198.33a4.57 4.57 0 0 0 .12-2.21L327.76 102A18 18 0 0 0 310 86.8h-99.2a17.94 17.94 0 0 0-17.8 15.07l-17.76 94.25a4.57 4.57 0 0 0 .12 2.21 15.67 15.67 0 0 0-.21 2.52A18.06 18.06 0 0 0 211 204l11.19-70-.14 223.35a18.08 18.08 0 0 0 36.16 0V246.82h4.31v110.56a18.08 18.08 0 0 0 36.15 0L298.55 134l11.21 70.09a18.06 18.06 0 0 0 35.83-3.27 16.8 16.8 0 0 0-.21-2.49z"/></g></g></svg>