<svg width="713" height="473" viewBox="0 0 713 473" fill="none" xmlns="http://www.w3.org/2000/svg">
<path d="M376.775 452.079C365.315 455.356 353.352 448.676 350.078 437.207L332.952 376.585C329.678 365.116 336.352 353.143 347.811 349.866C359.271 346.589 371.234 353.269 374.508 364.738L391.634 425.36C394.908 436.829 388.234 448.802 376.775 452.079Z" fill="#93C7EA"/>
<path d="M352.345 451.575C343.781 443.256 343.656 429.519 352.093 421.075L396.167 376.081C404.478 367.511 418.204 367.385 426.642 375.829C435.205 384.147 435.331 397.885 426.893 406.329L382.819 451.323C374.508 459.767 360.908 459.893 352.345 451.575Z" fill="#93C7EA"/>
<path d="M439.99 365.242C445.783 373.938 443.39 385.66 434.701 391.457C426.012 397.255 414.301 394.86 408.509 386.164C402.716 377.467 405.109 365.746 413.798 359.949C422.486 354.151 434.198 356.546 439.99 365.242Z" fill="#FF8383"/>
<path d="M411.657 372.93C409.012 373.56 406.368 372.048 405.612 369.401L403.975 362.848C403.346 360.201 404.857 357.554 407.501 356.798C410.146 356.168 412.79 357.68 413.546 360.327L415.183 366.881C415.812 369.653 414.175 372.3 411.657 372.93Z" fill="#FF8383"/>
<path d="M430.546 350.496L423.872 367.511C422.864 370.158 419.842 371.418 417.198 370.41C414.553 369.401 413.294 366.377 414.301 363.73L420.975 346.715C421.983 344.069 425.005 342.808 427.65 343.817C430.294 344.951 431.553 347.976 430.546 350.496Z" fill="#FF8383"/>
<path d="M442.383 354.151L434.324 370.536C433.064 373.056 430.042 374.065 427.524 372.804C425.005 371.544 423.998 368.519 425.257 365.998L433.316 349.614C434.576 347.094 437.598 346.085 440.116 347.346C442.635 348.48 443.642 351.631 442.383 354.151Z" fill="#FF8383"/>
<path d="M451.198 363.226L439.865 377.593C438.102 379.862 434.954 380.24 432.687 378.476C430.42 376.711 430.042 373.56 431.805 371.292L443.139 356.924C444.902 354.656 448.05 354.277 450.317 356.042C452.583 357.806 452.961 360.957 451.198 363.226Z" fill="#FF8383"/>
<path d="M330.055 328.693L322.751 328.441C317.84 328.189 313.936 324.03 314.188 319.114L315.699 280.044L340.885 281.053L339.374 320.123C339.122 325.038 334.966 328.819 330.055 328.693Z" fill="#FF8383"/>
<path d="M340.885 279.666L315.699 278.658L315.322 288.615C314.944 298.319 322.877 306.889 332.574 306.133C333.203 306.133 333.833 306.007 334.337 305.881C336.351 305.503 338.24 304.747 340.003 303.864L340.885 279.666Z" fill="#D15E79"/>
<path d="M331.493 276.841C348.223 272.103 358.838 257.837 355.201 244.978C351.565 232.119 335.056 225.536 318.326 230.274C301.596 235.013 290.982 249.278 294.618 262.137C298.254 274.997 314.764 281.58 331.493 276.841Z" fill="#1B2A67"/>
<path d="M347.46 270.211C362.682 267.622 373.661 257.513 371.984 247.631C370.306 237.749 356.607 231.837 341.385 234.425C326.163 237.013 315.183 247.122 316.861 257.004C318.538 266.886 332.238 272.799 347.46 270.211Z" fill="#1B2A67"/>
<path d="M341.197 255.66C352.534 245.171 356.214 230.701 349.416 223.341C342.618 215.981 327.916 218.518 316.579 229.007C305.241 239.496 301.562 253.966 308.36 261.326C315.158 268.686 329.86 266.149 341.197 255.66Z" fill="#1B2A67"/>
<path d="M355.493 273.365C358.011 287.228 350.707 300.209 339.248 302.226C327.789 304.243 316.455 294.664 314.063 280.674L312.048 269.71C309.529 255.846 316.833 242.865 328.292 240.848C339.752 238.832 351.085 248.41 353.478 262.4L355.493 273.365Z" fill="#FF8383"/>
<path d="M331.063 239.336C324.766 233.538 313.685 236.311 306.381 245.511C299.077 254.712 298.321 266.811 304.744 272.482C311.04 278.28 322.122 275.507 329.426 266.307C336.603 257.106 337.359 245.007 331.063 239.336Z" fill="#1B2A67"/>
<path d="M335.218 270.34C334.841 270.34 334.463 270.214 334.211 269.836C333.833 269.332 333.959 268.575 334.463 268.197C334.589 268.071 338.241 265.551 342.144 267.819C342.648 268.197 342.9 268.827 342.522 269.458C342.144 269.962 341.515 270.214 340.885 269.836C338.241 268.323 335.722 269.962 335.722 270.088C335.596 270.214 335.344 270.34 335.218 270.34Z" fill="#86294E"/>
<path d="M355.115 270.34C354.863 270.34 354.611 270.214 354.485 270.088C354.359 269.962 351.84 268.323 349.322 269.836C348.818 270.214 348.063 269.962 347.685 269.458C347.307 268.953 347.559 268.197 348.063 267.819C351.966 265.551 355.618 268.071 355.744 268.197C356.248 268.575 356.374 269.332 355.996 269.836C355.744 270.088 355.366 270.34 355.115 270.34Z" fill="#86294E"/>
<path d="M340.382 273.365C340.382 273.995 339.752 274.499 339.123 274.499C338.493 274.499 337.989 273.869 337.989 273.239C337.989 272.608 338.619 272.104 339.249 272.104C339.878 272.23 340.382 272.734 340.382 273.365Z" fill="#86294E"/>
<path d="M351.841 273.869C351.841 274.499 351.211 275.003 350.582 275.003C349.952 275.003 349.448 274.373 349.448 273.743C349.448 273.113 350.078 272.608 350.708 272.608C351.463 272.608 351.967 273.239 351.841 273.869Z" fill="#86294E"/>
<path d="M354.737 282.187C354.611 282.187 354.485 282.187 354.359 282.187C351.84 282.061 349.448 281.053 347.811 279.162C346.048 277.272 345.166 274.877 345.292 272.356C345.418 269.836 346.425 267.441 348.314 265.803C350.203 264.038 352.596 263.156 355.114 263.282C357.633 263.408 360.026 264.416 361.663 266.307C363.426 268.197 364.307 270.592 364.181 273.113C364.055 275.633 363.048 278.028 361.159 279.666C359.396 281.305 357.129 282.187 354.737 282.187ZM354.737 264.92C352.722 264.92 350.833 265.677 349.448 267.063C347.937 268.449 347.055 270.466 346.929 272.482C346.803 274.625 347.559 276.641 349.07 278.154C350.455 279.666 352.47 280.548 354.485 280.674C356.626 280.674 358.64 280.044 360.152 278.532C361.663 277.146 362.544 275.129 362.67 273.113C362.796 270.97 362.04 268.953 360.529 267.441C359.144 265.929 357.129 265.046 355.114 264.92C354.863 264.92 354.737 264.92 354.737 264.92Z" fill="#FFD2D4"/>
<path d="M334.337 282.565C334.211 282.565 334.085 282.565 333.959 282.565C328.166 282.313 323.507 277.398 323.759 271.474C323.885 268.575 325.018 266.055 327.159 264.038C329.3 262.148 331.944 261.139 334.84 261.265C337.611 261.391 340.255 262.526 342.27 264.668C344.285 266.811 345.166 269.458 345.04 272.356C344.915 275.255 343.781 277.776 341.64 279.792C339.626 281.557 337.107 282.565 334.337 282.565ZM334.337 263.156C332.07 263.156 330.055 264.038 328.418 265.551C326.655 267.189 325.648 269.332 325.648 271.726C325.396 276.641 329.3 280.674 334.085 280.927C336.351 281.053 338.744 280.17 340.381 278.532C342.144 276.893 343.152 274.751 343.152 272.356C343.277 269.962 342.396 267.693 340.759 266.055C339.122 264.29 336.981 263.282 334.589 263.282C334.589 263.156 334.463 263.156 334.337 263.156Z" fill="#FFD2D4"/>
<path d="M343.152 273.617L347.056 273.743C347.56 273.743 347.937 273.365 347.937 272.986C347.937 272.482 347.56 272.104 347.182 272.104L343.278 271.978C342.774 271.978 342.396 272.356 342.396 272.734C342.396 273.239 342.774 273.617 343.152 273.617Z" fill="#FFD2D4"/>
<path d="M350.959 279.162C350.834 280.548 349.196 281.809 347.433 281.935C345.545 282.061 344.159 281.179 344.285 279.792C344.411 278.406 346.048 277.145 347.811 277.019C349.7 276.767 351.085 277.776 350.959 279.162Z" fill="#86294E"/>
<path d="M350.203 286.598C350.077 289.749 347.181 292.269 343.781 292.143C340.381 292.017 338.366 288.615 338.492 285.464C342.522 284.96 346.425 285.338 350.203 286.598Z" fill="#86294E"/>
<path d="M344.284 288.488C341.514 288.11 339.877 287.228 339.751 285.212C343.151 285.086 346.425 285.338 349.699 286.346C349.196 288.236 346.929 288.867 344.284 288.488Z" fill="#FFD2D4"/>
<path d="M336.225 293.404H329.425C326.655 293.404 324.01 292.395 321.996 290.505L317.714 286.724C317.336 286.472 317.336 285.842 317.714 285.59C317.966 285.212 318.595 285.212 318.847 285.59L323.129 289.371C324.892 290.883 327.033 291.765 329.425 291.765H336.225C336.729 291.765 337.107 292.143 337.107 292.648C336.981 293.026 336.603 293.404 336.225 293.404Z" fill="#201028"/>
<path d="M336.225 294.16H333.454C332.573 294.16 331.817 293.404 331.817 292.521C331.817 291.639 332.573 290.883 333.454 290.883H336.225C337.106 290.883 337.862 291.639 337.862 292.521C337.862 293.404 337.106 294.16 336.225 294.16Z" fill="#FFD2D4"/>
<path d="M327.005 282.86C329.586 275.727 325.901 267.85 318.773 265.266C311.646 262.683 303.775 266.371 301.194 273.505C298.613 280.638 302.298 288.515 309.426 291.098C316.553 293.682 324.423 289.993 327.005 282.86Z" fill="#445EEA"/>
<path d="M322.755 278.517C323.009 272.049 318.427 266.617 312.52 266.385C306.613 266.152 301.619 271.207 301.364 277.675C301.11 284.144 305.693 289.575 311.6 289.808C317.506 290.04 322.501 284.985 322.755 278.517Z" fill="#91A8F6"/>
<path d="M313.811 278.154C313.685 280.8 311.922 282.817 309.907 282.817C307.892 282.691 306.255 280.548 306.381 277.902C306.507 275.255 308.27 273.239 310.285 273.239C312.299 273.239 313.811 275.507 313.811 278.154Z" fill="#E0EEF7"/>
<path d="M347.433 470.605L281.573 472.496C270.617 472.118 262.054 462.791 262.432 451.827L266.588 341.422C266.839 335.625 270.617 330.583 276.158 328.945L325.27 313.317L364.559 332.096C369.47 334.49 372.492 339.532 372.366 344.951L368.211 451.449C367.581 462.539 358.389 470.984 347.433 470.605Z" fill="#93C7EA"/>
<path d="M372.24 344.951C372.492 356.42 372.366 368.015 372.114 379.484C371.988 390.953 371.611 402.422 371.107 413.891C370.603 425.36 370.099 436.829 369.344 448.298C369.218 451.07 369.092 454.221 367.959 457.12C366.951 460.019 365.314 462.665 363.299 464.682C359.018 468.841 353.099 471.236 347.307 470.605C353.099 470.479 358.514 467.959 362.166 463.674C363.929 461.657 365.314 459.137 366.07 456.49C366.825 453.843 366.825 451.196 366.825 448.298C366.951 436.829 367.329 425.36 367.833 413.891C368.337 402.422 368.84 390.953 369.596 379.484C370.351 367.889 371.107 356.42 372.24 344.951Z" fill="#6EACCE"/>
<path d="M343.277 334.112L307.766 331.844L309.151 310.67C309.277 308.024 311.543 306.007 314.188 306.259L340.255 307.898C342.899 308.024 344.914 310.292 344.662 312.939L343.277 334.112Z" fill="#93C7EA"/>
<path d="M237.247 438.215C226.291 433.678 221.002 420.949 225.536 409.984L249.714 351.883C254.247 340.918 266.966 335.625 277.921 340.162C288.877 344.699 294.166 357.428 289.633 368.393L265.455 426.494C260.921 437.585 248.328 442.878 237.247 438.215Z" fill="#93C7EA"/>
<path d="M277.921 340.162C281.825 341.422 285.351 343.943 287.869 347.22C290.388 350.496 292.025 354.656 292.402 358.941C293.032 363.226 291.647 367.637 290.01 371.292L285.476 382.509C282.328 389.945 279.18 397.381 275.78 404.69L270.743 415.655C268.98 419.31 267.217 422.965 265.328 426.494C266.587 422.587 267.973 418.806 269.232 415.025L273.387 403.682C276.158 396.12 279.306 388.684 282.328 381.122L287.114 370.032C287.869 368.141 288.751 366.503 289.128 364.612C289.632 362.848 289.884 360.957 289.758 358.941C289.884 351.379 285.225 343.943 277.921 340.162Z" fill="#6EACCE"/>
<path d="M337.737 407.841L326.781 407.085C322.625 406.833 319.477 403.304 319.729 399.145L320.107 394.23C320.359 390.071 323.885 386.92 328.04 387.172L338.996 387.928L337.737 407.841ZM327.788 392.087C326.403 391.961 325.144 393.095 325.018 394.482L324.64 399.397C324.514 400.783 325.648 402.044 327.033 402.17L333.077 402.548L333.707 392.465L327.788 392.087Z" fill="#86294E"/>
<path d="M348.441 423.595L338.87 422.965C333.078 422.587 328.67 417.546 329.048 411.874L331.063 381.248C331.315 377.846 361.663 379.736 361.537 383.265L359.522 413.891C359.271 419.562 354.233 423.973 348.441 423.595Z" fill="#D15E79"/>
<path d="M358.515 384.021C358.389 385.281 352.848 385.912 345.922 385.407C338.996 384.903 333.455 383.643 333.581 382.383C333.707 381.122 339.248 380.492 346.174 380.996C353.1 381.5 358.641 382.887 358.515 384.021Z" fill="#86294E"/>
<path d="M225.283 418.806C225.409 406.833 235.232 397.381 247.195 397.507L310.158 398.515C322.121 398.641 331.566 408.471 331.44 420.445C331.314 432.418 321.492 441.87 309.529 441.744L246.565 440.736C234.602 440.61 225.158 430.779 225.283 418.806Z" fill="#93C7EA"/>
<path d="M247.195 397.507C255.255 397.002 263.314 396.75 271.373 396.624C279.433 396.498 287.492 396.498 295.551 396.624L307.64 396.876C311.544 396.876 316.329 397.507 319.981 399.649C323.759 401.666 326.907 404.816 328.922 408.471C330.937 412.126 331.818 416.411 331.315 420.445C330.811 412.378 325.774 405.069 318.848 401.918C317.085 401.162 315.322 400.657 313.433 400.279C311.544 399.901 309.655 400.027 307.64 400.027L295.551 399.901C287.492 399.775 279.433 399.523 271.373 399.145C263.314 398.767 255.255 398.389 247.195 397.507Z" fill="#6EACCE"/>
<path d="M348.875 427.822C355.537 419.787 354.429 407.868 346.4 401.201C338.372 394.533 326.463 395.642 319.801 403.677C313.139 411.712 314.247 423.631 322.275 430.299C330.304 436.967 342.213 435.858 348.875 427.822Z" fill="#FF8383"/>
<path d="M324.514 406.707C322.121 405.951 320.862 403.304 321.744 400.909L323.758 395.112C324.514 392.717 327.159 391.457 329.551 392.339C331.944 393.095 333.203 395.742 332.322 398.137L330.307 403.934C329.425 406.329 326.907 407.589 324.514 406.707Z" fill="#FF8383"/>
<path d="M360.782 409.228L344.033 410.74C341.389 410.992 339.122 409.102 338.87 406.455C338.618 403.808 340.507 401.54 343.152 401.288L359.9 399.775C362.544 399.523 364.811 401.414 365.063 404.06C365.189 406.581 363.3 408.976 360.782 409.228Z" fill="#FF8383"/>
<path d="M357.129 424.604L340.255 423.469C337.611 423.343 335.722 421.075 335.848 418.428C335.974 415.781 338.24 413.891 340.885 414.017L357.759 415.151C360.404 415.277 362.292 417.546 362.167 420.192C362.041 422.839 359.774 424.856 357.129 424.604Z" fill="#FF8383"/>
<path d="M528.264 367.259C527.761 367.259 527.257 367.007 526.879 366.629C526.124 365.872 526.124 364.612 526.879 363.856L545.768 344.951C546.524 344.195 547.783 344.195 548.539 344.951C549.294 345.707 549.294 346.968 548.539 347.724L529.65 366.629C529.272 367.007 528.768 367.259 528.264 367.259Z" fill="#445EEA"/>
<path d="M514.79 355.664C513.657 355.664 512.775 354.782 512.775 353.647V326.928C512.775 325.794 513.657 324.912 514.79 324.912C515.924 324.912 516.805 325.794 516.805 326.928V353.647C516.805 354.782 515.924 355.664 514.79 355.664Z" fill="#445EEA"/>
<path d="M566.42 380.618H539.724C538.59 380.618 537.709 379.736 537.709 378.602C537.709 377.467 538.59 376.585 539.724 376.585H566.42C567.554 376.585 568.435 377.467 568.435 378.602C568.435 379.736 567.554 380.618 566.42 380.618Z" fill="#445EEA"/>
<path d="M329.803 463.548H492.753C497.287 463.548 498.672 459.893 498.672 455.355H321.618C321.618 459.893 325.27 463.548 329.803 463.548Z" fill="#6EACCE"/>
<path d="M320.359 455.355H378.159C378.159 459.893 374.004 463.548 368.841 463.548H330.936C330.936 463.548 320.233 463.548 320.107 463.548C314.818 463.548 315.07 455.355 320.359 455.355Z" fill="#6EACCE"/>
<path d="M381.811 457.75H498.797C502.323 457.75 505.22 455.229 505.849 451.827L521.59 384.147C522.472 379.736 519.072 375.577 514.538 375.577H397.552C394.026 375.577 391.129 378.098 390.5 381.5L374.759 449.18C373.877 453.591 377.277 457.75 381.811 457.75Z" fill="#E0EEF7"/>
<path d="M390.374 381.374C390.752 379.484 391.759 377.846 393.27 376.837C395.411 378.476 396.67 381.122 396.167 384.021L380.426 451.701C380.048 453.591 379.041 455.103 377.529 456.238C375.389 454.599 374.129 451.953 374.633 449.054L390.374 381.374Z" fill="#6EACCE"/>
<path d="M464.041 425.234H444.9C440.997 425.234 437.723 422.083 437.723 418.05C437.723 414.143 440.871 410.866 444.9 410.866H464.041C467.945 410.866 471.219 414.017 471.219 418.05C471.093 422.083 467.945 425.234 464.041 425.234Z" fill="white"/>
<path d="M337.862 457.624H332.07C330.936 457.624 330.055 456.742 330.055 455.608C330.055 454.473 330.936 453.591 332.07 453.591H337.862C338.995 453.591 339.877 454.473 339.877 455.608C339.877 456.742 338.995 457.624 337.862 457.624Z" fill="#6EACCE"/>
<path d="M349.07 457.624H343.278C342.144 457.624 341.263 456.742 341.263 455.608C341.263 454.473 342.144 453.591 343.278 453.591H349.07C350.204 453.591 351.085 454.473 351.085 455.608C351.085 456.742 350.204 457.624 349.07 457.624Z" fill="#6EACCE"/>
<path d="M360.277 457.624H354.485C353.351 457.624 352.47 456.742 352.47 455.608C352.47 454.473 353.351 453.591 354.485 453.591H360.277C361.411 453.591 362.292 454.473 362.292 455.608C362.418 456.742 361.411 457.624 360.277 457.624Z" fill="#6EACCE"/>
<path d="M371.61 457.624H365.818C364.684 457.624 363.803 456.742 363.803 455.608C363.803 454.473 364.684 453.591 365.818 453.591H371.61C372.744 453.591 373.625 454.473 373.625 455.608C373.625 456.742 372.744 457.624 371.61 457.624Z" fill="#6EACCE"/>
<path d="M586.065 473H93.6895C90.9191 473 88.7783 470.731 88.7783 468.085C88.7783 465.312 91.045 463.169 93.6895 463.169H586.065C588.835 463.169 590.976 465.438 590.976 468.085C590.976 470.857 588.709 473 586.065 473Z" fill="#1B2A67"/>
<path d="M167.357 432.796C167.357 432.796 163.705 405.573 157.157 398.893" stroke="#1B2A67" stroke-width="0.8269" stroke-miterlimit="10" stroke-linecap="round"/>
<path d="M158.165 382.635C159.927 388.432 159.55 393.726 157.409 394.356C155.268 394.986 151.994 390.827 150.231 385.029V384.903C148.72 379.736 156.527 377.341 158.165 382.509C158.165 382.509 158.165 382.509 158.165 382.635Z" fill="#445EEA"/>
<path d="M168.616 395.616C162.823 397.381 157.534 397.002 156.905 394.86C156.275 392.717 160.431 389.441 166.223 387.676H166.349C171.512 386.164 173.905 393.978 168.742 395.616C168.742 395.616 168.742 395.616 168.616 395.616Z" fill="#445EEA"/>
<path d="M148.846 401.54C154.638 399.775 158.794 396.624 158.164 394.356C157.535 392.213 152.246 391.835 146.453 393.6H146.327C141.164 395.238 143.557 403.052 148.72 401.54C148.72 401.666 148.72 401.666 148.846 401.54Z" fill="#445EEA"/>
<path d="M158.543 408.219C160.18 402.422 159.676 397.128 157.535 396.498C155.269 395.868 152.246 400.153 150.609 405.951V406.077C149.224 411.244 157.032 413.513 158.543 408.345V408.219Z" fill="#445EEA"/>
<path d="M164.21 406.455C159.676 402.548 157.158 397.885 158.669 396.12C160.18 394.356 165.091 396.246 169.75 400.153L169.876 400.279C173.906 403.808 168.617 409.984 164.461 406.581C164.21 406.581 164.21 406.581 164.21 406.455Z" fill="#445EEA"/>
<path d="M160.179 395.112C160.683 396.624 159.801 398.137 158.29 398.641C156.779 399.145 155.268 398.263 154.764 396.75C154.261 395.238 155.142 393.726 156.653 393.222C158.164 392.717 159.676 393.6 160.179 395.112Z" fill="#93C7EA"/>
<path d="M156.653 415.277C164.209 421.201 168.49 428.385 166.224 431.157C163.957 434.056 156.024 431.535 148.468 425.612C140.912 419.688 138.897 409.732 138.897 409.732C138.897 409.732 149.098 409.354 156.653 415.277Z" fill="#445EEA"/>
<path d="M183.098 424.225C175.164 431.661 166.349 435.316 163.579 432.292C160.808 429.267 164.964 420.823 172.898 413.261C180.831 405.825 192.416 405.195 192.416 405.195C192.416 405.195 191.031 416.79 183.098 424.225Z" fill="#445EEA"/>
<path d="M177.305 464.808H151.238L146.705 432.039H181.839L177.305 464.808Z" fill="#1B2A67"/>
<path d="M183.224 440.358H145.32C144.312 440.358 143.431 439.475 143.431 438.467V430.023C143.431 429.015 144.312 428.133 145.32 428.133H183.224C184.231 428.133 185.113 429.015 185.113 430.023V438.467C184.987 439.601 184.231 440.358 183.224 440.358Z" fill="#1B2A67"/>
<path d="M243.67 186.906L256.64 200.77L354.99 159.683L243.67 186.906Z" fill="#445EEA"/>
<path d="M248.329 141.283L238.506 155.902L245.18 170.27L230.447 172.791L217.351 201.4L358.137 158.801L248.329 141.283Z" fill="#91A8F6"/>
<path d="M245.18 170.27L238.506 155.902L314.818 159.431L245.18 170.27Z" fill="#445EEA"/>
<path d="M237.75 312.561C236.617 312.561 235.61 312.561 234.476 312.561C233.343 312.561 232.461 311.678 232.587 310.544C232.713 309.41 233.595 308.402 234.602 308.654C239.765 308.654 244.802 308.654 250.343 308.402C250.343 308.402 250.343 308.402 250.469 308.402C251.476 308.402 252.358 309.284 252.484 310.292C252.484 311.426 251.728 312.309 250.595 312.309C245.936 312.435 241.78 312.561 237.75 312.561ZM218.609 311.804H218.483C213.069 311.3 207.654 310.67 202.617 309.788C201.483 309.536 200.854 308.528 200.98 307.519C201.231 306.511 202.239 305.755 203.246 305.881C208.283 306.763 213.446 307.393 218.735 307.897C219.869 308.023 220.624 308.906 220.498 310.04C220.498 310.922 219.617 311.804 218.609 311.804ZM187.505 306.007C187.254 306.007 187.128 306.007 186.876 305.881C181.713 304.243 176.676 302.352 171.89 300.083C170.883 299.579 170.505 298.445 170.883 297.437C171.387 296.429 172.52 296.05 173.527 296.428C178.187 298.571 183.098 300.462 188.009 301.974C189.016 302.352 189.646 303.36 189.268 304.495C189.142 305.503 188.387 306.007 187.505 306.007ZM158.92 292.521C158.542 292.521 158.164 292.395 157.787 292.143C153.253 289.119 149.098 285.842 145.068 282.187C144.312 281.431 144.186 280.17 144.942 279.414C145.698 278.658 146.957 278.532 147.712 279.288C151.49 282.817 155.646 285.968 159.927 288.867C160.809 289.497 161.061 290.757 160.431 291.639C160.179 292.269 159.55 292.521 158.92 292.521ZM135.623 271.222C134.994 271.222 134.49 270.97 134.112 270.466C130.712 266.307 127.69 261.77 125.045 257.106C124.542 256.098 124.794 254.964 125.801 254.46C126.808 253.956 127.942 254.208 128.445 255.216C130.964 259.753 133.986 264.038 137.134 268.071C137.764 268.953 137.638 270.214 136.757 270.844C136.505 271.096 136.127 271.222 135.623 271.222ZM120.008 243.747C119.253 243.747 118.497 243.243 118.119 242.487C116.231 237.319 114.719 232.152 113.712 226.859C113.46 225.85 114.216 224.716 115.223 224.59C116.356 224.338 117.364 225.094 117.49 226.102C118.497 231.144 119.882 236.059 121.771 240.974C122.149 241.982 121.645 243.117 120.638 243.495C120.512 243.621 120.26 243.747 120.008 243.747ZM113.712 212.743C112.705 212.743 111.823 211.987 111.697 210.852C111.445 207.576 111.445 204.173 111.445 200.77V200.014C111.445 198.249 111.445 196.611 111.571 194.846C111.571 193.838 112.453 192.956 113.586 192.956C113.586 192.956 113.586 192.956 113.712 192.956C114.845 192.956 115.601 193.964 115.601 194.972C115.601 196.611 115.475 198.375 115.475 200.014V200.77C115.475 204.173 115.601 207.45 115.727 210.6C115.853 211.735 114.971 212.617 113.838 212.743C113.838 212.743 113.838 212.743 113.712 212.743Z" fill="#445EEA"/>
<path d="M130.335 181.361C127.312 181.361 124.29 181.361 121.394 181.235C120.261 181.235 119.505 180.353 119.505 179.218C119.505 178.084 120.386 177.328 121.52 177.328C126.557 177.454 131.846 177.454 137.261 177.328C138.52 177.202 139.276 178.21 139.276 179.218C139.276 180.353 138.394 181.235 137.387 181.235C134.994 181.361 132.601 181.361 130.335 181.361ZM153.128 180.731C152.12 180.731 151.239 179.974 151.113 178.84C151.113 177.706 151.868 176.824 153.002 176.698C158.165 176.446 163.454 176.067 168.742 175.563C169.75 175.437 170.757 176.32 170.883 177.328C171.009 178.462 170.128 179.344 169.12 179.47C163.831 179.974 158.416 180.479 153.128 180.731C153.253 180.731 153.253 180.731 153.128 180.731ZM105.653 180.479H105.527C99.9862 180.101 94.6973 179.47 89.6602 178.714C88.5268 178.588 87.7713 177.58 88.0231 176.446C88.1491 175.311 89.1565 174.681 90.2898 174.807C95.201 175.563 100.49 176.067 105.905 176.572C107.038 176.698 107.794 177.58 107.668 178.714C107.542 179.722 106.66 180.479 105.653 180.479ZM184.735 177.958C183.728 177.958 182.846 177.202 182.72 176.194C182.594 175.059 183.35 174.177 184.483 174.051C189.646 173.421 194.809 172.791 200.224 172.034C201.358 171.908 202.365 172.665 202.491 173.673C202.617 174.807 201.861 175.815 200.854 175.941C195.439 176.698 190.276 177.454 185.113 177.958C184.987 177.958 184.861 177.958 184.735 177.958ZM74.2971 175.941C74.1711 175.941 74.0452 175.941 73.9193 175.941C70.1415 175.059 66.3637 174.177 62.8377 173.043C61.3266 172.539 59.8154 172.16 58.4302 171.656C57.4228 171.278 56.7932 170.144 57.171 169.136C57.5487 168.127 58.6821 167.497 59.6895 167.875C61.0747 168.379 62.5858 168.758 63.971 169.262C67.3711 170.27 71.023 171.278 74.8008 172.034C75.8082 172.286 76.5638 173.295 76.3119 174.429C75.9341 175.311 75.1786 175.941 74.2971 175.941ZM44.3264 165.733C44.0745 165.733 43.6968 165.607 43.4449 165.481C38.4078 163.086 33.7485 160.313 29.467 157.289C28.5855 156.658 28.3336 155.398 28.9633 154.516C29.5929 153.634 30.8522 153.382 31.7337 154.012C35.7633 156.911 40.2967 159.557 45.0819 161.952C46.0894 162.456 46.4671 163.59 45.9634 164.599C45.7116 165.355 45.082 165.733 44.3264 165.733ZM112.201 163.968C111.068 163.968 110.186 163.086 110.186 161.952V161.322C110.186 156.28 109.934 151.239 109.557 146.324C109.431 145.189 110.312 144.307 111.32 144.181C112.327 144.055 113.335 144.937 113.46 145.946C113.838 150.987 114.09 156.154 114.09 161.322V162.078C114.216 163.086 113.335 163.968 112.201 163.968ZM18.7632 147.206C18.2594 147.206 17.7557 146.954 17.252 146.576C13.6001 142.543 10.326 138.006 7.80749 133.342C7.30378 132.334 7.68156 131.2 8.56305 130.696C9.57047 130.192 10.7038 130.57 11.2075 131.452C13.6001 135.863 16.6224 140.148 20.1484 143.929C20.9039 144.685 20.778 145.946 20.0224 146.702C19.7706 147.08 19.2669 147.206 18.7632 147.206ZM109.683 132.334C108.675 132.334 107.92 131.704 107.794 130.696C106.912 125.276 105.653 120.235 104.268 115.446C104.016 114.438 104.52 113.303 105.653 113.051C106.66 112.673 107.794 113.303 108.046 114.438C109.431 119.353 110.69 124.646 111.697 130.192C111.823 131.326 111.194 132.334 110.06 132.46C109.934 132.334 109.809 132.334 109.683 132.334ZM3.65189 119.731C2.7704 119.731 2.01484 119.101 1.76298 118.219C1.51113 117.336 1.25927 116.454 1.13335 115.572C0.377782 112.547 0 109.648 0 106.75C0 104.985 0.125927 103.347 0.377782 101.708C0.503709 100.574 1.51113 99.9438 2.64447 100.07C3.77782 100.196 4.40745 101.204 4.28153 102.338C4.02967 103.851 3.90374 105.363 3.90374 106.876C3.90374 109.396 4.28153 112.043 4.91116 114.69C5.16302 115.572 5.28894 116.454 5.5408 117.21C5.79265 118.219 5.16302 119.353 4.1556 119.605C4.02967 119.731 3.77782 119.731 3.65189 119.731ZM100.616 101.96C99.8603 101.96 99.2307 101.582 98.8529 100.826C96.4603 95.9108 93.8158 91.4997 90.7935 87.7187C90.1639 86.8365 90.2898 85.5761 91.0454 84.946C91.9269 84.3158 93.1861 84.4418 93.8158 85.198C96.964 89.2311 99.8603 93.8943 102.379 99.0616C102.883 100.07 102.379 101.204 101.497 101.708C101.12 101.96 100.868 101.96 100.616 101.96ZM8.56305 89.6092C8.18527 89.6092 7.68156 89.4831 7.42971 89.2311C6.54822 88.6009 6.42229 87.3406 7.05193 86.4584C10.2001 82.2993 14.3557 78.6443 19.3928 75.4935C20.2743 74.9894 21.5336 75.2415 22.1632 76.1237C22.7928 77.0059 22.415 78.2662 21.5336 78.8964C16.8743 81.6691 13.0964 85.072 10.2001 88.853C9.6964 89.3571 9.19269 89.6092 8.56305 89.6092ZM80.5934 77.8881C80.2156 77.8881 79.8379 77.7621 79.4601 77.51C75.3045 74.7373 70.6452 72.7208 65.6081 71.4605C64.6007 71.2084 63.8451 70.0741 64.2229 69.0659C64.4747 68.0576 65.6081 67.4274 66.6155 67.6795C72.0304 69.0659 77.0675 71.2084 81.7268 74.2332C82.6083 74.8634 82.8601 75.9977 82.3564 77.0059C81.8527 77.51 81.2231 77.8881 80.5934 77.8881ZM34.8818 72.8468C34.0004 72.8468 33.2448 72.3427 32.9929 71.4605C32.7411 70.4522 33.2448 69.3179 34.3781 69.0659C39.4152 67.5535 44.5782 66.6712 49.8672 66.2932H50.4968C51.5042 66.2932 52.5117 67.1754 52.5117 68.1836C52.5117 69.3179 51.6302 70.2002 50.6227 70.2002H50.245C45.2079 70.5783 40.2967 71.4605 35.6374 72.8468C35.2596 72.8468 35.0078 72.8468 34.8818 72.8468Z" fill="#445EEA"/>
<path d="M509.753 86.3323H615.28C628.503 86.3323 639.207 97.045 639.207 110.278V164.724C639.207 177.958 628.503 188.671 615.28 188.671H546.272L521.465 210.474V188.545H509.753C496.531 188.545 485.827 177.832 485.827 164.598V110.152C485.953 96.919 496.657 86.3323 509.753 86.3323Z" fill="#445EEA"/>
<path d="M525.116 119.983H599.917C601.554 119.983 602.939 118.597 602.939 116.958C602.939 115.32 601.554 113.933 599.917 113.933H525.116C523.479 113.933 522.094 115.32 522.094 116.958C522.094 118.597 523.479 119.983 525.116 119.983Z" fill="#91A8F6"/>
<path d="M525.116 139.896H599.917C601.554 139.896 602.939 138.51 602.939 136.871C602.939 135.233 601.554 133.847 599.917 133.847H525.116C523.479 133.847 522.094 135.233 522.094 136.871C522.094 138.51 523.479 139.896 525.116 139.896Z" fill="#91A8F6"/>
<path d="M588.961 159.935H599.916C601.553 159.935 602.939 158.549 602.939 156.911C602.939 155.272 601.553 153.886 599.916 153.886H588.961C587.324 153.886 585.938 155.272 585.938 156.911C585.938 158.549 587.324 159.935 588.961 159.935Z" fill="#91A8F6"/>
<path d="M564.027 159.935H574.983C576.62 159.935 578.005 158.549 578.005 156.911C578.005 155.272 576.62 153.886 574.983 153.886H564.027C562.39 153.886 561.005 155.272 561.005 156.911C561.005 158.549 562.39 159.935 564.027 159.935Z" fill="#91A8F6"/>
<path d="M525.116 159.935H550.05C551.687 159.935 553.072 158.549 553.072 156.911C553.072 155.272 551.687 153.886 550.05 153.886H525.116C523.479 153.886 522.094 155.272 522.094 156.911C522.094 158.549 523.479 159.935 525.116 159.935Z" fill="#91A8F6"/>
<path d="M496.405 194.972H415.685C407.752 194.972 401.33 201.4 401.33 209.34V255.972C401.33 263.534 407.248 269.71 414.678 270.34L397.93 297.689L441.878 270.466H496.405C504.338 270.466 510.76 264.038 510.76 256.098V209.466C510.886 201.526 504.338 194.972 496.405 194.972Z" fill="#91A8F6"/>
<path d="M462.869 228.18C466.607 224.439 466.607 218.374 462.869 214.634C459.132 210.893 453.072 210.893 449.335 214.634C445.597 218.374 445.597 224.439 449.335 228.18C453.072 231.92 459.132 231.92 462.869 228.18Z" fill="#445EEA" stroke="#445EEA" stroke-width="2.7611" stroke-miterlimit="10" stroke-linecap="round" stroke-linejoin="round"/>
<path d="M478.649 253.577H433.441C433.441 245.511 439.99 239.084 447.923 239.084H464.168C472.227 239.084 478.649 245.637 478.649 253.577Z" fill="#445EEA" stroke="#445EEA" stroke-width="2.7611" stroke-miterlimit="10" stroke-linecap="round" stroke-linejoin="round"/>
<path d="M398.938 119.227C396.293 119.227 393.523 118.975 391.004 118.471C389.997 118.219 389.241 117.21 389.493 116.076C389.745 114.942 390.753 114.312 391.886 114.564C395.916 115.446 400.197 115.572 404.227 114.942C405.36 114.816 406.368 115.572 406.493 116.58C406.619 117.714 405.864 118.723 404.856 118.849C402.842 119.101 400.953 119.227 398.938 119.227ZM416.82 114.564C416.064 114.564 415.434 114.185 415.057 113.555C414.553 112.547 414.931 111.413 415.812 110.909C419.464 108.892 422.738 106.245 425.383 103.095C426.138 102.212 427.397 102.212 428.153 102.843C429.034 103.599 429.034 104.859 428.405 105.615C425.383 109.144 421.731 112.043 417.701 114.312C417.575 114.564 417.197 114.564 416.82 114.564ZM379.293 113.555C378.915 113.555 378.538 113.429 378.286 113.303C374.382 110.783 370.982 107.758 368.086 103.977C367.456 103.095 367.582 101.834 368.463 101.204C369.345 100.574 370.604 100.7 371.234 101.582C373.752 104.859 376.901 107.758 380.427 109.9C381.308 110.531 381.686 111.665 381.056 112.673C380.552 113.177 379.923 113.555 379.293 113.555ZM433.694 95.0286C433.442 95.0286 433.19 95.0286 433.064 94.9025C432.057 94.5244 431.553 93.3901 431.931 92.3819C433.316 88.4749 434.072 84.4418 434.072 80.1567C434.072 79.0224 434.953 78.1402 436.086 78.1402C437.22 78.1402 438.101 79.0224 438.101 80.1567C438.101 84.8199 437.346 89.3571 435.709 93.7682C435.205 94.5244 434.449 95.0286 433.694 95.0286ZM363.552 93.1381C362.671 93.1381 361.915 92.6339 361.663 91.7517C360.53 88.0968 359.9 84.1898 359.9 80.2828C359.9 79.5266 359.9 78.7704 359.9 78.1402C359.9 77.0059 360.908 76.2497 362.041 76.2497C363.175 76.2497 363.93 77.258 363.93 78.3923C363.93 79.0224 363.93 79.6526 363.93 80.4088C363.93 83.9377 364.434 87.4666 365.441 90.7434C365.819 91.7517 365.189 92.886 364.182 93.2641C363.93 93.1381 363.804 93.1381 363.552 93.1381ZM434.953 73.2249C434.072 73.2249 433.316 72.5948 433.064 71.7125C432.057 67.6795 430.294 63.8985 428.027 60.3696C427.397 59.4874 427.649 58.2271 428.531 57.5969C429.412 56.9667 430.672 57.2188 431.301 58.101C433.946 62.008 435.835 66.1671 436.968 70.7043C437.22 71.7125 436.59 72.8468 435.583 73.0989C435.205 73.2249 435.079 73.2249 434.953 73.2249ZM365.063 67.3014C364.812 67.3014 364.56 67.3014 364.308 67.1754C363.3 66.7973 362.797 65.5369 363.3 64.5287C365.189 60.2436 367.708 56.4626 370.982 53.0597C371.738 52.3035 372.997 52.3035 373.752 53.0597C374.508 53.8159 374.508 55.0762 373.752 55.8324C370.856 58.8572 368.589 62.2601 366.826 66.1671C366.449 66.9233 365.819 67.3014 365.063 67.3014ZM420.345 51.9254C419.968 51.9254 419.59 51.7994 419.212 51.5473C415.812 49.1527 412.034 47.3883 408.005 46.254C406.997 46.0019 406.368 44.8676 406.619 43.8594C406.871 42.8511 408.005 42.2209 409.012 42.473C413.545 43.7333 417.701 45.6238 421.479 48.3965C422.36 49.0267 422.612 50.287 421.983 51.1692C421.605 51.6734 420.975 51.9254 420.345 51.9254ZM382.945 48.7746C382.19 48.7746 381.56 48.3965 381.182 47.6403C380.678 46.6321 381.056 45.4978 382.064 44.9936C386.219 42.9771 390.753 41.7168 395.286 41.3387C396.293 41.2127 397.301 42.0949 397.427 43.1032C397.553 44.2375 396.671 45.1197 395.664 45.2457C391.508 45.6238 387.478 46.7581 383.701 48.5226C383.449 48.7746 383.197 48.7746 382.945 48.7746Z" fill="#445EEA"/>
<path d="M398.938 61.3779C384.708 61.3779 373.123 69.0659 373.123 78.5183C373.123 81.0389 375.138 82.6774 376.901 81.9212L383.701 79.0224C385.338 78.2662 386.094 75.9976 385.338 73.9811L384.456 71.7125C384.456 71.7125 396.923 73.9811 413.294 71.7125L412.412 74.6113C411.909 76.5018 412.538 78.5183 413.924 79.2745L420.598 82.9294C422.235 83.8117 424.124 82.6774 424.501 80.4088C424.627 79.7786 424.627 79.1485 424.627 78.5183C424.879 69.0659 413.294 61.3779 398.938 61.3779Z" fill="#445EEA"/>
<path d="M416.946 98.9356H381.057L386.346 82.2993C387.353 79.1485 390.249 77.0059 393.523 77.0059H404.353C407.627 77.0059 410.524 79.1485 411.531 82.2993L416.946 98.9356Z" fill="#91A8F6"/>
<path d="M630.14 322.139C627.495 322.139 624.725 321.887 622.207 321.383C621.199 321.131 620.444 320.123 620.695 318.988C620.947 317.98 621.955 317.224 623.088 317.476C627.118 318.358 631.399 318.484 635.429 317.854C636.562 317.728 637.57 318.484 637.696 319.492C637.822 320.627 637.066 321.635 636.059 321.761C634.044 322.013 632.029 322.139 630.14 322.139ZM648.022 317.602C647.266 317.602 646.636 317.224 646.259 316.594C645.755 315.585 646.133 314.451 647.014 313.947C650.666 311.931 653.94 309.284 656.585 306.133C657.34 305.251 658.599 305.251 659.355 305.881C660.237 306.637 660.237 307.897 659.607 308.654C656.585 312.183 652.933 315.081 648.903 317.35C648.651 317.476 648.273 317.602 648.022 317.602ZM610.369 316.468C609.992 316.468 609.614 316.342 609.362 316.216C605.458 313.695 602.058 310.67 599.162 306.889C598.532 306.007 598.658 304.747 599.54 304.116C600.421 303.486 601.68 303.612 602.31 304.495C604.829 307.771 607.977 310.67 611.503 312.813C612.384 313.443 612.762 314.577 612.132 315.585C611.629 316.216 610.999 316.468 610.369 316.468ZM664.77 298.067C664.518 298.067 664.266 298.067 664.14 297.941C663.133 297.563 662.629 296.429 663.007 295.42C664.392 291.513 665.148 287.354 665.148 283.195C665.148 282.061 666.029 281.179 667.163 281.179C668.296 281.179 669.177 282.061 669.177 283.195C669.177 287.858 668.422 292.395 666.785 296.807C666.407 297.563 665.651 298.067 664.77 298.067ZM594.754 296.05C593.873 296.05 593.117 295.546 592.866 294.664C591.732 291.009 591.103 287.102 591.103 283.195C591.103 282.439 591.103 281.683 591.103 281.053C591.103 279.918 592.236 279.162 593.243 279.162C594.377 279.162 595.132 280.17 595.132 281.305C595.132 281.935 595.132 282.565 595.132 283.321C595.132 286.85 595.636 290.379 596.643 293.656C597.021 294.664 596.391 295.798 595.384 296.176C595.132 296.05 594.88 296.05 594.754 296.05ZM666.029 276.263C665.148 276.263 664.392 275.633 664.14 274.751C663.133 270.718 661.37 266.937 659.103 263.408C658.474 262.526 658.725 261.265 659.607 260.635C660.488 260.005 661.748 260.257 662.377 261.139C665.022 264.92 666.911 269.205 668.044 273.743C668.296 274.751 667.666 275.885 666.659 276.137C666.407 276.137 666.155 276.263 666.029 276.263ZM596.14 270.34C595.888 270.34 595.636 270.34 595.384 270.214C594.377 269.836 593.873 268.575 594.377 267.567C596.266 263.282 598.784 259.501 602.058 256.098C602.814 255.342 604.073 255.342 604.829 256.098C605.584 256.854 605.584 258.115 604.829 258.871C601.932 261.896 599.666 265.299 597.903 269.206C597.651 269.836 596.895 270.34 596.14 270.34ZM651.548 254.964C651.17 254.964 650.792 254.838 650.414 254.586C647.014 252.191 643.236 250.427 639.207 249.292C638.199 249.04 637.57 247.906 637.822 246.898C638.073 245.889 639.207 245.259 640.214 245.511C644.748 246.772 648.903 248.662 652.681 251.435C653.562 252.065 653.814 253.325 653.185 254.208C652.681 254.586 652.177 254.964 651.548 254.964ZM614.021 251.813C613.266 251.813 612.636 251.435 612.258 250.679C611.755 249.67 612.132 248.536 613.14 248.032C617.295 246.016 621.829 244.755 626.362 244.377C627.495 244.251 628.377 245.133 628.503 246.142C628.629 247.276 627.747 248.158 626.74 248.284C622.584 248.662 618.555 249.797 614.777 251.561C614.651 251.687 614.273 251.813 614.021 251.813Z" fill="#445EEA"/>
<path d="M652.807 276.137H606.844V302.226H652.807V276.137Z" fill="#91A8F6"/>
<path d="M646.385 274.121V270.97C646.385 268.575 648.274 266.685 650.666 266.685C653.059 266.685 654.948 268.575 654.948 270.97V276.263H646.511" fill="#445EEA"/>
<path d="M646.511 270.844V297.941H615.155V270.844C615.155 268.449 617.044 266.559 619.437 266.559H650.415L649.533 266.685C647.77 267.315 646.511 268.953 646.511 270.844Z" fill="#E0EEF7"/>
<path d="M624.096 270.97H617.17V278.154H624.096V270.97Z" fill="#445EEA"/>
<path d="M626.236 270.97H643.866" stroke="#445EEA" stroke-width="0.6576" stroke-miterlimit="10" stroke-linecap="round" stroke-linejoin="round"/>
<path d="M626.236 273.365H643.866" stroke="#445EEA" stroke-width="0.6576" stroke-miterlimit="10" stroke-linecap="round" stroke-linejoin="round"/>
<path d="M626.236 275.759H643.866" stroke="#445EEA" stroke-width="0.6576" stroke-miterlimit="10" stroke-linecap="round" stroke-linejoin="round"/>
<path d="M626.362 278.154H643.992" stroke="#445EEA" stroke-width="0.6576" stroke-miterlimit="10" stroke-linecap="round" stroke-linejoin="round"/>
<path d="M617.17 280.548H643.866" stroke="#445EEA" stroke-width="0.6576" stroke-miterlimit="10" stroke-linecap="round" stroke-linejoin="round"/>
<path d="M617.17 282.943H643.866" stroke="#445EEA" stroke-width="0.6576" stroke-miterlimit="10" stroke-linecap="round" stroke-linejoin="round"/>
<path d="M617.17 285.212H643.866" stroke="#445EEA" stroke-width="0.6576" stroke-miterlimit="10" stroke-linecap="round" stroke-linejoin="round"/>
<path d="M617.17 287.606H630.14" stroke="#445EEA" stroke-width="0.6576" stroke-miterlimit="10" stroke-linecap="round" stroke-linejoin="round"/>
<path d="M641.474 302.226H606.844V276.137L641.474 302.226Z" fill="#445EEA"/>
<path d="M618.052 302.226H652.682V276.137L618.052 302.226Z" fill="#445EEA"/>
<path d="M652.681 302.226H629.763H606.844L627.496 291.261C628.881 290.253 630.77 290.253 632.155 291.261L652.681 302.226Z" fill="#445EEA"/>
</svg>
