 <svg width="713" height="473" fill="none" xmlns="http://www.w3.org/2000/svg"><path d="M376.775 452.079c-11.46 3.277-23.423-3.403-26.697-14.872l-17.126-60.622c-3.274-11.469 3.4-23.442 14.859-26.719 11.46-3.277 23.423 3.403 26.697 14.872l17.126 60.622c3.274 11.469-3.4 23.442-14.859 26.719z" fill="#93C7EA"/><path d="M352.345 451.575c-8.564-8.319-8.689-22.056-.252-30.5l44.074-44.994c8.311-8.57 22.037-8.696 30.475-.252 8.563 8.318 8.689 22.056.251 30.5l-44.074 44.994c-8.311 8.444-21.911 8.57-30.474.252z" fill="#93C7EA"/><path d="M439.99 365.242c5.793 8.696 3.4 20.418-5.289 26.215-8.689 5.798-20.4 3.403-26.192-5.293-5.793-8.697-3.4-20.418 5.289-26.215 8.688-5.798 20.4-3.403 26.192 5.293z" fill="#FF8383"/><path d="M411.657 372.93c-2.645.63-5.289-.882-6.045-3.529l-1.637-6.553c-.629-2.647.882-5.294 3.526-6.05 2.645-.63 5.289.882 6.045 3.529l1.637 6.554c.629 2.772-1.008 5.419-3.526 6.049z" fill="#FF8383"/><path d="M430.546 350.496l-6.674 17.015c-1.008 2.647-4.03 3.907-6.674 2.899-2.645-1.009-3.904-4.033-2.897-6.68l6.674-17.015c1.008-2.646 4.03-3.907 6.675-2.898 2.644 1.134 3.903 4.159 2.896 6.679zM442.383 354.151l-8.059 16.385a5.045 5.045 0 0 1-6.8 2.268 5.054 5.054 0 0 1-2.267-6.806l8.059-16.384a5.045 5.045 0 0 1 6.8-2.268c2.519 1.134 3.526 4.285 2.267 6.805z" fill="#FF8383"/><path d="M451.198 363.226l-11.333 14.367c-1.763 2.269-4.911 2.647-7.178.883-2.267-1.765-2.645-4.916-.882-7.184l11.334-14.368c1.763-2.268 4.911-2.647 7.178-.882 2.266 1.764 2.644 4.915.881 7.184zM330.055 328.693l-7.304-.252c-4.911-.252-8.815-4.411-8.563-9.327l1.511-39.07 25.186 1.009-1.511 39.07c-.252 4.915-4.408 8.696-9.319 8.57z" fill="#FF8383"/><path d="M340.885 279.666l-25.186-1.008-.377 9.957c-.378 9.704 7.555 18.274 17.252 17.518.629 0 1.259-.126 1.763-.252 2.014-.378 3.903-1.134 5.666-2.017l.882-24.198z" fill="#D15E79"/><path d="M331.493 276.841c16.73-4.738 27.345-19.004 23.708-31.863-3.636-12.859-20.145-19.442-36.875-14.704-16.73 4.739-27.344 19.004-23.708 31.863 3.636 12.86 20.146 19.443 36.875 14.704z" fill="#1B2A67"/><path d="M347.46 270.211c15.222-2.589 26.201-12.698 24.524-22.58-1.678-9.882-15.377-15.794-30.599-13.206-15.222 2.588-26.202 12.697-24.524 22.579 1.677 9.882 15.377 15.795 30.599 13.207z" fill="#1B2A67"/><path d="M341.197 255.66c11.337-10.489 15.017-24.959 8.219-32.319-6.798-7.36-21.5-4.823-32.837 5.666-11.338 10.489-15.017 24.959-8.219 32.319 6.798 7.36 21.5 4.823 32.837-5.666z" fill="#1B2A67"/><path d="M355.493 273.365c2.518 13.863-4.786 26.844-16.245 28.861-11.459 2.017-22.793-7.562-25.185-21.552l-2.015-10.964c-2.519-13.864 4.785-26.845 16.244-28.862 11.46-2.016 22.793 7.562 25.186 21.552l2.015 10.965z" fill="#FF8383"/><path d="M331.063 239.336c-6.297-5.798-17.378-3.025-24.682 6.175-7.304 9.201-8.06 21.3-1.637 26.971 6.296 5.798 17.378 3.025 24.682-6.175 7.177-9.201 7.933-21.3 1.637-26.971z" fill="#1B2A67"/><path d="M335.218 270.34c-.377 0-.755-.126-1.007-.504-.378-.504-.252-1.261.252-1.639.126-.126 3.778-2.646 7.681-.378.504.378.756 1.008.378 1.639-.378.504-1.007.756-1.637.378-2.644-1.513-5.163.126-5.163.252-.126.126-.378.252-.504.252zM355.115 270.34a.962.962 0 0 1-.63-.252c-.126-.126-2.645-1.765-5.163-.252-.504.378-1.259.126-1.637-.378-.378-.505-.126-1.261.378-1.639 3.903-2.268 7.555.252 7.681.378.504.378.63 1.135.252 1.639-.252.252-.63.504-.881.504zM340.382 273.365c0 .63-.63 1.134-1.259 1.134-.63 0-1.134-.63-1.134-1.26 0-.631.63-1.135 1.26-1.135.629.126 1.133.63 1.133 1.261zM351.841 273.869c0 .63-.63 1.134-1.259 1.134-.63 0-1.134-.63-1.134-1.26s.63-1.135 1.26-1.135c.755 0 1.259.631 1.133 1.261z" fill="#86294E"/><path d="M354.737 282.187h-.378c-2.519-.126-4.911-1.134-6.548-3.025-1.763-1.89-2.645-4.285-2.519-6.806.126-2.52 1.133-4.915 3.022-6.553 1.889-1.765 4.282-2.647 6.8-2.521 2.519.126 4.912 1.134 6.549 3.025 1.763 1.89 2.644 4.285 2.518 6.806-.126 2.52-1.133 4.915-3.022 6.553a9.367 9.367 0 0 1-6.422 2.521zm0-17.267c-2.015 0-3.904.757-5.289 2.143-1.511 1.386-2.393 3.403-2.519 5.419-.126 2.143.63 4.159 2.141 5.672 1.385 1.512 3.4 2.394 5.415 2.52 2.141 0 4.155-.63 5.667-2.142 1.511-1.386 2.392-3.403 2.518-5.419.126-2.143-.63-4.16-2.141-5.672-1.385-1.512-3.4-2.395-5.415-2.521h-.377zM334.337 282.565h-.378c-5.793-.252-10.452-5.167-10.2-11.091.126-2.899 1.259-5.419 3.4-7.436 2.141-1.89 4.785-2.899 7.681-2.773 2.771.126 5.415 1.261 7.43 3.403 2.015 2.143 2.896 4.79 2.77 7.688-.125 2.899-1.259 5.42-3.4 7.436-2.014 1.765-4.533 2.773-7.303 2.773zm0-19.409c-2.267 0-4.282.882-5.919 2.395-1.763 1.638-2.77 3.781-2.77 6.175-.252 4.915 3.652 8.948 8.437 9.201 2.266.126 4.659-.757 6.296-2.395 1.763-1.639 2.771-3.781 2.771-6.176.125-2.394-.756-4.663-2.393-6.301-1.637-1.765-3.778-2.773-6.17-2.773 0-.126-.126-.126-.252-.126z" fill="#FFD2D4"/><path d="M343.152 273.617l3.904.126c.504 0 .881-.378.881-.757 0-.504-.377-.882-.755-.882l-3.904-.126c-.504 0-.882.378-.882.756 0 .505.378.883.756.883z" fill="#FFD2D4"/><path d="M350.959 279.162c-.125 1.386-1.763 2.647-3.526 2.773-1.888.126-3.274-.756-3.148-2.143.126-1.386 1.763-2.647 3.526-2.773 1.889-.252 3.274.757 3.148 2.143zM350.203 286.598c-.126 3.151-3.022 5.671-6.422 5.545-3.4-.126-5.415-3.528-5.289-6.679 4.03-.504 7.933-.126 11.711 1.134z" fill="#86294E"/><path d="M344.284 288.488c-2.77-.378-4.407-1.26-4.533-3.276 3.4-.126 6.674.126 9.948 1.134-.503 1.89-2.77 2.521-5.415 2.142z" fill="#FFD2D4"/><path d="M336.225 293.404h-6.8c-2.77 0-5.415-1.009-7.429-2.899l-4.282-3.781c-.378-.252-.378-.882 0-1.134.252-.378.881-.378 1.133 0l4.282 3.781c1.763 1.512 3.904 2.394 6.296 2.394h6.8c.504 0 .882.378.882.883-.126.378-.504.756-.882.756z" fill="#201028"/><path d="M336.225 294.16h-2.771c-.881 0-1.637-.756-1.637-1.639 0-.882.756-1.638 1.637-1.638h2.771c.881 0 1.637.756 1.637 1.638 0 .883-.756 1.639-1.637 1.639z" fill="#FFD2D4"/><path d="M327.005 282.86c2.581-7.133-1.104-15.01-8.232-17.594-7.127-2.583-14.998 1.105-17.579 8.239-2.581 7.133 1.104 15.01 8.232 17.593 7.127 2.584 14.997-1.105 17.579-8.238z" fill="#445EEA"/><path d="M322.755 278.517c.254-6.468-4.328-11.9-10.235-12.132-5.907-.233-10.901 4.822-11.156 11.29-.254 6.469 4.329 11.9 10.236 12.133 5.906.232 10.901-4.823 11.155-11.291z" fill="#91A8F6"/><path d="M313.811 278.154c-.126 2.646-1.889 4.663-3.904 4.663-2.015-.126-3.652-2.269-3.526-4.915.126-2.647 1.889-4.663 3.904-4.663 2.014 0 3.526 2.268 3.526 4.915z" fill="#E0EEF7"/><path d="M347.433 470.605l-65.86 1.891c-10.956-.378-19.519-9.705-19.141-20.669l4.156-110.405c.251-5.797 4.029-10.839 9.57-12.477l49.112-15.628 39.289 18.779c4.911 2.394 7.933 7.436 7.807 12.855l-4.155 106.498c-.63 11.09-9.822 19.535-20.778 19.156z" fill="#93C7EA"/><path d="M372.24 344.951c.252 11.469.126 23.064-.126 34.533-.126 11.469-.503 22.938-1.007 34.407-.504 11.469-1.008 22.938-1.763 34.407-.126 2.772-.252 5.923-1.385 8.822-1.008 2.899-2.645 5.545-4.66 7.562-4.281 4.159-10.2 6.554-15.992 5.923 5.792-.126 11.207-2.646 14.859-6.931a19.017 19.017 0 0 0 3.904-7.184c.755-2.647.755-5.294.755-8.192.126-11.469.504-22.938 1.008-34.407.504-11.469 1.007-22.938 1.763-34.407.755-11.595 1.511-23.064 2.644-34.533z" fill="#6EACCE"/><path d="M343.277 334.112l-35.511-2.268 1.385-21.174c.126-2.646 2.392-4.663 5.037-4.411l26.067 1.639c2.644.126 4.659 2.394 4.407 5.041l-1.385 21.173zM237.247 438.215c-10.956-4.537-16.245-17.266-11.711-28.231l24.178-58.101c4.533-10.965 17.252-16.258 28.207-11.721 10.956 4.537 16.245 17.266 11.712 28.231l-24.178 58.101c-4.534 11.091-17.127 16.384-28.208 11.721z" fill="#93C7EA"/><path d="M277.921 340.162c3.904 1.26 7.43 3.781 9.948 7.058 2.519 3.276 4.156 7.436 4.533 11.721.63 4.285-.755 8.696-2.392 12.351l-4.534 11.217c-3.148 7.436-6.296 14.872-9.696 22.181l-5.037 10.965c-1.763 3.655-3.526 7.31-5.415 10.839 1.259-3.907 2.645-7.688 3.904-11.469l4.155-11.343c2.771-7.562 5.919-14.998 8.941-22.56l4.786-11.09c.755-1.891 1.637-3.529 2.014-5.42.504-1.764.756-3.655.63-5.671.126-7.562-4.533-14.998-11.837-18.779z" fill="#6EACCE"/><path d="M337.737 407.841l-10.956-.756a7.486 7.486 0 0 1-7.052-7.94l.378-4.915c.252-4.159 3.778-7.31 7.933-7.058l10.956.756-1.259 19.913zm-9.949-15.754c-1.385-.126-2.644 1.008-2.77 2.395l-.378 4.915c-.126 1.386 1.008 2.647 2.393 2.773l6.044.378.63-10.083-5.919-.378z" fill="#86294E"/><path d="M348.441 423.595l-9.571-.63c-5.792-.378-10.2-5.419-9.822-11.091l2.015-30.626c.252-3.402 30.6-1.512 30.474 2.017l-2.015 30.626c-.251 5.671-5.289 10.082-11.081 9.704z" fill="#D15E79"/><path d="M358.515 384.021c-.126 1.26-5.667 1.891-12.593 1.386-6.926-.504-12.467-1.764-12.341-3.024.126-1.261 5.667-1.891 12.593-1.387s12.467 1.891 12.341 3.025z" fill="#86294E"/><path d="M225.283 418.806c.126-11.973 9.949-21.425 21.912-21.299l62.963 1.008c11.963.126 21.408 9.956 21.282 21.93-.126 11.973-9.948 21.425-21.911 21.299l-62.964-1.008c-11.963-.126-21.407-9.957-21.282-21.93z" fill="#93C7EA"/><path d="M247.195 397.507c8.06-.505 16.119-.757 24.178-.883 8.06-.126 16.119-.126 24.178 0l12.089.252c3.904 0 8.689.631 12.341 2.773a22.324 22.324 0 0 1 8.941 8.822c2.015 3.655 2.896 7.94 2.393 11.974-.504-8.067-5.541-15.376-12.467-18.527-1.763-.756-3.526-1.261-5.415-1.639-1.889-.378-3.778-.252-5.793-.252l-12.089-.126a774.526 774.526 0 0 1-24.178-.756c-8.059-.378-16.118-.756-24.178-1.638z" fill="#6EACCE"/><path d="M348.875 427.822c6.662-8.035 5.554-19.954-2.475-26.621-8.028-6.668-19.937-5.559-26.599 2.476-6.662 8.035-5.554 19.954 2.474 26.622 8.029 6.668 19.938 5.559 26.6-2.477z" fill="#FF8383"/><path d="M324.514 406.707c-2.393-.756-3.652-3.403-2.77-5.798l2.014-5.797c.756-2.395 3.401-3.655 5.793-2.773 2.393.756 3.652 3.403 2.771 5.798l-2.015 5.797c-.882 2.395-3.4 3.655-5.793 2.773zM360.782 409.228l-16.749 1.512c-2.644.252-4.911-1.638-5.163-4.285-.252-2.647 1.637-4.915 4.282-5.167l16.748-1.513c2.644-.252 4.911 1.639 5.163 4.285.126 2.521-1.763 4.916-4.281 5.168zM357.129 424.604l-16.874-1.135c-2.644-.126-4.533-2.394-4.407-5.041.126-2.647 2.392-4.537 5.037-4.411l16.874 1.134c2.645.126 4.533 2.395 4.408 5.041-.126 2.647-2.393 4.664-5.038 4.412z" fill="#FF8383"/><path d="M528.264 367.259c-.503 0-1.007-.252-1.385-.63a1.98 1.98 0 0 1 0-2.773l18.889-18.905a1.976 1.976 0 0 1 2.771 0 1.98 1.98 0 0 1 0 2.773l-18.889 18.905c-.378.378-.882.63-1.386.63zM514.79 355.664a1.99 1.99 0 0 1-2.015-2.017v-26.719a1.99 1.99 0 0 1 2.015-2.016 1.99 1.99 0 0 1 2.015 2.016v26.719a1.99 1.99 0 0 1-2.015 2.017zM566.42 380.618h-26.696a1.99 1.99 0 0 1-2.015-2.016 1.99 1.99 0 0 1 2.015-2.017h26.696a1.99 1.99 0 0 1 2.015 2.017 1.99 1.99 0 0 1-2.015 2.016z" fill="#445EEA"/><path d="M329.803 463.548h162.95c4.534 0 5.919-3.655 5.919-8.193H321.618a8.173 8.173 0 0 0 8.185 8.193z" fill="#6EACCE"/><path d="M320.359 455.355h57.8c0 4.538-4.155 8.193-9.318 8.193h-37.905-10.829c-5.289 0-5.037-8.193.252-8.193z" fill="#6EACCE"/><path d="M381.811 457.75h116.986c3.526 0 6.423-2.521 7.052-5.923l15.741-67.68c.882-4.411-2.518-8.57-7.052-8.57H397.552c-3.526 0-6.423 2.521-7.052 5.923l-15.741 67.68c-.882 4.411 2.518 8.57 7.052 8.57z" fill="#E0EEF7"/><path d="M390.374 381.374c.378-1.89 1.385-3.528 2.896-4.537 2.141 1.639 3.4 4.285 2.897 7.184l-15.741 67.68c-.378 1.89-1.385 3.402-2.897 4.537-2.14-1.639-3.4-4.285-2.896-7.184l15.741-67.68z" fill="#6EACCE"/><path d="M464.041 425.234H444.9c-3.903 0-7.177-3.151-7.177-7.184 0-3.907 3.148-7.184 7.177-7.184h19.141c3.904 0 7.178 3.151 7.178 7.184-.126 4.033-3.274 7.184-7.178 7.184z" fill="#fff"/><path d="M337.862 457.624h-5.792a1.99 1.99 0 0 1-2.015-2.016 1.99 1.99 0 0 1 2.015-2.017h5.792a1.99 1.99 0 0 1 2.015 2.017 1.99 1.99 0 0 1-2.015 2.016zM349.07 457.624h-5.792a1.99 1.99 0 0 1-2.015-2.016 1.99 1.99 0 0 1 2.015-2.017h5.792a1.99 1.99 0 0 1 2.015 2.017 1.99 1.99 0 0 1-2.015 2.016zM360.277 457.624h-5.792a1.99 1.99 0 0 1-2.015-2.016 1.99 1.99 0 0 1 2.015-2.017h5.792a1.99 1.99 0 0 1 2.015 2.017c.126 1.134-.881 2.016-2.015 2.016zM371.61 457.624h-5.792a1.99 1.99 0 0 1-2.015-2.016 1.99 1.99 0 0 1 2.015-2.017h5.792a1.99 1.99 0 0 1 2.015 2.017 1.99 1.99 0 0 1-2.015 2.016z" fill="#6EACCE"/><path d="M586.065 473H93.689c-2.77 0-4.91-2.269-4.91-4.915 0-2.773 2.266-4.916 4.91-4.916h492.376c2.77 0 4.911 2.269 4.911 4.916 0 2.772-2.267 4.915-4.911 4.915z" fill="#1B2A67"/><path d="M167.357 432.796s-3.652-27.223-10.2-33.903" stroke="#1B2A67" stroke-width=".827" stroke-miterlimit="10" stroke-linecap="round"/><path d="M158.165 382.635c1.762 5.797 1.385 11.091-.756 11.721-2.141.63-5.415-3.529-7.178-9.327v-.126c-1.511-5.167 6.296-7.562 7.934-2.394v.126z" fill="#445EEA"/><path d="M168.616 395.616c-5.793 1.765-11.082 1.386-11.711-.756-.63-2.143 3.526-5.419 9.318-7.184h.126c5.163-1.512 7.556 6.302 2.393 7.94h-.126z" fill="#445EEA"/><path d="M148.846 401.54c5.792-1.765 9.948-4.916 9.318-7.184-.629-2.143-5.918-2.521-11.711-.756h-.126c-5.163 1.638-2.77 9.452 2.393 7.94 0 .126 0 .126.126 0z" fill="#445EEA"/><path d="M158.543 408.219c1.637-5.797 1.133-11.091-1.008-11.721-2.266-.63-5.289 3.655-6.926 9.453v.126c-1.385 5.167 6.423 7.436 7.934 2.268v-.126z" fill="#445EEA"/><path d="M164.21 406.455c-4.534-3.907-7.052-8.57-5.541-10.335 1.511-1.764 6.422.126 11.081 4.033l.126.126c4.03 3.529-1.259 9.705-5.415 6.302-.251 0-.251 0-.251-.126z" fill="#445EEA"/><path d="M160.179 395.112c.504 1.512-.378 3.025-1.889 3.529-1.511.504-3.022-.378-3.526-1.891-.503-1.512.378-3.024 1.889-3.528 1.511-.505 3.023.378 3.526 1.89z" fill="#93C7EA"/><path d="M156.653 415.277c7.556 5.924 11.837 13.108 9.571 15.88-2.267 2.899-10.2.378-17.756-5.545-7.556-5.924-9.571-15.88-9.571-15.88s10.201-.378 17.756 5.545z" fill="#445EEA"/><path d="M183.098 424.225c-7.934 7.436-16.749 11.091-19.519 8.067-2.771-3.025 1.385-11.469 9.319-19.031 7.933-7.436 19.518-8.066 19.518-8.066s-1.385 11.595-9.318 19.03z" fill="#445EEA"/><path d="M177.305 464.808h-26.067l-4.533-32.769h35.134l-4.534 32.769z" fill="#1B2A67"/><path d="M183.224 440.358H145.32c-1.008 0-1.889-.883-1.889-1.891v-8.444c0-1.008.881-1.89 1.889-1.89h37.904c1.007 0 1.889.882 1.889 1.89v8.444c-.126 1.134-.882 1.891-1.889 1.891z" fill="#1B2A67"/><path d="M243.67 186.906l12.97 13.864 98.35-41.087-111.32 27.223z" fill="#445EEA"/><path d="M248.329 141.283l-9.823 14.619 6.674 14.368-14.733 2.521-13.096 28.609 140.786-42.599-109.808-17.518z" fill="#91A8F6"/><path d="M245.18 170.27l-6.674-14.368 76.312 3.529-69.638 10.839zM237.75 312.561h-3.274c-1.133 0-2.015-.883-1.889-2.017.126-1.134 1.008-2.142 2.015-1.89 5.163 0 10.2 0 15.741-.252h.126c1.007 0 1.889.882 2.015 1.89 0 1.134-.756 2.017-1.889 2.017-4.659.126-8.815.252-12.845.252zm-19.141-.757h-.126c-5.414-.504-10.829-1.134-15.866-2.016-1.134-.252-1.763-1.26-1.637-2.269.251-1.008 1.259-1.764 2.266-1.638 5.037.882 10.2 1.512 15.489 2.016 1.134.126 1.889 1.009 1.763 2.143 0 .882-.881 1.764-1.889 1.764zm-31.104-5.797c-.251 0-.377 0-.629-.126-5.163-1.638-10.2-3.529-14.986-5.798-1.007-.504-1.385-1.638-1.007-2.646.504-1.008 1.637-1.387 2.644-1.009a118.18 118.18 0 0 0 14.482 5.546c1.007.378 1.637 1.386 1.259 2.521-.126 1.008-.881 1.512-1.763 1.512zm-28.585-13.486c-.378 0-.756-.126-1.133-.378-4.534-3.024-8.689-6.301-12.719-9.956-.756-.756-.882-2.017-.126-2.773.756-.756 2.015-.882 2.77-.126 3.778 3.529 7.934 6.68 12.215 9.579.882.63 1.134 1.89.504 2.772-.252.63-.881.882-1.511.882zm-23.297-21.299a1.796 1.796 0 0 1-1.511-.756c-3.4-4.159-6.422-8.696-9.067-13.36-.503-1.008-.251-2.142.756-2.646 1.007-.504 2.141-.252 2.644.756 2.519 4.537 5.541 8.822 8.689 12.855.63.882.504 2.143-.377 2.773-.252.252-.63.378-1.134.378zm-15.615-27.475c-.755 0-1.511-.504-1.889-1.26-1.888-5.168-3.4-10.335-4.407-15.628-.252-1.009.504-2.143 1.511-2.269 1.133-.252 2.141.504 2.267 1.512 1.007 5.042 2.392 9.957 4.281 14.872a1.959 1.959 0 0 1-1.133 2.521.962.962 0 0 1-.63.252zm-6.296-31.004c-1.007 0-1.889-.756-2.015-1.891-.252-3.276-.252-6.679-.252-10.082v-.756c0-1.765 0-3.403.126-5.168 0-1.008.882-1.89 2.015-1.89h.126c1.133 0 1.889 1.008 1.889 2.016 0 1.639-.126 3.403-.126 5.042v.756c0 3.403.126 6.68.252 9.83.126 1.135-.756 2.017-1.889 2.143h-.126zM130.335 181.361c-3.023 0-6.045 0-8.941-.126-1.133 0-1.889-.882-1.889-2.017 0-1.134.881-1.89 2.015-1.89 5.037.126 10.326.126 15.741 0 1.259-.126 2.015.882 2.015 1.89 0 1.135-.882 2.017-1.889 2.017-2.393.126-4.786.126-7.052.126zm22.793-.63c-1.008 0-1.889-.757-2.015-1.891 0-1.134.755-2.016 1.889-2.142a342.549 342.549 0 0 0 15.74-1.135c1.008-.126 2.015.757 2.141 1.765.126 1.134-.755 2.016-1.763 2.142-5.289.504-10.704 1.009-15.992 1.261.125 0 .125 0 0 0zm-47.475-.252h-.126c-5.54-.378-10.83-1.009-15.867-1.765-1.133-.126-1.889-1.134-1.637-2.268.126-1.135 1.133-1.765 2.267-1.639 4.911.756 10.2 1.26 15.615 1.765 1.133.126 1.889 1.008 1.763 2.142-.126 1.008-1.008 1.765-2.015 1.765zm79.082-2.521c-1.007 0-1.889-.756-2.015-1.764-.126-1.135.63-2.017 1.763-2.143 5.163-.63 10.326-1.26 15.741-2.017 1.134-.126 2.141.631 2.267 1.639.126 1.134-.63 2.142-1.637 2.268-5.415.757-10.578 1.513-15.741 2.017h-.378zm-110.438-2.017h-.378c-3.778-.882-7.555-1.764-11.081-2.898-1.511-.504-3.023-.883-4.408-1.387-1.007-.378-1.637-1.512-1.259-2.52.378-1.009 1.511-1.639 2.519-1.261 1.385.504 2.896.883 4.281 1.387 3.4 1.008 7.052 2.016 10.83 2.772 1.007.252 1.763 1.261 1.51 2.395-.377.882-1.132 1.512-2.014 1.512zm-29.97-10.208c-.252 0-.63-.126-.882-.252a94.77 94.77 0 0 1-13.978-8.192c-.881-.631-1.133-1.891-.504-2.773.63-.882 1.89-1.134 2.77-.504 4.03 2.899 8.564 5.545 13.349 7.94 1.007.504 1.385 1.638.881 2.647-.251.756-.881 1.134-1.637 1.134zm67.874-1.765a1.99 1.99 0 0 1-2.015-2.016v-.63c0-5.042-.252-10.083-.629-14.998-.126-1.135.755-2.017 1.763-2.143 1.007-.126 2.015.756 2.14 1.765.378 5.041.63 10.208.63 15.376v.756c.126 1.008-.755 1.89-1.889 1.89zm-93.438-16.762c-.504 0-1.007-.252-1.511-.63-3.652-4.033-6.926-8.57-9.445-13.234-.503-1.008-.125-2.142.756-2.646 1.007-.504 2.14-.126 2.644.756 2.393 4.411 5.415 8.696 8.941 12.477.756.756.63 2.017-.126 2.773-.251.378-.755.504-1.259.504zm90.92-14.872c-1.008 0-1.763-.63-1.889-1.638-.882-5.42-2.141-10.461-3.526-15.25-.252-1.008.252-2.143 1.385-2.395 1.007-.378 2.141.252 2.393 1.387a170.686 170.686 0 0 1 3.651 15.754c.126 1.134-.503 2.142-1.637 2.268-.126-.126-.251-.126-.377-.126zM3.652 119.731c-.882 0-1.637-.63-1.889-1.512-.252-.883-.504-1.765-.63-2.647C.378 112.547 0 109.648 0 106.75c0-1.765.126-3.403.378-5.042.126-1.134 1.133-1.764 2.266-1.638 1.134.126 1.763 1.134 1.638 2.268a27.586 27.586 0 0 0-.378 4.538c0 2.52.378 5.167 1.007 7.814.252.882.378 1.764.63 2.52.252 1.009-.378 2.143-1.385 2.395-.126.126-.378.126-.504.126zm96.964-17.771c-.756 0-1.385-.378-1.763-1.134-2.393-4.915-5.037-9.326-8.06-13.107-.63-.882-.503-2.143.252-2.773.882-.63 2.141-.504 2.77.252 3.149 4.033 6.045 8.696 8.564 13.864.504 1.008 0 2.142-.882 2.646-.377.252-.629.252-.881.252zM8.563 89.61c-.378 0-.881-.127-1.133-.379-.882-.63-1.008-1.89-.378-2.773 3.148-4.159 7.304-7.814 12.34-10.965.882-.504 2.142-.251 2.771.63.63.883.252 2.143-.63 2.773-4.659 2.773-8.437 6.176-11.333 9.957-.504.504-1.007.756-1.637.756zm72.03-11.722c-.377 0-.755-.126-1.133-.378-4.155-2.773-8.815-4.79-13.852-6.05-1.007-.252-1.763-1.386-1.385-2.394.252-1.008 1.385-1.639 2.392-1.386 5.415 1.386 10.453 3.528 15.112 6.553.881.63 1.133 1.765.63 2.773-.504.504-1.134.882-1.764.882zm-45.711-5.041c-.882 0-1.637-.504-1.89-1.386-.25-1.009.253-2.143 1.386-2.395 5.037-1.513 10.2-2.395 15.49-2.773h.629c1.007 0 2.015.882 2.015 1.89 0 1.135-.882 2.017-1.89 2.017h-.377c-5.037.378-9.948 1.26-14.608 2.647h-.755zM509.753 86.332H615.28c13.223 0 23.927 10.713 23.927 23.946v54.446c0 13.234-10.704 23.947-23.927 23.947h-69.008l-24.807 21.803v-21.929h-11.712c-13.222 0-23.926-10.713-23.926-23.947v-54.446c.126-13.233 10.83-23.82 23.926-23.82z" fill="#445EEA"/><path d="M525.116 119.983h74.801c1.637 0 3.022-1.386 3.022-3.025 0-1.638-1.385-3.025-3.022-3.025h-74.801c-1.637 0-3.022 1.387-3.022 3.025 0 1.639 1.385 3.025 3.022 3.025zM525.116 139.896h74.801c1.637 0 3.022-1.386 3.022-3.025 0-1.638-1.385-3.024-3.022-3.024h-74.801c-1.637 0-3.022 1.386-3.022 3.024 0 1.639 1.385 3.025 3.022 3.025zM588.961 159.935h10.955c1.637 0 3.023-1.386 3.023-3.024 0-1.639-1.386-3.025-3.023-3.025h-10.955c-1.637 0-3.023 1.386-3.023 3.025 0 1.638 1.386 3.024 3.023 3.024zM564.027 159.935h10.956c1.637 0 3.022-1.386 3.022-3.024 0-1.639-1.385-3.025-3.022-3.025h-10.956c-1.637 0-3.022 1.386-3.022 3.025 0 1.638 1.385 3.024 3.022 3.024zM525.116 159.935h24.934c1.637 0 3.022-1.386 3.022-3.024 0-1.639-1.385-3.025-3.022-3.025h-24.934c-1.637 0-3.022 1.386-3.022 3.025 0 1.638 1.385 3.024 3.022 3.024zM496.405 194.972h-80.72c-7.933 0-14.355 6.428-14.355 14.368v46.632c0 7.562 5.918 13.738 13.348 14.368l-16.748 27.349 43.948-27.223h54.527c7.933 0 14.355-6.428 14.355-14.368v-46.632c.126-7.94-6.422-14.494-14.355-14.494z" fill="#91A8F6"/><path d="M462.869 228.18c3.738-3.741 3.738-9.806 0-13.546a9.563 9.563 0 0 0-13.534 0c-3.738 3.74-3.738 9.805 0 13.546a9.565 9.565 0 0 0 13.534 0zM478.649 253.577h-45.208c0-8.066 6.549-14.493 14.482-14.493h16.245c8.059 0 14.481 6.553 14.481 14.493z" fill="#445EEA" stroke="#445EEA" stroke-width="2.761" stroke-miterlimit="10" stroke-linecap="round" stroke-linejoin="round"/><path d="M398.938 119.227c-2.645 0-5.415-.252-7.934-.756-1.007-.252-1.763-1.261-1.511-2.395.252-1.134 1.26-1.764 2.393-1.512a33.906 33.906 0 0 0 12.341.378c1.133-.126 2.141.63 2.266 1.638.126 1.134-.629 2.143-1.637 2.269a46.645 46.645 0 0 1-5.918.378zm17.882-4.663a2.009 2.009 0 0 1-1.763-1.009c-.504-1.008-.126-2.142.755-2.646 3.652-2.017 6.926-4.664 9.571-7.814a1.991 1.991 0 0 1 2.77-.252c.881.756.881 2.016.252 2.772-3.022 3.529-6.674 6.428-10.704 8.697-.126.252-.504.252-.881.252zm-37.527-1.009c-.378 0-.755-.126-1.007-.252-3.904-2.52-7.304-5.545-10.2-9.326-.63-.882-.504-2.143.377-2.773.882-.63 2.141-.504 2.771.378 2.518 3.277 5.667 6.176 9.193 8.318.881.631 1.259 1.765.629 2.773-.504.504-1.133.882-1.763.882zm54.401-18.526c-.252 0-.504 0-.63-.126a1.958 1.958 0 0 1-1.133-2.521c1.385-3.907 2.141-7.94 2.141-12.225a1.99 1.99 0 0 1 2.014-2.017 1.99 1.99 0 0 1 2.015 2.017c0 4.663-.755 9.2-2.392 13.611-.504.756-1.26 1.26-2.015 1.26zm-70.142-1.89c-.881 0-1.637-.505-1.889-1.387-1.133-3.655-1.763-7.562-1.763-11.47V78.14c0-1.134 1.008-1.89 2.141-1.89 1.134 0 1.889 1.008 1.889 2.142v2.017c0 3.529.504 7.058 1.511 10.334.378 1.009-.252 2.143-1.259 2.521-.252-.126-.378-.126-.63-.126zm71.401-19.914c-.881 0-1.637-.63-1.889-1.512-1.007-4.033-2.77-7.814-5.037-11.343-.63-.883-.378-2.143.504-2.773.881-.63 2.141-.378 2.77.504 2.645 3.907 4.534 8.066 5.667 12.603.252 1.009-.378 2.143-1.385 2.395-.378.126-.504.126-.63.126zm-69.89-5.924c-.251 0-.503 0-.755-.126-1.008-.378-1.511-1.638-1.008-2.646a38.998 38.998 0 0 1 7.682-11.47 1.975 1.975 0 0 1 2.77 0 1.978 1.978 0 0 1 0 2.773c-2.896 3.025-5.163 6.428-6.926 10.335-.377.756-1.007 1.134-1.763 1.134zm55.282-15.376c-.377 0-.755-.126-1.133-.378-3.4-2.394-7.178-4.159-11.207-5.293-1.008-.252-1.637-1.386-1.386-2.395.252-1.008 1.386-1.638 2.393-1.386 4.533 1.26 8.689 3.15 12.467 5.924.881.63 1.133 1.89.504 2.772-.378.504-1.008.756-1.638.756zm-37.4-3.15c-.755 0-1.385-.378-1.763-1.135-.504-1.008-.126-2.142.882-2.646 4.155-2.017 8.689-3.277 13.222-3.655 1.007-.126 2.015.756 2.141 1.764.126 1.134-.756 2.017-1.763 2.143-4.156.378-8.186 1.512-11.963 3.277-.252.252-.504.252-.756.252zM398.938 61.378c-14.23 0-25.815 7.688-25.815 17.14 0 2.52 2.015 4.16 3.778 3.403l6.8-2.899c1.637-.756 2.393-3.024 1.637-5.04l-.882-2.27s12.467 2.27 28.838 0l-.882 2.9c-.503 1.89.126 3.906 1.512 4.663l6.674 3.654c1.637.883 3.526-.252 3.903-2.52.126-.63.126-1.26.126-1.89.252-9.453-11.333-17.141-25.689-17.141z" fill="#445EEA"/><path d="M416.946 98.936h-35.889l5.289-16.637c1.007-3.15 3.903-5.293 7.177-5.293h10.83c3.274 0 6.171 2.142 7.178 5.293l5.415 16.637z" fill="#91A8F6"/><path d="M630.14 322.139c-2.645 0-5.415-.252-7.933-.756-1.008-.252-1.763-1.26-1.512-2.395.252-1.008 1.26-1.764 2.393-1.512a33.906 33.906 0 0 0 12.341.378c1.133-.126 2.141.63 2.267 1.638.126 1.135-.63 2.143-1.637 2.269-2.015.252-4.03.378-5.919.378zm17.882-4.537a2.008 2.008 0 0 1-1.763-1.008c-.504-1.009-.126-2.143.755-2.647 3.652-2.016 6.926-4.663 9.571-7.814a1.993 1.993 0 0 1 2.77-.252c.882.756.882 2.016.252 2.773-3.022 3.529-6.674 6.427-10.704 8.696-.252.126-.63.252-.881.252zm-37.653-1.134c-.377 0-.755-.126-1.007-.252-3.904-2.521-7.304-5.546-10.2-9.327-.63-.882-.504-2.142.378-2.773.881-.63 2.14-.504 2.77.379 2.519 3.276 5.667 6.175 9.193 8.318.881.63 1.259 1.764.629 2.772-.503.631-1.133.883-1.763.883zm54.401-18.401c-.252 0-.504 0-.63-.126a1.958 1.958 0 0 1-1.133-2.521c1.385-3.907 2.141-8.066 2.141-12.225a1.99 1.99 0 0 1 2.015-2.016 1.99 1.99 0 0 1 2.014 2.016c0 4.663-.755 9.2-2.392 13.612a2.244 2.244 0 0 1-2.015 1.26zm-70.016-2.017c-.881 0-1.637-.504-1.888-1.386-1.134-3.655-1.763-7.562-1.763-11.469v-2.142c0-1.135 1.133-1.891 2.14-1.891 1.134 0 1.889 1.008 1.889 2.143v2.016c0 3.529.504 7.058 1.511 10.335.378 1.008-.252 2.142-1.259 2.52-.252-.126-.504-.126-.63-.126zm71.275-19.787c-.881 0-1.637-.63-1.889-1.512-1.007-4.033-2.77-7.814-5.037-11.343-.629-.882-.378-2.143.504-2.773.881-.63 2.141-.378 2.77.504 2.645 3.781 4.534 8.066 5.667 12.604.252 1.008-.378 2.142-1.385 2.394-.252 0-.504.126-.63.126zm-69.889-5.923c-.252 0-.504 0-.756-.126-1.007-.378-1.511-1.639-1.007-2.647a38.998 38.998 0 0 1 7.681-11.469 1.976 1.976 0 0 1 2.771 0 1.98 1.98 0 0 1 0 2.773c-2.897 3.025-5.163 6.428-6.926 10.335-.252.63-1.008 1.134-1.763 1.134zm55.408-15.376c-.378 0-.756-.126-1.134-.378-3.4-2.395-7.178-4.159-11.207-5.294-1.008-.252-1.637-1.386-1.385-2.394.251-1.009 1.385-1.639 2.392-1.387 4.534 1.261 8.689 3.151 12.467 5.924.881.63 1.133 1.89.504 2.773-.504.378-1.008.756-1.637.756zm-37.527-3.151c-.755 0-1.385-.378-1.763-1.134-.503-1.009-.126-2.143.882-2.647 4.155-2.016 8.689-3.277 13.222-3.655 1.133-.126 2.015.756 2.141 1.765.126 1.134-.756 2.016-1.763 2.142-4.156.378-8.185 1.513-11.963 3.277-.126.126-.504.252-.756.252z" fill="#445EEA"/><path d="M652.807 276.137h-45.963v26.089h45.963v-26.089z" fill="#91A8F6"/><path d="M646.385 274.121v-3.151a4.248 4.248 0 0 1 4.281-4.285 4.248 4.248 0 0 1 4.282 4.285v5.293h-8.437" fill="#445EEA"/><path d="M646.511 270.844v27.097h-31.356v-27.097a4.248 4.248 0 0 1 4.282-4.285h30.978l-.882.126c-1.763.63-3.022 2.268-3.022 4.159z" fill="#E0EEF7"/><path d="M624.096 270.97h-6.926v7.184h6.926v-7.184z" fill="#445EEA"/><path d="M626.236 270.97h17.63M626.236 273.365h17.63M626.236 275.759h17.63M626.362 278.154h17.63M617.17 280.548h26.696M617.17 282.943h26.696M617.17 285.212h26.696M617.17 287.606h12.97" stroke="#445EEA" stroke-width=".658" stroke-miterlimit="10" stroke-linecap="round" stroke-linejoin="round"/><path d="M641.474 302.226h-34.63v-26.089l34.63 26.089z" fill="#445EEA"/><path d="M618.052 302.226h34.63v-26.089l-34.63 26.089z" fill="#445EEA"/><path d="M652.681 302.226h-45.837l20.652-10.965a3.967 3.967 0 0 1 4.659 0l20.526 10.965z" fill="#445EEA"/></svg>