 <svg viewBox="0 0 532 617" fill="none" xmlns="http://www.w3.org/2000/svg"><g clip-path="url(#clip0)"><path opacity=".25" d="M482.627 532.59c-21.867-12.669-52.767-16.945-80.656-13.144l99.196-57.646c10.775-6.335 10.775-16.47-.158-22.805L273.777 307.867c-10.934-6.335-28.523-6.335-39.457 0l-77.645 45.134c-33.594-14.886-81.607-13.303-112.19 4.435-30.583 17.737-32.96 45.609-7.13 64.93L8.83 438.995c-10.775 6.335-10.775 16.47.159 22.805l227.232 131.128c10.933 6.335 28.522 6.335 39.456 0l63.701-37.058c-6.655 16.154.951 34.049 22.818 46.719 33.436 19.32 87.629 19.32 120.906 0 33.276-19.321 32.959-50.678-.476-69.999z" fill="#87AEDD"/><path d="M140.037 387.842c-.951 9.977-10.3 16.629-18.699 20.271-9.19 3.959-19.332 5.543-29.315 5.385-10.141-.159-20.6-2.059-29.79-6.652-8.082-3.959-16.48-11.086-16.48-20.904 0 7.126.475 12.986 5.546 18.529 6.655 7.126 16.48 10.927 25.829 12.827 18.223 3.801 42.943 1.901 56.729-12.035 5.546-5.702 6.338-11.561 6.338-19.005 0 .634-.158 1.109-.158 1.584z" fill="#ADCDFC"/><path d="M126.251 366.938c18.54 10.61 18.54 28.031.317 38.641-18.381 10.611-48.33 10.611-66.87 0-18.54-10.61-18.54-28.031-.159-38.641 18.223-10.611 48.172-10.611 66.712 0z" fill="#E2EDFF"/><path d="M101.372 345.4l-.158 41.175-7.131 4.276v-41.334l7.289-4.117z" fill="#C7D8F2"/><path d="M94.083 349.517v41.334l-7.29-4.276V345.4l7.29 4.117z" fill="#7BAEFF"/><path d="M101.372 345.4l-7.289 4.117-7.29-4.117 7.29-4.276 7.289 4.276z" fill="#4DA5DC"/><path d="M47.179 211.579s-14.737 3.959-18.698 12.828c-3.962 8.868-3.011 75.858 17.747 103.572 20.759 27.556 59.264 31.515 68.138 27.556 8.874-3.959 60.215-29.615 64.177-42.442 3.961-12.828-15.846-22.647-26.622-27.556-10.775-4.91-17.747-11.878-23.61-29.615-5.863-17.737-8.874-48.302-15.846-53.212-7.131-4.909-23.928-12.827-65.286 8.869z" fill="#3AAEEF"/><path d="M135.6 193.842s-24.245-20.113-29.157-20.588c-5.863-.475-13.31 1.584-15.212 9.977-1.902 8.394 2.535 14.728 6.972 17.262 4.437 2.376 43.577 20.905 50.39 20.905 6.973 0 11.251-6.018 6.814-13.303-4.437-7.443-19.807-14.253-19.807-14.253z" fill="#E1E8F2"/><path d="M93.608 168.661v.792c.317 1.742 1.426 6.335 1.743 8.394.317 1.9-1.743 5.226-6.655 5.384-5.071.159-13.628-1.583-16.797-7.443.158-1.109-.793-12.194-1.743-17.579l23.452 10.452z" fill="#E16B40"/><path d="M104.383 132.078c-3.644-15.203-16.163-23.28-29.79-19.479 0 0-14.896 2.217-20.759 15.679-6.021 13.461 4.279 23.913 10.934 30.565 2.694 2.692 4.912 4.751 6.18 6.176l1.426 1.425.159.159c4.437 4.117 9.507 6.176 13.152 7.126 6.021 1.425 13.152.159 16.797-4.117 3.486-4.276 5.546-22.33 1.901-37.534z" fill="#FF8654"/><path d="M73.166 169.928S49.24 188.774 47.18 194.792c-2.218 6.018-1.901 22.488 3.803 33.099 5.705 10.611 5.705 50.994 7.923 58.754 2.219 7.76 23.61 9.186 36.604 6.018 12.994-3.167 33.594-14.094 29.474-28.823-6.18-21.696-4.595-43.709-4.12-50.677.475-6.968-1.268-24.231-5.071-35.633-.792-2.375-9.349-5.86-9.349-5.86s-9.032-4.117-33.276-1.742z" fill="#0046A6"/><path d="M77.445 260.039c-9.825-12.511 4.595-55.27-12.519-66.989-5.229-3.642-9.666-4.593-13.469-4.118-2.218 2.376-3.961 4.593-4.437 5.86-2.218 6.018-1.901 22.488 3.803 33.099 5.705 10.61 5.705 50.994 7.923 58.754 2.06 7.127 19.808 8.869 32.802 6.81l18.698-19.479c0-.159-22.977-1.584-32.801-13.937z" fill="#003783"/><path d="M72.216 173.096c20.758-1.901 30.265 1.742 32.642 2.692.317 4.118.476 9.66-.317 14.728-1.584 9.819-5.546 36.741-5.546 36.741s-12.835-22.171-21.233-31.198a450.47 450.47 0 0 0-14.737-15.52c5.07-4.118 9.19-7.443 9.19-7.443z" fill="#E1E8F2"/><path d="M93.608 168.661v.792c.317 1.742 1.426 6.335 1.743 8.394.317 1.9-1.743 5.226-6.655 5.384-5.071.159-13.628-1.583-16.797-7.443.158-1.109-.793-12.194-1.743-17.579l23.452 10.452z" fill="#FF8654"/><path d="M104.383 132.078c-3.644-15.203-16.163-23.28-29.79-19.479 0 0-14.896 2.217-20.759 15.679-6.021 13.461 4.279 23.913 10.934 30.565 2.694 2.692 4.912 4.751 6.18 6.176l1.426 1.425.159.159c4.437 4.117 9.507 6.176 13.152 7.126 6.021 1.425 13.152.159 16.797-4.117 3.486-4.276 5.546-22.33 1.901-37.534z" fill="#FF9F75"/><path d="M102.006 196.059l-9.19-8.235-7.448 12.986-7.448-4.751c8.399 9.185 21.234 31.198 21.234 31.198s3.328-22.488 5.071-33.89l-2.219 2.692z" fill="#CFDAE4"/><path d="M101.372 211.896l-4.12-14.57.634-4.909-5.07-4.593-3.645 6.335 4.12 3.8 1.11 21.538c2.851 4.593 4.753 7.76 4.753 7.76s1.109-6.968 2.218-15.361z" fill="#00A5FF"/><path d="M52.091 126.852s-5.863 10.769 1.426 22.172c7.448 11.402 15.371 16.312 17.273 16.153 1.901-.316 3.01-.791 2.377-2.217-.476-1.425-3.011-6.334-3.011-6.334s-8.399-.951-8.399-6.335c0-5.385 3.011-6.335 6.339-4.91 3.486 1.426 3.961 3.96 5.863 5.86 1.901 1.9 2.535 6.968 3.961 6.335 1.427-.475 2.536-1.901 2.536-4.435 0-2.533 0-5.384-3.011-8.393-3.01-3.009.475-7.918-2.535-11.878-3.011-3.959-4.913-5.384-4.913-5.384s1.902 3.009 11.885.95c9.824-1.9 14.261-1.425 18.223-3.959 3.961-2.534 3.011-7.918.475-9.819-2.535-1.9-8.398-3.009-15.37-5.384-6.973-2.376-10.776-.951-19.174.95-8.082 1.9-15.846 10.769-13.945 16.628z" fill="#E16B40"/><path d="M191.219 423.633s-.317 4.91 4.912 8.552c5.23 3.642 6.18 5.86 10.459 7.602 4.278 1.583 8.24 7.285 6.18 11.244-1.902 3.959-11.251 4.592-17.114 3.009-5.863-1.584-6.972-6.968-12.518-8.869-5.546-1.9-7.606-4.276-9.191-5.859-1.585-1.584-.951-8.236-.951-8.236l20.125-6.651M216.89 404.629s-.317 4.91 4.912 8.552c5.23 3.642 6.18 5.86 10.459 7.602 4.278 1.583 8.24 7.285 6.18 11.244-2.06 3.959-11.251 4.592-17.114 3.009-5.863-1.584-6.972-6.968-12.518-8.869-5.546-1.9-7.606-4.276-9.191-5.859-1.585-1.584-.951-8.236-.951-8.236l20.125-6.651" fill="#382747"/><path d="M60.331 286.804s.95 3.959.95 7.443c0 3.484-2.535 13.303 2.536 25.18 4.912 11.878 38.031 14.253 48.806 19.163 10.775 4.909 17.272 9.344 19.174 10.769 1.901 1.425 4.753 22.33 13.31 34.841 8.557 12.511 22.977 37.533 26.305 47.985 0 0 9.349 2.217 17.747-3.326 4.437-2.85 3.962-4.592 3.962-4.592s-17.114-37.533-21.076-53.212c-3.961-15.678-8.556-34.207-15.846-38.8-7.289-4.593-30.265-21.063-35.495-24.388-5.229-3.326-19.49-13.62-22.184-19.955-2.694-6.176-29.632-16.47-38.189-1.108z" fill="#94A3C0"/><path d="M87.428 270.492s.95 3.959.95 7.443c0 3.484-2.535 13.303 2.536 25.18 4.912 11.878 38.03 14.254 48.806 19.163 10.775 4.909 17.272 9.344 19.173 10.769 1.902 1.425 4.754 22.33 13.311 34.841 8.557 12.511 22.977 37.533 26.304 47.985 0 0 9.349 2.217 17.748-3.326 4.437-2.85 3.961-4.592 3.961-4.592s-16.955-37.375-20.916-53.212c-3.962-15.836-8.557-34.207-15.846-38.8-7.29-4.592-30.266-21.063-35.495-24.388-5.23-3.326-19.491-13.62-22.185-19.955-2.852-6.176-29.79-16.47-38.347-1.108z" fill="#94A3C0"/><path d="M220.693 395.127l-.317 100.247-17.589 10.294.317-100.247 17.589-10.294z" fill="#C7D8F2"/><path d="M203.104 405.421l-.317 100.247-17.589-10.294.158-100.247 17.748 10.294z" fill="#7BAEFF"/><path d="M220.693 395.127l-17.589 10.294-17.748-10.294 17.59-10.135 17.747 10.135z" fill="#4DA5DC"/><path d="M509.249 326.396c0 .316 0 .633-.159.95 0 .316-.158.475-.158.792 0 .316-.159.633-.317.791-.159.159-.159.476-.317.634-.159.317-.317.633-.475.792-.159.158-.317.475-.317.633-.159.317-.476.634-.634.95-.159.317-.476.634-.792.951l-.159.158-1.109 1.109c-.317.316-.634.475-.792.633-.317.158-.476.475-.793.633-.317.159-.634.476-.951.634-.316.158-.633.475-1.109.633L275.52 467.818c-1.902 1.108-3.962 1.9-6.18 2.692-1.743.475-3.486.95-5.229 1.267-1.109.158-2.377.317-3.486.475-.951.158-2.06.158-3.011.158h-2.852c-.951 0-1.902 0-2.694-.158v16.154c.951 0 1.901.158 2.694.158h2.852c1.109 0 2.06-.158 3.011-.158 1.267-.159 2.377-.317 3.486-.476a50.095 50.095 0 0 0 5.229-1.267c2.218-.633 4.278-1.583 6.18-2.692l225.647-131.128c.159 0 .159-.158.317-.158.317-.159.476-.317.634-.476.317-.158.634-.475.951-.633.317-.158.475-.475.792-.634.317-.158.634-.475.792-.633l.159-.158.951-.951.158-.158c.158-.158.317-.475.475-.633 0-.159.159-.159.159-.317.317-.317.475-.634.634-.95.158-.159.158-.317.317-.475 0 0 0-.159.158-.159.159-.317.317-.633.476-.792 0-.158.158-.316.158-.475v-.158c.158-.317.158-.475.317-.792 0-.158.158-.317.158-.633v-.159c0-.317 0-.633.159-.95v-.633-16.471c.317.475.317.792.317.951zM249.216 472.252a90.188 90.188 0 0 1-2.694-.475c-.951-.158-1.902-.475-2.853-.634-1.109-.316-2.218-.633-3.327-1.108-1.426-.634-2.694-1.267-3.962-1.9L8.99 337.006c-5.546-3.167-8.24-7.285-8.24-11.402v16.153c0 4.118 2.694 8.235 8.24 11.403l227.232 131.128c1.268.792 2.535 1.425 3.961 1.9 1.11.475 2.219.792 3.328 1.109.951.317 1.901.475 2.852.633.951.159 1.902.317 2.694.476.951.158 1.743.158 2.694.316v-16.153c-.792 0-1.585-.159-2.535-.317z" fill="#ADCDFC"/><path d="M501.167 314.835c10.934 6.334 10.934 16.47.159 22.805L275.678 468.768c-10.775 6.335-28.523 6.335-39.456 0L8.99 337.64c-10.934-6.335-10.934-16.471-.159-22.805l225.806-131.129c10.775-6.334 28.523-6.334 39.457 0l227.073 131.129z" fill="#E2EDFF"/><path d="M256.98 362.345l62.116 36.108 43.735-25.339-62.116-36.108-43.735 25.339z" fill="#fff"/><path d="M309.747 353.318l-9.825 5.701-12.36-3.642c3.487-3.959 11.885-5.543 18.699-3.484 1.426.316 2.535.792 3.486 1.425z" fill="#0038FF"/><path d="M312.124 353.951c6.497 3.801 6.655 9.978 0 13.778-6.497 3.801-17.114 3.801-23.769 0-5.229-3.009-6.497-7.443-3.169-11.244l15.053 4.435 11.885-6.969z" fill="#B391FF"/><path d="M303.092 381.032c-.475.317-.475.792 0 1.109.475.317 1.426.317 1.901 0l27.731-15.995c.475-.317.475-.792 0-1.109-.475-.317-1.426-.317-1.902 0l-27.73 15.995z" fill="#ADCDFC"/><path d="M322.266 373.747c-.476.317-.476.792 0 1.109.475.317 1.426.317 1.901 0l11.726-6.81c.476-.317.476-.792 0-1.108-.475-.317-1.426-.317-1.901 0l-11.726 6.809zM318.621 379.29c-.475.317-.634.792 0 1.109.476.317 1.426.317 1.902 0l18.381-10.611c.475-.316.475-.792 0-1.108-.475-.317-1.426-.317-1.901 0l-18.382 10.61z" fill="#D4D9DF"/><path d="M330.189 413.656c1.584.95 1.584 2.217 0 3.167l-44.369 25.814c-1.426.951-3.962.951-5.388 0l-31.058-17.895c-1.585-.95-1.585-2.217 0-3.168l44.369-25.813c1.426-.951 3.961-.951 5.388 0l31.058 17.895z" fill="#F2F8FD"/><path d="M331.298 415.398s0 .158 0 0v.792s0 .158-.159.158l-.158.159-.159.158-.158.158s-.159 0-.159.159c0 0-.158 0-.158.158l-44.369 25.814c-.158.158-.317.158-.475.317h-.159c-.158 0-.317 0-.317.158-.158 0-.317 0-.317.159-.158 0-.316 0-.475.158h-.792-.793-.158c-.158 0-.475 0-.634-.158h-.158c-.159 0-.317-.159-.476-.159h-.158c-.159-.158-.475-.158-.634-.317l-31.058-17.895a2.44 2.44 0 0 1-1.109-1.109v-.475 1.901c.158.475.475.95 1.109 1.425l31.058 17.895c.159.159.317.159.634.317h.158c.159 0 .159.159.317.159h3.169c.159 0 .317 0 .317-.159h.476c.158 0 .317-.158.475-.317l44.369-25.813h.158s.159 0 .159-.159l.158-.158s.159 0 .159-.159l.158-.158s0-.158.159-.158v-.159V415.398z" fill="url(#paint0_linear)"/><path d="M325.593 414.29c.475.316.475.791 0 .95l-42.15 24.547c-.476.316-1.268.316-1.743 0l-27.889-16.154c-.476-.317-.476-.792 0-.95l42.15-24.547c.475-.317 1.268-.317 1.743 0l27.889 16.154z" fill="url(#paint1_linear)"/><path d="M118.803 267.641l62.275 36.108 43.735-25.18-62.275-36.267-43.735 25.339z" fill="#fff"/><path d="M171.728 258.614l-9.824 5.701-12.36-3.642c3.486-3.959 11.884-5.543 18.698-3.484 1.268.317 2.377.792 3.486 1.425z" fill="#B391FF"/><path d="M173.947 259.406c6.497 3.801 6.655 9.977 0 13.778-6.497 3.801-17.114 3.801-23.769 0-5.23-3.009-6.497-7.443-3.17-11.244l15.054 4.434 11.885-6.968z" fill="#05CCFF"/><path d="M164.915 286.329c-.476.316-.476.791 0 1.108.475.317 1.426.317 1.901 0l27.731-15.995c.475-.317.475-.792 0-1.109-.476-.316-1.426-.316-1.902 0l-27.73 15.996z" fill="#ADCDFC"/><path d="M184.088 279.044c-.475.316-.475.791 0 1.108.476.317 1.427.317 1.902 0l11.726-6.81c.475-.316.475-.791 0-1.108-.475-.317-1.426-.317-1.901 0l-11.727 6.81z" fill="#D4D9DF"/><path d="M180.444 284.586c-.475.317-.634.792 0 1.109.475.317 1.426.317 1.901 0l18.382-10.611c.475-.316.475-.791 0-1.108-.476-.317-1.426-.317-1.902 0l-18.381 10.61z" fill="#05CCFF"/><path d="M218.791 378.974v3.642l-8.557 5.068v-3.801l8.557-4.909z" fill="#540CC7"/><path d="M210.234 383.883v3.801L137.025 345.4v-3.801l73.209 42.284z" fill="#3F0995"/><path d="M218.791 378.974l-8.557 4.909-73.209-42.284 8.557-4.91 73.209 42.285z" fill="#7974F5"/><path d="M186.307 379.607v3.801l-8.716 4.909v-3.642l8.716-5.068z" fill="#2689FD"/><path d="M177.591 384.675v3.642l-57.521-33.099v-3.8l57.521 33.257z" fill="#3548DB"/><path d="M186.307 379.607l-8.716 5.068-57.521-33.257 8.716-4.91 57.521 33.099z" fill="#58AFFB"/><path d="M138.293 371.372l-.158 3.801-8.557 5.068v-3.801l8.715-5.068zM129.578 376.44v3.801l-26.305-15.204v-3.801l26.305 15.204z" fill="#0038FF"/><path d="M138.293 371.372l-8.715 5.068-26.305-15.204 8.557-5.067 26.463 15.203z" fill="#0038FF"/><path d="M80.139 350.784c-.793.475-.793 1.267 0 1.742.792.475 2.218.475 3.01 0l43.735-25.18c.793-.475.793-1.267 0-1.742-.792-.475-2.218-.475-3.01 0l-43.735 25.18zM110.405 339.223c-.793.475-.793 1.267 0 1.742.792.475 2.218.475 3.169 0l18.54-10.769c.792-.475.792-1.267 0-1.742-.792-.475-2.219-.475-3.011 0l-18.698 10.769zM104.542 347.933c-.793.476-.951 1.267 0 1.743.792.475 2.218.475 3.169 0l28.998-16.787c.792-.476.792-1.267 0-1.742-.792-.476-2.218-.476-3.011 0l-29.156 16.786z" fill="#ADCDFC"/><path d="M102.006 307.55l-6.973 4.117c-6.338-3.484-16.162-3.325-22.343.159-.158 0-.316.158-.316.158l-6.973-4.117c.159 0 .317-.159.317-.159 9.825-5.701 25.988-5.859 36.288-.158zM102.956 308.183c8.24 5.226 9.191 12.828 2.535 18.529l-7.289-4.117c2.853-3.326 2.06-7.444-2.218-10.294l6.972-4.118z" fill="#7CCCFF"/><path d="M104.699 327.504c-.633.475-1.426.95-2.218 1.425-9.825 5.702-25.67 5.86-35.812.476l6.972-4.118c6.339 3.167 15.846 3.009 21.868-.475.792-.475 1.584-.95 2.218-1.584l6.972 4.276zM71.265 312.618c-4.754 3.642-4.437 8.71 1.109 12.035l-6.972 4.118c-9.35-5.543-9.825-14.253-1.268-20.113l7.13 3.96z" fill="#3EABFF"/><path d="M239.708 120.993c3.169 1.9 5.863 6.334 5.705 9.977v55.904c0 3.642-2.694 5.226-5.863 3.325l-15.53-9.027-.792 1.109-3.011 4.276-3.01-7.76-.793-1.9-15.529-9.027c-3.169-1.901-5.704-6.335-5.704-9.978v-55.903c0-3.643 2.535-5.226 5.863-3.326l38.664 22.33z" fill="#58AFFB"/><path d="M212.611 121.468v1.584c0 .95-.951 1.425-1.743 1.108l-7.448-4.276c-.316-.158-.633-.633-.633-1.108v-1.584c0-.95.95-1.425 1.743-1.109l7.447 4.276c.476.317.634.792.634 1.109z" fill="#fff"/><path d="M236.063 142.847v1.584c0 .95-.951 1.425-1.743 1.109l-30.9-17.896c-.316-.158-.633-.633-.633-1.108v-1.584c0-.95.95-1.425 1.743-1.109l30.899 17.896c.476.317.634.792.634 1.108z" fill="#ADCDFC"/><path d="M210.71 142.214v1.9l-4.12 14.254-1.743-1.109 4.12-14.253-5.546-3.167.158-1.743 7.131 4.118zM219.267 147.123v1.901l-4.754-2.692-.317 5.542c.476-.633 1.268-.791 2.377-.158 2.06 1.267 3.011 3.484 3.011 6.176v3.643c0 2.85-1.109 3.959-3.644 2.534-2.536-1.426-3.645-3.959-3.645-6.81v-1.267l1.743.95v1.426c0 1.742.634 3.009 1.902 3.8 1.267.792 1.901 0 1.901-1.583v-3.643c0-1.742-.634-3.009-1.901-3.801-.951-.633-1.585-.316-1.744.951v.475l-1.743-.95.476-9.978 6.338 3.484zM231.468 161.06c1.585.95 2.219 2.534 2.219 4.276v5.859c0 1.742-.792 2.534-2.377 1.742-1.585-.95-2.377-2.534-2.377-4.276v-5.859c.317-1.901.951-2.692 2.535-1.742zm1.11 9.502v-6.018c0-.95-.317-1.901-1.11-2.376-.792-.475-1.109 0-1.109.951v6.018c0 .95.317 1.9 1.109 2.375.793.634 1.11 0 1.11-.95zM225.922 159.793c0 1.742-.792 2.534-2.377 1.584-1.584-.951-2.218-2.534-2.218-4.276v-5.86c0-1.742.792-2.534 2.377-1.584 1.584.951 2.376 2.534 2.376 4.276l-.158 5.86zm-1.109-.634v-6.018c0-.95-.317-1.9-1.109-2.375-.793-.475-1.11 0-1.11.95v6.018c0 .95.317 1.901 1.11 2.376.633.475 1.109 0 1.109-.951zM230.2 153.458l.951.634-6.338 14.886-1.109-.633 6.496-14.887z" fill="#fff"/><path d="M310.381 236.759c18.54 10.611 18.54 28.032.317 38.642-18.382 10.611-48.331 10.611-66.87 0-18.54-10.61-18.54-28.031-.159-38.642 18.382-10.61 48.172-10.61 66.712 0z" fill="#ADCDFC"/><path d="M310.857 225.357v6.81l-11.885 6.81.159-6.81 11.726-6.81z" fill="#0038FF"/><path d="M263.477 236.918c.158 0 .158 0 .317-.159.633-.316 1.267-.475 2.06-.633l1.426-.475c.317-.158.792-.158 1.109-.317.475-.158.951-.158 1.584-.317.317 0 .793-.158 1.11-.158h.475c.634-.158 1.268-.158 1.902-.317h.633c.793-.158 1.585-.158 2.219-.158h6.338c.476 0 .793 0 1.268.158.475 0 .951.159 1.426.159s.792.158 1.268.158c.475 0 .951.158 1.426.317.475.158 1.109.158 1.585.317.158 0 .316 0 .316.158.793.158 1.427.317 2.06.633.159 0 .317.159.634.159a7.694 7.694 0 0 1 1.743.633c.159 0 .317.159.476.159.475.158.95.475 1.426.633.317.158.475.158.792.317.634.317 1.426.633 2.06 1.108v-7.918c-.634-.317-1.426-.792-2.06-1.109-.158-.158-.475-.158-.792-.316-.476-.159-.792-.317-1.268-.475 0 0-.158 0-.158-.159-.159 0-.317-.158-.476-.158-.634-.159-1.109-.475-1.743-.634-.158 0-.317-.158-.634-.158-.158 0-.316-.158-.475-.158-.634-.159-1.109-.317-1.743-.475-.158 0-.317 0-.317-.159-.317 0-.634-.158-.792-.158-.159 0-.476 0-.634-.159-.475-.158-.951-.158-1.426-.316-.159 0-.317 0-.634-.159h-.634c-.475 0-.951-.158-1.426-.158h-7.765c-.633 0-1.267.158-1.901.158H273.301c-.634 0-1.268.159-1.901.317h-.634c-.317 0-.634.158-.951.158-.475.159-1.109.159-1.585.317-.317.159-.792.159-1.109.317l-1.426.475c-.158 0-.158 0-.317.158a7.747 7.747 0 0 0-1.743.634c-.158 0-.158 0-.317.158-.634.317-1.268.475-1.743.792-.158.158-.317.158-.475.317l-1.902.95c-.158 0-.158.158-.317.158-.158 0-.158.159-.317.159-.158.158-.317.158-.475.316-.159.159-.317.159-.475.317-.159.159-.317.159-.476.317-.158.158-.317.158-.475.317-.159.158-.317.158-.476.316-.158.159-.316.159-.316.317-.159.158-.317.158-.476.317l-.158.158-.159.159-.634.633-.158.158c-.317.317-.475.634-.792.792l-.159.159c-.158.158-.317.316-.317.475 0 .158-.158.158-.158.316-.159.159-.159.317-.317.476 0 0 0 .158-.159.158 0 0 0 .158-.158.158 0 .159-.159.317-.159.475 0 .159-.158.159-.158.317 0 .159-.158.317-.158.475 0 0 0 .159-.159.159v.158c0 .158-.158.317-.158.475 0 .158 0 .317-.159.317 0 .158 0 .317-.158.475v8.077c0-.159 0-.317.158-.475 0-.159 0-.317.159-.317 0-.159.158-.317.158-.475 0-.159.159-.317.159-.317 0-.158.158-.317.158-.475 0-.158.158-.158.158-.317 0-.158.159-.317.159-.475 0-.158.158-.158.158-.317.159-.158.159-.316.317-.475 0-.158.159-.158.159-.317.158-.158.317-.316.317-.475l.158-.158a1.92 1.92 0 0 1 .792-.792l.159-.158.634-.634.317-.316c.158-.159.317-.159.475-.317.158-.158.317-.159.317-.317.158-.158.317-.158.475-.317.159-.158.317-.158.476-.316.158-.159.317-.159.475-.317.159-.158.317-.158.475-.317.159-.158.317-.158.476-.317.158-.158.475-.316.634-.475l1.901-.95c.159-.158.317-.158.476-.317.95-.475 1.426-.791 2.06-1.108zM259.515 255.13v6.81l-11.885 6.81.159-6.652 11.726-6.968z" fill="#0038FF"/><path d="M247.789 262.098v6.81c-8.874-5.068-13.311-11.719-13.152-18.529v-6.81c-.159 6.652 4.278 13.303 13.152 18.529z" fill="#0038FF"/><path d="M310.856 225.357l-11.726 6.81c-10.933-6.335-28.839-6.335-39.773 0-10.934 6.335-10.934 16.628.158 22.963l-11.726 6.81c-17.589-10.136-17.589-26.606-.158-36.583 17.272-10.136 45.636-10.136 63.225 0z" fill="#0038FF"/><path d="M299.13 234.226v4.751c5.546 3.167 8.24 7.443 8.24 11.56v-6.809c0-4.118-2.852-6.177-8.24-9.502zM310.698 264.315v4.751l-11.885-6.809v-4.751l11.885 6.809zM324.009 244.678v1.267c0 .158 0 .475-.159.633 0 .159-.158.317-.158.634 0 .158-.159.475-.159.633 0 .159-.158.317-.158.634 0 .158-.159.475-.159.633 0 .159-.158.317-.158.634-.159.158-.159.475-.317.633-.158.158-.158.317-.317.634-.158.158-.158.475-.317.633-.158.158-.158.317-.317.475-.158.317-.317.475-.475.792-.159.158-.159.317-.317.475-.159.317-.475.634-.634.792-.158.158-.158.317-.317.317-.317.475-.792.95-1.109 1.425l-.317.317-.951.95-.475.475c-.159.158-.476.317-.634.633-.158.159-.475.317-.634.476-.158.158-.475.316-.634.475-.158.158-.475.316-.633.475-.317.158-.476.317-.793.475-.158.158-.475.317-.792.475-.317.158-.475.317-.792.475-.317.158-.634.475-1.11.634-.158 0-.158.158-.317.158v6.81c.159 0 .159-.159.317-.159.159-.158.317-.158.476-.316.158-.159.317-.159.475-.317.317-.158.476-.317.792-.475.317-.159.476-.317.634-.475.317-.159.476-.317.793-.475.158-.159.475-.317.633-.476.317-.158.476-.316.634-.475.159-.158.476-.316.634-.475.159-.158.475-.316.634-.633.158 0 .158-.159.317-.159l.158-.158.951-.95.317-.317c.475-.475.792-.95 1.109-1.425.159-.159.159-.159.159-.317.158-.317.475-.633.634-.792.158-.158.158-.316.316-.475.159-.317.317-.475.476-.792l.158-.158c0-.158.159-.158.159-.317.158-.158.158-.475.317-.633.158-.159.158-.317.317-.634.158-.158.158-.475.317-.633 0-.159.158-.159.158-.317s0-.158.158-.317c0-.158.159-.475.159-.633 0-.159.158-.317.158-.634 0-.158.159-.475.159-.633 0-.158 0-.158.158-.317v-.317c0-.158 0-.475.159-.633v-.634-.633-.475-7.127c.317 0 .317.317.317.634z" fill="#3278CC"/><path d="M310.856 227.416c17.59 10.135 17.59 26.606.159 36.583-.159 0-.159.158-.317.158l-11.885-6.81c.159 0 .159-.158.317-.158 10.934-6.335 10.934-16.629-.158-22.963l11.884-6.81z" fill="#58AFFB"/><path d="M304.042 272.075c.476-.158.951-.316 1.426-.633.317-.158.634-.317.793-.317.475-.158.951-.475 1.426-.633.158-.159.475-.159.634-.317.792-.317 1.426-.792 2.06-1.109v-1.583c-.634.317-1.426.792-2.06 1.108-.159.159-.476.159-.634.317-.475.158-.951.475-1.426.634-.317.158-.634.316-.793.316-.475.159-.95.317-1.426.634-.317.158-.633.158-.95.317-.476.158-.951.316-1.585.475-.317.158-.634.158-.951.316-.317 0-.475.159-.792.159-.475.158-.951.316-1.426.316-.317 0-.476.159-.792.159-.476.158-.951.317-1.427.317-.158 0-.475.158-.633.158-.634.158-1.427.317-2.219.475v1.584c.792-.159 1.426-.317 2.219-.475.158 0 .475-.159.633-.159.476-.158.951-.158 1.427-.317.316 0 .475-.158.792-.158.475-.158.951-.317 1.426-.317.317 0 .475-.158.792-.158.159 0 .317 0 .317-.158.159 0 .317-.159.634-.159.475-.158.951-.316 1.585-.475.317 0 .633-.158.95-.317z" fill="#E2A029"/><path d="M310.698 267.483c-5.071 2.85-10.934 4.909-17.114 6.018l-5.546-9.186c3.962-.791 7.606-2.058 10.775-3.8l11.885 6.968z" fill="#FFBE3D"/><path d="M291.524 272.551c-.475 0-.951.158-1.426.158s-1.109.158-1.585.158c-.475 0-.95.159-1.426.159-.792.158-1.743.158-2.535.158h-.159c-.95 0-1.901.158-2.852.158h-6.338c-.951 0-1.743-.158-2.694-.158h-.634c-.634 0-1.426-.158-2.06-.158-.317 0-.475 0-.792-.159-.951-.158-1.743-.316-2.694-.475-.951-.158-1.743-.317-2.535-.475-.317 0-.634-.158-.951-.158-.634-.159-1.109-.317-1.743-.475-.317-.159-.634-.159-.951-.317l-1.426-.475-1.426-.475-1.426-.475c-.476-.159-.951-.317-1.268-.476-.634-.316-1.268-.475-1.902-.791 0 0-.158 0-.158-.159-.792-.316-1.426-.633-2.219-.95-.158-.158-.316-.158-.475-.317-.792-.316-1.426-.791-2.06-1.108v2.85c.634.476 1.426.792 2.06 1.109.159.158.317.158.475.317.793.316 1.427.633 2.219.95h.158c.476.158.951.475 1.426.633.159 0 .317.159.476.159.475.158.951.316 1.268.475l1.426.475 1.426.475c.317.158.475.158.792.317.159 0 .475.158.634.158.317.159.634.159.951.317.634.158 1.109.317 1.743.475.317 0 .634.158.951.158.158 0 .316 0 .475.159.792.158 1.426.316 2.218.475.793.158 1.427.317 2.219.317h.475c.317 0 .476 0 .792.158.634.158 1.427.158 2.06.158H272.984c.793 0 1.585.159 2.377.159H282.016c.793 0 1.744 0 2.536-.159h.158c.793 0 1.426-.158 2.219-.158h.317c.475 0 .95-.158 1.426-.158.475 0 1.109-.159 1.584-.159.476 0 .951-.158 1.427-.158.316 0 .792-.159 1.109-.159.317 0 .475-.158.792-.158v-2.851a4.88 4.88 0 0 1-2.06.476z" fill="#7974F5"/><path d="M288.038 263.048l5.546 9.186c-15.529 3.009-33.435.95-45.795-6.335l11.726-6.81c7.765 4.593 18.857 5.86 28.523 3.959z" fill="#B391FF"/><path d="M313.392 1.584c-.158 0-.317-.159-.317-.159-.158-.158-.316-.158-.475-.316-.158 0-.317-.159-.475-.159-.159 0-.317-.158-.476-.158-.158 0-.317-.159-.475-.159h-.159c-.158 0-.158 0-.316-.158-.159 0-.317-.158-.476-.158-.158 0-.317 0-.475-.159-.159 0-.317 0-.476-.158h-1.584c-.159 0-.476 0-.634.158-.317 0-.475.159-.792.159l-.951.475-7.448 4.276c.476-.317 1.11-.475 1.585-.634.634-.158 1.268-.158 1.901-.158.634 0 1.427.158 2.06.475.793.317 1.427.633 2.219 1.109l207.266 119.567 7.447-4.276L313.392 1.584z" fill="url(#paint2_linear)"/><path d="M531.75 139.997v-.475-.475-.475c0-.159 0-.317-.158-.634 0-.158 0-.317-.159-.475 0-.158 0-.317-.158-.633 0-.159-.159-.317-.159-.634 0-.158-.158-.475-.158-.633 0-.159-.159-.317-.159-.475v-.159c0-.158-.158-.317-.158-.633 0-.159-.158-.317-.158-.634 0-.158-.159-.317-.159-.475 0-.158-.158-.317-.158-.475 0-.158-.159-.317-.159-.475v-.158c-.158-.159-.158-.317-.317-.476-.158-.158-.158-.316-.317-.633-.158-.158-.158-.475-.317-.634a2.17 2.17 0 0 0-.475-.633v-.158s0-.159-.158-.159c-.317-.475-.476-.95-.793-1.267-.158-.316-.475-.633-.634-.95-.158-.158-.316-.475-.475-.633l-.475-.475-.476-.476-.475-.475-.159-.158-.316-.317-.476-.475-.475-.475-.476-.475c-.158 0-.158-.158-.317-.158l-.158-.159c-.158-.158-.317-.317-.475-.317-.159-.158-.317-.158-.476-.316-.158-.159-.317-.159-.475-.317-.159-.158-.317-.158-.475-.317h-.159l-7.448 4.276c.793.475 1.585.95 2.219 1.584.634.633 1.426 1.267 2.06 1.9 1.268 1.426 2.535 3.009 3.486 4.751v.159c.475.792.951 1.742 1.268 2.534.317.95.792 1.9.95 2.692.317.95.476 1.9.634 2.692.159.95.159 1.9.159 2.692l-.476 141.581c0 .792-.158 1.742-.158 2.375-.159.792-.317 1.426-.634 1.901-.158.475-.475.95-.792 1.267-.159.158-.159.317-.317.317-.317.316-.792.791-1.268.95l7.448-4.276c.475-.317.792-.634 1.267-.95.159-.159.159-.317.317-.317l.476-.475c.158-.317.317-.475.475-.792.159-.158.159-.317.317-.634 0-.158.158-.316.158-.633 0-.158.159-.317.159-.634v-.475c0-.158 0-.316.158-.475v-.475-.475-.475l.476-141.581c.158-.316.158-.475.158-.633z" fill="url(#paint3_linear)"/><path d="M513.21 125.427c6.18 3.643 11.251 12.194 11.093 19.321l-.476 141.581c0 7.126-5.07 9.977-11.25 6.334L305.311 173.096c-6.18-3.643-11.251-12.195-11.093-19.321l.476-141.58c0-7.127 5.071-9.978 11.251-6.335L513.21 125.427z" fill="#343996"/><path d="M453.154 67.465c1.902 1.108 3.486 3.8 3.486 6.017l-.158 44.502c0 2.217-1.585 3.167-3.486 2.059l-65.128-37.692c-1.901-1.108-3.486-3.8-3.486-6.018l.159-44.501c0-2.217 1.584-3.168 3.486-2.059l65.127 37.692z" fill="#2689FD"/><path d="M329.872 47.669v2.058c0 1.267-1.268 1.9-2.377 1.267l-9.507-5.542c-.476-.317-.793-.792-.793-1.267v-2.06c0-1.266 1.268-1.9 2.377-1.266l9.508 5.543c.475.158.792.633.792 1.267z" fill="#fff"/><path d="M359.979 75.066v2.059c0 1.267-1.267 1.9-2.377 1.267l-39.773-22.963c-.475-.317-.792-.792-.792-1.267v-2.06c0-1.266 1.267-1.9 2.377-1.266l39.773 22.963c.475.159.792.792.792 1.267z" fill="#1AE5FF"/><path d="M311.491 141.264l15.846-8.077 10.3 16.629 11.567 11.719 11.568-6.968 24.561-7.919 11.251 15.995 11.092 9.027 10.142 15.045 13.786-28.823 16.638 7.919 8.715-7.127 18.065 4.751 26.938-2.375" stroke="#16C5DC" stroke-miterlimit="10"/><path d="M404.982 50.203c-6.021-3.485-11.726-2.534-14.103 2.85-3.01 6.81.476 18.37 7.448 26.29l1.584-3.802c-4.753-5.542-6.972-13.46-4.912-18.212 1.585-3.8 5.705-4.434 9.825-2.059 1.109.634 2.06 1.426 3.169 2.376l1.585-3.801c-1.427-1.425-3.011-2.692-4.596-3.642z" fill="#F1F1F1"/><path d="M409.736 53.845l-1.585 3.8.793.793c5.387 5.542 8.081 14.253 6.021 19.32-.158.159-.158.317-.317.476 0 0 0 .158-.158.158-1.585 2.692-4.596 3.484-7.923 2.059a7.404 7.404 0 0 1-1.585-.792c-.158-.159-.317-.159-.475-.317a2.18 2.18 0 0 1-.634-.475h-.158c-.476-.317-.793-.633-1.268-.95l-.159-.159-.475-.475-.158-.158-.634-.633c-.317-.317-.634-.634-.951-1.109l-1.585 3.8c.317.317.634.634.951 1.11.317.316.634.633.951.791.158.159.158.159.317.159l.634.633.158.158 1.902 1.426s.158 0 .158.158c.317.158.634.317.792.475h.159c.158.158.317.158.634.317.475.317.95.475 1.267.633l.951.475c5.071 2.06 9.666.792 11.726-3.959 3.011-7.126-.634-19.32-8.398-27.239-.476 0-.634-.158-.951-.475z" fill="#FDB913"/><path d="M433.188 74.908v1.108c0 .634-.792 1.109-1.268.792l-5.546-3.167a.87.87 0 0 1-.475-.792V71.74c0-.633.792-1.108 1.268-.791l5.546 3.167a.87.87 0 0 1 .475.792zM450.619 90.745v1.108c0 .634-.793 1.109-1.268.792l-22.977-13.303a.87.87 0 0 1-.475-.792v-1.108c0-.634.792-1.109 1.268-.792l22.976 13.303a.871.871 0 0 1 .476.792z" fill="#fff"/><path opacity=".53" d="M441.111 96.92v1.11c0 .633-.792 1.108-1.268.791l-13.469-7.76a.87.87 0 0 1-.475-.792v-1.108c0-.634.792-1.109 1.268-.792l13.469 7.76a.87.87 0 0 1 .475.792z" fill="#fff"/><path d="M446.974 94.545v1.109c0 .633-.792 1.109-1.268.792l-19.332-11.244a.87.87 0 0 1-.475-.792V83.3c0-.633.792-1.108 1.268-.791l19.332 11.244a.87.87 0 0 1 .475.791z" fill="#58AFFB"/><path d="M501.96 146.332c-6.656-3.801-12.202-.792-12.202 6.968 0 7.601 5.388 17.103 12.043 20.904 6.656 3.801 12.043.792 12.202-6.968 0-7.76-5.388-17.104-12.043-20.904z" fill="#0057FF"/><path d="M501.96 153.933c-3.011-1.742-5.546-.316-5.546 3.168s2.377 7.76 5.387 9.502c3.011 1.742 5.546.316 5.546-3.168s-2.377-7.76-5.387-9.502z" fill="#212973"/><path d="M330.665 73.8v2.058c0 1.267-1.268 2.059-2.377 1.425l-9.825-5.7c-.475-.318-.792-.793-.792-1.426v-2.059c0-1.267 1.268-2.059 2.377-1.425l9.824 5.701c.476.317.793.95.793 1.425zM361.881 101.989v2.059c0 1.266-1.267 2.058-2.377 1.425l-41.041-23.439c-.475-.316-.792-.791-.792-1.425V78.55c0-1.267 1.268-2.058 2.377-1.425l41.041 23.438c.475.317.792.951.792 1.426z" fill="#1CE5FF"/><path opacity=".53" d="M344.926 113.074v2.059c0 1.267-1.268 2.059-2.377 1.426l-24.086-13.778c-.475-.317-.792-.792-.792-1.426v-2.059c0-1.266 1.268-2.058 2.377-1.425l24.086 13.778c.475.317.792.792.792 1.425z" fill="#1CE5FF"/><path d="M355.384 108.799v2.058c0 1.267-1.267 2.059-2.377 1.426l-34.702-19.796c-.476-.317-.793-.792-.793-1.426v-2.058c0-1.267 1.268-2.06 2.377-1.426l34.703 19.796c.634.317.792.792.792 1.426z" fill="#1CE5FF"/><path d="M472.169 250.221l5.705-3.168-.158 38.009-5.547 3.167v-38.008z" fill="#00A935"/><path d="M483.578 249.271s0-.159 0 0c0-.159 0-.159 0 0v-.159l-17.43-34.682v-.159s0-.158-.159-.158h-.158l-5.546 3.326h.317c.158 0 .316 0 .316.158.159.158.317.158.476.317.158.158.317.316.317.475l17.43 34.682c.159.159.159.317.159.475v.476c0 .158 0 .158-.159.316 0 .159-.158.159-.158.159l5.546-3.326.159-.158c-1.11-1.584-1.11-1.584-1.11-1.742 0 .158 0 .158 0 0 0 .158 0 .158 0 0z" fill="#61E041"/><path d="M459.651 216.172c.317.158.634.475.792.792l17.431 34.682c.475 1.109 0 1.9-.792 1.425l-4.913-2.85-.158 38.008-25.512-14.728.158-38.008-4.754-2.693c-.792-.475-1.267-1.9-.792-2.217l17.589-14.411c.317-.159.634-.159.951 0z" fill="#00CC41"/><path d="M279.006 297.098l50.39 51.311 48.964-12.67-50.39-51.311-48.964 12.67z" fill="#fff"/><path d="M333.04 300.265l-4.753 1.742c-3.645-2.851-9.825-3.801-14.103-2.217-.159 0-.159 0-.317.158l-3.962-3.326c.159 0 .159 0 .317-.158 6.814-2.534 17.114-.792 22.818 3.801zM333.674 300.74c4.754 4.117 4.437 9.027-.317 12.036l-4.12-3.326c2.219-1.742 2.06-4.434-.317-6.81l4.754-1.9z" fill="#E2EDFF"/><path d="M332.723 313.093c-.475.316-.95.475-1.584.633-6.814 2.534-16.797.95-22.66-3.484l4.754-1.9c3.644 2.692 9.666 3.642 13.944 2.058.634-.158 1.11-.475 1.585-.791l3.961 3.484zM313.233 300.265c-3.328 1.742-3.645 5.068-.634 7.76l-4.754 1.742c-5.387-4.434-4.595-10.136 1.427-12.828l3.961 3.326z" fill="#3EABFF"/><path d="M328.128 551.119s-3.961 2.692-.316 9.185c3.644 6.335 6.972 2.534 15.37 8.869 8.399 6.335 11.409 7.602 15.846 7.127 4.437-.476 7.131-2.693 7.923-5.227.793-2.533-1.426-6.651-1.426-6.651l-37.397-13.303z" fill="#94A3C0"/><path d="M363.624 551.277s1.743 8.394 2.693 14.729c.317 3.009-3.644 6.968-9.349 6.81-5.704-.317-8.873-1.901-10.775-4.435-1.901-2.534-14.261-7.285-16.48-9.185-2.218-1.901-2.694-7.919-1.743-9.344.951-1.425 4.754-3.959 8.557-2.217 3.961 1.742 7.131 4.909 15.054 5.385 7.923.475 12.043-1.743 12.043-1.743z" fill="#382747"/><path d="M367.268 529.74s-3.961 2.692-.317 9.185c3.645 6.334 6.972 2.534 15.371 8.868 8.398 6.335 11.409 7.602 15.846 7.127 4.437-.475 7.131-2.692 7.923-5.226.792-2.534-1.426-6.652-1.426-6.652l-37.397-13.302z" fill="#94A3C0"/><path d="M402.763 530.056s1.743 8.394 2.694 14.728c.317 3.009-3.644 6.969-9.349 6.81-5.705-.317-8.874-1.9-10.775-4.434-1.902-2.534-14.262-7.285-16.48-9.185-2.219-1.901-2.694-7.919-1.743-9.344.951-1.425 4.754-3.959 8.557-2.217 3.961 1.742 7.13 4.909 15.053 5.384 7.923.475 12.043-1.742 12.043-1.742z" fill="#382747"/><path d="M372.022 461.8c1.902 15.837 9.825 57.17 11.251 71.582 0 0 3.328 5.226 13.152 3.959l4.754-1.9c1.901-.792 3.011-2.693 2.694-4.751-.951-7.919-3.169-28.031-2.219-39.909 1.268-15.045-2.694-24.389-2.694-24.389.317-4.909.951-22.013-8.873-26.605.158 0-24.086-4.435-18.065 22.013z" fill="#14347C"/><path d="M392.146 446.913l-2.693 5.226s-40.408 1.901-51.341 13.778c0 0-7.29 1.267-5.23 17.104 1.902 15.837 9.825 57.171 11.251 71.582 0 0 3.328 5.226 13.152 3.959l4.754-1.9c1.902-.792 3.011-2.692 2.694-4.751-.951-7.918-3.169-28.031-2.219-39.909 1.268-15.045-2.693-24.388-2.693-24.388s17.747 3.325 36.762 11.244c19.016 7.918 35.495-1.267 42.785-5.226 7.289-3.959 9.824-6.652 9.824-6.652s9.191 0 17.748-7.285 9.824-26.289.634-37.533c-9.033-10.927-75.428 4.751-75.428 4.751z" fill="#18388F"/><path d="M406.566 347.142s6.497-2.376 6.18-11.086c-2.06-8.552-4.437-9.185-4.437-9.185s9.191-8.394 20.124-5.86c0 0 6.814 13.778 14.579 19.796 0-.158-6.18 16.153-36.446 6.335z" fill="#CE7C56"/><path d="M420.986 352.051s24.244-20.271 29.156-20.746c5.863-.475 13.311 1.425 15.371 9.819 1.901 8.393-2.535 14.728-6.972 17.262-4.437 2.534-43.418 21.221-50.391 21.221-6.972 0-11.409-5.86-6.972-13.303 4.437-7.443 19.808-14.253 19.808-14.253z" fill="#E2A029"/><path d="M428.275 338.59s-25.671 8.552-32.96 20.429c-7.289 11.878-5.863 25.022-.634 43.393 5.23 18.371-5.229 34.841-2.693 44.66 2.693 9.818 21.075 19.004 48.013 14.411 26.938-4.593 28.998-15.045 30.9-21.063 1.901-5.859-5.229-34.207 1.267-57.17 6.656-22.964-6.655-38.801-11.884-42.76-4.912-3.959-15.529-9.185-32.009-1.9z" fill="#FFBE3D"/><path d="M460.601 340.49c-5.23-3.959-15.846-9.185-32.168-1.9 0 0-25.67 8.552-32.96 20.429a33.35 33.35 0 0 0-3.803 8.869c10.459-13.461 25.196-19.479 34.703 3.642 9.032 21.538-13.786 84.569-33.752 64.773-.792 4.117-1.268 7.76-.475 10.769 2.694 9.818 21.075 19.004 48.013 14.411 26.938-4.593 28.998-15.045 30.9-21.063 1.901-5.859-5.229-34.207 1.268-57.17 6.655-22.964-6.497-38.801-11.726-42.76z" fill="#E2A029"/><path d="M403.872 349.676s6.972 4.434 24.245 1.9c17.272-2.534 18.222-14.728 16.796-15.837-1.426-.95-4.437-4.909-4.437-4.909s-18.223 8.393-24.719 10.769c-6.339 2.534-9.825 3.959-9.825 3.959l-2.06 4.118z" fill="#fff"/><path d="M392.463 295.989s-1.426 17.737 7.923 29.615c9.349 11.877 18.698 4.909 24.72 1.9 5.863-3.009 8.398-7.918 10.3-22.171 1.901-14.253 1.901-28.031-8.399-32.466-10.299-4.434-21.709-5.384-28.047 5.385-6.497 10.769-6.497 17.737-6.497 17.737z" fill="#FFAA83"/><path d="M399.435 274.768s-8.398 6.334-7.923 15.836c.476 9.344-2.535 10.769-1.426 15.837.951 4.91 8.874 6.335 9.349 13.303.476 6.968 10.776 9.344 16.322 11.403 5.387 1.9 14.261-4.435 16.796-7.919 2.536-3.484 1.902-12.352 4.913-20.271 3.01-7.918 1.426-17.737-.951-24.705-2.535-6.968-7.448-8.394-7.448-8.394s-2.535-5.384-8.398-6.334c-6.022-1.109-24.244-.159-21.234 11.244z" fill="#4D2C63"/><path d="M478.507 566.322c-.951 9.978-10.3 16.629-18.698 20.271-9.191 3.96-19.332 5.543-29.315 5.385-10.142-.158-20.6-2.059-29.791-6.652-8.081-3.959-16.48-11.085-16.48-20.904 0 7.127.476 12.986 5.546 18.529 6.656 7.127 16.48 10.927 25.829 12.828 18.223 3.801 42.943 1.9 56.729-12.036 5.546-5.701 6.338-11.561 6.338-19.004-.158.633-.158 1.108-.158 1.583z" fill="#ADCDFC"/><path d="M464.562 545.418c18.54 10.611 18.54 28.031.317 38.642-18.381 10.61-48.33 10.61-66.87 0-18.54-10.611-18.54-28.031-.158-38.642 18.381-10.611 48.33-10.611 66.711 0z" fill="#E2EDFF"/><path d="M439.843 523.88l-.159 41.175-7.289 4.276.158-41.334 7.29-4.117z" fill="#C7D8F2"/><path d="M432.554 527.997l-.159 41.334-7.289-4.276.158-41.175 7.29 4.117z" fill="#7BAEFF"/><path d="M439.843 523.88l-7.289 4.117-7.289-4.117 7.289-4.276 7.289 4.276z" fill="#4DA5DC"/><path d="M523.985 383.091c-.158-5.701-5.863-9.66-11.251-7.76-23.61 8.235-77.645 27.873-81.131 34.841-3.328 6.651-13.945 43.551-19.332 62.08-1.585 5.385-7.765 7.76-12.519 4.909l-32.642-19.32c-6.18-3.643-13.945 1.583-12.677 8.71l5.229 31.515c.475 2.534 1.901 4.751 4.12 6.018l35.02 20.113c19.49 11.244 43.418 11.877 63.542 1.9l26.938-13.461c23.611-11.719 38.031-36.266 37.08-62.555l-2.377-66.99z" fill="#3278CC"/><path d="M431.444 410.172c-3.328 6.651-13.944 43.551-19.332 62.08-1.585 5.385-7.765 7.76-12.518 4.909l-32.643-19.32c-6.18-3.643-13.945 1.583-12.677 8.71l5.229 31.515c.159.792.317 1.425.634 2.059.475.633.792 1.267 1.268 1.9.634.792 1.426 1.425 2.218 1.901l35.02 20.112c7.448 4.276 15.371 6.968 23.61 8.235 28.365-22.013 24.72-113.866 14.579-121.468-1.585-1.108-2.852-1.9-4.12-2.217-.476.634-.951 1.109-1.268 1.584z" fill="#3AAEEF"/><path d="M368.377 382.299s24.245-20.271 29.157-20.746c5.863-.475 13.311 1.425 15.371 9.819 1.901 8.393-2.536 14.728-6.973 17.262-4.437 2.534-43.418 21.221-50.39 21.221-6.972 0-11.409-5.859-6.972-13.303 4.437-7.443 19.807-14.253 19.807-14.253z" fill="#FFBE3D"/><path d="M334.309 350.151s-1.268-2.534-1.427-4.118c-.317-1.742.793-3.959-.317-7.918-.95-3.959-2.693-7.444-3.486-10.136-1.901-2.534-3.644 1.901-2.218 5.701 1.426 3.801.951 5.86-.476 6.177-1.426.317-7.606-3.484-9.349-5.385-1.743-1.9-11.567-11.561-12.518-10.294-.951 1.267-.951 2.534 2.535 6.177 3.486 3.642 4.754 5.384 4.913 6.334.317.951 0 1.901 1.267 4.91 1.268 3.009.317 4.909 2.536 7.601 2.218 2.693 6.338 3.168 8.398 4.91l1.902 1.742 8.24-5.701z" fill="#FFAA83"/><path d="M355.542 409.855s-10.3 1.901-16.005-9.502c-5.546-11.561-15.053-42.442-16.479-45.293 0 0 3.327-7.285 11.567-6.968 0 0 9.191 18.054 14.42 26.289 5.229 8.235 24.086 32.149 6.497 35.474z" fill="#FFBE3D"/><path d="M203.104 213.796s3.169-2.059 5.07-1.425c1.902.633 8.399 1.584 10.459 1.742 2.06.158 6.18-3.484 6.813-4.118.793-.633 1.11-1.9 2.06-2.85.951-.95 1.268-.792 1.268-2.376 0-1.583 1.585-3.009 2.377-3.801.792-.791 3.645-2.533 3.328-3.8-.317-1.267-1.743-.634-2.694-.317-.951.317-4.279 3.326-5.705 4.276-1.426.95-4.912 2.217-6.655 2.217-1.743 0-3.328-.475-3.328-.475s-.475 0 1.268-.634c1.743-.633 2.852-.158 4.278-.475 1.426-.316 2.219-1.108 2.06-1.9-.158-.792-2.06-.792-2.852-.792-.792 0-5.071.158-6.814-.158-1.743-.317-4.754 2.692-5.229 3.167-.634.633-3.644 1.425-5.229 1.584-1.585.633-.475 10.135-.475 10.135z" fill="#FF9F75"/><path d="M140.195 212.371s3.011 10.135 15.846 9.66c12.835-.316 44.527-6.334 47.855-6.493 0 0 4.912-6.334.792-13.461 0 0-20.283.158-29.949-.634-9.824-.791-39.773-6.176-34.544 10.928zM72.374 232.484s-5.388-31.04-8.716-34.683c-4.12-4.276-11.092-7.443-18.064-2.375-6.972 5.067-7.765 12.827-5.863 17.578 1.743 4.751 19.332 44.185 24.72 48.778 5.387 4.592 12.518 2.85 13.944-5.702 1.268-8.393-6.021-23.596-6.021-23.596z" fill="#E1E8F2"/><path d="M126.409 249.112s4.119.317 5.704.317c1.426 0 12.835-.95 14.737-.95 1.901 0 1.901 2.217 1.901 2.217s1.902 3.167 1.902 4.434c0 1.267 0 3.009.475 4.118.476 1.267-.317 2.217-.792 3.167-.475.95-1.743 1.425-3.011 2.217-1.267.792-2.694.792-3.644.317-.951-.475-.951-.792.317-1.425 1.267-.792 2.218-1.742 2.218-1.742s-1.426 1.425-3.645 1.742c-2.218.316-5.704.316-7.606-.792l-5.387-2.692-3.962-.476.793-10.452z" fill="#FF9F75"/><path d="M63.5 257.664s3.01 10.135 15.846 9.66c12.835-.316 44.527-6.334 47.855-6.493 0 0 4.912-6.334.792-13.461 0 0-20.283.158-29.949-.633-9.824-.634-39.773-6.177-34.544 10.927z" fill="#E1E8F2"/></g><defs><linearGradient id="paint0_linear" x1="276.955" y1="321.585" x2="287.349" y2="401.623" gradientUnits="userSpaceOnUse"><stop stop-color="#C6E6FF"/><stop offset="1" stop-color="#8D9FFF"/></linearGradient><linearGradient id="paint1_linear" x1="270.452" y1="462.082" x2="300.113" y2="395.602" gradientUnits="userSpaceOnUse"><stop stop-color="#1AE5FF"/><stop offset="1" stop-color="#EAEEEE"/></linearGradient><linearGradient id="paint2_linear" x1="441.558" y1="302.825" x2="395.206" y2="-41.856" gradientUnits="userSpaceOnUse"><stop stop-color="#1AE5FF"/><stop offset=".259" stop-color="#64E8F9"/><stop offset=".704" stop-color="#EAEEEE"/></linearGradient><linearGradient id="paint3_linear" x1="531.763" y1="207.296" x2="513.187" y2="207.296" gradientUnits="userSpaceOnUse"><stop stop-color="#5155D4"/><stop offset="1" stop-color="#45F7FF"/></linearGradient><clipPath id="clip0"><path fill="#fff" transform="translate(.75)" d="M0 0h531v617H0z"/></clipPath></defs></svg>