<svg viewBox="0 0 532 617" fill="none" xmlns="http://www.w3.org/2000/svg">
<g clip-path="url(#clip0)">
<path opacity="0.25" d="M482.627 532.59C460.76 519.921 429.86 515.645 401.971 519.446L501.167 461.8C511.942 455.465 511.942 445.33 501.009 438.995L273.777 307.867C262.843 301.532 245.254 301.532 234.32 307.867L156.675 353.001C123.081 338.115 75.0676 339.698 44.4848 357.436C13.902 375.173 11.5251 403.045 37.3541 422.366L8.8313 438.995C-1.94399 445.33 -1.94399 455.465 8.98976 461.8L236.222 592.928C247.155 599.263 264.744 599.263 275.678 592.928L339.379 555.87C332.724 572.024 340.33 589.919 362.197 602.589C395.633 621.909 449.826 621.909 483.103 602.589C516.379 583.268 516.062 551.911 482.627 532.59Z" fill="#87AEDD"/>
<path d="M140.037 387.842C139.086 397.819 129.737 404.471 121.338 408.113C112.148 412.072 102.006 413.656 92.0233 413.498C81.8818 413.339 71.4235 411.439 62.2328 406.846C54.1513 402.887 45.7529 395.76 45.7529 385.942C45.7529 393.068 46.2283 398.928 51.299 404.471C57.9544 411.597 67.7789 415.398 77.128 417.298C95.351 421.099 120.071 419.199 133.857 405.263C139.403 399.561 140.195 393.702 140.195 386.258C140.195 386.892 140.037 387.367 140.037 387.842Z" fill="#ADCDFC"/>
<path d="M126.251 366.938C144.791 377.548 144.791 394.969 126.568 405.579C108.187 416.19 78.2375 416.19 59.6977 405.579C41.1579 394.969 41.1579 377.548 59.5392 366.938C77.7622 356.327 107.711 356.327 126.251 366.938Z" fill="#E2EDFF"/>
<path d="M101.372 345.4L101.214 386.575L94.083 390.851V349.517L101.372 345.4Z" fill="#C7D8F2"/>
<path d="M94.0831 349.517V390.851L86.7939 386.575V345.4L94.0831 349.517Z" fill="#7BAEFF"/>
<path d="M101.372 345.4L94.0831 349.517L86.7939 345.4L94.0831 341.124L101.372 345.4Z" fill="#4DA5DC"/>
<path d="M47.179 211.579C47.179 211.579 32.4422 215.538 28.4807 224.407C24.5192 233.275 25.47 300.265 46.2283 327.979C66.9865 355.535 105.492 359.494 114.366 355.535C123.24 351.576 174.581 325.92 178.543 313.093C182.504 300.265 162.697 290.446 151.921 285.537C141.146 280.627 134.174 273.659 128.311 255.922C122.448 238.185 119.437 207.62 112.465 202.71C105.334 197.801 88.5371 189.883 47.179 211.579Z" fill="#3AAEEF"/>
<path d="M135.6 193.842C135.6 193.842 111.355 173.729 106.443 173.254C100.58 172.779 93.1324 174.838 91.2309 183.231C89.3294 191.625 93.7663 197.959 98.2031 200.493C102.64 202.869 141.78 221.398 148.593 221.398C155.566 221.398 159.844 215.38 155.407 208.095C150.97 200.652 135.6 193.842 135.6 193.842Z" fill="#E1E8F2"/>
<path d="M93.6079 168.661C93.6079 168.661 93.6079 168.978 93.6079 169.453C93.9248 171.195 95.034 175.788 95.3509 177.847C95.6679 179.747 93.6079 183.073 88.6956 183.231C83.6249 183.39 75.068 181.648 71.8988 175.788C72.0573 174.679 71.1065 163.594 70.1558 158.209L93.6079 168.661Z" fill="#E16B40"/>
<path d="M104.383 132.078C100.739 116.875 88.2202 108.798 74.5927 112.599C74.5927 112.599 59.6974 114.816 53.8344 128.278C47.8129 141.739 58.1128 152.191 64.7681 158.843C67.462 161.535 69.6804 163.594 70.9481 165.019C71.4235 165.494 71.8989 165.969 72.3742 166.444C72.5327 166.603 72.5327 166.603 72.5327 166.603C76.9696 170.72 82.0403 172.779 85.6849 173.729C91.7064 175.154 98.8371 173.888 102.482 169.612C105.968 165.336 108.028 147.282 104.383 132.078Z" fill="#FF8654"/>
<path d="M73.1665 169.928C73.1665 169.928 49.239 188.774 47.1791 194.792C44.9606 200.81 45.2775 217.28 50.9821 227.891C56.6867 238.502 56.6867 278.885 58.9051 286.645C61.1236 294.405 82.5157 295.831 95.5094 292.663C108.503 289.496 129.103 278.569 124.983 263.84C118.803 242.144 120.388 220.131 120.863 213.163C121.338 206.195 119.595 188.932 115.792 177.53C115 175.155 106.443 171.67 106.443 171.67C106.443 171.67 97.4109 167.553 73.1665 169.928Z" fill="#0046A6"/>
<path d="M77.4447 260.039C67.6202 247.528 82.0401 204.769 64.9264 193.05C59.6972 189.408 55.2603 188.457 51.4573 188.932C49.2388 191.308 47.4958 193.525 47.0204 194.792C44.8019 200.81 45.1188 217.28 50.8234 227.891C56.528 238.501 56.528 278.885 58.7464 286.645C60.8064 293.772 78.5539 295.514 91.5477 293.455L110.246 273.976C110.246 273.817 87.2693 272.392 77.4447 260.039Z" fill="#003783"/>
<path d="M72.2156 173.096C92.9739 171.195 102.481 174.838 104.858 175.788C105.175 179.906 105.334 185.448 104.541 190.516C102.957 200.335 98.9954 227.257 98.9954 227.257C98.9954 227.257 86.1601 205.086 77.7617 196.059C71.8987 189.566 66.0356 183.548 63.0249 180.539C68.0956 176.421 72.2156 173.096 72.2156 173.096Z" fill="#E1E8F2"/>
<path d="M93.6079 168.661C93.6079 168.661 93.6079 168.978 93.6079 169.453C93.9248 171.195 95.034 175.788 95.3509 177.847C95.6679 179.747 93.6079 183.073 88.6956 183.231C83.6249 183.39 75.068 181.648 71.8988 175.788C72.0573 174.679 71.1065 163.594 70.1558 158.209L93.6079 168.661Z" fill="#FF8654"/>
<path d="M104.383 132.078C100.739 116.875 88.2202 108.798 74.5927 112.599C74.5927 112.599 59.6974 114.816 53.8344 128.278C47.8129 141.739 58.1128 152.191 64.7681 158.843C67.462 161.535 69.6804 163.594 70.9481 165.019C71.4235 165.494 71.8989 165.969 72.3742 166.444C72.5327 166.603 72.5327 166.603 72.5327 166.603C76.9696 170.72 82.0403 172.779 85.6849 173.729C91.7064 175.154 98.8371 173.888 102.482 169.612C105.968 165.336 108.028 147.282 104.383 132.078Z" fill="#FF9F75"/>
<path d="M102.006 196.059L92.8157 187.824L85.368 200.81L77.9204 196.059C86.3188 205.244 99.1541 227.257 99.1541 227.257C99.1541 227.257 102.482 204.769 104.225 193.367L102.006 196.059Z" fill="#CFDAE4"/>
<path d="M101.372 211.896L97.2524 197.326L97.8862 192.417L92.8155 187.824L89.1709 194.159L93.2909 197.959L94.4001 219.497C97.2524 224.09 99.1539 227.257 99.1539 227.257C99.1539 227.257 100.263 220.289 101.372 211.896Z" fill="#00A5FF"/>
<path d="M52.0914 126.852C52.0914 126.852 46.2284 137.621 53.5175 149.024C60.9652 160.426 68.8882 165.336 70.7897 165.177C72.6912 164.861 73.8004 164.386 73.1666 162.96C72.6912 161.535 70.1559 156.626 70.1559 156.626C70.1559 156.626 61.7575 155.675 61.7575 150.291C61.7575 144.906 64.7682 143.956 68.0959 145.381C71.582 146.807 72.0574 149.341 73.9589 151.241C75.8604 153.141 76.4943 158.209 77.9204 157.576C79.3465 157.101 80.4558 155.675 80.4558 153.141C80.4558 150.608 80.4558 147.757 77.445 144.748C74.4343 141.739 77.9204 136.83 74.9097 132.87C71.8989 128.911 69.9974 127.486 69.9974 127.486C69.9974 127.486 71.8989 130.495 81.8819 128.436C91.7064 126.536 96.1433 127.011 100.105 124.477C104.066 121.943 103.116 116.559 100.58 114.658C98.0448 112.758 92.1818 111.649 85.2096 109.274C78.2373 106.898 74.4343 108.323 66.0359 110.224C57.9544 112.124 50.1899 120.993 52.0914 126.852Z" fill="#E16B40"/>
<path d="M191.219 423.633C191.219 423.633 190.902 428.543 196.131 432.185C201.361 435.827 202.311 438.045 206.59 439.787C210.868 441.37 214.83 447.072 212.77 451.031C210.868 454.99 201.519 455.623 195.656 454.04C189.793 452.456 188.684 447.072 183.138 445.171C177.592 443.271 175.532 440.895 173.947 439.312C172.362 437.728 172.996 431.076 172.996 431.076L193.121 424.425" fill="#382747"/>
<path d="M216.89 404.629C216.89 404.629 216.573 409.539 221.802 413.181C227.032 416.823 227.982 419.041 232.261 420.783C236.539 422.366 240.501 428.068 238.441 432.027C236.381 435.986 227.19 436.619 221.327 435.036C215.464 433.452 214.355 428.068 208.809 426.167C203.263 424.267 201.203 421.891 199.618 420.308C198.033 418.724 198.667 412.072 198.667 412.072L218.792 405.421" fill="#382747"/>
<path d="M60.3311 286.804C60.3311 286.804 61.2818 290.763 61.2818 294.247C61.2818 297.731 58.7465 307.55 63.8172 319.427C68.7294 331.305 101.848 333.68 112.623 338.59C123.398 343.499 129.895 347.934 131.797 349.359C133.698 350.784 136.55 371.689 145.107 384.2C153.664 396.711 168.084 421.733 171.412 432.185C171.412 432.185 180.761 434.402 189.159 428.859C193.596 426.009 193.121 424.267 193.121 424.267C193.121 424.267 176.007 386.734 172.045 371.055C168.084 355.377 163.489 336.848 156.199 332.255C148.91 327.662 125.934 311.192 120.704 307.867C115.475 304.541 101.214 294.247 98.52 287.912C95.8261 281.736 68.8879 271.442 60.3311 286.804Z" fill="#94A3C0"/>
<path d="M87.4277 270.492C87.4277 270.492 88.3785 274.451 88.3785 277.935C88.3785 281.419 85.8431 291.238 90.9139 303.115C95.8261 314.993 128.944 317.369 139.72 322.278C150.495 327.187 156.992 331.622 158.893 333.047C160.795 334.472 163.647 355.377 172.204 367.888C180.761 380.399 195.181 405.421 198.508 415.873C198.508 415.873 207.857 418.09 216.256 412.547C220.693 409.697 220.217 407.955 220.217 407.955C220.217 407.955 203.262 370.58 199.301 354.743C195.339 338.907 190.744 320.536 183.455 315.943C176.165 311.351 153.189 294.88 147.96 291.555C142.73 288.229 128.469 277.935 125.775 271.6C122.923 265.424 95.9846 255.13 87.4277 270.492Z" fill="#94A3C0"/>
<path d="M220.693 395.127L220.376 495.374L202.787 505.668L203.104 405.421L220.693 395.127Z" fill="#C7D8F2"/>
<path d="M203.104 405.421L202.787 505.668L185.198 495.374L185.356 395.127L203.104 405.421Z" fill="#7BAEFF"/>
<path d="M220.693 395.127L203.104 405.421L185.356 395.127L202.946 384.992L220.693 395.127Z" fill="#4DA5DC"/>
<path d="M509.249 326.396C509.249 326.712 509.249 327.029 509.09 327.346C509.09 327.662 508.932 327.821 508.932 328.138C508.932 328.454 508.773 328.771 508.615 328.929C508.456 329.088 508.456 329.405 508.298 329.563C508.139 329.88 507.981 330.196 507.823 330.355C507.664 330.513 507.506 330.83 507.506 330.988C507.347 331.305 507.03 331.622 506.872 331.938C506.713 332.255 506.396 332.572 506.08 332.889L505.921 333.047C505.604 333.364 505.129 333.839 504.812 334.156C504.495 334.472 504.178 334.631 504.02 334.789C503.703 334.947 503.544 335.264 503.227 335.422C502.91 335.581 502.593 335.898 502.276 336.056C501.96 336.214 501.643 336.531 501.167 336.689L275.52 467.818C273.618 468.926 271.558 469.718 269.34 470.51C267.597 470.985 265.854 471.46 264.111 471.777C263.002 471.935 261.734 472.094 260.625 472.252C259.674 472.41 258.565 472.41 257.614 472.41C256.663 472.41 255.712 472.41 254.762 472.41C253.811 472.41 252.86 472.41 252.068 472.252V488.406C253.019 488.406 253.969 488.564 254.762 488.564C255.712 488.564 256.663 488.564 257.614 488.564C258.723 488.564 259.674 488.406 260.625 488.406C261.892 488.247 263.002 488.089 264.111 487.93C265.854 487.614 267.755 487.139 269.34 486.663C271.558 486.03 273.618 485.08 275.52 483.971L501.167 352.843C501.326 352.843 501.326 352.685 501.484 352.685C501.801 352.526 501.96 352.368 502.118 352.209C502.435 352.051 502.752 351.734 503.069 351.576C503.386 351.418 503.544 351.101 503.861 350.942C504.178 350.784 504.495 350.467 504.653 350.309L504.812 350.151C505.129 349.834 505.446 349.517 505.763 349.2L505.921 349.042C506.079 348.884 506.238 348.567 506.396 348.409C506.396 348.25 506.555 348.25 506.555 348.092C506.872 347.775 507.03 347.458 507.189 347.142C507.347 346.983 507.347 346.825 507.506 346.667C507.506 346.667 507.506 346.508 507.664 346.508C507.823 346.191 507.981 345.875 508.14 345.716C508.14 345.558 508.298 345.4 508.298 345.241V345.083C508.456 344.766 508.456 344.608 508.615 344.291C508.615 344.133 508.773 343.974 508.773 343.658V343.499C508.773 343.182 508.773 342.866 508.932 342.549C508.932 342.391 508.932 342.232 508.932 341.916C508.932 341.757 508.932 341.757 508.932 341.599V325.445C509.249 325.92 509.249 326.237 509.249 326.396Z" fill="#ADCDFC"/>
<path d="M249.216 472.252C248.265 472.094 247.314 471.935 246.522 471.777C245.571 471.619 244.62 471.302 243.669 471.143C242.56 470.827 241.451 470.51 240.342 470.035C238.916 469.401 237.648 468.768 236.38 468.135L8.98993 337.006C3.44382 333.839 0.75 329.721 0.75 325.604V341.757C0.75 345.875 3.44382 349.992 8.98993 353.16L236.222 484.288C237.49 485.08 238.757 485.713 240.183 486.188C241.293 486.663 242.402 486.98 243.511 487.297C244.462 487.614 245.412 487.772 246.363 487.93C247.314 488.089 248.265 488.247 249.057 488.406C250.008 488.564 250.8 488.564 251.751 488.722V472.569C250.959 472.569 250.166 472.41 249.216 472.252Z" fill="#ADCDFC"/>
<path d="M501.167 314.835C512.101 321.169 512.101 331.305 501.326 337.64L275.678 468.768C264.903 475.103 247.155 475.103 236.222 468.768L8.98976 337.64C-1.94399 331.305 -1.94399 321.169 8.8313 314.835L234.637 183.706C245.412 177.372 263.16 177.372 274.094 183.706L501.167 314.835Z" fill="#E2EDFF"/>
<path d="M256.98 362.345L319.096 398.453L362.831 373.114L300.715 337.006L256.98 362.345Z" fill="white"/>
<path d="M309.747 353.318L299.922 359.019L287.562 355.377C291.049 351.418 299.447 349.834 306.261 351.893C307.687 352.209 308.796 352.685 309.747 353.318Z" fill="#0038FF"/>
<path d="M312.124 353.951C318.621 357.752 318.779 363.929 312.124 367.729C305.627 371.53 295.01 371.53 288.355 367.729C283.126 364.72 281.858 360.286 285.186 356.485L300.239 360.92L312.124 353.951Z" fill="#B391FF"/>
<path d="M303.092 381.032C302.617 381.349 302.617 381.824 303.092 382.141C303.567 382.458 304.518 382.458 304.993 382.141L332.724 366.146C333.199 365.829 333.199 365.354 332.724 365.037C332.249 364.72 331.298 364.72 330.822 365.037L303.092 381.032Z" fill="#ADCDFC"/>
<path d="M322.266 373.747C321.79 374.064 321.79 374.539 322.266 374.856C322.741 375.173 323.692 375.173 324.167 374.856L335.893 368.046C336.369 367.729 336.369 367.254 335.893 366.938C335.418 366.621 334.467 366.621 333.992 366.938L322.266 373.747Z" fill="#D4D9DF"/>
<path d="M318.621 379.29C318.146 379.607 317.987 380.082 318.621 380.399C319.097 380.716 320.047 380.716 320.523 380.399L338.904 369.788C339.379 369.472 339.379 368.996 338.904 368.68C338.429 368.363 337.478 368.363 337.003 368.68L318.621 379.29Z" fill="#D4D9DF"/>
<path d="M330.189 413.656C331.773 414.606 331.773 415.873 330.189 416.823L285.82 442.637C284.394 443.588 281.858 443.588 280.432 442.637L249.374 424.742C247.789 423.792 247.789 422.525 249.374 421.574L293.743 395.761C295.169 394.81 297.704 394.81 299.131 395.761L330.189 413.656Z" fill="#F2F8FD"/>
<path d="M331.298 415.398C331.298 415.398 331.298 415.556 331.298 415.398C331.298 415.556 331.298 415.556 331.298 415.556C331.298 415.556 331.298 415.556 331.298 415.715C331.298 415.715 331.298 415.715 331.298 415.873V416.032C331.298 416.032 331.298 416.032 331.298 416.19C331.298 416.19 331.298 416.348 331.139 416.348L330.981 416.507C330.981 416.507 330.981 416.507 330.822 416.665C330.822 416.665 330.822 416.665 330.664 416.823C330.664 416.823 330.505 416.823 330.505 416.982C330.505 416.982 330.347 416.982 330.347 417.14L285.978 442.954C285.82 443.112 285.661 443.112 285.503 443.271H285.344C285.186 443.271 285.027 443.271 285.027 443.429C284.869 443.429 284.71 443.429 284.71 443.588C284.552 443.588 284.394 443.588 284.235 443.746C284.235 443.746 284.235 443.746 284.077 443.746C283.918 443.746 283.601 443.746 283.443 443.746C283.443 443.746 283.443 443.746 283.284 443.746C283.126 443.746 282.809 443.746 282.65 443.746C282.65 443.746 282.651 443.746 282.492 443.746C282.334 443.746 282.017 443.746 281.858 443.588C281.858 443.588 281.858 443.588 281.7 443.588C281.541 443.588 281.383 443.429 281.224 443.429C281.224 443.429 281.224 443.429 281.066 443.429C280.907 443.271 280.591 443.271 280.432 443.112L249.374 425.217C248.74 424.9 248.423 424.425 248.265 424.108C248.265 423.95 248.265 423.792 248.265 423.633V425.375V425.534C248.423 426.009 248.74 426.484 249.374 426.959L280.432 444.854C280.591 445.013 280.749 445.013 281.066 445.171C281.066 445.171 281.066 445.171 281.224 445.171C281.383 445.171 281.383 445.33 281.541 445.33H281.7C281.7 445.33 281.7 445.33 281.858 445.33C281.858 445.33 281.858 445.33 282.017 445.33C282.175 445.33 282.334 445.33 282.334 445.33H282.492C282.492 445.33 282.492 445.33 282.65 445.33H282.809C282.967 445.33 283.126 445.33 283.126 445.33H283.284C283.284 445.33 283.284 445.33 283.443 445.33H283.601C283.76 445.33 283.918 445.33 284.077 445.33C284.077 445.33 284.077 445.33 284.235 445.33C284.394 445.33 284.394 445.33 284.552 445.33H284.71C284.869 445.33 285.027 445.33 285.027 445.171H285.186H285.344H285.503C285.661 445.171 285.82 445.013 285.978 444.854L330.347 419.041C330.347 419.041 330.347 419.041 330.505 419.041C330.505 419.041 330.664 419.041 330.664 418.882C330.664 418.882 330.664 418.882 330.822 418.724C330.822 418.724 330.981 418.724 330.981 418.565L331.139 418.407C331.139 418.407 331.139 418.249 331.298 418.249V418.09C331.298 418.09 331.298 418.09 331.298 417.932V417.774V415.398Z" fill="url(#paint0_linear)"/>
<path d="M325.593 414.29C326.068 414.606 326.068 415.081 325.593 415.24L283.443 439.787C282.967 440.103 282.175 440.103 281.7 439.787L253.811 423.633C253.335 423.316 253.335 422.841 253.811 422.683L295.961 398.136C296.436 397.819 297.229 397.819 297.704 398.136L325.593 414.29Z" fill="url(#paint1_linear)"/>
<path d="M118.803 267.641L181.078 303.749L224.813 278.569L162.538 242.302L118.803 267.641Z" fill="white"/>
<path d="M171.728 258.614L161.904 264.315L149.544 260.673C153.03 256.714 161.428 255.13 168.242 257.189C169.51 257.506 170.619 257.981 171.728 258.614Z" fill="#B391FF"/>
<path d="M173.947 259.406C180.444 263.207 180.602 269.383 173.947 273.184C167.45 276.985 156.833 276.985 150.178 273.184C144.948 270.175 143.681 265.741 147.008 261.94L162.062 266.374L173.947 259.406Z" fill="#05CCFF"/>
<path d="M164.915 286.329C164.439 286.645 164.439 287.12 164.915 287.437C165.39 287.754 166.341 287.754 166.816 287.437L194.547 271.442C195.022 271.125 195.022 270.65 194.547 270.333C194.071 270.017 193.121 270.017 192.645 270.333L164.915 286.329Z" fill="#ADCDFC"/>
<path d="M184.088 279.044C183.613 279.36 183.613 279.835 184.088 280.152C184.564 280.469 185.515 280.469 185.99 280.152L197.716 273.342C198.191 273.026 198.191 272.551 197.716 272.234C197.241 271.917 196.29 271.917 195.815 272.234L184.088 279.044Z" fill="#D4D9DF"/>
<path d="M180.444 284.586C179.969 284.903 179.81 285.378 180.444 285.695C180.919 286.012 181.87 286.012 182.345 285.695L200.727 275.084C201.202 274.768 201.202 274.293 200.727 273.976C200.251 273.659 199.301 273.659 198.825 273.976L180.444 284.586Z" fill="#05CCFF"/>
<path d="M218.791 378.974V382.616L210.234 387.684V383.883L218.791 378.974Z" fill="#540CC7"/>
<path d="M210.234 383.883V387.684L137.025 345.4V341.599L210.234 383.883Z" fill="#3F0995"/>
<path d="M218.791 378.974L210.234 383.883L137.025 341.599L145.582 336.689L218.791 378.974Z" fill="#7974F5"/>
<path d="M186.307 379.607V383.408L177.591 388.317V384.675L186.307 379.607Z" fill="#2689FD"/>
<path d="M177.591 384.675V388.317L120.07 355.218V351.418L177.591 384.675Z" fill="#3548DB"/>
<path d="M186.307 379.607L177.591 384.675L120.07 351.418L128.786 346.508L186.307 379.607Z" fill="#58AFFB"/>
<path d="M138.293 371.372L138.135 375.173L129.578 380.241V376.44L138.293 371.372Z" fill="#0038FF"/>
<path d="M129.578 376.44V380.241L103.273 365.037V361.236L129.578 376.44Z" fill="#0038FF"/>
<path d="M138.293 371.372L129.578 376.44L103.273 361.236L111.83 356.169L138.293 371.372Z" fill="#0038FF"/>
<path d="M80.1387 350.784C79.3464 351.259 79.3464 352.051 80.1387 352.526C80.931 353.001 82.3571 353.001 83.1494 352.526L126.884 327.346C127.677 326.871 127.677 326.079 126.884 325.604C126.092 325.129 124.666 325.129 123.874 325.604L80.1387 350.784Z" fill="#ADCDFC"/>
<path d="M110.405 339.223C109.612 339.698 109.612 340.49 110.405 340.965C111.197 341.44 112.623 341.44 113.574 340.965L132.114 330.196C132.906 329.721 132.906 328.929 132.114 328.454C131.322 327.979 129.895 327.979 129.103 328.454L110.405 339.223Z" fill="#ADCDFC"/>
<path d="M104.542 347.933C103.749 348.409 103.591 349.2 104.542 349.676C105.334 350.151 106.76 350.151 107.711 349.676L136.709 332.889C137.501 332.413 137.501 331.622 136.709 331.147C135.917 330.671 134.491 330.671 133.698 331.147L104.542 347.933Z" fill="#ADCDFC"/>
<path d="M102.006 307.55L95.0334 311.667C88.695 308.183 78.8705 308.342 72.6905 311.826C72.5321 311.826 72.3736 311.984 72.3736 311.984L65.4014 307.867C65.5598 307.867 65.7183 307.708 65.7183 307.708C75.5428 302.007 91.7058 301.849 102.006 307.55Z" fill="#7CCCFF"/>
<path d="M102.956 308.183C111.196 313.409 112.147 321.011 105.491 326.712L98.2023 322.595C101.055 319.269 100.262 315.151 95.9839 312.301L102.956 308.183Z" fill="#7CCCFF"/>
<path d="M104.699 327.504C104.066 327.979 103.273 328.454 102.481 328.929C92.6564 334.631 76.8104 334.789 66.6689 329.405L73.6412 325.287C79.9796 328.454 89.4872 328.296 95.5087 324.812C96.301 324.337 97.0933 323.862 97.7271 323.228L104.699 327.504Z" fill="#3EABFF"/>
<path d="M71.2646 312.618C66.5108 316.26 66.8278 321.328 72.3739 324.653L65.4016 328.771C56.0525 323.228 55.5771 314.518 64.1339 308.658L71.2646 312.618Z" fill="#3EABFF"/>
<path d="M239.708 120.993C242.877 122.893 245.571 127.327 245.413 130.97V186.874C245.413 190.516 242.719 192.1 239.55 190.199L224.02 181.172L223.228 182.281L220.217 186.557L217.207 178.797L216.414 176.897L200.885 167.87C197.716 165.969 195.181 161.535 195.181 157.892V101.989C195.181 98.3462 197.716 96.7626 201.044 98.663L239.708 120.993Z" fill="#58AFFB"/>
<path d="M212.611 121.468V123.052C212.611 124.002 211.66 124.477 210.868 124.16L203.42 119.884C203.104 119.726 202.787 119.251 202.787 118.776V117.192C202.787 116.242 203.737 115.767 204.53 116.083L211.977 120.359C212.453 120.676 212.611 121.151 212.611 121.468Z" fill="white"/>
<path d="M236.063 142.847V144.431C236.063 145.381 235.112 145.856 234.32 145.54L203.42 127.644C203.104 127.486 202.787 127.011 202.787 126.536V124.952C202.787 124.002 203.737 123.527 204.53 123.843L235.429 141.739C235.905 142.056 236.063 142.531 236.063 142.847Z" fill="#ADCDFC"/>
<path d="M210.71 142.214V144.114L206.59 158.368L204.847 157.259L208.967 143.006L203.421 139.839L203.579 138.096L210.71 142.214Z" fill="white"/>
<path d="M219.267 147.123V149.024L214.513 146.332L214.196 151.874C214.672 151.241 215.464 151.083 216.573 151.716C218.633 152.983 219.584 155.2 219.584 157.892V161.535C219.584 164.385 218.475 165.494 215.94 164.069C213.404 162.643 212.295 160.11 212.295 157.259V155.992L214.038 156.942V158.368C214.038 160.11 214.672 161.377 215.94 162.168C217.207 162.96 217.841 162.168 217.841 160.585V156.942C217.841 155.2 217.207 153.933 215.94 153.141C214.989 152.508 214.355 152.825 214.196 154.092V154.567L212.453 153.617L212.929 143.639L219.267 147.123Z" fill="white"/>
<path d="M231.468 161.06C233.053 162.01 233.687 163.594 233.687 165.336V171.195C233.687 172.937 232.895 173.729 231.31 172.937C229.725 171.987 228.933 170.403 228.933 168.661V162.802C229.25 160.901 229.884 160.11 231.468 161.06ZM232.578 170.562V164.544C232.578 163.594 232.261 162.643 231.468 162.168C230.676 161.693 230.359 162.168 230.359 163.119V169.137C230.359 170.087 230.676 171.037 231.468 171.512C232.261 172.146 232.578 171.512 232.578 170.562Z" fill="white"/>
<path d="M225.922 159.793C225.922 161.535 225.13 162.327 223.545 161.377C221.961 160.426 221.327 158.843 221.327 157.101V151.241C221.327 149.499 222.119 148.707 223.704 149.657C225.288 150.608 226.08 152.191 226.08 153.933L225.922 159.793ZM224.813 159.159V153.141C224.813 152.191 224.496 151.241 223.704 150.766C222.911 150.291 222.594 150.766 222.594 151.716V157.734C222.594 158.684 222.911 159.635 223.704 160.11C224.337 160.585 224.813 160.11 224.813 159.159Z" fill="white"/>
<path d="M230.2 153.458L231.151 154.092L224.813 168.978L223.704 168.345L230.2 153.458Z" fill="white"/>
<path d="M310.381 236.759C328.921 247.37 328.921 264.791 310.698 275.401C292.316 286.012 262.367 286.012 243.828 275.401C225.288 264.791 225.288 247.37 243.669 236.759C262.051 226.149 291.841 226.149 310.381 236.759Z" fill="#ADCDFC"/>
<path d="M310.857 225.357V232.167L298.972 238.977L299.131 232.167L310.857 225.357Z" fill="#0038FF"/>
<path d="M263.477 236.918C263.635 236.918 263.635 236.918 263.794 236.759C264.427 236.443 265.061 236.284 265.854 236.126C266.329 235.968 266.804 235.809 267.28 235.651C267.597 235.493 268.072 235.493 268.389 235.334C268.864 235.176 269.34 235.176 269.973 235.017C270.29 235.017 270.766 234.859 271.083 234.859C271.241 234.859 271.4 234.859 271.558 234.859C272.192 234.701 272.826 234.701 273.46 234.542C273.618 234.542 273.777 234.542 274.093 234.542C274.886 234.384 275.678 234.384 276.312 234.384C276.47 234.384 276.629 234.384 276.787 234.384C277.263 234.384 277.738 234.384 278.372 234.384C278.847 234.384 279.323 234.384 279.956 234.384C280.432 234.384 280.749 234.384 281.224 234.384C281.7 234.384 282.175 234.384 282.65 234.384C283.126 234.384 283.443 234.384 283.918 234.542C284.393 234.542 284.869 234.701 285.344 234.701C285.819 234.701 286.136 234.859 286.612 234.859C287.087 234.859 287.563 235.017 288.038 235.176C288.513 235.334 289.147 235.334 289.623 235.493C289.781 235.493 289.939 235.493 289.939 235.651C290.732 235.809 291.366 235.968 291.999 236.284C292.158 236.284 292.316 236.443 292.633 236.443C293.267 236.601 293.742 236.759 294.376 237.076C294.535 237.076 294.693 237.235 294.852 237.235C295.327 237.393 295.802 237.71 296.278 237.868C296.595 238.026 296.753 238.026 297.07 238.185C297.704 238.502 298.496 238.818 299.13 239.293V231.375C298.496 231.058 297.704 230.583 297.07 230.266C296.912 230.108 296.595 230.108 296.278 229.95C295.802 229.791 295.486 229.633 295.01 229.475C295.01 229.475 294.852 229.475 294.852 229.316C294.693 229.316 294.535 229.158 294.376 229.158C293.742 228.999 293.267 228.683 292.633 228.524C292.475 228.524 292.316 228.366 291.999 228.366C291.841 228.366 291.683 228.208 291.524 228.208C290.89 228.049 290.415 227.891 289.781 227.733C289.623 227.733 289.464 227.733 289.464 227.574C289.147 227.574 288.83 227.416 288.672 227.416C288.513 227.416 288.196 227.416 288.038 227.257C287.563 227.099 287.087 227.099 286.612 226.941C286.453 226.941 286.295 226.941 285.978 226.782C285.819 226.782 285.503 226.782 285.344 226.782C284.869 226.782 284.393 226.624 283.918 226.624C283.759 226.624 283.443 226.624 283.284 226.624C283.126 226.624 282.809 226.624 282.65 226.624C282.175 226.624 281.7 226.624 281.224 226.624C280.907 226.624 280.749 226.624 280.432 226.624C280.273 226.624 280.115 226.624 279.798 226.624C279.323 226.624 278.847 226.624 278.213 226.624C277.896 226.624 277.738 226.624 277.421 226.624C277.104 226.624 276.946 226.624 276.629 226.624C276.47 226.624 276.312 226.624 276.153 226.624C275.52 226.624 274.886 226.782 274.252 226.782C274.093 226.782 273.935 226.782 273.935 226.782C273.776 226.782 273.618 226.782 273.301 226.782C272.667 226.782 272.033 226.941 271.4 227.099C271.241 227.099 271.083 227.099 270.924 227.099H270.766C270.449 227.099 270.132 227.257 269.815 227.257C269.34 227.416 268.706 227.416 268.23 227.574C267.913 227.733 267.438 227.733 267.121 227.891C266.646 228.049 266.17 228.208 265.695 228.366C265.537 228.366 265.537 228.366 265.378 228.524C264.744 228.683 264.269 228.841 263.635 229.158C263.477 229.158 263.477 229.158 263.318 229.316C262.684 229.633 262.05 229.791 261.575 230.108C261.417 230.266 261.258 230.266 261.1 230.425C260.466 230.742 259.832 231.058 259.198 231.375C259.04 231.375 259.04 231.533 258.881 231.533C258.723 231.533 258.723 231.692 258.564 231.692C258.406 231.85 258.247 231.85 258.089 232.008C257.93 232.167 257.772 232.167 257.614 232.325C257.455 232.484 257.297 232.484 257.138 232.642C256.98 232.8 256.821 232.8 256.663 232.959C256.504 233.117 256.346 233.117 256.187 233.275C256.029 233.434 255.871 233.434 255.871 233.592C255.712 233.75 255.554 233.75 255.395 233.909L255.237 234.067L255.078 234.226C254.92 234.384 254.603 234.701 254.444 234.859L254.286 235.017C253.969 235.334 253.811 235.651 253.494 235.809L253.335 235.968C253.177 236.126 253.018 236.284 253.018 236.443C253.018 236.601 252.86 236.601 252.86 236.759C252.701 236.918 252.701 237.076 252.543 237.235C252.543 237.235 252.543 237.393 252.384 237.393C252.384 237.393 252.384 237.551 252.226 237.551C252.226 237.71 252.067 237.868 252.067 238.026C252.067 238.185 251.909 238.185 251.909 238.343C251.909 238.502 251.751 238.66 251.751 238.818C251.751 238.818 251.751 238.977 251.592 238.977V239.135C251.592 239.293 251.434 239.452 251.434 239.61C251.434 239.768 251.434 239.927 251.275 239.927C251.275 240.085 251.275 240.244 251.117 240.402V240.56V240.719C251.117 240.877 251.117 241.035 251.117 241.194C251.117 241.352 251.117 241.51 251.117 241.51C251.117 241.669 251.117 241.827 251.117 241.986C251.117 242.144 251.117 242.144 251.117 242.302C251.117 242.461 251.117 243.569 251.117 243.728V250.537C251.117 250.379 251.117 250.221 251.117 250.062C251.117 249.904 251.117 249.746 251.117 249.587C251.117 249.429 251.117 249.271 251.117 249.271C251.117 249.112 251.117 248.954 251.117 248.795C251.117 248.637 251.117 248.479 251.117 248.479C251.117 248.32 251.117 248.162 251.275 248.004C251.275 247.845 251.275 247.687 251.434 247.687C251.434 247.528 251.592 247.37 251.592 247.212C251.592 247.053 251.751 246.895 251.751 246.895C251.751 246.737 251.909 246.578 251.909 246.42C251.909 246.262 252.067 246.262 252.067 246.103C252.067 245.945 252.226 245.786 252.226 245.628C252.226 245.47 252.384 245.47 252.384 245.311C252.543 245.153 252.543 244.995 252.701 244.836C252.701 244.678 252.86 244.678 252.86 244.519C253.018 244.361 253.177 244.203 253.177 244.044L253.335 243.886C253.494 243.569 253.811 243.253 254.127 243.094L254.286 242.936C254.444 242.777 254.761 242.461 254.92 242.302C255.078 242.144 255.078 242.144 255.237 241.986C255.395 241.827 255.554 241.827 255.712 241.669C255.87 241.511 256.029 241.51 256.029 241.352C256.187 241.194 256.346 241.194 256.504 241.035C256.663 240.877 256.821 240.877 256.98 240.719C257.138 240.56 257.297 240.56 257.455 240.402C257.614 240.244 257.772 240.244 257.93 240.085C258.089 239.927 258.247 239.927 258.406 239.768C258.564 239.61 258.881 239.452 259.04 239.293C259.674 238.977 260.307 238.66 260.941 238.343C261.1 238.185 261.258 238.185 261.417 238.026C262.367 237.551 262.843 237.235 263.477 236.918Z" fill="#0038FF"/>
<path d="M259.515 255.13V261.94L247.63 268.75L247.789 262.098L259.515 255.13Z" fill="#0038FF"/>
<path d="M247.789 262.098V268.908C238.915 263.84 234.478 257.189 234.637 250.379V243.569C234.478 250.221 238.915 256.872 247.789 262.098Z" fill="#0038FF"/>
<path d="M310.856 225.357L299.13 232.167C288.197 225.832 270.291 225.832 259.357 232.167C248.423 238.502 248.423 248.795 259.515 255.13L247.789 261.94C230.2 251.804 230.2 235.334 247.631 225.357C264.903 215.221 293.267 215.221 310.856 225.357Z" fill="#0038FF"/>
<path d="M299.13 234.226V238.977C304.676 242.144 307.37 246.42 307.37 250.537V243.728C307.37 239.61 304.518 237.551 299.13 234.226Z" fill="#3278CC"/>
<path d="M310.698 264.315V269.066L298.813 262.257V257.506L310.698 264.315Z" fill="#3278CC"/>
<path d="M324.009 244.678C324.009 244.836 324.009 245.153 324.009 245.311C324.009 245.47 324.009 245.628 324.009 245.945C324.009 246.103 324.009 246.42 323.85 246.578C323.85 246.737 323.692 246.895 323.692 247.212C323.692 247.37 323.533 247.687 323.533 247.845C323.533 248.004 323.375 248.162 323.375 248.479C323.375 248.637 323.216 248.954 323.216 249.112C323.216 249.271 323.058 249.429 323.058 249.746C322.899 249.904 322.899 250.221 322.741 250.379C322.583 250.537 322.583 250.696 322.424 251.013C322.266 251.171 322.266 251.488 322.107 251.646C321.949 251.804 321.949 251.963 321.79 252.121C321.632 252.438 321.473 252.596 321.315 252.913C321.156 253.071 321.156 253.23 320.998 253.388C320.839 253.705 320.523 254.022 320.364 254.18C320.206 254.338 320.206 254.497 320.047 254.497C319.73 254.972 319.255 255.447 318.938 255.922C318.779 256.08 318.779 256.08 318.621 256.239C318.304 256.555 317.987 256.872 317.67 257.189C317.512 257.347 317.353 257.506 317.195 257.664C317.036 257.822 316.719 257.981 316.561 258.297C316.403 258.456 316.086 258.614 315.927 258.773C315.769 258.931 315.452 259.089 315.293 259.248C315.135 259.406 314.818 259.564 314.66 259.723C314.343 259.881 314.184 260.04 313.867 260.198C313.709 260.356 313.392 260.515 313.075 260.673C312.758 260.831 312.6 260.99 312.283 261.148C311.966 261.306 311.649 261.623 311.173 261.782C311.015 261.782 311.015 261.94 310.856 261.94V268.75C311.015 268.75 311.015 268.591 311.173 268.591C311.332 268.433 311.49 268.433 311.649 268.275C311.807 268.116 311.966 268.116 312.124 267.958C312.441 267.8 312.6 267.641 312.916 267.483C313.233 267.324 313.392 267.166 313.55 267.008C313.867 266.849 314.026 266.691 314.343 266.533C314.501 266.374 314.818 266.216 314.976 266.057C315.293 265.899 315.452 265.741 315.61 265.582C315.769 265.424 316.086 265.266 316.244 265.107C316.403 264.949 316.719 264.791 316.878 264.474C317.036 264.474 317.036 264.315 317.195 264.315L317.353 264.157C317.67 263.84 317.987 263.524 318.304 263.207C318.463 263.048 318.463 263.048 318.621 262.89C319.096 262.415 319.413 261.94 319.73 261.465C319.889 261.306 319.889 261.306 319.889 261.148C320.047 260.831 320.364 260.515 320.523 260.356C320.681 260.198 320.681 260.04 320.839 259.881C320.998 259.564 321.156 259.406 321.315 259.089L321.473 258.931C321.473 258.773 321.632 258.773 321.632 258.614C321.79 258.456 321.79 258.139 321.949 257.981C322.107 257.822 322.107 257.664 322.266 257.347C322.424 257.189 322.424 256.872 322.583 256.714C322.583 256.555 322.741 256.555 322.741 256.397C322.741 256.239 322.741 256.239 322.899 256.08C322.899 255.922 323.058 255.605 323.058 255.447C323.058 255.288 323.216 255.13 323.216 254.813C323.216 254.655 323.375 254.338 323.375 254.18C323.375 254.022 323.375 254.022 323.533 253.863C323.533 253.705 323.533 253.705 323.533 253.546C323.533 253.388 323.533 253.071 323.692 252.913C323.692 252.755 323.692 252.596 323.692 252.279C323.692 252.121 323.692 251.804 323.692 251.646C323.692 251.488 323.692 251.329 323.692 251.171C323.692 251.013 323.692 250.854 323.692 250.854V244.044C324.009 244.044 324.009 244.361 324.009 244.678Z" fill="#3278CC"/>
<path d="M310.856 227.416C328.446 237.551 328.446 254.022 311.015 263.999C310.856 263.999 310.856 264.157 310.698 264.157L298.813 257.347C298.972 257.347 298.972 257.189 299.13 257.189C310.064 250.854 310.064 240.56 298.972 234.226L310.856 227.416Z" fill="#58AFFB"/>
<path d="M304.042 272.075C304.518 271.917 304.993 271.759 305.468 271.442C305.785 271.284 306.102 271.125 306.261 271.125C306.736 270.967 307.212 270.65 307.687 270.492C307.845 270.333 308.162 270.333 308.321 270.175C309.113 269.858 309.747 269.383 310.381 269.066V267.483C309.747 267.8 308.955 268.275 308.321 268.591C308.162 268.75 307.845 268.75 307.687 268.908C307.212 269.066 306.736 269.383 306.261 269.542C305.944 269.7 305.627 269.858 305.468 269.858C304.993 270.017 304.518 270.175 304.042 270.492C303.725 270.65 303.409 270.65 303.092 270.809C302.616 270.967 302.141 271.125 301.507 271.284C301.19 271.442 300.873 271.442 300.556 271.6C300.239 271.6 300.081 271.759 299.764 271.759C299.289 271.917 298.813 272.075 298.338 272.075C298.021 272.075 297.862 272.234 297.546 272.234C297.07 272.392 296.595 272.551 296.119 272.551C295.961 272.551 295.644 272.709 295.486 272.709C294.852 272.867 294.059 273.026 293.267 273.184V274.768C294.059 274.609 294.693 274.451 295.486 274.293C295.644 274.293 295.961 274.134 296.119 274.134C296.595 273.976 297.07 273.976 297.546 273.817C297.862 273.817 298.021 273.659 298.338 273.659C298.813 273.501 299.289 273.342 299.764 273.342C300.081 273.342 300.239 273.184 300.556 273.184C300.715 273.184 300.873 273.184 300.873 273.026C301.032 273.026 301.19 272.867 301.507 272.867C301.982 272.709 302.458 272.551 303.092 272.392C303.409 272.392 303.725 272.234 304.042 272.075Z" fill="#E2A029"/>
<path d="M310.698 267.483C305.627 270.333 299.764 272.392 293.584 273.501L288.038 264.315C292 263.524 295.644 262.257 298.813 260.515L310.698 267.483Z" fill="#FFBE3D"/>
<path d="M291.524 272.551C291.049 272.551 290.573 272.709 290.098 272.709C289.623 272.709 288.989 272.867 288.513 272.867C288.038 272.867 287.563 273.026 287.087 273.026C286.295 273.184 285.344 273.184 284.552 273.184H284.393C283.443 273.184 282.492 273.342 281.541 273.342C281.224 273.342 281.066 273.342 280.749 273.342C280.115 273.342 279.323 273.342 278.689 273.342C278.372 273.342 278.055 273.342 277.896 273.342C277.104 273.342 276.312 273.342 275.678 273.342C275.52 273.342 275.361 273.342 275.203 273.342C274.252 273.342 273.46 273.184 272.509 273.184C272.35 273.184 272.033 273.184 271.875 273.184C271.241 273.184 270.449 273.026 269.815 273.026C269.498 273.026 269.34 273.026 269.023 272.867C268.072 272.709 267.28 272.551 266.329 272.392C265.378 272.234 264.586 272.075 263.794 271.917C263.477 271.917 263.16 271.759 262.843 271.759C262.209 271.6 261.734 271.442 261.1 271.284C260.783 271.125 260.466 271.125 260.149 270.967C259.674 270.809 259.198 270.65 258.723 270.492C258.247 270.333 257.772 270.175 257.297 270.017C256.821 269.858 256.346 269.7 255.871 269.542C255.395 269.383 254.92 269.225 254.603 269.066C253.969 268.75 253.335 268.591 252.701 268.275C252.701 268.275 252.543 268.275 252.543 268.116C251.751 267.8 251.117 267.483 250.324 267.166C250.166 267.008 250.008 267.008 249.849 266.849C249.057 266.533 248.423 266.058 247.789 265.741V268.591C248.423 269.067 249.215 269.383 249.849 269.7C250.008 269.858 250.166 269.858 250.324 270.017C251.117 270.333 251.751 270.65 252.543 270.967H252.701C253.177 271.125 253.652 271.442 254.127 271.6C254.286 271.6 254.444 271.759 254.603 271.759C255.078 271.917 255.554 272.075 255.871 272.234C256.346 272.392 256.821 272.551 257.297 272.709C257.772 272.867 258.247 273.026 258.723 273.184C259.04 273.342 259.198 273.342 259.515 273.501C259.674 273.501 259.99 273.659 260.149 273.659C260.466 273.818 260.783 273.818 261.1 273.976C261.734 274.134 262.209 274.293 262.843 274.451C263.16 274.451 263.477 274.609 263.794 274.609C263.952 274.609 264.11 274.609 264.269 274.768C265.061 274.926 265.695 275.084 266.487 275.243C267.28 275.401 267.914 275.56 268.706 275.56C268.864 275.56 269.023 275.56 269.181 275.56C269.498 275.56 269.657 275.56 269.973 275.718C270.607 275.876 271.4 275.876 272.033 275.876C272.192 275.876 272.509 275.876 272.667 275.876C272.826 275.876 272.984 275.876 272.984 275.876C273.777 275.876 274.569 276.035 275.361 276.035C275.52 276.035 275.678 276.035 275.837 276.035C276.312 276.035 276.946 276.035 277.421 276.035C277.58 276.035 277.897 276.035 278.055 276.035C278.372 276.035 278.689 276.035 278.847 276.035C279.481 276.035 280.273 276.035 280.907 276.035C281.224 276.035 281.383 276.035 281.7 276.035C281.858 276.035 281.858 276.035 282.016 276.035C282.809 276.035 283.76 276.035 284.552 275.876H284.71C285.503 275.876 286.136 275.718 286.929 275.718C287.087 275.718 287.087 275.718 287.246 275.718C287.721 275.718 288.196 275.56 288.672 275.56C289.147 275.56 289.781 275.401 290.256 275.401C290.732 275.401 291.207 275.243 291.683 275.243C291.999 275.243 292.475 275.084 292.792 275.084C293.109 275.084 293.267 274.926 293.584 274.926V272.075C292.95 272.392 292.158 272.551 291.524 272.551Z" fill="#7974F5"/>
<path d="M288.038 263.048L293.584 272.234C278.055 275.243 260.149 273.184 247.789 265.899L259.515 259.089C267.28 263.682 278.372 264.949 288.038 263.048Z" fill="#B391FF"/>
<path d="M313.392 1.58368C313.234 1.58368 313.075 1.42531 313.075 1.42531C312.917 1.26694 312.759 1.26694 312.6 1.10857C312.442 1.10857 312.283 0.950205 312.125 0.950205C311.966 0.950205 311.808 0.791838 311.649 0.791838C311.491 0.791838 311.332 0.63347 311.174 0.63347C311.174 0.63347 311.174 0.63347 311.015 0.63347C310.857 0.63347 310.857 0.63347 310.699 0.475103C310.54 0.475103 310.382 0.316735 310.223 0.316735C310.065 0.316735 309.906 0.316735 309.748 0.158368C309.589 0.158368 309.431 0.158368 309.272 0C309.114 0 309.114 0 308.955 0H308.797C308.639 0 308.48 0 308.322 0C308.163 0 308.005 0 307.688 0C307.529 0 307.212 0 307.054 0.158368C306.737 0.158368 306.579 0.316735 306.262 0.316735C305.945 0.475103 305.628 0.63347 305.311 0.791838L297.863 5.06776C298.339 4.75103 298.973 4.59266 299.448 4.43429C300.082 4.27592 300.716 4.27592 301.349 4.27592C301.983 4.27592 302.776 4.43429 303.409 4.75103C304.202 5.06776 304.836 5.3845 305.628 5.8596L512.894 125.427L520.341 121.151L313.392 1.58368Z" fill="url(#paint2_linear)"/>
<path d="M531.75 139.997C531.75 139.839 531.75 139.68 531.75 139.522C531.75 139.363 531.75 139.205 531.75 139.047C531.75 138.888 531.75 138.73 531.75 138.572C531.75 138.413 531.75 138.255 531.592 137.938C531.592 137.78 531.592 137.621 531.433 137.463C531.433 137.305 531.433 137.146 531.275 136.83C531.275 136.671 531.116 136.513 531.116 136.196C531.116 136.038 530.958 135.721 530.958 135.563C530.958 135.404 530.799 135.246 530.799 135.088C530.799 135.088 530.799 135.088 530.799 134.929C530.799 134.771 530.641 134.612 530.641 134.296C530.641 134.137 530.483 133.979 530.483 133.662C530.483 133.504 530.324 133.345 530.324 133.187C530.324 133.029 530.166 132.87 530.166 132.712C530.166 132.554 530.007 132.395 530.007 132.237C530.007 132.237 530.007 132.237 530.007 132.079C529.849 131.92 529.849 131.762 529.69 131.603C529.532 131.445 529.532 131.287 529.373 130.97C529.215 130.812 529.215 130.495 529.056 130.336C528.898 130.02 528.74 129.861 528.581 129.703V129.545C528.581 129.545 528.581 129.386 528.423 129.386C528.106 128.911 527.947 128.436 527.63 128.119C527.472 127.803 527.155 127.486 526.996 127.169C526.838 127.011 526.68 126.694 526.521 126.536C526.363 126.377 526.204 126.219 526.046 126.061C525.887 125.902 525.729 125.744 525.57 125.585C525.412 125.427 525.253 125.269 525.095 125.11C525.095 125.11 525.095 125.11 524.936 124.952C524.778 124.794 524.778 124.794 524.62 124.635C524.461 124.477 524.303 124.319 524.144 124.16C523.986 124.002 523.827 123.843 523.669 123.685C523.51 123.527 523.352 123.368 523.193 123.21C523.035 123.21 523.035 123.052 522.876 123.052L522.718 122.893C522.56 122.735 522.401 122.576 522.243 122.576C522.084 122.418 521.926 122.418 521.767 122.26C521.609 122.101 521.45 122.101 521.292 121.943C521.133 121.785 520.975 121.785 520.817 121.626C520.817 121.626 520.817 121.626 520.658 121.626L513.21 125.902C514.003 126.377 514.795 126.852 515.429 127.486C516.063 128.119 516.855 128.753 517.489 129.386C518.757 130.812 520.024 132.395 520.975 134.137V134.296C521.45 135.088 521.926 136.038 522.243 136.83C522.56 137.78 523.035 138.73 523.193 139.522C523.51 140.472 523.669 141.422 523.827 142.214C523.986 143.164 523.986 144.114 523.986 144.906L523.51 286.487C523.51 287.279 523.352 288.229 523.352 288.862C523.193 289.654 523.035 290.288 522.718 290.763C522.56 291.238 522.243 291.713 521.926 292.03C521.767 292.188 521.767 292.347 521.609 292.347C521.292 292.663 520.817 293.138 520.341 293.297L527.789 289.021C528.264 288.704 528.581 288.387 529.056 288.071C529.215 287.912 529.215 287.754 529.373 287.754C529.532 287.595 529.69 287.437 529.849 287.279C530.007 286.962 530.166 286.804 530.324 286.487C530.483 286.329 530.483 286.17 530.641 285.853C530.641 285.695 530.799 285.537 530.799 285.22C530.799 285.062 530.958 284.903 530.958 284.586C530.958 284.428 530.958 284.428 530.958 284.27V284.111C530.958 283.953 530.958 283.795 531.116 283.636C531.116 283.478 531.116 283.32 531.116 283.161C531.116 283.003 531.116 282.844 531.116 282.686C531.116 282.528 531.116 282.369 531.116 282.211L531.592 140.63C531.75 140.314 531.75 140.155 531.75 139.997Z" fill="url(#paint3_linear)"/>
<path d="M513.21 125.427C519.39 129.07 524.461 137.621 524.303 144.748L523.827 286.329C523.827 293.455 518.757 296.306 512.577 292.663L305.311 173.096C299.131 169.453 294.06 160.901 294.218 153.775L294.694 12.1943C294.694 5.06777 299.765 2.21715 305.945 5.85961L513.21 125.427Z" fill="#343996"/>
<path d="M453.154 67.4646C455.056 68.5731 456.64 71.2654 456.64 73.4825L456.482 117.984C456.482 120.201 454.897 121.151 452.996 120.043L387.868 82.3511C385.967 81.2425 384.382 78.5503 384.382 76.3331L384.541 31.8319C384.541 29.6147 386.125 28.6645 388.027 29.7731L453.154 67.4646Z" fill="#2689FD"/>
<path d="M329.872 47.6686V49.7274C329.872 50.9943 328.604 51.6278 327.495 50.9943L317.988 45.4515C317.512 45.1347 317.195 44.6596 317.195 44.1845V42.1257C317.195 40.8588 318.463 40.2253 319.572 40.8588L329.08 46.4017C329.555 46.56 329.872 47.0351 329.872 47.6686Z" fill="white"/>
<path d="M359.979 75.0662V77.125C359.979 78.3919 358.712 79.0254 357.602 78.3919L317.829 55.4286C317.354 55.1119 317.037 54.6368 317.037 54.1617V52.1029C317.037 50.836 318.304 50.2025 319.414 50.836L359.187 73.7993C359.662 73.9576 359.979 74.5911 359.979 75.0662Z" fill="#1AE5FF"/>
<path d="M311.491 141.264L327.337 133.187L337.637 149.816L349.204 161.535L360.772 154.567L385.333 146.648L396.584 162.643L407.676 171.67L417.818 186.715L431.604 157.892L448.242 165.811L456.957 158.684L475.022 163.435L501.96 161.06" stroke="#16C5DC" stroke-miterlimit="10"/>
<path d="M404.982 50.2025C398.961 46.7185 393.256 47.6687 390.879 53.0532C387.869 59.863 391.355 71.4238 398.327 79.3422L399.911 75.5413C395.158 69.9985 392.939 62.0801 394.999 57.3291C396.584 53.5283 400.704 52.8948 404.824 55.2703C405.933 55.9038 406.884 56.6956 407.993 57.6458L409.578 53.845C408.151 52.4197 406.567 51.1527 404.982 50.2025Z" fill="#F1F1F1"/>
<path d="M409.736 53.845L408.151 57.6458C408.468 57.9625 408.627 58.1209 408.944 58.4376C414.331 63.9805 417.025 72.6907 414.965 77.7585C414.807 77.9168 414.807 78.0752 414.648 78.2336C414.648 78.2336 414.648 78.3919 414.49 78.3919C412.905 81.0842 409.894 81.876 406.567 80.4507C406.091 80.2924 405.458 79.9756 404.982 79.6589C404.824 79.5005 404.665 79.5005 404.507 79.3421C404.19 79.1838 404.031 79.0254 403.873 78.867H403.715C403.239 78.5503 402.922 78.2336 402.447 77.9168L402.288 77.7585C402.13 77.6001 401.971 77.4417 401.813 77.2834L401.655 77.125C401.496 76.9666 401.179 76.6499 401.021 76.4915C400.704 76.1748 400.387 75.8581 400.07 75.383L398.485 79.1838C398.802 79.5005 399.119 79.8172 399.436 80.2924C399.753 80.6091 400.07 80.9258 400.387 81.0842C400.545 81.2426 400.545 81.2426 400.704 81.2426C400.862 81.4009 401.179 81.7177 401.338 81.876L401.496 82.0344C402.13 82.5095 402.764 82.9846 403.398 83.4597C403.398 83.4597 403.556 83.4597 403.556 83.6181C403.873 83.7764 404.19 83.9348 404.348 84.0932H404.507C404.665 84.2515 404.824 84.2515 405.141 84.4099C405.616 84.7266 406.091 84.885 406.408 85.0434C406.725 85.2017 407.042 85.3601 407.359 85.5185C412.43 87.5773 417.025 86.3103 419.085 81.5593C422.096 74.4328 418.451 62.2385 410.687 54.3201C410.211 54.3201 410.053 54.1617 409.736 53.845Z" fill="#FDB913"/>
<path d="M433.188 74.9078V76.0164C433.188 76.6499 432.396 77.125 431.92 76.8083L426.374 73.6409C426.057 73.4825 425.899 73.1658 425.899 72.8491V71.7405C425.899 71.107 426.691 70.6319 427.167 70.9487L432.713 74.116C433.03 74.2744 433.188 74.5911 433.188 74.9078Z" fill="white"/>
<path d="M450.619 90.7446V91.8532C450.619 92.4866 449.826 92.9618 449.351 92.645L426.374 79.3421C426.057 79.1838 425.899 78.867 425.899 78.5503V77.4417C425.899 76.8083 426.691 76.3332 427.167 76.6499L450.143 89.9528C450.46 90.1111 450.619 90.4279 450.619 90.7446Z" fill="white"/>
<g opacity="0.53">
<path opacity="0.53" d="M441.111 96.9209V98.0295C441.111 98.663 440.319 99.1381 439.843 98.8213L426.374 91.0613C426.057 90.903 425.899 90.5862 425.899 90.2695V89.1609C425.899 88.5274 426.691 88.0523 427.167 88.3691L440.636 96.1291C440.953 96.2875 441.111 96.6042 441.111 96.9209Z" fill="white"/>
</g>
<path d="M446.974 94.5454V95.654C446.974 96.2875 446.182 96.7626 445.706 96.4459L426.374 85.2018C426.057 85.0434 425.899 84.7267 425.899 84.4099V83.3013C425.899 82.6679 426.691 82.1928 427.167 82.5095L446.499 93.7536C446.816 93.912 446.974 94.2287 446.974 94.5454Z" fill="#58AFFB"/>
<path d="M501.96 146.332C495.304 142.531 489.758 145.54 489.758 153.3C489.758 160.901 495.146 170.403 501.801 174.204C508.457 178.005 513.844 174.996 514.003 167.236C514.003 159.476 508.615 150.132 501.96 146.332Z" fill="#0057FF"/>
<path d="M501.96 153.933C498.949 152.191 496.414 153.617 496.414 157.101C496.414 160.585 498.791 164.861 501.801 166.603C504.812 168.345 507.347 166.919 507.347 163.435C507.347 159.951 504.97 155.675 501.96 153.933Z" fill="#212973"/>
<path d="M330.665 73.7993V75.8581C330.665 77.125 329.397 77.9169 328.288 77.2834L318.463 71.5822C317.988 71.2654 317.671 70.7903 317.671 70.1569V68.0981C317.671 66.8311 318.939 66.0393 320.048 66.6728L329.872 72.374C330.348 72.6907 330.665 73.3242 330.665 73.7993Z" fill="#1CE5FF"/>
<path d="M361.881 101.989V104.048C361.881 105.314 360.614 106.106 359.504 105.473L318.463 82.0344C317.988 81.7177 317.671 81.2426 317.671 80.6091V78.5504C317.671 77.2834 318.939 76.4916 320.048 77.1251L361.089 100.563C361.564 100.88 361.881 101.514 361.881 101.989Z" fill="#1CE5FF"/>
<g opacity="0.53">
<path opacity="0.53" d="M344.926 113.074V115.133C344.926 116.4 343.658 117.192 342.549 116.559L318.463 102.781C317.988 102.464 317.671 101.989 317.671 101.355V99.2965C317.671 98.0296 318.939 97.2377 320.048 97.8712L344.134 111.649C344.609 111.966 344.926 112.441 344.926 113.074Z" fill="#1CE5FF"/>
</g>
<path d="M355.384 108.799V110.857C355.384 112.124 354.117 112.916 353.007 112.283L318.305 92.4867C317.829 92.17 317.512 91.6949 317.512 91.0614V89.0026C317.512 87.7357 318.78 86.9439 319.889 87.5773L354.592 107.373C355.226 107.69 355.384 108.165 355.384 108.799Z" fill="#1CE5FF"/>
<path d="M472.169 250.221L477.874 247.053L477.716 285.062L472.169 288.229V250.221Z" fill="#00A935"/>
<path d="M483.578 249.271C483.578 249.271 483.578 249.112 483.578 249.271C483.578 249.112 483.578 249.112 483.578 249.271C483.578 249.112 483.578 249.112 483.578 249.112L466.148 214.43C466.148 214.43 466.148 214.43 466.148 214.271C466.148 214.271 466.148 214.113 465.989 214.113C465.989 214.113 465.989 214.113 465.831 214.113L460.285 217.439C460.443 217.439 460.443 217.439 460.602 217.439C460.76 217.439 460.918 217.439 460.918 217.597C461.077 217.755 461.235 217.755 461.394 217.914C461.552 218.072 461.711 218.23 461.711 218.389L479.141 253.071C479.3 253.23 479.3 253.388 479.3 253.546C479.3 253.705 479.3 253.863 479.3 254.022C479.3 254.18 479.3 254.18 479.141 254.338C479.141 254.497 478.983 254.497 478.983 254.497L484.529 251.171L484.688 251.013C483.578 249.429 483.578 249.429 483.578 249.271C483.578 249.429 483.578 249.429 483.578 249.271C483.578 249.429 483.578 249.429 483.578 249.271Z" fill="#61E041"/>
<path d="M459.651 216.172C459.968 216.33 460.285 216.647 460.443 216.964L477.874 251.646C478.349 252.755 477.874 253.546 477.082 253.071L472.169 250.221L472.011 288.229L446.499 273.501L446.657 235.493L441.903 232.8C441.111 232.325 440.636 230.9 441.111 230.583L458.7 216.172C459.017 216.013 459.334 216.013 459.651 216.172Z" fill="#00CC41"/>
<path d="M279.006 297.098L329.396 348.409L378.36 335.739L327.97 284.428L279.006 297.098Z" fill="white"/>
<path d="M333.04 300.265L328.287 302.007C324.642 299.156 318.462 298.206 314.184 299.79C314.025 299.79 314.025 299.79 313.867 299.948L309.905 296.622C310.064 296.622 310.064 296.622 310.222 296.464C317.036 293.93 327.336 295.672 333.04 300.265Z" fill="#E2EDFF"/>
<path d="M333.674 300.74C338.428 304.857 338.111 309.767 333.357 312.776L329.237 309.45C331.456 307.708 331.297 305.016 328.92 302.64L333.674 300.74Z" fill="#E2EDFF"/>
<path d="M332.723 313.093C332.248 313.409 331.773 313.568 331.139 313.726C324.325 316.26 314.342 314.676 308.479 310.242L313.233 308.342C316.877 311.034 322.899 311.984 327.177 310.4C327.811 310.242 328.287 309.925 328.762 309.609L332.723 313.093Z" fill="#3EABFF"/>
<path d="M313.233 300.265C309.905 302.007 309.588 305.333 312.599 308.025L307.845 309.767C302.458 305.333 303.25 299.631 309.272 296.939L313.233 300.265Z" fill="#3EABFF"/>
<path d="M328.128 551.119C328.128 551.119 324.167 553.811 327.812 560.304C331.456 566.639 334.784 562.838 343.182 569.173C351.581 575.508 354.591 576.775 359.028 576.3C363.465 575.824 366.159 573.607 366.951 571.073C367.744 568.54 365.525 564.422 365.525 564.422L328.128 551.119Z" fill="#94A3C0"/>
<path d="M363.624 551.277C363.624 551.277 365.367 559.671 366.317 566.006C366.634 569.015 362.673 572.974 356.968 572.816C351.264 572.499 348.095 570.915 346.193 568.381C344.292 565.847 331.932 561.096 329.713 559.196C327.495 557.295 327.019 551.277 327.97 549.852C328.921 548.427 332.724 545.893 336.527 547.635C340.488 549.377 343.658 552.544 351.581 553.02C359.504 553.495 363.624 551.277 363.624 551.277Z" fill="#382747"/>
<path d="M367.268 529.74C367.268 529.74 363.307 532.432 366.951 538.925C370.596 545.259 373.923 541.459 382.322 547.793C390.72 554.128 393.731 555.395 398.168 554.92C402.605 554.445 405.299 552.228 406.091 549.694C406.883 547.16 404.665 543.042 404.665 543.042L367.268 529.74Z" fill="#94A3C0"/>
<path d="M402.763 530.056C402.763 530.056 404.506 538.45 405.457 544.784C405.774 547.793 401.813 551.753 396.108 551.594C390.403 551.277 387.234 549.694 385.333 547.16C383.431 544.626 371.071 539.875 368.853 537.975C366.634 536.074 366.159 530.056 367.11 528.631C368.061 527.206 371.864 524.672 375.667 526.414C379.628 528.156 382.797 531.323 390.72 531.798C398.643 532.273 402.763 530.056 402.763 530.056Z" fill="#382747"/>
<path d="M372.022 461.8C373.924 477.637 381.847 518.97 383.273 533.382C383.273 533.382 386.601 538.608 396.425 537.341L401.179 535.441C403.08 534.649 404.19 532.748 403.873 530.69C402.922 522.771 400.704 502.659 401.654 490.781C402.922 475.736 398.96 466.392 398.96 466.392C399.277 461.483 399.911 444.379 390.087 439.787C390.245 439.787 366.001 435.352 372.022 461.8Z" fill="#14347C"/>
<path d="M392.146 446.913L389.453 452.139C389.453 452.139 349.045 454.04 338.112 465.917C338.112 465.917 330.822 467.184 332.882 483.021C334.784 498.858 342.707 540.192 344.133 554.603C344.133 554.603 347.461 559.829 357.285 558.562L362.039 556.662C363.941 555.87 365.05 553.97 364.733 551.911C363.782 543.993 361.564 523.88 362.514 512.002C363.782 496.957 359.821 487.614 359.821 487.614C359.821 487.614 377.568 490.939 396.583 498.858C415.599 506.776 432.078 497.591 439.368 493.632C446.657 489.673 449.192 486.98 449.192 486.98C449.192 486.98 458.383 486.98 466.94 479.695C475.497 472.41 476.764 453.406 467.574 442.162C458.541 431.235 392.146 446.913 392.146 446.913Z" fill="#18388F"/>
<path d="M406.566 347.142C406.566 347.142 413.063 344.766 412.746 336.056C410.686 327.504 408.309 326.871 408.309 326.871C408.309 326.871 417.5 318.477 428.433 321.011C428.433 321.011 435.247 334.789 443.012 340.807C443.012 340.649 436.832 356.96 406.566 347.142Z" fill="#CE7C56"/>
<path d="M420.986 352.051C420.986 352.051 445.23 331.78 450.142 331.305C456.005 330.83 463.453 332.73 465.513 341.124C467.414 349.517 462.978 355.852 458.541 358.386C454.104 360.92 415.123 379.607 408.15 379.607C401.178 379.607 396.741 373.747 401.178 366.304C405.615 358.861 420.986 352.051 420.986 352.051Z" fill="#E2A029"/>
<path d="M428.275 338.59C428.275 338.59 402.604 347.142 395.315 359.019C388.026 370.897 389.452 384.041 394.681 402.412C399.911 420.783 389.452 437.253 391.988 447.072C394.681 456.89 413.063 466.076 440.001 461.483C466.939 456.89 468.999 446.438 470.901 440.42C472.802 434.561 465.672 406.213 472.168 383.25C478.824 360.286 465.513 344.449 460.284 340.49C455.372 336.531 444.755 331.305 428.275 338.59Z" fill="#FFBE3D"/>
<path d="M460.601 340.49C455.371 336.531 444.755 331.305 428.433 338.59C428.433 338.59 402.763 347.142 395.473 359.019C393.73 361.87 392.463 364.879 391.67 367.888C402.129 354.427 416.866 348.409 426.373 371.53C435.405 393.068 412.587 456.099 392.621 436.303C391.829 440.42 391.353 444.063 392.146 447.072C394.84 456.89 413.221 466.076 440.159 461.483C467.097 456.89 469.157 446.438 471.059 440.42C472.96 434.561 465.83 406.213 472.327 383.25C478.982 360.286 465.83 344.449 460.601 340.49Z" fill="#E2A029"/>
<path d="M403.872 349.676C403.872 349.676 410.844 354.11 428.117 351.576C445.389 349.042 446.339 336.848 444.913 335.739C443.487 334.789 440.476 330.83 440.476 330.83C440.476 330.83 422.253 339.223 415.757 341.599C409.418 344.133 405.932 345.558 405.932 345.558L403.872 349.676Z" fill="white"/>
<path d="M392.463 295.989C392.463 295.989 391.037 313.726 400.386 325.604C409.735 337.481 419.084 330.513 425.106 327.504C430.969 324.495 433.504 319.586 435.406 305.333C437.307 291.08 437.307 277.302 427.007 272.867C416.708 268.433 405.298 267.483 398.96 278.252C392.463 289.021 392.463 295.989 392.463 295.989Z" fill="#FFAA83"/>
<path d="M399.435 274.768C399.435 274.768 391.037 281.102 391.512 290.604C391.988 299.948 388.977 301.373 390.086 306.441C391.037 311.351 398.96 312.776 399.435 319.744C399.911 326.712 410.211 329.088 415.757 331.147C421.144 333.047 430.018 326.712 432.553 323.228C435.089 319.744 434.455 310.876 437.466 302.957C440.476 295.039 438.892 285.22 436.515 278.252C433.98 271.284 429.067 269.858 429.067 269.858C429.067 269.858 426.532 264.474 420.669 263.524C414.647 262.415 396.425 263.365 399.435 274.768Z" fill="#4D2C63"/>
<path d="M478.507 566.322C477.556 576.3 468.207 582.951 459.809 586.593C450.618 590.553 440.477 592.136 430.494 591.978C420.352 591.82 409.894 589.919 400.703 585.326C392.622 581.367 384.223 574.241 384.223 564.422C384.223 571.549 384.699 577.408 389.769 582.951C396.425 590.078 406.249 593.878 415.598 595.779C433.821 599.58 458.541 597.679 472.327 583.743C477.873 578.042 478.665 572.182 478.665 564.739C478.507 565.372 478.507 565.847 478.507 566.322Z" fill="#ADCDFC"/>
<path d="M464.562 545.418C483.102 556.029 483.102 573.449 464.879 584.06C446.498 594.67 416.549 594.67 398.009 584.06C379.469 573.449 379.469 556.029 397.851 545.418C416.232 534.807 446.181 534.807 464.562 545.418Z" fill="#E2EDFF"/>
<path d="M439.843 523.88L439.684 565.055L432.395 569.331L432.553 527.997L439.843 523.88Z" fill="#C7D8F2"/>
<path d="M432.554 527.997L432.395 569.331L425.106 565.055L425.264 523.88L432.554 527.997Z" fill="#7BAEFF"/>
<path d="M439.843 523.88L432.554 527.997L425.265 523.88L432.554 519.604L439.843 523.88Z" fill="#4DA5DC"/>
<path d="M523.985 383.091C523.827 377.39 518.122 373.431 512.734 375.331C489.124 383.566 435.089 403.204 431.603 410.172C428.275 416.823 417.658 453.723 412.271 472.252C410.686 477.637 404.506 480.012 399.752 477.161L367.11 457.841C360.93 454.198 353.165 459.424 354.433 466.551L359.662 498.066C360.137 500.6 361.563 502.817 363.782 504.084L398.802 524.197C418.292 535.441 442.22 536.074 462.344 526.097L489.282 512.636C512.893 500.917 527.313 476.37 526.362 450.081L523.985 383.091Z" fill="#3278CC"/>
<path d="M431.444 410.172C428.116 416.823 417.5 453.723 412.112 472.252C410.527 477.637 404.347 480.012 399.594 477.161L366.951 457.841C360.771 454.198 353.006 459.424 354.274 466.551L359.503 498.066C359.662 498.858 359.82 499.491 360.137 500.125C360.612 500.758 360.929 501.392 361.405 502.025C362.039 502.817 362.831 503.45 363.623 503.926L398.643 524.038C406.091 528.314 414.014 531.006 422.253 532.273C450.618 510.26 446.973 418.407 436.832 410.805C435.247 409.697 433.98 408.905 432.712 408.588C432.236 409.222 431.761 409.697 431.444 410.172Z" fill="#3AAEEF"/>
<path d="M368.377 382.299C368.377 382.299 392.622 362.028 397.534 361.553C403.397 361.078 410.845 362.978 412.905 371.372C414.806 379.765 410.369 386.1 405.932 388.634C401.495 391.168 362.514 409.855 355.542 409.855C348.57 409.855 344.133 403.996 348.57 396.552C353.007 389.109 368.377 382.299 368.377 382.299Z" fill="#FFBE3D"/>
<path d="M334.309 350.151C334.309 350.151 333.041 347.617 332.882 346.033C332.565 344.291 333.675 342.074 332.565 338.115C331.615 334.156 329.872 330.671 329.079 327.979C327.178 325.445 325.435 329.88 326.861 333.68C328.287 337.481 327.812 339.54 326.385 339.857C324.959 340.174 318.779 336.373 317.036 334.472C315.293 332.572 305.469 322.911 304.518 324.178C303.567 325.445 303.567 326.712 307.053 330.355C310.539 333.997 311.807 335.739 311.966 336.689C312.283 337.64 311.966 338.59 313.233 341.599C314.501 344.608 313.55 346.508 315.769 349.2C317.987 351.893 322.107 352.368 324.167 354.11C326.069 355.852 326.069 355.852 326.069 355.852L334.309 350.151Z" fill="#FFAA83"/>
<path d="M355.542 409.855C355.542 409.855 345.242 411.756 339.537 400.353C333.991 388.792 324.484 357.911 323.058 355.06C323.058 355.06 326.385 347.775 334.625 348.092C334.625 348.092 343.816 366.146 349.045 374.381C354.274 382.616 373.131 406.53 355.542 409.855Z" fill="#FFBE3D"/>
<path d="M203.104 213.796C203.104 213.796 206.273 211.737 208.174 212.371C210.076 213.004 216.573 213.955 218.633 214.113C220.693 214.271 224.813 210.629 225.446 209.995C226.239 209.362 226.556 208.095 227.506 207.145C228.457 206.195 228.774 206.353 228.774 204.769C228.774 203.186 230.359 201.76 231.151 200.968C231.943 200.177 234.796 198.435 234.479 197.168C234.162 195.901 232.736 196.534 231.785 196.851C230.834 197.168 227.506 200.177 226.08 201.127C224.654 202.077 221.168 203.344 219.425 203.344C217.682 203.344 216.097 202.869 216.097 202.869C216.097 202.869 215.622 202.869 217.365 202.235C219.108 201.602 220.217 202.077 221.643 201.76C223.069 201.444 223.862 200.652 223.703 199.86C223.545 199.068 221.643 199.068 220.851 199.068C220.059 199.068 215.78 199.226 214.037 198.91C212.294 198.593 209.283 201.602 208.808 202.077C208.174 202.71 205.164 203.502 203.579 203.661C201.994 204.294 203.104 213.796 203.104 213.796Z" fill="#FF9F75"/>
<path d="M140.195 212.371C140.195 212.371 143.206 222.506 156.041 222.031C168.876 221.715 200.568 215.697 203.896 215.538C203.896 215.538 208.808 209.204 204.688 202.077C204.688 202.077 184.405 202.235 174.739 201.443C164.915 200.652 134.966 195.267 140.195 212.371Z" fill="#E1E8F2"/>
<path d="M72.3737 232.484C72.3737 232.484 66.9861 201.444 63.6584 197.801C59.5384 193.525 52.5662 190.358 45.5939 195.426C38.6217 200.493 37.8294 208.253 39.7309 213.004C41.474 217.755 59.063 257.189 64.4507 261.782C69.8383 266.374 76.969 264.632 78.3952 256.08C79.6629 247.687 72.3737 232.484 72.3737 232.484Z" fill="#E1E8F2"/>
<path d="M126.409 249.112C126.409 249.112 130.528 249.429 132.113 249.429C133.539 249.429 144.948 248.479 146.85 248.479C148.751 248.479 148.751 250.696 148.751 250.696C148.751 250.696 150.653 253.863 150.653 255.13C150.653 256.397 150.653 258.139 151.128 259.248C151.604 260.515 150.811 261.465 150.336 262.415C149.861 263.365 148.593 263.84 147.325 264.632C146.058 265.424 144.631 265.424 143.681 264.949C142.73 264.474 142.73 264.157 143.998 263.524C145.265 262.732 146.216 261.782 146.216 261.782C146.216 261.782 144.79 263.207 142.571 263.524C140.353 263.84 136.867 263.84 134.965 262.732C133.064 261.782 129.578 260.04 129.578 260.04L125.616 259.564L126.409 249.112Z" fill="#FF9F75"/>
<path d="M63.5 257.664C63.5 257.664 66.5108 267.799 79.3461 267.324C92.1813 267.008 123.873 260.99 127.201 260.831C127.201 260.831 132.113 254.497 127.993 247.37C127.993 247.37 107.71 247.528 98.0444 246.737C88.2198 246.103 58.2709 240.56 63.5 257.664Z" fill="#E1E8F2"/>
</g>
<defs>
<linearGradient id="paint0_linear" x1="276.955" y1="321.585" x2="287.349" y2="401.623" gradientUnits="userSpaceOnUse">
<stop stop-color="#C6E6FF"/>
<stop offset="1" stop-color="#8D9FFF"/>
</linearGradient>
<linearGradient id="paint1_linear" x1="270.452" y1="462.082" x2="300.113" y2="395.602" gradientUnits="userSpaceOnUse">
<stop stop-color="#1AE5FF"/>
<stop offset="1" stop-color="#EAEEEE"/>
</linearGradient>
<linearGradient id="paint2_linear" x1="441.558" y1="302.825" x2="395.206" y2="-41.8558" gradientUnits="userSpaceOnUse">
<stop stop-color="#1AE5FF"/>
<stop offset="0.2589" stop-color="#64E8F9"/>
<stop offset="0.7043" stop-color="#EAEEEE"/>
</linearGradient>
<linearGradient id="paint3_linear" x1="531.763" y1="207.296" x2="513.187" y2="207.296" gradientUnits="userSpaceOnUse">
<stop stop-color="#5155D4"/>
<stop offset="1" stop-color="#45F7FF"/>
</linearGradient>
<clipPath id="clip0">
<rect width="531" height="617" fill="white" transform="translate(0.75)"/>
</clipPath>
</defs>
</svg>
