<?xml version="1.0" encoding="utf-8"?>
<!-- Generator: Adobe Illustrator 24.0.1, SVG Export Plug-In . SVG Version: 6.00 Build 0)  -->
<svg version="1.1" id="Layer_1" xmlns="http://www.w3.org/2000/svg" xmlns:xlink="http://www.w3.org/1999/xlink" x="0px" y="0px"
	 viewBox="0 0 2512.5 974.77" style="enable-background:new 0 0 2512.5 974.77;" xml:space="preserve">
<style type="text/css">
	.st0{fill:#404041;}
	.st1{fill:#A9A9A9;}
	.st2{fill:#F79737;}
	.st3{fill:url(#SVGID_1_);}
	.st4{fill:url(#SVGID_2_);}
	.st5{fill:url(#SVGID_3_);}
</style>
<g>
	<path class="st0" d="M847.77,266.83h12.2l79.6,172.12h-13.92l-21.72-47.86H803.1l-21.74,47.86h-13.17L847.77,266.83z
		 M898.56,379.62l-44.93-98.89l-45.17,98.89H898.56z"/>
	<path class="st0" d="M1013.6,441.64c-10.26,0-19.65-1.6-28.2-4.77c-8.54-3.17-15.96-7.89-22.22-14.16
		c-6.26-6.26-11.11-14-14.52-23.19c-3.42-9.19-5.13-19.74-5.13-31.62v-99.86h12.69v98.63c0,20.35,5.09,36.02,15.25,47.01
		c10.18,10.99,24.38,16.48,42.61,16.48c17.41,0,31.25-5.21,41.5-15.62c10.26-10.42,15.38-25.96,15.38-46.63v-99.86h12.69v98.39
		c0,12.21-1.7,22.99-5.13,32.35c-3.42,9.36-8.22,17.21-14.41,23.56c-6.18,6.34-13.55,11.15-22.08,14.4
		C1033.5,440,1024.02,441.64,1013.6,441.64z"/>
	<path class="st0" d="M1158.38,279.52h-59.57v-11.48h131.84v11.48h-59.58v159.43h-12.69V279.52z"/>
	<path class="st0" d="M1320.68,441.88c-12.87,0-24.59-2.4-35.16-7.21c-10.58-4.8-19.61-11.23-27.09-19.29
		c-7.5-8.06-13.27-17.37-17.34-27.96c-4.06-10.58-6.1-21.73-6.1-33.45v-0.48c0-11.72,2.08-22.91,6.22-33.58
		c4.16-10.66,9.98-20.06,17.46-28.2c7.49-8.14,16.56-14.6,27.23-19.41c10.66-4.8,22.42-7.21,35.27-7.21
		c13.03,0,24.79,2.41,35.28,7.21c10.5,4.81,19.49,11.23,26.97,19.29c7.49,8.06,13.27,17.38,17.34,27.96
		c4.06,10.58,6.1,21.73,6.1,33.45c0.16,0.16,0.16,0.33,0,0.49c0,11.71-2.08,22.91-6.22,33.57c-4.16,10.66-9.98,20.06-17.46,28.2
		c-7.49,8.14-16.52,14.61-27.09,19.41C1345.5,439.48,1333.7,441.88,1320.68,441.88z M1321.16,430.39c10.59,0,20.31-1.98,29.18-5.98
		c8.87-3.98,16.52-9.43,22.95-16.36c6.42-6.91,11.43-15.01,15.01-24.28c3.58-9.28,5.37-19.21,5.37-29.8v-0.48
		c0-10.59-1.82-20.55-5.49-29.92c-3.66-9.35-8.71-17.49-15.14-24.42c-6.42-6.91-14.12-12.4-23.07-16.48
		c-8.95-4.06-18.71-6.1-29.29-6.1c-10.59,0-20.31,2-29.18,5.98c-8.87,3.98-16.52,9.44-22.95,16.36
		c-6.42,6.93-11.43,15.01-15.01,24.3c-3.58,9.27-5.37,19.21-5.37,29.78v0.49c0,10.58,1.82,20.54,5.49,29.9
		c3.66,9.36,8.71,17.5,15.14,24.42c6.42,6.93,14.12,12.41,23.07,16.48C1300.82,428.37,1310.59,430.39,1321.16,430.39z"/>
	<path class="st0" d="M1429.32,268.04h11.96l68.61,101.08l68.61-101.08h11.96v170.91h-12.69V290.51l-67.76,98.38h-0.97l-67.76-98.38
		v148.44h-11.96V268.04z"/>
	<path class="st0" d="M1695.2,266.83h12.2l79.6,172.12h-13.92l-21.73-47.86h-100.83l-21.74,47.86h-13.17L1695.2,266.83z
		 M1745.99,379.62l-44.93-98.89l-45.17,98.89H1745.99z"/>
	<path class="st0" d="M1828.77,279.52h-59.57v-11.48h131.84v11.48h-59.58v159.43h-12.69V279.52z"/>
	<path class="st0" d="M1925.46,268.04h12.69v170.91h-12.69V268.04z"/>
	<path class="st0" d="M2056.78,441.88c-12.87,0-24.59-2.4-35.16-7.21c-10.58-4.8-19.61-11.23-27.09-19.29
		c-7.5-8.06-13.27-17.37-17.34-27.96c-4.06-10.58-6.1-21.73-6.1-33.45v-0.48c0-11.72,2.08-22.91,6.22-33.58
		c4.16-10.66,9.98-20.06,17.46-28.2c7.49-8.14,16.56-14.6,27.23-19.41c10.66-4.8,22.42-7.21,35.27-7.21
		c13.03,0,24.79,2.41,35.28,7.21c10.5,4.81,19.49,11.23,26.97,19.29c7.49,8.06,13.27,17.38,17.34,27.96
		c4.06,10.58,6.1,21.73,6.1,33.45c0.16,0.16,0.16,0.33,0,0.49c0,11.71-2.08,22.91-6.22,33.57c-4.16,10.66-9.98,20.06-17.46,28.2
		c-7.49,8.14-16.52,14.61-27.09,19.41C2081.6,439.48,2069.8,441.88,2056.78,441.88z M2057.26,430.39c10.59,0,20.31-1.98,29.18-5.98
		c8.87-3.98,16.52-9.43,22.95-16.36c6.42-6.91,11.43-15.01,15.01-24.28c3.58-9.28,5.37-19.21,5.37-29.8v-0.48
		c0-10.59-1.82-20.55-5.49-29.92c-3.66-9.35-8.71-17.49-15.14-24.42c-6.42-6.91-14.12-12.4-23.07-16.48
		c-8.95-4.06-18.71-6.1-29.29-6.1c-10.59,0-20.31,2-29.18,5.98c-8.87,3.98-16.52,9.44-22.95,16.36
		c-6.42,6.93-11.43,15.01-15.01,24.3c-3.58,9.27-5.37,19.21-5.37,29.78v0.49c0,10.58,1.82,20.54,5.49,29.9
		c3.66,9.36,8.71,17.5,15.14,24.42c6.42,6.93,14.12,12.41,23.07,16.48C2036.92,428.37,2046.69,430.39,2057.26,430.39z"/>
	<path class="st0" d="M2166.92,268.04h11.99l118.15,148.69V268.04h11.96v170.91h-9.54l-120.6-151.86v151.86h-11.96V268.04z"/>
	<path class="st0" d="M920.48,476.01h35.55l75.11,176.52h-40.32l-16.03-39.31h-74.1l-16.03,39.31h-39.31L920.48,476.01z
		 M961.03,579.42l-23.28-56.83l-23.28,56.83H961.03z"/>
	<path class="st0" d="M1041.9,477.27h35.55l82.13,107.91V477.27h38.06v175.26h-32.81l-84.88-111.42v111.42h-38.06V477.27z"/>
	<path class="st0" d="M1277.76,583.42l-67.35-106.15h45.08l41.81,70.35l42.56-70.35h43.82l-67.35,105.4v69.86h-38.56V583.42z"/>
	<path class="st0" d="M1382.92,477.27h41.31l36.31,118.68l39.31-119.18h33.05l39.31,119.18l36.31-118.68h40.32l-59.84,176.5h-33.55
		l-39.56-114.67l-39.56,114.67h-33.55L1382.92,477.27z"/>
	<path class="st0" d="M1671.1,477.27h38.56v69.35h71.11v-69.35h38.55v175.26h-38.55v-70.35h-71.11v70.35h-38.56V477.27z"/>
	<path class="st0" d="M1850.11,477.27h131.96v34.29h-93.9v35.55h82.62v34.31h-82.62v36.8h95.14v34.31h-133.2V477.27z"/>
	<path class="st0" d="M2011.6,477.27h80.13c22.19,0,39.21,5.92,51.07,17.78c10.02,10.02,15.02,23.36,15.02,40.05v0.5
		c0,14.19-3.46,25.75-10.39,34.68c-6.92,8.93-15.99,15.48-27.17,19.66l42.82,62.59h-45.06l-37.56-56.09h-0.5h-29.8v56.09h-38.56
		V477.27z M2089.22,562.63c9.51,0,16.82-2.26,21.92-6.78c5.08-4.54,7.63-10.57,7.63-18.12v-0.5c0-8.38-2.67-14.69-8.01-18.88
		s-12.76-6.29-22.29-6.29h-38.3v50.57H2089.22z"/>
	<path class="st0" d="M2181.35,477.27h131.96v34.29h-93.9v35.55h82.62v34.31h-82.62v36.8h95.14v34.31h-133.2V477.27z"/>
</g>
<g>
	<g>
		<path class="st1" d="M2383.27,208.84c19.36,0,34.83,15.76,34.83,35.52s-15.47,35.52-34.83,35.52c-19.17,0-34.54-15.76-34.54-35.52
			S2364.1,208.84,2383.27,208.84z M2383.27,273.26c15.67,0,27.73-12.65,27.73-28.9s-12.07-28.9-27.73-28.9
			c-15.47,0-27.44,12.65-27.44,28.9S2367.8,273.26,2383.27,273.26z M2371.4,225.87h14.11c6.91,0,11.58,4.38,11.58,11.19
			c0,5.64-3.7,8.95-6.71,9.73v0.19c0,0,0.39,0.39,1.26,2.04l7.01,13.53h-7.59l-6.81-14.21h-5.94v14.21h-6.91V225.87z
			 M2384.14,243.29c3.6,0,5.94-2.34,5.94-6.23c0-3.79-2.34-5.94-5.94-5.94h-5.84v12.16H2384.14z"/>
	</g>
</g>
<g>
	<path class="st2" d="M1517.9,710.12c21.24,0,31.91,11.03,31.91,11.03l-9.75,15.2c0,0-8.47-7.66-20.19-7.66
		c-17.41,0-24.49,11.14-24.49,23.44c0,15.78,10.91,25.18,23.79,25.18c9.75,0,16.83-6.03,16.83-6.03v-6.38h-11.72V747.6h29.71v46.89
		h-16.94v-2.32c0-1.74,0.12-3.48,0.12-3.48h-0.23c0,0-8.01,7.2-21.82,7.2c-21.24,0-40.73-15.9-40.73-43.06
		C1474.37,728.69,1492.6,710.12,1517.9,710.12z"/>
	<path class="st2" d="M1595.74,733.33c18.92,0,34,12.65,34,31.45c0,18.68-15.09,31.1-33.89,31.1s-33.89-12.42-33.89-31.1
		C1561.96,745.98,1577.05,733.33,1595.74,733.33z M1595.85,779.17c7.31,0,13.58-5.45,13.58-14.39c0-9.05-6.27-14.74-13.58-14.74
		s-13.58,5.69-13.58,14.74C1582.27,773.72,1588.54,779.17,1595.85,779.17z"/>
	<path class="st2" d="M1666.76,711.51h20.08v23.09c0,3.02-0.23,5.11-0.23,5.11h0.23c0,0,5.57-6.38,16.13-6.38
		c16.25,0,26.92,12.77,26.92,31.33c0,18.92-11.95,31.22-27.85,31.22c-11.03,0-16.36-6.73-16.36-6.73h-0.23c0,0,0.12,1.51,0.12,3.37
		v1.97h-18.8V711.51z M1697.98,779.29c6.27,0,11.72-5.11,11.72-14.27c0-8.94-4.76-14.74-11.72-14.74c-6.03,0-11.72,4.41-11.72,14.74
		C1686.26,772.21,1690.09,779.29,1697.98,779.29z"/>
	<path class="st2" d="M1767.49,733.33c17.64,0,27.62,12.3,27.62,28.9c0,1.97-0.46,6.27-0.46,6.27h-37.72
		c1.51,7.31,7.54,10.68,13.93,10.68c8.59,0,16.48-6.03,16.48-6.03l7.43,14.04c0,0-9.63,8.7-25.53,8.7
		c-21.35,0-32.84-15.44-32.84-31.33C1736.39,747.02,1748.23,733.33,1767.49,733.33z M1774.92,757c0-4.53-3.13-8.59-7.89-8.59
		c-5.8,0-8.59,4.18-9.63,8.59H1774.92z"/>
	<path class="st2" d="M1856.85,802.15c7.2,0,13.81-2.67,13.81-11.49v-1.97c0-0.7,0.12-2.2,0.12-2.2h-0.23
		c-3.48,4.18-8.01,6.27-14.97,6.27c-17.99,0-26.92-14.74-26.92-30.06c0-15.2,8.7-29.36,26.81-29.36c10.91,0,16.25,5.8,16.25,5.8
		h0.35c0,0-0.12-0.7-0.12-1.39v-3.02h18.8v54.31c0,21.82-17.41,29.83-33.77,29.83c-8.01,0-16.83-2.32-22.63-5.34l5.69-15.2
		C1840.03,798.32,1847.45,802.15,1856.85,802.15z M1871.13,762.92c0-10.56-5.57-12.88-11.61-12.88c-7.08,0-10.68,5.11-10.68,11.95
		c0,7.43,3.48,14.04,11.49,14.04C1865.56,776.04,1871.13,773.37,1871.13,762.92z"/>
	<path class="st2" d="M1902.42,734.72h19.27v10.1c0,1.97-0.23,3.71-0.23,3.71h0.23c2.55-8.12,10.1-14.85,19.03-14.85
		c1.16,0,2.32,0.23,2.32,0.23v19.73c0,0-1.62-0.35-4.06-0.35c-4.76,0-12.53,1.51-15.44,10.44c-0.7,2.21-1.04,4.87-1.04,8.12v22.63
		h-20.08V734.72z"/>
	<path class="st2" d="M1979.13,733.33c17.64,0,27.62,12.3,27.62,28.9c0,1.97-0.46,6.27-0.46,6.27h-37.72
		c1.51,7.31,7.54,10.68,13.93,10.68c8.59,0,16.48-6.03,16.48-6.03l7.43,14.04c0,0-9.63,8.7-25.53,8.7
		c-21.35,0-32.84-15.44-32.84-31.33C1948.03,747.02,1959.87,733.33,1979.13,733.33z M1986.56,757c0-4.53-3.13-8.59-7.89-8.59
		c-5.8,0-8.59,4.18-9.63,8.59H1986.56z"/>
	<path class="st2" d="M2047.84,757.24h0.81v-1.04c0-4.99-3.83-6.62-8.82-6.62c-7.54,0-16.13,5.69-16.13,5.69l-6.96-14.16
		c0,0,10.33-7.78,25.07-7.78c16.83,0,26.92,9.17,26.92,24.37v36.79h-18.34v-3.6c0-1.97,0.23-3.71,0.23-3.71h-0.23
		c0,0-4.41,8.7-16.94,8.7c-11.14,0-20.31-7.43-20.31-19.27C2013.14,759.21,2038.55,757.24,2047.84,757.24z M2039.02,780.56
		c5.22,0,9.86-5.69,9.86-10.56v-1.28h-1.86c-6.38,0-13.69,1.86-13.69,6.85C2033.33,778.36,2035.07,780.56,2039.02,780.56z"/>
	<path class="st2" d="M2083.35,751.43h-7.66v-15.67h8.24v-17.18h19.5v17.18h12.53v15.67h-12.53v18.34c0,6.73,6.85,7.66,10.68,7.66
		c1.62,0,2.67-0.12,2.67-0.12v17.41c0,0-2.2,0.35-5.45,0.35c-9.52,0-27.97-2.55-27.97-22.63V751.43z"/>
	<path class="st2" d="M2127.8,775.46h19.03v19.03h-19.03V775.46z"/>
</g>
<linearGradient id="SVGID_1_" gradientUnits="userSpaceOnUse" x1="84.5961" y1="484.9925" x2="872.4956" y2="484.9925">
	<stop  offset="0" style="stop-color:#FDDB00"/>
	<stop  offset="0.0457" style="stop-color:#FBCC04"/>
	<stop  offset="0.1762" style="stop-color:#F7A80D"/>
	<stop  offset="0.3132" style="stop-color:#F48915"/>
	<stop  offset="0.4567" style="stop-color:#F1721B"/>
	<stop  offset="0.6093" style="stop-color:#EF6120"/>
	<stop  offset="0.7774" style="stop-color:#EE5722"/>
	<stop  offset="0.991" style="stop-color:#EE5423"/>
	<stop  offset="1" style="stop-color:#EE5423"/>
</linearGradient>
<path class="st3" d="M854.33,756.97c-14.68-18.58-37.63-34.98-55.99-47.19c-39.61-26.33-75.75-45.12-115.13-59.69L497.43,137.38
	c-1.04-3.28-5.45-15.97-14.84-28.84c-15.09-20.68-35.31-31.62-58.48-31.62c-23.18,0-43.41,10.93-58.49,31.62
	c-9.38,12.86-13.78,25.54-14.83,28.84l-265,729.22c-3.72,10.23,1.55,21.54,11.78,25.27c2.23,0.81,4.5,1.2,6.74,1.2
	c6.22,0,12.13-3,15.84-8.04c0.62-0.76,1.2-1.56,1.72-2.43c39.63-66.86,96.08-122.86,163.24-161.97
	c69.17-40.28,148.3-61.57,228.83-61.57c36.62,0,72.7,4.37,107.6,12.83l-0.01,0.03c10.59,2.84,20.99,5.94,30.95,9.22l33.87,93.76
	l0.08,0.2c0.14,0.36,13.71,36.66,23.52,61.42c11.51,29.05,32.59,48.35,59.36,54.34c5.59,1.25,11.3,1.86,17.04,1.86
	c21.55,0,43.43-8.58,59.98-24.11c16.85-15.8,25.89-35.95,26.16-58.26C872.72,791.33,866.09,771.88,854.33,756.97z M265.27,686.55
	c-36.44,21.22-69.98,47.02-99.79,76.58l222.9-613.84c0.05-0.18,3.37-9.55,9.7-18.31c6.79-9.4,14.29-14.62,26.02-14.62
	c11.71,0,19.36,5.3,26.09,14.63c6.24,8.66,9.38,17.55,9.64,18.36l175.86,485.43c-39.42-9.97-80.27-15.15-121.76-15.15
	C426.45,619.63,340.46,642.77,265.27,686.55z M819.34,839.84c-11.57,10.85-27.44,15.65-41.43,12.52
	c-13.83-3.09-24.65-13.59-31.29-30.37c-9.41-23.76-22.4-58.45-23.2-60.6l-22.1-61.17c24.84,11.35,49.18,25.13,75.17,42.41
	c15.93,10.59,35.65,24.57,46.87,38.78C833.33,794.04,840.48,820.01,819.34,839.84z"/>
<g>
	<linearGradient id="SVGID_2_" gradientUnits="userSpaceOnUse" x1="122.1055" y1="750.9235" x2="652.4773" y2="750.9235">
		<stop  offset="0.2768" style="stop-color:#FFFFFF;stop-opacity:0"/>
		<stop  offset="0.3213" style="stop-color:#F7F7F7;stop-opacity:0.0104"/>
		<stop  offset="0.3897" style="stop-color:#E2E2E2;stop-opacity:0.0263"/>
		<stop  offset="0.4734" style="stop-color:#C0BFBF;stop-opacity:0.0458"/>
		<stop  offset="0.5692" style="stop-color:#908E8F;stop-opacity:0.0681"/>
		<stop  offset="0.6753" style="stop-color:#534F51;stop-opacity:0.0929"/>
		<stop  offset="0.7884" style="stop-color:#090406;stop-opacity:0.1192"/>
		<stop  offset="0.7917" style="stop-color:#070204;stop-opacity:0.12"/>
		<stop  offset="0.905" style="stop-color:#070204;stop-opacity:0.23"/>
	</linearGradient>
	<path class="st4" d="M513.94,619.63c-87.49,0-173.48,23.14-248.67,66.92c-36.44,21.22-69.98,47.02-99.79,76.58l-5.88,16.06
		l-37.5,103.02c39.62-66.69,95.98-122.56,163.01-161.59c69.17-40.28,148.3-61.57,228.83-61.57c36.62,0,72.7,4.37,107.6,12.83
		l-0.01,0.03c10.59,2.84,20.99,5.94,30.95,9.22l-16.79-46.36C596.27,624.81,555.43,619.63,513.94,619.63z"/>
</g>
<linearGradient id="SVGID_3_" gradientUnits="userSpaceOnUse" x1="683.2039" y1="730.0043" x2="872.4869" y2="730.0043">
	<stop  offset="0.1078" style="stop-color:#070204;stop-opacity:0.23"/>
	<stop  offset="0.2389" style="stop-color:#070204;stop-opacity:0.2"/>
	<stop  offset="0.3002" style="stop-color:#161113;stop-opacity:0.1808"/>
	<stop  offset="0.4191" style="stop-color:#3E3A3B;stop-opacity:0.1435"/>
	<stop  offset="0.5837" style="stop-color:#7E7B7C;stop-opacity:0.092"/>
	<stop  offset="0.7855" style="stop-color:#D5D4D5;stop-opacity:0.0287"/>
	<stop  offset="0.8771" style="stop-color:#FFFFFF;stop-opacity:0"/>
</linearGradient>
<path class="st5" d="M854.33,756.97c-14.68-18.58-37.63-34.98-55.99-47.19c-39.61-26.33-75.75-45.12-115.13-59.69l18.11,50.13
	l0.01,0c24.84,11.35,49.18,25.13,75.17,42.41c15.93,10.59,35.65,24.57,46.87,38.78c5.29,6.7,9.79,17.17,9.68,28.49h39.44
	C872.6,791.03,866,771.76,854.33,756.97z"/>
</svg>
